<svg width="251" height="165" viewBox="0 0 251 165" fill="none" xmlns="http://www.w3.org/2000/svg">
<g id="BG">
<path id="Ellipse 218" d="M250.911 109.819C247.53 181.701 74.8384 163.053 64.4749 162.233C45.5382 160.736 0 169.797 0 109.819C0 49.8422 28.1721 41.432 59.0193 41.432C89.8665 41.432 255.38 14.8173 250.911 109.819Z" fill="#DEEBFF"/>
<g id="Group 4795">
<g id="g7854">
<path id="path7856" d="M161.36 18.4524C162.843 18.8277 166.312 18.2134 166.315 18.2127C166.351 18.2058 165.342 16.1408 165.264 16.0191C164.343 14.6044 161.67 12.4468 159.733 13.0067C158.338 13.4096 157.691 14.8924 158.142 16.1217C158.601 17.3786 160.097 18.1322 161.36 18.4524Z" fill="#1C1B1F"/>
</g>
<g id="g7858">
<path id="path7860" d="M182.967 54.6067C182.988 54.681 183.008 54.7507 183.029 54.8242L184.382 55.1198C184.291 54.8257 184.197 54.527 184.099 54.2206C183.823 53.3498 183.51 52.4269 183.178 51.4825C183.401 51.3584 184.662 50.643 185.762 49.8373C186.884 50.7349 189.609 51.566 189.962 51.6709C189.694 52.5617 189.425 53.4256 189.157 54.2375C188.975 54.7974 188.794 55.3328 188.618 55.849L189.933 55.6437C190.048 55.2746 190.165 54.8993 190.284 54.5086C190.559 53.6048 190.836 52.6359 191.11 51.6387C191.491 51.6548 194.6 51.7766 195.99 51.2473C197.249 50.7671 198.739 49.825 199.19 48.5107C199.632 47.2247 198.974 45.8254 197.576 45.5986C195.636 45.2838 192.98 47.7785 192.071 49.3095C192.016 49.3999 191.544 50.4362 191.256 51.0934C191.366 50.6859 191.477 50.2907 191.585 49.8694C191.805 49.0376 191.998 48.2035 192.209 47.3066C192.296 46.8701 192.384 46.4304 192.472 45.9854C192.569 45.5458 192.615 45.0732 192.689 44.6121C192.839 43.5421 192.938 42.4545 193.01 41.3577C193.752 41.4971 196.396 41.9536 197.711 41.6587C199.02 41.3654 200.625 40.6439 201.272 39.3985C201.907 38.1799 201.482 36.6871 200.15 36.2551C198.299 35.6562 195.307 37.7548 194.178 39.1488C194.106 39.2353 193.406 40.3176 193.033 40.9181C193.072 40.2586 193.114 39.6007 193.131 38.9336C193.181 37.008 193.169 35.0618 193.167 33.1194C193.165 32.5243 193.172 31.9315 193.176 31.3371C193.439 31.39 196.565 31.9997 198.038 31.6695C199.347 31.3762 200.951 30.6539 201.599 29.4093C202.233 28.1907 201.809 26.6979 200.476 26.266C198.625 25.6678 195.634 27.7656 194.504 29.1596C194.419 29.2645 193.413 30.8224 193.177 31.2299C193.186 29.9217 193.207 28.6173 193.283 27.3298C193.385 25.5529 193.585 23.8089 193.908 22.1261C194.031 22.1506 197.289 22.8017 198.798 22.4631C200.107 22.169 201.712 21.4475 202.359 20.2029C202.993 18.9843 202.569 17.4915 201.236 17.0603C199.386 16.4606 196.394 18.56 195.264 19.9532C195.175 20.062 194.093 21.7393 193.919 22.0549C193.939 21.9546 193.948 21.8496 193.968 21.7508C194.337 19.9563 194.923 18.2483 195.552 16.672C195.915 15.7544 196.315 14.8943 196.722 14.0648C197.312 14.2478 200.021 15.0513 201.403 14.8904C202.729 14.7365 204.397 14.185 205.176 13.0078C205.941 11.8566 205.691 10.3171 204.425 9.74344C202.666 8.94688 199.476 10.7284 198.201 12.0022C198.131 12.0718 197.503 12.847 197.053 13.4176C197.243 13.0453 197.431 12.6585 197.62 12.3055C198.325 10.9773 199.053 9.79859 199.706 8.75923C200.082 8.171 200.434 7.64558 200.768 7.15615C201.462 7.03667 204.257 6.51967 205.426 5.77596C206.566 5.05063 207.83 3.83204 207.984 2.47253C208.135 1.14058 207.173 -0.070343 205.739 0.00318527C203.749 0.10582 201.675 3.06229 201.115 4.72741C201.067 4.87063 200.572 7.18985 200.608 7.18372C200.608 7.18372 200.641 7.1776 200.65 7.17607C200.318 7.64098 199.97 8.14266 199.599 8.69719C198.921 9.72583 198.166 10.8946 197.429 12.2143C196.689 13.5317 195.922 14.9816 195.252 16.5701C194.578 18.1617 193.952 19.8644 193.536 21.6857C193.531 21.7064 193.529 21.7279 193.524 21.7493C193.478 21.1894 193.291 19.6338 193.262 19.5166C192.862 17.8661 191.07 14.9655 189.086 14.9219C187.658 14.8912 186.578 16.1328 186.6 17.4617C186.624 18.8181 187.772 20.0015 188.845 20.6946C190.054 21.4751 193.233 21.9193 193.487 21.9546C193.107 23.6917 192.861 25.4954 192.715 27.3283C192.63 28.3753 192.579 29.4315 192.542 30.49C192.485 30.0083 192.43 29.5786 192.415 29.5196C192.015 27.8698 190.223 24.97 188.239 24.9264C186.81 24.8949 185.73 26.1357 185.753 27.4646C185.777 28.8218 186.925 30.0052 187.997 30.6976C189.085 31.3999 191.785 31.8335 192.501 31.9376C192.492 32.3443 192.476 32.7495 192.468 33.1547C192.427 35.1024 192.394 37.0448 192.302 38.9535C192.27 39.6252 192.213 40.2885 192.158 40.951C192.107 40.5236 192.061 40.1652 192.048 40.1108C191.647 38.4602 189.855 35.5604 187.872 35.5168C186.442 35.4861 185.362 36.7269 185.385 38.0566C185.408 39.4123 186.557 40.5964 187.63 41.288C188.667 41.959 191.154 42.3802 192.005 42.5089C191.928 43.1883 191.852 43.8677 191.746 44.524C191.663 44.9706 191.615 45.4041 191.506 45.8506C191.408 46.2933 191.311 46.733 191.215 47.1673C190.997 47.9998 190.779 48.8592 190.547 49.6672C190.389 50.2302 190.229 50.764 190.069 51.3025C190.109 50.6331 190.16 49.3226 190.151 49.213C190.062 48.0802 189.456 46.3094 188.493 45.1475C188.481 44.9805 188.454 44.8159 188.409 44.655C188.058 43.3897 186.689 42.6223 185.346 43.1898C183.482 43.9764 182.6 47.394 182.684 49.105C182.689 49.2061 182.869 50.2876 182.995 50.9685C182.857 50.5833 182.728 50.208 182.582 49.8128C182.298 49.0315 181.989 48.2602 181.662 47.4284C181.488 47.0332 181.313 46.6349 181.135 46.2313C180.97 45.8277 180.739 45.4255 180.541 45.0165C180.06 44.0813 179.524 43.1584 178.962 42.2408C179.686 41.9551 182.242 40.9058 183.215 39.966C184.184 39.0301 185.166 37.5932 185.018 36.2513C184.872 34.9362 183.653 33.9696 182.249 34.338C180.3 34.8497 178.9 38.1293 178.714 39.8496C178.703 39.9568 178.712 41.1969 178.73 41.8778C178.388 41.3294 178.049 40.7802 177.684 40.2379C176.629 38.6709 175.508 37.1206 174.397 35.5681C174.057 35.0925 173.724 34.6145 173.388 34.1374C173.647 34.0385 176.709 32.8537 177.799 31.8005C178.768 30.8653 179.75 29.4277 179.601 28.0858C179.456 26.7715 178.236 25.8049 176.832 26.1733C174.884 26.6841 173.484 29.9638 173.298 31.6841C173.285 31.8143 173.3 33.5981 173.327 34.0508C172.588 33 171.864 31.9453 171.194 30.8753C170.268 29.3993 169.448 27.8966 168.767 26.3778C168.888 26.3311 172.089 25.1071 173.205 24.0295C174.175 23.0935 175.156 21.6566 175.007 20.3147C174.862 19.0004 173.642 18.033 172.238 18.4014C170.29 18.9131 168.891 22.1935 168.705 23.9138C168.69 24.0486 168.708 25.968 168.737 26.315C168.697 26.2238 168.645 26.135 168.605 26.0446C167.901 24.4116 167.437 22.7327 167.082 21.1343C166.874 20.206 166.73 19.3045 166.611 18.4237C167.228 18.2529 170.038 17.4463 171.147 16.577C172.21 15.7437 173.342 14.4102 173.348 13.0515C173.354 11.7211 172.26 10.6227 170.832 10.8418C168.851 11.1466 167.097 14.28 166.717 15.9811C166.697 16.0738 166.593 17.0304 166.528 17.7282C166.481 17.3284 166.423 16.9186 166.387 16.5349C166.241 15.095 166.2 13.7622 166.174 12.5812C166.164 11.9087 166.17 11.2998 166.182 10.7307C166.716 10.2627 168.847 8.35252 169.438 7.13317C170.014 5.94216 170.415 4.29006 169.774 3.11973C169.145 1.97391 167.619 1.52048 166.416 2.34768C164.746 3.49503 164.633 6.9708 165.096 8.60221C165.137 8.74238 166.03 10.8617 166.058 10.8379C166.058 10.8379 166.084 10.815 166.09 10.8096C166.068 11.358 166.05 11.947 166.045 12.5896C166.044 13.7745 166.055 15.1133 166.168 16.564C166.278 18.0147 166.439 19.584 166.764 21.2132C167.088 22.8469 167.515 24.5449 168.193 26.2238C168.201 26.243 168.211 26.2621 168.219 26.2813C167.859 25.8592 166.809 24.7142 166.718 24.6353C165.429 23.5301 162.218 22.169 160.471 23.1961C159.212 23.9368 158.983 25.5077 159.761 26.5585C160.556 27.6308 162.228 27.9632 163.554 27.9426C165.05 27.9203 168.065 26.5739 168.304 26.4659C168.965 28.059 169.781 29.6337 170.7 31.1771C171.224 32.0602 171.782 32.9318 172.354 33.7988C172.029 33.445 171.737 33.1302 171.691 33.0903C170.401 31.9851 167.19 30.6248 165.444 31.6519C164.185 32.3918 163.955 33.9635 164.733 35.0136C165.527 36.0866 167.201 36.4183 168.527 36.3984C169.872 36.3784 172.463 35.2786 173.145 34.9791C173.368 35.3092 173.586 35.6409 173.811 35.9702C174.886 37.5495 175.966 39.1212 176.976 40.6975C177.332 41.252 177.659 41.8127 177.99 42.3726C177.702 42.0578 177.457 41.7951 177.414 41.7598C176.125 40.6538 172.915 39.2936 171.167 40.3214C169.909 41.0605 169.679 42.6315 170.457 43.6823C171.253 44.7554 172.925 45.087 174.251 45.0671C175.536 45.0479 177.934 44.053 178.746 43.7007C179.067 44.2843 179.388 44.8695 179.671 45.4508C179.855 45.8529 180.061 46.2259 180.22 46.6411C180.388 47.0478 180.554 47.4506 180.718 47.8505C181.004 48.6317 181.305 49.4367 181.565 50.2072C181.75 50.7411 181.915 51.2542 182.084 51.7712C181.737 51.2136 181.032 50.139 180.962 50.0563C179.873 48.7634 176.943 46.9336 175.071 47.7019C173.723 48.2556 173.252 49.7898 173.85 50.9524C174.459 52.1389 176.044 52.7164 177.346 52.8918C178.779 53.084 181.821 52.2315 182.2 52.1235C182.476 52.9791 182.735 53.8139 182.967 54.6067Z" fill="#1C1B1F"/>
</g>
<g id="g7862">
<path id="path7864" d="M196.606 13.7231C196.638 13.7369 197.009 11.4039 197.016 11.2553C197.087 9.53425 196.18 6.23082 194.311 5.67935C192.964 5.28184 191.602 6.22316 191.26 7.53212C190.912 8.86866 191.678 10.3247 192.505 11.279C193.477 12.3988 196.603 13.7216 196.606 13.7231Z" fill="#1C1B1F"/>
</g>
</g>
</g>
</svg>
