<svg width="50" height="50" viewBox="0 0 50 50" fill="none" xmlns="http://www.w3.org/2000/svg">
<rect x="2.5" y="2.5" width="45" height="45" rx="22.5" fill="#599BFE"/>
<mask id="mask0_294_27545" style="mask-type:alpha" maskUnits="userSpaceOnUse" x="12" y="12" width="26" height="26">
<rect x="12" y="12" width="26" height="26" fill="#D9D9D9"/>
</mask>
<g mask="url(#mask0_294_27545)">
<path d="M22.3458 28.8084L31.7042 19.4501C31.8653 19.289 32.0566 19.2067 32.2781 19.2032C32.4997 19.1998 32.6944 19.2821 32.8625 19.4501C33.0305 19.6182 33.1146 19.8112 33.1146 20.0293C33.1146 20.2473 33.0305 20.4404 32.8625 20.6084L23.0312 30.4396C22.8354 30.6355 22.6069 30.7334 22.3458 30.7334C22.0847 30.7334 21.8563 30.6355 21.6604 30.4396L17.1375 25.9168C16.9764 25.7556 16.8969 25.5643 16.899 25.3428C16.9011 25.1213 16.9861 24.9265 17.1542 24.7585C17.3222 24.5904 17.5153 24.5064 17.7333 24.5064C17.9514 24.5064 18.1444 24.5904 18.3125 24.7585L22.3458 28.8084Z" fill="white"/>
</g>
<rect x="2.5" y="2.5" width="45" height="45" rx="22.5" stroke="#81B3FF" stroke-width="5"/>
</svg>
