<svg width="30" height="30" viewBox="0 0 30 30" fill="none" xmlns="http://www.w3.org/2000/svg">
<g id="Icon / chevron">
<mask id="mask0_287_3517" style="mask-type:alpha" maskUnits="userSpaceOnUse" x="0" y="0" width="30" height="30">
<rect id="Bounding box" width="30" height="30" fill="#D9D9D9"/>
</mask>
<g mask="url(#mask0_287_3517)">
<path id="chevron_left" d="M13.0673 14.9996L18.1586 20.091C18.3317 20.264 18.4202 20.4816 18.4242 20.7436C18.4283 21.0056 18.3397 21.2271 18.1586 21.4082C17.9775 21.5893 17.758 21.6799 17.5 21.6799C17.242 21.6799 17.0225 21.5893 16.8414 21.4082L11.2236 15.7904C11.1066 15.6734 11.0241 15.55 10.976 15.4202C10.9279 15.2904 10.9039 15.1502 10.9039 14.9996C10.9039 14.8489 10.9279 14.7087 10.976 14.5789C11.0241 14.4491 11.1066 14.3257 11.2236 14.2087L16.8414 8.59095C17.0144 8.41787 17.232 8.32933 17.494 8.32533C17.756 8.32131 17.9775 8.40985 18.1586 8.59095C18.3397 8.77203 18.4303 8.99158 18.4303 9.24958C18.4303 9.50758 18.3397 9.72712 18.1586 9.9082L13.0673 14.9996Z" fill="#1C1B1F"/>
</g>
</g>
</svg>
