<svg width="16" height="20" viewBox="0 0 16 20" fill="none" xmlns="http://www.w3.org/2000/svg">
<path d="M4.99997 15.75H11C11.2128 15.75 11.391 15.6782 11.5346 15.5346C11.6782 15.391 11.75 15.2128 11.75 15C11.75 14.7872 11.6782 14.609 11.5346 14.4654C11.391 14.3218 11.2128 14.25 11 14.25H4.99997C4.78716 14.25 4.60896 14.3218 4.46537 14.4654C4.32179 14.609 4.25 14.7872 4.25 15C4.25 15.2128 4.32179 15.391 4.46537 15.5346C4.60896 15.6782 4.78716 15.75 4.99997 15.75ZM4.99997 11.75H11C11.2128 11.75 11.391 11.6782 11.5346 11.5346C11.6782 11.391 11.75 11.2128 11.75 11C11.75 10.7872 11.6782 10.609 11.5346 10.4654C11.391 10.3218 11.2128 10.25 11 10.25H4.99997C4.78716 10.25 4.60896 10.3218 4.46537 10.4654C4.32179 10.609 4.25 10.7872 4.25 11C4.25 11.2128 4.32179 11.391 4.46537 11.5346C4.60896 11.6782 4.78716 11.75 4.99997 11.75ZM2.3077 19.5C1.80257 19.5 1.375 19.325 1.025 18.975C0.675 18.625 0.5 18.1974 0.5 17.6923V2.3077C0.5 1.80257 0.675 1.375 1.025 1.025C1.375 0.675 1.80257 0.5 2.3077 0.5H9.50193C9.74294 0.5 9.97467 0.546801 10.1971 0.640401C10.4195 0.733984 10.6128 0.862826 10.7769 1.02693L14.973 5.22303C15.1371 5.38714 15.266 5.58042 15.3595 5.80285C15.4531 6.02528 15.5 6.25701 15.5 6.49803V17.6923C15.5 18.1974 15.325 18.625 14.975 18.975C14.625 19.325 14.1974 19.5 13.6922 19.5H2.3077ZM9.5 5.5961V1.99998H2.3077C2.23077 1.99998 2.16024 2.03203 2.09612 2.09613C2.03202 2.16024 1.99997 2.23077 1.99997 2.3077V17.6923C1.99997 17.7692 2.03202 17.8397 2.09612 17.9038C2.16024 17.9679 2.23077 18 2.3077 18H13.6922C13.7692 18 13.8397 17.9679 13.9038 17.9038C13.9679 17.8397 14 17.7692 14 17.6923V6.49995H10.4039C10.1462 6.49995 9.93111 6.41373 9.75868 6.24128C9.58623 6.06884 9.5 5.85378 9.5 5.5961Z" fill="#1C1B1F"/>
</svg>
