<svg width="36" height="24" viewBox="0 0 36 24" fill="none" xmlns="http://www.w3.org/2000/svg">
<rect width="36" height="24" rx="12" fill="#FFF59E"/>
<mask id="mask0_857_56520" style="mask-type:alpha" maskUnits="userSpaceOnUse" x="9" y="3" width="18" height="18">
<rect x="9" y="3" width="18" height="18" fill="#D9D9D9"/>
</mask>
<g mask="url(#mask0_857_56520)">
<path d="M18.5625 11.7721V8.81249C18.5625 8.65313 18.5085 8.51954 18.4007 8.41173C18.2928 8.30392 18.1592 8.25001 17.9997 8.25001C17.8403 8.25001 17.7067 8.30392 17.599 8.41173C17.4913 8.51954 17.4375 8.65313 17.4375 8.81249V11.9452C17.4375 12.0335 17.4538 12.119 17.4865 12.2018C17.5192 12.2846 17.5707 12.3611 17.6409 12.4313L20.2096 15C20.3135 15.1039 20.444 15.157 20.6012 15.1594C20.7584 15.1618 20.8913 15.1087 21 15C21.1086 14.8914 21.163 14.7596 21.163 14.6048C21.163 14.45 21.1086 14.3183 21 14.2096L18.5625 11.7721ZM18.0012 19.125C17.0158 19.125 16.0895 18.938 15.2224 18.564C14.3553 18.19 13.601 17.6824 12.9596 17.0413C12.3182 16.4002 11.8104 15.6462 11.4362 14.7795C11.0621 13.9128 10.875 12.9867 10.875 12.0013C10.875 11.0158 11.062 10.0895 11.436 9.22244C11.81 8.35533 12.3176 7.60107 12.9587 6.95966C13.5998 6.31823 14.3538 5.81044 15.2205 5.43628C16.0872 5.06211 17.0133 4.87503 17.9987 4.87503C18.9842 4.87503 19.9105 5.06203 20.7776 5.43603C21.6447 5.81003 22.3989 6.31759 23.0403 6.95872C23.6818 7.59986 24.1896 8.35379 24.5637 9.22051C24.9379 10.0872 25.125 11.0133 25.125 11.9988C25.125 12.9842 24.938 13.9105 24.564 14.7776C24.19 15.6447 23.6824 16.399 23.0413 17.0404C22.4001 17.6818 21.6462 18.1896 20.7795 18.5638C19.9128 18.9379 18.9867 19.125 18.0012 19.125ZM18 18C19.6625 18 21.0781 17.4156 22.2469 16.2469C23.4156 15.0781 24 13.6625 24 12C24 10.3375 23.4156 8.92189 22.2469 7.75314C21.0781 6.58439 19.6625 6.00001 18 6.00001C16.3375 6.00001 14.9219 6.58439 13.7531 7.75314C12.5844 8.92189 12 10.3375 12 12C12 13.6625 12.5844 15.0781 13.7531 16.2469C14.9219 17.4156 16.3375 18 18 18Z" fill="#CFBB03"/>
</g>
</svg>
