<svg width="200" height="200" viewBox="0 0 200 200" fill="none" xmlns="http://www.w3.org/2000/svg">
<g id="format_quote">
<mask id="mask0_15_1880" style="mask-type:alpha" maskUnits="userSpaceOnUse" x="0" y="0" width="200" height="200">
<rect id="Bounding box" width="200" height="200" fill="#F7F7F5"/>
</mask>
<g mask="url(#mask0_15_1880)">
<path id="format_quote_2" d="M48.2857 137.741L63.596 113.061C63.0793 113.328 62.4764 113.515 61.7875 113.622C61.0987 113.729 60.4098 113.782 59.7208 113.782C50.6163 113.782 42.8868 110.799 36.5322 104.832C30.1774 98.8652 27 91.6991 27 83.3338C27 74.8616 30.1774 67.6688 36.5322 61.7555C42.8868 55.842 50.6163 52.8853 59.7208 52.8853C68.7104 52.8853 76.4112 55.842 82.8233 61.7555C89.2355 67.6688 92.4416 74.8616 92.4416 83.3338C92.4416 86.2612 92.0599 88.9855 91.2963 91.5069C90.5328 94.0282 89.4163 96.432 87.9468 98.7184L59.8583 143.991C59.2843 144.92 58.4978 145.673 57.499 146.25C56.5002 146.827 55.3809 147.116 54.141 147.116C51.5693 147.116 49.6404 146.074 48.3546 143.991C47.0688 141.907 47.0458 139.824 48.2857 137.741ZM127.849 137.741L143.16 113.061C142.643 113.328 142.04 113.515 141.351 113.622C140.662 113.729 139.973 113.782 139.284 113.782C130.18 113.782 122.451 110.799 116.096 104.832C109.741 98.8652 106.564 91.6991 106.564 83.3338C106.564 74.8082 109.741 67.6021 116.096 61.7153C122.451 55.8286 130.18 52.8853 139.284 52.8853C148.274 52.8853 155.975 55.842 162.387 61.7555C168.799 67.6688 172.005 74.8616 172.005 83.3338C172.005 86.2612 171.624 88.9855 170.86 91.5069C170.096 94.0282 168.98 96.432 167.51 98.7184L139.422 143.991C138.848 144.92 138.062 145.673 137.063 146.25C136.064 146.827 134.944 147.116 133.705 147.116C131.133 147.116 129.204 146.074 127.918 143.991C126.632 141.907 126.609 139.824 127.849 137.741Z" fill="#F7F7F5"/>
</g>
</g>
</svg>
