<svg width="41" height="41" viewBox="0 0 41 41" fill="none" xmlns="http://www.w3.org/2000/svg">
<g id="Icon / home">
<mask id="mask0_294_28057" style="mask-type:alpha" maskUnits="userSpaceOnUse" x="0" y="0" width="41" height="41">
<rect id="Bounding box" x="0.666748" y="0.5" width="40" height="40" fill="#D9D9D9"/>
</mask>
<g mask="url(#mask0_294_28057)">
<path id="home" d="M10.6667 32.1666H16.2437V23.7692C16.2437 23.3423 16.388 22.9846 16.6767 22.6959C16.9655 22.4071 17.3232 22.2628 17.7501 22.2628H23.5833C24.0102 22.2628 24.3679 22.4071 24.6567 22.6959C24.9454 22.9846 25.0897 23.3423 25.0897 23.7692V32.1666H30.6667V17.423C30.6667 17.3376 30.648 17.2601 30.6106 17.1907C30.5732 17.1212 30.5225 17.0598 30.4584 17.0064L20.9712 9.87494C20.8857 9.80016 20.7842 9.76277 20.6667 9.76277C20.5492 9.76277 20.4477 9.80016 20.3622 9.87494L10.875 17.0064C10.811 17.0598 10.7602 17.1212 10.7228 17.1907C10.6854 17.2601 10.6667 17.3376 10.6667 17.423V32.1666ZM8.16675 32.1666V17.423C8.16675 16.946 8.27346 16.4941 8.48687 16.0673C8.70029 15.6405 8.99529 15.289 9.37187 15.0128L18.859 7.8654C19.3855 7.46368 19.9872 7.26282 20.6641 7.26282C21.341 7.26282 21.9445 7.46368 22.4744 7.8654L31.9615 15.0128C32.3381 15.289 32.6331 15.6405 32.8465 16.0673C33.06 16.4941 33.1667 16.946 33.1667 17.423V32.1666C33.1667 32.8482 32.9204 33.4353 32.4279 33.9278C31.9354 34.4203 31.3483 34.6666 30.6667 34.6666H24.0962C23.6694 34.6666 23.3116 34.5222 23.0229 34.2334C22.7342 33.9447 22.5898 33.587 22.5898 33.1602V24.7627H18.7436V33.1602C18.7436 33.587 18.5993 33.9447 18.3105 34.2334C18.0218 34.5222 17.664 34.6666 17.2372 34.6666H10.6667C9.9851 34.6666 9.39804 34.4203 8.90554 33.9278C8.41301 33.4353 8.16675 32.8482 8.16675 32.1666Z" fill="#1C1B1F"/>
</g>
</g>
</svg>
