<svg width="24" height="24" viewBox="0 0 24 24" fill="none" xmlns="http://www.w3.org/2000/svg">
<g id="Icon">
<mask id="mask0_262_16086" style="mask-type:alpha" maskUnits="userSpaceOnUse" x="0" y="0" width="24" height="24">
<rect id="Bounding box" width="24" height="24" fill="#D9D9D9"/>
</mask>
<g mask="url(#mask0_262_16086)">
<path id="person" d="M12 11.3846C11.175 11.3846 10.4687 11.0909 9.88125 10.5034C9.29375 9.91587 9 9.20962 9 8.38462C9 7.55961 9.29375 6.85335 9.88125 6.26585C10.4687 5.67835 11.175 5.3846 12 5.3846C12.825 5.3846 13.5313 5.67835 14.1188 6.26585C14.7063 6.85335 15 7.55961 15 8.38462C15 9.20962 14.7063 9.91587 14.1188 10.5034C13.5313 11.0909 12.825 11.3846 12 11.3846ZM5 18.6154V16.9692C5 16.5564 5.12019 16.1702 5.36058 15.8106C5.60096 15.451 5.92436 15.1718 6.33078 14.9731C7.27436 14.5205 8.21858 14.1811 9.16345 13.9548C10.1083 13.7285 11.0538 13.6154 12 13.6154C12.9462 13.6154 13.8917 13.7285 14.8365 13.9548C15.7814 14.1811 16.7256 14.5205 17.6692 14.9731C18.0756 15.1718 18.399 15.451 18.6394 15.8106C18.8798 16.1702 19 16.5564 19 16.9692V18.6154H5Z" fill="#1C1B1F"/>
</g>
</g>
</svg>
