<svg width="40" height="40" viewBox="0 0 40 40" fill="none" xmlns="http://www.w3.org/2000/svg">
<g id="redeem">
<mask id="mask0_262_13270" style="mask-type:alpha" maskUnits="userSpaceOnUse" x="0" y="0" width="40" height="40">
<rect id="Bounding box" width="40" height="40" fill="#D9D9D9"/>
</mask>
<g mask="url(#mask0_262_13270)">
<path id="redeem_2" d="M6.66658 27.9807V31.1537C6.66658 31.282 6.72 31.3995 6.82683 31.5064C6.9337 31.6132 7.05124 31.6666 7.17946 31.6666H32.8204C32.9486 31.6666 33.0661 31.6132 33.173 31.5064C33.2798 31.3995 33.3333 31.282 33.3333 31.1537V27.9807H6.66658ZM7.17946 10.8654H11.7917C11.6528 10.6154 11.5492 10.3515 11.4808 10.0737C11.4124 9.79595 11.3782 9.50429 11.3782 9.19873C11.3782 8.0342 11.7815 7.04863 12.5881 6.24202C13.3947 5.43541 14.3803 5.0321 15.5448 5.0321C16.2435 5.0321 16.8898 5.21365 17.4838 5.57673C18.0776 5.93981 18.5959 6.39074 19.0384 6.92952L19.9679 8.17311L20.8974 6.92952C21.3226 6.36969 21.8374 5.91349 22.4417 5.56094C23.0461 5.20838 23.697 5.0321 24.3943 5.0321C25.5565 5.0321 26.541 5.43541 27.3476 6.24202C28.1542 7.04863 28.5575 8.0342 28.5575 9.19873C28.5575 9.50429 28.526 9.79595 28.463 10.0737C28.3999 10.3515 28.2936 10.6154 28.144 10.8654H32.8204C33.6623 10.8654 34.3749 11.1571 34.9582 11.7404C35.5415 12.3237 35.8332 13.0363 35.8332 13.8782V31.1537C35.8332 31.9956 35.5415 32.7082 34.9582 33.2916C34.3749 33.8749 33.6623 34.1666 32.8204 34.1666H7.17946C6.33757 34.1666 5.62496 33.8749 5.04163 33.2916C4.45829 32.7082 4.16663 31.9956 4.16663 31.1537V13.8782C4.16663 13.0363 4.45829 12.3237 5.04163 11.7404C5.62496 11.1571 6.33757 10.8654 7.17946 10.8654ZM6.66658 23.6859H33.3333V13.8782C33.3333 13.75 33.2798 13.6324 33.173 13.5256C33.0661 13.4187 32.9486 13.3653 32.8204 13.3653H23.7114L27.1152 18.0191L25.1217 19.455L19.9679 12.4615L14.814 19.455L12.8205 18.0191L16.1731 13.3653H7.17946C7.05124 13.3653 6.9337 13.4187 6.82683 13.5256C6.72 13.6324 6.66658 13.75 6.66658 13.8782V23.6859ZM15.5448 10.8654C16.0171 10.8654 16.4129 10.7057 16.7323 10.3862C17.0518 10.0668 17.2115 9.67095 17.2115 9.19873C17.2115 8.72651 17.0518 8.33067 16.7323 8.01123C16.4129 7.69179 16.0171 7.53206 15.5448 7.53206C15.0726 7.53206 14.6768 7.69179 14.3573 8.01123C14.0379 8.33067 13.8782 8.72651 13.8782 9.19873C13.8782 9.67095 14.0379 10.0668 14.3573 10.3862C14.6768 10.7057 15.0726 10.8654 15.5448 10.8654ZM24.3909 10.8654C24.8631 10.8654 25.259 10.7057 25.5784 10.3862C25.8979 10.0668 26.0576 9.67095 26.0576 9.19873C26.0576 8.72651 25.8979 8.33067 25.5784 8.01123C25.259 7.69179 24.8631 7.53206 24.3909 7.53206C23.9187 7.53206 23.5229 7.69179 23.2034 8.01123C22.884 8.33067 22.7243 8.72651 22.7243 9.19873C22.7243 9.67095 22.884 10.0668 23.2034 10.3862C23.5229 10.7057 23.9187 10.8654 24.3909 10.8654Z" fill="white"/>
</g>
</g>
</svg>
