<svg width="30" height="30" viewBox="0 0 30 30" fill="none" xmlns="http://www.w3.org/2000/svg">
<g id="Icon / schedule">
<mask id="mask0_922_87700" style="mask-type:alpha" maskUnits="userSpaceOnUse" x="0" y="0" width="30" height="30">
<rect id="Bounding box" width="30" height="30" fill="#D9D9D9"/>
</mask>
<g mask="url(#mask0_922_87700)">
<path id="schedule" d="M15.9375 14.6202V9.68744C15.9375 9.42184 15.8476 9.19919 15.6678 9.0195C15.4881 8.83981 15.2653 8.74997 14.9996 8.74997C14.7338 8.74997 14.5112 8.83981 14.3318 9.0195C14.1523 9.19919 14.0625 9.42184 14.0625 9.68744V14.9086C14.0625 15.0558 14.0898 15.1983 14.1442 15.3363C14.1987 15.4742 14.2845 15.6017 14.4015 15.7187L18.6827 20C18.8558 20.173 19.0733 20.2616 19.3353 20.2656C19.5974 20.2696 19.8189 20.1811 20 20C20.1811 19.8189 20.2716 19.5993 20.2716 19.3413C20.2716 19.0833 20.1811 18.8638 20 18.6827L15.9375 14.6202ZM15.0021 26.8749C13.3597 26.8749 11.8159 26.5633 10.3707 25.9399C8.92553 25.3166 7.66843 24.4707 6.59941 23.4021C5.53036 22.3336 4.68404 21.077 4.06044 19.6325C3.43683 18.188 3.12503 16.6445 3.12503 15.0021C3.12503 13.3596 3.4367 11.8159 4.06003 10.3707C4.68336 8.9255 5.5293 7.6684 6.59784 6.59938C7.66641 5.53034 8.92296 4.68401 10.3675 4.06041C11.812 3.4368 13.3555 3.125 14.9979 3.125C16.6403 3.125 18.1841 3.43667 19.6293 4.06C21.0745 4.68333 22.3316 5.52927 23.4006 6.59781C24.4696 7.66638 25.316 8.92293 25.9396 10.3675C26.5632 11.812 26.875 13.3555 26.875 14.9979C26.875 16.6403 26.5633 18.1841 25.94 19.6293C25.3166 21.0744 24.4707 22.3315 23.4022 23.4006C22.3336 24.4696 21.077 25.3159 19.6325 25.9395C18.188 26.5631 16.6445 26.8749 15.0021 26.8749ZM15 25C17.7708 25 20.1302 24.026 22.0781 22.0781C24.026 20.1302 25 17.7708 25 15C25 12.2291 24.026 9.86976 22.0781 7.92184C20.1302 5.97393 17.7708 4.99997 15 4.99997C12.2292 4.99997 9.86979 5.97393 7.92187 7.92184C5.97396 9.86976 5 12.2291 5 15C5 17.7708 5.97396 20.1302 7.92187 22.0781C9.86979 24.026 12.2292 25 15 25Z" fill="#1C1B1F"/>
</g>
</g>
</svg>
