<svg width="36" height="24" viewBox="0 0 36 24" fill="none" xmlns="http://www.w3.org/2000/svg">
<rect width="36" height="24" rx="12" fill="#BDFCCE"/>
<mask id="mask0_857_20904" style="mask-type:alpha" maskUnits="userSpaceOnUse" x="9" y="3" width="18" height="18">
<rect x="9" y="3" width="18" height="18" fill="#D9D9D9"/>
</mask>
<g mask="url(#mask0_857_20904)">
<path d="M16.1616 14.6365L22.6404 8.15769C22.752 8.04616 22.8844 7.98918 23.0378 7.98677C23.1911 7.98437 23.326 8.04134 23.4423 8.15769C23.5587 8.27403 23.6168 8.40768 23.6168 8.55864C23.6168 8.70959 23.5587 8.84324 23.4423 8.95959L16.6361 15.7658C16.5005 15.9014 16.3423 15.9692 16.1616 15.9692C15.9808 15.9692 15.8226 15.9014 15.6871 15.7658L12.5558 12.6346C12.4443 12.5231 12.3892 12.3906 12.3907 12.2372C12.3921 12.0839 12.451 11.949 12.5673 11.8327C12.6837 11.7163 12.8173 11.6582 12.9683 11.6582C13.1192 11.6582 13.2529 11.7163 13.3692 11.8327L16.1616 14.6365Z" fill="#388558"/>
</g>
</svg>
