<svg width="30" height="30" viewBox="0 0 30 30" fill="none" xmlns="http://www.w3.org/2000/svg">
<g id="toll">
<mask id="mask0_294_28089" style="mask-type:alpha" maskUnits="userSpaceOnUse" x="0" y="0" width="30" height="30">
<rect id="Bounding box" width="30" height="30" fill="#D9D9D9"/>
</mask>
<g mask="url(#mask0_294_28089)">
<path id="toll_2" d="M18.7518 24.3749C16.1352 24.3749 13.9182 23.4669 12.1009 21.6509C10.2836 19.8349 9.37497 17.6185 9.37497 15.0019C9.37497 12.3852 10.283 10.1683 12.099 8.35097C13.9151 6.53366 16.1314 5.625 18.748 5.625C21.3647 5.625 23.5816 6.53302 25.3989 8.34906C27.2163 10.1651 28.1249 12.3814 28.1249 14.9981C28.1249 17.6147 27.2169 19.8317 25.4008 21.649C23.5848 23.4663 21.3685 24.3749 18.7518 24.3749ZM7.45191 23.5817C5.74997 22.8653 4.395 21.7307 3.387 20.1778C2.379 18.625 1.875 16.899 1.875 15C1.875 13.1009 2.379 11.375 3.387 9.82209C4.395 8.26922 5.74997 7.13461 7.45191 6.41828C7.78522 6.26603 8.08488 6.2808 8.35091 6.4626C8.61693 6.64439 8.74994 6.94079 8.74994 7.35181C8.74994 7.50987 8.69808 7.66249 8.59438 7.80966C8.49067 7.95682 8.35903 8.06914 8.19947 8.1466C6.83889 8.72672 5.75716 9.63618 4.95428 10.875C4.15139 12.1137 3.74994 13.4887 3.74994 15C3.74994 16.5112 4.15139 17.8862 4.95428 19.125C5.75716 20.3638 6.83889 21.2732 8.19947 21.8533C8.35903 21.9328 8.49067 22.0439 8.59438 22.1869C8.69808 22.3299 8.74994 22.4887 8.74994 22.6634C8.74994 23.048 8.61693 23.3353 8.35091 23.5252C8.08488 23.7151 7.78522 23.7339 7.45191 23.5817ZM18.7499 22.5C20.8333 22.5 22.6041 21.7708 24.0624 20.3125C25.5208 18.8541 26.2499 17.0833 26.2499 15C26.2499 12.9166 25.5208 11.1458 24.0624 9.68747C22.6041 8.22914 20.8333 7.49997 18.7499 7.49997C16.6666 7.49997 14.8958 8.22914 13.4374 9.68747C11.9791 11.1458 11.2499 12.9166 11.2499 15C11.2499 17.0833 11.9791 18.8541 13.4374 20.3125C14.8958 21.7708 16.6666 22.5 18.7499 22.5Z" fill="$mainGray"/>
</g>
</g>
</svg>
