<svg width="30" height="31" viewBox="0 0 30 31" fill="none" xmlns="http://www.w3.org/2000/svg">
<g id="Icon / art_track">
<mask id="mask0_922_87707" style="mask-type:alpha" maskUnits="userSpaceOnUse" x="0" y="0" width="30" height="31">
<rect id="Bounding box" y="0.5" width="30" height="30" fill="#D9D9D9"/>
</mask>
<g mask="url(#mask0_922_87707)">
<path id="art_track" d="M3.99041 23.6249C3.359 23.6249 2.82455 23.4062 2.38707 22.9687C1.94957 22.5312 1.73082 21.9967 1.73082 21.3653V9.63463C1.73082 9.00321 1.94957 8.46875 2.38707 8.03125C2.82457 7.59375 3.35902 7.375 3.99041 7.375H15.7211C16.3525 7.375 16.887 7.59375 17.3245 8.03125C17.762 8.46875 17.9807 9.00321 17.9807 9.63463V21.3653C17.9807 21.9967 17.762 22.5312 17.3245 22.9687C16.887 23.4062 16.3525 23.6249 15.7211 23.6249H3.99041ZM3.99041 21.75H15.7211C15.8173 21.75 15.9054 21.7099 15.9856 21.6298C16.0657 21.5496 16.1058 21.4615 16.1058 21.3653V9.63463C16.1058 9.53846 16.0657 9.4503 15.9856 9.37016C15.9054 9.29003 15.8173 9.24997 15.7211 9.24997H3.99041C3.89425 9.24997 3.8061 9.29003 3.72598 9.37016C3.64583 9.4503 3.60576 9.53846 3.60576 9.63463V21.3653C3.60576 21.4615 3.64583 21.5496 3.72598 21.6298C3.8061 21.7099 3.89425 21.75 3.99041 21.75ZM9.23076 18.2404L7.93269 16.524C7.81569 16.3734 7.66505 16.3013 7.48076 16.3077C7.29647 16.3141 7.14583 16.3926 7.02885 16.5433L5.79088 18.2019C5.64826 18.3942 5.63664 18.5929 5.75604 18.798C5.87541 19.0032 6.04808 19.1057 6.27404 19.1057H13.4375C13.6634 19.1057 13.8309 19.0032 13.9399 18.798C14.0489 18.5929 14.032 18.3942 13.8894 18.2019L12.0577 15.7115C11.9407 15.5609 11.79 15.4856 11.6058 15.4856C11.4215 15.4856 11.2708 15.5609 11.1539 15.7115L9.23076 18.2404ZM22.1875 23.6249C21.9215 23.6249 21.6987 23.5352 21.5192 23.3557C21.3397 23.1762 21.25 22.9535 21.25 22.6874V8.3125C21.25 8.04648 21.3397 7.82373 21.5192 7.64425C21.6987 7.46475 21.9215 7.375 22.1875 7.375C22.4535 7.375 22.6762 7.46475 22.8557 7.64425C23.0352 7.82373 23.125 8.04648 23.125 8.3125V22.6874C23.125 22.9535 23.0352 23.1762 22.8557 23.3557C22.6762 23.5352 22.4535 23.6249 22.1875 23.6249ZM27.3317 23.6249C27.0657 23.6249 26.843 23.5352 26.6635 23.3557C26.484 23.1762 26.3943 22.9535 26.3943 22.6874V8.3125C26.3943 8.04648 26.484 7.82373 26.6635 7.64425C26.843 7.46475 27.0657 7.375 27.3317 7.375C27.5977 7.375 27.8205 7.46475 28 7.64425C28.1795 7.82373 28.2692 8.04648 28.2692 8.3125V22.6874C28.2692 22.9535 28.1795 23.1762 28 23.3557C27.8205 23.5352 27.5977 23.6249 27.3317 23.6249Z" fill="#1C1B1F"/>
</g>
</g>
</svg>
