<svg width="90" height="90" viewBox="0 0 90 90" fill="none" xmlns="http://www.w3.org/2000/svg">
<g filter="url(#filter0_d_519_42578)">
<rect x="20" y="20" width="50" height="50" rx="25" fill="white"/>
<mask id="mask0_519_42578" style="mask-type:alpha" maskUnits="userSpaceOnUse" x="30" y="30" width="30" height="30">
<rect x="30" y="30" width="30" height="30" fill="#D9D9D9"/>
</mask>
<g mask="url(#mask0_519_42578)">
<path d="M50.7644 45.9375H36.5625C36.2965 45.9375 36.0737 45.8478 35.8942 45.6683C35.7147 45.4888 35.625 45.2661 35.625 45.0001C35.625 44.734 35.7147 44.5113 35.8942 44.3318C36.0737 44.1523 36.2965 44.0626 36.5625 44.0626H50.7644L46.649 39.9472C46.4631 39.7613 46.3714 39.5437 46.3738 39.2945C46.3762 39.0453 46.4679 38.8238 46.649 38.6299C46.8429 38.436 47.0657 38.3358 47.3173 38.3294C47.5689 38.323 47.7916 38.4167 47.9855 38.6107L53.5841 44.2092C53.701 44.3262 53.7836 44.4496 53.8317 44.5794C53.8797 44.7092 53.9038 44.8494 53.9038 45.0001C53.9038 45.1507 53.8797 45.2909 53.8317 45.4207C53.7836 45.5505 53.701 45.6739 53.5841 45.7909L47.9855 51.3895C47.7996 51.5754 47.5789 51.6671 47.3233 51.6647C47.0677 51.6623 46.8429 51.5641 46.649 51.3703C46.4679 51.1763 46.3742 50.9568 46.3677 50.7116C46.3614 50.4664 46.4551 50.2469 46.649 50.053L50.7644 45.9375Z" fill="#353535"/>
</g>
</g>
<defs>
<filter id="filter0_d_519_42578" x="0" y="0" width="90" height="90" filterUnits="userSpaceOnUse" color-interpolation-filters="sRGB">
<feFlood flood-opacity="0" result="BackgroundImageFix"/>
<feColorMatrix in="SourceAlpha" type="matrix" values="0 0 0 0 0 0 0 0 0 0 0 0 0 0 0 0 0 0 127 0" result="hardAlpha"/>
<feOffset/>
<feGaussianBlur stdDeviation="10"/>
<feComposite in2="hardAlpha" operator="out"/>
<feColorMatrix type="matrix" values="0 0 0 0 0 0 0 0 0 0 0 0 0 0 0 0 0 0 0.1 0"/>
<feBlend mode="normal" in2="BackgroundImageFix" result="effect1_dropShadow_519_42578"/>
<feBlend mode="normal" in="SourceGraphic" in2="effect1_dropShadow_519_42578" result="shape"/>
</filter>
</defs>
</svg>
