<svg width="30" height="31" viewBox="0 0 30 31" fill="none" xmlns="http://www.w3.org/2000/svg">
<g id="Icon / description">
<mask id="mask0_922_87712" style="mask-type:alpha" maskUnits="userSpaceOnUse" x="0" y="0" width="30" height="31">
<rect id="Bounding box" y="0.5" width="30" height="30" fill="#D9D9D9"/>
</mask>
<g mask="url(#mask0_922_87712)">
<path id="description" d="M11.25 22.6874H18.75C19.016 22.6874 19.2388 22.5977 19.4182 22.4182C19.5977 22.2387 19.6875 22.016 19.6875 21.75C19.6875 21.4839 19.5977 21.2612 19.4182 21.0817C19.2388 20.9022 19.016 20.8125 18.75 20.8125H11.25C10.984 20.8125 10.7612 20.9022 10.5817 21.0817C10.4023 21.2612 10.3125 21.4839 10.3125 21.75C10.3125 22.016 10.4023 22.2387 10.5817 22.4182C10.7612 22.5977 10.984 22.6874 11.25 22.6874ZM11.25 17.6874H18.75C19.016 17.6874 19.2388 17.5977 19.4182 17.4182C19.5977 17.2387 19.6875 17.016 19.6875 16.75C19.6875 16.4839 19.5977 16.2612 19.4182 16.0817C19.2388 15.9022 19.016 15.8125 18.75 15.8125H11.25C10.984 15.8125 10.7612 15.9022 10.5817 16.0817C10.4023 16.2612 10.3125 16.4839 10.3125 16.75C10.3125 17.016 10.4023 17.2387 10.5817 17.4182C10.7612 17.5977 10.984 17.6874 11.25 17.6874ZM7.88466 27.3749C7.25324 27.3749 6.71878 27.1562 6.28128 26.7187C5.84378 26.2812 5.62503 25.7467 5.62503 25.1153V5.88463C5.62503 5.25321 5.84378 4.71875 6.28128 4.28125C6.71878 3.84375 7.25324 3.625 7.88466 3.625H16.8774C17.1787 3.625 17.4684 3.6835 17.7464 3.8005C18.0244 3.91748 18.266 4.07853 18.4712 4.28366L23.7163 9.52878C23.9214 9.73393 24.0825 9.97552 24.1995 10.2536C24.3165 10.5316 24.375 10.8213 24.375 11.1225V25.1153C24.375 25.7467 24.1562 26.2812 23.7187 26.7187C23.2812 27.1562 22.7468 27.3749 22.1153 27.3749H7.88466ZM16.875 9.99513V5.49997H7.88466C7.78849 5.49997 7.70033 5.54003 7.62019 5.62016C7.54006 5.7003 7.5 5.78846 7.5 5.88463V25.1153C7.5 25.2115 7.54006 25.2996 7.62019 25.3798C7.70033 25.4599 7.78849 25.5 7.88466 25.5H22.1153C22.2115 25.5 22.2997 25.4599 22.3798 25.3798C22.4599 25.2996 22.5 25.2115 22.5 25.1153V11.1249H18.0048C17.6827 11.1249 17.4139 11.0172 17.1984 10.8016C16.9828 10.5861 16.875 10.3172 16.875 9.99513Z" fill="#1C1B1F"/>
</g>
</g>
</svg>
