<svg width="160" height="160" viewBox="0 0 160 160" fill="none" xmlns="http://www.w3.org/2000/svg">
<g id="Signing a contract-bro 1">
<g id="freepik--background-simple--inject-9">
<path id="Vector" d="M156.358 95.8432C158.278 67.0688 143.741 39.5232 118.55 25.488C113.834 22.8628 108.849 20.7546 103.68 19.2C63.36 7.04 48.32 17.28 37.76 30.08C27.2 42.88 37.12 64.64 24.96 73.6C12.8 82.56 -1.91999 95.36 4.16001 114.24C10.24 133.12 25.28 145.6 39.36 144.32C53.44 143.04 68.16 126.4 78.08 137.28C88 148.16 119.68 158.72 140.48 140.48C151.597 130.733 155.309 111.571 156.358 95.8432Z" fill="#599BFE"/>
<path id="Vector_2" opacity="0.7" d="M156.358 95.8432C158.278 67.0688 143.741 39.5232 118.55 25.488C113.834 22.8628 108.849 20.7546 103.68 19.2C63.36 7.04 48.32 17.28 37.76 30.08C27.2 42.88 37.12 64.64 24.96 73.6C12.8 82.56 -1.91999 95.36 4.16001 114.24C10.24 133.12 25.28 145.6 39.36 144.32C53.44 143.04 68.16 126.4 78.08 137.28C88 148.16 119.68 158.72 140.48 140.48C151.597 130.733 155.309 111.571 156.358 95.8432Z" fill="white"/>
</g>
<g id="freepik--Plants--inject-9">
<path id="Vector_3" d="M141.174 100.109C139.83 100.336 137.312 102.067 137.309 102.067C137.306 102.067 138.954 103.382 139.069 103.453C140.397 104.259 143.44 105.037 144.755 103.894C144.968 103.699 145.138 103.461 145.253 103.196C145.369 102.931 145.427 102.644 145.424 102.355C145.421 102.066 145.358 101.781 145.238 101.518C145.117 101.255 144.943 101.02 144.726 100.829C143.83 99.9872 142.32 99.9136 141.174 100.109Z" fill="#599BFE"/>
<path id="Vector_4" d="M135.446 93.28C134.259 93.8304 132.41 95.984 132.262 96.16C131.033 95.0999 129.734 94.1228 128.374 93.2352C127.584 92.7136 126.774 92.2144 125.955 91.7216C126.362 91.8912 126.726 92.0416 126.781 92.0416C128.275 92.4672 131.414 92.416 132.384 90.9696C132.538 90.7248 132.639 90.4503 132.68 90.1639C132.722 89.8775 132.702 89.5857 132.623 89.3074C132.544 89.029 132.407 88.7705 132.221 88.5485C132.036 88.3266 131.806 88.1462 131.546 88.0192C130.461 87.4432 128.986 87.7728 127.93 88.2624C126.874 88.752 125.248 90.5632 124.826 91.0464C124.506 90.8608 124.186 90.672 123.866 90.4896C122.346 89.6032 120.822 88.7296 119.357 87.824C118.838 87.504 118.342 87.184 117.843 86.8448C118.205 86.992 118.512 87.1168 118.56 87.1296C120.054 87.5584 123.194 87.504 124.16 86.0576C124.314 85.8128 124.415 85.5383 124.456 85.2519C124.498 84.9655 124.478 84.6737 124.399 84.3954C124.32 84.117 124.183 83.8585 123.997 83.6365C123.812 83.4146 123.582 83.2342 123.322 83.1072C122.237 82.5312 120.762 82.8608 119.709 83.3504C118.656 83.84 117.184 85.4752 116.682 86.048C116.179 85.6928 115.677 85.3408 115.21 84.9728C114.89 84.7168 114.57 84.4928 114.272 84.2144L113.366 83.424C112.81 82.8992 112.234 82.3616 111.702 81.824C111.331 81.4624 110.986 81.1104 110.634 80.7552C111.146 81.0752 112.157 81.6896 112.25 81.7312C113.661 82.3712 116.771 82.8032 117.949 81.52C118.138 81.3013 118.279 81.0451 118.363 80.7682C118.447 80.4913 118.472 80.1998 118.436 79.9127C118.399 79.6256 118.303 79.3494 118.153 79.102C118.003 78.8546 117.803 78.6416 117.565 78.4768C116.582 77.7408 115.072 77.8368 113.955 78.1568C112.73 78.512 110.65 80.2784 110.394 80.5024C109.814 79.9136 109.258 79.3376 108.739 78.784C107.597 77.5648 106.605 76.4512 105.782 75.4944L104.822 76.1344C105.696 77.0944 106.758 78.2528 107.994 79.5104C108.576 80.1088 109.213 80.7392 109.875 81.3792C109.369 82.0964 108.909 82.8445 108.496 83.6192C107.216 83.2992 104.691 83.6032 104.368 83.6448C104.208 82.8352 104.048 82.0448 103.936 81.2992C103.67 79.7376 103.466 78.3328 103.296 77.1232L102.262 77.7984C102.435 78.896 102.646 80.1312 102.902 81.4848C103.059 82.3072 103.245 83.184 103.44 84.08C103.12 84.2016 100.589 85.2128 99.6992 86.1344C98.8928 86.9664 98.0992 88.256 98.2848 89.4688C98.3191 89.7559 98.4135 90.0326 98.562 90.2807C98.7104 90.5289 98.9094 90.743 99.1461 90.909C99.3829 91.0751 99.6519 91.1894 99.9358 91.2445C100.22 91.2996 100.512 91.2942 100.794 91.2288C102.477 90.7904 103.558 87.8432 103.648 86.2912C103.648 86.1984 103.597 85.2 103.552 84.5696C103.635 84.9344 103.712 85.2928 103.802 85.6672C103.974 86.4128 104.17 87.152 104.374 87.9456C104.486 88.3264 104.602 88.7104 104.717 89.0976C104.832 89.4848 104.986 89.8816 105.117 90.2784C105.437 91.1904 105.821 92.096 106.221 93.0016C105.581 93.1552 103.264 93.7312 102.333 94.4352C101.402 95.1392 100.413 96.2912 100.429 97.52C100.419 97.809 100.471 98.0967 100.58 98.3644C100.69 98.6321 100.854 98.8738 101.063 99.0737C101.272 99.2735 101.521 99.4271 101.793 99.5244C102.065 99.6218 102.355 99.6606 102.643 99.6384C104.374 99.4592 105.891 96.7104 106.214 95.1904C106.234 95.0944 106.342 93.9776 106.387 93.3632C106.634 93.9072 106.874 94.448 107.139 94.9888C107.907 96.5504 108.739 98.1088 109.542 99.664C109.795 100.141 110.038 100.624 110.282 101.098C110.051 101.149 107.293 101.773 106.253 102.563C105.328 103.267 104.333 104.419 104.349 105.648C104.339 105.937 104.39 106.225 104.499 106.493C104.608 106.761 104.773 107.003 104.982 107.203C105.191 107.403 105.44 107.556 105.712 107.653C105.985 107.751 106.275 107.789 106.563 107.766C108.294 107.587 109.808 104.838 110.131 103.318C110.154 103.203 110.307 101.597 110.326 101.184C110.867 102.237 111.395 103.29 111.875 104.349C112.545 105.782 113.121 107.257 113.6 108.765C113.491 108.79 110.611 109.43 109.546 110.237C108.621 110.941 107.626 112.093 107.626 113.322C107.616 113.611 107.668 113.898 107.777 114.166C107.886 114.434 108.051 114.675 108.26 114.875C108.469 115.075 108.717 115.229 108.99 115.326C109.262 115.423 109.552 115.462 109.84 115.44C111.571 115.261 113.088 112.512 113.411 110.992C113.434 110.874 113.6 109.142 113.606 108.826C113.632 108.912 113.67 109.002 113.696 109.088C114.12 110.605 114.409 112.157 114.56 113.725C114.653 114.592 114.691 115.424 114.714 116.234C114.163 116.298 111.661 116.618 110.621 117.238C109.581 117.859 108.522 118.874 108.381 120.096C108.341 120.382 108.361 120.673 108.441 120.951C108.52 121.229 108.657 121.486 108.843 121.708C109.028 121.929 109.258 122.109 109.518 122.236C109.777 122.363 110.06 122.434 110.349 122.445C112.09 122.445 113.901 119.885 114.387 118.416C114.413 118.336 114.592 117.488 114.707 116.87C114.707 117.235 114.707 117.613 114.707 117.965C114.707 119.28 114.611 120.486 114.522 121.552C114.467 122.157 114.406 122.704 114.342 123.216C113.837 123.562 111.818 124.973 111.194 125.984C110.57 126.995 110.08 128.4 110.528 129.546C110.623 129.819 110.775 130.069 110.973 130.279C111.171 130.49 111.412 130.657 111.679 130.768C111.946 130.879 112.233 130.933 112.522 130.926C112.811 130.919 113.096 130.851 113.357 130.726C114.909 129.933 115.331 126.822 115.082 125.286C115.059 125.152 114.486 123.117 114.461 123.136L114.429 123.155C114.499 122.666 114.57 122.138 114.634 121.555C114.746 120.486 114.861 119.28 114.899 117.962C114.956 116.537 114.929 115.111 114.819 113.69C114.703 112.099 114.446 110.521 114.051 108.976C114.051 108.957 114.051 108.941 114.051 108.922C114.323 109.354 115.123 110.522 115.194 110.618C116.205 111.798 118.854 113.498 120.461 112.813C120.724 112.694 120.96 112.521 121.152 112.304C121.344 112.088 121.488 111.834 121.576 111.558C121.663 111.283 121.691 110.992 121.658 110.705C121.626 110.417 121.533 110.14 121.386 109.891C120.8 108.813 119.386 108.272 118.237 108.099C116.957 107.904 114.211 108.682 113.994 108.739C113.553 107.177 113.009 105.646 112.365 104.157C111.994 103.286 111.594 102.419 111.181 101.558C111.427 101.923 111.651 102.25 111.686 102.291C112.698 103.472 115.347 105.171 116.95 104.486C117.214 104.368 117.45 104.195 117.642 103.979C117.835 103.763 117.98 103.509 118.067 103.233C118.155 102.957 118.183 102.666 118.151 102.379C118.118 102.091 118.025 101.814 117.878 101.565C117.293 100.483 115.878 99.9456 114.73 99.7696C113.581 99.5936 111.21 100.211 110.608 100.381C110.445 100.061 110.288 99.7216 110.125 99.3952C109.341 97.8176 108.554 96.2496 107.83 94.6848C107.574 94.1344 107.344 93.584 107.11 93.0304C107.328 93.3504 107.517 93.6256 107.549 93.6704C108.56 94.8512 111.21 96.5504 112.816 95.8688C113.08 95.7494 113.315 95.5759 113.507 95.3595C113.699 95.1431 113.844 94.8886 113.931 94.6127C114.018 94.3368 114.046 94.0456 114.014 93.7581C113.981 93.4706 113.888 93.1932 113.741 92.944C113.155 91.8656 111.741 91.3248 110.592 91.152C109.443 90.9792 107.315 91.5328 106.579 91.7344C106.358 91.1616 106.134 90.5888 105.939 90.0256C105.818 89.6384 105.674 89.2736 105.574 88.8768C105.475 88.48 105.363 88.0992 105.254 87.7152C105.078 86.9696 104.896 86.2048 104.742 85.4752C104.634 84.9696 104.538 84.4832 104.442 83.9936C104.688 84.5472 105.197 85.616 105.248 85.6992C106.014 86.8325 107.057 87.7512 108.278 88.368C108.357 88.4981 108.448 88.6203 108.55 88.7328C108.738 88.9532 108.969 89.1317 109.23 89.2566C109.491 89.3816 109.775 89.4502 110.065 89.4581C110.354 89.4659 110.641 89.4128 110.909 89.3022C111.176 89.1916 111.417 89.0259 111.616 88.816C112.778 87.52 112.054 84.4672 111.27 83.1232C111.226 83.0432 110.63 82.24 110.243 81.7408C110.515 82 110.774 82.256 111.056 82.5184C111.613 83.0464 112.182 83.5552 112.79 84.1184L113.712 84.8896C114.016 85.1552 114.368 85.3952 114.698 85.6512C115.475 86.2304 116.298 86.7808 117.123 87.3152C116.662 87.8016 115.056 89.5552 114.669 90.656C114.282 91.7568 114.102 93.2544 114.781 94.2784C114.933 94.5243 115.135 94.7355 115.374 94.8983C115.613 95.0611 115.883 95.1719 116.168 95.2235C116.452 95.275 116.744 95.2663 117.025 95.1977C117.306 95.1292 117.57 95.0024 117.798 94.8256C119.146 93.7184 118.893 90.5888 118.32 89.1456C118.285 89.0528 117.76 88.064 117.459 87.5232C117.962 87.8432 118.464 88.1632 118.982 88.464C120.483 89.3472 122.029 90.1888 123.568 91.04C124.038 91.2992 124.506 91.5648 124.973 91.8272C124.81 91.9968 122.854 94.0416 122.413 95.2736C122.029 96.368 121.843 97.872 122.525 98.896C122.677 99.1418 122.878 99.3529 123.117 99.5157C123.356 99.6785 123.626 99.7893 123.91 99.8409C124.194 99.8925 124.486 99.8837 124.767 99.8152C125.048 99.7467 125.311 99.62 125.539 99.4432C126.886 98.336 126.634 95.2064 126.064 93.7632C126.019 93.6544 125.261 92.2272 125.05 91.8752C126.08 92.4544 127.101 93.04 128.086 93.6608C129.418 94.4921 130.696 95.4082 131.91 96.4032C131.834 96.4832 129.782 98.6048 129.35 99.8688C128.966 100.963 128.781 102.467 129.462 103.491C129.614 103.737 129.817 103.948 130.056 104.111C130.295 104.274 130.565 104.385 130.85 104.436C131.135 104.487 131.427 104.478 131.708 104.409C131.988 104.34 132.252 104.213 132.48 104.035C133.824 102.931 133.571 99.8016 133.002 98.3552C132.957 98.2432 132.138 96.7104 131.971 96.4352L132.189 96.6048C133.379 97.6367 134.475 98.773 135.462 100C136.016 100.672 136.509 101.344 136.973 102.006C136.55 102.362 134.64 104.013 134.115 105.104C133.59 106.195 133.264 107.626 133.83 108.717C133.954 108.978 134.131 109.211 134.351 109.399C134.57 109.587 134.827 109.727 135.104 109.81C135.381 109.892 135.673 109.915 135.959 109.877C136.246 109.84 136.522 109.742 136.768 109.59C138.227 108.63 138.32 105.504 137.91 104.003C137.888 103.92 137.571 103.117 137.331 102.534C137.536 102.838 137.754 103.146 137.946 103.44C138.662 104.544 139.254 105.597 139.77 106.538C140.058 107.072 140.307 107.562 140.538 108.022C140.304 108.589 139.398 110.88 139.437 112.07C139.475 113.261 139.843 114.698 140.845 115.408C141.075 115.583 141.34 115.707 141.622 115.773C141.903 115.839 142.195 115.844 142.48 115.79C142.764 115.735 143.033 115.621 143.27 115.456C143.507 115.29 143.707 115.077 143.856 114.829C144.714 113.315 143.35 110.486 142.294 109.344C142.205 109.245 140.602 107.862 140.592 107.891L140.576 107.926C140.365 107.478 140.131 107.002 139.869 106.483C139.373 105.523 138.803 104.464 138.106 103.341C137.368 102.121 136.559 100.946 135.683 99.8208C134.711 98.5533 133.627 97.3752 132.445 96.3008L132.4 96.2656C132.864 96.4768 134.182 97.0208 134.288 97.0496C135.782 97.4784 138.922 97.424 139.891 95.9776C140.045 95.7328 140.146 95.4583 140.188 95.1719C140.229 94.8855 140.209 94.5937 140.13 94.3154C140.051 94.037 139.914 93.7785 139.729 93.5565C139.543 93.3346 139.313 93.1542 139.053 93.0272C137.978 92.4608 136.499 92.8 135.446 93.28Z" fill="#599BFE"/>
<path id="Vector_5" d="M114.944 116.48C114.912 116.48 115.584 118.483 115.648 118.605C116.31 120.01 118.419 122.336 120.144 122.125C120.428 122.079 120.7 121.975 120.941 121.818C121.182 121.661 121.388 121.456 121.545 121.215C121.702 120.973 121.807 120.702 121.853 120.418C121.899 120.134 121.885 119.843 121.811 119.565C121.53 118.368 120.31 117.472 119.251 117.005C118 116.413 114.944 116.48 114.944 116.48Z" fill="#599BFE"/>
<path id="Vector_6" d="M46.272 47.68C47.232 47.136 48.6368 45.12 48.6368 45.12C48.6368 45.12 47.0368 44.5856 46.928 44.5664C45.7056 44.3296 43.2 44.5888 42.5248 45.8112C42.4185 46.0176 42.3567 46.244 42.3436 46.4757C42.3305 46.7075 42.3663 46.9394 42.4487 47.1564C42.5311 47.3734 42.6583 47.5706 42.8219 47.7352C42.9855 47.8999 43.1819 48.0283 43.3984 48.112C44.3072 48.5184 45.4656 48.1504 46.272 47.68Z" fill="#599BFE"/>
<path id="Vector_7" d="M52.48 51.2352C53.2192 50.4896 54.0128 48.3552 54.08 48.1856C55.2994 48.6421 56.5481 49.0163 57.8176 49.3056C58.5568 49.4784 59.3088 49.6256 60.0576 49.7728C59.7056 49.7728 59.3888 49.7472 59.344 49.7504C58.0992 49.8464 55.7536 50.7584 55.424 52.1152C55.3766 52.3424 55.3775 52.5769 55.4265 52.8037C55.4755 53.0305 55.5716 53.2445 55.7086 53.4318C55.8455 53.6191 56.0203 53.7756 56.2215 53.8911C56.4227 54.0067 56.646 54.0786 56.8768 54.1024C57.8528 54.2368 58.8736 53.5776 59.5296 52.9152C60.1856 52.2528 60.9088 50.4384 61.0912 49.9584L61.9584 50.1152C63.3504 50.3552 64.7392 50.592 66.096 50.864C66.5728 50.96 67.04 51.072 67.5072 51.184C67.1872 51.184 66.928 51.1648 66.8864 51.184C65.6448 51.2768 63.296 52.1888 62.9696 53.5488C62.9217 53.7758 62.9221 54.0103 62.9707 54.237C63.0193 54.4638 63.1151 54.6779 63.2518 54.8653C63.3885 55.0527 63.5631 55.2092 63.7642 55.3248C63.9653 55.4403 64.1885 55.5123 64.4192 55.536C65.3984 55.6672 66.416 55.008 67.0752 54.3488C67.7344 53.6896 68.384 52.0448 68.6016 51.4688C69.0784 51.5968 69.5616 51.7216 70.0096 51.8688C70.3296 51.9744 70.6208 52.0544 70.9248 52.1888L71.8272 52.5344C72.3904 52.7744 72.976 53.0176 73.52 53.2672C73.9008 53.4368 74.2592 53.5872 74.6208 53.7728C74.1472 53.6736 73.216 53.4944 73.136 53.488C71.8912 53.392 69.4336 53.9392 68.9024 55.232C68.8205 55.4493 68.7853 55.6813 68.7991 55.9131C68.813 56.1449 68.8755 56.3711 68.9827 56.5771C69.0899 56.783 69.2394 56.964 69.4213 57.1083C69.6032 57.2526 69.8134 57.3569 70.0384 57.4144C70.9984 57.696 72.0896 57.2 72.8416 56.6464C73.664 56.0352 74.7392 54.128 74.8704 53.888C75.4688 54.1696 76.048 54.4512 76.592 54.7232C77.792 55.3216 78.832 55.8848 79.7312 56.3744L80.2784 55.6384C79.3504 55.1488 78.2336 54.5824 76.9536 53.9776C76.3488 53.6896 75.6928 53.392 75.0176 53.0944C75.1974 52.4143 75.3364 51.724 75.4336 51.0272C76.48 50.912 78.3136 49.9808 78.5344 49.8592C78.8768 50.4224 79.2064 50.976 79.4944 51.504C80.1344 52.6048 80.672 53.6064 81.1264 54.4736L81.7152 53.6768C81.2832 52.8992 80.7776 52.0288 80.2048 51.0816C79.8592 50.5088 79.4784 49.9008 79.0784 49.28C79.28 49.1008 80.9088 47.632 81.3184 46.6944C81.6928 45.84 81.936 44.6496 81.456 43.7888C81.3515 43.5812 81.2043 43.398 81.0241 43.2512C80.8439 43.1044 80.6348 42.9973 80.4104 42.9369C80.1859 42.8765 79.9513 42.8642 79.7218 42.9007C79.4922 42.9372 79.273 43.0217 79.0784 43.1488C77.9328 43.9488 77.936 46.4672 78.304 47.6608C78.3232 47.7312 78.6432 48.4672 78.8512 48.9408C78.688 48.688 78.5312 48.4416 78.3584 48.1856C78.0384 47.6704 77.6704 47.168 77.296 46.6272L76.7168 45.856C76.5312 45.5936 76.2976 45.3408 76.0768 45.0784C75.5744 44.4832 75.04 43.9072 74.4768 43.3344C74.9248 43.04 76.5024 41.9648 77.0048 41.1744C77.5072 40.384 77.9264 39.2544 77.5808 38.3264C77.5075 38.1062 77.3886 37.904 77.232 37.7327C77.0754 37.5615 76.8845 37.4251 76.6717 37.3325C76.459 37.2398 76.2291 37.193 75.997 37.195C75.765 37.1969 75.5359 37.2477 75.3248 37.344C74.0736 37.9616 73.696 40.4512 73.8752 41.6864C73.8752 41.7632 74.1152 42.6464 74.2528 43.1104C73.9168 42.7712 73.584 42.4288 73.2352 42.096C72.224 41.136 71.1712 40.176 70.1248 39.2448L69.1648 38.3712C69.3248 38.2688 71.2256 37.0304 71.792 36.1472C72.2912 35.3632 72.7104 34.2272 72.368 33.296C72.294 33.0782 72.1754 32.8781 72.0198 32.7087C71.8642 32.5393 71.6749 32.4042 71.4641 32.3121C71.2533 32.2199 71.0256 32.1727 70.7955 32.1736C70.5655 32.1744 70.3381 32.2232 70.128 32.3168C68.8736 32.9344 68.496 35.424 68.6784 36.6592C68.6784 36.752 69.024 38.0032 69.1232 38.3168C68.4224 37.6768 67.7344 37.0368 67.0784 36.3648C66.205 35.4645 65.3906 34.509 64.64 33.504C64.7136 33.456 66.704 32.1728 67.2832 31.264C67.7824 30.48 68.2016 29.344 67.8592 28.416C67.7856 28.1979 67.6672 27.9975 67.5117 27.8278C67.3562 27.658 67.167 27.5225 66.9562 27.4301C66.7453 27.3376 66.5175 27.2902 66.2873 27.2908C66.0571 27.2914 65.8295 27.34 65.6192 27.4336C64.3648 28.0512 63.9904 30.5408 64.1696 31.776C64.1696 31.872 64.5408 33.2192 64.624 33.4592C64.5792 33.4016 64.528 33.3472 64.4832 33.2864C63.7479 32.2618 63.1054 31.1738 62.5632 30.0352C62.2432 29.3952 61.9904 28.7936 61.7504 28.192C62.144 27.9904 63.9392 27.0528 64.5504 26.2944C65.1616 25.536 65.6768 24.4832 65.4368 23.5264C65.3883 23.2994 65.2925 23.0852 65.1557 22.8978C65.0189 22.7103 64.844 22.5538 64.6426 22.4385C64.4412 22.3231 64.2178 22.2515 63.9868 22.2284C63.7559 22.2052 63.5227 22.231 63.3024 22.304C61.9872 22.7776 61.3408 25.2128 61.3824 26.464C61.3824 26.5312 61.4848 27.216 61.5648 27.7152C61.4592 27.44 61.3472 27.1616 61.2448 26.896C60.8864 25.9008 60.6048 24.976 60.3872 24.144C60.2624 23.6736 60.1536 23.2448 60.0672 22.8416C60.352 22.4416 61.4816 20.8192 61.6672 19.8816C61.8528 18.944 61.8304 17.7536 61.1776 17.0016C61.0298 16.8229 60.846 16.6772 60.6382 16.5741C60.4305 16.471 60.2033 16.4127 59.9716 16.403C59.7399 16.3934 59.5087 16.4326 59.293 16.5181C59.0774 16.6035 58.8822 16.7334 58.72 16.8992C57.76 17.9264 58.32 20.384 58.9312 21.472C58.9856 21.5648 59.984 22.9376 59.9968 22.9184L60.016 22.8928C60.0992 23.2832 60.192 23.696 60.304 24.1504C60.5152 24.9856 60.7648 25.9232 61.104 26.928C61.4567 28.0179 61.8723 29.0863 62.3488 30.128C62.8789 31.2938 63.5107 32.4107 64.2368 33.4656L64.2656 33.5008C63.9456 33.2512 63.0112 32.5856 62.9344 32.5408C61.8432 31.936 59.3824 31.4016 58.3616 32.352C58.1963 32.5148 58.0672 32.7106 57.9825 32.9266C57.8978 33.1426 57.8595 33.374 57.8701 33.6058C57.8806 33.8375 57.9398 34.0645 58.0438 34.2719C58.1478 34.4793 58.2942 34.6625 58.4736 34.8096C59.216 35.4496 60.432 35.472 61.3536 35.2832C62.3808 35.072 64.2336 33.728 64.368 33.6192C65.1339 34.6737 65.9699 35.6755 66.8704 36.6176C67.3888 37.1712 67.9328 37.7088 68.4704 38.2432C68.1824 38.0384 67.9232 37.856 67.8848 37.8336C66.7936 37.2256 64.3328 36.6912 63.312 37.6448C63.1467 37.8076 63.0176 38.0034 62.9329 38.2194C62.8482 38.4354 62.8099 38.6668 62.8205 38.8986C62.831 39.1303 62.8902 39.3573 62.9942 39.5647C63.0982 39.7721 63.2446 39.9553 63.424 40.1024C64.1664 40.7424 65.3824 40.7648 66.304 40.576C67.2256 40.3872 68.8192 39.2704 69.2384 38.976L69.8784 39.584C70.9056 40.544 71.9328 41.504 72.912 42.4928C73.2608 42.8352 73.5872 43.1872 73.9168 43.536C73.6608 43.3536 73.4432 43.2 73.408 43.1808C72.32 42.5728 69.856 42.0416 68.8352 42.992C68.6701 43.1551 68.5412 43.351 68.4568 43.5671C68.3724 43.7833 68.3344 44.0147 68.3452 44.2465C68.3561 44.4782 68.4156 44.7051 68.5199 44.9124C68.6241 45.1197 68.7708 45.3027 68.9504 45.4496C69.6896 46.0896 70.9056 46.112 71.8304 45.9232C72.7552 45.7344 74.192 44.7264 74.688 44.3712C75.008 44.7392 75.328 45.1072 75.648 45.4816C75.8464 45.7376 76.0576 45.9744 76.2432 46.2464L76.8032 47.0304C77.1424 47.5424 77.4944 48.0672 77.8112 48.576C78.0352 48.928 78.2432 49.2672 78.4512 49.6064C78.112 49.2608 77.4304 48.5984 77.3696 48.5472C76.477 47.9082 75.4362 47.5073 74.3456 47.3824C74.2462 47.3043 74.139 47.2367 74.0256 47.1808C73.8233 47.0673 73.5993 46.9977 73.3683 46.9763C73.1373 46.955 72.9044 46.9825 72.6847 47.0571C72.465 47.1316 72.2635 47.2515 72.0931 47.409C71.9228 47.5665 71.7875 47.758 71.696 47.9712C71.1808 49.2704 72.576 51.3664 73.5392 52.16C73.5968 52.208 74.2688 52.6464 74.6976 52.9152C74.4224 52.7968 74.1536 52.6752 73.8688 52.5568C73.3056 52.3136 72.7328 52.0896 72.1216 51.8464L71.2128 51.5264C70.912 51.4112 70.5728 51.328 70.2528 51.2256C69.5072 51.008 68.7392 50.8192 67.9648 50.6496C68.176 50.1536 68.896 48.3872 68.88 47.4496C68.864 46.512 68.5856 45.3344 67.7888 44.7552C67.6062 44.6123 67.3955 44.5093 67.1705 44.453C66.9455 44.3968 66.7112 44.3884 66.4828 44.4286C66.2544 44.4687 66.037 44.5564 65.8446 44.686C65.6523 44.8156 65.4894 44.9842 65.3664 45.1808C64.6624 46.3872 65.7216 48.672 66.5536 49.6C66.6048 49.6608 67.2768 50.2592 67.6512 50.5824C67.184 50.4832 66.72 50.3808 66.2432 50.2976C64.8704 50.0512 63.472 49.8464 62.0832 49.632L60.8032 49.4304C60.88 49.2576 61.7824 47.1744 61.7632 46.128C61.7472 45.1968 61.4688 44.0128 60.672 43.4336C60.4894 43.2907 60.2787 43.1877 60.0537 43.1314C59.8287 43.0752 59.5944 43.0668 59.366 43.107C59.1376 43.1471 58.9202 43.2348 58.7278 43.3644C58.5355 43.494 58.3726 43.6626 58.2496 43.8592C57.5456 45.0656 58.6048 47.3504 59.4336 48.2816C59.4976 48.3488 60.464 49.2128 60.7136 49.4208C59.776 49.2704 58.8448 49.1008 57.9296 48.9184C56.6965 48.663 55.4812 48.3285 54.2912 47.9168C54.3264 47.8368 55.28 45.6768 55.2512 44.5952C55.2352 43.664 54.9568 42.48 54.16 41.9008C53.9774 41.7579 53.7667 41.6549 53.5417 41.5986C53.3167 41.5424 53.0824 41.534 52.854 41.5742C52.6256 41.6143 52.4082 41.702 52.2158 41.8316C52.0235 41.9612 51.8606 42.1298 51.7376 42.3264C51.0336 43.5328 52.0928 45.8176 52.9248 46.7488C52.9888 46.8192 54.032 47.7472 54.2304 47.9008C54.1632 47.8784 54.0896 47.8592 54.0192 47.8336C52.8366 47.3876 51.6961 46.8372 50.6112 46.1888C50.0096 45.84 49.4528 45.4688 48.9184 45.1008C49.136 44.7136 50.1184 42.9408 50.1984 41.9744C50.2784 41.008 50.1376 39.84 49.4112 39.1744C49.2451 39.0122 49.0468 38.8867 48.8291 38.806C48.6114 38.7253 48.3792 38.6913 48.1475 38.7061C47.9158 38.7209 47.6898 38.7841 47.4842 38.8918C47.2785 38.9995 47.0977 39.1492 46.9536 39.3312C46.1216 40.4544 46.9248 42.8512 47.648 43.856C47.6864 43.9136 48.1504 44.4288 48.4928 44.816C48.2528 44.6464 48.0032 44.4736 47.7792 44.304C46.9312 43.664 46.1952 43.0464 45.5392 42.4832C45.1744 42.1632 44.848 41.8592 44.5472 41.5776C44.5664 41.088 44.6112 39.1104 44.2528 38.224C43.8944 37.3376 43.216 36.3584 42.2624 36.1056C42.0399 36.0383 41.8056 36.0186 41.575 36.0478C41.3443 36.0771 41.1224 36.1546 40.9237 36.2754C40.7251 36.3962 40.5541 36.5575 40.4219 36.7488C40.2898 36.9401 40.1994 37.1571 40.1568 37.3856C39.9328 38.7648 41.7568 40.5152 42.8576 41.0816C42.9536 41.1296 44.5408 41.7216 44.544 41.6992V41.6704C44.8288 41.9488 45.136 42.2432 45.4784 42.56C46.1184 43.136 46.8416 43.7856 47.68 44.4352C48.5734 45.1482 49.5084 45.8075 50.48 46.4096C51.5643 47.0899 52.7069 47.6725 53.8944 48.1504L53.936 48.1664C53.5296 48.1344 52.384 48.0928 52.2976 48.0992C51.0528 48.1952 48.704 49.1072 48.3776 50.464C48.3297 50.691 48.3301 50.9255 48.3787 51.1522C48.4273 51.379 48.5231 51.5931 48.6598 51.7805C48.7965 51.9679 48.9711 52.1244 49.1722 52.24C49.3733 52.3555 49.5965 52.4275 49.8272 52.4512C50.8064 52.5568 51.84 51.8976 52.48 51.2352Z" fill="#599BFE"/>
<path id="Vector_8" d="M61.472 28.0832C61.4944 28.0832 60.4288 26.7552 60.352 26.6816C59.4624 25.808 57.2288 24.64 56 25.28C55.7975 25.3933 55.6212 25.5481 55.4825 25.7342C55.3438 25.9202 55.2459 26.1335 55.1952 26.3599C55.1445 26.5864 55.1421 26.821 55.1881 27.0484C55.2341 27.2759 55.3276 27.4911 55.4624 27.68C56.0032 28.5024 57.1712 28.8384 58.1024 28.896C59.2 28.976 61.4688 28.0864 61.472 28.0832Z" fill="#599BFE"/>
</g>
<g id="freepik--Graphics--inject-9">
<g id="Group" opacity="0.1">
<path id="Vector_9" d="M148.72 56.752C148.778 56.2976 148.25 55.792 148.25 55.3248C148.25 54.8576 148.778 54.3648 148.72 53.8976C148.662 53.4304 148.019 53.0848 147.901 52.64C147.782 52.1952 148.16 51.5648 147.981 51.1392C147.802 50.7136 147.094 50.5376 146.864 50.1376C146.634 49.7376 146.835 49.0368 146.544 48.6688C146.253 48.3008 145.533 48.32 145.203 47.9904C144.874 47.6608 144.883 46.9344 144.525 46.6496C144.166 46.3648 143.459 46.5728 143.056 46.3296C142.653 46.0864 142.486 45.392 142.054 45.2128C141.622 45.0336 141.008 45.4144 140.554 45.2928C140.099 45.1712 139.763 44.5344 139.296 44.4736C138.829 44.4128 138.336 44.944 137.869 44.944C137.402 44.944 136.909 44.416 136.442 44.4736C135.974 44.5312 135.629 45.1744 135.184 45.2928C134.739 45.4112 134.112 45.0368 133.683 45.2128C133.254 45.3888 133.085 46.0992 132.682 46.3328C132.278 46.5664 131.581 46.3584 131.213 46.6528C130.845 46.9472 130.88 47.6608 130.56 48C130.24 48.3392 129.504 48.32 129.222 48.6784C128.941 49.0368 129.146 49.744 128.902 50.1472C128.659 50.5504 127.962 50.7168 127.782 51.1488C127.603 51.5808 127.987 52.1952 127.866 52.6496C127.744 53.104 127.107 53.44 127.046 53.9072C126.986 54.3744 127.514 54.8672 127.514 55.3344C127.514 55.8016 126.986 56.2944 127.046 56.7616C127.107 57.2288 127.747 57.5744 127.866 58.0192C127.984 58.464 127.606 59.0912 127.782 59.52C127.958 59.9488 128.669 60.1184 128.902 60.5216C129.136 60.9248 128.931 61.6224 129.222 61.9904C129.514 62.3584 130.234 62.3392 130.56 62.6688C130.886 62.9984 130.88 63.7248 131.238 64.0064C131.597 64.288 132.304 64.0832 132.71 64.3264C133.117 64.5696 133.28 65.2672 133.712 65.4464C134.144 65.6256 134.758 65.2448 135.21 65.3632C135.661 65.4816 136.003 66.1216 136.467 66.1824C136.931 66.2432 137.427 65.7152 137.894 65.7152C138.362 65.7152 138.854 66.2432 139.322 66.1824C139.789 66.1216 140.134 65.4816 140.579 65.3632C141.024 65.2448 141.654 65.6224 142.08 65.4464C142.506 65.2704 142.682 64.56 143.082 64.3264C143.482 64.0928 144.182 64.3008 144.55 64.0064C144.918 63.712 144.899 62.9952 145.229 62.6688C145.558 62.3424 146.285 62.3488 146.57 61.9904C146.854 61.632 146.646 60.9248 146.89 60.5216C147.133 60.1184 147.827 59.9488 148.006 59.52C148.186 59.0912 147.805 58.4704 147.926 58.0192C148.048 57.568 148.659 57.216 148.72 56.752ZM137.878 63.7344C136.215 63.7344 134.589 63.2412 133.206 62.3171C131.823 61.3931 130.745 60.0797 130.109 58.543C129.472 57.0064 129.306 55.3155 129.63 53.6842C129.955 52.0529 130.756 50.5544 131.932 49.3783C133.108 48.2022 134.606 47.4013 136.238 47.0768C137.869 46.7523 139.56 46.9188 141.097 47.5553C142.633 48.1918 143.947 49.2697 144.871 50.6527C145.795 52.0356 146.288 53.6615 146.288 55.3248C146.287 57.5549 145.401 59.6934 143.824 61.2703C142.247 62.8473 140.108 63.7335 137.878 63.7344Z" fill="black"/>
<path id="Vector_10" d="M141.754 60.1075C144.726 57.8786 145.328 53.6625 143.1 50.6905C140.871 47.7186 136.654 47.1163 133.683 49.3453C130.711 51.5742 130.108 55.7903 132.337 58.7622C134.566 61.7341 138.782 62.3364 141.754 60.1075Z" fill="black"/>
</g>
<g id="Group_2" opacity="0.1">
<path id="Vector_11" d="M11.52 45.76C9.24156 45.76 7.01429 46.4356 5.11983 47.7015C3.22538 48.9673 1.74884 50.7665 0.876915 52.8715C0.00499321 54.9765 -0.223144 57.2928 0.221358 59.5275C0.66586 61.7621 1.76303 63.8148 3.37413 65.4259C4.98523 67.037 7.03791 68.1342 9.27257 68.5787C11.5072 69.0232 13.8235 68.795 15.9285 67.9231C18.0335 67.0512 19.8327 65.5746 21.0985 63.6802C22.3644 61.7857 23.04 59.5585 23.04 57.28C23.04 54.2247 21.8263 51.2946 19.6659 49.1341C17.5055 46.9737 14.5753 45.76 11.52 45.76ZM11.52 65.92C9.81117 65.92 8.14071 65.4133 6.71987 64.4639C5.29903 63.5145 4.19163 62.1652 3.53769 60.5864C2.88375 59.0076 2.71264 57.2704 3.04602 55.5944C3.37939 53.9184 4.20228 52.3789 5.41061 51.1706C6.61893 49.9623 8.15843 49.1394 9.83442 48.806C11.5104 48.4726 13.2476 48.6437 14.8264 49.2977C16.4051 49.9516 17.7545 51.059 18.7039 52.4799C19.6533 53.9007 20.16 55.5712 20.16 57.28C20.16 59.5715 19.2497 61.7691 17.6294 63.3894C16.0091 65.0097 13.8115 65.92 11.52 65.92Z" fill="black"/>
<path id="Exclude" fill-rule="evenodd" clip-rule="evenodd" d="M11.5 65C15.6421 65 19 61.6421 19 57.5C19 53.3579 15.6421 50 11.5 50C7.35786 50 4 53.3579 4 57.5C4 61.6421 7.35786 65 11.5 65ZM10.9625 58.6118H12.7373C13.429 58.6118 14.0177 58.4946 14.5033 58.2603C14.989 58.0229 15.3598 57.6963 15.6159 57.2803C15.872 56.8613 16 56.3765 16 55.8257C16 55.2954 15.8734 54.8179 15.6203 54.3931C15.3701 53.9653 15.0022 53.627 14.5166 53.3779C14.0309 53.126 13.4378 53 12.7373 53H9.95318C9.60841 53 9.32892 53.2795 9.32892 53.6243V57.2715H8.62426C8.27949 57.2715 8 57.551 8 57.8957V57.9876C8 58.3323 8.27949 58.6118 8.62426 58.6118H9.32892V59.2798H8.62426C8.27949 59.2798 8 59.5593 8 59.904V59.9959C8 60.3406 8.27949 60.6201 8.62426 60.6201H9.32892V61.3757C9.32892 61.7205 9.60841 62 9.95318 62H10.3382C10.683 62 10.9625 61.7205 10.9625 61.3757V60.6201H12.3205C12.6653 60.6201 12.9448 60.3406 12.9448 59.9959V59.904C12.9448 59.5593 12.6653 59.2798 12.3205 59.2798H10.9625V58.6118ZM10.9625 57.2715H12.702C13.0817 57.2715 13.3937 57.2114 13.638 57.0913C13.8852 56.9712 14.0677 56.8042 14.1854 56.5903C14.3061 56.3765 14.365 56.126 14.362 55.8389C14.365 55.5576 14.3061 55.3057 14.1854 55.083C14.0677 54.8574 13.8882 54.6802 13.6468 54.5513C13.4084 54.4194 13.1052 54.3535 12.7373 54.3535H11.5867C11.242 54.3535 10.9625 54.633 10.9625 54.9778V57.2715Z" fill="#263238"/>
</g>
<g id="Group_3" opacity="0.1">
<path id="Vector_12" d="M134.52 117C132.242 117 130.014 117.676 128.12 118.941C126.225 120.207 124.749 122.006 123.877 124.111C123.005 126.216 122.777 128.533 123.221 130.767C123.666 133.002 124.763 135.055 126.374 136.666C127.985 138.277 130.038 139.374 132.273 139.819C134.507 140.263 136.824 140.035 138.929 139.163C141.034 138.291 142.833 136.815 144.099 134.92C145.364 133.026 146.04 130.798 146.04 128.52C146.04 125.465 144.826 122.535 142.666 120.374C140.505 118.214 137.575 117 134.52 117ZM134.52 137.16C132.811 137.16 131.141 136.653 129.72 135.704C128.299 134.755 127.192 133.405 126.538 131.826C125.884 130.248 125.713 128.51 126.046 126.834C126.379 125.158 127.202 123.619 128.411 122.411C129.619 121.202 131.158 120.379 132.834 120.046C134.51 119.713 136.248 119.884 137.826 120.538C139.405 121.192 140.755 122.299 141.704 123.72C142.653 125.141 143.16 126.811 143.16 128.52C143.16 130.811 142.25 133.009 140.629 134.629C139.009 136.25 136.811 137.16 134.52 137.16Z" fill="black"/>
<path id="Exclude_2" fill-rule="evenodd" clip-rule="evenodd" d="M134.5 136.24C138.642 136.24 142 132.882 142 128.74C142 124.598 138.642 121.24 134.5 121.24C130.358 121.24 127 124.598 127 128.74C127 132.882 130.358 136.24 134.5 136.24ZM133.962 129.852H135.737C136.429 129.852 137.018 129.735 137.503 129.5C137.989 129.263 138.36 128.936 138.616 128.52C138.872 128.101 139 127.616 139 127.066C139 126.535 138.873 126.058 138.62 125.633C138.37 125.205 138.002 124.867 137.517 124.618C137.031 124.366 136.438 124.24 135.737 124.24H132.953C132.608 124.24 132.329 124.519 132.329 124.864V128.511H131.624C131.279 128.511 131 128.791 131 129.136V129.228C131 129.572 131.279 129.852 131.624 129.852H132.329V130.52H131.624C131.279 130.52 131 130.799 131 131.144V131.236C131 131.581 131.279 131.86 131.624 131.86H132.329V132.616C132.329 132.96 132.608 133.24 132.953 133.24H133.338C133.683 133.24 133.962 132.96 133.962 132.616V131.86H135.321C135.665 131.86 135.945 131.581 135.945 131.236V131.144C135.945 130.799 135.665 130.52 135.321 130.52H133.962V129.852ZM133.962 128.511H135.702C136.082 128.511 136.394 128.451 136.638 128.331C136.885 128.211 137.068 128.044 137.185 127.83C137.306 127.616 137.365 127.366 137.362 127.079C137.365 126.798 137.306 126.546 137.185 126.323C137.068 126.097 136.888 125.92 136.647 125.791C136.408 125.659 136.105 125.594 135.737 125.594H134.587C134.242 125.594 133.962 125.873 133.962 126.218V128.511Z" fill="#263238"/>
</g>
<path id="Vector_13" opacity="0.1" d="M34.4352 131.037H39.1424L36.7904 126.96L34.4352 131.037Z" fill="black"/>
<path id="Vector_14" opacity="0.1" d="M25.2 131.037H29.9072L27.552 126.96L25.2 131.037Z" fill="black"/>
<path id="Vector_15" opacity="0.1" d="M32.1696 121.642C30.3581 121.642 28.5873 122.179 27.0812 123.185C25.575 124.192 24.4012 125.622 23.7081 127.296C23.015 128.97 22.8338 130.811 23.1874 132.588C23.5411 134.365 24.4137 135.996 25.6948 137.277C26.9759 138.558 28.6081 139.43 30.3849 139.783C32.1616 140.136 34.0032 139.954 35.6766 139.26C37.35 138.567 38.7802 137.392 39.7861 135.886C40.7921 134.379 41.3287 132.608 41.328 130.797C41.3255 128.369 40.3597 126.041 38.6426 124.325C36.9255 122.608 34.5975 121.643 32.1696 121.642ZM38.6496 132.288H34.9312C34.7499 132.288 34.5716 132.241 34.4144 132.15C34.2573 132.06 34.1268 131.929 34.0362 131.772C33.9456 131.615 33.8981 131.437 33.8985 131.255C33.8989 131.074 33.9472 130.896 34.0384 130.739L36.7264 126.083H32.8064V134.992H34.2592V135.75H36.2848V136.816H28.3104V135.75H30.08V134.992H31.936V126.08H27.616L30.304 130.736C30.3953 130.893 30.4435 131.071 30.4439 131.252C30.4443 131.434 30.3968 131.612 30.3062 131.769C30.2157 131.926 30.0852 132.057 29.928 132.147C29.7709 132.238 29.5926 132.285 29.4112 132.285H25.6928C25.5115 132.285 25.3332 132.238 25.176 132.147C25.0189 132.057 24.8884 131.926 24.7978 131.769C24.7072 131.612 24.6597 131.434 24.6601 131.252C24.6605 131.071 24.7088 130.893 24.8 130.736L27.488 126.08H27.3792C27.2638 126.08 27.1531 126.034 27.0715 125.953C26.9899 125.871 26.944 125.76 26.944 125.645C26.944 125.529 26.9899 125.419 27.0715 125.337C27.1531 125.255 27.2638 125.21 27.3792 125.21H31.936C31.936 125.094 31.9819 124.983 32.0635 124.902C32.1451 124.82 32.2558 124.774 32.3712 124.774C32.4867 124.774 32.5974 124.82 32.679 124.902C32.7606 124.983 32.8064 125.094 32.8064 125.21H37.3632C37.4787 125.21 37.5894 125.255 37.671 125.337C37.7526 125.419 37.7984 125.529 37.7984 125.645C37.7984 125.76 37.7526 125.871 37.671 125.953C37.5894 126.034 37.4787 126.08 37.3632 126.08H36.8544L39.5424 130.736C39.6335 130.893 39.6815 131.071 39.6818 131.253C39.6821 131.434 39.6347 131.612 39.5442 131.77C39.4537 131.927 39.3234 132.058 39.1663 132.149C39.0093 132.24 38.8311 132.288 38.6496 132.288Z" fill="black"/>
<path id="Vector_16" opacity="0.1" d="M32.1696 120.32C30.0956 120.32 28.0682 120.935 26.3437 122.087C24.6192 123.24 23.2752 124.877 22.4815 126.793C21.6878 128.71 21.4801 130.818 21.8847 132.852C22.2893 134.886 23.2881 136.755 24.7546 138.221C26.2212 139.688 28.0897 140.687 30.1238 141.091C32.158 141.496 34.2665 141.288 36.1826 140.495C38.0987 139.701 39.7365 138.357 40.8888 136.632C42.041 134.908 42.656 132.88 42.656 130.806C42.656 128.025 41.5512 125.358 39.5846 123.391C37.6181 121.425 34.9508 120.32 32.1696 120.32ZM32.1696 140.285C30.295 140.285 28.4624 139.729 26.9037 138.687C25.345 137.646 24.1301 136.166 23.4127 134.434C22.6953 132.702 22.5076 130.796 22.8734 128.957C23.2391 127.119 24.1418 125.43 25.4674 124.104C26.793 122.779 28.4819 121.876 30.3205 121.51C32.1591 121.144 34.0649 121.332 35.7969 122.05C37.5288 122.767 39.0091 123.982 40.0506 125.54C41.0921 127.099 41.648 128.932 41.648 130.806C41.643 133.318 40.6424 135.725 38.8657 137.5C37.089 139.275 34.681 140.273 32.1696 140.275V140.285Z" fill="black"/>
</g>
<g id="freepik--Floor--inject-9">
<path id="Vector_17" d="M78.72 156.48C115.303 156.48 144.96 155.334 144.96 153.92C144.96 152.506 115.303 151.36 78.72 151.36C42.1366 151.36 12.48 152.506 12.48 153.92C12.48 155.334 42.1366 156.48 78.72 156.48Z" fill="#263238"/>
</g>
<g id="freepik--Contract--inject-9">
<g id="Vector_18">
<path d="M125.594 89.1744C127.485 89.5264 129.549 88.3136 130.714 86.3648C131.6 84.9024 131.91 83.4592 132.272 81.8048C132.678 80 146.733 14.6592 146.88 14.0128H75.6992L61.2096 81.344L60.6208 84.0608C60.4986 84.6262 60.2822 85.1671 59.9808 85.6608L59.552 86.3744C59.0988 87.1245 58.4489 87.7361 57.6728 88.1431C56.8967 88.5501 56.024 88.7368 55.1493 88.6831C54.2747 88.6293 53.4314 88.3372 52.7109 87.8383C51.9905 87.3393 51.4204 86.6527 51.0624 85.8528C50.4721 84.5314 49.5168 83.406 48.3088 82.609C47.1008 81.812 45.6903 81.3764 44.2432 81.3536H43.9776C42.2937 81.3853 40.6678 81.9745 39.3546 83.0289C38.0413 84.0834 37.1148 85.5435 36.72 87.1808L30.8416 111.571H102.013L107.414 89.1712" fill="white"/>
<path d="M125.594 89.1744C127.485 89.5264 129.549 88.3136 130.714 86.3648C131.6 84.9024 131.91 83.4592 132.272 81.8048C132.678 80 146.733 14.6592 146.88 14.0128H75.6992L61.2096 81.344L60.6208 84.0608C60.4986 84.6262 60.2822 85.1671 59.9808 85.6608L59.552 86.3744C59.0988 87.1245 58.4489 87.7361 57.6728 88.1431C56.8967 88.5501 56.024 88.7368 55.1493 88.6831C54.2747 88.6293 53.4314 88.3372 52.7109 87.8383C51.9905 87.3393 51.4204 86.6527 51.0624 85.8528C50.4721 84.5314 49.5168 83.406 48.3088 82.609C47.1008 81.812 45.6903 81.3764 44.2432 81.3536H43.9776C42.2937 81.3853 40.6678 81.9745 39.3546 83.0289C38.0413 84.0834 37.1148 85.5435 36.72 87.1808L30.8416 111.571H102.013L107.414 89.1712" stroke="#263238" stroke-width="0.32" stroke-linecap="round" stroke-linejoin="round"/>
</g>
<path id="Vector_19" d="M98.24 21.6128L98.1376 22.1504H97.4976L97.6064 21.5776C97.712 21.04 97.5616 20.7168 97.072 20.7168C96.5824 20.7168 96.3104 21.0368 96.2048 21.5776L95.5968 24.7424C95.4912 25.28 95.6512 25.6032 96.1312 25.6032C96.6112 25.6032 96.896 25.2832 96.9984 24.7424L97.1488 23.9648H97.7888L97.648 24.7072C97.472 25.6128 96.928 26.2112 96.0064 26.2112C95.0848 26.2112 94.7808 25.6128 94.9536 24.7072L95.552 21.6128C95.7248 20.7072 96.2688 20.1088 97.184 20.1088C98.0992 20.1088 98.4 20.7072 98.24 21.6128Z" fill="#263238"/>
<path id="Vector_20" d="M98.7808 21.6128C98.9568 20.6976 99.5232 20.1088 100.438 20.1088C101.354 20.1088 101.699 20.6976 101.523 21.6128L100.928 24.7072C100.752 25.6128 100.186 26.2112 99.2608 26.2112C98.336 26.2112 98.0096 25.6128 98.1824 24.7072L98.7808 21.6128ZM98.8352 24.7424C98.7296 25.2896 98.8992 25.6032 99.3792 25.6032C99.8592 25.6032 100.147 25.2832 100.253 24.7424L100.864 21.5776C100.966 21.04 100.806 20.7168 100.32 20.7168C99.8336 20.7168 99.5488 21.0368 99.4464 21.5776L98.8352 24.7424Z" fill="#263238"/>
<path id="Vector_21" d="M101.872 26.1504H101.274L102.426 20.16H103.274L103.824 24.4832L104.659 20.16H105.248L104.093 26.1408H103.402L102.803 21.3056L101.872 26.1504Z" fill="#263238"/>
<path id="Vector_22" d="M105.642 26.1504L106.678 20.7744H105.574L105.693 20.1696H108.557L108.438 20.7744H107.338L106.301 26.1504H105.642Z" fill="#263238"/>
<path id="Vector_23" d="M110.342 20.16C111.283 20.16 111.584 20.6368 111.414 21.5264L111.318 22.0128C111.194 22.672 110.883 23.0816 110.339 23.2448C110.854 23.408 110.979 23.8528 110.851 24.4928L110.669 25.424C110.607 25.6589 110.607 25.9059 110.669 26.1408H109.99C109.942 25.8997 109.953 25.6504 110.022 25.4144L110.202 24.4768C110.333 23.7984 110.058 23.5872 109.501 23.5872H109.03L108.538 26.1472H107.872L109.008 20.16H110.342ZM109.629 22.9792C109.749 22.9967 109.872 22.989 109.99 22.9565C110.107 22.924 110.217 22.8674 110.311 22.7904C110.406 22.7134 110.483 22.6176 110.539 22.5091C110.594 22.4006 110.626 22.2817 110.634 22.16L110.742 21.5872C110.848 21.0464 110.704 20.7648 110.208 20.7648H109.568L109.12 22.9888L109.629 22.9792Z" fill="#263238"/>
<path id="Vector_24" d="M112.131 24.96L111.68 26.1504H111.04L113.354 20.16H114.314V26.1408H113.648V24.96H112.131ZM112.326 24.3872H113.661V20.9344L112.326 24.3872Z" fill="#263238"/>
<path id="Vector_25" d="M118.339 21.6128L118.237 22.1504H117.597L117.709 21.5776C117.811 21.04 117.661 20.7168 117.174 20.7168C116.688 20.7168 116.41 21.0368 116.307 21.5776L115.696 24.7424C115.594 25.28 115.75 25.6032 116.23 25.6032C116.71 25.6032 116.995 25.2832 117.098 24.7424L117.248 23.9648H117.888L117.76 24.7072C117.584 25.6128 117.043 26.2112 116.118 26.2112C115.194 26.2112 114.88 25.6 115.05 24.7072L115.648 21.6128C115.821 20.7072 116.365 20.1088 117.28 20.1088C118.195 20.1088 118.515 20.7072 118.339 21.6128Z" fill="#263238"/>
<path id="Vector_26" d="M118.934 26.1504L119.971 20.7744H118.87L118.986 20.1696H121.85L121.734 20.7744H120.64L119.603 26.1504H118.934Z" fill="#263238"/>
<path id="Vector_27" d="M77.5328 29.0752H140.314" stroke="#263238" stroke-width="0.32" stroke-miterlimit="10"/>
<path id="Vector_28" d="M123.613 36.032H138.304" stroke="#263238" stroke-width="0.32" stroke-miterlimit="10"/>
<path id="Vector_29" d="M100.573 36.032H122.067" stroke="#263238" stroke-width="0.32" stroke-miterlimit="10"/>
<path id="Vector_30" d="M86.192 36.032H99.3376" stroke="#263238" stroke-width="0.32" stroke-miterlimit="10"/>
<path id="Vector_31" d="M75.5232 36.032H84.9568" stroke="#263238" stroke-width="0.32" stroke-miterlimit="10"/>
<path id="Vector_32" d="M121.757 39.5872H137.53" stroke="#263238" stroke-width="0.32" stroke-miterlimit="10"/>
<path id="Vector_33" d="M86.0384 39.5872H120.211" stroke="#263238" stroke-width="0.32" stroke-miterlimit="10"/>
<path id="Vector_34" d="M74.752 39.5872H84.6464" stroke="#263238" stroke-width="0.32" stroke-miterlimit="10"/>
<path id="Vector_35" d="M118.512 43.1456H136.758" stroke="#263238" stroke-width="0.32" stroke-miterlimit="10"/>
<path id="Vector_36" d="M91.1424 43.1456H117.274" stroke="#263238" stroke-width="0.32" stroke-miterlimit="10"/>
<path id="Vector_37" d="M73.9776 43.1456H89.904" stroke="#263238" stroke-width="0.32" stroke-miterlimit="10"/>
<path id="Vector_38" d="M124.541 46.7008H135.984" stroke="#263238" stroke-width="0.32" stroke-miterlimit="10"/>
<path id="Vector_39" d="M107.069 46.7008H122.995" stroke="#263238" stroke-width="0.32" stroke-miterlimit="10"/>
<path id="Vector_40" d="M90.2144 46.7008H105.523" stroke="#263238" stroke-width="0.32" stroke-miterlimit="10"/>
<path id="Vector_41" d="M77.5328 46.7008H88.8224" stroke="#263238" stroke-width="0.32" stroke-miterlimit="10"/>
<path id="Vector_42" d="M73.2032 46.7008H76.1408" stroke="#263238" stroke-width="0.32" stroke-miterlimit="10"/>
<path id="Vector_43" d="M132.582 50.2592H135.21" stroke="#263238" stroke-width="0.32" stroke-miterlimit="10"/>
<path id="Vector_44" d="M106.448 50.2592H130.573" stroke="#263238" stroke-width="0.32" stroke-miterlimit="10"/>
<path id="Vector_45" d="M88.048 50.2592H104.902" stroke="#263238" stroke-width="0.32" stroke-miterlimit="10"/>
<path id="Vector_46" d="M72.432 50.2592H86.3488" stroke="#263238" stroke-width="0.32" stroke-miterlimit="10"/>
<path id="Vector_47" d="M129.181 53.8144H134.438" stroke="#263238" stroke-width="0.32" stroke-miterlimit="10"/>
<path id="Vector_48" d="M113.872 53.8144H127.789" stroke="#263238" stroke-width="0.32" stroke-miterlimit="10"/>
<path id="Vector_49" d="M109.232 53.8144H112.326" stroke="#263238" stroke-width="0.32" stroke-miterlimit="10"/>
<path id="Vector_50" d="M86.9664 53.8144H108.461" stroke="#263238" stroke-width="0.32" stroke-miterlimit="10"/>
<path id="Vector_51" d="M71.6576 53.8144H85.728" stroke="#263238" stroke-width="0.32" stroke-miterlimit="10"/>
<path id="Vector_52" d="M70.8832 57.3696H133.664" stroke="#263238" stroke-width="0.32" stroke-miterlimit="10"/>
<path id="Vector_53" d="M129.645 60.928H132.893" stroke="#263238" stroke-width="0.32" stroke-miterlimit="10"/>
<path id="Vector_54" d="M115.418 60.928H127.635" stroke="#263238" stroke-width="0.32" stroke-miterlimit="10"/>
<path id="Vector_55" d="M95.008 60.928H113.254" stroke="#263238" stroke-width="0.32" stroke-miterlimit="10"/>
<path id="Vector_56" d="M90.5216 60.928H93.616" stroke="#263238" stroke-width="0.32" stroke-miterlimit="10"/>
<path id="Vector_57" d="M76.2976 60.928H88.8224" stroke="#263238" stroke-width="0.32" stroke-miterlimit="10"/>
<path id="Vector_58" d="M70.112 60.928H74.4416" stroke="#263238" stroke-width="0.32" stroke-miterlimit="10"/>
<path id="Vector_59" d="M116.346 64.4832H132.118" stroke="#263238" stroke-width="0.32" stroke-miterlimit="10"/>
<path id="Vector_60" d="M99.6448 64.4832H114.336" stroke="#263238" stroke-width="0.32" stroke-miterlimit="10"/>
<path id="Vector_61" d="M86.8128 64.4832H98.0992" stroke="#263238" stroke-width="0.32" stroke-miterlimit="10"/>
<path id="Vector_62" d="M69.3376 64.4832H85.264" stroke="#263238" stroke-width="0.32" stroke-miterlimit="10"/>
<path id="Vector_63" d="M126.397 68.0416H131.344" stroke="#263238" stroke-width="0.32" stroke-miterlimit="10"/>
<path id="Vector_64" d="M110.006 68.0416H124.694" stroke="#263238" stroke-width="0.32" stroke-miterlimit="10"/>
<path id="Vector_65" d="M99.4912 68.0416H108.925" stroke="#263238" stroke-width="0.32" stroke-miterlimit="10"/>
<path id="Vector_66" d="M90.9856 68.0416H97.9456" stroke="#263238" stroke-width="0.32" stroke-miterlimit="10"/>
<path id="Vector_67" d="M82.9472 68.0416H89.7504" stroke="#263238" stroke-width="0.32" stroke-miterlimit="10"/>
<path id="Vector_68" d="M72.7392 68.0416H81.2448" stroke="#263238" stroke-width="0.32" stroke-miterlimit="10"/>
<path id="Vector_69" d="M68.5664 68.0416H71.3472" stroke="#263238" stroke-width="0.32" stroke-miterlimit="10"/>
<path id="Vector_70" d="M122.221 71.5968H130.573" stroke="#263238" stroke-width="0.32" stroke-miterlimit="10"/>
<path id="Vector_71" d="M107.533 71.5968H120.365" stroke="#263238" stroke-width="0.32" stroke-miterlimit="10"/>
<path id="Vector_72" d="M93.7696 71.5968H105.677" stroke="#263238" stroke-width="0.32" stroke-miterlimit="10"/>
<path id="Vector_73" d="M77.6896 71.5968H91.9136" stroke="#263238" stroke-width="0.32" stroke-miterlimit="10"/>
<path id="Vector_74" d="M67.792 71.5968H76.1408" stroke="#263238" stroke-width="0.32" stroke-miterlimit="10"/>
<path id="Vector_75" d="M121.757 75.152H129.798" stroke="#263238" stroke-width="0.32" stroke-miterlimit="10"/>
<path id="Vector_76" d="M107.84 75.152H120.211" stroke="#263238" stroke-width="0.32" stroke-miterlimit="10"/>
<path id="Vector_77" d="M93.4592 75.152H105.677" stroke="#263238" stroke-width="0.32" stroke-miterlimit="10"/>
<path id="Vector_78" d="M83.5648 75.152H92.0704" stroke="#263238" stroke-width="0.32" stroke-miterlimit="10"/>
<path id="Vector_79" d="M73.36 75.152H82.0192" stroke="#263238" stroke-width="0.32" stroke-miterlimit="10"/>
<path id="Vector_80" d="M67.0176 75.152H72.432" stroke="#263238" stroke-width="0.32" stroke-miterlimit="10"/>
<path id="Vector_81" d="M124.387 78.7104H129.024" stroke="#263238" stroke-width="0.32" stroke-miterlimit="10"/>
<path id="Vector_82" d="M108.614 78.7104H122.842" stroke="#263238" stroke-width="0.32" stroke-miterlimit="10"/>
<path id="Vector_83" d="M96.0896 78.7104H106.758" stroke="#263238" stroke-width="0.32" stroke-miterlimit="10"/>
<path id="Vector_84" d="M87.8944 78.7104H94.3872" stroke="#263238" stroke-width="0.32" stroke-miterlimit="10"/>
<path id="Vector_85" d="M74.752 78.7104H85.5744" stroke="#263238" stroke-width="0.32" stroke-miterlimit="10"/>
<path id="Vector_86" d="M66.2464 78.7104H73.6672" stroke="#263238" stroke-width="0.32" stroke-miterlimit="10"/>
<path id="Vector_87" d="M114.659 81.344V81.3664C113.065 81.4994 111.553 82.1321 110.339 83.1743C109.125 84.2166 108.271 85.6152 107.898 87.1712L102.013 111.571H30.8416L36.7232 87.1712C37.118 85.5339 38.0445 84.0737 39.3578 83.0193C40.671 81.9648 42.2969 81.3757 43.9808 81.344H114.659Z" fill="white" stroke="#263238" stroke-width="0.32" stroke-linecap="round" stroke-linejoin="round"/>
<path id="Vector_88" d="M125.594 89.1744H107.414L107.898 87.1712C108.274 85.6168 109.129 84.22 110.342 83.1783C111.556 82.1366 113.066 81.5028 114.659 81.3664C114.867 81.3504 115.075 81.3408 115.283 81.3408C118.163 81.3408 121.123 82.9184 122.24 85.8432C123.027 87.9104 124.266 88.9248 125.594 89.1744Z" fill="#263238" stroke="#263238" stroke-width="0.32" stroke-linecap="round" stroke-linejoin="round"/>
<path id="Vector_89" d="M103.334 87.088C103.334 87.3248 102.755 87.5008 102.714 87.728C102.672 87.9552 103.142 88.3328 103.059 88.5472C102.976 88.7616 102.371 88.7232 102.253 88.9248C102.134 89.1264 102.454 89.632 102.304 89.8112C102.154 89.9904 101.597 89.7664 101.421 89.9232C101.245 90.08 101.421 90.656 101.229 90.7904C101.037 90.9248 100.55 90.5664 100.346 90.6752C100.141 90.784 100.173 91.3888 99.9552 91.4752C99.7376 91.5616 99.3408 91.1104 99.1168 91.1744C98.8928 91.2384 98.7968 91.8368 98.5728 91.8784C98.3488 91.92 98.0416 91.3984 97.808 91.4208C97.5744 91.4432 97.376 92.0096 97.1424 92.0096C96.9088 92.0096 96.7008 91.44 96.4736 91.4208C96.2464 91.4016 95.936 91.92 95.712 91.8784C95.488 91.8368 95.392 91.2384 95.1648 91.1744C94.9376 91.1104 94.5408 91.5616 94.3296 91.4752C94.1184 91.3888 94.1376 90.784 93.9392 90.6752C93.7408 90.5664 93.2416 90.9216 93.056 90.7904C92.8704 90.6592 93.0304 90.0736 92.8608 89.9232C92.6912 89.7728 92.1248 89.984 91.9776 89.8112C91.8304 89.6384 92.1472 89.12 92.032 88.9216C91.9168 88.7232 91.3088 88.7616 91.2256 88.5472C91.1424 88.3328 91.6128 87.9552 91.568 87.728C91.5232 87.5008 90.9504 87.328 90.9504 87.088C90.9504 86.848 91.5264 86.6784 91.568 86.448C91.6096 86.2176 91.1424 85.8464 91.2256 85.6288C91.3088 85.4112 91.9104 85.456 92.032 85.2544C92.1536 85.0528 91.8272 84.5472 91.9776 84.368C92.128 84.1888 92.688 84.4128 92.8608 84.256C93.0336 84.0992 92.8608 83.5232 93.056 83.3888C93.2512 83.2544 93.7312 83.6128 93.9392 83.5008C94.1472 83.3888 94.112 82.7904 94.3296 82.7008C94.5472 82.6112 94.9408 83.0688 95.1648 83.0048C95.3888 82.9408 95.4848 82.3424 95.712 82.3008C95.9392 82.2592 96.24 82.7808 96.4736 82.7584C96.7072 82.736 96.9056 82.1664 97.1424 82.1664C97.3792 82.1664 97.5808 82.736 97.808 82.7584C98.0352 82.7808 98.3488 82.256 98.5728 82.3008C98.7968 82.3456 98.8928 82.9408 99.1168 83.0048C99.3408 83.0688 99.7568 82.6176 99.9552 82.7008C100.154 82.784 100.144 83.3952 100.346 83.5008C100.547 83.6064 101.04 83.2576 101.229 83.3888C101.418 83.52 101.254 84.1024 101.421 84.256C101.587 84.4096 102.16 84.192 102.304 84.368C102.448 84.544 102.134 85.0592 102.253 85.2544C102.371 85.4496 102.976 85.4176 103.059 85.632C103.142 85.8464 102.669 86.2208 102.714 86.448C102.758 86.6752 103.334 86.8544 103.334 87.088Z" fill="#599BFE"/>
<path id="Vector_90" d="M97.1424 90.7744C99.7386 90.7744 101.843 89.124 101.843 87.088C101.843 85.0521 99.7386 83.4016 97.1424 83.4016C94.5462 83.4016 92.4416 85.0521 92.4416 87.088C92.4416 89.124 94.5462 90.7744 97.1424 90.7744Z" fill="white"/>
<path id="Vector_91" d="M97.1424 90.0736C99.2437 90.0736 100.947 88.7369 100.947 87.088C100.947 85.4391 99.2437 84.1024 97.1424 84.1024C95.0411 84.1024 93.3376 85.4391 93.3376 87.088C93.3376 88.7369 95.0411 90.0736 97.1424 90.0736Z" fill="#599BFE"/>
<path id="Vector_92" d="M99.8208 105.053H68.9152" stroke="#263238" stroke-width="0.32" stroke-linecap="round" stroke-linejoin="round"/>
<path id="Vector_93" d="M59.0848 105.053H36.9408" stroke="#263238" stroke-width="0.32" stroke-linecap="round" stroke-linejoin="round"/>
<path id="Vector_94" d="M75.6192 104.4C75.6192 104.4 81.4528 97.9392 83.1168 91.6C84.7808 85.2608 80.688 88.6976 79.0528 95.728C77.4176 102.758 77.4176 104.56 79.0528 103.251C80.3646 102.125 81.4967 100.806 82.4096 99.3376C82.64 98.9728 82.832 98.6336 82.9792 98.3456C83.6192 97.0368 81.5072 97.856 81.0144 100.47C80.5216 103.085 83.4688 99.328 84.2848 98.0192C85.1008 96.7104 86.7392 96.0576 85.4304 99.4912C84.1216 102.925 82.16 102.269 83.9584 99.9808C85.7568 97.6928 87.7216 92.9408 87.8848 95.5648C88.048 98.1888 87.392 101.12 86.08 101.946C84.768 102.771 88.5312 98.1856 89.6768 98.512C90.8224 98.8384 91.312 100.147 90.1664 101.13C89.0208 102.112 89.0208 98.8384 97.6896 99.1648" stroke="#263238" stroke-width="0.32" stroke-linecap="round" stroke-linejoin="round"/>
</g>
<g id="freepik--Character--inject-9">
<path id="Vector_95" d="M96.2752 95.376L101.075 99.216C101.128 99.2589 101.164 99.3185 101.178 99.3847C101.192 99.451 101.182 99.52 101.152 99.5804C101.121 99.6408 101.071 99.689 101.009 99.717C100.948 99.745 100.878 99.7511 100.813 99.7344L94.7328 98.1568L96.2752 95.376Z" fill="white" stroke="#263238" stroke-width="0.32" stroke-linecap="round" stroke-linejoin="round"/>
<path id="Vector_96" d="M95.4976 93.8816L67.4528 77.2768L64.32 82.608L93.3568 98.336C93.4285 98.3863 93.5059 98.4282 93.5872 98.4608C94.5472 98.864 95.76 98.1664 96.288 96.8992C96.816 95.632 96.4608 94.2816 95.4976 93.8816Z" fill="#8C8C8C" stroke="#263238" stroke-width="0.32" stroke-linecap="round" stroke-linejoin="round"/>
<path id="Vector_97" d="M68.192 80.6784C67.3728 82.64 65.4976 83.7248 64.0032 83.1008C63.8597 83.0395 63.7226 82.9645 63.5936 82.8768L34.848 66.8576L32.5056 65.5488L32.2176 65.392L32.2912 65.216L35.5872 57.3248L35.728 57.0048L36.1088 57.2352L39.392 59.2352L66.9696 76.0096C68.48 76.6208 69.0112 78.72 68.192 80.6784Z" fill="white" stroke="#263238" stroke-width="0.32" stroke-linecap="round" stroke-linejoin="round"/>
<path id="Vector_98" d="M66.6944 75.84L39.392 59.232L36.1088 57.232L35.728 57.0016L35.5872 57.3216L32.2912 65.2128L32.2176 65.3888L32.5056 65.5456L34.848 66.8544L62.9344 82.5056C64.432 82.9504 66.2112 81.8656 67.0112 79.9456C67.6512 78.4 67.4816 76.8 66.6944 75.84Z" fill="#8C8C8C" stroke="#263238" stroke-width="0.32" stroke-linecap="round" stroke-linejoin="round"/>
<g id="Vector_99">
<path d="M34.848 66.8576C36.5536 66.928 38.368 65.6032 39.2576 63.4912C39.8651 62.1409 39.9134 60.605 39.392 59.2192L36.1088 57.2192C35.9326 57.2417 35.7583 57.277 35.5872 57.3248C34.2336 57.7056 32.9408 58.8864 32.2432 60.56C31.5456 62.2336 31.6032 63.9872 32.2912 65.216C32.355 65.3276 32.4266 65.4346 32.5056 65.536" fill="white"/>
<path d="M34.848 66.8576C36.5536 66.928 38.368 65.6032 39.2576 63.4912C39.8651 62.1409 39.9134 60.605 39.392 59.2192L36.1088 57.2192C35.9326 57.2417 35.7583 57.277 35.5872 57.3248C34.2336 57.7056 32.9408 58.8864 32.2432 60.56C31.5456 62.2336 31.6032 63.9872 32.2912 65.216C32.355 65.3276 32.4266 65.4346 32.5056 65.536" stroke="#263238" stroke-width="0.32" stroke-linecap="round" stroke-linejoin="round"/>
</g>
<path id="Vector_100" d="M37.408 62.0224L58.7328 75.9008C58.8622 75.9878 58.9554 76.119 58.9949 76.2699C59.0344 76.4207 59.0174 76.5808 58.9472 76.72C58.9065 76.7948 58.8513 76.8608 58.7847 76.914C58.7182 76.9672 58.6417 77.0066 58.5597 77.0298C58.4777 77.0531 58.392 77.0597 58.3074 77.0494C58.2228 77.039 58.1412 77.0119 58.0672 76.9696L36.1312 64L37.408 62.0224Z" fill="white" stroke="#263238" stroke-width="0.32" stroke-linecap="round" stroke-linejoin="round"/>
<path id="Vector_101" d="M37.1744 62.528C36.2144 64.848 33.9744 66.1312 32.2176 65.392C30.4608 64.6528 29.8048 62.1728 30.7712 59.84C31.7376 57.5072 33.9712 56.2368 35.728 56.976C37.4848 57.7152 38.144 60.208 37.1744 62.528Z" fill="#8C8C8C" stroke="#263238" stroke-width="0.32" stroke-linecap="round" stroke-linejoin="round"/>
<path id="Vector_102" d="M36.48 62.24C35.7216 64.0576 33.9808 65.0656 32.5952 64.48C31.2096 63.8944 26.4448 59.3376 27.2 57.52C27.9552 55.7024 33.9584 57.3152 35.344 57.8944C36.7296 58.4736 37.2448 60.4192 36.48 62.24Z" fill="white" stroke="#263238" stroke-width="0.32" stroke-linecap="round" stroke-linejoin="round"/>
<path id="Vector_103" d="M81.3856 92.4096L83.1168 91.6032C83.511 91.5855 83.8987 91.7079 84.2112 91.9488C84.7296 92.352 85.7088 92.9856 85.7088 92.9856C85.7088 92.9856 87.6672 93.1008 87.7248 93.3888C87.7824 93.6768 86.5728 94.0288 86.4 94.0288H85.12C85.12 94.0288 86.9056 94.9536 87.0784 95.0688C87.2512 95.184 89.7312 95.9328 89.3856 96.1632C89.04 96.3936 86.7328 96.336 86.2144 96.4512C85.6999 96.5303 85.1798 96.5688 84.6592 96.5664L82.7008 94.7808L81.3152 93.28C81.3152 93.28 80.8672 92.7552 81.3856 92.4096Z" fill="white" stroke="#263238" stroke-width="0.32" stroke-linecap="round" stroke-linejoin="round"/>
<path id="Vector_104" d="M37.9328 71.7216C37.9328 71.7216 37.8176 70.1632 37.8176 69.4144C37.8176 68.6656 37.4144 67.2256 37.2416 67.1104C37.0688 66.9952 35.2832 66.304 34.7648 65.8304C34.2464 65.3568 33.6096 66.0032 33.84 66.4064C34.0704 66.8096 35.3984 67.5584 35.3984 67.5584L35.0528 68.0768L33.7728 66.9824C33.7728 66.9824 32.448 64.9088 32.1024 65.0816C31.7568 65.2544 31.872 65.5424 32.1024 65.9456C32.3328 66.3488 32.2176 68.9408 32.8512 69.4656C33.4848 69.9904 35.3888 70.6208 35.3888 70.6208L35.5616 72.0608C35.5616 72.0608 37.3472 72.176 37.5776 72.2336C37.808 72.2912 37.9328 71.7216 37.9328 71.7216Z" fill="white" stroke="#263238" stroke-width="0.32" stroke-linecap="round" stroke-linejoin="round"/>
<path id="Vector_105" d="M34.128 73.92L34.3584 72.3648C34.3584 72.3648 34.3008 71.8464 35.6384 71.616C36.4048 71.4735 37.194 71.513 37.9424 71.7312C38.0243 71.7633 38.0951 71.8185 38.1462 71.8901C38.1973 71.9617 38.2266 72.0465 38.2304 72.1344C38.2201 72.6951 38.1623 73.2539 38.0576 73.8048C38.0576 73.8048 35.9744 72.9888 34.128 73.92Z" fill="white" stroke="#263238" stroke-width="0.32" stroke-linecap="round" stroke-linejoin="round"/>
<path id="Vector_106" d="M57.2448 150.4V154.56C57.2448 154.56 58.2048 155.043 61.0048 155.043C63.5116 154.988 65.9899 154.498 68.3296 153.597C69.6768 153.021 70.16 151.766 69.6768 151.574C69.1936 151.382 66.7968 151.283 66.304 150.899C65.8112 150.515 63.7984 149.261 63.7984 149.261C63.7984 149.261 58.9792 150.691 57.2448 150.4Z" fill="#599BFE" stroke="#263238" stroke-width="0.32" stroke-linecap="round" stroke-linejoin="round"/>
<path id="Vector_107" d="M69.8528 151.939C67.8287 152.889 65.6698 153.519 63.4528 153.808C60.1248 154.237 58.0736 153.869 57.2384 153.651V154.56C57.2384 154.56 58.1984 155.043 60.9984 155.043C63.5052 154.988 65.9835 154.498 68.3232 153.597C69.296 153.168 69.8144 152.406 69.8528 151.939Z" fill="white" stroke="#263238" stroke-width="0.32" stroke-linecap="round" stroke-linejoin="round"/>
<path id="Vector_108" d="M58.6912 110.602L59.1744 111.952C59.1744 111.952 61.1968 115.792 62.6432 118.602C64.0896 121.411 65.6288 127.37 66.112 127.949C66.5952 128.528 66.496 129.296 66.208 130.163C65.92 131.03 63.6064 146.163 63.6064 146.547C63.6064 146.931 63.4144 146.931 63.7024 147.414C63.9904 147.898 64.0896 149.437 64.0896 149.437C63.4551 150.051 62.6476 150.455 61.776 150.595C60.2336 150.883 57.2448 150.883 57.2448 150.883C57.2448 150.883 56.8608 149.053 56.9568 148.765C57.0528 148.477 57.344 146.643 57.344 146.643C57.344 146.643 58.304 141.92 58.112 139.514C57.92 137.107 58.4032 131.706 58.5952 131.13C58.7285 130.498 58.7929 129.855 58.7872 129.21L58.2112 128.15V127.36C58.2112 127.36 53.584 122.637 51.7536 120.806C49.9232 118.976 48.0928 116.758 48.0928 116.758C48.0928 116.758 45.9712 126.205 45.392 128.227C44.8128 130.25 44.5248 131.107 44.1408 131.696C43.7568 132.285 39.8048 137.478 38.3584 139.6C36.912 141.722 34.6976 145.478 34.6976 145.478C34.6918 146.026 34.7239 146.573 34.7936 147.117C34.8896 147.501 33.8336 148.947 33.8336 148.947L33.4464 149.331C33.4464 149.331 31.1328 147.018 30.2656 146.826C29.3984 146.634 27.568 146.922 27.568 146.922C27.568 146.922 28.7264 143.744 29.0144 143.082C29.3024 142.419 32 135.565 32.7712 134.214C33.5424 132.864 34.1216 130.166 35.472 129.094C36.8224 128.022 38.352 126.781 38.352 126.781L38.16 115.99L37.968 113.002C37.7788 112.245 37.681 111.468 37.6768 110.688V108.768C37.6768 108.768 46.448 110.79 50.7968 110.598C55.1456 110.406 57.7344 109.251 57.7344 109.251L58.6912 110.602Z" fill="#263238" stroke="#263238" stroke-width="0.32" stroke-linecap="round" stroke-linejoin="round"/>
<path id="Vector_109" d="M61.1008 80.48C61.1008 80.48 56.0864 78.2912 53.4368 78.2912C50.7872 78.2912 49.344 78.3488 46.5184 78.464C43.6928 78.5792 42.0384 79.4432 42.0384 79.4432L37.8784 80.8256L38.2208 73.28C37.3774 73.0476 36.4956 72.9888 35.6288 73.1072C34.8961 73.2434 34.2246 73.606 33.7088 74.144C33.7088 74.144 32.1536 84.4032 32.2112 85.3248C32.2688 86.2464 33.4912 86.4192 33.4912 86.4192L42.8864 86.2464L42.1952 96.736L35.1552 108.954C35.1552 108.954 35.2128 110.854 40.976 112.758C46.7392 114.662 53.8272 114.038 56.016 113.45C58.2048 112.861 61.7088 110.282 61.9968 109.878C62.2848 109.475 61.9968 107.398 61.9968 106.534C61.9968 105.67 60.5568 97.4848 60.7872 97.0816C61.0176 96.6784 62.2848 91.2608 62.2848 91.2608C62.2848 91.2608 73.984 98.8672 74.6752 98.752C75.3664 98.6368 82.3968 95.1808 82.5728 95.0656C82.7488 94.9504 83.2128 94.3168 82.5152 93.2768C82.2583 92.9182 81.923 92.6229 81.5349 92.4133C81.1468 92.2037 80.716 92.0853 80.2752 92.0672C79.9296 92.0672 75.2032 92.4704 75.2032 92.4704C75.2032 92.4704 69.2832 87.2224 69.12 86.9344C68.9568 86.6464 68.0256 84.2272 67.6224 83.5936C67.2192 82.96 61.1008 80.48 61.1008 80.48Z" fill="#599BFE" stroke="#263238" stroke-width="0.32" stroke-linecap="round" stroke-linejoin="round"/>
<g id="Vector_110">
<path d="M75.2192 92.48C75.2192 92.48 77.1136 93.5584 77.4912 94.2208L75.2192 92.48Z" fill="#599BFE"/>
<path d="M75.2192 92.48C75.2192 92.48 77.1136 93.5584 77.4912 94.2208" stroke="#263238" stroke-width="0.32" stroke-linecap="round" stroke-linejoin="round"/>
</g>
<g id="Vector_111">
<path d="M67.6128 83.5936C67.6128 83.5936 65.8816 83.7312 64.0928 85.6192L67.6128 83.5936Z" fill="#599BFE"/>
<path d="M67.6128 83.5936C67.6128 83.5936 65.8816 83.7312 64.0928 85.6192" stroke="#263238" stroke-width="0.32" stroke-linecap="round" stroke-linejoin="round"/>
</g>
<g id="Vector_112">
<path d="M63.712 84.3936C63.1896 84.6857 62.7401 85.0921 62.3971 85.5826C62.0541 86.073 61.8264 86.6347 61.7312 87.2255" fill="#599BFE"/>
<path d="M63.712 84.3936C63.1896 84.6857 62.7401 85.0921 62.3971 85.5826C62.0541 86.073 61.8264 86.6347 61.7312 87.2255" stroke="#263238" stroke-width="0.32" stroke-linecap="round" stroke-linejoin="round"/>
</g>
<path id="Vector_113" d="M42.8896 86.2432L42.7168 81.92L42.8896 86.2432Z" stroke="#263238" stroke-width="0.32" stroke-linecap="round" stroke-linejoin="round"/>
<path id="Vector_114" d="M59.5808 93.1104L62.3104 91.2576L57.872 92.64" stroke="#263238" stroke-width="0.32" stroke-linecap="round" stroke-linejoin="round"/>
<path id="Vector_115" d="M57.6416 94.4288L58.5856 93.7888" stroke="#263238" stroke-width="0.32" stroke-linecap="round" stroke-linejoin="round"/>
<path id="Vector_116" d="M57.3728 81.136C56.3071 81.5174 55.3234 82.0972 54.4736 82.8448C52.2336 84.8608 51.0144 84.688 51.0144 84.688" stroke="#263238" stroke-width="0.32" stroke-linecap="round" stroke-linejoin="round"/>
<path id="Vector_117" d="M59.6032 80.5952C59.2605 80.6309 58.9205 80.6897 58.5856 80.7712" stroke="#263238" stroke-width="0.32" stroke-linecap="round" stroke-linejoin="round"/>
<path id="Vector_118" d="M54.128 82.0352C54.128 82.0352 52.2816 83.7664 50.3232 84.5728" stroke="#263238" stroke-width="0.32" stroke-linecap="round" stroke-linejoin="round"/>
<path id="Vector_119" d="M33.8304 81.8688C33.6416 82.096 33.5296 82.3772 33.5104 82.672" stroke="#263238" stroke-width="0.32" stroke-linecap="round" stroke-linejoin="round"/>
<path id="Vector_120" d="M37.8752 80.8256L37.0688 80.8832C37.0688 80.8832 36.032 80.4224 35.5136 80.48C35.1496 80.5981 34.82 80.8036 34.5536 81.0784" stroke="#263238" stroke-width="0.32" stroke-linecap="round" stroke-linejoin="round"/>
<path id="Vector_121" d="M34.3584 80.5952C34.3584 80.5952 33.3216 80.9984 33.1488 81.92" stroke="#263238" stroke-width="0.32" stroke-linecap="round" stroke-linejoin="round"/>
<path id="Vector_122" d="M60.8 97.0784C60.8 97.0784 59.984 102.614 59.6192 104.323C59.2544 106.032 58.7648 110.24 58.7648 110.24C59.3751 110.008 60.0095 109.845 60.656 109.754C61.616 109.632 61.9968 109.875 61.9968 109.875C61.9968 109.875 62.7296 108.106 61.9968 105.053C61.264 102 60.8 97.0784 60.8 97.0784Z" fill="#599BFE" stroke="#263238" stroke-width="0.32" stroke-linecap="round" stroke-linejoin="round"/>
<path id="Vector_123" d="M33.4432 149.341C33.4432 149.341 33.8304 151.171 34.2144 151.366C34.5984 151.562 36.432 151.942 36.624 152.426C36.816 152.909 34.8896 153.773 33.6352 153.968C32.3808 154.163 30.1664 153.677 29.8784 153.485C29.5904 153.293 28.9184 152.33 28.048 152.038C27.1776 151.747 26.128 151.366 26.3136 150.208C26.4992 149.05 27.5648 146.931 27.5648 146.931C28.8579 146.535 30.2444 146.569 31.5168 147.027C33.6352 147.798 33.4432 149.341 33.4432 149.341Z" fill="#599BFE" stroke="#263238" stroke-width="0.32" stroke-linecap="round" stroke-linejoin="round"/>
<path id="Vector_124" d="M33.6352 153.968C34.8896 153.773 36.816 152.906 36.624 152.426C36.6037 152.381 36.5755 152.341 36.5408 152.307C35.6032 152.627 34.4512 152.803 33.392 152.218C32.0928 151.494 31.6576 149.904 29.9232 149.338C28.9152 149.002 27.5648 149.059 26.6112 149.162C26.4824 149.506 26.3829 149.86 26.3136 150.221C26.1184 151.379 27.1808 151.763 28.048 152.051C28.9152 152.339 29.5904 153.306 29.8784 153.498C30.1664 153.69 32.384 154.16 33.6352 153.968Z" fill="white" stroke="#263238" stroke-width="0.32" stroke-linecap="round" stroke-linejoin="round"/>
<path id="Vector_125" d="M33.0592 153.28C31.9968 152.797 31.0336 151.546 29.4912 150.582C28.0832 149.699 26.6112 150.669 26.352 150.842C26.5728 151.514 27.3664 151.802 28.048 152.026C28.9152 152.317 29.5904 153.28 29.8784 153.472C30.1664 153.664 32.384 154.147 33.6352 153.955C33.8902 153.913 34.1424 153.855 34.3904 153.782C33.9375 153.64 33.493 153.473 33.0592 153.28Z" fill="#263238" stroke="#263238" stroke-width="0.32" stroke-linecap="round" stroke-linejoin="round"/>
<path id="Vector_126" d="M62.08 78.9248L60.352 80.1344C60.352 80.1344 58.112 78.6368 56.5472 78.3488C54.9824 78.0608 54.1856 78.0032 54.1856 78.0032L55.3952 75.8688C56.2798 75.2316 56.9602 74.3511 57.3536 73.3344C57.872 71.7792 58.3904 71.1456 59.5456 71.7344C60.7008 72.3232 61.1456 74.6144 61.1456 76.0544C61.1456 77.4944 62.08 78.9248 62.08 78.9248Z" fill="white" stroke="#263238" stroke-width="0.32" stroke-linecap="round" stroke-linejoin="round"/>
<path id="Vector_127" d="M63.0592 68.32C63.0592 68.32 64.0384 69.76 64.1536 70.2816C64.2688 70.8032 63.7504 71.8368 63.7504 71.8368C63.7504 71.8368 64.9056 73.5072 64.9632 73.9104C65.0208 74.3136 64.2688 75.0624 64.2688 75.0624C64.2688 75.0624 64.4416 76.736 64.6752 77.1391C64.9088 77.5423 65.136 78.1184 64.848 78.6368C64.56 79.1552 64.1536 79.5007 62.928 79.6735C61.7024 79.8463 60.7392 79.2703 60.5088 78.0735C60.2784 76.8767 60.2784 74.2687 60.1056 73.9135C59.9328 73.5583 59.1264 72.7616 58.7232 73.3952C58.32 74.0288 58.608 74.6751 58.896 75.2383C59.0724 75.5859 59.3549 75.8683 59.7024 76.0448L58.4224 76.6848C57.6568 77.0157 56.7968 77.0567 56.0032 76.8C55.7202 76.6925 55.4614 76.53 55.2417 76.3218C55.022 76.1136 54.8457 75.8639 54.7232 75.5872C54.6656 75.4144 54.0832 73.9872 53.9168 73.6864C53.7504 73.3856 52.5312 71.6704 52.4736 69.6512C52.416 67.632 54.8384 65.3311 57.9488 64.6975C61.0592 64.0639 62.5024 65.4463 63.1936 65.5039C63.8848 65.5615 63.1936 64.928 63.7696 65.3312C64.3456 65.7344 64.4992 67.9744 63.0592 68.32Z" fill="white" stroke="#263238" stroke-width="0.32" stroke-linecap="round" stroke-linejoin="round"/>
<path id="Vector_128" d="M64.2688 75.0624C64.2688 75.0624 64.3328 74.9984 64.4224 74.8992C64.1888 74.9312 63.488 75.0272 63.0592 75.12C62.5408 75.2352 62.3104 76.7936 61.8496 76.4C61.3888 76.0064 61.1584 72.5952 61.0432 72.4224C60.928 72.2496 61.44 71.68 61.44 71.68C61.44 71.68 62.2464 70.5856 62.2464 70.1216C62.2464 69.6576 61.44 69.1424 61.728 69.0272C62.016 68.912 63.0528 68.336 63.0528 68.336C64.4928 67.9904 64.3776 65.744 63.8016 65.3408C63.2256 64.9376 63.9168 65.5712 63.2256 65.5136C62.5344 65.456 61.0944 64.0704 57.9808 64.7072C54.8672 65.344 52.448 67.6448 52.5056 69.6608C52.5632 71.6768 53.7856 73.408 53.9488 73.696C54.112 73.984 54.6976 75.424 54.7552 75.5968C54.8778 75.8735 55.054 76.1232 55.2737 76.3314C55.4934 76.5396 55.7523 76.7021 56.0352 76.8096C56.8289 77.0663 57.6888 77.0253 58.4544 76.6944L59.7344 76.0544C59.3869 75.8779 59.1045 75.5955 58.928 75.248C58.64 74.672 58.3488 74.0384 58.7552 73.4048C59.1616 72.7712 59.9648 73.5776 60.1376 73.9232C60.3104 74.2688 60.3104 76.864 60.5408 78.0831C60.7712 79.3024 61.7504 79.8688 62.96 79.6832C64.1696 79.4976 64.56 79.1648 64.88 78.6464C65.2 78.128 64.9376 77.552 64.7072 77.1488C64.4768 76.7456 64.2688 75.0624 64.2688 75.0624Z" fill="#263238" stroke="#263238" stroke-width="0.32" stroke-linecap="round" stroke-linejoin="round"/>
<path id="Vector_129" d="M63.9808 70.7999C63.8253 70.7988 63.6727 70.8414 63.5403 70.9229C63.4078 71.0044 63.301 71.1214 63.232 71.2608" stroke="#263238" stroke-width="0.32" stroke-linecap="round" stroke-linejoin="round"/>
<path id="Vector_130" d="M63.52 72.7583C63.6473 72.7583 63.7504 72.4747 63.7504 72.1247C63.7504 71.7748 63.6473 71.4911 63.52 71.4911C63.3928 71.4911 63.2896 71.7748 63.2896 72.1247C63.2896 72.4747 63.3928 72.7583 63.52 72.7583Z" fill="#263238"/>
<path id="Vector_131" d="M64.384 76.5056C64.384 76.5056 63.4048 76.8512 63.0016 76.1568" stroke="white" stroke-width="0.32" stroke-linecap="round" stroke-linejoin="round"/>
<path id="Vector_132" d="M53.44 78.2912C56.0896 78.2912 61.104 80.48 61.104 80.48L61.296 80.56C61.2449 80.3009 61.1354 80.0569 60.976 79.8464C60.8032 79.7312 59.8816 78.4064 58.1504 77.7152C57.0168 77.2462 55.8058 76.9923 54.5792 76.9664C54.1728 76.9664 53.0112 78.0352 52.736 78.2912H53.44Z" fill="#599BFE" stroke="#263238" stroke-width="0.32" stroke-linecap="round" stroke-linejoin="round"/>
</g>
<g id="Group_4" opacity="0.1">
<path id="Vector_133" d="M20 20C18.4178 20 16.871 20.4692 15.5554 21.3482C14.2398 22.2273 13.2145 23.4767 12.609 24.9385C12.0035 26.4003 11.845 28.0089 12.1537 29.5607C12.4624 31.1126 13.2243 32.538 14.3431 33.6569C15.462 34.7757 16.8874 35.5376 18.4393 35.8463C19.9911 36.155 21.5997 35.9965 23.0615 35.391C24.5233 34.7855 25.7727 33.7602 26.6518 32.4446C27.5308 31.129 28 29.5823 28 28C28 25.8783 27.1572 23.8434 25.6569 22.3431C24.1566 20.8429 22.1217 20 20 20ZM20 34C18.8133 34 17.6533 33.6481 16.6666 32.9888C15.6799 32.3295 14.9109 31.3925 14.4567 30.2961C14.0026 29.1997 13.8838 27.9933 14.1153 26.8295C14.3468 25.6656 14.9183 24.5965 15.7574 23.7574C16.5965 22.9182 17.6656 22.3468 18.8295 22.1153C19.9933 21.8838 21.1997 22.0026 22.2961 22.4567C23.3925 22.9108 24.3295 23.6799 24.9888 24.6666C25.6481 25.6533 26 26.8133 26 28C26 29.5913 25.3679 31.1174 24.2426 32.2426C23.1174 33.3679 21.5913 34 20 34Z" fill="black"/>
<path id="Exclude_3" fill-rule="evenodd" clip-rule="evenodd" d="M19.9861 33.3611C22.8626 33.3611 25.1944 31.0293 25.1944 28.1528C25.1944 25.2763 22.8626 22.9445 19.9861 22.9445C17.1096 22.9445 14.7778 25.2763 14.7778 28.1528C14.7778 31.0293 17.1096 33.3611 19.9861 33.3611ZM19.6128 28.9249H20.8453C21.3257 28.9249 21.7345 28.8435 22.0717 28.6807C22.409 28.5159 22.6665 28.2891 22.8444 28.0002C23.0222 27.7092 23.1111 27.3725 23.1111 26.9901C23.1111 26.6218 23.0232 26.2902 22.8474 25.9952C22.6737 25.6981 22.4182 25.4632 22.0809 25.2902C21.7437 25.1153 21.3318 25.0278 20.8453 25.0278H18.9119C18.6725 25.0278 18.4784 25.2219 18.4784 25.4613V27.9941H17.9891C17.7496 27.9941 17.5555 28.1882 17.5555 28.4276V28.4913C17.5555 28.7308 17.7496 28.9249 17.9891 28.9249H18.4784V29.3887H17.9891C17.7496 29.3887 17.5555 29.5828 17.5555 29.8222V29.886C17.5555 30.1254 17.7496 30.3195 17.9891 30.3195H18.4784V30.8443C18.4784 31.0837 18.6725 31.2778 18.9119 31.2778H19.1793C19.4187 31.2778 19.6128 31.0837 19.6128 30.8443V30.3195H20.5559C20.7953 30.3195 20.9894 30.1254 20.9894 29.886V29.8222C20.9894 29.5828 20.7953 29.3887 20.5559 29.3887H19.6128V28.9249ZM19.6128 27.9941H20.8208C21.0845 27.9941 21.3011 27.9524 21.4708 27.869C21.6425 27.7855 21.7692 27.6696 21.851 27.5211C21.9348 27.3725 21.9757 27.1986 21.9736 26.9992C21.9757 26.8039 21.9348 26.6289 21.851 26.4743C21.7692 26.3176 21.6445 26.1946 21.4769 26.105C21.3114 26.0135 21.1008 25.9677 20.8453 25.9677H20.0463C19.8069 25.9677 19.6128 26.1618 19.6128 26.4012V27.9941Z" fill="#263238"/>
</g>
<g id="Group_5" opacity="0.1">
<path id="Vector_134" d="M108 132C106.418 132 104.871 132.469 103.555 133.348C102.24 134.227 101.214 135.477 100.609 136.939C100.003 138.4 99.845 140.009 100.154 141.561C100.462 143.113 101.224 144.538 102.343 145.657C103.462 146.776 104.887 147.538 106.439 147.846C107.991 148.155 109.6 147.997 111.061 147.391C112.523 146.786 113.773 145.76 114.652 144.445C115.531 143.129 116 141.582 116 140C116 137.878 115.157 135.843 113.657 134.343C112.157 132.843 110.122 132 108 132ZM108 146C106.813 146 105.653 145.648 104.667 144.989C103.68 144.33 102.911 143.392 102.457 142.296C102.003 141.2 101.884 139.993 102.115 138.829C102.347 137.666 102.918 136.596 103.757 135.757C104.596 134.918 105.666 134.347 106.829 134.115C107.993 133.884 109.2 134.003 110.296 134.457C111.392 134.911 112.33 135.68 112.989 136.667C113.648 137.653 114 138.813 114 140C114 141.591 113.368 143.117 112.243 144.243C111.117 145.368 109.591 146 108 146Z" fill="black"/>
<path id="Exclude_4" fill-rule="evenodd" clip-rule="evenodd" d="M107.986 145.361C110.863 145.361 113.194 143.029 113.194 140.153C113.194 137.276 110.863 134.944 107.986 134.944C105.11 134.944 102.778 137.276 102.778 140.153C102.778 143.029 105.11 145.361 107.986 145.361ZM107.613 140.925H108.845C109.326 140.925 109.734 140.843 110.072 140.681C110.409 140.516 110.667 140.289 110.844 140C111.022 139.709 111.111 139.373 111.111 138.99C111.111 138.622 111.023 138.29 110.847 137.995C110.674 137.698 110.418 137.463 110.081 137.29C109.744 137.115 109.332 137.028 108.845 137.028H106.912C106.672 137.028 106.478 137.222 106.478 137.461V139.994H105.989C105.75 139.994 105.556 140.188 105.556 140.428V140.491C105.556 140.731 105.75 140.925 105.989 140.925H106.478V141.389H105.989C105.75 141.389 105.556 141.583 105.556 141.822V141.886C105.556 142.125 105.75 142.32 105.989 142.32H106.478V142.844C106.478 143.084 106.672 143.278 106.912 143.278H107.179C107.419 143.278 107.613 143.084 107.613 142.844V142.32H108.556C108.795 142.32 108.989 142.125 108.989 141.886V141.822C108.989 141.583 108.795 141.389 108.556 141.389H107.613V140.925ZM107.613 139.994H108.821C109.084 139.994 109.301 139.952 109.471 139.869C109.642 139.786 109.769 139.67 109.851 139.521C109.935 139.373 109.976 139.199 109.974 138.999C109.976 138.804 109.935 138.629 109.851 138.474C109.769 138.318 109.645 138.195 109.477 138.105C109.311 138.013 109.101 137.968 108.845 137.968H108.046C107.807 137.968 107.613 138.162 107.613 138.401V139.994Z" fill="#263238"/>
</g>
<g id="Group_6" opacity="0.1">
<path id="Vector_135" d="M91 116C89.4178 116 87.871 116.469 86.5554 117.348C85.2398 118.227 84.2145 119.477 83.609 120.939C83.0035 122.4 82.845 124.009 83.1537 125.561C83.4624 127.113 84.2243 128.538 85.3431 129.657C86.462 130.776 87.8874 131.538 89.4393 131.846C90.9911 132.155 92.5997 131.997 94.0615 131.391C95.5233 130.786 96.7727 129.76 97.6518 128.445C98.5308 127.129 99 125.582 99 124C99 121.878 98.1572 119.843 96.6569 118.343C95.1566 116.843 93.1217 116 91 116ZM91 130C89.8133 130 88.6533 129.648 87.6666 128.989C86.6799 128.33 85.9109 127.392 85.4567 126.296C85.0026 125.2 84.8838 123.993 85.1153 122.829C85.3468 121.666 85.9183 120.596 86.7574 119.757C87.5965 118.918 88.6656 118.347 89.8295 118.115C90.9933 117.884 92.1997 118.003 93.2961 118.457C94.3925 118.911 95.3295 119.68 95.9888 120.667C96.6481 121.653 97 122.813 97 124C97 125.591 96.3679 127.117 95.2426 128.243C94.1174 129.368 92.5913 130 91 130Z" fill="black"/>
<path id="Exclude_5" fill-rule="evenodd" clip-rule="evenodd" d="M90.9861 129.361C93.8626 129.361 96.1944 127.029 96.1944 124.153C96.1944 121.276 93.8626 118.944 90.9861 118.944C88.1096 118.944 85.7778 121.276 85.7778 124.153C85.7778 127.029 88.1096 129.361 90.9861 129.361ZM90.6128 124.925H91.8453C92.3257 124.925 92.7345 124.843 93.0717 124.681C93.409 124.516 93.6665 124.289 93.8444 124C94.0222 123.709 94.1111 123.373 94.1111 122.99C94.1111 122.622 94.0232 122.29 93.8474 121.995C93.6737 121.698 93.4182 121.463 93.0809 121.29C92.7437 121.115 92.3318 121.028 91.8453 121.028H89.9119C89.6725 121.028 89.4784 121.222 89.4784 121.461V123.994H88.9891C88.7496 123.994 88.5555 124.188 88.5555 124.428V124.491C88.5555 124.731 88.7496 124.925 88.9891 124.925H89.4784V125.389H88.9891C88.7496 125.389 88.5555 125.583 88.5555 125.822V125.886C88.5555 126.125 88.7496 126.32 88.9891 126.32H89.4784V126.844C89.4784 127.084 89.6725 127.278 89.9119 127.278H90.1793C90.4187 127.278 90.6128 127.084 90.6128 126.844V126.32H91.5559C91.7953 126.32 91.9894 126.125 91.9894 125.886V125.822C91.9894 125.583 91.7953 125.389 91.5559 125.389H90.6128V124.925ZM90.6128 123.994H91.8208C92.0845 123.994 92.3011 123.952 92.4708 123.869C92.6425 123.786 92.7692 123.67 92.851 123.521C92.9348 123.373 92.9757 123.199 92.9736 122.999C92.9757 122.804 92.9348 122.629 92.851 122.474C92.7692 122.318 92.6445 122.195 92.4769 122.105C92.3114 122.013 92.1008 121.968 91.8453 121.968H91.0463C90.8069 121.968 90.6128 122.162 90.6128 122.401V123.994Z" fill="#263238"/>
</g>
</g>
</svg>
