<svg width="126" height="90" viewBox="0 0 126 90" fill="none" xmlns="http://www.w3.org/2000/svg">
<g id="&#208;&#152;&#208;&#187;&#208;&#187;&#209;&#142;&#209;&#129;&#209;&#130;&#209;&#128;&#208;&#176;&#209;&#134;&#208;&#184;&#209;&#143;">
<g id="&#208;&#159;&#209;&#128;&#208;&#190;&#209;&#134;&#208;&#181;&#208;&#189;&#209;&#130;">
<g id="g7842">
<path id="path7844" d="M2.91406 89H102.914" stroke="#1A2E35" stroke-width="0.533333" stroke-miterlimit="10"/>
</g>
<g id="Group" opacity="0.1">
<path id="Vector" d="M11.52 0C9.24156 0 7.01429 0.675631 5.11983 1.94147C3.22538 3.2073 1.74884 5.00648 0.876915 7.11149C0.00499321 9.21649 -0.223144 11.5328 0.221358 13.7674C0.66586 16.0021 1.76303 18.0548 3.37413 19.6659C4.98523 21.277 7.03791 22.3741 9.27257 22.8186C11.5072 23.2631 13.8235 23.035 15.9285 22.1631C18.0335 21.2912 19.8327 19.8146 21.0985 17.9202C22.3644 16.0257 23.04 13.7984 23.04 11.52C23.04 8.46471 21.8263 5.53455 19.6659 3.37413C17.5055 1.21371 14.5753 0 11.52 0ZM11.52 20.16C9.81117 20.16 8.14071 19.6533 6.71987 18.7039C5.29903 17.7545 4.19163 16.4051 3.53769 14.8264C2.88375 13.2476 2.71264 11.5104 3.04602 9.83441C3.37939 8.15842 4.20228 6.61892 5.41061 5.4106C6.61893 4.20227 8.15843 3.37939 9.83442 3.04602C11.5104 2.71264 13.2476 2.88373 14.8264 3.53768C16.4051 4.19162 17.7545 5.29903 18.7039 6.71987C19.6533 8.14071 20.16 9.81117 20.16 11.52C20.16 13.8115 19.2497 16.0091 17.6294 17.6294C16.0091 19.2497 13.8115 20.16 11.52 20.16Z" fill="black"/>
<path id="Exclude" fill-rule="evenodd" clip-rule="evenodd" d="M11.5 19.2402C15.6421 19.2402 19 15.8824 19 11.7402C19 7.5981 15.6421 4.24023 11.5 4.24023C7.35786 4.24023 4 7.5981 4 11.7402C4 15.8824 7.35786 19.2402 11.5 19.2402ZM10.9625 12.8521H12.7373C13.429 12.8521 14.0177 12.7349 14.5033 12.5005C14.989 12.2632 15.3598 11.9365 15.6159 11.5205C15.872 11.1016 16 10.6167 16 10.0659C16 9.53564 15.8734 9.0581 15.6203 8.6333C15.3701 8.20557 15.0022 7.86719 14.5166 7.61816C14.0309 7.36621 13.4378 7.24023 12.7373 7.24023H9.95318C9.60841 7.24023 9.32892 7.51973 9.32892 7.8645V11.5117H8.62426C8.27949 11.5117 8 11.7912 8 12.136V12.2278C8 12.5726 8.27949 12.8521 8.62426 12.8521H9.32892V13.52H8.62426C8.27949 13.52 8 13.7995 8 14.1443V14.2361C8 14.5809 8.27949 14.8604 8.62426 14.8604H9.32892V15.616C9.32892 15.9607 9.60841 16.2402 9.95318 16.2402H10.3382C10.683 16.2402 10.9625 15.9607 10.9625 15.616V14.8604H12.3205C12.6653 14.8604 12.9448 14.5809 12.9448 14.2361V14.1443C12.9448 13.7995 12.6653 13.52 12.3205 13.52H10.9625V12.8521ZM10.9625 11.5117H12.702C13.0817 11.5117 13.3937 11.4517 13.638 11.3315C13.8852 11.2114 14.0677 11.0444 14.1854 10.8306C14.3061 10.6167 14.365 10.3662 14.362 10.0791C14.365 9.79785 14.3061 9.5459 14.1854 9.32324C14.0677 9.09766 13.8882 8.92041 13.6468 8.7915C13.4084 8.65967 13.1052 8.59375 12.7373 8.59375H11.5867C11.242 8.59375 10.9625 8.87324 10.9625 9.21801V11.5117Z" fill="#263238"/>
</g>
<g id="Group 4795">
<g id="g7854">
<path id="path7856" d="M2.68772 58.7612C3.87461 59.0615 6.64973 58.5701 6.65218 58.5695C6.68098 58.5639 5.87399 56.912 5.81088 56.8146C5.07436 55.6828 2.93589 53.9568 1.38626 54.4047C0.270448 54.727 -0.247321 55.9132 0.113585 56.8967C0.481232 57.9022 1.67792 58.5051 2.68772 58.7612Z" fill="#1C1B1F"/>
</g>
<g id="g7858">
<path id="path7860" d="M19.9733 87.6858C19.9905 87.7453 20.0064 87.801 20.0236 87.8598L21.1057 88.0964C21.0328 87.8611 20.9574 87.6221 20.8796 87.377C20.6584 86.6803 20.4078 85.942 20.1425 85.1865C20.3208 85.0872 21.33 84.5149 22.2092 83.8703C23.1069 84.5884 25.2871 85.2533 25.5695 85.3372C25.3551 86.0498 25.14 86.741 24.9255 87.3905C24.7797 87.8384 24.6351 88.2667 24.4942 88.6797L25.5463 88.5155C25.6388 88.2201 25.7319 87.9199 25.8275 87.6074C26.0475 86.8844 26.2687 86.1092 26.488 85.3115C26.7926 85.3243 29.2803 85.4218 30.3918 84.9984C31.3992 84.6142 32.591 83.8605 32.9519 82.809C33.3054 81.7802 32.7791 80.6608 31.6608 80.4794C30.1088 80.2276 27.9838 82.2233 27.2564 83.4481C27.2129 83.5204 26.8349 84.3495 26.6051 84.8752C26.6927 84.5492 26.7815 84.233 26.8679 83.896C27.0438 83.2306 27.1982 82.5633 27.3673 81.8458C27.4372 81.4965 27.507 81.1448 27.5775 80.7888C27.6553 80.4371 27.6921 80.0591 27.7515 79.6902C27.8716 78.8342 27.9501 77.9641 28.0083 77.0867C28.602 77.1982 30.7166 77.5634 31.7687 77.3275C32.8159 77.0928 34.1002 76.5156 34.6179 75.5193C35.1253 74.5444 34.7858 73.3502 33.7197 73.0046C32.2393 72.5254 29.8459 74.2043 28.9421 75.3195C28.8851 75.3888 28.3251 76.2546 28.026 76.735C28.0573 76.2074 28.091 75.681 28.1051 75.1473C28.1449 73.6069 28.1351 72.0499 28.1333 70.496C28.132 70.0199 28.1376 69.5457 28.1406 69.0702C28.3514 69.1125 30.852 69.6002 32.0303 69.3361C33.0775 69.1014 34.3612 68.5236 34.8796 67.5279C35.3863 66.5531 35.0475 65.3588 33.9807 65.0133C32.5003 64.5347 30.1075 66.213 29.2031 67.3282C29.1351 67.4121 28.3306 68.6584 28.1412 68.9844C28.1486 67.9379 28.1657 66.8944 28.2264 65.8643C28.3079 64.4428 28.4678 63.0476 28.7264 61.7014C28.8244 61.721 31.4311 62.2418 32.6382 61.971C33.6853 61.7357 34.9697 61.1585 35.4874 60.1628C35.9942 59.1879 35.6553 57.9937 34.5891 57.6487C33.1087 57.169 30.7154 58.8485 29.811 59.9631C29.7399 60.0501 28.8747 61.392 28.7356 61.6444C28.7509 61.5641 28.7583 61.4802 28.7748 61.4012C29.0695 59.9655 29.5383 58.5991 30.042 57.3381C30.3324 56.604 30.6523 55.9159 30.9776 55.2523C31.4494 55.3988 33.6167 56.0415 34.7227 55.9128C35.7834 55.7897 37.1173 55.3485 37.7411 54.4067C38.3526 53.4858 38.1529 52.2542 37.14 51.7952C35.7325 51.158 33.1804 52.5832 32.1608 53.6022C32.1051 53.658 31.6026 54.2781 31.2423 54.7346C31.3943 54.4368 31.545 54.1273 31.6958 53.8449C32.2601 52.7824 32.8422 51.8394 33.3649 51.0079C33.6657 50.5373 33.947 50.1169 34.2147 49.7254C34.7699 49.6298 37.0058 49.2162 37.9408 48.6213C38.8532 48.041 39.8643 47.0661 39.9874 45.9785C40.1081 44.913 39.3385 43.9442 38.1915 44.003C36.5996 44.0851 34.9402 46.4503 34.4917 47.7824C34.4537 47.897 34.0573 49.7524 34.0861 49.7475C34.0861 49.7475 34.113 49.7426 34.1198 49.7413C33.8545 50.1133 33.5757 50.5146 33.2791 50.9582C32.7368 51.7811 32.1326 52.7162 31.5432 53.7719C30.9513 54.8258 30.3373 55.9858 29.8018 57.2566C29.2626 58.5299 28.7619 59.892 28.4292 61.3491C28.4249 61.3656 28.4231 61.3828 28.4194 61.3999C28.382 60.952 28.2331 59.7075 28.2099 59.6138C27.89 58.2933 26.4562 55.9729 24.8692 55.938C23.7264 55.9135 22.8624 56.9067 22.8802 57.9698C22.8992 59.055 23.8177 60.0017 24.6762 60.5562C25.6431 61.1806 28.1866 61.536 28.3894 61.5641C28.0855 62.9538 27.8888 64.3968 27.7724 65.8631C27.7043 66.7007 27.6633 67.5457 27.6333 68.3925C27.5879 68.0071 27.5438 67.6633 27.5322 67.6162C27.2117 66.2963 25.7785 63.9765 24.1915 63.9416C23.0481 63.9164 22.1841 64.9091 22.2025 65.9722C22.2215 67.058 23.14 68.0046 23.9972 68.5586C24.8679 69.1204 27.0279 69.4673 27.6008 69.5506C27.5934 69.8759 27.5812 70.2001 27.5744 70.5242C27.5414 72.0824 27.5156 73.6363 27.4415 75.1633C27.4157 75.7006 27.3704 76.2313 27.3263 76.7613C27.2858 76.4194 27.2485 76.1326 27.238 76.0891C26.9176 74.7687 25.4838 72.4488 23.8974 72.4139C22.754 72.3894 21.89 73.382 21.9078 74.4458C21.9268 75.5303 22.8453 76.4776 23.7037 77.0309C24.534 77.5677 26.5236 77.9047 27.2043 78.0076C27.1425 78.5511 27.0818 79.0946 26.9966 79.6197C26.9304 79.977 26.8918 80.3238 26.8048 80.681C26.7264 81.0352 26.6492 81.3869 26.572 81.7343C26.398 82.4003 26.2233 83.0878 26.0377 83.7343C25.9115 84.1846 25.7834 84.6117 25.6553 85.0425C25.6872 84.5069 25.7276 83.4585 25.7209 83.3709C25.6498 82.4647 25.1651 81.048 24.3943 80.1185C24.3845 79.9849 24.363 79.8532 24.3269 79.7245C24.0463 78.7123 22.9513 78.0983 21.8765 78.5523C20.3857 79.1816 19.6798 81.9157 19.7472 83.2845C19.7515 83.3654 19.8955 84.2306 19.996 84.7753C19.8857 84.4671 19.7828 84.1669 19.6657 83.8507C19.4384 83.2257 19.1915 82.6087 18.9292 81.9432C18.7901 81.6271 18.6504 81.3084 18.5083 80.9855C18.3759 80.6626 18.1915 80.3409 18.0328 80.0137C17.648 79.2656 17.2191 78.5272 16.7693 77.7932C17.349 77.5646 19.3937 76.7251 20.1719 75.9733C20.947 75.2245 21.7325 74.0751 21.6143 73.0015C21.4979 71.9495 20.5224 71.1762 19.3992 71.4709C17.8404 71.8802 16.7203 74.504 16.5714 75.8802C16.5628 75.966 16.5696 76.958 16.5843 77.5027C16.3104 77.064 16.0395 76.6247 15.7472 76.1908C14.9029 74.9372 14.0064 73.697 13.118 72.455C12.8453 72.0745 12.5794 71.6921 12.3104 71.3104C12.5175 71.2313 14.9672 70.2834 15.8392 69.4409C16.6143 68.6928 17.3998 67.5426 17.2809 66.4691C17.1651 65.4177 16.189 64.6444 15.0659 64.9391C13.5071 65.3478 12.3876 67.9716 12.2387 69.3478C12.2276 69.4519 12.2399 70.879 12.2613 71.2411C11.6707 70.4005 11.091 69.5567 10.5555 68.7007C9.81466 67.52 9.15841 66.3178 8.61368 65.1027C8.71049 65.0653 11.2712 64.0862 12.1639 63.2241C12.9397 62.4753 13.7246 61.3258 13.6057 60.2523C13.4899 59.2008 12.5138 58.4269 11.3906 58.7216C9.83182 59.131 8.71294 61.7553 8.56405 63.1315C8.55179 63.2394 8.5665 64.7749 8.58978 65.0525C8.55731 64.9795 8.51564 64.9085 8.48378 64.8362C7.92067 63.5298 7.54934 62.1867 7.26564 60.9079C7.09959 60.1653 6.98439 59.4441 6.88881 58.7394C7.38206 58.6028 9.63022 57.9576 10.5175 57.2621C11.368 56.5954 12.2736 55.5287 12.2785 54.4417C12.2834 53.3773 11.4078 52.4987 10.2656 52.6739C8.68047 52.9178 7.27729 55.4245 6.97398 56.7854C6.95743 56.8595 6.87471 57.6248 6.82263 58.183C6.78464 57.8632 6.73868 57.5354 6.70927 57.2284C6.59285 56.0765 6.55976 55.0103 6.53893 54.0654C6.53158 53.5275 6.53587 53.0403 6.54567 52.5851C6.97275 52.2107 8.67741 50.6825 9.15044 49.707C9.61123 48.7542 9.93231 47.4325 9.41883 46.4963C8.91638 45.5796 7.69518 45.2169 6.73317 45.8786C5.39677 46.7965 5.30609 49.5771 5.6768 50.8823C5.70927 50.9944 6.42373 52.6898 6.4464 52.6708C6.4464 52.6708 6.46724 52.6525 6.47214 52.6482C6.45437 53.0869 6.44028 53.5581 6.43599 54.0722C6.43537 55.0201 6.44395 56.0912 6.53464 57.2517C6.62226 58.4122 6.75094 59.6677 7.01135 60.971C7.27055 62.278 7.61184 63.6364 8.15474 64.9795C8.16086 64.9949 8.16883 65.0102 8.17557 65.0255C7.88697 64.6879 7.04751 63.7718 6.97459 63.7087C5.94334 62.8245 3.3741 61.7357 1.97705 62.5574C0.969695 63.1499 0.786485 64.4066 1.40903 65.2473C2.04445 66.1052 3.38268 66.3711 4.44334 66.3545C5.64003 66.3368 8.05179 65.2596 8.24297 65.1732C8.77238 66.4477 9.42495 67.7075 10.1602 68.9421C10.5794 69.6486 11.0254 70.3459 11.4832 71.0395C11.2234 70.7565 10.9893 70.5046 10.9525 70.4728C9.92066 69.5886 7.35204 68.5003 5.95498 69.322C4.94824 69.9139 4.76442 71.1713 5.38636 72.0113C6.02177 72.8698 7.36062 73.1351 8.42128 73.1192C9.49787 73.1032 11.5702 72.2234 12.1161 71.9838C12.2944 72.2479 12.4691 72.5132 12.6486 72.7767C13.5089 74.0401 14.3729 75.2975 15.1805 76.5585C15.4654 77.0021 15.727 77.4506 15.9923 77.8985C15.762 77.6467 15.5659 77.4365 15.5316 77.4084C14.4997 76.5236 11.9317 75.4353 10.534 76.2576C9.52728 76.8489 9.34346 78.1056 9.96601 78.9463C10.602 79.8048 11.9397 80.0701 13.0009 80.0542C14.0285 80.0388 15.9476 79.2429 16.5971 78.961C16.8533 79.4279 17.1106 79.8961 17.3367 80.3611C17.4838 80.6828 17.6486 80.9812 17.776 81.3133C17.9102 81.6387 18.0432 81.961 18.1743 82.2809C18.4035 82.9058 18.6443 83.5498 18.852 84.1663C18.9997 84.5933 19.132 85.0039 19.2669 85.4175C18.9893 84.9714 18.4256 84.1117 18.3698 84.0455C17.4985 83.0112 15.1541 81.5474 13.6566 82.162C12.5781 82.605 12.2013 83.8323 12.6799 84.7624C13.1676 85.7116 14.4354 86.1736 15.477 86.3139C16.6235 86.4677 19.0567 85.7857 19.36 85.6993C19.5806 86.3838 19.7877 87.0516 19.9733 87.6858Z" fill="#1C1B1F"/>
</g>
<g id="g7862">
<path id="path7864" d="M30.8845 54.9785C30.9108 54.9895 31.2074 53.1231 31.2129 53.0042C31.2693 51.6274 30.5438 48.9847 29.0487 48.5435C27.9715 48.2255 26.8814 48.9785 26.6081 50.0257C26.3293 51.0949 26.9421 52.2597 27.6038 53.0232C28.3814 53.919 30.8826 54.9772 30.8845 54.9785Z" fill="#1C1B1F"/>
</g>
</g>
<g id="g1177">
<path id="path1179" d="M80.1113 79.8824C81.8102 79.8824 83.0675 79.4261 83.8859 78.5099C84.702 77.5951 85.2244 76.3208 85.4544 74.6863C85.6825 73.0535 85.7973 71.1907 85.7973 69.0981V64.3922C85.7973 61.1248 85.5035 58.5928 84.915 56.7944C84.3265 54.9973 82.7246 54.0981 80.1113 54.0981C77.5619 54.0981 75.9939 55.0143 75.4054 56.8431C74.817 58.6741 74.5232 61.1905 74.5232 64.3922V69.0981C74.5232 71.2551 74.6531 73.1347 74.9152 74.7354C75.1755 76.3378 75.6992 77.5951 76.4837 78.5099C77.2681 79.4261 78.4768 79.8824 80.1113 79.8824ZM80.1113 89C74.033 89 69.7021 87.3011 67.121 83.9021C64.5382 80.5048 63.2483 75.6024 63.2483 69.1959V64.3922C63.2483 57.9218 64.5064 53.0686 67.0232 49.8334C69.5383 46.5982 73.9008 44.9806 80.1113 44.9806C86.3857 44.9806 90.7974 46.549 93.3463 49.6865C95.8953 52.8234 97.17 57.6271 97.17 64.098V69.3923C97.17 75.7984 95.8618 80.6664 93.2485 83.9999C90.6335 87.3333 86.254 89 80.1113 89ZM38.5427 88.7062L61.7775 9.29379H70.6995L47.5621 88.7062H38.5427ZM29.0327 43.9019C30.7316 43.9019 31.9737 43.4455 32.7582 42.5294C33.5426 41.615 34.065 40.3238 34.3271 38.657C34.5874 36.9903 34.7191 35.112 34.7191 33.0198V28.4116C34.7191 25.1443 34.4249 22.6123 33.8368 20.8139C33.2484 19.0168 31.646 18.1176 29.0327 18.1176C26.4838 18.1176 24.9149 19.0168 24.3268 20.8139C23.7388 22.6123 23.4446 25.1443 23.4446 28.4116V33.118C23.4446 35.2102 23.575 37.0729 23.8366 38.7061C24.0969 40.3403 24.6211 41.615 25.4051 42.5294C26.19 43.4455 27.3982 43.9019 29.0327 43.9019ZM29.0327 52.9217C22.9544 52.9217 18.607 51.2228 15.9937 47.8237C13.3787 44.426 12.0719 39.5562 12.0719 33.2153V28.3139C12.0719 21.843 13.3466 17.0072 15.8955 13.8037C18.4445 10.602 22.8227 9 29.0327 9C35.2415 9 39.6362 10.5533 42.2191 13.6568C44.8002 16.762 46.0914 21.5492 46.0914 28.0196V33.4118C46.0914 39.7522 44.7837 44.5885 42.1699 47.922C39.5549 51.2549 35.1754 52.9217 29.0327 52.9217Z" fill="#233239"/>
</g>
<g id="g1181">
<path id="path1183" d="M80.1113 79.8824C81.8102 79.8824 83.0675 79.4261 83.8859 78.5099C84.702 77.5951 85.2244 76.3208 85.4544 74.6863C85.6825 73.0535 85.7973 71.1907 85.7973 69.0981V64.3922C85.7973 61.1248 85.5035 58.5928 84.915 56.7944C84.3265 54.9973 82.7246 54.0981 80.1113 54.0981C77.5619 54.0981 75.9939 55.0143 75.4054 56.8431C74.817 58.6741 74.5232 61.1905 74.5232 64.3922V69.0981C74.5232 71.2551 74.6531 73.1347 74.9152 74.7354C75.1755 76.3378 75.6992 77.5951 76.4837 78.5099C77.2681 79.4261 78.4768 79.8824 80.1113 79.8824ZM80.1113 89C74.033 89 69.7021 87.3011 67.121 83.9021C64.5382 80.5048 63.2483 75.6024 63.2483 69.1959V64.3922C63.2483 57.9218 64.5064 53.0686 67.0232 49.8334C69.5383 46.5982 73.9008 44.9806 80.1113 44.9806C86.3857 44.9806 90.7974 46.549 93.3463 49.6865C95.8953 52.8234 97.17 57.6271 97.17 64.098V69.3923C97.17 75.7984 95.8618 80.6664 93.2485 83.9999C90.6335 87.3333 86.254 89 80.1113 89ZM38.5427 88.7062L61.7775 9.29379H70.6995L47.5621 88.7062H38.5427ZM29.0327 43.9019C30.7316 43.9019 31.9737 43.4455 32.7582 42.5294C33.5426 41.615 34.065 40.3238 34.3271 38.657C34.5874 36.9903 34.7191 35.112 34.7191 33.0198V28.4116C34.7191 25.1443 34.4249 22.6123 33.8368 20.8139C33.2484 19.0168 31.646 18.1176 29.0327 18.1176C26.4838 18.1176 24.9149 19.0168 24.3268 20.8139C23.7388 22.6123 23.4446 25.1443 23.4446 28.4116V33.118C23.4446 35.2102 23.575 37.0729 23.8366 38.7061C24.0969 40.3403 24.6211 41.615 25.4051 42.5294C26.19 43.4455 27.3982 43.9019 29.0327 43.9019ZM29.0327 52.9217C22.9544 52.9217 18.607 51.2228 15.9937 47.8237C13.3787 44.426 12.0719 39.5562 12.0719 33.2153V28.3139C12.0719 21.843 13.3466 17.0072 15.8955 13.8037C18.4445 10.602 22.8227 9 29.0327 9C35.2415 9 39.6362 10.5533 42.2191 13.6568C44.8002 16.762 46.0914 21.5492 46.0914 28.0196V33.4118C46.0914 39.7522 44.7837 44.5885 42.1699 47.922C39.5549 51.2549 35.1754 52.9217 29.0327 52.9217Z" stroke="#233239" stroke-width="0.434605" stroke-miterlimit="10"/>
</g>
<g id="g1185">
<path id="path1187" d="M77.0394 79.8824C78.7383 79.8824 79.9956 79.4261 80.814 78.5099C81.6302 77.5951 82.1526 76.3208 82.3825 74.6863C82.6106 73.0535 82.7254 71.1907 82.7254 69.0981V64.3922C82.7254 61.1248 82.4316 58.5928 81.8431 56.7944C81.2547 54.9973 79.6527 54.0981 77.0394 54.0981C74.4901 54.0981 72.922 55.0143 72.3336 56.8431C71.7451 58.6741 71.4513 61.1905 71.4513 64.3922V69.0981C71.4513 71.2551 71.5813 73.1347 71.8433 74.7354C72.1037 76.3378 72.6273 77.5951 73.4118 78.5099C74.1963 79.4261 75.4049 79.8824 77.0394 79.8824ZM77.0394 89C70.9611 89 66.6302 87.3011 64.0491 83.9021C61.4663 80.5048 60.1764 75.6024 60.1764 69.1959V64.3922C60.1764 57.9218 61.4346 53.0686 63.9513 49.8334C66.4664 46.5982 70.829 44.9806 77.0394 44.9806C83.3138 44.9806 87.7255 46.549 90.2745 49.6865C92.8234 52.8234 94.0981 57.6271 94.0981 64.098V69.3923C94.0981 75.7984 92.7899 80.6664 90.1767 83.9999C87.5616 87.3333 83.1821 89 77.0394 89ZM35.4709 88.7062L58.7057 9.29379H67.6277L44.4902 88.7062H35.4709ZM25.9609 43.9019C27.6597 43.9019 28.9023 43.4455 29.6863 42.5294C30.4707 41.615 30.9931 40.3238 31.2552 38.657C31.5155 36.9903 31.6472 35.112 31.6472 33.0198V28.4116C31.6472 25.1443 31.353 22.6123 30.765 20.8139C30.1765 19.0168 28.5741 18.1176 25.9609 18.1176C23.4119 18.1176 21.843 19.0168 21.255 20.8139C20.6669 22.6123 20.3727 25.1443 20.3727 28.4116V33.118C20.3727 35.2102 20.5031 37.0729 20.7647 38.7061C21.0251 40.3403 21.5492 41.615 22.3332 42.5294C23.1181 43.4455 24.3267 43.9019 25.9609 43.9019ZM25.9609 52.9217C19.8825 52.9217 15.5351 51.2228 12.9219 47.8237C10.3068 44.426 9 39.5562 9 33.2153V28.3139C9 21.843 10.2747 17.0072 12.8236 13.8037C15.3726 10.602 19.7508 9 25.9609 9C32.1696 9 36.5643 10.5533 39.1472 13.6568C41.7283 16.762 43.0195 21.5492 43.0195 28.0196V33.4118C43.0195 39.7522 41.7118 44.5885 39.0981 47.922C36.4831 51.2549 32.1036 52.9217 25.9609 52.9217Z" fill="white"/>
</g>
<g id="g1189">
<path id="path1191" d="M77.0394 79.8824C78.7383 79.8824 79.9956 79.4261 80.814 78.5099C81.6302 77.5951 82.1526 76.3208 82.3825 74.6863C82.6106 73.0535 82.7254 71.1907 82.7254 69.0981V64.3922C82.7254 61.1248 82.4316 58.5928 81.8431 56.7944C81.2547 54.9973 79.6527 54.0981 77.0394 54.0981C74.4901 54.0981 72.922 55.0143 72.3336 56.8431C71.7451 58.6741 71.4513 61.1905 71.4513 64.3922V69.0981C71.4513 71.2551 71.5813 73.1347 71.8433 74.7354C72.1037 76.3378 72.6273 77.5951 73.4118 78.5099C74.1963 79.4261 75.4049 79.8824 77.0394 79.8824ZM77.0394 89C70.9611 89 66.6302 87.3011 64.0491 83.9021C61.4663 80.5048 60.1764 75.6024 60.1764 69.1959V64.3922C60.1764 57.9218 61.4346 53.0686 63.9513 49.8334C66.4664 46.5982 70.829 44.9806 77.0394 44.9806C83.3138 44.9806 87.7255 46.549 90.2744 49.6865C92.8234 52.8234 94.0981 57.6271 94.0981 64.098V69.3923C94.0981 75.7984 92.7899 80.6664 90.1767 83.9999C87.5616 87.3333 83.1821 89 77.0394 89ZM35.4709 88.7062L58.7057 9.29379H67.6277L44.4902 88.7062H35.4709ZM25.9609 43.9019C27.6597 43.9019 28.9023 43.4455 29.6863 42.5294C30.4707 41.615 30.9931 40.3238 31.2552 38.657C31.5155 36.9903 31.6472 35.112 31.6472 33.0198V28.4116C31.6472 25.1443 31.353 22.6123 30.765 20.8139C30.1765 19.0168 28.5741 18.1176 25.9609 18.1176C23.4119 18.1176 21.843 19.0168 21.255 20.8139C20.6669 22.6123 20.3727 25.1443 20.3727 28.4116V33.118C20.3727 35.2102 20.5031 37.0729 20.7647 38.7061C21.0251 40.3403 21.5492 41.615 22.3332 42.5294C23.1181 43.4455 24.3267 43.9019 25.9609 43.9019ZM25.9609 52.9217C19.8825 52.9217 15.5351 51.2228 12.9219 47.8237C10.3068 44.426 9 39.5562 9 33.2153V28.3139C9 21.843 10.2747 17.0072 12.8236 13.8037C15.3726 10.602 19.7508 9 25.9609 9C32.1696 9 36.5643 10.5533 39.1472 13.6568C41.7283 16.762 43.0195 21.5492 43.0195 28.0196V33.4118C43.0195 39.7522 41.7118 44.5885 39.0981 47.922C36.4831 51.2549 32.1036 52.9217 25.9609 52.9217Z" stroke="#233239" stroke-width="0.434605" stroke-miterlimit="10"/>
</g>
<g id="Group_2" opacity="0.1">
<path id="Vector_2" d="M113.52 47C111.242 47 109.014 47.6756 107.12 48.9415C105.225 50.2073 103.749 52.0065 102.877 54.1115C102.005 56.2165 101.777 58.5328 102.221 60.7674C102.666 63.0021 103.763 65.0548 105.374 66.6659C106.985 68.277 109.038 69.3741 111.273 69.8186C113.507 70.2631 115.824 70.035 117.929 69.1631C120.034 68.2912 121.833 66.8146 123.099 64.9202C124.364 63.0257 125.04 60.7984 125.04 58.52C125.04 55.4647 123.826 52.5346 121.666 50.3741C119.505 48.2137 116.575 47 113.52 47ZM113.52 67.16C111.811 67.16 110.141 66.6533 108.72 65.7039C107.299 64.7545 106.192 63.4051 105.538 61.8264C104.884 60.2476 104.713 58.5104 105.046 56.8344C105.379 55.1584 106.202 53.6189 107.411 52.4106C108.619 51.2023 110.158 50.3794 111.834 50.046C113.51 49.7126 115.248 49.8837 116.826 50.5377C118.405 51.1916 119.755 52.299 120.704 53.7199C121.653 55.1407 122.16 56.8112 122.16 58.52C122.16 60.8115 121.25 63.0091 119.629 64.6294C118.009 66.2497 115.811 67.16 113.52 67.16Z" fill="black"/>
<path id="Exclude_2" fill-rule="evenodd" clip-rule="evenodd" d="M113.5 66.2402C117.642 66.2402 121 62.8824 121 58.7402C121 54.5981 117.642 51.2402 113.5 51.2402C109.358 51.2402 106 54.5981 106 58.7402C106 62.8824 109.358 66.2402 113.5 66.2402ZM112.962 59.8521H114.737C115.429 59.8521 116.018 59.7349 116.503 59.5005C116.989 59.2632 117.36 58.9365 117.616 58.5205C117.872 58.1016 118 57.6167 118 57.0659C118 56.5356 117.873 56.0581 117.62 55.6333C117.37 55.2056 117.002 54.8672 116.517 54.6182C116.031 54.3662 115.438 54.2402 114.737 54.2402H111.953C111.608 54.2402 111.329 54.5197 111.329 54.8645V58.5117H110.624C110.279 58.5117 110 58.7912 110 59.136V59.2278C110 59.5726 110.279 59.8521 110.624 59.8521H111.329V60.52H110.624C110.279 60.52 110 60.7995 110 61.1443V61.2361C110 61.5809 110.279 61.8604 110.624 61.8604H111.329V62.616C111.329 62.9607 111.608 63.2402 111.953 63.2402H112.338C112.683 63.2402 112.962 62.9607 112.962 62.616V61.8604H114.321C114.665 61.8604 114.945 61.5809 114.945 61.2361V61.1443C114.945 60.7995 114.665 60.52 114.321 60.52H112.962V59.8521ZM112.962 58.5117H114.702C115.082 58.5117 115.394 58.4517 115.638 58.3315C115.885 58.2114 116.068 58.0444 116.185 57.8306C116.306 57.6167 116.365 57.3662 116.362 57.0791C116.365 56.7979 116.306 56.5459 116.185 56.3232C116.068 56.0977 115.888 55.9204 115.647 55.7915C115.408 55.6597 115.105 55.5938 114.737 55.5938H113.587C113.242 55.5938 112.962 55.8732 112.962 56.218V58.5117Z" fill="#263238"/>
</g>
<g id="Group_3" opacity="0.1">
<path id="Vector_3" d="M105 15C103.418 15 101.871 15.4692 100.555 16.3482C99.2398 17.2273 98.2145 18.4767 97.609 19.9385C97.0035 21.4003 96.845 23.0089 97.1537 24.5607C97.4624 26.1126 98.2243 27.538 99.3431 28.6569C100.462 29.7757 101.887 30.5376 103.439 30.8463C104.991 31.155 106.6 30.9965 108.061 30.391C109.523 29.7855 110.773 28.7602 111.652 27.4446C112.531 26.129 113 24.5823 113 23C113 20.8783 112.157 18.8434 110.657 17.3431C109.157 15.8429 107.122 15 105 15ZM105 29C103.813 29 102.653 28.6481 101.667 27.9888C100.68 27.3295 99.9109 26.3925 99.4567 25.2961C99.0026 24.1997 98.8838 22.9933 99.1153 21.8295C99.3468 20.6656 99.9183 19.5965 100.757 18.7574C101.596 17.9182 102.666 17.3468 103.829 17.1153C104.993 16.8838 106.2 17.0026 107.296 17.4567C108.392 17.9108 109.33 18.6799 109.989 19.6666C110.648 20.6533 111 21.8133 111 23C111 24.5913 110.368 26.1174 109.243 27.2426C108.117 28.3679 106.591 29 105 29Z" fill="black"/>
<path id="Exclude_3" fill-rule="evenodd" clip-rule="evenodd" d="M104.986 28.361C107.863 28.361 110.194 26.0292 110.194 23.1527C110.194 20.2762 107.863 17.9443 104.986 17.9443C102.11 17.9443 99.7778 20.2762 99.7778 23.1527C99.7778 26.0292 102.11 28.361 104.986 28.361ZM104.613 23.9247H105.845C106.326 23.9247 106.734 23.8434 107.072 23.6806C107.409 23.5158 107.667 23.289 107.844 23.0001C108.022 22.7091 108.111 22.3724 108.111 21.9899C108.111 21.6217 108.023 21.2901 107.847 20.9951C107.674 20.698 107.418 20.463 107.081 20.2901C106.744 20.1151 106.332 20.0276 105.845 20.0276H103.912C103.672 20.0276 103.478 20.2217 103.478 20.4612V22.994H102.989C102.75 22.994 102.556 23.188 102.556 23.4275V23.4912C102.556 23.7307 102.75 23.9247 102.989 23.9247H103.478V24.3886H102.989C102.75 24.3886 102.556 24.5827 102.556 24.8221V24.8859C102.556 25.1253 102.75 25.3194 102.989 25.3194H103.478V25.8441C103.478 26.0836 103.672 26.2776 103.912 26.2776H104.179C104.419 26.2776 104.613 26.0836 104.613 25.8441V25.3194H105.556C105.795 25.3194 105.989 25.1253 105.989 24.8859V24.8221C105.989 24.5827 105.795 24.3886 105.556 24.3886H104.613V23.9247ZM104.613 22.994H105.821C106.084 22.994 106.301 22.9522 106.471 22.8688C106.642 22.7854 106.769 22.6695 106.851 22.5209C106.935 22.3724 106.976 22.1985 106.974 21.9991C106.976 21.8038 106.935 21.6288 106.851 21.4742C106.769 21.3175 106.645 21.1944 106.477 21.1049C106.311 21.0134 106.101 20.9676 105.845 20.9676H105.046C104.807 20.9676 104.613 21.1617 104.613 21.4011V22.994Z" fill="#263238"/>
</g>
<g id="Group_4" opacity="0.1">
<path id="Vector_4" d="M83 22C81.4178 22 79.871 22.4692 78.5554 23.3482C77.2398 24.2273 76.2145 25.4767 75.609 26.9385C75.0035 28.4003 74.845 30.0089 75.1537 31.5607C75.4624 33.1126 76.2243 34.538 77.3431 35.6569C78.462 36.7757 79.8874 37.5376 81.4393 37.8463C82.9911 38.155 84.5997 37.9965 86.0615 37.391C87.5233 36.7855 88.7727 35.7602 89.6518 34.4446C90.5308 33.129 91 31.5823 91 30C91 27.8783 90.1572 25.8434 88.6569 24.3431C87.1566 22.8429 85.1217 22 83 22ZM83 36C81.8133 36 80.6533 35.6481 79.6666 34.9888C78.6799 34.3295 77.9109 33.3925 77.4567 32.2961C77.0026 31.1997 76.8838 29.9933 77.1153 28.8295C77.3468 27.6656 77.9183 26.5965 78.7574 25.7574C79.5965 24.9182 80.6656 24.3468 81.8295 24.1153C82.9933 23.8838 84.1997 24.0026 85.2961 24.4567C86.3925 24.9108 87.3295 25.6799 87.9888 26.6666C88.6481 27.6533 89 28.8133 89 30C89 31.5913 88.3679 33.1174 87.2426 34.2426C86.1174 35.3679 84.5913 36 83 36Z" fill="black"/>
<path id="Exclude_4" fill-rule="evenodd" clip-rule="evenodd" d="M82.9861 35.361C85.8626 35.361 88.1944 33.0292 88.1944 30.1527C88.1944 27.2762 85.8626 24.9443 82.9861 24.9443C80.1096 24.9443 77.7778 27.2762 77.7778 30.1527C77.7778 33.0292 80.1096 35.361 82.9861 35.361ZM82.6128 30.9247H83.8453C84.3257 30.9247 84.7345 30.8434 85.0717 30.6806C85.409 30.5158 85.6665 30.289 85.8443 30.0001C86.0222 29.7091 86.1111 29.3724 86.1111 28.9899C86.1111 28.6217 86.0232 28.2901 85.8474 27.9951C85.6737 27.698 85.4182 27.463 85.0809 27.2901C84.7436 27.1151 84.3318 27.0276 83.8453 27.0276H81.9119C81.6725 27.0276 81.4784 27.2217 81.4784 27.4612V29.994H80.989C80.7496 29.994 80.5555 30.188 80.5555 30.4275V30.4912C80.5555 30.7307 80.7496 30.9247 80.989 30.9247H81.4784V31.3886H80.989C80.7496 31.3886 80.5555 31.5827 80.5555 31.8221V31.8859C80.5555 32.1253 80.7496 32.3194 80.989 32.3194H81.4784V32.8441C81.4784 33.0836 81.6725 33.2776 81.9119 33.2776H82.1793C82.4187 33.2776 82.6128 33.0836 82.6128 32.8441V32.3194H83.5559C83.7953 32.3194 83.9894 32.1253 83.9894 31.8859V31.8221C83.9894 31.5827 83.7953 31.3886 83.5559 31.3886H82.6128V30.9247ZM82.6128 29.994H83.8208C84.0845 29.994 84.3011 29.9522 84.4708 29.8688C84.6425 29.7854 84.7692 29.6695 84.851 29.5209C84.9348 29.3724 84.9756 29.1985 84.9736 28.9991C84.9756 28.8038 84.9348 28.6288 84.851 28.4742C84.7692 28.3175 84.6445 28.1944 84.4769 28.1049C84.3113 28.0134 84.1008 27.9676 83.8453 27.9676H83.0463C82.8069 27.9676 82.6128 28.1617 82.6128 28.4011V29.994Z" fill="#263238"/>
</g>
</g>
</g>
</svg>
