<svg width="210" height="140" viewBox="0 0 210 140" fill="none" xmlns="http://www.w3.org/2000/svg">
<g id="Money income-bro 1">
<g id="freepik--background-simple--inject-9">
<path id="Vector" d="M194.166 60.0041C192.861 57.3044 190.943 54.9468 188.566 53.1189C178.525 45.2957 131.536 9.65446 108.416 8.91526C82.4433 8.07526 -2.53953 105.328 5.35647 114.475C13.2525 123.623 110.916 137.329 122.338 134.635C133.759 131.942 187.578 80.2761 192.567 74.3793C196.958 69.1909 195.98 63.8401 194.166 60.0041Z" fill="#599BFE"/>
<path id="Vector_2" opacity="0.7" d="M194.166 60.0041C192.861 57.3044 190.943 54.9468 188.566 53.1189C178.525 45.2957 131.536 9.65446 108.416 8.91526C82.4433 8.07526 -2.53953 105.328 5.35647 114.475C13.2525 123.623 110.916 137.329 122.338 134.635C133.759 131.942 187.578 80.2761 192.567 74.3793C196.958 69.1909 195.98 63.8401 194.166 60.0041Z" fill="white"/>
</g>
<g id="freepik--Clouds--inject-9">
<path id="Vector_3" opacity="0.3" d="M185.296 39.0432C185.296 39.0432 183.425 29.9012 177.19 30.5256C174.356 30.8056 172.46 32.228 170.817 34.4456C168.708 37.2764 167.952 35.63 164.937 36.5596C162.238 37.3996 162.652 39.676 160.989 40.0904C159.326 40.5048 158.082 38.6372 155.795 39.0516C153.507 39.466 152.264 41.7536 152.264 41.7536H193.813C193.705 40.9764 193.372 40.2478 192.855 39.6573C192.338 39.0668 191.66 38.6403 190.904 38.43C188.205 37.59 186.956 39.6676 185.296 39.0432Z" stroke="black" stroke-width="0.28" stroke-miterlimit="10"/>
<path id="Vector_4" opacity="0.3" d="M58.0384 19.7317C58.0384 19.7317 56.7616 13.4821 52.5 13.9105C50.5624 14.1037 49.2688 15.0753 48.146 16.5817C46.704 18.5165 46.186 17.3909 44.1252 18.0265C42.28 18.5949 42.56 20.1601 41.44 20.4401C40.32 20.7201 39.452 19.4461 37.8924 19.7317C36.3328 20.0173 35.4788 21.5769 35.4788 21.5769H63.8596C63.7842 21.0492 63.5569 20.5548 63.2054 20.1541C62.8539 19.7534 62.3934 19.4636 61.88 19.3201C60.0264 18.7377 59.1752 20.1601 58.0384 19.7317Z" stroke="black" stroke-width="0.28" stroke-miterlimit="10"/>
</g>
<g id="freepik--Money--inject-9">
<g id="Group" opacity="0.3">
<path id="Vector_5" d="M144.123 11.6811L138.355 23.7957L159.328 33.7813L165.096 21.6667L144.123 11.6811Z" stroke="black" stroke-width="0.28" stroke-miterlimit="10"/>
<path id="Vector_6" d="M146.569 14.28C146.384 14.6671 146.053 14.965 145.649 15.1083C145.245 15.2517 144.8 15.2287 144.413 15.0444C144.352 15.0162 144.293 14.9834 144.237 14.9464L140.924 21.91C140.988 21.9301 141.051 21.9544 141.112 21.9828C141.499 22.1681 141.797 22.4994 141.94 22.9041C142.084 23.3088 142.061 23.7539 141.876 24.1416C141.862 24.1714 141.846 24.2004 141.829 24.2284L156.814 31.36C156.814 31.3292 156.839 31.2984 156.853 31.2676C157.038 30.88 157.368 30.5814 157.772 30.4375C158.177 30.2937 158.622 30.3163 159.009 30.5004C159.07 30.5306 159.129 30.5643 159.186 30.6012L162.498 23.646C162.434 23.6249 162.371 23.5996 162.311 23.5704C161.927 23.3837 161.633 23.0528 161.492 22.6499C161.351 22.247 161.376 21.8049 161.56 21.42C161.588 21.3588 161.621 21.2998 161.658 21.2436L146.642 14.1008C146.621 14.162 146.597 14.2218 146.569 14.28ZM154.129 23.8672C153.904 24.3423 153.543 24.7399 153.092 25.0097C152.641 25.2794 152.12 25.4091 151.595 25.3823C151.07 25.3555 150.564 25.1735 150.143 24.8592C149.722 24.5449 149.403 24.1126 149.228 23.6171C149.052 23.1215 149.028 22.5851 149.158 22.0757C149.287 21.5663 149.566 21.1069 149.957 20.7558C150.348 20.4047 150.835 20.1777 151.355 20.1035C151.876 20.0293 152.406 20.1114 152.88 20.3392C153.194 20.4893 153.476 20.6999 153.709 20.9589C153.942 21.218 154.121 21.5203 154.237 21.8487C154.353 22.1771 154.403 22.5251 154.385 22.8729C154.366 23.2207 154.279 23.5614 154.129 23.8756V23.8672Z" stroke="black" stroke-width="0.28" stroke-miterlimit="10"/>
</g>
<g id="Group_2" opacity="0.3">
<path id="Vector_7" d="M19.2601 18.5447L13.4922 30.6592L34.4651 40.6449L40.2331 28.5303L19.2601 18.5447Z" stroke="black" stroke-width="0.28" stroke-miterlimit="10"/>
<path id="Vector_8" d="M21.7001 21.1484C21.6089 21.3403 21.4807 21.5124 21.323 21.6547C21.1652 21.7971 20.9809 21.9069 20.7806 21.9779C20.5804 22.0489 20.3681 22.0797 20.1559 22.0685C19.9437 22.0574 19.7358 22.0044 19.5441 21.9128C19.4829 21.8846 19.4239 21.8518 19.3677 21.8148L16.0553 28.77C16.1183 28.7894 16.18 28.8128 16.2401 28.84C16.432 28.9312 16.6041 29.0593 16.7464 29.2171C16.8887 29.3749 16.9985 29.5592 17.0695 29.7594C17.1405 29.9597 17.1713 30.172 17.1602 30.3842C17.149 30.5964 17.0961 30.8043 17.0045 30.996C16.9905 31.0268 16.9737 31.0548 16.9569 31.0856L31.9425 38.22L31.9817 38.1276C32.0728 37.9357 32.201 37.7636 32.3588 37.6213C32.5165 37.479 32.7008 37.3692 32.9011 37.2981C33.1014 37.2271 33.3137 37.1963 33.5259 37.2075C33.7381 37.2187 33.946 37.2716 34.1377 37.3632C34.1988 37.3914 34.2578 37.4242 34.3141 37.4612L37.6293 30.52C37.5649 30.4976 37.5033 30.4752 37.4417 30.4472C37.2488 30.3555 37.076 30.2266 36.9332 30.0678C36.7905 29.9091 36.6805 29.7236 36.6097 29.5222C36.5389 29.3207 36.5087 29.1072 36.5208 28.8941C36.5328 28.6809 36.587 28.4722 36.6801 28.28C36.7083 28.2198 36.7411 28.1617 36.7781 28.1064L21.7729 20.9608C21.754 21.0253 21.7296 21.0881 21.7001 21.1484ZM29.2601 30.7356C29.0348 31.2089 28.6743 31.6048 28.2241 31.8733C27.7739 32.1418 27.2542 32.2709 26.7307 32.2441C26.2072 32.2174 25.7034 32.0362 25.2828 31.7232C24.8623 31.4103 24.544 30.9797 24.3681 30.4859C24.1921 29.9922 24.1665 29.4573 24.2944 28.949C24.4223 28.4406 24.698 27.9816 25.0867 27.6299C25.4753 27.2782 25.9595 27.0496 26.4781 26.9729C26.9966 26.8962 27.5263 26.975 28.0001 27.1992C28.315 27.3487 28.5975 27.5587 28.8312 27.8173C29.065 28.0759 29.2456 28.378 29.3626 28.7064C29.4796 29.0348 29.5307 29.3831 29.5131 29.7312C29.4956 30.0794 29.4096 30.4207 29.2601 30.7356Z" stroke="black" stroke-width="0.28" stroke-miterlimit="10"/>
</g>
<g id="Group_3" opacity="0.3">
<path id="Vector_9" d="M169.063 55.9356L163.295 68.0502L184.268 78.0358L190.036 65.9212L169.063 55.9356Z" stroke="black" stroke-width="0.28" stroke-miterlimit="10"/>
<path id="Vector_10" d="M171.511 58.548C171.42 58.7402 171.292 58.9126 171.134 59.0553C170.976 59.1979 170.791 59.308 170.591 59.3793C170.39 59.4506 170.178 59.4816 169.965 59.4706C169.753 59.4596 169.545 59.4068 169.352 59.3152C169.291 59.2844 169.235 59.2508 169.179 59.2172L165.866 66.1724C165.93 66.193 165.993 66.2173 166.054 66.2452C166.441 66.4304 166.739 66.7618 166.883 67.1665C167.026 67.5712 167.003 68.0162 166.818 68.404L166.771 68.4908L181.756 75.628C181.767 75.596 181.78 75.5651 181.796 75.5356C181.886 75.3416 182.014 75.1675 182.171 75.0233C182.329 74.8791 182.514 74.7676 182.716 74.6955C182.917 74.6233 183.131 74.5919 183.344 74.603C183.558 74.614 183.767 74.6674 183.96 74.76C184.022 74.7908 184.08 74.8244 184.136 74.858L187.446 67.9028C187.383 67.8822 187.321 67.8578 187.261 67.83C186.873 67.6452 186.575 67.3141 186.431 66.9093C186.287 66.5045 186.31 66.0592 186.494 65.6712C186.525 65.6124 186.558 65.5536 186.595 65.4976L171.584 58.3632C171.564 58.4263 171.54 58.488 171.511 58.548ZM179.071 68.138C178.846 68.6121 178.484 69.0087 178.033 69.2776C177.582 69.5464 177.062 69.6755 176.537 69.6484C176.013 69.6213 175.508 69.4393 175.088 69.1253C174.667 68.8114 174.348 68.3797 174.173 67.8849C173.997 67.39 173.972 66.8542 174.101 66.3452C174.23 65.8362 174.507 65.3769 174.898 65.0254C175.288 64.674 175.773 64.4461 176.293 64.3706C176.813 64.2952 177.343 64.3756 177.817 64.6016C178.451 64.9049 178.94 65.4477 179.174 66.1108C179.409 66.7739 179.371 67.503 179.068 68.138H179.071Z" stroke="black" stroke-width="0.28" stroke-miterlimit="10"/>
</g>
<g id="Group_4" opacity="0.3">
<path id="Vector_11" d="M103.079 35.9955L110.955 46.8588L129.762 33.225L121.886 22.3616L103.079 35.9955Z" stroke="black" stroke-width="0.28" stroke-miterlimit="10"/>
<path id="Vector_12" d="M106.529 35.1009C106.78 35.4485 106.884 35.8818 106.816 36.3055C106.748 36.7293 106.515 37.1087 106.168 37.3605C106.114 37.4006 106.057 37.4362 105.997 37.4669L110.519 43.7053C110.568 43.6594 110.619 43.6164 110.673 43.5765C111.021 43.3247 111.455 43.2213 111.879 43.2891C112.303 43.3568 112.683 43.5901 112.935 43.9377C112.955 43.9647 112.972 43.9927 112.988 44.0217L126.428 34.2777L126.367 34.2021C126.115 33.8545 126.011 33.421 126.078 32.9968C126.145 32.5726 126.378 32.1925 126.725 31.9397C126.781 31.9005 126.84 31.8669 126.896 31.8333L122.36 25.5977C122.311 25.6435 122.26 25.6865 122.206 25.7265C121.858 25.9775 121.425 26.0803 121.002 26.0126C120.578 25.9449 120.199 25.7122 119.946 25.3653C119.908 25.3125 119.872 25.2574 119.84 25.2001L106.4 34.9525C106.446 34.9989 106.489 35.0485 106.529 35.1009ZM118.569 33.0541C118.876 33.4788 119.051 33.9851 119.071 34.5091C119.091 35.0331 118.955 35.5512 118.681 35.9979C118.406 36.4447 118.005 36.8 117.529 37.019C117.052 37.238 116.522 37.3108 116.004 37.2282C115.486 37.1456 115.004 36.9113 114.62 36.555C114.235 36.1987 113.964 35.7363 113.843 35.2263C113.721 34.7164 113.753 34.1817 113.934 33.6899C114.116 33.1981 114.44 32.7712 114.864 32.4633C115.433 32.0512 116.143 31.882 116.836 31.9928C117.53 32.1036 118.151 32.4853 118.563 33.0541H118.569Z" stroke="black" stroke-width="0.28" stroke-miterlimit="10"/>
</g>
</g>
<g id="freepik--Plants--inject-9">
<g id="Group_5" opacity="0.15">
<path id="Vector_13" d="M13.5688 56.9072C15.344 56.966 19.012 55.4092 19.0148 55.4092C19.0176 55.4092 17.2536 53.3036 17.1248 53.186C15.638 51.8112 11.9532 50.0276 9.9792 51.142C8.554 51.9456 8.316 53.7852 9.2204 55.062C10.1248 56.3388 12.0568 56.8596 13.5688 56.9072Z" fill="black"/>
<path id="Vector_14" d="M19.1128 67.116C20.7732 66.7212 23.6936 64.4476 23.926 64.2656C25.2187 65.9385 26.6218 67.5232 28.126 69.0088C28.9996 69.8824 29.9068 70.7308 30.8252 71.5708C30.3492 71.2516 29.9208 70.966 29.8564 70.9324C28.056 70 24.0324 69.2524 22.4224 70.8512C21.2604 72.002 21.518 73.836 22.7276 74.8356C23.9372 75.8352 25.9364 75.8156 27.4092 75.4628C28.882 75.11 31.43 73.2228 32.0936 72.7104L33.1576 73.6708C34.874 75.194 36.5904 76.706 38.2284 78.2404C38.8052 78.7808 39.3484 79.3352 39.9084 79.8868C39.4828 79.6068 39.1244 79.366 39.0684 79.3268C37.2708 78.3944 33.2472 77.6468 31.6344 79.2456C30.4724 80.3936 30.73 82.2304 31.9396 83.2272C33.1492 84.224 35.1484 84.21 36.6212 83.8572C38.0464 83.5184 40.3956 81.7964 41.1852 81.1972C41.7452 81.7796 42.2828 82.362 42.7868 82.95C43.1228 83.3588 43.4756 83.7312 43.7892 84.1624L44.7384 85.4084C45.2985 86.2232 45.9116 87.0604 46.452 87.8696C46.8328 88.4296 47.1828 88.9672 47.5412 89.5132C46.9812 88.9532 45.8361 87.9228 45.7297 87.8332C44.0945 86.6376 40.2304 85.2908 38.3936 86.6264C37.072 87.5868 37.0497 89.4404 38.094 90.6108C39.1384 91.7812 41.118 92.064 42.6244 91.9408C44.2848 91.8036 47.3984 90.0844 47.7849 89.8688C48.3729 90.7676 48.9328 91.6496 49.4509 92.4924C49.9156 93.2428 50.3468 93.9624 50.7528 94.6484L52.0744 94.1248C51.6124 93.3772 51.1197 92.596 50.5849 91.7728C49.994 90.8572 49.3444 89.8884 48.6668 88.9C49.4961 88.1119 50.2786 87.2761 51.0104 86.3968C52.5532 87.136 55.8629 87.402 56.2884 87.4328C56.2884 88.508 56.2633 89.5524 56.2297 90.5408C56.211 91.2184 56.1858 91.8717 56.1541 92.5008L57.5541 91.9408C57.5541 91.4928 57.5709 91.0392 57.5737 90.5688C57.5877 89.4768 57.5737 88.3092 57.5737 87.1108C58.002 87.038 61.5104 86.4024 62.8937 85.4616C64.1424 84.6048 65.4921 83.1684 65.5676 81.5668C65.6432 79.9652 64.4477 78.5792 62.8181 78.6688C60.5529 78.792 58.4053 82.2752 57.8928 84.2352C57.862 84.35 57.6717 85.6352 57.5681 86.4584C57.5681 85.9684 57.5513 85.4952 57.5345 84.9912C57.5065 83.9944 57.4505 83.0004 57.3917 81.9308C57.3469 81.4156 57.302 80.8976 57.2544 80.3712C57.2068 79.8448 57.1173 79.3016 57.05 78.7612C56.8652 77.5124 56.6217 76.2552 56.3444 74.9952C57.218 74.9672 60.312 74.8328 61.6812 74.172C63.0504 73.5112 64.5989 72.2988 64.9152 70.728C65.2317 69.1572 64.2629 67.6032 62.6361 67.4464C60.3792 67.2252 57.7305 70.3444 56.9241 72.2064C56.8736 72.3212 56.4453 73.7212 56.2268 74.494C56.0532 73.738 55.8853 72.982 55.6865 72.2204C55.1265 70.028 54.4656 67.8272 53.8301 65.6264C53.634 64.9516 53.4492 64.2796 53.2701 63.6048C53.5808 63.6048 57.2629 63.5152 58.7973 62.7648C60.1609 62.1096 61.7148 60.8944 62.0312 59.3236C62.3476 57.7528 61.3788 56.1988 59.752 56.042C57.4953 55.8208 54.8437 58.94 54.0401 60.802C53.9785 60.942 53.3653 62.958 53.2365 63.476C52.8193 61.992 52.416 60.5108 52.0801 59.0324C51.6163 57.0392 51.2824 55.018 51.0804 52.9816C51.2232 52.9816 55.0704 52.9116 56.6413 52.1416C58.002 51.4864 59.5561 50.2712 59.8725 48.7004C60.1889 47.1296 59.2201 45.5756 57.5933 45.416C55.3365 45.1976 52.6876 48.3168 51.8812 50.176C51.8196 50.3244 51.1617 52.4888 51.0692 52.892C51.0692 52.7744 51.0328 52.6512 51.0244 52.5336C50.8768 50.4812 50.9124 48.4197 51.1309 46.3736C51.2373 45.2536 51.4109 44.1728 51.5844 43.1312C52.3041 43.1928 55.5856 43.4336 57.0752 42.9072C58.5005 42.4032 60.1805 41.3672 60.6649 39.8412C61.1493 38.3152 60.3596 36.6632 58.7609 36.3272C56.5405 35.8624 53.564 38.6708 52.5616 40.4292C52.5056 40.5244 52.0577 41.5492 51.744 42.3164C51.8337 41.8488 51.9177 41.3616 52.0241 40.9164C52.3769 39.2364 52.8025 37.7216 53.1917 36.3832C53.4184 35.6216 53.6397 34.9384 53.8525 34.3028C54.5861 33.9948 57.5345 32.718 58.5928 31.5868C59.6512 30.4556 60.6397 28.7868 60.3681 27.2076C60.0965 25.6284 58.6348 24.5308 57.0584 24.9676C54.8745 25.578 53.5277 29.4476 53.4465 31.4664C53.4465 31.64 53.6453 34.3896 53.6817 34.3728L53.7265 34.356C53.5081 34.9636 53.284 35.6188 53.0517 36.3384C52.6316 37.6712 52.1724 39.1832 51.7804 40.8604C51.3398 42.6641 51.0041 44.4918 50.7752 46.3344C50.5099 48.396 50.4284 50.4771 50.5317 52.5532V52.6288C50.2965 52.0072 49.5825 50.2908 49.5125 50.1648C48.5269 48.3952 45.5924 45.5532 43.3524 45.9956C41.7508 46.312 40.9528 47.9864 41.412 49.4872C41.8712 50.988 43.5457 52.0744 44.9681 52.5924C46.5725 53.1776 50.2601 52.8948 50.5541 52.8724C50.7122 54.9833 51.0106 57.0814 51.4473 59.1528C51.6965 60.3596 51.9821 61.5692 52.2873 62.776C52.0661 62.2468 51.8645 61.7736 51.8281 61.7092C50.8425 59.9396 47.9081 57.0976 45.6681 57.54C44.0665 57.8592 43.2656 59.5308 43.7248 61.0316C44.184 62.5324 45.8612 63.6188 47.2836 64.1368C48.706 64.6548 51.8757 64.4868 52.7073 64.4168C52.8305 64.8788 52.9453 65.3408 53.0685 65.8168C53.6564 68.0344 54.2557 70.2408 54.7765 72.4276C54.9585 73.1976 55.1125 73.962 55.2665 74.7264C55.0705 74.2532 54.9025 73.8584 54.8689 73.8024C53.8833 72.03 50.9489 69.188 48.7089 69.6304C47.1073 69.9496 46.3064 71.624 46.7657 73.1248C47.2248 74.6256 48.9021 75.712 50.3244 76.23C51.6992 76.7312 54.6085 76.594 55.5997 76.5296C55.7341 77.3164 55.8797 78.106 55.9692 78.876C56.0224 79.4024 56.1092 79.9064 56.1344 80.4384C56.1596 80.9704 56.2045 81.4856 56.2381 82.0008C56.2689 82.9976 56.3053 84.0252 56.3109 84.9996C56.3109 85.6744 56.3109 86.3212 56.3109 86.9596C56.1372 86.1924 55.7509 84.6944 55.7201 84.574C55.0391 82.925 53.9457 81.4787 52.5448 80.374C52.478 80.1872 52.3937 80.0072 52.2928 79.8364C51.4865 78.4896 49.7113 77.9604 48.3981 78.9348C46.5781 80.2872 46.718 84.378 47.362 86.296C47.4012 86.408 47.9557 87.5896 48.3168 88.3288C48.0368 87.9284 47.7708 87.5336 47.4768 87.122C46.9168 86.3072 46.3092 85.5092 45.6708 84.6496L44.6965 83.4232C44.3773 83.0088 43.9908 82.6084 43.6352 82.194C42.7952 81.2532 41.8965 80.3404 40.9697 79.4416C41.6837 78.9376 44.1897 77.1176 44.9681 75.8016C45.7465 74.4856 46.368 72.632 45.766 71.148C45.164 69.664 43.4981 68.908 42.0532 69.6668C40.0484 70.728 39.5612 74.7908 39.914 76.7844C39.9364 76.9104 40.3508 78.3132 40.5944 79.0804C40.0344 78.5428 39.4744 78.0052 38.892 77.4816C37.212 75.9668 35.448 74.4884 33.7036 73.0016C33.1688 72.548 32.6424 72.0888 32.1132 71.6324C32.368 71.456 35.3948 69.3532 36.2656 67.8916C37.0413 66.5924 37.6656 64.7192 37.0636 63.2352C36.4616 61.7512 34.7956 60.9952 33.3508 61.754C31.346 62.818 30.856 66.8808 31.2116 68.8744C31.2368 69.0256 31.836 71.0416 32.0152 71.5484C30.8504 70.5404 29.6968 69.524 28.602 68.4684C27.1155 67.0615 25.721 65.5604 24.4272 63.9744C24.5476 63.8904 27.7144 61.712 28.6076 60.214C29.3832 58.9148 30.0076 57.0444 29.4056 55.5604C28.8036 54.0764 27.1376 53.3204 25.6956 54.0792C23.688 55.1404 23.2008 59.2032 23.5536 61.1968C23.5816 61.3536 24.2284 63.5236 24.374 63.91C24.2984 63.8176 24.2116 63.7308 24.1388 63.63C22.8847 62.0282 21.7752 60.3181 20.8236 58.52C20.2888 57.5204 19.8352 56.5348 19.4236 55.566C20.0536 55.2216 22.9236 53.606 23.8756 52.3516C24.7884 51.1448 25.6172 49.3528 25.1804 47.8128C24.7436 46.2728 23.1728 45.332 21.6552 45.934C19.544 46.774 18.6116 50.7528 18.7432 52.7744C18.7432 52.8836 18.9476 53.9924 19.1044 54.7988C18.9196 54.3592 18.7236 53.9084 18.5444 53.4828C17.9116 51.8868 17.4244 50.4028 17.0184 49.056C16.7888 48.2972 16.5956 47.6056 16.422 46.9588C16.8644 46.2952 18.6172 43.5988 18.8776 42.0756C19.138 40.5524 19.04 38.6148 17.9424 37.4472C16.8448 36.2796 15.0192 36.1704 13.9468 37.4024C12.46 39.116 13.468 43.0836 14.5068 44.8168C14.5964 44.9652 16.2848 47.1436 16.3072 47.11L16.3352 47.0708C16.4892 47.698 16.6628 48.37 16.8644 49.098C17.2508 50.442 17.7044 51.954 18.3008 53.578C18.9264 55.3265 19.6548 57.0365 20.482 58.6992C21.3975 60.5652 22.4779 62.3456 23.7104 64.0192L23.758 64.078C23.2176 63.6888 21.6748 62.6528 21.546 62.5856C19.7484 61.6532 15.7248 60.9056 14.1148 62.5044C12.9528 63.6552 13.2076 65.4892 14.42 66.4888C15.6324 67.4884 17.64 67.48 19.1128 67.116Z" fill="black"/>
<path id="Vector_15" d="M51.3156 42.8204C51.3576 42.8204 51.0104 40.0932 50.9684 39.9252C50.484 37.9652 48.3952 34.4372 46.1328 34.2776C44.5032 34.16 43.2908 35.5656 43.3328 37.1308C43.3748 38.696 44.7076 40.1912 45.9424 41.0676C47.3956 42.0952 51.3128 42.8204 51.3156 42.8204Z" fill="black"/>
</g>
<g id="Group_6" opacity="0.15">
<path id="Vector_16" d="M109.612 86.0356C111.667 86.1028 115.912 84.3024 115.917 84.2996C115.923 84.2968 113.879 81.8636 113.73 81.7264C112.006 80.1332 107.741 78.0696 105.454 79.3604C103.804 80.29 103.53 82.418 104.577 83.902C105.624 85.386 107.859 85.9796 109.612 86.0356Z" fill="black"/>
<path id="Vector_17" d="M151.164 127.263L151.326 127.543H153.182C152.956 127.182 152.72 126.818 152.48 126.442C151.794 125.381 151.04 124.258 150.256 123.116C151.216 122.204 152.122 121.236 152.97 120.218C154.756 121.072 158.586 121.38 159.082 121.416C159.082 122.662 159.051 123.872 159.015 125.014C158.99 125.801 158.959 126.554 158.925 127.282L160.546 126.638C160.546 126.12 160.566 125.594 160.572 125.045C160.572 123.782 160.572 122.433 160.552 121.044C161.05 120.957 165.11 120.226 166.712 119.134C168.157 118.143 169.722 116.477 169.809 114.626C169.896 112.776 168.515 111.166 166.622 111.266C164.002 111.409 161.515 115.444 160.922 117.706C160.885 117.841 160.667 119.336 160.544 120.28C160.544 119.72 160.524 119.16 160.504 118.58C160.474 117.426 160.409 116.276 160.342 115.038C160.288 114.443 160.235 113.841 160.182 113.232C160.143 112.627 160.023 111.994 159.944 111.367C159.732 109.922 159.449 108.466 159.13 107.008C160.138 106.977 163.724 106.817 165.309 106.053C166.894 105.288 168.686 103.886 169.053 102.068C169.42 100.251 168.297 98.4508 166.415 98.266C163.8 98.0112 160.731 101.626 159.799 103.774C159.74 103.908 159.239 105.529 158.99 106.422C158.791 105.549 158.598 104.672 158.368 103.793C157.704 101.254 156.954 98.7028 156.218 96.1548C155.991 95.3764 155.775 94.5952 155.557 93.8168C155.915 93.8168 160.18 93.7132 161.955 92.8564C163.534 92.0976 165.334 90.6892 165.698 88.872C166.062 87.0548 164.945 85.2544 163.061 85.0696C160.446 84.8148 157.38 88.4296 156.447 90.5772C156.377 90.7396 155.666 93.072 155.515 93.674C155.033 91.9548 154.568 90.2384 154.179 88.5276C153.641 86.2219 153.254 83.8836 153.02 81.5276C153.185 81.5276 157.64 81.4464 159.46 80.57C161.039 79.8084 162.837 78.4 163.204 76.5828C163.57 74.7656 162.45 72.9652 160.566 72.7832C157.951 72.5256 154.885 76.1432 153.95 78.2908C153.877 78.4588 153.11 80.9676 153.009 81.4324C153.009 81.2952 152.97 81.1524 152.958 81.018C152.788 78.6475 152.829 76.2664 153.082 73.9032C153.205 72.5956 153.395 71.3524 153.608 70.1484C154.448 70.2184 158.239 70.4956 159.964 69.888C161.616 69.3056 163.559 68.1044 164.119 66.3376C164.679 64.5708 163.769 62.6612 161.916 62.2692C159.345 61.7288 155.901 64.9824 154.736 67.0292C154.675 67.1412 154.154 68.3368 153.79 69.216C153.894 68.6728 153.992 68.1128 154.101 67.5948C154.51 65.6348 155.005 63.896 155.453 62.3448C155.716 61.4656 155.971 60.6648 156.22 59.9368C157.06 59.5812 160.482 58.1 161.708 56.7924C162.935 55.4848 164.08 53.55 163.764 51.7244C163.447 49.8988 161.756 48.622 159.933 49.1288C157.413 49.8344 155.842 54.3088 155.75 56.6524C155.75 56.854 155.977 60.0376 156.03 60.0124L156.083 59.9928C155.831 60.6956 155.571 61.4544 155.299 62.2888C154.815 63.8316 154.283 65.5816 153.829 67.5248C153.319 69.6127 152.93 71.7284 152.664 73.8612C152.358 76.2487 152.265 78.6587 152.384 81.0628C152.384 81.0908 152.384 81.1216 152.384 81.1496C152.104 80.43 151.284 78.442 151.203 78.2964C150.063 76.2468 146.653 72.9568 144.077 73.4692C142.22 73.8388 141.296 75.7764 141.837 77.5124C142.377 79.2484 144.309 80.5084 145.953 81.1076C147.809 81.788 152.082 81.4576 152.421 81.4296C152.605 83.8765 152.951 86.3086 153.457 88.7096C153.737 90.1096 154.076 91.5096 154.428 92.9096C154.171 92.2936 153.938 91.7448 153.899 91.672C152.757 89.6224 149.349 86.3324 146.77 86.8448C144.914 87.2144 143.99 89.152 144.53 90.888C145.071 92.624 147.003 93.884 148.649 94.4832C150.296 95.0824 153.969 94.8864 154.932 94.8192C155.072 95.354 155.212 95.8916 155.347 96.4264C156.03 98.9912 156.724 101.548 157.326 104.079C157.539 104.969 157.716 105.854 157.886 106.739C157.66 106.196 157.464 105.736 157.424 105.669C156.285 103.62 152.877 100.33 150.298 100.842C148.442 101.212 147.518 103.149 148.058 104.885C148.599 106.621 150.531 107.881 152.177 108.48C153.77 109.063 157.139 108.903 158.287 108.828C158.444 109.74 158.6 110.653 158.712 111.544C158.774 112.154 158.875 112.736 158.906 113.355C158.936 113.974 158.987 114.568 159.026 115.164C159.06 116.318 159.104 117.508 159.11 118.636C159.11 119.417 159.11 120.165 159.11 120.918C158.908 120.028 158.477 118.294 158.427 118.154C157.636 116.248 156.371 114.575 154.75 113.296C154.671 113.081 154.573 112.873 154.456 112.675C153.524 111.115 151.466 110.502 149.948 111.63C147.84 113.196 147.988 117.933 148.747 120.154C148.792 120.285 149.433 121.652 149.867 122.508C149.542 122.044 149.234 121.587 148.898 121.108C148.235 120.165 147.546 119.241 146.807 118.244L145.687 116.824C145.32 116.343 144.872 115.881 144.46 115.402C143.486 114.313 142.447 113.254 141.38 112.216C142.206 111.633 145.11 109.522 146.009 108.016C146.908 106.509 147.63 104.345 146.933 102.626C146.236 100.906 144.309 100.024 142.635 100.912C140.314 102.141 139.748 106.845 140.157 109.155C140.182 109.298 140.664 110.922 140.944 111.81C140.294 111.188 139.65 110.566 138.984 109.959C137.024 108.206 134.999 106.492 132.978 104.776C132.359 104.25 131.748 103.72 131.135 103.188C131.432 102.984 134.935 100.551 135.946 98.8596C136.842 97.3532 137.567 95.186 136.867 93.4696C136.167 91.7532 134.243 90.8684 132.572 91.7532C130.25 92.9852 129.682 97.6864 130.091 99.9964C130.122 100.17 130.816 102.516 131.023 103.093C129.674 101.926 128.338 100.75 127.07 99.54C125.349 97.9106 123.734 96.1719 122.237 94.3348C122.377 94.2396 126.045 91.7168 127.078 89.9836C127.977 88.4772 128.699 86.3128 128.002 84.5936C127.305 82.8744 125.376 81.9924 123.704 82.88C121.383 84.1092 120.817 88.8132 121.226 91.1204C121.257 91.3024 122.007 93.8168 122.175 94.262C122.088 94.1556 121.988 94.0548 121.895 93.9456C120.424 92.0567 119.124 90.0402 118.012 87.92C117.393 86.7608 116.866 85.6212 116.379 84.4984C117.11 84.098 120.434 82.2332 121.537 80.7772C122.592 79.3772 123.55 77.3052 123.046 75.5216C122.542 73.738 120.722 72.646 118.964 73.3432C116.519 74.312 115.441 78.9236 115.604 81.2644C115.604 81.3932 115.842 82.6644 116.021 83.6108C115.808 83.1012 115.578 82.5776 115.385 82.0848C114.654 80.2396 114.097 78.5036 113.618 76.9608C113.352 76.0816 113.128 75.2808 112.93 74.5304C113.442 73.7632 115.472 70.6468 115.772 68.8772C116.066 67.1496 115.959 64.8676 114.691 63.518C113.422 62.1684 111.303 62.0396 110.062 63.4676C108.34 65.4528 109.502 70.0448 110.723 72.0496C110.83 72.2232 112.781 74.746 112.809 74.7068L112.84 74.662C113.019 75.3872 113.218 76.1656 113.456 77.0084C113.901 78.5624 114.422 80.318 115.116 82.1856C115.84 84.209 116.681 86.1882 117.636 88.1132C118.697 90.2734 119.948 92.3349 121.374 94.2732L121.43 94.3404C120.806 93.8896 119.017 92.6912 118.871 92.6128C116.788 91.532 112.129 90.6696 110.264 92.5176C108.92 93.8504 109.217 95.9756 110.617 97.132C112.017 98.2884 114.332 98.266 116.038 97.86C117.958 97.4008 121.341 94.78 121.61 94.5588C123.109 96.4966 124.737 98.3319 126.482 100.052C127.492 101.06 128.542 102.043 129.606 103.018C129.046 102.645 128.559 102.318 128.486 102.278C126.403 101.198 121.747 100.335 119.879 102.183C118.535 103.513 118.832 105.641 120.235 106.795C121.638 107.948 123.948 107.932 125.653 107.523C127.358 107.114 130.309 104.927 131.076 104.336C131.491 104.706 131.897 105.078 132.311 105.456C134.296 107.22 136.284 108.97 138.191 110.748C138.86 111.373 139.496 112.014 140.134 112.655C139.642 112.325 139.227 112.05 139.16 112.014C137.077 110.936 132.418 110.071 130.553 111.919C129.206 113.252 129.506 115.377 130.906 116.533C132.306 117.69 134.621 117.667 136.326 117.261C137.976 116.866 140.697 114.876 141.61 114.181C142.246 114.856 142.881 115.531 143.466 116.214C143.856 116.687 144.262 117.118 144.626 117.614L145.723 119.056C146.39 120 147.081 120.968 147.708 121.906C148.148 122.553 148.548 123.178 148.968 123.808C148.31 123.178 146.994 121.968 146.874 121.881C144.978 120.498 140.504 118.938 138.379 120.481C136.847 121.601 136.819 123.743 138.032 125.096C139.244 126.448 141.532 126.776 143.276 126.636C145.2 126.479 148.803 124.488 149.251 124.236C149.915 125.269 150.564 126.28 151.164 127.263Z" fill="black"/>
<path id="Vector_18" d="M153.317 69.7199C153.364 69.7199 152.961 66.5615 152.914 66.3599C152.354 64.0807 149.934 60.0067 147.314 59.8219C145.424 59.6875 144.021 61.3115 144.077 63.1259C144.133 64.9403 145.67 66.6679 147.098 67.6843C148.778 68.8799 153.314 69.7199 153.317 69.7199Z" fill="black"/>
</g>
</g>
<g id="freepik--Stairs--inject-9">
<path id="Vector_19" d="M47.936 94.7772H15.4952V101.125H47.936V94.7772Z" fill="white" stroke="#263238" stroke-width="0.28" stroke-linecap="round" stroke-linejoin="round"/>
<path id="Vector_20" d="M56.9184 88.1076H24.4776V94.7772H56.9184V88.1076Z" fill="white" stroke="#263238" stroke-width="0.28" stroke-linecap="round" stroke-linejoin="round"/>
<path id="Vector_21" d="M65.9036 81.4352H33.4628V88.1048H65.9036V81.4352Z" fill="white" stroke="#263238" stroke-width="0.28" stroke-linecap="round" stroke-linejoin="round"/>
<path id="Vector_22" d="M74.886 74.7656H42.4452V81.4352H74.886V74.7656Z" fill="white" stroke="#263238" stroke-width="0.28" stroke-linecap="round" stroke-linejoin="round"/>
<path id="Vector_23" d="M84.2044 127.532V74.7656H74.8888V81.4352H65.9036V88.1076H56.9212V94.7772H47.936V127.532H84.2044Z" fill="#263238" stroke="#263238" stroke-width="0.28" stroke-linecap="round" stroke-linejoin="round"/>
<path id="Vector_24" d="M84.2044 121.181H51.7636V127.529H84.2044V121.181Z" fill="white" stroke="#263238" stroke-width="0.28" stroke-linecap="round" stroke-linejoin="round"/>
<path id="Vector_25" d="M42.7812 121.181H75.222V114.512H42.7812V121.181Z" fill="white" stroke="#263238" stroke-width="0.28" stroke-linecap="round" stroke-linejoin="round"/>
<path id="Vector_26" d="M33.796 114.512H66.2368V107.839H33.796V114.512Z" fill="white" stroke="#263238" stroke-width="0.28" stroke-linecap="round" stroke-linejoin="round"/>
<path id="Vector_27" d="M24.8108 107.839H57.2516V101.17H24.8108V107.839Z" fill="white" stroke="#263238" stroke-width="0.28" stroke-linecap="round" stroke-linejoin="round"/>
<path id="Vector_28" d="M15.4952 127.532V101.17H24.8108V107.839H33.7932V114.512H42.7784V121.181H51.7636V127.532H15.4952Z" fill="#263238" stroke="#263238" stroke-width="0.28" stroke-linecap="round" stroke-linejoin="round"/>
</g>
<g id="freepik--character-2--inject-9">
<path id="Vector_29" d="M181.591 87.4468L179.48 94.36L174.798 90.762C174.728 90.3133 174.634 89.8685 174.518 89.4292C174.426 89.2108 173.869 88.5612 173.743 88.3092C173.617 88.0572 173.435 88.2784 173.435 88.466C173.435 88.6536 173.869 89.2724 173.869 89.2724L173.65 89.488L171.914 88.662C171.894 88.6527 171.872 88.6474 171.85 88.6466C171.828 88.6458 171.806 88.6494 171.785 88.6572C171.764 88.665 171.745 88.6769 171.729 88.6921C171.712 88.7074 171.699 88.7257 171.69 88.746C171.674 88.7802 171.67 88.8191 171.679 88.856C171.688 88.8928 171.71 88.9252 171.741 88.9476L172.69 89.6756L172.567 89.922L170.985 89.2724C170.965 89.2644 170.943 89.2605 170.922 89.261C170.9 89.2615 170.879 89.2663 170.859 89.2752C170.84 89.2841 170.822 89.2969 170.808 89.3128C170.793 89.3286 170.782 89.3473 170.775 89.3676C170.764 89.4018 170.765 89.4386 170.778 89.4722C170.79 89.5057 170.814 89.534 170.845 89.5524L172.287 90.3924L171.346 90.5772C171.324 90.5817 171.303 90.5907 171.285 90.6037C171.267 90.6167 171.252 90.6334 171.24 90.6526C171.229 90.6719 171.222 90.6934 171.219 90.7156C171.217 90.7378 171.219 90.7603 171.226 90.7816C171.236 90.8132 171.257 90.8406 171.284 90.8601C171.311 90.8796 171.343 90.8904 171.377 90.8908H172.348L171.508 91.1988C171.508 91.1988 171.618 91.4424 171.788 91.434L172.782 91.3864L174.241 91.4788C174.241 91.4788 178.982 96.4488 179.138 96.6C179.295 96.7512 180.225 97.09 180.41 96.9052C180.594 96.7204 182.675 94.206 182.675 94.206L182.364 87.696C182.364 87.696 182.056 87.08 181.591 87.4468Z" fill="white" stroke="#263238" stroke-width="0.28" stroke-linecap="round" stroke-linejoin="round"/>
<path id="Vector_30" d="M182.711 79.4724C182.711 79.4724 181.807 79.534 181.381 78.0724C180.956 76.6108 182.048 76.1964 182.652 76.076C183.257 75.9556 183.378 74.6256 184.405 74.4436C185.433 74.2616 186.519 75.11 186.763 75.8436C187.006 76.5772 188.577 75.4796 189.482 76.4484C190.386 77.4172 190.322 79.2876 190.322 79.954C190.322 80.6204 192.377 80.7408 192.377 82.3116C192.377 83.8824 192.133 84.6692 192.254 84.91C192.374 85.1508 193.281 90.1012 193.281 90.1012H182C182 90.1012 181.639 86.4836 182.062 85.5764C182.484 84.6692 182.848 84.6076 183.028 83.762C183.207 82.9164 183.028 81.5864 182.907 80.9816C182.816 80.4822 182.751 79.9785 182.711 79.4724Z" fill="#263238" stroke="#263238" stroke-width="0.28" stroke-linecap="round" stroke-linejoin="round"/>
<path id="Vector_31" d="M184.89 85.82L181.504 85.8816L182.168 94.1612L188.577 94.6456L191.598 86.0608L187.972 85.7612L184.89 85.82Z" fill="#263238" stroke="#263238" stroke-width="0.28" stroke-linecap="round" stroke-linejoin="round"/>
<path id="Vector_32" d="M183.8 77.5376C183.8 77.5376 182.893 78.8088 182.711 79.4724C182.473 80.2397 182.421 81.0527 182.56 81.844C182.742 82.7512 183.257 84.2492 183.618 84.364C183.98 84.4788 184.948 84.364 184.948 84.364L184.89 85.8144H184.405L184.464 87.99L186.763 88.1104L187.972 85.7528L187.368 85.6324L186.945 82.068C186.945 82.068 187.547 81.4016 187.608 80.9172C187.643 80.6768 187.663 80.4347 187.67 80.192C187.67 80.192 186.945 80.738 186.34 80.192C185.735 79.646 185.553 79.044 185.371 78.4392C185.189 77.8344 184.828 77.3528 184.531 77.3528C184.279 77.3748 184.032 77.4372 183.8 77.5376Z" fill="white" stroke="#263238" stroke-width="0.28" stroke-linecap="round" stroke-linejoin="round"/>
<path id="Vector_33" d="M184.948 84.3696L185.976 84.0056L185.01 85.0948L184.948 84.3696Z" fill="#263238" stroke="#263238" stroke-width="0.28" stroke-linecap="round" stroke-linejoin="round"/>
<path id="Vector_34" d="M182.168 94.1612L181.504 96.278C181.504 96.278 179.085 98.8764 178.601 103.712C178.116 108.548 178.903 113.324 179.147 115.259C179.39 117.194 181.72 125.745 181.72 125.745H183.294C183.294 125.745 182.711 117.799 182.711 117.012V112.599L187.155 124.818L188.608 124.88C188.608 124.88 188.026 119.109 187.664 116.76C187.415 115.216 187.073 113.688 186.642 112.185C186.642 112.185 189.84 105.84 189.84 101.478C189.84 97.1152 188.751 96.1576 188.751 96.1576L188.572 94.6456L182.168 94.1612Z" fill="#BABABA" stroke="#263238" stroke-width="0.28" stroke-linecap="round" stroke-linejoin="round"/>
<path id="Vector_35" d="M184.108 100.8C184.318 99.8565 184.464 99.2349 184.464 99.2349" stroke="#263238" stroke-width="0.28" stroke-linecap="round" stroke-linejoin="round"/>
<path id="Vector_36" d="M182.711 112.599C182.711 112.599 182.47 111.39 182.652 108.791C182.759 107.257 183.369 104.21 183.854 101.97" stroke="#263238" stroke-width="0.28" stroke-linecap="round" stroke-linejoin="round"/>
<path id="Vector_37" d="M181.72 125.745C181.72 125.745 178.881 127.075 178.881 127.378C178.881 127.68 183.414 127.378 183.414 127.378C183.519 127.087 183.56 126.778 183.534 126.47C183.497 126.216 183.416 125.971 183.294 125.745H181.72Z" fill="white" stroke="#263238" stroke-width="0.28" stroke-linecap="round" stroke-linejoin="round"/>
<path id="Vector_38" d="M187.155 124.818C187.155 124.818 185.828 126.512 185.402 126.935C184.976 127.358 185.1 127.66 185.464 127.66C185.828 127.66 187.883 127.54 188.244 127.299C188.449 127.167 188.632 127.003 188.787 126.815L188.608 124.88L187.155 124.818Z" fill="white" stroke="#263238" stroke-width="0.28" stroke-linecap="round" stroke-linejoin="round"/>
<path id="Vector_39" d="M191.24 87.15C191.24 87.15 191.786 95.1888 191.302 96.0372C190.817 96.8856 189.428 96.3984 189.308 96.0372C189.188 95.676 189.428 92.5288 189.428 92.5288L191.24 87.15Z" fill="white" stroke="#263238" stroke-width="0.28" stroke-linecap="round" stroke-linejoin="round"/>
<path id="Vector_40" d="M176.517 67.9242L150.894 71.6577L157.358 116.02L182.981 112.287L176.517 67.9242Z" fill="#599BFE" stroke="#263238" stroke-width="0.28" stroke-linecap="round" stroke-linejoin="round"/>
<path id="Vector_41" d="M174.95 74.6368C174.544 74.6962 174.13 74.6751 173.732 74.5745C173.334 74.474 172.96 74.296 172.631 74.0508C172.302 73.8056 172.025 73.4979 171.815 73.1454C171.605 72.7929 171.467 72.4024 171.408 71.9964C171.391 71.8682 171.382 71.7392 171.38 71.61L156.666 73.752C156.702 73.8759 156.73 74.0022 156.75 74.13C156.868 74.9501 156.656 75.7837 156.161 76.4478C155.665 77.1119 154.926 77.5522 154.106 77.672C154.042 77.672 153.98 77.686 153.916 77.6916L158.53 109.388C158.595 109.374 158.656 109.36 158.721 109.351C159.127 109.292 159.542 109.313 159.94 109.414C160.338 109.515 160.713 109.694 161.042 109.94C161.371 110.186 161.648 110.495 161.858 110.848C162.067 111.202 162.205 111.593 162.263 112C162.281 112.128 162.292 112.257 162.294 112.386L177.005 110.244C176.969 110.12 176.942 109.992 176.924 109.864C176.864 109.458 176.885 109.044 176.986 108.647C177.086 108.249 177.265 107.875 177.51 107.546C177.755 107.218 178.063 106.94 178.415 106.731C178.768 106.521 179.158 106.383 179.564 106.324C179.692 106.306 179.821 106.295 179.95 106.294L175.328 74.5556C175.203 74.5899 175.077 74.617 174.95 74.6368ZM167.67 97.0368C166.667 97.1829 165.644 97.0285 164.73 96.5932C163.815 96.1579 163.05 95.4611 162.532 94.5911C162.013 93.7211 161.764 92.7168 161.816 91.7053C161.869 90.6938 162.22 89.7205 162.825 88.9085C163.43 88.0964 164.263 87.4821 165.217 87.1432C166.172 86.8043 167.205 86.756 168.187 87.0044C169.169 87.2528 170.055 87.7869 170.734 88.5389C171.412 89.291 171.852 90.2274 171.998 91.2296C172.097 91.896 172.063 92.5753 171.899 93.2286C171.735 93.882 171.443 94.4965 171.041 95.037C170.639 95.5775 170.134 96.0333 169.556 96.3784C168.977 96.7235 168.336 96.951 167.67 97.048V97.0368Z" fill="white" stroke="#263238" stroke-width="0.28" stroke-linecap="round" stroke-linejoin="round"/>
<path id="Vector_42" d="M172.261 68.8715L147.143 75.6041L158.799 119.09L183.917 112.357L172.261 68.8715Z" fill="#599BFE" stroke="#263238" stroke-width="0.281187" stroke-linecap="round" stroke-linejoin="round"/>
<path id="Vector_43" d="M170.671 75.7036C169.871 75.9175 169.019 75.8049 168.302 75.3906C167.584 74.9764 167.061 74.2944 166.846 73.4945C166.815 73.3689 166.789 73.2418 166.771 73.1136L152.41 76.9552C152.459 77.075 152.501 77.1974 152.536 77.322C152.642 77.7184 152.669 78.1319 152.615 78.5387C152.561 78.9455 152.428 79.3378 152.223 79.693C152.017 80.0483 151.744 80.3595 151.418 80.609C151.092 80.8584 150.72 81.0412 150.324 81.1468C150.262 81.1636 150.198 81.1748 150.136 81.1888L158.413 112.132L158.598 112.073C158.994 111.967 159.407 111.939 159.814 111.993C160.22 112.047 160.613 112.18 160.968 112.385C161.323 112.59 161.634 112.863 161.884 113.189C162.133 113.514 162.316 113.886 162.422 114.282C162.456 114.407 162.481 114.534 162.498 114.663L176.859 110.821C176.81 110.702 176.768 110.579 176.733 110.454C176.519 109.654 176.632 108.801 177.047 108.084C177.462 107.367 178.145 106.844 178.945 106.63C179.07 106.595 179.197 106.57 179.326 106.554L171.038 75.5777C170.918 75.6272 170.796 75.6692 170.671 75.7036ZM166.04 98.8093C165.061 99.068 164.028 99.0308 163.07 98.7023C162.112 98.3738 161.273 97.7688 160.659 96.9638C160.045 96.1588 159.684 95.1898 159.62 94.1793C159.557 93.1688 159.794 92.1622 160.302 91.2866C160.811 90.4111 161.567 89.7058 162.476 89.26C163.385 88.8142 164.406 88.6479 165.41 88.782C166.413 88.9162 167.355 89.3447 168.115 90.0136C168.875 90.6825 169.419 91.5617 169.68 92.54C169.854 93.1907 169.897 93.8693 169.808 94.5368C169.719 95.2043 169.499 95.8477 169.161 96.4301C168.823 97.0125 168.373 97.5224 167.838 97.9307C167.302 98.339 166.691 98.6375 166.04 98.8093Z" fill="white" stroke="#263238" stroke-width="0.28" stroke-linecap="round" stroke-linejoin="round"/>
<g id="Vector_44">
<path d="M189.84 94.7072L180.832 94.5252C180.832 94.5252 179.018 93.9204 178.716 93.9204C178.291 93.9888 177.873 94.0947 177.467 94.2368C177.428 94.2491 177.395 94.2754 177.374 94.3105C177.354 94.3457 177.347 94.3872 177.355 94.4272C177.364 94.4692 177.388 94.5061 177.424 94.5302C177.459 94.5542 177.503 94.5635 177.545 94.556L178.416 94.4048L178.657 94.584L176.912 95.704C176.877 95.7271 176.851 95.7626 176.841 95.8036C176.831 95.8446 176.836 95.8881 176.856 95.9252C176.877 95.9629 176.911 95.9914 176.951 96.0049C176.992 96.0184 177.036 96.016 177.075 95.998L178.385 95.382L178.43 95.7124L177.03 96.4432C176.986 96.4666 176.951 96.5055 176.934 96.5525C176.916 96.5995 176.917 96.6513 176.935 96.698C176.953 96.7428 176.987 96.7797 177.03 96.8022C177.073 96.8248 177.123 96.8315 177.17 96.8212L177.682 96.7036C177.741 96.7759 177.82 96.8295 177.909 96.8579C177.998 96.8862 178.094 96.8881 178.184 96.8632L179.138 96.5832L178.534 96.9696C178.51 96.9837 178.49 97.0031 178.475 97.0263C178.461 97.0495 178.452 97.0759 178.449 97.1032C178.447 97.1305 178.451 97.158 178.461 97.1835C178.472 97.2089 178.488 97.2316 178.508 97.2496C178.539 97.2732 178.576 97.286 178.615 97.286C178.653 97.286 178.691 97.2732 178.721 97.2496L179.931 96.4236L180.967 95.7628L190.095 97.37C190.095 97.37 190.865 97.4372 190.999 97.2832C191.134 97.1292 191.394 95.6732 191.416 95.298" fill="white"/>
<path d="M189.84 94.7072L180.832 94.5252C180.832 94.5252 179.018 93.9204 178.716 93.9204C178.291 93.9888 177.873 94.0947 177.467 94.2368C177.428 94.2491 177.395 94.2754 177.374 94.3105C177.354 94.3457 177.347 94.3872 177.355 94.4272C177.364 94.4692 177.388 94.5061 177.424 94.5302C177.459 94.5542 177.503 94.5635 177.545 94.556L178.416 94.4048L178.657 94.584L176.912 95.704C176.877 95.7271 176.851 95.7626 176.841 95.8036C176.831 95.8446 176.836 95.8881 176.856 95.9252C176.877 95.9629 176.911 95.9914 176.951 96.0049C176.992 96.0184 177.036 96.016 177.075 95.998L178.385 95.382L178.43 95.7124L177.03 96.4432C176.986 96.4666 176.951 96.5055 176.934 96.5525C176.916 96.5995 176.917 96.6513 176.935 96.698C176.953 96.7428 176.987 96.7797 177.03 96.8022C177.073 96.8248 177.123 96.8315 177.17 96.8212L177.682 96.7036C177.741 96.7759 177.82 96.8295 177.909 96.8579C177.998 96.8862 178.094 96.8881 178.184 96.8632L179.138 96.5832L178.534 96.9696C178.51 96.9837 178.49 97.0031 178.475 97.0263C178.461 97.0495 178.452 97.0759 178.449 97.1032C178.447 97.1305 178.451 97.158 178.461 97.1835C178.472 97.2089 178.488 97.2316 178.508 97.2496C178.539 97.2732 178.576 97.286 178.615 97.286C178.653 97.286 178.691 97.2732 178.721 97.2496L179.931 96.4236L180.967 95.7628L190.095 97.37C190.095 97.37 190.865 97.4372 190.999 97.2832C191.134 97.1292 191.394 95.6732 191.416 95.298" stroke="#263238" stroke-width="0.28" stroke-linecap="round" stroke-linejoin="round"/>
</g>
<path id="Vector_45" d="M177.685 96.7092L178.92 96.2472" stroke="#263238" stroke-width="0.28" stroke-linecap="round" stroke-linejoin="round"/>
<path id="Vector_46" d="M183.52 80.2648C183.52 80.472 183.414 80.6428 183.28 80.6428C183.145 80.6428 183.039 80.472 183.039 80.2648C183.039 80.0576 183.148 79.8896 183.28 79.8896C183.411 79.8896 183.52 80.0576 183.52 80.2648Z" fill="#263238"/>
<path id="Vector_47" d="M184.873 80.5504C184.873 80.7576 184.764 80.9256 184.632 80.9256C184.5 80.9256 184.391 80.7576 184.391 80.5504C184.391 80.3432 184.5 80.1752 184.632 80.1752C184.764 80.1752 184.873 80.3432 184.873 80.5504Z" fill="#263238"/>
<path id="Vector_48" d="M182.98 79.4108C182.98 79.4108 183.221 79.1084 183.7 79.4388" stroke="#263238" stroke-width="0.28" stroke-linecap="round" stroke-linejoin="round"/>
<path id="Vector_49" d="M184.36 79.5901C184.524 79.5253 184.707 79.5268 184.87 79.5942C185.033 79.6615 185.164 79.7896 185.234 79.9513" stroke="#263238" stroke-width="0.28" stroke-linecap="round" stroke-linejoin="round"/>
<path id="Vector_50" d="M183.761 80.2816C183.794 80.4617 183.783 80.6468 183.73 80.822C183.641 81.032 183.221 81.4212 183.252 81.5136C183.282 81.606 183.49 81.662 183.49 81.662" stroke="#263238" stroke-width="0.28" stroke-linecap="round" stroke-linejoin="round"/>
<path id="Vector_51" d="M183.221 82.3844C183.221 82.3844 184.061 82.7736 184.722 82.2332" stroke="#263238" stroke-width="0.28" stroke-linecap="round" stroke-linejoin="round"/>
</g>
<g id="freepik--character-1--inject-9">
<path id="Vector_52" d="M89.7736 59.4916C95.1025 59.4916 99.4224 55.1717 99.4224 49.8428C99.4224 44.5139 95.1025 40.194 89.7736 40.194C84.4448 40.194 80.1248 44.5139 80.1248 49.8428C80.1248 55.1717 84.4448 59.4916 89.7736 59.4916Z" fill="white" stroke="#263238" stroke-width="0.28" stroke-linecap="round" stroke-linejoin="round"/>
<path id="Vector_53" d="M90.748 59.4916C96.0769 59.4916 100.397 55.1717 100.397 49.8428C100.397 44.5139 96.0769 40.194 90.748 40.194C85.4191 40.194 81.0992 44.5139 81.0992 49.8428C81.0992 55.1717 85.4191 59.4916 90.748 59.4916Z" fill="white" stroke="#263238" stroke-width="0.28" stroke-linecap="round" stroke-linejoin="round"/>
<path id="Vector_54" d="M96.5388 55.6317C99.7361 52.4344 99.7361 47.2506 96.5388 44.0533C93.3415 40.856 88.1576 40.856 84.9603 44.0533C81.763 47.2506 81.763 52.4345 84.9603 55.6318C88.1576 58.8291 93.3415 58.829 96.5388 55.6317Z" fill="white" stroke="#263238" stroke-width="0.28" stroke-linecap="round" stroke-linejoin="round"/>
<path id="Vector_55" d="M90.8404 55.5996V54.5216C90.0452 54.4917 89.4507 54.2369 89.0568 53.7572C88.663 53.2775 88.4502 52.5625 88.4184 51.6124L90.0536 51.3324C90.0606 51.6577 90.101 51.9814 90.174 52.2984C90.2177 52.5152 90.3204 52.7158 90.4708 52.878C90.5384 52.9429 90.6183 52.9935 90.7059 53.0267C90.7935 53.0599 90.8869 53.075 90.9804 53.0712C91.076 53.0814 91.1725 53.0651 91.2594 53.0242C91.3464 52.9832 91.4203 52.919 91.4732 52.8388C91.5629 52.675 91.6083 52.4907 91.6048 52.304C91.615 51.9536 91.5172 51.6086 91.3248 51.3156C91.1123 51.015 90.8609 50.7438 90.5772 50.5092L89.5944 49.6692C89.3784 49.4705 89.1763 49.2572 88.9896 49.0308C88.81 48.8087 88.6672 48.5591 88.5668 48.2916C88.4567 47.9749 88.4036 47.6412 88.41 47.306C88.3915 46.9956 88.4371 46.6848 88.5441 46.3928C88.651 46.1009 88.817 45.8341 89.0316 45.6092C89.4846 45.1858 90.0752 44.9402 90.6948 44.9176V43.8872H91.2548V44.9176C91.6144 44.9246 91.9665 45.0208 92.2796 45.1976C92.5336 45.3495 92.7439 45.5647 92.89 45.822C93.03 46.0801 93.1309 46.3575 93.1896 46.6452C93.2495 46.9295 93.2888 47.2177 93.3072 47.5076L91.6496 47.7512C91.6446 47.4969 91.6212 47.2433 91.5796 46.9924C91.5538 46.8063 91.4826 46.6294 91.3724 46.4772C91.3147 46.4129 91.2423 46.3635 91.1614 46.3332C91.0804 46.303 90.9934 46.2928 90.9076 46.3036C90.8109 46.3025 90.7154 46.3251 90.6295 46.3696C90.5435 46.414 90.4698 46.4788 90.4148 46.5584C90.3008 46.7225 90.2419 46.9186 90.2468 47.1184C90.2333 47.4245 90.323 47.7262 90.5016 47.9752C90.679 48.1975 90.8728 48.4062 91.0812 48.5996L92.0444 49.4396C92.2995 49.6713 92.5354 49.9232 92.75 50.1928C92.9669 50.4652 93.1424 50.768 93.2708 51.0916C93.4078 51.4489 93.4753 51.829 93.4696 52.2116C93.4749 52.5993 93.3896 52.9828 93.2204 53.3316C93.0586 53.664 92.81 53.9465 92.5008 54.1492C92.1697 54.3651 91.7891 54.4932 91.3948 54.5216V55.6108L90.8404 55.5996Z" fill="white" stroke="#263238" stroke-width="0.28" stroke-linecap="round" stroke-linejoin="round"/>
<path id="Vector_56" d="M66.5112 48.65L66.8164 62.7956L66.6932 72.8532L68.3396 72.6096C68.3396 72.6096 70.1092 63.1596 70.1092 62.6108C70.1092 62.062 71.0836 55.0508 71.0836 55.0508L72.912 64.134L73.8612 72.8504L75.5076 72.6068C75.5076 72.6068 75.7176 63.1568 75.7176 61.4516C75.7176 59.7464 75.6336 48.7676 75.6336 48.7676L70.4732 47.4292L66.5112 48.65Z" fill="#263238" stroke="#263238" stroke-width="0.28" stroke-linecap="round" stroke-linejoin="round"/>
<path id="Vector_57" d="M68.3396 72.6096C68.3396 72.6096 70.7784 74.1944 70.4144 74.5696C70.0504 74.9448 68.0344 74.5696 67.4856 74.508C67.2321 74.4981 66.9834 74.4361 66.7548 74.326L66.6932 72.8616L68.3396 72.6096Z" fill="white" stroke="#263238" stroke-width="0.28" stroke-linecap="round" stroke-linejoin="round"/>
<path id="Vector_58" d="M75.5076 72.6096C75.5076 72.6096 77.9464 74.1944 77.5796 74.5696C77.2128 74.9448 75.2024 74.5696 74.6536 74.508C74.4001 74.4981 74.1514 74.4361 73.9228 74.326L73.8612 72.8616L75.5076 72.6096Z" fill="white" stroke="#263238" stroke-width="0.28" stroke-linecap="round" stroke-linejoin="round"/>
<path id="Vector_59" d="M88.0768 39.9029L90.2748 39.3961C90.2748 39.3961 92.386 40.5161 92.5624 40.6757C92.7388 40.8353 92.386 40.8521 92.0024 40.8521C91.4009 40.7716 90.8052 40.6528 90.2188 40.4965C90.2188 40.4965 91.14 40.7765 90.9916 40.9137C90.9084 40.9782 90.8127 41.0248 90.7105 41.0503C90.6083 41.0759 90.5019 41.0799 90.398 41.0621C90.2496 41.0313 89.684 40.9417 89.684 40.9417C89.684 40.9417 88.704 40.9137 88.4072 40.8521L88.1104 40.7933L88.0768 39.9029Z" fill="white" stroke="#263238" stroke-width="0.28" stroke-linecap="round" stroke-linejoin="round"/>
<path id="Vector_60" d="M73.8584 31.1864C73.8584 31.1864 68.8576 33.9864 68.2136 34.79C67.5696 35.5936 67.354 39.6284 66.9228 42.4788C66.6408 44.6006 66.4791 46.7367 66.4384 48.8768C66.4384 48.8768 70.042 49.3612 72.0384 49.308C73.2566 49.2706 74.4661 49.0902 75.642 48.7704C75.642 48.7704 76.342 45.1668 76.5016 44.6292C76.6612 44.0916 77.9548 37.6292 77.9548 37.6292L81.9336 40.8016H88.0768V39.8916C88.0768 39.8916 83.216 38.7716 83.1628 38.5952C83.1096 38.4188 79.0216 32.5724 77.784 31.8752C76.5464 31.178 74.7208 30.5396 73.8584 31.1864Z" fill="#599BFE" stroke="#263238" stroke-width="0.28" stroke-linecap="round" stroke-linejoin="round"/>
<path id="Vector_61" d="M74.3428 29.6269L73.43 31.8305C73.43 31.8305 72.9988 31.9397 73.108 32.7993C73.2172 33.6589 74.2896 36.0781 74.6648 36.0249C75.04 35.9717 76.2244 32.7601 76.2244 32.7601L74.3428 29.6269Z" fill="white" stroke="#263238" stroke-width="0.28" stroke-linecap="round" stroke-linejoin="round"/>
<path id="Vector_62" d="M74.858 32.0601L75.2388 34.9973L75.9556 33.5525L74.858 32.0601Z" fill="#263238" stroke="#263238" stroke-width="0.28" stroke-linecap="round" stroke-linejoin="round"/>
<path id="Vector_63" d="M79.4528 28.336C79.6299 28.485 79.8488 28.5756 80.0795 28.5951C80.3101 28.6147 80.5412 28.5623 80.7408 28.4452C81.55 28.0672 81.9252 27.2608 81.2252 26.6168C80.5252 25.9728 80.15 26.67 79.9344 25.8104C79.7188 24.9508 78.8592 24.36 78.12 24.5728C77.3808 24.7856 77.6384 25.0572 77.1008 25.2168C76.5632 25.3764 75.8632 24.8948 75.1632 25.5948C74.4632 26.2948 74.3568 27.9608 74.1972 28.714C74.0376 29.4672 74.7348 29.68 75.3172 29.6268C75.8996 29.5736 76.3924 28.336 76.8768 27.9468C77.3612 27.5576 79.4528 28.336 79.4528 28.336Z" fill="#263238" stroke="#263238" stroke-width="0.28" stroke-linecap="round" stroke-linejoin="round"/>
<path id="Vector_64" d="M74.2364 29.8425C74.2364 29.8425 74.2896 31.0241 74.5164 31.4021C74.7432 31.7801 75.6364 33.5525 75.9668 33.5525C76.3113 33.5764 76.6572 33.5394 76.9888 33.4433C77.2044 33.3369 78.064 32.2085 78.6016 31.2397C79.1392 30.2709 79.464 28.3361 79.464 28.3361C79.464 28.3361 76.8824 26.7233 76.72 27.0453C76.5576 27.3673 76.6136 27.8517 76.3448 27.9049C76.076 27.9581 75.4852 28.0141 75.4852 28.0141C75.4852 28.0141 75.6448 28.7673 75.4292 28.9269C75.2136 29.0865 74.676 28.7673 74.676 28.7673C74.676 28.7673 74.0208 28.8737 74.2364 29.8425Z" fill="white" stroke="#263238" stroke-width="0.28" stroke-linecap="round" stroke-linejoin="round"/>
<path id="Vector_65" d="M77.2268 30.0328C77.1792 30.2372 77.0476 30.3828 76.9468 30.3576C76.846 30.3324 76.7788 30.142 76.8264 29.9376C76.874 29.7332 77.0056 29.5848 77.1204 29.6128C77.2352 29.6408 77.28 29.8284 77.2268 30.0328Z" fill="#263238"/>
<path id="Vector_66" d="M78.6324 30.4248C78.582 30.632 78.4532 30.7748 78.3384 30.7496C78.2236 30.7244 78.1704 30.534 78.218 30.3296C78.2656 30.1252 78.3972 29.9768 78.498 30.0048C78.5988 30.0328 78.68 30.2204 78.6324 30.4248Z" fill="#263238"/>
<path id="Vector_67" d="M76.6388 29.2629C76.6388 29.2629 76.8516 29.0921 77.4788 29.2629" stroke="#263238" stroke-width="0.28" stroke-linecap="round" stroke-linejoin="round"/>
<path id="Vector_68" d="M78.4225 29.6465C78.5347 29.6593 78.6429 29.6962 78.7395 29.7547C78.8362 29.8131 78.919 29.8918 78.9825 29.9853" stroke="#263238" stroke-width="0.28" stroke-linecap="round" stroke-linejoin="round"/>
<path id="Vector_69" d="M77.9548 30.4108L77.742 31.556L77.0644 31.472" stroke="#263238" stroke-width="0.28" stroke-linecap="round" stroke-linejoin="round"/>
<path id="Vector_70" d="M76.8517 32.1496C76.8517 32.1496 76.2133 32.1496 76.0117 31.2592" stroke="#263238" stroke-width="0.28" stroke-linecap="round" stroke-linejoin="round"/>
<g id="Vector_71">
<path d="M74.9336 29.2516C74.9336 29.2516 74.8272 28.014 74.3428 28.014C73.8584 28.014 73.43 29.134 73.6988 29.6268C73.9676 30.1196 74.6648 30.2708 74.6648 30.2708" fill="white"/>
<path d="M74.9336 29.2516C74.9336 29.2516 74.8272 28.014 74.3428 28.014C73.8584 28.014 73.43 29.134 73.6988 29.6268C73.9676 30.1196 74.6648 30.2708 74.6648 30.2708" stroke="#263238" stroke-width="0.28" stroke-linecap="round" stroke-linejoin="round"/>
</g>
<g id="Vector_72">
<path d="M70.6441 35.7533L71.5765 43.4813L79.4165 46.1609L79.5397 47.0681L69.0565 45.6401L67.3765 36.9433C67.1721 35.8877 67.7153 34.7425 68.4685 34.1013C69.2217 33.4601 70.4033 33.4265 70.4033 33.4265" fill="#599BFE"/>
<path d="M70.6441 35.7533L71.5765 43.4813L79.4165 46.1609L79.5397 47.0681L69.0565 45.6401L67.3765 36.9433C67.1721 35.8877 67.7153 34.7425 68.4685 34.1013C69.2217 33.4601 70.4033 33.4265 70.4033 33.4265" stroke="#263238" stroke-width="0.28" stroke-linecap="round" stroke-linejoin="round"/>
</g>
<path id="Vector_73" d="M79.4052 46.1608C79.4052 46.1608 80.654 45.8108 80.8052 45.78C80.9564 45.7492 81.8048 46.4072 81.9728 46.4296C82.1408 46.452 82.4264 46.5052 82.4124 46.7264C82.3984 46.9476 82.3256 47.1268 81.9168 46.9868C81.6841 46.911 81.4576 46.8174 81.2392 46.7068C81.6234 47.0999 82.0311 47.4692 82.46 47.8128C82.6146 47.9097 82.7558 48.0264 82.88 48.16C82.899 48.1803 82.913 48.2047 82.9207 48.2314C82.9285 48.2581 82.9298 48.2862 82.9246 48.3135C82.9194 48.3408 82.9079 48.3665 82.8909 48.3884C82.8739 48.4104 82.8519 48.4281 82.8268 48.44C82.492 48.5994 82.1301 48.6944 81.76 48.72C81.1608 48.72 79.52 47.0708 79.52 47.0708L79.4052 46.1608Z" fill="white" stroke="#263238" stroke-width="0.28" stroke-linecap="round" stroke-linejoin="round"/>
</g>
<g id="freepik--piggy-bank--inject-9">
<path id="Vector_74" d="M128.296 69.0928C128.296 69.0928 136.31 64.5736 137.477 65.0104C138.645 65.4472 136.455 74.3372 136.164 74.9196C135.873 75.502 128.296 69.0928 128.296 69.0928Z" fill="#599BFE" stroke="#263238" stroke-width="0.28" stroke-linecap="round" stroke-linejoin="round"/>
<path id="Vector_75" d="M137.038 66.178C137.038 66.178 136.69 66.7184 136.248 67.4968C135.475 68.8576 134.417 70.9464 134.417 72.1532C134.417 74.046 135.582 73.9004 135.873 72.4332L136.892 68.2052" stroke="#263238" stroke-width="0.28" stroke-linecap="round" stroke-linejoin="round"/>
<path id="Vector_76" d="M69.6809 92.8032C71.8783 92.8032 73.6597 90.4841 73.6597 87.6232C73.6597 84.7624 71.8783 82.4432 69.6809 82.4432C67.4835 82.4432 65.7021 84.7624 65.7021 87.6232C65.7021 90.4841 67.4835 92.8032 69.6809 92.8032Z" fill="#599BFE" stroke="#263238" stroke-width="0.28" stroke-linecap="round" stroke-linejoin="round"/>
<path id="Vector_77" d="M105.745 124.793C126.683 124.793 143.657 110.423 143.657 92.6969C143.657 74.9705 126.683 60.6005 105.745 60.6005C84.8066 60.6005 67.8328 74.9705 67.8328 92.6969C67.8328 110.423 84.8066 124.793 105.745 124.793Z" fill="#599BFE" stroke="#263238" stroke-width="0.28" stroke-linecap="round" stroke-linejoin="round"/>
<g id="Vector_78">
<path d="M130.368 114.822C123.928 119.952 115.276 123.096 105.745 123.096C88.7349 123.096 74.4857 113.081 70.7785 99.6353" fill="#599BFE"/>
<path d="M130.368 114.822C123.928 119.952 115.276 123.096 105.745 123.096C88.7349 123.096 74.4857 113.081 70.7785 99.6353" stroke="#263238" stroke-width="0.56" stroke-linecap="round" stroke-linejoin="round"/>
</g>
<g id="Vector_79">
<path d="M69.8601 93.7048C69.8461 93.3716 69.8405 93.0356 69.8405 92.6968C69.8414 89.0315 70.6102 85.407 72.0973 82.0568" fill="#599BFE"/>
<path d="M69.8601 93.7048C69.8461 93.3716 69.8405 93.0356 69.8405 92.6968C69.8414 89.0315 70.6102 85.407 72.0973 82.0568" stroke="#263238" stroke-width="0.56" stroke-linecap="round" stroke-linejoin="round"/>
</g>
<path id="Vector_80" d="M94.3601 64.134C101.821 62.0247 109.72 62.0247 117.18 64.134" stroke="#263238" stroke-width="1.4" stroke-linecap="round" stroke-linejoin="round"/>
<g id="Vector_81">
<path d="M141.557 82.7904C141.557 82.7904 146.367 81.186 147.095 82.0624C147.823 82.9388 147.823 93.1364 147.241 95.032C146.658 96.9276 142.722 96.488 139.961 94.4496C139.169 93.8938 138.529 93.1498 138.097 92.2846C137.665 91.4194 137.455 90.4602 137.486 89.4936" fill="#599BFE"/>
<path d="M141.557 82.7904C141.557 82.7904 146.367 81.186 147.095 82.0624C147.823 82.9388 147.823 93.1364 147.241 95.032C146.658 96.9276 142.722 96.488 139.961 94.4496C139.169 93.8938 138.529 93.1498 138.097 92.2846C137.665 91.4194 137.455 90.4602 137.486 89.4936" stroke="#263238" stroke-width="0.28" stroke-linecap="round" stroke-linejoin="round"/>
</g>
<path id="Vector_82" d="M138.642 89.0568L135.727 89.4936" stroke="#263238" stroke-width="0.28" stroke-linecap="round" stroke-linejoin="round"/>
<path id="Vector_83" d="M137.914 92.2629C137.914 92.2629 137.186 97.3645 138.06 97.5101C138.933 97.6557 140.392 95.0321 140.392 95.0321C140.392 95.0321 138.351 92.6997 137.914 92.2629Z" fill="#263238" stroke="#263238" stroke-width="0.28" stroke-linecap="round" stroke-linejoin="round"/>
<path id="Vector_84" d="M135.262 80.3152C135.542 81.3652 135.372 82.3172 134.904 82.4376C134.436 82.558 133.84 81.802 133.568 80.7576C133.297 79.7132 133.459 78.7556 133.927 78.6352C134.394 78.5148 134.994 79.2624 135.262 80.3152Z" fill="#263238"/>
<g id="Vector_85">
<path d="M119.949 66.1921C119.949 66.1921 129.119 57.0221 130.908 58.8113C132.698 60.6005 132.028 68.4293 132.028 69.5493V72.6797" fill="#599BFE"/>
<path d="M119.949 66.1921C119.949 66.1921 129.119 57.0221 130.908 58.8113C132.698 60.6005 132.028 68.4293 132.028 69.5493V72.6797" stroke="#263238" stroke-width="0.28" stroke-linecap="round" stroke-linejoin="round"/>
</g>
<path id="Vector_86" d="M131.211 60.7852C131.211 60.7852 131.356 58.4528 130.334 59.9116C129.312 61.3704 126.4 71.4224 127.274 72.59C128.148 73.7576 130.634 73.1724 131.211 70.9856C131.788 68.7988 131.356 62.5324 131.356 62.5324" stroke="#263238" stroke-width="0.28" stroke-linecap="round" stroke-linejoin="round"/>
<g id="Vector_87">
<path d="M81.0153 113.971L86.0329 127.532H91.5713L94.0465 120.534" fill="#599BFE"/>
<path d="M81.0153 113.971L86.0329 127.532H91.5713L94.0465 120.534" stroke="#263238" stroke-width="0.28" stroke-linecap="round" stroke-linejoin="round"/>
</g>
<g id="Vector_88">
<path d="M127.274 115.727L122.466 127.532H116.928L114.45 120.534" fill="#599BFE"/>
<path d="M127.274 115.727L122.466 127.532H116.928L114.45 120.534" stroke="#263238" stroke-width="0.28" stroke-linecap="round" stroke-linejoin="round"/>
</g>
<path id="Vector_89" d="M103.894 108.595V105.764C101.805 105.682 100.244 105.013 99.2097 103.757C98.1755 102.501 97.6155 100.625 97.5297 98.1288L101.822 97.398C101.84 98.2533 101.947 99.1044 102.141 99.9376C102.254 100.506 102.523 101.033 102.917 101.458C103.095 101.627 103.305 101.759 103.535 101.846C103.765 101.932 104.01 101.972 104.255 101.962C104.882 101.962 105.314 101.76 105.549 101.352C105.788 100.924 105.909 100.441 105.899 99.9516C105.931 99.0318 105.68 98.1242 105.182 97.3504C104.625 96.5625 103.966 95.8517 103.222 95.2364L100.635 93.0132C100.07 92.4894 99.5419 91.9281 99.0529 91.3332C98.573 90.7468 98.1944 90.0844 97.9329 89.3732C97.6419 88.5424 97.5025 87.6661 97.5213 86.786C97.5213 84.882 98.0644 83.3971 99.1508 82.3312C100.237 81.2654 101.692 80.6615 103.516 80.5196V77.84H105V80.5476C105.945 80.5667 106.87 80.8228 107.691 81.2924C108.356 81.6941 108.906 82.2601 109.29 82.936C109.66 83.6127 109.926 84.3415 110.079 85.0976C110.234 85.8434 110.333 86.5996 110.376 87.36L106.025 87.9984C106.012 87.3304 105.952 86.6641 105.843 86.0048C105.774 85.5138 105.581 85.0484 105.283 84.6524C105.132 84.4839 104.943 84.3544 104.731 84.2749C104.52 84.1954 104.292 84.1683 104.068 84.196C103.814 84.1924 103.563 84.2516 103.337 84.3684C103.111 84.4851 102.918 84.6558 102.774 84.8652C102.481 85.2845 102.327 85.7847 102.332 86.296C102.295 87.0973 102.532 87.8873 103.004 88.536C103.467 89.1228 103.975 89.6724 104.524 90.1796L107.044 92.3692C107.722 92.9813 108.349 93.647 108.92 94.36C109.491 95.0749 109.952 95.8703 110.289 96.7204C110.648 97.665 110.822 98.6698 110.802 99.68C110.815 100.696 110.591 101.701 110.146 102.614C109.722 103.486 109.071 104.228 108.262 104.762C107.391 105.326 106.391 105.66 105.356 105.734V108.595H103.894Z" fill="#263238"/>
<path id="Vector_90" opacity="0.35" d="M114.657 92.33C119.692 92.33 123.774 88.3774 123.774 83.5016C123.774 78.6258 119.692 74.6732 114.657 74.6732C109.622 74.6732 105.54 78.6258 105.54 83.5016C105.54 88.3774 109.622 92.33 114.657 92.33Z" fill="white"/>
</g>
<g id="freepik--Floor--inject-9">
<path id="Vector_91" d="M4.48843 127.532H206.461" stroke="#263238" stroke-width="0.28" stroke-linecap="round" stroke-linejoin="round"/>
</g>
</g>
</svg>
