<svg width="350" height="330" viewBox="0 0 350 330" fill="none" xmlns="http://www.w3.org/2000/svg">
<mask id="mask0_519_42583" style="mask-type:luminance" maskUnits="userSpaceOnUse" x="0" y="0" width="525" height="350">
<path d="M0 5.96046e-06H525V350H0V5.96046e-06Z" fill="white"/>
</mask>
<g mask="url(#mask0_519_42583)">
<path d="M464.569 139.619C457.583 128.719 449.622 118.403 440.356 109.396C421.508 91.0702 397.486 79.8667 372.699 71.8888C370.718 71.2518 368.73 70.6393 366.734 70.0492C287.377 46.5873 185.938 84.5406 154.195 123.874C122.452 163.208 67.2467 170.109 40.3345 218.414C13.4216 266.717 43.0945 317.092 43.0945 317.092H485.425C485.425 317.092 513.028 281.209 506.127 241.185C501.721 215.634 491.853 191.496 480.511 168.314C475.769 158.623 470.524 148.909 464.569 139.619Z" fill="#599BFE"/>
<mask id="mask1_519_42583" style="mask-type:luminance" maskUnits="userSpaceOnUse" x="29" y="62" width="479" height="256">
<path d="M29.0505 62.8356H507.236V317.092H29.0505V62.8356Z" fill="white"/>
</mask>
<g mask="url(#mask1_519_42583)">
<g opacity="0.699997">
<path d="M464.57 139.619C457.584 128.719 449.622 118.403 440.357 109.396C421.508 91.0702 397.486 79.8667 372.699 71.8888C370.718 71.2518 368.73 70.6393 366.734 70.0492C287.377 46.5873 185.938 84.5406 154.195 123.874C122.452 163.208 67.2468 170.109 40.3346 218.414C13.4217 266.717 43.0947 317.092 43.0947 317.092H485.425C485.425 317.092 513.028 281.209 506.127 241.185C501.721 215.634 491.853 191.496 480.511 168.314C475.77 158.623 470.524 148.909 464.57 139.619Z" fill="white"/>
</g>
</g>
</g>
<mask id="mask2_519_42583" style="mask-type:luminance" maskUnits="userSpaceOnUse" x="0" y="0" width="525" height="350">
<path d="M0 5.96046e-06H525V350H0V5.96046e-06Z" fill="white"/>
</mask>
<g mask="url(#mask2_519_42583)">
<path d="M100.456 87.8523C100.514 87.8859 101.468 83.5676 101.497 83.2876C101.831 80.0543 100.577 73.6101 97.2454 72.1436C94.8451 71.0866 92.2551 72.551 91.4781 74.9443C90.685 77.3887 91.9037 80.3105 93.2939 82.3013C94.9263 84.6379 100.452 87.8502 100.456 87.8523Z" fill="#1A2E35"/>
<path d="M35.8157 88.7285C38.4666 89.7771 44.8478 89.4075 44.8527 89.4075C44.9185 89.4033 43.3323 85.2754 43.2028 85.0262C41.6978 82.145 37.0967 77.462 33.5078 78.0759C30.9234 78.519 29.571 81.1692 30.2437 83.594C30.9304 86.0706 33.5582 87.8353 35.8157 88.7285Z" fill="#1A2E35"/>
<path d="M38.6725 107.147C41.3941 107.447 47.0347 105.593 47.4834 105.443C48.4956 108.602 49.7906 111.76 51.2774 114.885C52.1251 116.672 53.0351 118.447 53.9696 120.213C53.4229 119.47 52.9287 118.81 52.8496 118.725C50.6369 116.342 44.962 113.041 41.6636 114.582C39.2871 115.691 38.683 118.604 39.9717 120.766C41.2884 122.972 44.2893 123.981 46.7029 124.246C49.1515 124.515 53.9927 123.031 55.2681 122.621C55.6335 123.296 55.9912 123.973 56.3594 124.645C58.1262 127.873 59.9028 131.086 61.5485 134.291C62.1295 135.421 62.6594 136.554 63.1942 137.686C62.7077 137.027 62.2926 136.475 62.2205 136.397C60.0085 134.016 54.3336 130.714 51.0352 132.254C48.6587 133.364 48.0539 136.277 49.3433 138.439C50.66 140.645 53.6609 141.654 56.0738 141.918C58.4111 142.176 62.8918 140.846 64.4101 140.366C64.9225 141.542 65.4384 142.718 65.8815 143.881C66.1664 144.682 66.4968 145.433 66.7383 146.253C66.9945 147.061 67.2479 147.859 67.4992 148.65C67.9269 150.191 68.3777 151.779 68.7571 153.293C69.0294 154.344 69.2688 155.351 69.5131 156.364C68.9489 155.233 67.796 153.043 67.6791 152.871C65.8535 150.181 60.7442 146.058 57.2505 147.081C54.7333 147.818 53.6938 150.605 54.6409 152.937C55.6083 155.318 58.4216 156.77 60.7666 157.397C63.3489 158.088 68.9804 157.174 69.6832 157.056C70.0822 158.734 70.4539 160.37 70.7794 161.919C71.9204 167.274 72.6666 171.779 73.1461 174.939L75.6129 174.853C75.5968 174.757 75.5828 174.671 75.5653 174.573C75.0109 171.386 74.1562 166.844 72.885 161.448C72.4874 159.743 72.0275 157.928 71.5389 156.069C71.9575 155.885 74.3361 154.824 76.4312 153.554C78.3646 155.505 83.2191 157.696 83.8477 157.975C83.2541 159.595 82.6619 161.164 82.0788 162.637C80.0747 167.736 78.2106 171.908 76.8666 174.809L79.5749 174.713C80.816 171.834 82.4071 167.986 84.0941 163.405C84.7031 161.763 85.3219 159.996 85.9386 158.175C86.6281 158.294 92.268 159.234 94.8573 158.553C97.2044 157.934 100.024 156.494 101.001 154.117C101.957 151.79 100.929 148.997 98.4147 148.251C94.9252 147.214 89.7998 151.317 87.9637 153.999C87.8545 154.156 86.871 156.004 86.2697 157.181C86.5182 156.436 86.7674 155.715 87.0138 154.945C87.5115 153.426 87.963 151.894 88.4544 150.248C88.6644 149.446 88.8758 148.634 89.0893 147.815C89.3196 147.007 89.4589 146.125 89.6493 145.273C90.0483 143.287 90.3563 141.255 90.6216 139.202C91.9537 139.634 96.7046 141.1 99.1308 140.845C101.544 140.588 104.549 139.592 105.875 137.391C107.172 135.235 106.58 132.319 104.208 131.199C100.916 129.647 95.2276 132.925 93.0058 135.298C92.8665 135.446 91.4644 137.328 90.7133 138.376C90.8631 137.141 91.0192 135.907 91.1291 134.653C91.4497 131.03 91.6618 127.353 91.8886 123.685C91.9579 122.561 92.0405 121.443 92.1182 120.323C92.59 120.482 98.2012 122.348 100.917 122.061C103.331 121.805 106.337 120.808 107.662 118.607C108.959 116.451 108.367 113.535 105.995 112.416C102.703 110.863 97.014 114.142 94.7922 116.515C94.6256 116.693 92.611 119.404 92.1322 120.119C92.3051 117.652 92.5004 115.195 92.7909 112.782C93.1878 109.45 93.7611 106.204 94.5486 103.1C94.7691 103.174 100.615 105.148 103.397 104.854C105.812 104.599 108.817 103.602 110.142 101.4C111.44 99.2442 110.847 96.3287 108.475 95.2094C105.183 93.6561 99.4948 96.9349 97.273 99.3072C97.1274 99.4633 95.5909 101.526 94.8825 102.525C94.7789 102.476 94.7978 102.485 94.6942 102.436C95.5783 99.121 96.853 96.0207 98.1879 93.178C98.9586 91.5302 99.7874 89.9979 100.627 88.5251C101.678 89.0046 106.506 91.1417 109.039 91.1536C111.468 91.1648 114.564 90.5047 116.123 88.4621C117.649 86.4615 117.38 83.4984 115.145 82.1257C112.044 80.2196 106.03 82.8544 103.561 84.9684C103.427 85.0832 102.191 86.4041 101.305 87.3778C101.694 86.7191 102.083 86.0317 102.469 85.408C103.91 83.0623 105.374 81.0036 106.685 79.1906C107.44 78.1651 108.141 77.253 108.807 76.4067C110.084 76.3388 115.226 76.0007 117.44 74.8646C119.599 73.7558 122.043 71.7433 122.486 69.2121C122.919 66.7327 121.314 64.2274 118.699 64.0391C115.068 63.7766 110.945 68.8859 109.727 71.9001C109.622 72.1612 108.446 76.4235 108.512 76.4207C108.512 76.4207 108.574 76.4179 108.59 76.4172C107.933 77.2187 107.237 78.0853 106.497 79.0478C105.143 80.8363 103.63 82.8691 102.132 85.1931C100.63 87.5108 99.0622 90.0715 97.6559 92.9177C96.2412 95.7688 94.8986 98.8396 93.9256 102.184C93.9144 102.221 93.9074 102.262 93.8969 102.3C93.8773 101.234 93.7254 98.2537 93.6876 98.0262C93.1563 94.8195 90.2443 88.9346 86.6435 88.3991C84.0493 88.0141 81.9381 90.1106 81.8212 92.6243C81.7015 95.1912 83.6475 97.6881 85.5144 99.2407C87.62 100.991 93.3474 102.557 93.8038 102.68C92.9057 105.873 92.2435 109.221 91.7591 112.648C91.4805 114.606 91.2607 116.588 91.0654 118.577C91.0199 117.656 90.9716 116.832 90.9527 116.718C90.4207 113.51 87.5094 107.627 83.9086 107.091C81.3144 106.706 79.2032 108.802 79.0863 111.316C78.9666 113.883 80.9133 116.38 82.7802 117.932C84.6737 119.507 89.5303 120.94 90.8204 121.302C90.7532 122.066 90.6783 122.828 90.6146 123.592C90.3066 127.258 90.0161 130.919 89.6206 134.5C89.482 135.763 89.2986 137 89.1201 138.239C89.0781 137.422 89.0368 136.732 89.0193 136.628C88.488 133.421 85.5767 127.536 81.9752 127.001C79.381 126.616 77.2698 128.712 77.1529 131.226C77.0339 133.793 78.9806 136.29 80.8475 137.842C82.6549 139.346 87.1251 140.708 88.656 141.146C88.4341 142.409 88.2157 143.675 87.9441 144.889C87.7404 145.714 87.6011 146.523 87.3505 147.341C87.1188 148.155 86.8892 148.96 86.6631 149.759C86.1689 151.28 85.6698 152.853 85.1504 154.326C84.7976 155.353 84.442 156.324 84.0871 157.304C84.2404 156.049 84.4875 153.587 84.4847 153.379C84.4588 151.219 83.5684 147.737 81.9556 145.325C81.9542 145.006 81.9241 144.689 81.8625 144.375C81.376 141.906 78.9785 140.145 76.4697 140.908C72.9865 141.969 70.9747 148.218 70.9222 151.468C70.9194 151.66 71.1189 153.744 71.2659 155.057C71.0622 154.299 70.8725 153.56 70.6527 152.782C70.2299 151.24 69.7616 149.714 69.2639 148.069C68.9958 147.285 68.7249 146.491 68.4512 145.69C68.1971 144.889 67.8261 144.076 67.5153 143.26C66.7523 141.384 65.8885 139.519 64.9771 137.66C66.326 137.286 71.0986 135.889 72.9795 134.336C74.8527 132.791 76.8085 130.303 76.7 127.735C76.5929 125.221 74.4901 123.116 71.8945 123.492C68.2916 124.012 65.3558 129.884 64.8119 133.089C64.7776 133.289 64.646 135.632 64.5991 136.922C64.0412 135.808 63.4917 134.694 62.8918 133.586C61.16 130.388 59.3078 127.204 57.4745 124.019C56.9117 123.044 56.3636 122.066 55.8106 121.089C56.2922 120.961 62.0007 119.422 64.1077 117.684C65.9809 116.139 67.9374 113.65 67.8282 111.083C67.7218 108.569 65.619 106.464 63.0227 106.839C59.4198 107.359 56.4847 113.232 55.9401 116.437C55.8995 116.678 55.7147 120.051 55.7091 120.911C54.4932 118.758 53.3004 116.601 52.2112 114.427C50.7041 111.431 49.3916 108.406 48.3367 105.383C48.5607 105.324 54.5261 103.745 56.6842 101.964C58.5574 100.419 60.5139 97.9303 60.4047 95.3627C60.2983 92.8483 58.1948 90.7435 55.5992 91.1194C51.9963 91.6395 49.0605 97.5124 48.5166 100.716C48.4809 100.927 48.3374 103.498 48.2975 104.721C48.1848 104.737 48.2058 104.734 48.0924 104.75C47.0004 101.497 46.3529 98.2082 45.8993 95.1002C45.6319 93.3005 45.4779 91.5652 45.3659 89.8733C46.5069 89.6934 51.7128 88.8129 53.8324 87.4247C55.8638 86.0947 58.0814 83.8358 58.2557 81.2724C58.4251 78.7615 56.5659 76.4382 53.9444 76.5257C50.3065 76.6475 46.7442 82.1628 45.851 85.2883C45.8027 85.4577 45.5003 87.2406 45.298 88.5419C45.2595 87.7782 45.2056 86.99 45.1825 86.2571C45.0901 83.5061 45.1755 80.9812 45.2686 78.7447C45.3323 77.4735 45.4149 76.3262 45.5031 75.2531C46.5307 74.4915 50.6334 71.373 51.8528 69.2044C53.0428 67.0883 53.9703 64.0616 52.9434 61.7061C51.9368 59.3995 49.2159 58.1948 46.9304 59.48C43.7573 61.265 43.1371 67.8009 43.7846 70.9866C43.8413 71.2617 45.2112 75.4666 45.2658 75.4274C45.2658 75.4274 45.3162 75.3903 45.3274 75.3819C45.2217 76.413 45.1202 77.5197 45.0334 78.7307C44.8913 80.9686 44.7506 83.4991 44.7828 86.2634C44.8087 89.0249 44.9144 92.0258 45.3106 95.1758C45.704 98.3342 46.2787 101.637 47.3105 104.963C47.3224 105 47.3392 105.037 47.3511 105.075C46.747 104.197 44.976 101.795 44.8192 101.626C42.6072 99.2442 36.9323 95.943 33.6332 97.4823C31.2574 98.5925 30.6519 101.505 31.942 103.667C33.2587 105.874 36.2589 106.883 38.6725 107.147Z" fill="#1A2E35"/>
<mask id="mask3_519_42583" style="mask-type:luminance" maskUnits="userSpaceOnUse" x="30" y="78" width="15" height="12">
<path d="M30.0729 78.0215H44.8555V89.4707H30.0729V78.0215Z" fill="white"/>
</mask>
<g mask="url(#mask3_519_42583)">
<g opacity="0.300003">
<path d="M35.8179 88.7285C38.4688 89.7771 44.85 89.4075 44.8549 89.4075C44.9207 89.4033 43.3345 85.2754 43.205 85.0262C41.7 82.145 37.0989 77.462 33.51 78.0759C30.9256 78.519 29.5732 81.1692 30.2459 83.594C30.9326 86.0706 33.5604 87.8353 35.8179 88.7285Z" fill="#1A2E35"/>
</g>
</g>
<mask id="mask4_519_42583" style="mask-type:luminance" maskUnits="userSpaceOnUse" x="91" y="71" width="11" height="17">
<path d="M91.2273 71.7952H101.549V87.8525H91.2273V71.7952Z" fill="white"/>
</mask>
<g mask="url(#mask4_519_42583)">
<g opacity="0.300003">
<path d="M100.457 87.8523C100.515 87.8859 101.468 83.5676 101.498 83.2876C101.832 80.0543 100.577 73.6101 97.2459 72.1436C94.8456 71.0866 92.2556 72.551 91.4786 74.9443C90.6855 77.3887 91.9042 80.3105 93.2944 82.3013C94.9268 84.6379 100.453 87.8502 100.457 87.8523Z" fill="#1A2E35"/>
</g>
</g>
<mask id="mask5_519_42583" style="mask-type:luminance" maskUnits="userSpaceOnUse" x="31" y="58" width="92" height="117">
<path d="M31.2784 58.9557H122.556V174.939H31.2784V58.9557Z" fill="white"/>
</mask>
<g mask="url(#mask5_519_42583)">
<g opacity="0.300003">
<path d="M38.6732 107.147C41.3948 107.447 47.0354 105.593 47.4841 105.443C48.4963 108.602 49.7913 111.76 51.2781 114.885C52.1258 116.672 53.0358 118.447 53.9703 120.213C53.4236 119.47 52.9294 118.81 52.8503 118.725C50.6376 116.342 44.9627 113.041 41.6643 114.582C39.2878 115.691 38.6837 118.604 39.9724 120.766C41.2891 122.972 44.29 123.981 46.7036 124.246C49.1522 124.515 53.9934 123.031 55.2688 122.621C55.6342 123.296 55.9919 123.973 56.3601 124.645C58.1269 127.873 59.9035 131.086 61.5492 134.291C62.1302 135.421 62.6601 136.554 63.1949 137.686C62.7084 137.027 62.2933 136.475 62.2212 136.397C60.0092 134.016 54.3343 130.714 51.0359 132.254C48.6594 133.364 48.0546 136.277 49.344 138.439C50.6607 140.645 53.6616 141.654 56.0745 141.918C58.4118 142.176 62.8925 140.846 64.4108 140.366C64.9232 141.542 65.4391 142.718 65.8822 143.881C66.1671 144.682 66.4975 145.433 66.739 146.253C66.9952 147.061 67.2486 147.859 67.4999 148.65C67.9276 150.191 68.3784 151.779 68.7578 153.293C69.0301 154.344 69.2695 155.351 69.5138 156.364C68.9496 155.233 67.7967 153.043 67.6798 152.871C65.8542 150.181 60.7449 146.058 57.2512 147.081C54.734 147.818 53.6945 150.605 54.6416 152.937C55.609 155.318 58.4223 156.77 60.7673 157.397C63.3496 158.088 68.9811 157.174 69.6839 157.056C70.0829 158.734 70.4546 160.37 70.7801 161.919C71.9211 167.274 72.6673 171.779 73.1468 174.939L75.6136 174.853C75.5975 174.757 75.5835 174.671 75.566 174.573C75.0116 171.386 74.1569 166.844 72.8857 161.448C72.4881 159.743 72.0282 157.928 71.5396 156.069C71.9582 155.885 74.3368 154.824 76.4319 153.554C78.3653 155.505 83.2198 157.696 83.8484 157.975C83.2548 159.595 82.6626 161.164 82.0795 162.637C80.0754 167.736 78.2113 171.908 76.8673 174.809L79.5756 174.713C80.8167 171.834 82.4078 167.986 84.0948 163.405C84.7038 161.763 85.3226 159.996 85.9393 158.175C86.6288 158.294 92.2687 159.234 94.858 158.553C97.2051 157.934 100.025 156.494 101.002 154.117C101.958 151.79 100.93 148.997 98.4154 148.251C94.9259 147.214 89.8005 151.317 87.9644 153.999C87.8552 154.156 86.8717 156.004 86.2704 157.181C86.5189 156.436 86.7681 155.715 87.0145 154.945C87.5122 153.426 87.9637 151.894 88.4551 150.248C88.6651 149.446 88.8765 148.634 89.09 147.815C89.3203 147.007 89.4596 146.125 89.65 145.273C90.049 143.287 90.357 141.255 90.6223 139.202C91.9544 139.634 96.7053 141.1 99.1315 140.845C101.545 140.588 104.55 139.592 105.876 137.391C107.173 135.235 106.581 132.319 104.209 131.199C100.917 129.647 95.2283 132.925 93.0065 135.298C92.8672 135.446 91.4651 137.328 90.714 138.376C90.8638 137.141 91.0199 135.907 91.1298 134.653C91.4504 131.03 91.6625 127.353 91.8893 123.685C91.9586 122.561 92.0412 121.443 92.1189 120.323C92.5907 120.482 98.2019 122.348 100.918 122.061C103.332 121.805 106.337 120.808 107.662 118.607C108.96 116.451 108.367 113.535 105.996 112.416C102.704 110.863 97.0147 114.142 94.7929 116.515C94.6263 116.693 92.6117 119.404 92.1329 120.119C92.3058 117.652 92.5011 115.195 92.7916 112.782C93.1885 109.45 93.7618 106.204 94.5493 103.1C94.7698 103.174 100.616 105.148 103.398 104.854C105.813 104.599 108.817 103.602 110.143 101.4C111.441 99.2442 110.848 96.3287 108.476 95.2094C105.184 93.6561 99.4955 96.9349 97.2737 99.3072C97.1281 99.4633 95.5916 101.526 94.8832 102.525C94.7796 102.476 94.7985 102.485 94.6949 102.436C95.579 99.121 96.8537 96.0207 98.1886 93.178C98.9593 91.5302 99.7881 89.9979 100.627 88.5251C101.679 89.0046 106.507 91.1417 109.04 91.1536C111.468 91.1648 114.564 90.5047 116.123 88.4621C117.65 86.4615 117.381 83.4984 115.146 82.1257C112.044 80.2196 106.031 82.8544 103.562 84.9684C103.428 85.0832 102.192 86.4041 101.306 87.3778C101.695 86.7191 102.084 86.0317 102.47 85.408C103.91 83.0623 105.375 81.0036 106.686 79.1906C107.441 78.1651 108.142 77.253 108.808 76.4067C110.085 76.3388 115.227 76.0007 117.441 74.8646C119.6 73.7558 122.044 71.7433 122.486 69.2121C122.92 66.7327 121.315 64.2274 118.699 64.0391C115.068 63.7766 110.945 68.8859 109.728 71.9001C109.623 72.1612 108.446 76.4235 108.513 76.4207C108.513 76.4207 108.575 76.4179 108.591 76.4172C107.933 77.2187 107.238 78.0853 106.498 79.0478C105.144 80.8363 103.63 82.8691 102.133 85.1931C100.631 87.5108 99.0629 90.0715 97.6566 92.9177C96.2419 95.7688 94.8993 98.8396 93.9263 102.184C93.9151 102.221 93.9081 102.262 93.8976 102.3C93.878 101.234 93.7261 98.2537 93.6883 98.0262C93.157 94.8195 90.245 88.9346 86.6442 88.3991C84.05 88.0141 81.9388 90.1106 81.8219 92.6243C81.7022 95.1912 83.6482 97.6881 85.5151 99.2407C87.6207 100.991 93.3481 102.557 93.8045 102.68C92.9064 105.873 92.2442 109.221 91.7598 112.648C91.4812 114.606 91.2614 116.588 91.0661 118.577C91.0206 117.656 90.9723 116.832 90.9534 116.718C90.4214 113.51 87.5101 107.627 83.9093 107.091C81.3151 106.706 79.2039 108.802 79.087 111.316C78.9673 113.883 80.914 116.38 82.7809 117.932C84.6744 119.507 89.531 120.94 90.8211 121.302C90.7539 122.066 90.679 122.828 90.6153 123.592C90.3073 127.258 90.0168 130.919 89.6213 134.5C89.4827 135.763 89.2993 137 89.1208 138.239C89.0788 137.422 89.0375 136.732 89.02 136.628C88.4887 133.421 85.5774 127.536 81.9759 127.001C79.3817 126.616 77.2705 128.712 77.1536 131.226C77.0346 133.793 78.9813 136.29 80.8482 137.842C82.6556 139.346 87.1258 140.708 88.6567 141.146C88.4348 142.409 88.2164 143.675 87.9448 144.889C87.7411 145.714 87.6018 146.523 87.3512 147.341C87.1195 148.155 86.8899 148.96 86.6638 149.759C86.1696 151.28 85.6705 152.853 85.1511 154.326C84.7983 155.353 84.4427 156.324 84.0878 157.304C84.2411 156.049 84.4882 153.587 84.4854 153.379C84.4595 151.219 83.5691 147.737 81.9563 145.325C81.9549 145.006 81.9248 144.689 81.8632 144.375C81.3767 141.906 78.9792 140.145 76.4704 140.908C72.9872 141.969 70.9754 148.218 70.9229 151.468C70.9201 151.66 71.1196 153.744 71.2666 155.057C71.0629 154.299 70.8732 153.56 70.6534 152.782C70.2306 151.24 69.7623 149.714 69.2646 148.069C68.9965 147.285 68.7256 146.491 68.4519 145.69C68.1978 144.889 67.8268 144.076 67.516 143.26C66.753 141.384 65.8892 139.519 64.9778 137.66C66.3267 137.286 71.0993 135.889 72.9802 134.336C74.8534 132.791 76.8092 130.303 76.7007 127.735C76.5936 125.221 74.4908 123.116 71.8952 123.492C68.2923 124.012 65.3565 129.884 64.8126 133.089C64.7783 133.289 64.6467 135.632 64.5998 136.922C64.0419 135.808 63.4924 134.694 62.8925 133.586C61.1607 130.388 59.3085 127.204 57.4752 124.019C56.9124 123.044 56.3643 122.066 55.8113 121.089C56.2929 120.961 62.0014 119.422 64.1084 117.684C65.9816 116.139 67.9381 113.65 67.8289 111.083C67.7225 108.569 65.6197 106.464 63.0234 106.839C59.4205 107.359 56.4854 113.232 55.9408 116.437C55.9002 116.678 55.7154 120.051 55.7098 120.911C54.4939 118.758 53.3011 116.601 52.2119 114.427C50.7048 111.431 49.3923 108.406 48.3374 105.383C48.5614 105.324 54.5268 103.745 56.6849 101.964C58.5581 100.419 60.5146 97.9303 60.4054 95.3627C60.299 92.8483 58.1955 90.7435 55.5999 91.1194C51.997 91.6395 49.0612 97.5124 48.5173 100.716C48.4816 100.927 48.3381 103.498 48.2982 104.721C48.1855 104.737 48.2065 104.734 48.0931 104.75C47.0011 101.497 46.3536 98.2082 45.9 95.1002C45.6326 93.3005 45.4786 91.5652 45.3666 89.8733C46.5076 89.6934 51.7135 88.8129 53.8331 87.4247C55.8645 86.0947 58.0821 83.8358 58.2564 81.2724C58.4258 78.7615 56.5666 76.4382 53.9451 76.5257C50.3072 76.6475 46.7449 82.1628 45.8517 85.2883C45.8034 85.4577 45.501 87.2406 45.2987 88.5419C45.2602 87.7782 45.2063 86.99 45.1832 86.2571C45.0908 83.5061 45.1762 80.9812 45.2693 78.7447C45.333 77.4735 45.4156 76.3262 45.5038 75.2531C46.5314 74.4915 50.6341 71.373 51.8535 69.2044C53.0435 67.0883 53.971 64.0616 52.9441 61.7061C51.9375 59.3995 49.2166 58.1948 46.9311 59.48C43.758 61.265 43.1378 67.8009 43.7853 70.9866C43.842 71.2617 45.2119 75.4666 45.2665 75.4274C45.2665 75.4274 45.3169 75.3903 45.3281 75.3819C45.2224 76.413 45.1209 77.5197 45.0341 78.7307C44.892 80.9686 44.7513 83.4991 44.7835 86.2634C44.8094 89.0249 44.9151 92.0258 45.3113 95.1758C45.7047 98.3342 46.2794 101.637 47.3112 104.963C47.3231 105 47.3399 105.037 47.3518 105.075C46.7477 104.197 44.9767 101.795 44.8199 101.626C42.6079 99.2442 36.933 95.943 33.6339 97.4823C31.2581 98.5925 30.6526 101.505 31.9427 103.667C33.2594 105.874 36.2596 106.883 38.6732 107.147Z" fill="#1A2E35"/>
</g>
</g>
<path d="M89.2565 230.504C89.3146 230.537 90.268 226.219 90.2974 225.939C90.6313 222.706 89.3769 216.262 86.0456 214.795C83.6453 213.738 81.0553 215.202 80.2783 217.596C79.4852 220.04 80.7039 222.962 82.0941 224.952C83.7265 227.289 89.2523 230.501 89.2565 230.504Z" fill="#1A2E35"/>
<path d="M24.6146 231.38C27.2655 232.428 33.6467 232.059 33.6516 232.059C33.7174 232.055 32.1312 227.927 32.0017 227.678C30.4967 224.797 25.8956 220.113 22.3067 220.727C19.7223 221.171 18.3699 223.821 19.0426 226.246C19.7293 228.721 22.3571 230.487 24.6146 231.38Z" fill="#1A2E35"/>
<path d="M27.473 249.799C30.1946 250.098 35.8352 248.244 36.2839 248.095C37.2961 251.253 38.5911 254.413 40.0779 257.537C40.9256 259.324 41.8356 261.099 42.7701 262.865C42.2234 262.122 41.7292 261.462 41.6501 261.377C39.4374 258.995 33.7625 255.694 30.4641 257.234C28.0876 258.343 27.4835 261.256 28.7722 263.417C30.0889 265.624 33.0898 266.633 35.5034 266.898C37.952 267.167 42.7932 265.683 44.0686 265.272C44.434 265.947 44.7917 266.625 45.1599 267.297C46.9267 270.524 48.7033 273.738 50.349 276.943C50.93 278.073 51.4599 279.206 51.9947 280.338C51.5082 279.678 51.0931 279.127 51.021 279.05C48.809 276.668 43.1341 273.366 39.8357 274.906C37.4592 276.016 36.8544 278.929 38.1438 281.09C39.4605 283.297 42.4614 284.305 44.8743 284.571C47.2116 284.828 51.6923 283.498 53.2106 283.018C53.723 284.194 54.2389 285.37 54.682 286.533C54.9669 287.334 55.2973 288.085 55.5388 288.905C55.795 289.712 56.0484 290.511 56.2997 291.302C56.7274 292.843 57.1782 294.431 57.5576 295.945C57.8299 296.996 58.0693 298.002 58.3136 299.017C57.7494 297.885 56.5965 295.694 56.4796 295.522C54.654 292.833 49.5447 288.71 46.051 289.733C43.5338 290.47 42.4943 293.258 43.4414 295.589C44.4088 297.969 47.2221 299.422 49.5671 300.049C52.1494 300.739 57.7809 299.826 58.4837 299.707C58.8827 301.385 59.2544 303.022 59.5799 304.571C60.7209 309.926 61.4671 314.431 61.9466 317.592L64.4134 317.505C64.3973 317.41 64.3833 317.324 64.3658 317.226C63.8114 314.038 62.9567 309.496 61.6855 304.101C61.2879 302.395 60.828 300.58 60.3394 298.721C60.758 298.538 63.1366 297.476 65.2317 296.206C67.1651 298.157 72.0196 300.349 72.6482 300.627C72.0546 302.246 71.4624 303.816 70.8793 305.289C68.8752 310.388 67.0111 314.559 65.6671 317.46L68.3754 317.364C69.6165 314.486 71.2076 310.638 72.8946 306.056C73.5036 304.414 74.1224 302.647 74.7391 300.827C75.4286 300.946 81.0685 301.886 83.6578 301.205C86.0049 300.587 88.8245 299.146 89.8017 296.77C90.7579 294.441 89.7296 291.649 87.2152 290.903C83.7257 289.865 78.6003 293.969 76.7642 296.651C76.655 296.809 75.6715 298.657 75.0702 299.833C75.3187 299.088 75.5679 298.368 75.8143 297.597C76.312 296.077 76.7635 294.546 77.2549 292.901C77.4649 292.098 77.6763 291.286 77.8898 290.467C78.1201 289.66 78.2594 288.777 78.4498 287.924C78.8488 285.939 79.1568 283.908 79.4221 281.853C80.7542 282.285 85.5051 283.752 87.9313 283.496C90.3449 283.24 93.35 282.245 94.6758 280.042C95.9729 277.886 95.3807 274.971 93.0084 273.851C89.7163 272.298 84.0281 275.577 81.8063 277.95C81.667 278.098 80.2649 279.979 79.5138 281.028C79.6636 279.792 79.8197 278.56 79.9296 277.305C80.2502 273.681 80.4623 270.004 80.6891 266.337C80.7584 265.214 80.841 264.096 80.9187 262.975C81.3905 263.134 87.0017 265 89.7177 264.713C92.132 264.457 95.1371 263.461 96.4622 261.259C97.76 259.103 97.1671 256.187 94.7955 255.068C91.5034 253.515 85.8145 256.793 83.5927 259.167C83.4261 259.346 81.4115 262.056 80.9327 262.771C81.1056 260.304 81.3009 257.847 81.5914 255.434C81.9883 252.102 82.5616 248.855 83.3491 245.751C83.5696 245.826 89.4153 247.8 92.1978 247.506C94.6128 247.25 97.6172 246.254 98.943 244.052C100.241 241.897 99.6479 238.98 97.2756 237.861C93.9835 236.308 88.2953 239.587 86.0735 241.96C85.9279 242.115 84.3914 244.179 83.683 245.177C83.5794 245.128 83.5983 245.138 83.4947 245.089C84.3788 241.773 85.6535 238.673 86.9884 235.83C87.7591 234.182 88.5879 232.65 89.4272 231.177C90.4786 231.656 95.3065 233.794 97.8398 233.805C100.268 233.816 103.364 233.156 104.923 231.114C106.45 229.113 106.18 226.15 103.946 224.777C100.844 222.871 94.8305 225.506 92.3616 227.62C92.2279 227.735 90.9917 229.056 90.1055 230.03C90.4947 229.371 90.8839 228.684 91.2696 228.06C92.7102 225.715 94.1746 223.655 95.4857 221.842C96.2403 220.817 96.9417 219.905 97.6074 219.059C98.8849 218.99 104.026 218.653 106.241 217.517C108.4 216.408 110.844 214.396 111.286 211.864C111.719 209.385 110.115 206.88 107.499 206.691C103.868 206.429 99.7452 211.538 98.5279 214.552C98.4229 214.814 97.2462 219.076 97.3127 219.072C97.3127 219.072 97.375 219.07 97.3904 219.07C96.7331 219.871 96.038 220.737 95.2974 221.699C93.9436 223.488 92.4302 225.521 90.9329 227.845C89.4307 230.162 87.8627 232.723 86.4564 235.57C85.0417 238.421 83.6991 241.492 82.7261 244.835C82.7149 244.873 82.7079 244.914 82.6974 244.951C82.6778 243.886 82.5259 240.906 82.4881 240.679C81.9568 237.471 79.0448 231.586 75.444 231.051C72.8498 230.666 70.7386 232.762 70.6217 235.277C70.502 237.844 72.448 240.34 74.3149 241.892C76.4205 243.643 82.1479 245.208 82.6043 245.331C81.7062 248.525 81.044 251.874 80.5596 255.299C80.281 257.258 80.0612 259.24 79.8659 261.229C79.8204 260.308 79.7721 259.484 79.7532 259.37C79.2212 256.163 76.3099 250.278 72.7091 249.743C70.1149 249.358 68.0037 251.454 67.8868 253.967C67.7671 256.535 69.7138 259.031 71.5807 260.584C73.4742 262.159 78.3308 263.592 79.6209 263.954C79.5537 264.717 79.4788 265.48 79.4151 266.244C79.1071 269.91 78.8166 273.571 78.4211 277.152C78.2825 278.414 78.0991 279.652 77.9206 280.891C77.8786 280.073 77.8373 279.384 77.8198 279.279C77.2885 276.073 74.3772 270.188 70.7757 269.653C68.1815 269.267 66.0703 271.364 65.9534 273.877C65.8344 276.444 67.7811 278.942 69.648 280.495C71.4554 281.997 75.9256 283.36 77.4565 283.797C77.2346 285.061 77.0162 286.327 76.7446 287.541C76.5409 288.367 76.4016 289.175 76.151 289.992C75.9193 290.806 75.6897 291.612 75.4636 292.411C74.9694 293.932 74.4703 295.505 73.9509 296.977C73.5981 298.004 73.2425 298.976 72.8876 299.956C73.0409 298.701 73.288 296.239 73.2852 296.03C73.2593 293.871 72.3689 290.389 70.7561 287.977C70.7547 287.658 70.7246 287.341 70.663 287.027C70.1765 284.558 67.779 282.797 65.2702 283.561C61.787 284.62 59.7752 290.871 59.7227 294.12C59.7199 294.313 59.9194 296.396 60.0664 297.709C59.8627 296.95 59.673 296.212 59.4532 295.433C59.0304 293.892 58.5621 292.366 58.0644 290.722C57.7963 289.936 57.5254 289.143 57.2517 288.342C56.9976 287.541 56.6266 286.729 56.3158 285.913C55.5528 284.036 54.689 282.171 53.7776 280.312C55.1265 279.938 59.8991 278.54 61.78 276.988C63.6532 275.443 65.609 272.954 65.5005 270.387C65.3934 267.873 63.2906 265.768 60.695 266.143C57.0921 266.664 54.1563 272.536 53.6124 275.742C53.5781 275.941 53.4465 278.285 53.3996 279.573C52.8417 278.46 52.2922 277.346 51.6923 276.239C49.9605 273.04 48.1083 269.856 46.275 266.672C45.7122 265.697 45.1641 264.718 44.6111 263.741C45.0927 263.613 50.8012 262.074 52.9082 260.336C54.7814 258.791 56.7379 256.302 56.6287 253.734C56.5223 251.221 54.4195 249.116 51.8232 249.491C48.2203 250.012 45.2852 255.884 44.7406 259.089C44.7 259.33 44.5152 262.703 44.5096 263.562C43.2937 261.41 42.1009 259.253 41.0117 257.08C39.5046 254.082 38.1921 251.058 37.1372 248.034C37.3612 247.975 43.3266 246.397 45.4847 244.616C47.3579 243.071 49.3144 240.582 49.2052 238.014C49.0988 235.5 46.9953 233.395 44.3997 233.771C40.7968 234.292 37.861 240.164 37.3171 243.368C37.2814 243.579 37.1379 246.15 37.098 247.373C36.9853 247.389 37.0063 247.386 36.8929 247.402C35.8009 244.149 35.1534 240.86 34.6998 237.752C34.4324 235.952 34.2784 234.217 34.1664 232.525C35.3074 232.345 40.5133 231.464 42.6329 230.076C44.6643 228.746 46.8819 226.487 47.0562 223.924C47.2256 221.413 45.3664 219.09 42.7449 219.178C39.107 219.3 35.5447 224.815 34.6515 227.94C34.6032 228.11 34.3008 229.893 34.0985 231.194C34.06 230.43 34.0061 229.642 33.983 228.909C33.8906 226.158 33.976 223.633 34.0691 221.397C34.1328 220.126 34.2154 218.979 34.3036 217.905C35.3312 217.144 39.4339 214.025 40.6533 211.857C41.8433 209.74 42.7708 206.713 41.7439 204.358C40.7373 202.052 38.0164 200.846 35.7309 202.132C32.5578 203.917 31.9376 210.453 32.5851 213.639C32.6418 213.914 34.0117 218.118 34.0663 218.08C34.0663 218.08 34.1167 218.043 34.1279 218.034C34.0222 219.065 33.9207 220.172 33.8339 221.382C33.6918 223.621 33.5511 226.151 33.5833 228.915C33.6092 231.677 33.7149 234.678 34.1111 237.827C34.5045 240.986 35.0792 244.288 36.111 247.614C36.1229 247.652 36.1397 247.689 36.1516 247.727C35.5475 246.848 33.7765 244.447 33.6197 244.278C31.4077 241.897 25.7328 238.595 22.4337 240.135C20.0579 241.244 19.4524 244.157 20.7425 246.318C22.0592 248.526 25.0594 249.534 27.473 249.799Z" fill="#1A2E35"/>
<mask id="mask6_519_42583" style="mask-type:luminance" maskUnits="userSpaceOnUse" x="18" y="220" width="16" height="13">
<path d="M18.8712 220.673H33.6538V232.122H18.8712V220.673Z" fill="white"/>
</mask>
<g mask="url(#mask6_519_42583)">
<g opacity="0.300003">
<path d="M24.6146 231.38C27.2655 232.428 33.6467 232.059 33.6516 232.059C33.7174 232.055 32.1312 227.927 32.0017 227.678C30.4967 224.797 25.8956 220.113 22.3067 220.727C19.7223 221.171 18.3699 223.821 19.0426 226.246C19.7293 228.721 22.3571 230.487 24.6146 231.38Z" fill="#1A2E35"/>
</g>
</g>
<mask id="mask7_519_42583" style="mask-type:luminance" maskUnits="userSpaceOnUse" x="80" y="214" width="11" height="17">
<path d="M80.0276 214.447H90.3498V230.504H80.0276V214.447Z" fill="white"/>
</mask>
<g mask="url(#mask7_519_42583)">
<g opacity="0.300003">
<path d="M89.2576 230.504C89.3157 230.537 90.2691 226.219 90.2985 225.939C90.6324 222.706 89.378 216.262 86.0467 214.795C83.6464 213.738 81.0564 215.202 80.2794 217.596C79.4863 220.04 80.705 222.962 82.0952 224.952C83.7276 227.289 89.2534 230.501 89.2576 230.504Z" fill="#1A2E35"/>
</g>
</g>
<mask id="mask8_519_42583" style="mask-type:luminance" maskUnits="userSpaceOnUse" x="20" y="201" width="92" height="117">
<path d="M20.0757 201.608H111.353V317.592H20.0757V201.608Z" fill="white"/>
</mask>
<g mask="url(#mask8_519_42583)">
<g opacity="0.300003">
<path d="M27.4702 249.799C30.1918 250.098 35.8324 248.244 36.2811 248.095C37.2933 251.253 38.5883 254.413 40.0751 257.537C40.9228 259.324 41.8328 261.099 42.7673 262.865C42.2206 262.122 41.7264 261.462 41.6473 261.377C39.4346 258.995 33.7597 255.694 30.4613 257.234C28.0848 258.343 27.4807 261.256 28.7694 263.417C30.0861 265.624 33.087 266.633 35.5006 266.898C37.9492 267.167 42.7904 265.683 44.0658 265.272C44.4312 265.947 44.7889 266.625 45.1571 267.297C46.9239 270.524 48.7005 273.738 50.3462 276.943C50.9272 278.073 51.4571 279.206 51.9919 280.338C51.5054 279.678 51.0903 279.127 51.0182 279.05C48.8062 276.668 43.1313 273.366 39.8329 274.906C37.4564 276.016 36.8516 278.929 38.141 281.09C39.4577 283.297 42.4586 284.305 44.8715 284.571C47.2088 284.828 51.6895 283.498 53.2078 283.018C53.7202 284.194 54.2361 285.37 54.6792 286.533C54.9641 287.334 55.2945 288.085 55.536 288.905C55.7922 289.712 56.0456 290.511 56.2969 291.302C56.7246 292.843 57.1754 294.431 57.5548 295.945C57.8271 296.996 58.0665 298.002 58.3108 299.017C57.7466 297.885 56.5937 295.694 56.4768 295.522C54.6512 292.833 49.5419 288.71 46.0482 289.733C43.531 290.47 42.4915 293.258 43.4386 295.589C44.406 297.969 47.2193 299.422 49.5643 300.049C52.1466 300.739 57.7781 299.826 58.4809 299.707C58.8799 301.385 59.2516 303.022 59.5771 304.571C60.7181 309.926 61.4643 314.431 61.9438 317.592L64.4106 317.505C64.3945 317.41 64.3805 317.324 64.363 317.226C63.8086 314.038 62.9539 309.496 61.6827 304.101C61.2851 302.395 60.8252 300.58 60.3366 298.721C60.7552 298.538 63.1338 297.476 65.2289 296.206C67.1623 298.157 72.0168 300.349 72.6454 300.627C72.0518 302.246 71.4596 303.816 70.8765 305.289C68.8724 310.388 67.0083 314.559 65.6643 317.46L68.3726 317.364C69.6137 314.486 71.2048 310.638 72.8918 306.056C73.5008 304.414 74.1196 302.647 74.7363 300.827C75.4258 300.946 81.0657 301.886 83.655 301.205C86.0021 300.587 88.8217 299.146 89.7989 296.77C90.7551 294.441 89.7268 291.649 87.2124 290.903C83.7229 289.865 78.5975 293.969 76.7614 296.651C76.6522 296.809 75.6687 298.657 75.0674 299.833C75.3159 299.088 75.5651 298.368 75.8115 297.597C76.3092 296.077 76.7607 294.546 77.2521 292.901C77.4621 292.098 77.6735 291.286 77.887 290.467C78.1173 289.66 78.2566 288.777 78.447 287.924C78.846 285.939 79.154 283.908 79.4193 281.853C80.7514 282.285 85.5023 283.752 87.9285 283.496C90.3421 283.24 93.3472 282.245 94.673 280.042C95.9701 277.886 95.3779 274.971 93.0056 273.851C89.7135 272.298 84.0253 275.577 81.8035 277.95C81.6642 278.098 80.2621 279.979 79.511 281.028C79.6608 279.792 79.8169 278.56 79.9268 277.305C80.2474 273.681 80.4595 270.004 80.6863 266.337C80.7556 265.214 80.8382 264.096 80.9159 262.975C81.3877 263.134 86.9989 265 89.7149 264.713C92.1292 264.457 95.1343 263.461 96.4594 261.259C97.7572 259.103 97.1643 256.187 94.7927 255.068C91.5006 253.515 85.8117 256.793 83.5899 259.167C83.4233 259.346 81.4087 262.056 80.9299 262.771C81.1028 260.304 81.2981 257.847 81.5886 255.434C81.9855 252.102 82.5588 248.855 83.3463 245.751C83.5668 245.826 89.4125 247.8 92.195 247.506C94.61 247.25 97.6144 246.254 98.9402 244.052C100.238 241.897 99.6451 238.98 97.2728 237.861C93.9807 236.308 88.2925 239.587 86.0707 241.96C85.9251 242.115 84.3886 244.179 83.6802 245.177C83.5766 245.128 83.5955 245.138 83.4919 245.089C84.376 241.773 85.6507 238.673 86.9856 235.83C87.7563 234.182 88.5851 232.65 89.4244 231.177C90.4758 231.656 95.3037 233.794 97.837 233.805C100.265 233.816 103.361 233.156 104.92 231.114C106.447 229.113 106.178 226.15 103.943 224.777C100.841 222.871 94.8277 225.506 92.3588 227.62C92.2251 227.735 90.9889 229.056 90.1027 230.03C90.4919 229.371 90.8811 228.684 91.2668 228.06C92.7074 225.715 94.1718 223.655 95.4829 221.842C96.2375 220.817 96.9389 219.905 97.6046 219.059C98.8821 218.99 104.024 218.653 106.238 217.517C108.397 216.408 110.841 214.396 111.283 211.864C111.717 209.385 110.112 206.88 107.496 206.691C103.865 206.429 99.7424 211.538 98.5251 214.552C98.4201 214.814 97.2434 219.076 97.3099 219.072C97.3099 219.072 97.3722 219.07 97.3876 219.07C96.7303 219.871 96.0352 220.737 95.2946 221.699C93.9408 223.488 92.4274 225.521 90.9301 227.845C89.4279 230.162 87.8599 232.723 86.4536 235.57C85.0389 238.421 83.6963 241.492 82.7233 244.835C82.7121 244.873 82.7051 244.914 82.6946 244.951C82.675 243.886 82.5231 240.906 82.4853 240.679C81.954 237.471 79.042 231.586 75.4412 231.051C72.847 230.666 70.7358 232.762 70.6189 235.277C70.4992 237.844 72.4452 240.34 74.3121 241.892C76.4177 243.643 82.1451 245.208 82.6015 245.331C81.7034 248.525 81.0412 251.874 80.5568 255.299C80.2782 257.258 80.0584 259.24 79.8631 261.229C79.8176 260.308 79.7693 259.484 79.7504 259.37C79.2184 256.163 76.3071 250.278 72.7063 249.743C70.1121 249.358 68.0009 251.454 67.884 253.967C67.7643 256.535 69.711 259.031 71.5779 260.584C73.4714 262.159 78.328 263.592 79.6181 263.954C79.5509 264.717 79.476 265.48 79.4123 266.244C79.1043 269.91 78.8138 273.571 78.4183 277.152C78.2797 278.414 78.0963 279.652 77.9178 280.891C77.8758 280.073 77.8345 279.384 77.817 279.279C77.2857 276.073 74.3744 270.188 70.7729 269.653C68.1787 269.267 66.0675 271.364 65.9506 273.877C65.8316 276.444 67.7783 278.942 69.6452 280.495C71.4526 281.997 75.9228 283.36 77.4537 283.797C77.2318 285.061 77.0134 286.327 76.7418 287.541C76.5381 288.367 76.3988 289.175 76.1482 289.992C75.9165 290.806 75.6869 291.612 75.4608 292.411C74.9666 293.932 74.4675 295.505 73.9481 296.977C73.5953 298.004 73.2397 298.976 72.8848 299.956C73.0381 298.701 73.2852 296.239 73.2824 296.03C73.2565 293.871 72.3661 290.389 70.7533 287.977C70.7519 287.658 70.7218 287.341 70.6602 287.027C70.1737 284.558 67.7762 282.797 65.2674 283.561C61.7842 284.62 59.7724 290.871 59.7199 294.12C59.7171 294.313 59.9166 296.396 60.0636 297.709C59.8599 296.95 59.6702 296.212 59.4504 295.433C59.0276 293.892 58.5593 292.366 58.0616 290.722C57.7935 289.936 57.5226 289.143 57.2489 288.342C56.9948 287.541 56.6238 286.729 56.313 285.913C55.55 284.036 54.6862 282.171 53.7748 280.312C55.1237 279.938 59.8963 278.54 61.7772 276.988C63.6504 275.443 65.6062 272.954 65.4977 270.387C65.3906 267.873 63.2878 265.768 60.6922 266.143C57.0893 266.664 54.1535 272.536 53.6096 275.742C53.5753 275.941 53.4437 278.285 53.3968 279.573C52.8389 278.46 52.2894 277.346 51.6895 276.239C49.9577 273.04 48.1055 269.856 46.2722 266.672C45.7094 265.697 45.1613 264.718 44.6083 263.741C45.0899 263.613 50.7984 262.074 52.9054 260.336C54.7786 258.791 56.7351 256.302 56.6259 253.734C56.5195 251.221 54.4167 249.116 51.8204 249.491C48.2175 250.012 45.2824 255.884 44.7378 259.089C44.6972 259.33 44.5124 262.703 44.5068 263.562C43.2909 261.41 42.0981 259.253 41.0089 257.08C39.5018 254.082 38.1893 251.058 37.1344 248.034C37.3584 247.975 43.3238 246.397 45.4819 244.616C47.3551 243.071 49.3116 240.582 49.2024 238.014C49.096 235.5 46.9925 233.395 44.3969 233.771C40.794 234.292 37.8582 240.164 37.3143 243.368C37.2786 243.579 37.1351 246.15 37.0952 247.373C36.9825 247.389 37.0035 247.386 36.8901 247.402C35.7981 244.149 35.1506 240.86 34.697 237.752C34.4296 235.952 34.2756 234.217 34.1636 232.525C35.3046 232.345 40.5105 231.464 42.6301 230.076C44.6615 228.746 46.8791 226.487 47.0534 223.924C47.2228 221.413 45.3636 219.09 42.7421 219.178C39.1042 219.3 35.5419 224.815 34.6487 227.94C34.6004 228.11 34.298 229.893 34.0957 231.194C34.0572 230.43 34.0033 229.642 33.9802 228.909C33.8878 226.158 33.9732 223.633 34.0663 221.397C34.13 220.126 34.2126 218.979 34.3008 217.905C35.3284 217.144 39.4311 214.025 40.6505 211.857C41.8405 209.74 42.768 206.713 41.7411 204.358C40.7345 202.052 38.0136 200.846 35.7281 202.132C32.555 203.917 31.9348 210.453 32.5823 213.639C32.639 213.914 34.0089 218.118 34.0635 218.08C34.0635 218.08 34.1139 218.043 34.1251 218.034C34.0194 219.065 33.9179 220.172 33.8311 221.382C33.689 223.621 33.5483 226.151 33.5805 228.915C33.6064 231.677 33.7121 234.678 34.1083 237.827C34.5017 240.986 35.0764 244.288 36.1082 247.614C36.1201 247.652 36.1369 247.689 36.1488 247.727C35.5447 246.848 33.7737 244.447 33.6169 244.278C31.4049 241.897 25.73 238.595 22.4309 240.135C20.0551 241.244 19.4496 244.157 20.7397 246.318C22.0564 248.526 25.0566 249.534 27.4702 249.799Z" fill="#1A2E35"/>
</g>
</g>
</g>
<mask id="mask9_519_42583" style="mask-type:luminance" maskUnits="userSpaceOnUse" x="0" y="0" width="525" height="350">
<path d="M0 5.96046e-06H525V350H0V5.96046e-06Z" fill="white"/>
</mask>
<g mask="url(#mask9_519_42583)">
<path d="M242.509 49.9919C238.567 47.8422 236.776 49.6335 235.342 47.8422C233.908 46.0509 239.284 41.3917 228.534 36.7339C228.534 36.7339 227.817 26.7008 213.125 26.3424C198.434 25.984 202.376 36.3755 198.434 38.8836C194.492 41.3917 193.418 37.4507 189.476 39.9588C185.534 42.4669 187.326 47.4838 184.101 48.2006C180.876 48.9167 176.576 44.9757 172.634 47.4838C168.692 49.9919 168.692 52.1416 166.901 52.1416C165.11 52.1416 161.526 50.7087 159.376 52.1416C157.226 53.5752 154.717 55.3672 154.717 55.3672H245.375C245.375 55.3672 246.45 52.1416 242.509 49.9919Z" fill="white"/>
<path d="M242.509 49.9919C238.567 47.8422 236.776 49.6335 235.342 47.8422C233.908 46.0509 239.284 41.3917 228.534 36.7339C228.534 36.7339 227.817 26.7008 213.125 26.3424C198.434 25.984 202.376 36.3755 198.434 38.8836C194.492 41.3917 193.418 37.4507 189.476 39.9588C185.534 42.4669 187.326 47.4838 184.101 48.2006C180.876 48.9167 176.576 44.9757 172.634 47.4838C168.692 49.9919 168.692 52.1416 166.901 52.1416C165.11 52.1416 161.526 50.7087 159.376 52.1416C157.226 53.5752 154.717 55.3672 154.717 55.3672H245.375C245.375 55.3672 246.45 52.1416 242.509 49.9919Z" stroke="#1A2E35" stroke-width="0.538462" stroke-miterlimit="10" stroke-linecap="round" stroke-linejoin="round"/>
<path d="M62.8454 45.9124C60.8035 44.7994 59.876 45.7269 59.1333 44.7994C58.3913 43.8712 61.1752 41.4583 55.6074 39.0461C55.6074 39.0461 55.2364 33.85 47.6274 33.6638C40.0184 33.4783 42.0603 38.8606 40.0184 40.1598C37.9772 41.4583 37.4207 39.4171 35.3788 40.7163C33.3376 42.0155 34.2651 44.6139 32.5956 44.9849C30.9247 45.3559 28.698 43.3147 26.6568 44.6139C24.6156 45.9124 24.6156 47.0261 23.6874 47.0261C22.7592 47.0261 20.9035 46.2841 19.7905 47.0261C18.6768 47.7681 17.3776 48.6963 17.3776 48.6963H64.3301C64.3301 48.6963 64.8866 47.0261 62.8454 45.9124Z" fill="white"/>
<path d="M62.8454 45.9124C60.8035 44.7994 59.876 45.7269 59.1333 44.7994C58.3913 43.8712 61.1752 41.4583 55.6074 39.0461C55.6074 39.0461 55.2364 33.85 47.6274 33.6638C40.0184 33.4783 42.0603 38.8606 40.0184 40.1598C37.9772 41.4583 37.4207 39.4171 35.3788 40.7163C33.3376 42.0155 34.2651 44.6139 32.5956 44.9849C30.9247 45.3559 28.698 43.3147 26.6568 44.6139C24.6156 45.9124 24.6156 47.0261 23.6874 47.0261C22.7592 47.0261 20.9035 46.2841 19.7905 47.0261C18.6768 47.7681 17.3776 48.6963 17.3776 48.6963H64.3301C64.3301 48.6963 64.8866 47.0261 62.8454 45.9124Z" stroke="#1A2E35" stroke-width="0.538462" stroke-miterlimit="10" stroke-linecap="round" stroke-linejoin="round"/>
<path d="M155.246 98.4124C153.204 97.2994 152.276 98.2269 151.534 97.2994C150.792 96.3712 153.575 93.9583 148.008 91.5461C148.008 91.5461 147.637 86.35 140.028 86.1638C132.419 85.9783 134.461 91.3606 132.419 92.6598C130.377 93.9583 129.821 91.9171 127.779 93.2163C125.738 94.5155 126.665 97.1139 124.996 97.4849C123.325 97.8559 121.098 95.8147 119.057 97.1139C117.016 98.4124 117.016 99.5261 116.088 99.5261C115.159 99.5261 113.304 98.7841 112.191 99.5261C111.077 100.268 109.778 101.196 109.778 101.196H156.73C156.73 101.196 157.287 99.5261 155.246 98.4124Z" fill="white"/>
<path d="M155.246 98.4124C153.204 97.2994 152.276 98.2269 151.534 97.2994C150.792 96.3712 153.575 93.9583 148.008 91.5461C148.008 91.5461 147.637 86.35 140.028 86.1638C132.419 85.9783 134.461 91.3606 132.419 92.6598C130.377 93.9583 129.821 91.9171 127.779 93.2163C125.738 94.5155 126.665 97.1139 124.996 97.4849C123.325 97.8559 121.098 95.8147 119.057 97.1139C117.016 98.4124 117.016 99.5261 116.088 99.5261C115.159 99.5261 113.304 98.7841 112.191 99.5261C111.077 100.268 109.778 101.196 109.778 101.196H156.73C156.73 101.196 157.287 99.5261 155.246 98.4124Z" stroke="#1A2E35" stroke-width="0.538462" stroke-miterlimit="10" stroke-linecap="round" stroke-linejoin="round"/>
</g>
<path d="M341.933 317.977H50.7333V113.577H341.933V317.977Z" fill="white" stroke="#1A2E35" stroke-width="0.538462" stroke-miterlimit="10" stroke-linecap="round" stroke-linejoin="round"/>
<path d="M336.625 313.789H56.0424V117.768H336.625V313.789Z" fill="white" stroke="#1A2E35" stroke-width="0.538462" stroke-miterlimit="10" stroke-linecap="round" stroke-linejoin="round"/>
<path d="M242.749 313.386V300.115H336.642" fill="white"/>
<path d="M242.749 313.386V300.115H336.642" stroke="#1A2E35" stroke-width="0.538462" stroke-miterlimit="10" stroke-linecap="round" stroke-linejoin="round"/>
<path d="M243.184 306.594H336.404" stroke="#1A2E35" stroke-width="0.538462" stroke-miterlimit="10" stroke-linecap="round" stroke-linejoin="round"/>
<path d="M259.686 300.361V313.661" stroke="#1A2E35" stroke-width="0.538462" stroke-miterlimit="10" stroke-linecap="round" stroke-linejoin="round"/>
<path d="M292.467 306.777V313.661" stroke="#1A2E35" stroke-width="0.538462" stroke-miterlimit="10" stroke-linecap="round" stroke-linejoin="round"/>
<path d="M309.278 274.018H101.459V208.438H309.278V274.018Z" fill="white" stroke="#1A2E35" stroke-width="0.538462" stroke-miterlimit="10" stroke-linecap="round" stroke-linejoin="round"/>
<path d="M205.643 148.606L102.008 208.439H309.278L205.643 148.606Z" fill="#599BFE"/>
<path d="M205.643 148.606L102.008 208.439H309.278L205.643 148.606Z" stroke="#1A2E35" stroke-width="0.538462" stroke-miterlimit="10" stroke-linecap="round" stroke-linejoin="round"/>
<path d="M247.476 274.018H196.049V203.11H247.476V274.018Z" fill="white" stroke="#1A2E35" stroke-width="0.538462" stroke-miterlimit="10" stroke-linecap="round" stroke-linejoin="round"/>
<path d="M247.476 206.126H196.049V203.11H247.476V206.126Z" fill="#1A2E35" stroke="#1A2E35" stroke-width="0.538462" stroke-miterlimit="10" stroke-linecap="round" stroke-linejoin="round"/>
<mask id="mask10_519_42583" style="mask-type:luminance" maskUnits="userSpaceOnUse" x="0" y="0" width="525" height="350">
<path d="M0 -1.91371e-05H525V350H0V-1.91371e-05Z" fill="white"/>
</mask>
<g mask="url(#mask10_519_42583)">
<path d="M234.606 274.019H208.922V229.695C208.922 222.603 214.671 216.853 221.764 216.853C228.857 216.853 234.606 222.603 234.606 229.695V274.019Z" fill="#1A2E35"/>
<path d="M234.606 274.019H208.922V229.695C208.922 222.603 214.671 216.853 221.764 216.853C228.857 216.853 234.606 222.603 234.606 229.695V274.019Z" stroke="#1A2E35" stroke-width="0.538462" stroke-miterlimit="10" stroke-linecap="round" stroke-linejoin="round"/>
<path d="M205.659 274.019H86.5378V219.927H205.659V274.019Z" fill="white" stroke="#1A2E35" stroke-width="0.538462" stroke-miterlimit="10" stroke-linecap="round" stroke-linejoin="round"/>
<path d="M205.659 222.339H86.5378V219.927H205.659V222.339Z" fill="#1A2E35" stroke="#1A2E35" stroke-width="0.538462" stroke-miterlimit="10" stroke-linecap="round" stroke-linejoin="round"/>
<path d="M192.553 274.018H99.6464V224.388H192.553V274.018Z" fill="white" stroke="#1A2E35" stroke-width="0.538462" stroke-miterlimit="10" stroke-linecap="round" stroke-linejoin="round"/>
<path d="M146.1 180.353L82.881 216.854H209.319L146.1 180.353Z" fill="#599BFE"/>
<path d="M146.1 180.353L82.881 216.854H209.319L146.1 180.353Z" stroke="#1A2E35" stroke-width="0.538462" stroke-miterlimit="10" stroke-linecap="round" stroke-linejoin="round"/>
<path d="M209.318 219.927H82.8792V216.853H209.318V219.927Z" fill="#599BFE" stroke="#1A2E35" stroke-width="0.538462" stroke-miterlimit="10" stroke-linecap="round" stroke-linejoin="round"/>
<path d="M221.763 182.528L189.023 201.431H254.503L221.763 182.528Z" fill="#599BFE"/>
<path d="M221.763 182.528L189.023 201.431H254.503L221.763 182.528Z" stroke="#1A2E35" stroke-width="0.538462" stroke-miterlimit="10" stroke-linecap="round" stroke-linejoin="round"/>
<path d="M254.504 204.466H189.024V201.431H254.504V204.466Z" fill="#599BFE" stroke="#1A2E35" stroke-width="0.538462" stroke-miterlimit="10" stroke-linecap="round" stroke-linejoin="round"/>
<path d="M110.554 235.901H103.03V228.377H110.554V235.901Z" fill="white" stroke="#1A2E35" stroke-width="0.269231" stroke-miterlimit="10" stroke-linecap="round" stroke-linejoin="round"/>
<path d="M121.839 235.901H114.315V228.377H121.839V235.901Z" fill="white" stroke="#1A2E35" stroke-width="0.269231" stroke-miterlimit="10" stroke-linecap="round" stroke-linejoin="round"/>
<path d="M133.125 235.901H125.601V228.377H133.125V235.901Z" fill="white" stroke="#1A2E35" stroke-width="0.269231" stroke-miterlimit="10" stroke-linecap="round" stroke-linejoin="round"/>
<path d="M144.412 235.901H136.889V228.377H144.412V235.901Z" fill="white" stroke="#1A2E35" stroke-width="0.269231" stroke-miterlimit="10" stroke-linecap="round" stroke-linejoin="round"/>
<path d="M155.697 235.901H148.172V228.377H155.697V235.901Z" fill="white" stroke="#1A2E35" stroke-width="0.269231" stroke-miterlimit="10" stroke-linecap="round" stroke-linejoin="round"/>
<path d="M166.984 235.901H159.459V228.377H166.984V235.901Z" fill="white" stroke="#1A2E35" stroke-width="0.269231" stroke-miterlimit="10" stroke-linecap="round" stroke-linejoin="round"/>
<path d="M178.267 235.901H170.743V228.377H178.267V235.901Z" fill="white" stroke="#1A2E35" stroke-width="0.269231" stroke-miterlimit="10" stroke-linecap="round" stroke-linejoin="round"/>
<path d="M189.555 235.901H182.03V228.377H189.555V235.901Z" fill="white" stroke="#1A2E35" stroke-width="0.269231" stroke-miterlimit="10" stroke-linecap="round" stroke-linejoin="round"/>
<path d="M110.554 246.973H103.03V239.448H110.554V246.973Z" fill="white" stroke="#1A2E35" stroke-width="0.269231" stroke-miterlimit="10" stroke-linecap="round" stroke-linejoin="round"/>
<path d="M121.839 246.973H114.315V239.448H121.839V246.973Z" fill="white" stroke="#1A2E35" stroke-width="0.269231" stroke-miterlimit="10" stroke-linecap="round" stroke-linejoin="round"/>
<path d="M133.125 246.973H125.601V239.448H133.125V246.973Z" fill="white" stroke="#1A2E35" stroke-width="0.269231" stroke-miterlimit="10" stroke-linecap="round" stroke-linejoin="round"/>
<path d="M144.412 246.973H136.889V239.448H144.412V246.973Z" fill="white" stroke="#1A2E35" stroke-width="0.269231" stroke-miterlimit="10" stroke-linecap="round" stroke-linejoin="round"/>
<path d="M155.697 246.973H148.172V239.448H155.697V246.973Z" fill="white" stroke="#1A2E35" stroke-width="0.269231" stroke-miterlimit="10" stroke-linecap="round" stroke-linejoin="round"/>
<path d="M166.984 246.973H159.459V239.448H166.984V246.973Z" fill="white" stroke="#1A2E35" stroke-width="0.269231" stroke-miterlimit="10" stroke-linecap="round" stroke-linejoin="round"/>
<path d="M178.267 246.973H170.743V239.448H178.267V246.973Z" fill="white" stroke="#1A2E35" stroke-width="0.269231" stroke-miterlimit="10" stroke-linecap="round" stroke-linejoin="round"/>
<path d="M189.555 246.973H182.03V239.448H189.555V246.973Z" fill="white" stroke="#1A2E35" stroke-width="0.269231" stroke-miterlimit="10" stroke-linecap="round" stroke-linejoin="round"/>
<path d="M110.554 258.043H103.03V250.519H110.554V258.043Z" fill="white" stroke="#1A2E35" stroke-width="0.269231" stroke-miterlimit="10" stroke-linecap="round" stroke-linejoin="round"/>
<path d="M121.839 258.044H114.315V250.52H121.839V258.044Z" fill="white" stroke="#1A2E35" stroke-width="0.269231" stroke-miterlimit="10" stroke-linecap="round" stroke-linejoin="round"/>
<path d="M133.125 258.043H125.601V250.519H133.125V258.043Z" fill="white" stroke="#1A2E35" stroke-width="0.269231" stroke-miterlimit="10" stroke-linecap="round" stroke-linejoin="round"/>
<path d="M144.412 258.043H136.889V250.519H144.412V258.043Z" fill="white" stroke="#1A2E35" stroke-width="0.269231" stroke-miterlimit="10" stroke-linecap="round" stroke-linejoin="round"/>
<path d="M155.697 258.043H148.172V250.519H155.697V258.043Z" fill="white" stroke="#1A2E35" stroke-width="0.269231" stroke-miterlimit="10" stroke-linecap="round" stroke-linejoin="round"/>
<path d="M166.984 258.043H159.459V250.519H166.984V258.043Z" fill="white" stroke="#1A2E35" stroke-width="0.269231" stroke-miterlimit="10" stroke-linecap="round" stroke-linejoin="round"/>
<path d="M178.267 258.043H170.743V250.519H178.267V258.043Z" fill="white" stroke="#1A2E35" stroke-width="0.269231" stroke-miterlimit="10" stroke-linecap="round" stroke-linejoin="round"/>
<path d="M189.555 258.043H182.03V250.519H189.555V258.043Z" fill="white" stroke="#1A2E35" stroke-width="0.269231" stroke-miterlimit="10" stroke-linecap="round" stroke-linejoin="round"/>
<path d="M110.554 269.114H103.03V261.591H110.554V269.114Z" fill="white" stroke="#1A2E35" stroke-width="0.269231" stroke-miterlimit="10" stroke-linecap="round" stroke-linejoin="round"/>
<path d="M121.839 269.114H114.315V261.591H121.839V269.114Z" fill="white" stroke="#1A2E35" stroke-width="0.269231" stroke-miterlimit="10" stroke-linecap="round" stroke-linejoin="round"/>
<path d="M133.125 269.114H125.601V261.591H133.125V269.114Z" fill="white" stroke="#1A2E35" stroke-width="0.269231" stroke-miterlimit="10" stroke-linecap="round" stroke-linejoin="round"/>
<path d="M144.412 269.114H136.889V261.591H144.412V269.114Z" fill="white" stroke="#1A2E35" stroke-width="0.269231" stroke-miterlimit="10" stroke-linecap="round" stroke-linejoin="round"/>
<path d="M155.697 269.114H148.172V261.591H155.697V269.114Z" fill="white" stroke="#1A2E35" stroke-width="0.269231" stroke-miterlimit="10" stroke-linecap="round" stroke-linejoin="round"/>
<path d="M166.984 269.114H159.459V261.591H166.984V269.114Z" fill="white" stroke="#1A2E35" stroke-width="0.269231" stroke-miterlimit="10" stroke-linecap="round" stroke-linejoin="round"/>
<path d="M178.267 269.114H170.743V261.591H178.267V269.114Z" fill="white" stroke="#1A2E35" stroke-width="0.269231" stroke-miterlimit="10" stroke-linecap="round" stroke-linejoin="round"/>
<path d="M189.555 269.114H182.03V261.591H189.555V269.114Z" fill="white" stroke="#1A2E35" stroke-width="0.269231" stroke-miterlimit="10" stroke-linecap="round" stroke-linejoin="round"/>
<path d="M315.172 274.019H239.192V203.111L277.182 182.529L315.172 203.111V274.019Z" fill="white"/>
<path d="M315.172 274.019H239.192V203.111L277.182 182.529L315.172 203.111V274.019Z" stroke="#1A2E35" stroke-width="0.538462" stroke-miterlimit="10" stroke-linecap="round" stroke-linejoin="round"/>
<path d="M320.978 206.126L277.18 182.398L233.381 206.126L232.019 203.611L277.18 179.144L322.341 203.611L320.978 206.126Z" fill="#599BFE"/>
<path d="M320.978 206.126L277.18 182.398L233.381 206.126L232.019 203.611L277.18 179.144L322.341 203.611L320.978 206.126Z" stroke="#1A2E35" stroke-width="0.538462" stroke-miterlimit="10" stroke-linecap="round" stroke-linejoin="round"/>
<path d="M239.192 203.111V204.834L277.182 184.252L315.172 204.834V203.111L277.182 182.528L239.192 203.111Z" fill="#1A2E35"/>
<path d="M239.192 203.111V204.834L277.182 184.252L315.172 204.834V203.111L277.182 182.528L239.192 203.111Z" stroke="#1A2E35" stroke-width="0.538462" stroke-miterlimit="10" stroke-linecap="round" stroke-linejoin="round"/>
<path d="M278.406 236.275H291.155V227.415H278.406V236.275Z" fill="#1A2E35" stroke="#1A2E35" stroke-width="0.538462" stroke-miterlimit="10" stroke-linecap="round" stroke-linejoin="round"/>
<path d="M291.155 239.189H278.406V248.049H291.155V239.189Z" fill="#1A2E35" stroke="#1A2E35" stroke-width="0.538462" stroke-miterlimit="10" stroke-linecap="round" stroke-linejoin="round"/>
<path d="M291.155 215.04H278.406V224.501H291.155V215.04Z" fill="#1A2E35" stroke="#1A2E35" stroke-width="0.538462" stroke-miterlimit="10" stroke-linecap="round" stroke-linejoin="round"/>
<path d="M275.493 215.04H262.744V224.501H275.493V215.04Z" fill="#1A2E35" stroke="#1A2E35" stroke-width="0.538462" stroke-miterlimit="10" stroke-linecap="round" stroke-linejoin="round"/>
<path d="M275.493 239.189H262.744V248.049H275.493V239.189Z" fill="#1A2E35" stroke="#1A2E35" stroke-width="0.538462" stroke-miterlimit="10" stroke-linecap="round" stroke-linejoin="round"/>
<path d="M275.493 227.415H262.744V236.275H275.493V227.415Z" fill="#1A2E35" stroke="#1A2E35" stroke-width="0.538462" stroke-miterlimit="10" stroke-linecap="round" stroke-linejoin="round"/>
<path d="M278.406 259.116H291.155V250.964H278.406V259.116Z" fill="#1A2E35" stroke="#1A2E35" stroke-width="0.538462" stroke-miterlimit="10" stroke-linecap="round" stroke-linejoin="round"/>
<path d="M262.744 259.116H275.493V250.964H262.744V259.116Z" fill="#1A2E35" stroke="#1A2E35" stroke-width="0.538462" stroke-miterlimit="10" stroke-linecap="round" stroke-linejoin="round"/>
<path d="M199.916 148.746H73.5908" stroke="#1A2E35" stroke-width="0.538462" stroke-miterlimit="10" stroke-linecap="round" stroke-linejoin="round"/>
<path d="M83.3369 273.902H72.8418" stroke="#1A2E35" stroke-width="0.538462" stroke-miterlimit="10" stroke-linecap="round" stroke-linejoin="round"/>
<path d="M77.488 146.407V277.411" stroke="#1A2E35" stroke-width="0.538462" stroke-miterlimit="10" stroke-linecap="round" stroke-linejoin="round"/>
<path d="M315.324 276.241V282.479" stroke="#1A2E35" stroke-width="0.538462" stroke-miterlimit="10" stroke-linecap="round" stroke-linejoin="round"/>
<path d="M86.4569 276.241V282.479" stroke="#1A2E35" stroke-width="0.538462" stroke-miterlimit="10" stroke-linecap="round" stroke-linejoin="round"/>
<path d="M83.3372 279.75H319.222" stroke="#1A2E35" stroke-width="0.538462" stroke-miterlimit="10" stroke-linecap="round" stroke-linejoin="round"/>
<path d="M135.193 180.327H71.6396" stroke="#1A2E35" stroke-width="0.538462" stroke-miterlimit="10" stroke-linecap="round" stroke-linejoin="round"/>
<path d="M73.5908 176.819V276.241" stroke="#1A2E35" stroke-width="0.538462" stroke-miterlimit="10" stroke-linecap="round" stroke-linejoin="round"/>
<path d="M234.225 197.873V151.866" stroke="#1A2E35" stroke-width="0.538462" stroke-miterlimit="10" stroke-linecap="round" stroke-linejoin="round"/>
<path d="M321.56 197.873V151.866" stroke="#1A2E35" stroke-width="0.538462" stroke-miterlimit="10" stroke-linecap="round" stroke-linejoin="round"/>
<path d="M231.886 157.714H325.071" stroke="#1A2E35" stroke-width="0.538462" stroke-miterlimit="10" stroke-linecap="round" stroke-linejoin="round"/>
<path d="M208.492 276.241V283.649" stroke="#1A2E35" stroke-width="0.538462" stroke-miterlimit="10" stroke-linecap="round" stroke-linejoin="round"/>
<path d="M234.615 276.241V283.649" stroke="#1A2E35" stroke-width="0.538462" stroke-miterlimit="10" stroke-linecap="round" stroke-linejoin="round"/>
</g>
<mask id="mask11_519_42583" style="mask-type:luminance" maskUnits="userSpaceOnUse" x="0" y="0" width="525" height="350">
<path d="M0 5.96046e-06H525V350H0V5.96046e-06Z" fill="white"/>
</mask>
<g mask="url(#mask11_519_42583)">
<path d="M323.133 99.898L322.398 101.001C322.398 101.001 318.352 104.311 317.249 105.782C316.146 107.253 313.755 106.15 311.549 105.782C309.343 105.414 306.032 103.576 305.481 103.392C304.929 103.208 295.552 100.817 292.977 100.817H286.174C283.968 100.817 267.051 96.9559 267.051 96.9559C267.051 96.9559 264.293 97.14 260.247 94.7495C256.202 92.359 254.547 85.1882 253.812 83.5334C253.076 81.8779 252.709 80.2238 253.628 77.281C254.547 74.3396 261.535 54.8488 265.213 48.9646C268.89 43.0804 278.635 34.4382 292.426 35.358C306.216 36.2771 311.917 44.0002 311.917 44.0002L318.72 51.7226V52.4583C318.72 52.4583 321.11 52.0908 322.398 53.3774C323.684 54.6647 324.787 57.7909 324.236 58.71C323.684 59.6291 322.03 62.2037 322.03 62.2037L322.398 81.1429C322.398 81.1429 324.42 83.5334 324.42 86.4755C324.42 89.4169 324.236 91.624 324.236 91.624" stroke="#1A2E35" stroke-width="0.538462" stroke-miterlimit="10"/>
<path d="M269.624 47.4932C269.624 47.4932 279.921 41.2415 291.321 46.7582" stroke="#1A2E35" stroke-width="0.538462" stroke-miterlimit="10"/>
<path d="M309.158 71.9486C309.158 71.9486 312.468 91.991 297.022 96.9561" stroke="#1A2E35" stroke-width="0.538462" stroke-miterlimit="10"/>
<path d="M310.63 81.1428V93.0946C310.63 93.0946 313.204 95.4851 313.204 97.324V103.392" stroke="#1A2E35" stroke-width="0.538462" stroke-miterlimit="10"/>
<path d="M321.11 62.2035L313.203 67.5361H311.549C308.055 57.4225 301.987 52.0906 301.987 52.0906L302.722 50.8033C302.722 50.8033 307.871 44.9191 311.917 44" stroke="#1A2E35" stroke-width="0.538462" stroke-miterlimit="10"/>
<path d="M303.457 50.9866L309.158 58.8931L312.283 60.1804L314.49 63.6741L313.754 66.6162" stroke="#1A2E35" stroke-width="0.538462" stroke-miterlimit="10"/>
<path d="M312.284 60.1807L321.478 53.929" stroke="#1A2E35" stroke-width="0.538462" stroke-miterlimit="10"/>
<path d="M309.159 58.8936L317.802 53.3776" stroke="#1A2E35" stroke-width="0.538462" stroke-miterlimit="10"/>
<path d="M259.144 71.2128C259.144 71.2128 262.086 86.6583 273.303 94.1973" stroke="#1A2E35" stroke-width="0.538462" stroke-miterlimit="10"/>
<path d="M258.776 74.7071C258.776 74.7071 257.49 80.0397 258.409 82.9811C259.328 85.9232 261.534 90.3367 263.925 91.624C266.316 92.9106 269.625 93.0947 269.625 93.0947" stroke="#1A2E35" stroke-width="0.538462" stroke-miterlimit="10"/>
<path d="M298.273 87.3031C291.685 92.8016 280.556 90.3257 273.416 81.7717C266.276 73.2184 265.828 61.8259 272.416 56.3274C279.004 50.8289 290.133 53.3048 297.272 61.8588C304.412 70.4128 304.86 81.8046 298.273 87.3031Z" stroke="#1A2E35" stroke-width="0.538462" stroke-miterlimit="10"/>
<path d="M360.275 99.1621L361.93 96.7716L323.316 91.4397L315.777 96.9557V98.7946L353.656 104.311L353.747 104.59L355.415 109.699L356.6 110.094L357.095 113.553L364.012 106.537L364.111 102.88L365 101.101L364.803 93.0966L362.925 94.9747L363.321 100.904L362.629 100.311C362.629 100.311 361.344 99.8166 361.146 99.5198C360.949 99.2237 360.059 99.0263 358.479 99.3224C356.897 99.6185 356.008 100.014 354.723 100.014C353.438 100.014 348.991 99.0263 347.51 99.0263C346.027 99.0263 344.643 101.595 344.643 101.595L344.05 102.188L354.031 103.967" stroke="#1A2E35" stroke-width="0.538462" stroke-miterlimit="10"/>
<path d="M327.846 92.1084C327.846 92.1084 327.055 95.271 325.968 96.7529" stroke="#1A2E35" stroke-width="0.538462" stroke-miterlimit="10"/>
<path d="M331.5 92.8003C331.5 92.8003 331.006 94.4803 330.511 95.4688" stroke="#1A2E35" stroke-width="0.538462" stroke-miterlimit="10"/>
<path d="M335.158 92.998C335.158 92.998 334.07 96.4567 332.984 98.1367" stroke="#1A2E35" stroke-width="0.538462" stroke-miterlimit="10"/>
<path d="M338.913 93.5912C338.913 93.5912 338.913 94.8757 338.122 96.1602" stroke="#1A2E35" stroke-width="0.538462" stroke-miterlimit="10"/>
<path d="M342.272 94.1843C342.272 94.1843 341.284 97.7417 339.999 99.7178" stroke="#1A2E35" stroke-width="0.538462" stroke-miterlimit="10"/>
<path d="M345.733 94.4798L344.843 97.4443" stroke="#1A2E35" stroke-width="0.538462" stroke-miterlimit="10"/>
<path d="M348.993 95.2707L348.104 98.8281" stroke="#1A2E35" stroke-width="0.538462" stroke-miterlimit="10"/>
<path d="M324.189 92.0093L323.299 94.6777" stroke="#1A2E35" stroke-width="0.538462" stroke-miterlimit="10"/>
<path d="M350.108 100.753C350.108 101.179 349.372 101.523 348.465 101.523C347.557 101.523 346.822 101.179 346.822 100.753C346.822 100.329 347.557 99.9834 348.465 99.9834C349.372 99.9834 350.108 100.329 350.108 100.753Z" stroke="#1A2E35" stroke-width="0.538462" stroke-miterlimit="10"/>
</g>
<mask id="mask12_519_42583" style="mask-type:luminance" maskUnits="userSpaceOnUse" x="0" y="0" width="525" height="350">
<path d="M0 5.96046e-06H525V350H0V5.96046e-06Z" fill="white"/>
</mask>
<g mask="url(#mask12_519_42583)">
<path d="M355.237 177.977C355.237 177.977 354.362 182.527 353.487 189.177C352.612 195.827 352.612 221.552 352.612 222.427C352.612 223.302 349.812 233.977 351.212 235.027C352.612 236.077 354.537 236.077 356.287 236.077C358.037 236.077 359.437 235.902 359.612 234.677C359.787 233.452 359.087 182.877 358.737 179.902C358.387 176.927 355.237 177.977 355.237 177.977Z" fill="#599BFE"/>
</g>
</svg>
