<svg width="360" height="347" viewBox="0 0 360 347" fill="none" xmlns="http://www.w3.org/2000/svg">
<mask id="mask0_519_41731" style="mask-type:luminance" maskUnits="userSpaceOnUse" x="0" y="0" width="401" height="400">
<path d="M0 -0.000184774H400V400H0V-0.000184774Z" fill="white"/>
</mask>
<g mask="url(#mask0_519_41731)">
<path d="M361.825 95.0103C360.498 92.8007 359.118 90.6319 357.676 88.5127C338.478 60.3046 306.519 40.9926 275.458 32.247C261.851 28.4094 247.881 26.4022 233.935 25.8886C142.459 22.5654 108.855 97.9879 79.3824 117.434C49.9096 136.881 4.68317 170.098 10.3584 239.874C14.664 292.927 44.8448 343.654 99.9656 366.739C106.037 369.289 112.416 371.503 119.095 373.34C131.52 376.758 144.986 378.904 159.494 379.549C201.169 381.406 235.007 371.36 268.106 346.064C275.799 340.183 283.452 333.551 293.437 332.824C300.694 332.296 307.574 334.904 299.989 341.917C291.073 350.161 301.361 366.375 323.994 355.11C361.794 336.296 377.344 295.705 384.671 254.43C393.663 203.767 389.304 140.761 361.825 95.0103Z" fill="#599BFE"/>
<mask id="mask1_519_41731" style="mask-type:luminance" maskUnits="userSpaceOnUse" x="9" y="25" width="380" height="355">
<path d="M9.87012 25.7819H388.894V379.765H9.87012V25.7819Z" fill="white"/>
</mask>
<g mask="url(#mask1_519_41731)">
<g opacity="0.699997">
<path d="M361.824 95.0103C360.498 92.8007 359.117 90.6319 357.676 88.5127C338.478 60.3046 306.519 40.9926 275.458 32.247C261.851 28.4094 247.88 26.4022 233.935 25.8886C142.459 22.5654 108.855 97.9879 79.3819 117.434C49.9091 136.881 4.68268 170.098 10.3579 239.874C14.6635 292.927 44.8443 343.654 99.9651 366.739C106.036 369.289 112.416 371.503 119.095 373.34C131.52 376.758 144.986 378.904 159.494 379.549C201.168 381.406 235.007 371.36 268.105 346.064C275.799 340.183 283.452 333.551 293.436 332.824C300.694 332.296 307.574 334.904 299.988 341.917C291.072 350.161 301.36 366.375 323.993 355.11C361.794 336.296 377.344 295.705 384.67 254.43C393.662 203.767 389.304 140.761 361.824 95.0103Z" fill="white"/>
</g>
</g>
</g>
<mask id="mask2_519_41731" style="mask-type:luminance" maskUnits="userSpaceOnUse" x="0" y="0" width="401" height="400">
<path d="M0 -0.000184774H400V400H0V-0.000184774Z" fill="white"/>
</mask>
<g mask="url(#mask2_519_41731)">
<path d="M346.213 109.309C346.213 109.309 342.014 91.8158 317.524 88.3166C293.032 84.8182 289.533 105.81 284.635 108.609C279.737 111.409 276.938 103.711 269.241 104.411C261.544 105.11 257.345 111.409 253.846 114.208C250.348 117.006 244.05 108.609 239.152 110.009C234.253 111.409 230.055 118.406 230.055 118.406H372.104C372.104 118.406 367.205 110.709 360.208 107.909C353.21 105.11 350.412 109.309 346.213 109.309Z" stroke="#1C1B1F" stroke-width="0.8" stroke-miterlimit="10" stroke-linecap="round" stroke-linejoin="round"/>
<path d="M110.388 161.841C110.388 161.841 107.379 149.301 89.8237 146.793C72.2685 144.285 69.7597 159.333 66.2493 161.339C62.7381 163.345 60.7317 157.828 55.2141 158.329C49.6965 158.831 46.6877 163.345 44.1797 165.352C41.6716 167.358 37.1572 161.339 33.646 162.342C30.1348 163.345 27.1252 168.361 27.1252 168.361H128.947C128.947 168.361 125.436 162.844 120.42 160.837C115.404 158.831 113.398 161.841 110.388 161.841Z" stroke="#1C1B1F" stroke-width="0.8" stroke-miterlimit="10" stroke-linecap="round" stroke-linejoin="round"/>
<path d="M156.171 55.8787C156.171 55.8787 154.264 47.9331 143.14 46.3443C132.016 44.7547 130.427 54.2891 128.202 55.5611C125.977 56.8323 124.706 53.3363 121.21 53.6539C117.714 53.9715 115.807 56.8323 114.218 58.1035C112.629 59.3747 109.768 55.5611 107.544 56.1963C105.319 56.8323 103.412 60.0107 103.412 60.0107H167.93C167.93 60.0107 165.705 56.5139 162.527 55.2427C159.349 53.9715 158.077 55.8787 156.171 55.8787Z" stroke="#1C1B1F" stroke-width="0.8" stroke-miterlimit="10" stroke-linecap="round" stroke-linejoin="round"/>
</g>
<mask id="mask3_519_41731" style="mask-type:luminance" maskUnits="userSpaceOnUse" x="0" y="0" width="401" height="400">
<path d="M0 -0.000184774H400V400H0V-0.000184774Z" fill="white"/>
</mask>
<g mask="url(#mask3_519_41731)">
<path d="M265.944 53.8708C265.944 64.026 257.712 72.2588 247.557 72.2588C237.401 72.2588 229.168 64.026 229.168 53.8708C229.168 43.7156 237.401 35.4828 247.557 35.4828C257.712 35.4828 265.944 43.7156 265.944 53.8708Z" stroke="#1C1B1F" stroke-width="0.8" stroke-miterlimit="10" stroke-linecap="round" stroke-linejoin="round"/>
<path d="M247.557 23.0161V30.4961" stroke="#1C1B1F" stroke-width="0.8" stroke-miterlimit="10" stroke-linecap="round" stroke-linejoin="round"/>
<path d="M247.557 78.4917V85.9717" stroke="#1C1B1F" stroke-width="0.8" stroke-miterlimit="10" stroke-linecap="round" stroke-linejoin="round"/>
<path d="M269.815 32.2356L264.526 37.5244" stroke="#1C1B1F" stroke-width="0.8" stroke-miterlimit="10" stroke-linecap="round" stroke-linejoin="round"/>
<path d="M230.587 71.4632L225.298 76.752" stroke="#1C1B1F" stroke-width="0.8" stroke-miterlimit="10" stroke-linecap="round" stroke-linejoin="round"/>
<path d="M279.034 54.4941H271.554" stroke="#1C1B1F" stroke-width="0.8" stroke-miterlimit="10" stroke-linecap="round" stroke-linejoin="round"/>
<path d="M223.559 54.4941H216.078" stroke="#1C1B1F" stroke-width="0.8" stroke-miterlimit="10" stroke-linecap="round" stroke-linejoin="round"/>
<path d="M269.815 76.752L264.526 71.4632" stroke="#1C1B1F" stroke-width="0.8" stroke-miterlimit="10" stroke-linecap="round" stroke-linejoin="round"/>
<path d="M230.587 37.5244L225.298 32.2356" stroke="#1C1B1F" stroke-width="0.8" stroke-miterlimit="10" stroke-linecap="round" stroke-linejoin="round"/>
</g>
<mask id="mask4_519_41731" style="mask-type:luminance" maskUnits="userSpaceOnUse" x="0" y="0" width="401" height="400">
<path d="M0 -0.000184774H400V400H0V-0.000184774Z" fill="white"/>
</mask>
<g mask="url(#mask4_519_41731)">
<path d="M291.894 156.176C291.894 156.176 295.587 155.253 296.695 155.622C297.803 155.991 295.96 157.301 295.96 157.301C295.96 157.301 296.88 157.838 297.434 159.131C297.988 160.423 295.593 159.867 295.593 159.867C295.593 159.867 296.325 160.793 295.587 161.531C294.848 162.27 291.524 158.576 291.524 158.576C291.524 158.576 289.124 160.054 286.908 159.869C284.692 159.684 283.4 159.131 281.922 156.915C280.444 154.699 279.337 153.591 279.337 153.591L277.86 153.037L280.076 151.744C280.076 151.744 281.922 150.082 283.769 150.266C285.615 150.451 286.354 151.006 286.354 151.006C286.354 151.006 287.462 148.05 289.124 146.942C290.785 145.834 295.956 144.358 297.618 143.434C299.28 142.51 298.911 143.988 298.356 144.911C297.803 145.834 296.141 146.574 295.403 146.942C294.664 147.312 299.28 147.497 298.542 148.42C297.803 149.343 295.033 149.713 295.033 149.713C295.033 149.713 297.618 150.636 297.064 151.375C296.511 152.113 294.294 152.113 294.294 152.113C294.294 152.113 295.033 153.96 293.925 153.96H292.817C292.817 153.96 293.372 156.545 291.894 156.176Z" fill="#599BFE"/>
<path d="M291.894 156.176C291.894 156.176 295.587 155.253 296.695 155.622C297.803 155.991 295.96 157.301 295.96 157.301C295.96 157.301 296.88 157.838 297.434 159.131C297.988 160.423 295.593 159.867 295.593 159.867C295.593 159.867 296.325 160.793 295.587 161.531C294.848 162.27 291.524 158.576 291.524 158.576C291.524 158.576 289.124 160.054 286.908 159.869C284.692 159.684 283.4 159.131 281.922 156.915C280.444 154.699 279.337 153.591 279.337 153.591L277.86 153.037L280.076 151.744C280.076 151.744 281.922 150.082 283.769 150.266C285.615 150.451 286.354 151.006 286.354 151.006C286.354 151.006 287.462 148.05 289.124 146.942C290.785 145.834 295.956 144.358 297.618 143.434C299.28 142.51 298.911 143.988 298.356 144.911C297.803 145.834 296.141 146.574 295.403 146.942C294.664 147.312 299.28 147.497 298.542 148.42C297.803 149.343 295.033 149.713 295.033 149.713C295.033 149.713 297.618 150.636 297.064 151.375C296.511 152.113 294.294 152.113 294.294 152.113C294.294 152.113 295.033 153.96 293.925 153.96H292.817C292.817 153.96 293.372 156.545 291.894 156.176Z" stroke="#1C1B1F" stroke-width="0.8" stroke-miterlimit="10" stroke-linecap="round" stroke-linejoin="round"/>
<path d="M286.354 151.006C286.354 151.006 284.877 148.051 285.615 146.205C286.354 144.358 293.186 139.557 293.002 141.403C292.818 143.25 290.971 144.358 290.971 144.358C290.971 144.358 293.74 143.435 293.74 144.173V144.912C293.74 144.912 290.602 145.651 289.124 146.943C287.646 148.236 286.354 151.006 286.354 151.006Z" fill="#1C1B1F"/>
<path d="M286.354 151.006C286.354 151.006 284.877 148.051 285.615 146.205C286.354 144.358 293.186 139.557 293.002 141.403C292.818 143.25 290.971 144.358 290.971 144.358C290.971 144.358 293.74 143.435 293.74 144.173V144.912C293.74 144.912 290.602 145.651 289.124 146.943C287.646 148.236 286.354 151.006 286.354 151.006Z" stroke="#1C1B1F" stroke-width="0.8" stroke-miterlimit="10" stroke-linecap="round" stroke-linejoin="round"/>
<path d="M282.582 152.445C282.582 152.748 282.335 152.994 282.032 152.994C281.729 152.994 281.483 152.748 281.483 152.445C281.483 152.141 281.729 151.895 282.032 151.895C282.335 151.895 282.582 152.141 282.582 152.445Z" fill="#1C1B1F"/>
<path d="M289.449 158.088C289.117 159.208 287.356 159.673 285.517 159.126C283.677 158.581 282.455 157.23 282.788 156.11C283.12 154.991 284.881 154.526 286.72 155.072C288.56 155.618 289.782 156.968 289.449 158.088Z" fill="white"/>
<path d="M289.449 158.088C289.117 159.208 287.356 159.673 285.517 159.126C283.677 158.581 282.455 157.23 282.788 156.11C283.12 154.991 284.881 154.526 286.72 155.072C288.56 155.618 289.782 156.968 289.449 158.088Z" stroke="#1C1B1F" stroke-width="0.4" stroke-miterlimit="10" stroke-linecap="round" stroke-linejoin="round"/>
<path d="M108.218 108.846C108.218 108.846 104.525 107.923 103.417 108.292C102.309 108.661 104.151 109.971 104.151 109.971C104.151 109.971 103.232 110.508 102.678 111.8C102.124 113.093 104.518 112.536 104.518 112.536C104.518 112.536 103.786 113.463 104.525 114.201C105.263 114.94 108.587 111.246 108.587 111.246C108.587 111.246 110.987 112.724 113.203 112.54C115.419 112.355 116.712 111.8 118.19 109.584C119.667 107.368 120.775 106.261 120.775 106.261L122.252 105.707L120.036 104.414C120.036 104.414 118.19 102.752 116.343 102.936C114.496 103.121 113.758 103.676 113.758 103.676C113.758 103.676 112.65 100.721 110.987 99.6124C109.326 98.5052 104.155 97.0276 102.494 96.1044C100.831 95.1812 101.201 96.6588 101.755 97.5812C102.309 98.5052 103.971 99.2436 104.71 99.6124C105.448 99.982 100.831 100.167 101.57 101.09C102.309 102.013 105.079 102.383 105.079 102.383C105.079 102.383 102.494 103.306 103.047 104.045C103.601 104.784 105.818 104.784 105.818 104.784C105.818 104.784 105.079 106.63 106.187 106.63H107.295C107.295 106.63 106.741 109.216 108.218 108.846Z" fill="#599BFE"/>
<path d="M108.218 108.846C108.218 108.846 104.525 107.923 103.417 108.292C102.309 108.661 104.151 109.971 104.151 109.971C104.151 109.971 103.232 110.508 102.678 111.8C102.124 113.093 104.518 112.536 104.518 112.536C104.518 112.536 103.786 113.463 104.525 114.201C105.263 114.94 108.587 111.246 108.587 111.246C108.587 111.246 110.987 112.724 113.203 112.54C115.419 112.355 116.712 111.8 118.19 109.584C119.667 107.368 120.775 106.261 120.775 106.261L122.252 105.707L120.036 104.414C120.036 104.414 118.19 102.752 116.343 102.936C114.496 103.121 113.758 103.676 113.758 103.676C113.758 103.676 112.65 100.721 110.987 99.6124C109.326 98.5052 104.155 97.0276 102.494 96.1044C100.831 95.1812 101.201 96.6588 101.755 97.5812C102.309 98.5052 103.971 99.2436 104.71 99.6124C105.448 99.982 100.831 100.167 101.57 101.09C102.309 102.013 105.079 102.383 105.079 102.383C105.079 102.383 102.494 103.306 103.047 104.045C103.601 104.784 105.818 104.784 105.818 104.784C105.818 104.784 105.079 106.63 106.187 106.63H107.295C107.295 106.63 106.741 109.216 108.218 108.846Z" stroke="#1C1B1F" stroke-width="0.8" stroke-miterlimit="10" stroke-linecap="round" stroke-linejoin="round"/>
<path d="M113.757 103.676C113.757 103.676 115.235 100.721 114.496 98.875C113.757 97.0278 106.925 92.227 107.109 94.0734C107.294 95.9206 109.141 97.0278 109.141 97.0278C109.141 97.0278 106.371 96.1046 106.371 96.843V97.5822C106.371 97.5822 109.51 98.3206 110.988 99.6134C112.465 100.906 113.757 103.676 113.757 103.676Z" fill="#1C1B1F"/>
<path d="M113.757 103.676C113.757 103.676 115.235 100.721 114.496 98.875C113.757 97.0278 106.925 92.227 107.109 94.0734C107.294 95.9206 109.141 97.0278 109.141 97.0278C109.141 97.0278 106.371 96.1046 106.371 96.843V97.5822C106.371 97.5822 109.51 98.3206 110.988 99.6134C112.465 100.906 113.757 103.676 113.757 103.676Z" stroke="#1C1B1F" stroke-width="0.8" stroke-miterlimit="10" stroke-linecap="round" stroke-linejoin="round"/>
<path d="M117.531 105.114C117.531 105.418 117.777 105.664 118.08 105.664C118.384 105.664 118.631 105.418 118.631 105.114C118.631 104.811 118.384 104.565 118.08 104.565C117.777 104.565 117.531 104.811 117.531 105.114Z" fill="#1C1B1F"/>
<path d="M110.663 110.758C110.996 111.877 112.756 112.343 114.596 111.797C116.435 111.251 117.657 109.901 117.324 108.781C116.992 107.661 115.232 107.196 113.392 107.741C111.552 108.288 110.33 109.638 110.663 110.758Z" fill="white"/>
<path d="M110.663 110.758C110.996 111.877 112.756 112.343 114.596 111.797C116.435 111.251 117.657 109.901 117.324 108.781C116.992 107.661 115.232 107.196 113.392 107.741C111.552 108.288 110.33 109.638 110.663 110.758Z" stroke="#1C1B1F" stroke-width="0.4" stroke-miterlimit="10" stroke-linecap="round" stroke-linejoin="round"/>
</g>
<mask id="mask5_519_41731" style="mask-type:luminance" maskUnits="userSpaceOnUse" x="0" y="0" width="401" height="400">
<path d="M0 -0.000184774H400V400H0V-0.000184774Z" fill="white"/>
</mask>
<g mask="url(#mask5_519_41731)">
<path d="M98.301 246.374C98.301 246.374 91.0002 234.763 77.7666 227.902C64.5338 221.04 58.8914 214.264 65.7586 214.668C74.0906 215.158 92.9602 221.776 101.537 245.056C105.238 255.1 98.301 246.374 98.301 246.374Z" fill="#599BFE" stroke="#1C1B1F" stroke-width="0.8" stroke-miterlimit="10" stroke-linecap="round" stroke-linejoin="round"/>
<path d="M97.8617 243.34C97.8617 243.34 91.2449 230.107 78.7473 223.735" stroke="#1C1B1F" stroke-width="0.8" stroke-miterlimit="10" stroke-linecap="round" stroke-linejoin="round"/>
<path d="M106.259 254.402C106.259 254.402 102.086 242.729 104.6 229.492C107.114 216.256 105.45 208.463 101.902 213.568C97.5972 219.763 91.7604 236.868 103.515 255.965C108.586 264.205 106.259 254.402 106.259 254.402Z" fill="#599BFE" stroke="#1C1B1F" stroke-width="0.8" stroke-miterlimit="10" stroke-linecap="round" stroke-linejoin="round"/>
<path d="M104.349 252.395C104.349 252.395 98.6399 240.303 101.092 227.863" stroke="#1C1B1F" stroke-width="0.8" stroke-miterlimit="10" stroke-linecap="round" stroke-linejoin="round"/>
<path d="M98.842 240.535C98.842 240.535 94.6692 228.863 97.1828 215.626C99.6972 202.39 98.0332 194.597 94.4852 199.703C90.1804 205.897 84.3436 223.002 96.098 242.099C101.169 250.339 98.842 240.535 98.842 240.535Z" fill="#599BFE" stroke="#1C1B1F" stroke-width="0.8" stroke-miterlimit="10" stroke-linecap="round" stroke-linejoin="round"/>
<path d="M97.8613 243.34C97.8613 243.34 91.2229 226.436 93.6757 213.996" stroke="#1C1B1F" stroke-width="0.8" stroke-miterlimit="10" stroke-linecap="round" stroke-linejoin="round"/>
<path d="M264.957 231.912C264.957 231.912 272.259 220.302 285.492 213.44C298.725 206.579 304.367 199.803 297.5 200.207C289.168 200.697 270.298 207.314 261.72 230.595C258.02 240.639 264.957 231.912 264.957 231.912Z" fill="#599BFE" stroke="#1C1B1F" stroke-width="0.8" stroke-miterlimit="10" stroke-linecap="round" stroke-linejoin="round"/>
<path d="M265.397 228.878C265.397 228.878 272.014 215.645 284.511 209.273" stroke="#1C1B1F" stroke-width="0.8" stroke-miterlimit="10" stroke-linecap="round" stroke-linejoin="round"/>
<path d="M256.999 239.94C256.999 239.94 261.172 228.267 258.657 215.03C256.144 201.794 257.808 194 261.356 199.106C265.66 205.301 271.496 222.406 259.743 241.504C254.672 249.743 256.999 239.94 256.999 239.94Z" fill="#599BFE" stroke="#1C1B1F" stroke-width="0.8" stroke-miterlimit="10" stroke-linecap="round" stroke-linejoin="round"/>
<path d="M258.909 237.934C258.909 237.934 264.618 225.841 262.166 213.401" stroke="#1C1B1F" stroke-width="0.8" stroke-miterlimit="10" stroke-linecap="round" stroke-linejoin="round"/>
<path d="M264.416 226.074C264.416 226.074 268.589 214.4 266.075 201.164C263.561 187.928 265.225 180.135 268.773 185.24C273.078 191.436 278.914 208.54 267.161 227.637C262.089 235.876 264.416 226.074 264.416 226.074Z" fill="#599BFE" stroke="#1C1B1F" stroke-width="0.8" stroke-miterlimit="10" stroke-linecap="round" stroke-linejoin="round"/>
<path d="M265.397 228.878C265.397 228.878 272.035 211.974 269.583 199.534" stroke="#1C1B1F" stroke-width="0.8" stroke-miterlimit="10" stroke-linecap="round" stroke-linejoin="round"/>
</g>
<path d="M268.289 190.516H192.241L149.696 122.861H225.743L268.289 190.516Z" fill="#1C1B1F"/>
<path d="M268.289 190.516H192.241L149.696 122.861H225.743L268.289 190.516Z" stroke="#1C1B1F" stroke-width="0.8" stroke-miterlimit="10" stroke-linecap="round" stroke-linejoin="round"/>
<path d="M181.658 257.041H103.714V188.19H181.658V257.041Z" fill="#C8C8C8" stroke="#1C1B1F" stroke-width="0.800001" stroke-miterlimit="10" stroke-linecap="round" stroke-linejoin="round"/>
<path d="M259.602 257.041H181.658V188.191L221.281 125.186L259.602 188.191V257.041Z" fill="white"/>
<path d="M259.602 257.041H181.658V188.191L221.281 125.186L259.602 188.191V257.041Z" stroke="#1C1B1F" stroke-width="0.8" stroke-miterlimit="10" stroke-linecap="round" stroke-linejoin="round"/>
<path d="M198.546 223.915H190.752V200.532H198.546V223.915Z" fill="#C8C8C8" stroke="#1C1B1F" stroke-width="0.800001" stroke-miterlimit="10" stroke-linecap="round" stroke-linejoin="round"/>
<path d="M206.341 223.915H198.547V200.532H206.341V223.915Z" fill="#1C1B1F" stroke="#1C1B1F" stroke-width="0.800001" stroke-miterlimit="10" stroke-linecap="round" stroke-linejoin="round"/>
<path d="M214.135 223.915H206.341V200.532H214.135V223.915Z" fill="#C8C8C8" stroke="#1C1B1F" stroke-width="0.800001" stroke-miterlimit="10" stroke-linecap="round" stroke-linejoin="round"/>
<path d="M162.823 223.915H156.327V200.532H162.823V223.915Z" fill="#929292" stroke="#1C1B1F" stroke-width="0.800001" stroke-miterlimit="10" stroke-linecap="round" stroke-linejoin="round"/>
<path d="M169.318 223.915H162.823V200.532H169.318V223.915Z" fill="#1C1B1F" stroke="#1C1B1F" stroke-width="0.800001" stroke-miterlimit="10" stroke-linecap="round" stroke-linejoin="round"/>
<path d="M175.813 223.915H169.318V200.532H175.813V223.915Z" fill="#929292" stroke="#1C1B1F" stroke-width="0.800001" stroke-miterlimit="10" stroke-linecap="round" stroke-linejoin="round"/>
<path d="M114.757 223.915H108.262V200.532H114.757V223.915Z" fill="#929292" stroke="#1C1B1F" stroke-width="0.800001" stroke-miterlimit="10" stroke-linecap="round" stroke-linejoin="round"/>
<path d="M121.252 223.915H114.756V200.532H121.252V223.915Z" fill="#1C1B1F" stroke="#1C1B1F" stroke-width="0.800001" stroke-miterlimit="10" stroke-linecap="round" stroke-linejoin="round"/>
<path d="M127.747 223.915H121.252V200.532H127.747V223.915Z" fill="#929292" stroke="#1C1B1F" stroke-width="0.800001" stroke-miterlimit="10" stroke-linecap="round" stroke-linejoin="round"/>
<path d="M238.168 223.915H230.374V200.532H238.168V223.915Z" fill="#C8C8C8" stroke="#1C1B1F" stroke-width="0.800001" stroke-miterlimit="10" stroke-linecap="round" stroke-linejoin="round"/>
<path d="M245.963 223.915H238.168V200.532H245.963V223.915Z" fill="#1C1B1F" stroke="#1C1B1F" stroke-width="0.800001" stroke-miterlimit="10" stroke-linecap="round" stroke-linejoin="round"/>
<path d="M253.756 223.915H245.962V200.532H253.756V223.915Z" fill="#C8C8C8" stroke="#1C1B1F" stroke-width="0.800001" stroke-miterlimit="10" stroke-linecap="round" stroke-linejoin="round"/>
<path d="M219.981 176.5H214.784V162.21H219.981V176.5Z" fill="#C8C8C8" stroke="#1C1B1F" stroke-width="0.800001" stroke-miterlimit="10" stroke-linecap="round" stroke-linejoin="round"/>
<path d="M225.177 176.5H219.981V162.21H225.177V176.5Z" fill="#1C1B1F" stroke="#1C1B1F" stroke-width="0.800001" stroke-miterlimit="10" stroke-linecap="round" stroke-linejoin="round"/>
<path d="M230.373 176.5H225.177V162.21H230.373V176.5Z" fill="#C8C8C8" stroke="#1C1B1F" stroke-width="0.800001" stroke-miterlimit="10" stroke-linecap="round" stroke-linejoin="round"/>
<path d="M99.3765 190.516H183.072L225.618 122.861H141.922L99.3765 190.516Z" fill="#599BFE"/>
<path d="M99.3765 190.516H183.072L225.618 122.861H141.922L99.3765 190.516Z" stroke="#1C1B1F" stroke-width="0.8" stroke-miterlimit="10" stroke-linecap="round" stroke-linejoin="round"/>
<path d="M164.724 153.42H131.672V175.292H164.724V153.42Z" fill="#C8C8C8" stroke="#1C1B1F" stroke-width="0.800001" stroke-miterlimit="10" stroke-linecap="round" stroke-linejoin="round"/>
<path d="M164.724 153.42L187.563 137.734L164.724 175.292V153.42Z" fill="white"/>
<path d="M164.724 153.42L187.563 137.734L164.724 175.292V153.42Z" stroke="#1C1B1F" stroke-width="0.8" stroke-miterlimit="10" stroke-linecap="round" stroke-linejoin="round"/>
<path d="M129.024 154.163H163.642L187.563 137.734H152.951L129.024 154.163Z" fill="#599BFE"/>
<path d="M129.024 154.163H163.642L187.563 137.734H152.951L129.024 154.163Z" stroke="#1C1B1F" stroke-width="0.8" stroke-miterlimit="10" stroke-linecap="round" stroke-linejoin="round"/>
<path d="M144.961 172.354H139.764V158.064H144.961V172.354Z" fill="#929292" stroke="#1C1B1F" stroke-width="0.800001" stroke-miterlimit="10" stroke-linecap="round" stroke-linejoin="round"/>
<path d="M150.157 172.354H144.961V158.064H150.157V172.354Z" fill="#1C1B1F" stroke="#1C1B1F" stroke-width="0.800001" stroke-miterlimit="10" stroke-linecap="round" stroke-linejoin="round"/>
<path d="M155.353 172.354H150.157V158.064H155.353V172.354Z" fill="#929292" stroke="#1C1B1F" stroke-width="0.800001" stroke-miterlimit="10" stroke-linecap="round" stroke-linejoin="round"/>
<path d="M205.468 112.6H202.562V133.828L205.468 129.135V112.6Z" fill="white"/>
<path d="M205.468 112.6H202.562V133.828L205.468 129.135V112.6Z" stroke="#1C1B1F" stroke-width="0.8" stroke-miterlimit="10" stroke-linecap="round" stroke-linejoin="round"/>
<path d="M202.695 112.6H194.106V133.828H202.695V112.6Z" fill="#C8C8C8" stroke="#1C1B1F" stroke-width="0.800001" stroke-miterlimit="10" stroke-linecap="round" stroke-linejoin="round"/>
<path d="M152.689 257.041H132.684V204.463H152.689V257.041Z" fill="#1C1B1F" stroke="#1C1B1F" stroke-width="0.800001" stroke-miterlimit="10" stroke-linecap="round" stroke-linejoin="round"/>
<mask id="mask6_519_41731" style="mask-type:luminance" maskUnits="userSpaceOnUse" x="0" y="0" width="401" height="400">
<path d="M0 -0.000184774H400V400H0V-0.000184774Z" fill="white"/>
</mask>
<g mask="url(#mask6_519_41731)">
<path d="M151.635 230.685C151.635 229.706 150.842 228.914 149.864 228.914C148.886 228.914 148.093 229.706 148.093 230.685C148.093 231.663 148.886 232.455 149.864 232.455C150.842 232.455 151.635 231.663 151.635 230.685Z" fill="white"/>
<path d="M151.635 230.685C151.635 229.706 150.842 228.914 149.864 228.914C148.886 228.914 148.093 229.706 148.093 230.685C148.093 231.663 148.886 232.455 149.864 232.455C150.842 232.455 151.635 231.663 151.635 230.685Z" stroke="#1C1B1F" stroke-width="0.8" stroke-miterlimit="10" stroke-linecap="round" stroke-linejoin="round"/>
</g>
<mask id="mask7_519_41731" style="mask-type:luminance" maskUnits="userSpaceOnUse" x="0" y="0" width="401" height="400">
<path d="M0 -0.000183105H400V400H0V-0.000183105Z" fill="white"/>
</mask>
<g mask="url(#mask7_519_41731)">
<path d="M99.5894 246.043C99.5894 246.043 82.835 236.874 67.1894 235.171C51.5437 233.468 42.4917 240.758 42.5693 243.923C42.6461 247.088 53.5053 247.325 55.5654 247.854C57.6254 248.383 70.2086 244.907 88.7782 249.319C107.348 253.731 109.725 254.639 109.725 254.639L99.5894 246.043Z" fill="white"/>
<path d="M99.5894 246.043C99.5894 246.043 82.835 236.874 67.1894 235.171C51.5437 233.468 42.4917 240.758 42.5693 243.923C42.6461 247.088 53.5053 247.325 55.5654 247.854C57.6254 248.383 70.2086 244.907 88.7782 249.319C107.348 253.731 109.725 254.639 109.725 254.639L99.5894 246.043Z" stroke="#1C1B1F" stroke-width="0.8" stroke-miterlimit="10" stroke-linecap="round" stroke-linejoin="round"/>
<path d="M92.5813 245.833C92.5813 245.833 75.0997 238.141 59.3661 237.792C43.6317 237.442 35.2405 245.484 35.5909 248.631C35.9405 251.777 46.7789 251.078 48.8765 251.428C50.9749 251.777 63.2117 247.232 82.0925 250.029C100.972 252.826 103.42 253.525 103.42 253.525L92.5813 245.833Z" fill="white"/>
<path d="M92.5813 245.833C92.5813 245.833 75.0997 238.141 59.3661 237.792C43.6317 237.442 35.2405 245.484 35.5909 248.631C35.9405 251.777 46.7789 251.078 48.8765 251.428C50.9749 251.777 63.2117 247.232 82.0925 250.029C100.972 252.826 103.42 253.525 103.42 253.525L92.5813 245.833Z" stroke="#1C1B1F" stroke-width="0.8" stroke-miterlimit="10" stroke-linecap="round" stroke-linejoin="round"/>
<path d="M316.052 239.362L291.776 232.788C291.776 232.788 274.581 219.132 253.846 220.649C233.11 222.167 214.398 230.259 208.329 234.811C202.26 239.362 194.673 243.913 193.156 244.925C191.639 245.937 170.904 240.374 159.777 244.925C148.651 249.477 140.052 258.58 140.052 258.58C140.052 258.58 93.0187 244.42 81.3859 242.396C69.7539 240.374 56.0987 241.385 46.4899 248.466C36.8803 255.545 38.9035 260.098 43.9611 261.109C49.0187 262.12 50.0299 257.064 77.8459 264.649C105.662 272.236 139.548 291.96 153.203 299.545C166.857 307.132 189.616 317.752 204.788 313.201C219.961 308.649 261.432 292.972 271.041 292.972C280.65 292.972 311.501 294.994 311.501 294.994L316.052 239.362Z" fill="white"/>
<path d="M316.052 239.362L291.776 232.788C291.776 232.788 274.581 219.132 253.846 220.649C233.11 222.167 214.398 230.259 208.329 234.811C202.26 239.362 194.673 243.913 193.156 244.925C191.639 245.937 170.904 240.374 159.777 244.925C148.651 249.477 140.052 258.58 140.052 258.58C140.052 258.58 93.0187 244.42 81.3859 242.396C69.7539 240.374 56.0987 241.385 46.4899 248.466C36.8803 255.545 38.9035 260.098 43.9611 261.109C49.0187 262.12 50.0299 257.064 77.8459 264.649C105.662 272.236 139.548 291.96 153.203 299.545C166.857 307.132 189.616 317.752 204.788 313.201C219.961 308.649 261.432 292.972 271.041 292.972C280.65 292.972 311.501 294.994 311.501 294.994L316.052 239.362Z" stroke="#1C1B1F" stroke-width="0.8" stroke-miterlimit="10" stroke-linecap="round" stroke-linejoin="round"/>
<path d="M302.851 272.819L281.987 292.848L311.501 294.994L302.851 272.819Z" fill="#1C1B1F"/>
<path d="M302.851 272.819L281.987 292.848L311.501 294.994L302.851 272.819Z" stroke="#1C1B1F" stroke-width="0.8" stroke-miterlimit="10" stroke-linecap="round" stroke-linejoin="round"/>
<path d="M140.052 258.58C140.052 258.58 135.355 264.754 137.335 272.755C138.557 277.697 144.328 276.6 154.816 274.503C165.306 272.405 155.516 271.007 179.991 270.657C204.465 270.307 230.688 269.608 232.086 269.608" stroke="#1C1B1F" stroke-width="0.8" stroke-miterlimit="10" stroke-linecap="round" stroke-linejoin="round"/>
<path d="M139.876 275.733C139.876 275.733 140.342 272.54 143.751 270.566C143.751 270.566 149.564 267.552 153.224 267.552C156.884 267.552 159.897 271.427 158.821 272.719" stroke="#1C1B1F" stroke-width="0.8" stroke-miterlimit="10" stroke-linecap="round" stroke-linejoin="round"/>
<path d="M171.308 269.706V265.4" stroke="#1C1B1F" stroke-width="0.8" stroke-miterlimit="10" stroke-linecap="round" stroke-linejoin="round"/>
<path d="M173.462 261.31C173.462 261.31 174.108 263.678 173.677 267.338" stroke="#1C1B1F" stroke-width="0.8" stroke-miterlimit="10" stroke-linecap="round" stroke-linejoin="round"/>
<path d="M337.329 318.32H304.711C302.727 318.32 301.12 316.712 301.12 314.73V232.893C301.12 230.909 302.727 229.302 304.711 229.302H337.329V318.32Z" fill="#599BFE"/>
<path d="M337.329 318.32H304.711C302.727 318.32 301.12 316.712 301.12 314.73V232.893C301.12 230.909 302.727 229.302 304.711 229.302H337.329V318.32Z" stroke="#1C1B1F" stroke-width="0.8" stroke-miterlimit="10" stroke-linecap="round" stroke-linejoin="round"/>
<path d="M395.35 325.274H337.6C336.091 325.274 334.868 324.052 334.868 322.543V227.463C334.868 225.955 336.091 224.732 337.6 224.732H395.35V325.274Z" fill="#599BFE"/>
<path d="M395.35 325.274H337.6C336.091 325.274 334.868 324.052 334.868 322.543V227.463C334.868 225.955 336.091 224.732 337.6 224.732H395.35V325.274Z" stroke="#1C1B1F" stroke-width="0.8" stroke-miterlimit="10" stroke-linecap="round" stroke-linejoin="round"/>
<path d="M306.14 237.458H333.059Z" fill="#599BFE"/>
<path d="M306.14 237.458H333.059" stroke="#1C1B1F" stroke-width="0.8" stroke-miterlimit="10" stroke-linecap="round" stroke-linejoin="round"/>
<path d="M332.693 248.021H305.325Z" fill="#599BFE"/>
<path d="M332.693 248.021H305.325" stroke="#1C1B1F" stroke-width="0.8" stroke-miterlimit="10" stroke-linecap="round" stroke-linejoin="round"/>
<path d="M304.365 267.227H323.091Z" fill="#599BFE"/>
<path d="M304.365 267.227H323.091" stroke="#1C1B1F" stroke-width="0.8" stroke-miterlimit="10" stroke-linecap="round" stroke-linejoin="round"/>
<path d="M326.452 267.227H332.694Z" fill="#599BFE"/>
<path d="M326.452 267.227H332.694" stroke="#1C1B1F" stroke-width="0.8" stroke-miterlimit="10" stroke-linecap="round" stroke-linejoin="round"/>
</g>
</svg>
