<svg width="170" height="170" viewBox="0 0 170 170" fill="none" xmlns="http://www.w3.org/2000/svg">
<mask id="mask0_386_40979" style="mask-type:luminance" maskUnits="userSpaceOnUse" x="0" y="0" width="170" height="170">
<path d="M0 0H170V170H0V0Z" fill="white"/>
</mask>
<g mask="url(#mask0_386_40979)">
<path d="M153.445 36.8933C152.88 35.9522 152.292 35.0288 151.678 34.1261C143.502 22.1128 129.891 13.8879 116.662 10.1632C110.867 8.52881 104.918 7.67406 98.9781 7.45544C60.0196 6.03967 45.7076 38.1615 33.1558 46.4436C20.6037 54.7256 1.34202 68.872 3.75908 98.5894C5.59304 121.184 18.4467 142.788 41.922 152.62C44.5074 153.706 47.2247 154.649 50.0691 155.431C55.3605 156.886 61.0957 157.8 67.2748 158.075C85.0232 158.866 99.4344 154.588 113.531 143.814C116.808 141.31 120.067 138.485 124.319 138.176C127.41 137.951 130.34 139.061 127.11 142.048C123.313 145.559 127.694 152.464 137.333 147.667C153.432 139.654 160.054 122.367 163.175 104.788C167.004 83.2115 165.148 56.378 153.445 36.8933Z" fill="#599BFE"/>
<mask id="mask1_386_40979" style="mask-type:luminance" maskUnits="userSpaceOnUse" x="3" y="7" width="162" height="152">
<path d="M3.55078 7.40952H164.973V158.167H3.55078V7.40952Z" fill="white"/>
</mask>
<g mask="url(#mask1_386_40979)">
<g opacity="0.699997">
<path d="M153.445 36.8933C152.88 35.9522 152.292 35.0288 151.678 34.1261C143.502 22.1128 129.891 13.8879 116.662 10.1632C110.867 8.52881 104.918 7.67406 98.9781 7.45544C60.0196 6.03967 45.7076 38.1615 33.1558 46.4436C20.6037 54.7256 1.34202 68.872 3.75908 98.5894C5.59304 121.184 18.4467 142.788 41.922 152.62C44.5074 153.706 47.2247 154.649 50.0691 155.431C55.3605 156.886 61.0957 157.8 67.2748 158.075C85.0232 158.866 99.4344 154.588 113.531 143.814C116.808 141.31 120.067 138.485 124.319 138.176C127.41 137.951 130.34 139.061 127.11 142.048C123.313 145.559 127.694 152.464 137.333 147.667C153.432 139.654 160.054 122.367 163.175 104.788C167.004 83.2115 165.148 56.378 153.445 36.8933Z" fill="white"/>
</g>
</g>
</g>
<path d="M10.1621 159.478H156.377" stroke="#1A2E35" stroke-width="0.34" stroke-miterlimit="10" stroke-linecap="round" stroke-linejoin="round"/>
<mask id="mask2_386_40979" style="mask-type:luminance" maskUnits="userSpaceOnUse" x="0" y="0" width="170" height="170">
<path d="M0 0H170V170H0V0Z" fill="white"/>
</mask>
<g mask="url(#mask2_386_40979)">
<path d="M160.841 137.144C159.938 137.425 157.834 137.146 157.833 137.145C157.811 137.142 158.438 135.815 158.487 135.736C159.056 134.819 160.695 133.382 161.868 133.674C162.713 133.884 163.095 134.796 162.813 135.581C162.524 136.384 161.611 136.904 160.841 137.144Z" fill="#1A2E35"/>
<path d="M141.234 136.554C141.214 136.564 141.005 135.111 141.002 135.017C140.972 133.939 141.546 131.836 142.685 131.433C143.506 131.142 144.327 131.691 144.525 132.502C144.727 133.331 144.252 134.268 143.742 134.893C143.144 135.626 141.235 136.553 141.234 136.554Z" fill="#1A2E35"/>
<path d="M141.601 152.09C142.307 152.18 143.702 151.783 144.093 151.665C144.158 152.266 144.235 152.861 144.338 153.443C144.388 153.692 144.423 153.951 144.485 154.188C144.542 154.428 144.598 154.666 144.654 154.902C144.787 155.385 144.909 155.834 145.044 156.281C145.111 156.507 145.179 156.719 145.247 156.938C145.079 156.591 144.804 156.046 144.774 155.999C144.255 155.204 142.786 153.975 141.762 154.254C141.024 154.456 140.706 155.264 140.97 155.949C141.24 156.649 142.053 157.087 142.733 157.283C143.484 157.498 145.136 157.26 145.337 157.23C145.505 157.765 145.674 158.284 145.842 158.767C145.951 159.085 146.057 159.383 146.162 159.674H146.859C146.721 159.32 146.58 158.952 146.434 158.556C146.274 158.123 146.111 157.661 145.948 157.185C146.134 157.108 147.564 156.5 148.14 155.943C148.744 156.327 149.43 156.652 149.551 156.708C149.397 157.247 149.251 157.774 149.124 158.269C148.995 158.767 148.882 159.231 148.778 159.674H149.454C149.54 159.276 149.63 158.863 149.735 158.419C149.84 157.97 149.959 157.495 150.086 157.008C150.29 157.047 151.927 157.35 152.685 157.165C153.373 156.997 154.203 156.592 154.5 155.904C154.792 155.23 154.506 154.41 153.777 154.179C152.764 153.858 151.248 155.028 150.698 155.8C150.662 155.85 150.312 156.481 150.14 156.808C150.218 156.514 150.294 156.221 150.38 155.917C150.501 155.477 150.643 155.017 150.777 154.57C150.856 154.341 150.935 154.11 151.015 153.876C151.09 153.639 151.192 153.421 151.28 153.19C151.417 152.853 151.575 152.514 151.732 152.174C152.171 152.324 153.47 152.74 154.153 152.68C154.859 152.619 155.741 152.344 156.139 151.709C156.529 151.087 156.371 150.233 155.685 149.894C154.733 149.423 153.057 150.35 152.396 151.031C152.375 151.052 152.25 151.211 152.104 151.4C152.267 151.073 152.429 150.746 152.606 150.42C153.106 149.496 153.645 148.57 154.181 147.64C154.293 147.446 154.402 147.251 154.513 147.057C154.882 147.185 156.285 147.648 157.001 147.586C157.706 147.524 158.588 147.249 158.986 146.614C159.376 145.992 159.219 145.138 158.533 144.799C157.581 144.329 155.904 145.255 155.243 145.936C155.22 145.96 155.071 146.149 154.907 146.362C155.191 145.853 155.468 145.342 155.727 144.826C156.18 143.924 156.579 143.011 156.894 142.096C157.024 142.143 158.657 142.72 159.453 142.65C160.159 142.588 161.041 142.313 161.439 141.678C161.829 141.056 161.671 140.202 160.985 139.863C160.033 139.393 158.356 140.32 157.696 141C157.649 141.048 157.117 141.737 156.935 141.99C156.939 141.979 156.944 141.968 156.948 141.957C157.27 140.993 157.459 140.034 157.594 139.116C157.73 138.199 157.78 137.325 157.805 136.519C157.832 135.713 157.808 134.974 157.781 134.32C157.763 133.966 157.741 133.643 157.716 133.341C157.72 133.344 157.734 133.355 157.734 133.355C157.75 133.367 158.177 132.149 158.195 132.069C158.404 131.144 158.266 129.234 157.351 128.693C156.693 128.303 155.892 128.637 155.583 129.303C155.269 129.984 155.52 130.873 155.853 131.498C156.195 132.138 157.371 133.074 157.666 133.303C157.685 133.616 157.702 133.952 157.712 134.323C157.725 134.975 157.733 135.713 157.689 136.515C157.677 136.728 157.657 136.958 157.64 137.18C157.59 136.8 157.513 136.277 157.5 136.228C157.26 135.31 156.256 133.679 155.195 133.62C154.431 133.577 153.875 134.243 153.908 134.976C153.942 135.725 154.574 136.399 155.158 136.8C155.767 137.218 157.28 137.508 157.612 137.568C157.569 138.061 157.512 138.566 157.423 139.089C157.27 139.993 157.06 140.948 156.721 141.89C156.688 141.885 156.694 141.886 156.661 141.881C156.657 141.523 156.632 140.772 156.623 140.711C156.485 139.773 155.667 138.041 154.619 137.865C153.864 137.74 153.237 138.34 153.19 139.073C153.142 139.821 153.696 140.559 154.233 141.022C154.851 141.555 156.581 142.054 156.646 142.073C156.318 142.948 155.916 143.822 155.457 144.687C155.125 145.313 154.764 145.935 154.395 146.555C154.399 146.304 154.367 145.319 154.357 145.249C154.218 144.31 153.4 142.578 152.352 142.403C151.598 142.277 150.971 142.877 150.923 143.61C150.875 144.358 151.43 145.097 151.966 145.56C152.57 146.08 154.225 146.566 154.364 146.606C154.197 146.888 154.031 147.17 153.86 147.45C153.305 148.367 152.744 149.284 152.219 150.206C152.036 150.525 151.869 150.847 151.699 151.168C151.693 150.792 151.67 150.107 151.661 150.049C151.523 149.11 150.705 147.379 149.657 147.204C148.903 147.077 148.276 147.678 148.228 148.41C148.18 149.159 148.734 149.897 149.271 150.36C149.81 150.825 151.193 151.263 151.584 151.381C151.306 151.917 151.042 152.456 150.807 152.998C150.711 153.234 150.598 153.469 150.519 153.701C150.434 153.933 150.349 154.162 150.266 154.39C150.11 154.866 149.964 155.308 149.831 155.755C149.762 155.981 149.702 156.195 149.637 156.415C149.689 156.033 149.76 155.426 149.761 155.37C149.766 154.422 149.22 152.586 148.21 152.254C147.484 152.015 146.773 152.514 146.615 153.231C146.595 153.322 146.584 153.414 146.582 153.507C146.096 154.201 145.814 155.211 145.792 155.84C145.79 155.901 145.846 156.621 145.883 156.988C145.786 156.7 145.688 156.414 145.592 156.112C145.45 155.679 145.314 155.217 145.18 154.77C145.12 154.536 145.058 154.299 144.995 154.06C144.927 153.82 144.892 153.584 144.838 153.342C144.767 152.986 144.711 152.615 144.654 152.245C145.104 152.127 146.417 151.759 146.954 151.332C147.508 150.891 148.092 150.175 148.073 149.426C148.056 148.692 147.453 148.066 146.694 148.162C145.64 148.295 144.753 149.993 144.578 150.925C144.572 150.955 144.555 151.156 144.538 151.394C144.494 151.032 144.448 150.67 144.416 150.3C144.324 149.253 144.262 148.184 144.196 147.112C144.183 146.889 144.166 146.666 144.151 146.443C144.53 146.345 145.955 145.959 146.518 145.512C147.073 145.071 147.657 144.355 147.638 143.606C147.62 142.872 147.018 142.247 146.258 142.342C145.205 142.475 144.317 144.173 144.142 145.105C144.136 145.138 144.116 145.378 144.097 145.647C144.053 145.065 144.002 144.486 143.933 143.912C143.814 142.91 143.642 141.929 143.401 140.992C143.535 140.959 145.215 140.539 145.841 140.042C146.395 139.601 146.979 138.885 146.961 138.136C146.943 137.402 146.34 136.777 145.581 136.872C144.527 137.006 143.64 138.703 143.464 139.635C143.452 139.701 143.389 140.569 143.376 140.88C143.373 140.869 143.372 140.857 143.369 140.846C143.106 139.865 142.734 138.96 142.34 138.119C141.948 137.28 141.507 136.523 141.084 135.837C140.662 135.15 140.234 134.547 139.851 134.017C139.64 133.731 139.443 133.474 139.257 133.236C139.261 133.236 139.279 133.238 139.279 133.238C139.299 133.239 138.983 131.988 138.954 131.911C138.619 131.024 137.449 129.507 136.388 129.56C135.624 129.598 135.14 130.319 135.25 131.045C135.363 131.786 136.063 132.389 136.686 132.726C137.324 133.071 138.821 133.203 139.194 133.232C139.382 133.483 139.581 133.753 139.795 134.057C140.165 134.594 140.579 135.204 140.984 135.898C141.093 136.082 141.202 136.285 141.311 136.48C141.059 136.19 140.707 135.797 140.669 135.763C139.962 135.13 138.225 134.323 137.308 134.859C136.647 135.245 136.55 136.107 136.982 136.701C137.424 137.307 138.322 137.519 139.03 137.532C139.77 137.544 141.192 136.952 141.502 136.819C141.737 137.254 141.969 137.706 142.183 138.192C142.554 139.03 142.906 139.942 143.142 140.915C143.112 140.929 143.117 140.926 143.087 140.94C142.887 140.644 142.452 140.032 142.41 139.986C141.778 139.279 140.14 138.286 139.169 138.718C138.47 139.029 138.279 139.876 138.643 140.513C139.016 141.164 139.886 141.474 140.588 141.564C141.398 141.668 143.116 141.13 143.181 141.109C143.391 142.02 143.537 142.971 143.631 143.945C143.7 144.651 143.742 145.369 143.776 146.089C143.641 145.878 143.071 145.074 143.023 145.021C142.39 144.315 140.752 143.321 139.782 143.753C139.083 144.064 138.891 144.911 139.256 145.548C139.628 146.199 140.498 146.509 141.201 146.599C141.991 146.7 143.64 146.192 143.778 146.149C143.794 146.476 143.811 146.803 143.824 147.131C143.867 148.202 143.904 149.277 143.974 150.335C143.999 150.702 144.036 151.063 144.072 151.424C143.86 151.113 143.463 150.555 143.423 150.511C142.791 149.805 141.153 148.812 140.182 149.244C139.483 149.555 139.291 150.401 139.656 151.039C140.028 151.69 140.898 151.999 141.601 152.09Z" fill="#1A2E35"/>
</g>
<path d="M150.387 94.4769H19.6299V13.0962H150.387V94.4769Z" fill="white" stroke="#1A2E35" stroke-width="0.34" stroke-miterlimit="10" stroke-linecap="round" stroke-linejoin="round"/>
<path d="M150.205 19.314H146.913V85.1499H150.205" stroke="#1A2E35" stroke-width="0.34" stroke-miterlimit="10" stroke-linecap="round" stroke-linejoin="round"/>
<path d="M146.861 71.6992H150.397" stroke="#1A2E35" stroke-width="0.34" stroke-miterlimit="10" stroke-linecap="round" stroke-linejoin="round"/>
<path d="M146.998 34.3291H150.278" stroke="#1A2E35" stroke-width="0.34" stroke-miterlimit="10" stroke-linecap="round" stroke-linejoin="round"/>
<path d="M147.861 21.7251V32.4297" stroke="#1A2E35" stroke-width="0.34" stroke-miterlimit="10" stroke-linecap="round" stroke-linejoin="round"/>
<path d="M148.552 21.7251V32.4297" stroke="#1A2E35" stroke-width="0.34" stroke-miterlimit="10" stroke-linecap="round" stroke-linejoin="round"/>
<path d="M149.243 21.7251V32.4297" stroke="#1A2E35" stroke-width="0.34" stroke-miterlimit="10" stroke-linecap="round" stroke-linejoin="round"/>
<path d="M83.2695 60.2967L129.603 60.3831L129.618 41.3111L83.2842 41.2247L83.2695 60.2967Z" fill="white"/>
<path d="M83.2695 60.2967L129.603 60.3831L129.618 41.3111L83.2842 41.2247L83.2695 60.2967Z" stroke="#1A2E35" stroke-width="0.17" stroke-miterlimit="10" stroke-linecap="round" stroke-linejoin="round"/>
<path d="M83.2832 43.0509L129.617 43.137L129.618 41.3112L83.2846 41.2248L83.2832 43.0509Z" fill="white"/>
<path d="M83.2832 43.0509L129.617 43.137L129.618 41.3112L83.2846 41.2248L83.2832 43.0509Z" stroke="#1A2E35" stroke-width="0.17" stroke-miterlimit="10" stroke-linecap="round" stroke-linejoin="round"/>
<path d="M131.616 39.6917L83.4854 39.6019L83.4945 27.6312L124.236 27.707L131.616 39.6917Z" fill="white"/>
<path d="M131.616 39.6917L83.4854 39.6019L83.4945 27.6312L124.236 27.707L131.616 39.6917Z" stroke="#1A2E35" stroke-width="0.17" stroke-miterlimit="10" stroke-linecap="round" stroke-linejoin="round"/>
<path d="M83.084 41.8331L131.615 41.9236L131.616 39.6918L83.0857 39.6014L83.084 41.8331Z" fill="white"/>
<path d="M83.084 41.8331L131.615 41.9236L131.616 39.6918L83.0857 39.6014L83.084 41.8331Z" stroke="#1A2E35" stroke-width="0.17" stroke-miterlimit="10" stroke-linecap="round" stroke-linejoin="round"/>
<path d="M91.5155 34.9589L59.0438 34.8984L59.0312 50.856L91.5033 50.9165L91.5155 34.9589Z" fill="white"/>
<path d="M91.5155 34.9589L59.0438 34.8984L59.0312 50.856L91.5033 50.9165L91.5155 34.9589Z" stroke="#1A2E35" stroke-width="0.17" stroke-miterlimit="10" stroke-linecap="round" stroke-linejoin="round"/>
<path d="M91.515 34.9588L59.0434 34.8983L59.042 36.513L91.5137 36.5735L91.515 34.9588Z" fill="white"/>
<path d="M91.515 34.9588L59.0434 34.8983L59.042 36.513L91.5137 36.5735L91.515 34.9588Z" stroke="#1A2E35" stroke-width="0.17" stroke-miterlimit="10" stroke-linecap="round" stroke-linejoin="round"/>
<path d="M74.9144 18.6638L57.2334 32.1333L92.5747 32.1992L74.9144 18.6638Z" fill="white"/>
<path d="M74.9144 18.6638L57.2334 32.1333L92.5747 32.1992L74.9144 18.6638Z" stroke="#1A2E35" stroke-width="0.17" stroke-miterlimit="10" stroke-linecap="round" stroke-linejoin="round"/>
<path d="M74.9131 20.5052L60.8486 31.2196L88.9608 31.272L74.9131 20.5052Z" fill="white"/>
<path d="M74.9131 20.5052L60.8486 31.2196L88.9609 31.272L74.9131 20.5052Z" stroke="#1A2E35" stroke-width="0.17" stroke-miterlimit="10" stroke-linecap="round" stroke-linejoin="round"/>
<path d="M35.2951 82.2065L33.1807 82.2025L33.1997 57.2519L35.3142 57.256L35.2951 82.2065Z" fill="white"/>
<path d="M35.2951 82.2065L33.1807 82.2025L33.1997 57.2519L35.3142 57.256L35.2951 82.2065Z" stroke="#1A2E35" stroke-width="0.17" stroke-miterlimit="10" stroke-linecap="round" stroke-linejoin="round"/>
<path d="M136.185 82.321L38.3164 82.1388L38.3354 57.2617L136.204 57.4439L136.185 82.321Z" fill="white"/>
<path d="M136.185 82.321L38.3164 82.1388L38.3354 57.2617L136.204 57.4439L136.185 82.321Z" stroke="#1A2E35" stroke-width="0.17" stroke-miterlimit="10" stroke-linecap="round" stroke-linejoin="round"/>
<path d="M136.202 60.1924L38.333 60.0101L38.3351 57.2616L136.204 57.4438L136.202 60.1924Z" fill="white"/>
<path d="M136.202 60.1924L38.333 60.0101L38.3351 57.2616L136.204 57.4438L136.202 60.1924Z" stroke="#1A2E35" stroke-width="0.17" stroke-miterlimit="10" stroke-linecap="round" stroke-linejoin="round"/>
<path d="M96.7842 56.6033L30.4814 56.4799L36.0751 49.1253L96.7899 49.2382L96.7842 56.6033Z" fill="white"/>
<path d="M96.7842 56.6033L30.4814 56.4799L36.0751 49.1253L96.7899 49.2382L96.7842 56.6033Z" stroke="#1A2E35" stroke-width="0.17" stroke-miterlimit="10" stroke-linecap="round" stroke-linejoin="round"/>
<path d="M84.3987 58.1145L30.4805 58.0142L30.4815 56.4798L84.3997 56.5801L84.3987 58.1145Z" fill="white"/>
<path d="M84.3987 58.1145L30.4805 58.0142L30.4815 56.4798L84.3997 56.5801L84.3987 58.1145Z" stroke="#1A2E35" stroke-width="0.17" stroke-miterlimit="10" stroke-linecap="round" stroke-linejoin="round"/>
<path d="M136.204 56.6766L81.5301 56.575L81.5107 82.2191L136.184 82.3208L136.204 56.6766Z" fill="white"/>
<path d="M136.204 56.6766L81.5301 56.575L81.5107 82.2191L136.184 82.3208L136.204 56.6766Z" stroke="#1A2E35" stroke-width="0.17" stroke-miterlimit="10" stroke-linecap="round" stroke-linejoin="round"/>
<path d="M134.797 58.161L82.9344 58.0645L82.916 82.2218L134.778 82.3184L134.797 58.161Z" fill="white"/>
<path d="M134.797 58.161L82.9344 58.0645L82.916 82.2218L134.778 82.3184L134.797 58.161Z" stroke="#1A2E35" stroke-width="0.17" stroke-miterlimit="10" stroke-linecap="round" stroke-linejoin="round"/>
<path d="M130.461 61.5758L87.266 61.4956L87.25 82.2298L130.445 82.3101L130.461 61.5758Z" fill="white"/>
<path d="M130.461 61.5758L87.266 61.4956L87.25 82.2298L130.445 82.3101L130.461 61.5758Z" stroke="#1A2E35" stroke-width="0.17" stroke-miterlimit="10" stroke-linecap="round" stroke-linejoin="round"/>
<path d="M98.1387 71.9272L88.3838 71.9089L88.3865 68.0019L98.1418 68.02L98.1387 71.9272Z" fill="white"/>
<path d="M98.1387 71.9272L88.3838 71.9089L88.3865 68.0019L98.1418 68.02L98.1387 71.9272Z" stroke="#1A2E35" stroke-width="0.17" stroke-miterlimit="10" stroke-linecap="round" stroke-linejoin="round"/>
<path d="M108.552 71.9465L98.7969 71.9285L98.7996 68.0212L108.555 68.0393L108.552 71.9465Z" fill="white"/>
<path d="M108.552 71.9465L98.7969 71.9285L98.7996 68.0212L108.555 68.0393L108.552 71.9465Z" stroke="#1A2E35" stroke-width="0.17" stroke-miterlimit="10" stroke-linecap="round" stroke-linejoin="round"/>
<path d="M98.1358 76.5967L88.3809 76.5787L88.3836 72.6714L98.1389 72.6894L98.1358 76.5967Z" fill="white"/>
<path d="M98.1358 76.5967L88.3809 76.5787L88.3836 72.6714L98.1389 72.6894L98.1358 76.5967Z" stroke="#1A2E35" stroke-width="0.17" stroke-miterlimit="10" stroke-linecap="round" stroke-linejoin="round"/>
<path d="M108.548 76.6162L98.793 76.5979L98.7957 72.6909L108.551 72.7089L108.548 76.6162Z" fill="white"/>
<path d="M108.548 76.6162L98.793 76.5979L98.7957 72.6909L108.551 72.7089L108.548 76.6162Z" stroke="#1A2E35" stroke-width="0.17" stroke-miterlimit="10" stroke-linecap="round" stroke-linejoin="round"/>
<path d="M98.1319 81.2664L88.377 81.2483L88.3797 77.3411L98.135 77.3591L98.1319 81.2664Z" fill="white"/>
<path d="M98.1319 81.2664L88.377 81.2483L88.3797 77.3411L98.135 77.3591L98.1319 81.2664Z" stroke="#1A2E35" stroke-width="0.17" stroke-miterlimit="10" stroke-linecap="round" stroke-linejoin="round"/>
<path d="M108.545 81.2859L98.79 81.2675L98.7928 77.3606L108.548 77.3786L108.545 81.2859Z" fill="white"/>
<path d="M108.545 81.2859L98.79 81.2675L98.7928 77.3606L108.548 77.3786L108.545 81.2859Z" stroke="#1A2E35" stroke-width="0.17" stroke-miterlimit="10" stroke-linecap="round" stroke-linejoin="round"/>
<path d="M118.964 71.9661L109.209 71.948L109.212 68.0408L118.967 68.0588L118.964 71.9661Z" fill="white"/>
<path d="M118.964 71.9661L109.209 71.948L109.212 68.0408L118.967 68.0588L118.964 71.9661Z" stroke="#1A2E35" stroke-width="0.17" stroke-miterlimit="10" stroke-linecap="round" stroke-linejoin="round"/>
<path d="M129.378 71.9854L119.623 71.967L119.626 68.0601L129.381 68.0781L129.378 71.9854Z" fill="white"/>
<path d="M129.378 71.9854L119.623 71.967L119.626 68.0601L129.381 68.0781L129.378 71.9854Z" stroke="#1A2E35" stroke-width="0.17" stroke-miterlimit="10" stroke-linecap="round" stroke-linejoin="round"/>
<path d="M118.961 76.6357L109.206 76.6174L109.209 72.7104L118.964 72.7285L118.961 76.6357Z" fill="white"/>
<path d="M118.961 76.6357L109.206 76.6174L109.209 72.7104L118.964 72.7285L118.961 76.6357Z" stroke="#1A2E35" stroke-width="0.17" stroke-miterlimit="10" stroke-linecap="round" stroke-linejoin="round"/>
<path d="M129.373 76.6548L119.618 76.6368L119.621 72.7295L129.376 72.7475L129.373 76.6548Z" fill="white"/>
<path d="M129.373 76.6548L119.618 76.6368L119.621 72.7295L129.376 72.7475L129.373 76.6548Z" stroke="#1A2E35" stroke-width="0.17" stroke-miterlimit="10" stroke-linecap="round" stroke-linejoin="round"/>
<path d="M118.957 81.3054L109.202 81.2871L109.205 77.3801L118.96 77.3981L118.957 81.3054Z" fill="white"/>
<path d="M118.957 81.3054L109.202 81.2871L109.205 77.3801L118.96 77.3981L118.957 81.3054Z" stroke="#1A2E35" stroke-width="0.17" stroke-miterlimit="10" stroke-linecap="round" stroke-linejoin="round"/>
<path d="M129.37 81.3245L119.615 81.3064L119.618 77.3992L129.373 77.4172L129.37 81.3245Z" fill="white"/>
<path d="M129.37 81.3245L119.615 81.3064L119.618 77.3992L129.373 77.4172L129.37 81.3245Z" stroke="#1A2E35" stroke-width="0.17" stroke-miterlimit="10" stroke-linecap="round" stroke-linejoin="round"/>
<path d="M108.282 31.9098L79.416 56.878L137.11 56.9851L108.282 31.9098Z" fill="white"/>
<path d="M108.282 31.9098L79.416 56.878L137.11 56.9851L108.282 31.9098Z" stroke="#1A2E35" stroke-width="0.17" stroke-miterlimit="10" stroke-linecap="round" stroke-linejoin="round"/>
<path d="M108.279 35.3219L85.3174 55.183L131.21 55.2683L108.279 35.3219Z" fill="white"/>
<path d="M108.279 35.3219L85.3174 55.183L131.21 55.2683L108.279 35.3219Z" stroke="#1A2E35" stroke-width="0.17" stroke-miterlimit="10" stroke-linecap="round" stroke-linejoin="round"/>
<path d="M93.026 35.1152L57.2314 35.0486L57.2338 32.1334L93.0283 32.2001L93.026 35.1152Z" fill="white"/>
<path d="M93.026 35.1152L57.2314 35.0486L57.2338 32.1334L93.0283 32.2001L93.026 35.1152Z" stroke="#1A2E35" stroke-width="0.17" stroke-miterlimit="10" stroke-linecap="round" stroke-linejoin="round"/>
<path d="M85.7657 48.2974L64.6211 48.2579L64.6306 35.8296L85.7749 35.869L85.7657 48.2974Z" fill="white"/>
<path d="M85.7657 48.2974L64.6211 48.2579L64.6306 35.8296L85.7749 35.869L85.7657 48.2974Z" stroke="#1A2E35" stroke-width="0.17" stroke-miterlimit="10" stroke-linecap="round" stroke-linejoin="round"/>
<path d="M82.7457 48.2915L67.6426 48.2633L67.6521 35.8349L82.7552 35.8631L82.7457 48.2915Z" fill="white"/>
<path d="M82.7457 48.2915L67.6426 48.2633L67.6521 35.8349L82.7552 35.8631L82.7457 48.2915Z" stroke="#1A2E35" stroke-width="0.17" stroke-miterlimit="10" stroke-linecap="round" stroke-linejoin="round"/>
<path d="M75.7982 48.2786L74.5898 48.2765L74.5994 35.8478L75.8077 35.8502L75.7982 48.2786Z" fill="white"/>
<path d="M75.7982 48.2786L74.5898 48.2765L74.5994 35.8478L75.8077 35.8502L75.7982 48.2786Z" stroke="#1A2E35" stroke-width="0.17" stroke-miterlimit="10" stroke-linecap="round" stroke-linejoin="round"/>
<path d="M67.7217 42.5864L67.7224 41.5123L82.6732 41.5402L82.6725 42.6143L67.7217 42.5864Z" fill="white"/>
<path d="M67.7217 42.5864L67.7224 41.5123L82.6732 41.5402L82.6725 42.6143L67.7217 42.5864Z" stroke="#1A2E35" stroke-width="0.17" stroke-miterlimit="10" stroke-linecap="round" stroke-linejoin="round"/>
<path d="M63.9948 78.1768L42.8506 78.1373L42.8621 62.7938L64.0067 62.8332L63.9948 78.1768Z" fill="white"/>
<path d="M63.9948 78.1768L42.8506 78.1373L42.8621 62.7938L64.0067 62.8332L63.9948 78.1768Z" stroke="#1A2E35" stroke-width="0.17" stroke-miterlimit="10" stroke-linecap="round" stroke-linejoin="round"/>
<path d="M60.9742 78.1714L45.8711 78.1432L45.883 62.7996L60.9861 62.8275L60.9742 78.1714Z" fill="white"/>
<path d="M60.9742 78.1714L45.8711 78.1432L45.883 62.7996L60.9861 62.8275L60.9742 78.1714Z" stroke="#1A2E35" stroke-width="0.17" stroke-miterlimit="10" stroke-linecap="round" stroke-linejoin="round"/>
<path d="M54.0267 78.1582L52.8184 78.1558L52.8303 62.8123L54.0386 62.8147L54.0267 78.1582Z" fill="white"/>
<path d="M54.0267 78.1582L52.8184 78.1558L52.8303 62.8123L54.0386 62.8147L54.0267 78.1582Z" stroke="#1A2E35" stroke-width="0.17" stroke-miterlimit="10" stroke-linecap="round" stroke-linejoin="round"/>
<path d="M45.9512 71.1345L45.9522 69.8085L60.9527 69.8364L60.9516 71.1624L45.9512 71.1345Z" fill="white"/>
<path d="M45.9512 71.1345L45.9522 69.8085L60.9526 69.8364L60.9516 71.1624L45.9512 71.1345Z" stroke="#1A2E35" stroke-width="0.17" stroke-miterlimit="10" stroke-linecap="round" stroke-linejoin="round"/>
<path d="M78.9583 63.1678L70.8024 63.1528L70.7881 82.0252L78.9437 82.0405L78.9583 63.1678Z" fill="white"/>
<path d="M78.9583 63.1678L70.8024 63.1528L70.7881 82.0252L78.9437 82.0405L78.9583 63.1678Z" stroke="#1A2E35" stroke-width="0.17" stroke-miterlimit="10" stroke-linecap="round" stroke-linejoin="round"/>
<path d="M77.5976 64.3439L72.1603 64.334L72.1494 78.9591L77.5864 78.969L77.5976 64.3439Z" fill="white"/>
<path d="M77.5976 64.3439L72.1603 64.334L72.1494 78.9591L77.5864 78.969L77.5976 64.3439Z" stroke="#1A2E35" stroke-width="0.17" stroke-miterlimit="10" stroke-linecap="round" stroke-linejoin="round"/>
<path d="M89.7022 64.4619L89.7029 63.6483L88.28 63.6456L88.2793 64.4592L89.7022 64.4619Z" fill="white"/>
<path d="M89.7022 64.4619L89.7029 63.6483L88.28 63.6456L88.2793 64.4592L89.7022 64.4619Z" stroke="#1A2E35" stroke-width="0.17" stroke-miterlimit="10" stroke-linecap="round" stroke-linejoin="round"/>
<path d="M90.3311 64.4631L91.754 64.4658L91.7546 63.6522L90.3317 63.6495L90.3311 64.4631Z" fill="white"/>
<path d="M90.3311 64.4631L91.754 64.4658L91.7546 63.6522L90.3317 63.6495L90.3311 64.4631Z" stroke="#1A2E35" stroke-width="0.17" stroke-miterlimit="10" stroke-linecap="round" stroke-linejoin="round"/>
<path d="M89.7019 64.9087L88.279 64.9059L88.2783 65.9273L89.7012 65.9297L89.7019 64.9087Z" fill="white"/>
<path d="M89.7019 64.9087L88.279 64.9059L88.2783 65.9273L89.7012 65.9297L89.7019 64.9087Z" stroke="#1A2E35" stroke-width="0.17" stroke-miterlimit="10" stroke-linecap="round" stroke-linejoin="round"/>
<path d="M90.3301 64.9099L90.3291 65.9309L91.752 65.9336L91.753 64.9126L90.3301 64.9099Z" fill="white"/>
<path d="M90.3301 64.9099L90.3291 65.9309L91.752 65.9336L91.753 64.9126L90.3301 64.9099Z" stroke="#1A2E35" stroke-width="0.17" stroke-miterlimit="10" stroke-linecap="round" stroke-linejoin="round"/>
<path d="M95.0606 64.4719L95.0613 63.6583L93.6384 63.6556L93.6377 64.4692L95.0606 64.4719Z" fill="white"/>
<path d="M95.0606 64.4719L95.0613 63.6583L93.6384 63.6556L93.6377 64.4692L95.0606 64.4719Z" stroke="#1A2E35" stroke-width="0.17" stroke-miterlimit="10" stroke-linecap="round" stroke-linejoin="round"/>
<path d="M95.6885 64.4729L97.1114 64.4756L97.1121 63.662L95.6892 63.6592L95.6885 64.4729Z" fill="white"/>
<path d="M95.6885 64.4729L97.1114 64.4756L97.1121 63.662L95.6892 63.6592L95.6885 64.4729Z" stroke="#1A2E35" stroke-width="0.17" stroke-miterlimit="10" stroke-linecap="round" stroke-linejoin="round"/>
<path d="M95.0603 64.9187L93.6374 64.916L93.6367 65.9373L95.0596 65.9397L95.0603 64.9187Z" fill="white"/>
<path d="M95.0603 64.9187L93.6374 64.916L93.6367 65.9373L95.0596 65.9397L95.0603 64.9187Z" stroke="#1A2E35" stroke-width="0.17" stroke-miterlimit="10" stroke-linecap="round" stroke-linejoin="round"/>
<path d="M95.6882 64.9199L95.6875 65.9409L97.1104 65.9436L97.1111 64.9226L95.6882 64.9199Z" fill="white"/>
<path d="M95.6882 64.9199L95.6875 65.9409L97.1104 65.9436L97.1111 64.9226L95.6882 64.9199Z" stroke="#1A2E35" stroke-width="0.17" stroke-miterlimit="10" stroke-linecap="round" stroke-linejoin="round"/>
<path d="M100.419 64.4817L100.42 63.6681L98.9968 63.6653L98.9961 64.479L100.419 64.4817Z" fill="white"/>
<path d="M100.419 64.4817L100.42 63.6681L98.9968 63.6653L98.9961 64.479L100.419 64.4817Z" stroke="#1A2E35" stroke-width="0.17" stroke-miterlimit="10" stroke-linecap="round" stroke-linejoin="round"/>
<path d="M101.047 64.4829L102.47 64.4856L102.47 63.672L101.048 63.6693L101.047 64.4829Z" fill="white"/>
<path d="M101.047 64.4829L102.47 64.4856L102.47 63.672L101.048 63.6693L101.047 64.4829Z" stroke="#1A2E35" stroke-width="0.17" stroke-miterlimit="10" stroke-linecap="round" stroke-linejoin="round"/>
<path d="M100.419 64.9287L98.9958 64.926L98.9951 65.9473L100.418 65.9497L100.419 64.9287Z" fill="white"/>
<path d="M100.419 64.9287L98.9958 64.926L98.9951 65.9473L100.418 65.9497L100.419 64.9287Z" stroke="#1A2E35" stroke-width="0.17" stroke-miterlimit="10" stroke-linecap="round" stroke-linejoin="round"/>
<path d="M101.047 64.9299L101.046 65.9509L102.469 65.9536L102.469 64.9326L101.047 64.9299Z" fill="white"/>
<path d="M101.047 64.9299L101.046 65.9509L102.469 65.9536L102.469 64.9326L101.047 64.9299Z" stroke="#1A2E35" stroke-width="0.17" stroke-miterlimit="10" stroke-linecap="round" stroke-linejoin="round"/>
<path d="M105.777 64.4919L105.778 63.678L104.355 63.6756L104.354 64.4892L105.777 64.4919Z" fill="white"/>
<path d="M105.777 64.4919L105.778 63.678L104.355 63.6756L104.354 64.4892L105.777 64.4919Z" stroke="#1A2E35" stroke-width="0.17" stroke-miterlimit="10" stroke-linecap="round" stroke-linejoin="round"/>
<path d="M106.405 64.4929L107.828 64.4956L107.829 63.682L106.406 63.6793L106.405 64.4929Z" fill="white"/>
<path d="M106.405 64.4929L107.828 64.4956L107.829 63.682L106.406 63.6793L106.405 64.4929Z" stroke="#1A2E35" stroke-width="0.17" stroke-miterlimit="10" stroke-linecap="round" stroke-linejoin="round"/>
<path d="M105.776 64.9387L104.353 64.936L104.353 65.9573L105.775 65.9597L105.776 64.9387Z" fill="white"/>
<path d="M105.776 64.9387L104.353 64.936L104.353 65.9573L105.775 65.9597L105.776 64.9387Z" stroke="#1A2E35" stroke-width="0.17" stroke-miterlimit="10" stroke-linecap="round" stroke-linejoin="round"/>
<path d="M106.404 64.9396L106.403 65.9607L107.826 65.9634L107.827 64.9424L106.404 64.9396Z" fill="white"/>
<path d="M106.404 64.9396L106.403 65.9607L107.826 65.9634L107.827 64.9424L106.404 64.9396Z" stroke="#1A2E35" stroke-width="0.17" stroke-miterlimit="10" stroke-linecap="round" stroke-linejoin="round"/>
<path d="M111.135 64.502L111.135 63.688L109.713 63.6856L109.712 64.4992L111.135 64.502Z" fill="white"/>
<path d="M111.135 64.502L111.135 63.688L109.713 63.6856L109.712 64.4992L111.135 64.502Z" stroke="#1A2E35" stroke-width="0.17" stroke-miterlimit="10" stroke-linecap="round" stroke-linejoin="round"/>
<path d="M111.763 64.503L113.186 64.5054L113.186 63.6918L111.763 63.689L111.763 64.503Z" fill="white"/>
<path d="M111.763 64.503L113.186 64.5054L113.186 63.6918L111.763 63.689L111.763 64.503Z" stroke="#1A2E35" stroke-width="0.17" stroke-miterlimit="10" stroke-linecap="round" stroke-linejoin="round"/>
<path d="M111.135 64.9487L109.712 64.946L109.711 65.9673L111.134 65.9697L111.135 64.9487Z" fill="white"/>
<path d="M111.135 64.9487L109.712 64.946L109.711 65.9673L111.134 65.9697L111.135 64.9487Z" stroke="#1A2E35" stroke-width="0.17" stroke-miterlimit="10" stroke-linecap="round" stroke-linejoin="round"/>
<path d="M111.762 64.9499L111.762 65.9709L113.185 65.9736L113.185 64.9526L111.762 64.9499Z" fill="white"/>
<path d="M111.762 64.9499L111.762 65.9709L113.185 65.9736L113.185 64.9526L111.762 64.9499Z" stroke="#1A2E35" stroke-width="0.17" stroke-miterlimit="10" stroke-linecap="round" stroke-linejoin="round"/>
<path d="M116.493 64.5117L116.494 63.6978L115.071 63.6954L115.07 64.509L116.493 64.5117Z" fill="white"/>
<path d="M116.493 64.5117L116.494 63.6978L115.071 63.6954L115.07 64.509L116.493 64.5117Z" stroke="#1A2E35" stroke-width="0.17" stroke-miterlimit="10" stroke-linecap="round" stroke-linejoin="round"/>
<path d="M117.121 64.5129L118.544 64.5156L118.544 63.7017L117.122 63.6989L117.121 64.5129Z" fill="white"/>
<path d="M117.121 64.5129L118.544 64.5156L118.544 63.7017L117.122 63.6989L117.121 64.5129Z" stroke="#1A2E35" stroke-width="0.17" stroke-miterlimit="10" stroke-linecap="round" stroke-linejoin="round"/>
<path d="M116.493 64.9587L115.07 64.956L115.069 65.9774L116.492 65.9797L116.493 64.9587Z" fill="white"/>
<path d="M116.493 64.9587L115.07 64.956L115.069 65.9774L116.492 65.9797L116.493 64.9587Z" stroke="#1A2E35" stroke-width="0.17" stroke-miterlimit="10" stroke-linecap="round" stroke-linejoin="round"/>
<path d="M117.121 64.9597L117.12 65.9807L118.543 65.9834L118.544 64.9624L117.121 64.9597Z" fill="white"/>
<path d="M117.121 64.9597L117.12 65.9807L118.543 65.9834L118.544 64.9624L117.121 64.9597Z" stroke="#1A2E35" stroke-width="0.17" stroke-miterlimit="10" stroke-linecap="round" stroke-linejoin="round"/>
<path d="M121.852 64.5217L121.852 63.7078L120.429 63.7054L120.429 64.519L121.852 64.5217Z" fill="white"/>
<path d="M121.852 64.5217L121.852 63.7078L120.429 63.7054L120.429 64.519L121.852 64.5217Z" stroke="#1A2E35" stroke-width="0.17" stroke-miterlimit="10" stroke-linecap="round" stroke-linejoin="round"/>
<path d="M122.479 64.5229L123.902 64.5256L123.903 63.7117L122.48 63.709L122.479 64.5229Z" fill="white"/>
<path d="M122.479 64.5229L123.902 64.5256L123.903 63.7117L122.48 63.709L122.479 64.5229Z" stroke="#1A2E35" stroke-width="0.17" stroke-miterlimit="10" stroke-linecap="round" stroke-linejoin="round"/>
<path d="M121.85 64.9685L120.427 64.9658L120.427 65.9871L121.85 65.9895L121.85 64.9685Z" fill="white"/>
<path d="M121.85 64.9685L120.427 64.9658L120.427 65.9871L121.85 65.9895L121.85 64.9685Z" stroke="#1A2E35" stroke-width="0.17" stroke-miterlimit="10" stroke-linecap="round" stroke-linejoin="round"/>
<path d="M122.479 64.9697L122.479 65.9907L123.901 65.9934L123.902 64.9724L122.479 64.9697Z" fill="white"/>
<path d="M122.479 64.9697L122.479 65.9907L123.901 65.9934L123.902 64.9724L122.479 64.9697Z" stroke="#1A2E35" stroke-width="0.17" stroke-miterlimit="10" stroke-linecap="round" stroke-linejoin="round"/>
<path d="M127.209 64.5317L127.21 63.7178L125.787 63.7154L125.786 64.529L127.209 64.5317Z" fill="white"/>
<path d="M127.209 64.5317L127.21 63.7178L125.787 63.7154L125.786 64.529L127.209 64.5317Z" stroke="#1A2E35" stroke-width="0.17" stroke-miterlimit="10" stroke-linecap="round" stroke-linejoin="round"/>
<path d="M127.838 64.5329L129.261 64.5356L129.261 63.7217L127.839 63.719L127.838 64.5329Z" fill="white"/>
<path d="M127.838 64.5329L129.261 64.5356L129.261 63.7217L127.839 63.719L127.838 64.5329Z" stroke="#1A2E35" stroke-width="0.17" stroke-miterlimit="10" stroke-linecap="round" stroke-linejoin="round"/>
<path d="M127.209 64.9785L125.786 64.9758L125.785 65.9971L127.208 65.9995L127.209 64.9785Z" fill="white"/>
<path d="M127.209 64.9785L125.786 64.9758L125.785 65.9971L127.208 65.9995L127.209 64.9785Z" stroke="#1A2E35" stroke-width="0.17" stroke-miterlimit="10" stroke-linecap="round" stroke-linejoin="round"/>
<path d="M127.837 64.9797L127.836 66.0007L129.259 66.0034L129.26 64.9824L127.837 64.9797Z" fill="white"/>
<path d="M127.837 64.9797L127.836 66.0007L129.259 66.0034L129.26 64.9824L127.837 64.9797Z" stroke="#1A2E35" stroke-width="0.17" stroke-miterlimit="10" stroke-linecap="round" stroke-linejoin="round"/>
<path d="M72.4014 18.759H43.4082" stroke="#1A2E35" stroke-width="0.17" stroke-miterlimit="10" stroke-linecap="round" stroke-linejoin="round"/>
<path d="M55.3845 35.304H26.0762" stroke="#1A2E35" stroke-width="0.17" stroke-miterlimit="10" stroke-linecap="round" stroke-linejoin="round"/>
<path d="M45.2998 17.0259V36.7224" stroke="#1A2E35" stroke-width="0.17" stroke-miterlimit="10" stroke-linecap="round" stroke-linejoin="round"/>
<path d="M124.085 26.6375V18.6012" stroke="#1A2E35" stroke-width="0.17" stroke-miterlimit="10" stroke-linecap="round" stroke-linejoin="round"/>
<path d="M77.917 19.074H126.292" stroke="#1A2E35" stroke-width="0.17" stroke-miterlimit="10" stroke-linecap="round" stroke-linejoin="round"/>
<path d="M132.909 41.9219H138.424" stroke="#1A2E35" stroke-width="0.17" stroke-miterlimit="10" stroke-linecap="round" stroke-linejoin="round"/>
<path d="M126.134 27.8982H138.424" stroke="#1A2E35" stroke-width="0.17" stroke-miterlimit="10" stroke-linecap="round" stroke-linejoin="round"/>
<path d="M136.691 26.6374V46.0188" stroke="#1A2E35" stroke-width="0.17" stroke-miterlimit="10" stroke-linecap="round" stroke-linejoin="round"/>
<path d="M138.582 56.7336H142.206" stroke="#1A2E35" stroke-width="0.17" stroke-miterlimit="10" stroke-linecap="round" stroke-linejoin="round"/>
<path d="M141.261 55.6307V82.7332" stroke="#1A2E35" stroke-width="0.17" stroke-miterlimit="10" stroke-linecap="round" stroke-linejoin="round"/>
<path d="M138.267 82.5754H144.57" stroke="#1A2E35" stroke-width="0.17" stroke-miterlimit="10" stroke-linecap="round" stroke-linejoin="round"/>
<path d="M33.9547 49.1704H26.0762" stroke="#1A2E35" stroke-width="0.17" stroke-miterlimit="10" stroke-linecap="round" stroke-linejoin="round"/>
<path d="M29.0692 58.3096H26.0752" stroke="#1A2E35" stroke-width="0.17" stroke-miterlimit="10" stroke-linecap="round" stroke-linejoin="round"/>
<path d="M27.4941 34.2011V61.9336" stroke="#1A2E35" stroke-width="0.17" stroke-miterlimit="10" stroke-linecap="round" stroke-linejoin="round"/>
<path d="M31.7483 82.4177H27.1787" stroke="#1A2E35" stroke-width="0.17" stroke-miterlimit="10" stroke-linecap="round" stroke-linejoin="round"/>
<mask id="mask3_386_40979" style="mask-type:luminance" maskUnits="userSpaceOnUse" x="0" y="0" width="170" height="170">
<path d="M0 0H170V170H0V0Z" fill="white"/>
</mask>
<g mask="url(#mask3_386_40979)">
<path d="M149.617 111.594C149.799 110.76 149.007 110.871 148.528 111.153C148.071 111.421 147.346 111.46 146.826 111.509C146.333 111.555 145.833 111.478 145.353 111.633C144.708 111.842 142.964 112.623 142.519 112.749C141.177 113.128 134.805 110.087 132.79 108.752C130.776 107.416 125.954 106.733 125.954 106.733C125.954 106.733 124.954 104.279 123.947 98.9892C122.939 93.6995 119.388 88.4234 119.388 88.4234C118.524 87.5965 118.237 89.6698 118.237 89.6698L119.555 106.503C119.555 106.503 119.405 111.96 120.028 112.544L120.085 113.262C120.085 113.262 121.512 114.774 122.687 115.194C123.43 115.459 124.106 115.724 124.502 115.883C124.628 115.94 124.752 115.992 124.87 116.033C127.063 116.801 138.387 117.405 138.387 117.405C138.387 117.405 140.008 119.136 141.864 119.234C143.72 119.332 144.599 119.524 144.985 119.265C145.371 119.006 149.306 115.361 149.149 114.46C148.992 113.558 146.182 113.539 146.182 113.539L148.398 112.876C148.838 112.589 149.499 112.139 149.617 111.594Z" fill="white"/>
<path d="M149.617 111.594C149.799 110.76 149.007 110.871 148.528 111.153C148.071 111.421 147.346 111.46 146.826 111.509C146.333 111.555 145.833 111.478 145.353 111.633C144.708 111.842 142.964 112.623 142.519 112.749C141.177 113.128 134.805 110.087 132.79 108.752C130.776 107.416 125.954 106.733 125.954 106.733C125.954 106.733 124.954 104.279 123.947 98.9892C122.939 93.6995 119.388 88.4234 119.388 88.4234C118.524 87.5965 118.237 89.6698 118.237 89.6698L119.555 106.503C119.555 106.503 119.405 111.96 120.028 112.544L120.085 113.262C120.085 113.262 121.512 114.774 122.687 115.194C123.43 115.459 124.106 115.724 124.502 115.883C124.628 115.94 124.752 115.992 124.87 116.033C127.063 116.801 138.387 117.405 138.387 117.405C138.387 117.405 140.008 119.136 141.864 119.234C143.72 119.332 144.599 119.524 144.985 119.265C145.371 119.006 149.306 115.361 149.149 114.46C148.992 113.558 146.182 113.539 146.182 113.539L148.398 112.876C148.838 112.589 149.499 112.139 149.617 111.594Z" stroke="#1A2E35" stroke-width="0.34" stroke-miterlimit="10"/>
<path d="M149.149 114.459C148.993 113.558 146.182 113.539 146.182 113.539L148.399 112.876C148.838 112.589 149.499 112.139 149.618 111.594C149.799 110.76 149.008 110.871 148.528 111.153C148.072 111.421 147.347 111.461 146.826 111.509C146.334 111.555 145.834 111.478 145.353 111.633C144.709 111.841 142.964 112.623 142.52 112.749C142.15 112.853 141.399 112.698 140.462 112.39C137.617 113.744 137.114 116.176 137.044 117.327C137.872 117.377 138.387 117.404 138.387 117.404C138.387 117.404 140.008 119.135 141.864 119.234C143.721 119.332 144.599 119.524 144.985 119.265C145.372 119.006 149.306 115.361 149.149 114.459Z" fill="#599BFE"/>
<path d="M149.149 114.459C148.993 113.558 146.182 113.539 146.182 113.539L148.399 112.876C148.838 112.589 149.499 112.139 149.618 111.594C149.799 110.76 149.008 110.871 148.528 111.153C148.072 111.421 147.347 111.461 146.826 111.509C146.334 111.555 145.834 111.478 145.353 111.633C144.709 111.841 142.964 112.623 142.52 112.749C142.15 112.853 141.399 112.698 140.462 112.39C137.617 113.744 137.114 116.176 137.044 117.327C137.872 117.377 138.387 117.404 138.387 117.404C138.387 117.404 140.008 119.135 141.864 119.234C143.721 119.332 144.599 119.524 144.985 119.265C145.372 119.006 149.306 115.361 149.149 114.459Z" stroke="#1A2E35" stroke-width="0.34" stroke-miterlimit="10" stroke-linecap="round" stroke-linejoin="round"/>
<path d="M146.8 114.671C146.8 114.671 147.911 115.816 148.366 115.854C148.821 115.893 149.362 114.906 149.149 114.46C148.935 114.013 147.687 113.561 147.114 113.602C146.54 113.643 146.185 114.139 146.8 114.671Z" fill="#599BFE"/>
<path d="M146.8 114.671C146.8 114.671 147.911 115.816 148.366 115.854C148.821 115.893 149.362 114.906 149.149 114.46C148.935 114.013 147.687 113.561 147.114 113.602C146.54 113.643 146.185 114.139 146.8 114.671Z" stroke="#1A2E35" stroke-width="0.34" stroke-miterlimit="10" stroke-linecap="round" stroke-linejoin="round"/>
<path d="M146.8 114.671C146.8 114.671 145.991 114.95 145.925 115.435C145.858 115.92 147.53 117.246 147.824 117.246C148.117 117.245 148.791 116.499 148.746 116.285C148.7 116.071 147.903 115.124 146.8 114.671Z" fill="#599BFE"/>
<path d="M146.8 114.671C146.8 114.671 145.991 114.95 145.925 115.435C145.858 115.92 147.53 117.246 147.824 117.246C148.117 117.245 148.791 116.499 148.746 116.285C148.7 116.071 147.903 115.124 146.8 114.671Z" stroke="#1A2E35" stroke-width="0.34" stroke-miterlimit="10" stroke-linecap="round" stroke-linejoin="round"/>
<path d="M146.142 116.269C146.142 116.269 144.889 115.787 145.105 116.621C145.321 117.455 146.204 118.479 146.474 118.591C146.745 118.703 147.433 118.341 147.285 117.901C147.137 117.462 146.492 116.719 146.142 116.269Z" fill="#599BFE"/>
<path d="M146.142 116.269C146.142 116.269 144.889 115.787 145.105 116.621C145.321 117.455 146.204 118.479 146.474 118.591C146.745 118.703 147.433 118.341 147.285 117.901C147.137 117.462 146.492 116.719 146.142 116.269Z" stroke="#1A2E35" stroke-width="0.34" stroke-miterlimit="10" stroke-linecap="round" stroke-linejoin="round"/>
<path d="M145.264 117.297C145.264 117.297 144.248 116.804 144.261 117.627C144.274 118.45 145.055 119.395 145.382 119.518C145.71 119.642 146.137 119.257 146.046 118.829C145.954 118.4 145.264 117.297 145.264 117.297Z" fill="#599BFE"/>
<path d="M145.264 117.297C145.264 117.297 144.248 116.804 144.261 117.627C144.274 118.45 145.055 119.395 145.382 119.518C145.71 119.642 146.137 119.257 146.046 118.829C145.954 118.4 145.264 117.297 145.264 117.297Z" stroke="#1A2E35" stroke-width="0.34" stroke-miterlimit="10" stroke-linecap="round" stroke-linejoin="round"/>
<path d="M101.811 159.422L103.04 151.211L104.094 159.422H120.104L120.742 138.259L83.3955 137.827L84.0344 159.422H101.811Z" fill="#1A2E35"/>
<path d="M101.811 159.422L103.04 151.211L104.094 159.422H120.104L120.742 138.259L83.3955 137.827L84.0344 159.422H101.811Z" stroke="#1A2E35" stroke-width="0.34" stroke-miterlimit="10"/>
<path d="M94.6764 83.2399L82.7339 88.9301C82.7339 88.9301 81.3066 120.317 81.497 126.029C81.6874 131.741 82.3538 139.167 82.3538 139.167C82.3538 139.167 90.1605 140.786 94.0637 141.642C97.9673 142.5 105.012 142.5 105.012 142.5L106.44 139.644L107.107 142.309L113.979 141.895C114.659 141.854 115.326 141.686 115.945 141.399L121.578 138.786C121.578 138.786 121.483 106.227 121.102 100.324C120.721 94.4215 119.388 88.4235 119.388 88.4235L110.154 84.1392C110.154 84.1392 103.286 80.5318 94.6764 83.2399Z" fill="#599BFE"/>
<path d="M94.6764 83.2399L82.7339 88.9301C82.7339 88.9301 81.3066 120.317 81.497 126.029C81.6874 131.741 82.3538 139.167 82.3538 139.167C82.3538 139.167 90.1605 140.786 94.0637 141.642C97.9673 142.5 105.012 142.5 105.012 142.5L106.44 139.644L107.107 142.309L113.979 141.895C114.659 141.854 115.326 141.686 115.945 141.399L121.578 138.786C121.578 138.786 121.483 106.227 121.102 100.324C120.721 94.4215 119.388 88.4235 119.388 88.4235L110.154 84.1392C110.154 84.1392 103.286 80.5318 94.6764 83.2399Z" stroke="#1A2E35" stroke-width="0.34" stroke-miterlimit="10" stroke-linecap="round" stroke-linejoin="round"/>
<path d="M121.542 130.531C121.532 128.859 121.521 127.02 121.508 125.095C105.599 127.535 88.121 125.802 81.4805 124.966C81.4822 125.38 81.4873 125.739 81.4971 126.029C81.5488 127.578 81.6355 129.253 81.7344 130.872C98.3696 133.135 114.789 131.444 121.542 130.531Z" fill="white"/>
<path d="M121.542 130.531C121.532 128.859 121.521 127.02 121.508 125.095C105.599 127.535 88.121 125.802 81.4805 124.966C81.4822 125.38 81.4873 125.739 81.4971 126.029C81.5488 127.578 81.6355 129.253 81.7344 130.872C98.3696 133.135 114.789 131.444 121.542 130.531Z" stroke="#1A2E35" stroke-width="0.34" stroke-miterlimit="10" stroke-linecap="round" stroke-linejoin="round"/>
<path d="M81.821 111.306C81.7489 113.342 81.683 115.325 81.6289 117.156C98.2168 119.43 114.609 117.76 121.438 116.843C121.419 114.983 121.398 113.151 121.375 111.412C105.766 113.783 88.6829 112.154 81.821 111.306Z" fill="white"/>
<path d="M81.821 111.306C81.7489 113.342 81.683 115.325 81.6289 117.156C98.2168 119.43 114.609 117.76 121.438 116.843C121.419 114.983 121.398 113.151 121.375 111.412C105.766 113.783 88.6829 112.154 81.821 111.306Z" stroke="#1A2E35" stroke-width="0.34" stroke-miterlimit="10" stroke-linecap="round" stroke-linejoin="round"/>
<path d="M97.9775 92.4346L105.493 102.627L110.494 92.0286L104.986 86.8236L97.9775 92.4346Z" fill="white"/>
<path d="M97.9775 92.4346L105.493 102.627L110.494 92.0286L104.986 86.8236L97.9775 92.4346Z" stroke="#1A2E35" stroke-width="0.34" stroke-miterlimit="10" stroke-linecap="round" stroke-linejoin="round"/>
<path d="M97.4331 80.8124C97.4331 80.8124 95.6392 81.186 95.0412 82.083C94.4428 82.9799 93.8447 83.8771 93.8447 83.8771C93.8447 83.8771 94.6672 87.3156 95.34 89.4089C96.0126 91.5016 98.33 95.3889 98.33 95.3889L104.684 91.4268C104.684 91.4268 107.076 92.623 107.599 92.9222C108.122 93.2213 110.813 95.9121 110.813 95.9121C110.813 95.9121 112.383 89.633 111.935 87.4651C111.486 85.2973 110.515 83.2791 110.515 83.2791C110.515 83.2791 104.161 79.6911 97.4331 80.8124Z" fill="white"/>
<path d="M97.4331 80.8124C97.4331 80.8124 95.6392 81.186 95.0412 82.083C94.4428 82.9799 93.8447 83.8771 93.8447 83.8771C93.8447 83.8771 94.6672 87.3156 95.34 89.4089C96.0126 91.5016 98.33 95.3889 98.33 95.3889L104.684 91.4268C104.684 91.4268 107.076 92.623 107.599 92.9222C108.122 93.2214 110.813 95.9121 110.813 95.9121C110.813 95.9121 112.383 89.633 111.935 87.4652C111.486 85.2973 110.515 83.2791 110.515 83.2791C110.515 83.2791 104.161 79.6911 97.4331 80.8124Z" stroke="#1A2E35" stroke-width="0.34" stroke-miterlimit="10" stroke-linecap="round" stroke-linejoin="round"/>
<path d="M97.1347 78.1211C97.1347 78.1211 97.0599 83.6529 97.3591 84.7739C97.6579 85.8952 101.022 90.1561 101.545 91.2774C102.068 92.3987 104.685 95.3887 104.685 95.3887C104.685 95.3887 109.319 88.96 109.843 87.2409C110.366 85.5215 110.814 84.5498 110.814 84.5498C110.814 84.5498 108.945 86.9417 105.881 85.6711C102.816 84.4002 99.751 81.1111 99.751 81.1111C99.751 81.1111 97.1347 75.43 97.0599 76.2521C96.9854 77.0746 97.1347 78.1211 97.1347 78.1211Z" fill="white"/>
<path d="M97.1347 78.1211C97.1347 78.1211 97.0599 83.6529 97.3591 84.7739C97.6579 85.8952 101.022 90.1561 101.545 91.2774C102.068 92.3987 104.685 95.3887 104.685 95.3887C104.685 95.3887 109.319 88.96 109.843 87.2409C110.366 85.5215 110.814 84.5498 110.814 84.5498C110.814 84.5498 108.945 86.9417 105.881 85.6711C102.816 84.4002 99.751 81.1111 99.751 81.1111C99.751 81.1111 97.1347 75.43 97.0599 76.2521C96.9854 77.0746 97.1347 78.1211 97.1347 78.1211Z" stroke="#1A2E35" stroke-width="0.34" stroke-miterlimit="10" stroke-linecap="round" stroke-linejoin="round"/>
<path d="M113.655 74.533C113.655 74.533 113.057 78.9435 112.533 81.4102C112.01 83.8769 110.291 87.3156 108.871 88.2125C107.45 89.1095 105.507 89.0347 104.46 88.661C103.414 88.2873 99.3022 85.5962 98.1809 84.3253C97.0596 83.0547 97.1344 78.121 97.1344 78.121C97.1344 78.121 96.0131 78.3454 95.5649 77.2989C95.1165 76.2524 94.8173 74.3086 94.8173 74.3086C94.8173 74.3086 94.5184 73.7109 94.7425 72.5147C94.9665 71.3186 95.3405 71.0946 95.3405 71.0946C95.3405 71.0946 102.741 74.1593 105.581 74.533C108.422 74.907 113.655 74.533 113.655 74.533Z" fill="white"/>
<path d="M113.655 74.533C113.655 74.533 113.057 78.9435 112.533 81.4102C112.01 83.8769 110.291 87.3156 108.871 88.2125C107.45 89.1095 105.507 89.0347 104.46 88.661C103.414 88.2873 99.3022 85.5962 98.1809 84.3253C97.0596 83.0547 97.1344 78.121 97.1344 78.121C97.1344 78.121 96.0131 78.3454 95.5649 77.2989C95.1165 76.2524 94.8173 74.3086 94.8173 74.3086C94.8173 74.3086 94.5184 73.7109 94.7425 72.5147C94.9665 71.3186 95.3405 71.0946 95.3405 71.0946C95.3405 71.0946 102.741 74.1593 105.581 74.533C108.422 74.907 113.655 74.533 113.655 74.533Z" stroke="#1A2E35" stroke-width="0.34" stroke-miterlimit="10" stroke-linecap="round" stroke-linejoin="round"/>
<path d="M111.113 82.6064C110.216 81.7842 108.198 81.0366 108.198 81.0366C108.198 81.0366 108.273 81.7094 107.226 81.7842C106.179 81.859 105.581 81.1114 105.581 81.1114C105.581 81.1114 104.087 81.5598 103.339 81.9335C102.592 82.3075 101.545 83.5781 101.545 83.5781C101.545 83.5781 99.5268 82.0083 98.9284 80.6629C98.3304 79.3172 98.3304 74.6079 98.3304 74.6079C98.3304 74.6079 98.7792 73.8605 99.0784 73.3373C99.1763 73.1659 99.2654 72.9147 99.3422 72.6539C98.4517 72.3251 97.6235 72.0055 96.9527 71.7417L96.6113 71.7675L97.1346 78.1214C97.1346 78.1214 97.0598 83.0548 98.1811 84.3257C99.3024 85.5963 103.413 88.2874 104.46 88.6611C105.507 89.0351 107.451 89.1095 108.87 88.213C109.869 87.5819 111.014 85.6942 111.789 83.7712C111.616 83.2972 111.394 82.8637 111.113 82.6064Z" fill="#1A2E35"/>
<path d="M111.113 82.6064C110.216 81.7842 108.198 81.0366 108.198 81.0366C108.198 81.0366 108.273 81.7094 107.226 81.7842C106.179 81.859 105.581 81.1114 105.581 81.1114C105.581 81.1114 104.087 81.5598 103.339 81.9335C102.592 82.3075 101.545 83.5781 101.545 83.5781C101.545 83.5781 99.5268 82.0083 98.9284 80.6629C98.3304 79.3172 98.3304 74.6079 98.3304 74.6079C98.3304 74.6079 98.7792 73.8605 99.0784 73.3373C99.1763 73.1659 99.2654 72.9147 99.3422 72.6539C98.4517 72.3251 97.6235 72.0055 96.9527 71.7417L96.6113 71.7675L97.1346 78.1214C97.1346 78.1214 97.0598 83.0548 98.1811 84.3257C99.3024 85.5963 103.413 88.2874 104.46 88.6611C105.507 89.0351 107.451 89.1095 108.87 88.213C109.869 87.5819 111.014 85.6942 111.789 83.7712C111.616 83.2972 111.394 82.8637 111.113 82.6064Z" stroke="#1A2E35" stroke-width="0.34" stroke-miterlimit="10" stroke-linecap="round" stroke-linejoin="round"/>
<path d="M109.618 75.9533L108.945 76.701L108.422 80.4382" stroke="#1A2E35" stroke-width="0.34" stroke-miterlimit="10" stroke-linecap="round" stroke-linejoin="round"/>
<path d="M101.77 75.5051C101.77 75.5051 103.04 74.9818 104.236 75.2062C105.432 75.4303 106.329 75.804 106.329 75.804" stroke="#1A2E35" stroke-width="0.34" stroke-miterlimit="10" stroke-linecap="round" stroke-linejoin="round"/>
<path d="M110.814 75.5796C110.814 75.5796 112.16 75.0563 112.608 76.2524" stroke="#1A2E35" stroke-width="0.34" stroke-miterlimit="10" stroke-linecap="round" stroke-linejoin="round"/>
<path d="M104.536 77.4859C104.536 77.9606 104.302 78.3455 104.013 78.3455C103.723 78.3455 103.489 77.9606 103.489 77.4859C103.489 77.0113 103.723 76.6264 104.013 76.6264C104.302 76.6264 104.536 77.0113 104.536 77.4859Z" fill="black"/>
<path d="M110.888 78.0465C110.888 78.5211 110.654 78.906 110.365 78.906C110.076 78.906 109.842 78.5211 109.842 78.0465C109.842 77.5718 110.076 77.187 110.365 77.187C110.654 77.187 110.888 77.5718 110.888 78.0465Z" fill="black"/>
<path d="M102.667 78.2707L104.013 78.3455" stroke="#1A2E35" stroke-width="0.34" stroke-miterlimit="10" stroke-linecap="round" stroke-linejoin="round"/>
<path d="M110.365 78.9061L111.785 79.0183" stroke="#1A2E35" stroke-width="0.34" stroke-miterlimit="10" stroke-linecap="round" stroke-linejoin="round"/>
<path d="M103.563 83.2041C103.563 83.2041 105.582 84.9983 108.945 83.6526" stroke="#DADADA" stroke-width="0.34" stroke-miterlimit="10" stroke-linecap="round" stroke-linejoin="round"/>
<path d="M95.1164 71.7672C95.1164 71.7672 102.218 74.7572 104.236 75.206C106.254 75.6544 109.768 75.5796 113.057 75.43C116.346 75.2804 115.299 74.3087 115.15 73.6362C115 72.9633 114.925 72.5893 114.925 72.5893C114.925 72.5893 116.196 68.9269 114.327 64.3668C112.459 59.807 108.198 57.714 104.535 57.714C100.872 57.714 96.5366 61.302 95.6396 63.6195C94.7424 65.9369 94.9668 69.5997 94.8172 70.0478C94.6679 70.4966 93.3225 71.3188 93.7707 71.3936C94.2191 71.4684 95.1164 71.7672 95.1164 71.7672Z" fill="white"/>
<path d="M95.1164 71.7672C95.1164 71.7672 102.218 74.7572 104.236 75.206C106.254 75.6544 109.768 75.5796 113.057 75.43C116.346 75.2804 115.299 74.3087 115.15 73.6362C115 72.9633 114.925 72.5893 114.925 72.5893C114.925 72.5893 116.196 68.9269 114.327 64.3668C112.459 59.807 108.198 57.714 104.535 57.714C100.872 57.714 96.5366 61.302 95.6396 63.6195C94.7424 65.9369 94.9668 69.5997 94.8172 70.0478C94.6679 70.4966 93.3225 71.3188 93.7707 71.3936C94.2191 71.4684 95.1164 71.7672 95.1164 71.7672Z" stroke="#1A2E35" stroke-width="0.34" stroke-miterlimit="10" stroke-linecap="round" stroke-linejoin="round"/>
<path d="M95.3407 71.0947L93.5469 72.216L93.9205 74.3091L97.1346 71.9916L95.3407 71.0947Z" fill="white"/>
<path d="M95.3407 71.0947L93.5469 72.216L93.9205 74.3091L97.1346 71.9916L95.3407 71.0947Z" stroke="#1A2E35" stroke-width="0.34" stroke-miterlimit="10" stroke-linecap="round" stroke-linejoin="round"/>
<path d="M95.7891 70.2725L98.0317 71.3938L98.1062 69.3756" stroke="#1A2E35" stroke-width="0.34" stroke-miterlimit="10" stroke-linecap="round" stroke-linejoin="round"/>
<path d="M99.2275 69.9732L99.3023 71.543C99.3023 71.543 101.47 72.9632 104.161 73.5613C106.852 74.1593 112.982 73.7857 113.43 73.7109C113.879 73.6361 114.252 73.3372 114.252 73.3372" stroke="#1A2E35" stroke-width="0.34" stroke-miterlimit="10" stroke-linecap="round" stroke-linejoin="round"/>
<path d="M105.207 58.387C105.207 58.387 106.702 59.0598 107.375 60.3304C107.817 61.1661 107.973 62.7971 107.973 62.7971C107.973 62.7971 105.805 63.2459 105.431 63.7692C105.057 64.2924 105.655 66.7591 105.73 69.2258" stroke="#1A2E35" stroke-width="0.34" stroke-miterlimit="10" stroke-linecap="round" stroke-linejoin="round"/>
<path d="M109.991 62.7224C109.991 62.7224 111.337 62.9468 111.711 64.2174C112.084 65.4883 112.159 69.45 112.159 69.45" stroke="#1A2E35" stroke-width="0.34" stroke-miterlimit="10" stroke-linecap="round" stroke-linejoin="round"/>
<path d="M82.7345 88.9301C82.7345 88.9301 80.6408 89.4707 79.784 91.5651C78.9272 93.6595 73.6909 107.559 73.3101 112.225C72.9293 116.889 76.5472 119.841 78.4512 120.031C80.3552 120.221 82.164 119.936 83.0208 118.318C83.8776 116.699 84.4488 103.275 84.4488 103.275C84.4488 103.275 85.1152 95.183 84.83 93.0883C84.5444 90.9936 83.6859 89.1511 82.7345 88.9301Z" fill="white"/>
<path d="M82.7345 88.9301C82.7345 88.9301 80.6408 89.4707 79.784 91.5651C78.9272 93.6595 73.6909 107.559 73.3101 112.225C72.9293 116.889 76.5472 119.841 78.4512 120.031C80.3552 120.221 82.164 119.936 83.0208 118.318C83.8776 116.699 84.4488 103.275 84.4488 103.275C84.4488 103.275 85.1152 95.183 84.83 93.0883C84.5444 90.9936 83.6859 89.1511 82.7345 88.9301Z" stroke="#1A2E35" stroke-width="0.34" stroke-miterlimit="10" stroke-linecap="round" stroke-linejoin="round"/>
<path d="M74.7627 110.41C74.7627 110.41 80.1327 107.536 83.8387 109.2" stroke="#1A2E35" stroke-width="0.34" stroke-miterlimit="10" stroke-linecap="round" stroke-linejoin="round"/>
<path d="M84.3087 109.104C84.3087 109.104 82.1351 110.282 81.637 111.957C81.1389 113.632 80.1879 115.987 80.55 116.847C80.9125 117.708 82.7692 118.976 84.1275 118.93C85.4862 118.885 86.3011 118.387 86.7537 118.07C87.2066 117.753 88.9729 115.399 89.2445 114.583L89.5162 113.768C89.5162 113.768 91.1013 114.538 91.599 114.81C92.0971 115.081 92.9577 114.493 92.8672 113.768C92.7764 113.044 90.784 112.002 89.7878 111.233C88.792 110.463 87.7954 110.01 86.4371 109.557C85.0785 109.104 84.7616 108.969 84.3087 109.104Z" fill="#599BFE"/>
<path d="M84.3087 109.104C84.3087 109.104 82.1351 110.282 81.637 111.957C81.1389 113.632 80.1879 115.987 80.55 116.847C80.9125 117.708 82.7692 118.976 84.1275 118.93C85.4862 118.885 86.3011 118.387 86.7537 118.07C87.2066 117.753 88.9729 115.399 89.2445 114.583L89.5162 113.768C89.5162 113.768 91.1013 114.538 91.599 114.81C92.0971 115.081 92.9577 114.493 92.8672 113.768C92.7764 113.044 90.784 112.002 89.7878 111.233C88.792 110.463 87.7954 110.01 86.4371 109.557C85.0785 109.104 84.7616 108.969 84.3087 109.104Z" stroke="#1A2E35" stroke-width="0.34" stroke-miterlimit="10" stroke-linecap="round" stroke-linejoin="round"/>
<path d="M89.517 113.768C89.517 113.768 87.0718 112.999 86.1208 112.727C85.1698 112.455 84.9434 112.41 84.9434 112.41" stroke="#1A2E35" stroke-width="0.34" stroke-miterlimit="10" stroke-linecap="round" stroke-linejoin="round"/>
<path d="M88.747 115.489C88.747 115.489 87.1623 115.58 85.8036 115.217C84.4453 114.855 82.7246 113.995 82.7246 113.995" stroke="#1A2E35" stroke-width="0.34" stroke-miterlimit="10" stroke-linecap="round" stroke-linejoin="round"/>
<path d="M82.2705 116.44C82.2705 116.44 84.0365 117.165 85.4859 117.391C86.9346 117.617 87.4779 117.345 87.4779 117.345" stroke="#1A2E35" stroke-width="0.34" stroke-miterlimit="10" stroke-linecap="round" stroke-linejoin="round"/>
<path d="M89.7417 111.006C89.7417 111.006 89.9681 111.051 90.9647 111.006C91.9605 110.961 92.8211 110.463 92.9115 110.871C93.0023 111.278 92.9115 111.731 92.4586 111.957C92.0057 112.184 91.2812 112.184 91.2812 112.184L89.4248 111.006" fill="#599BFE"/>
<path d="M89.7417 111.006C89.7417 111.006 89.9681 111.051 90.9647 111.006C91.9605 110.961 92.8211 110.463 92.9115 110.871C93.0023 111.278 92.9115 111.731 92.4586 111.957C92.0057 112.184 91.2812 112.184 91.2812 112.184L89.4248 111.006" stroke="#1A2E35" stroke-width="0.34" stroke-miterlimit="10" stroke-linecap="round" stroke-linejoin="round"/>
<path d="M68.174 101.876C68.174 101.876 69.7108 101.784 70.3435 101.507C70.9762 101.231 71.8371 100.997 71.6994 102.152C71.6001 102.987 70.4652 103.689 69.6547 103.689C68.3569 103.689 67.4219 104.627 67.4219 104.627L68.174 101.876Z" fill="#599BFE"/>
<path d="M68.174 101.876C68.174 101.876 69.7108 101.784 70.3435 101.507C70.9762 101.231 71.8371 100.997 71.6994 102.152C71.6001 102.987 70.4652 103.689 69.6547 103.689C68.3569 103.689 67.4219 104.627 67.4219 104.627L68.174 101.876Z" stroke="#1A2E35" stroke-width="0.34" stroke-miterlimit="10" stroke-linecap="round" stroke-linejoin="round"/>
<path d="M58.5128 94.8194C58.5128 94.8194 69.9116 97.4387 70.0065 98.0082C70.1013 98.5777 63.0694 130.418 63.0694 130.418L51.6777 125.861L58.5128 94.8194Z" fill="#DADADA"/>
<path d="M58.5128 94.8194C58.5128 94.8194 69.9116 97.4387 70.0065 98.0082C70.1013 98.5777 63.0694 130.418 63.0694 130.418L51.6777 125.861L58.5128 94.8194Z" stroke="#1A2E35" stroke-width="0.34" stroke-miterlimit="10" stroke-linecap="round" stroke-linejoin="round"/>
<path d="M68.0897 108.384C68.0897 108.384 69.176 108.574 69.1308 108.887C69.0713 109.297 69.0757 109.587 68.6361 109.737C68.1965 109.887 66.6474 109.564 66.5376 109.214C66.4278 108.864 66.6029 108.238 66.8225 108.188C67.0425 108.138 68.0897 108.384 68.0897 108.384Z" fill="#599BFE"/>
<path d="M68.0897 108.384C68.0897 108.384 69.176 108.574 69.1308 108.887C69.0713 109.297 69.0757 109.587 68.6361 109.737C68.1965 109.887 66.6474 109.564 66.5376 109.214C66.4278 108.864 66.6029 108.238 66.8225 108.188C67.0425 108.138 68.0897 108.384 68.0897 108.384Z" stroke="#1A2E35" stroke-width="0.34" stroke-miterlimit="10" stroke-linecap="round" stroke-linejoin="round"/>
<path d="M68.4307 106.819C68.4307 106.819 69.7883 107.057 69.7318 107.449C69.6574 107.961 69.6632 108.323 69.1134 108.511C68.5639 108.698 66.628 108.295 66.4903 107.857C66.3533 107.42 66.5719 106.637 66.8466 106.574C67.1213 106.512 68.4307 106.819 68.4307 106.819Z" fill="#599BFE"/>
<path d="M68.4307 106.819C68.4307 106.819 69.7883 107.057 69.7318 107.449C69.6574 107.961 69.6632 108.323 69.1134 108.511C68.5639 108.698 66.628 108.295 66.4903 107.857C66.3533 107.42 66.5719 106.637 66.8466 106.574C67.1213 106.512 68.4307 106.819 68.4307 106.819Z" stroke="#1A2E35" stroke-width="0.34" stroke-miterlimit="10" stroke-linecap="round" stroke-linejoin="round"/>
<path d="M69.0887 105.313C69.0887 105.313 70.4467 105.551 70.3899 105.943C70.3154 106.455 70.3212 106.818 69.7714 107.005C69.222 107.192 67.286 106.789 67.1487 106.352C67.0113 105.914 67.2299 105.131 67.5046 105.068C67.7797 105.006 69.0887 105.313 69.0887 105.313Z" fill="#599BFE"/>
<path d="M69.0887 105.313C69.0887 105.313 70.4467 105.551 70.3899 105.943C70.3154 106.455 70.3212 106.818 69.7714 107.005C69.222 107.192 67.286 106.789 67.1487 106.352C67.0113 105.914 67.2299 105.131 67.5046 105.068C67.7797 105.006 69.0887 105.313 69.0887 105.313Z" stroke="#1A2E35" stroke-width="0.34" stroke-miterlimit="10" stroke-linecap="round" stroke-linejoin="round"/>
<path d="M69.3621 103.589C69.3621 103.589 70.7201 103.827 70.6633 104.219C70.5889 104.731 70.5946 105.093 70.0449 105.281C69.4954 105.468 67.5595 105.064 67.4221 104.627C67.2847 104.19 67.5034 103.406 67.7781 103.344C68.0528 103.282 69.3621 103.589 69.3621 103.589Z" fill="#599BFE"/>
<path d="M69.3621 103.589C69.3621 103.589 70.7201 103.827 70.6633 104.219C70.5889 104.731 70.5946 105.093 70.0449 105.281C69.4954 105.468 67.5595 105.064 67.4221 104.627C67.2847 104.19 67.5034 103.406 67.7781 103.344C68.0528 103.282 69.3621 103.589 69.3621 103.589Z" stroke="#1A2E35" stroke-width="0.34" stroke-miterlimit="10" stroke-linecap="round" stroke-linejoin="round"/>
<path d="M36.394 159.371C36.394 159.371 32.0273 142.948 32.0273 139.531C32.0273 136.114 32.4068 133.646 32.4068 133.646L59.2719 129.184L61.9297 132.886C61.9297 132.886 61.1704 138.772 60.2212 145.037C59.2719 151.302 58.8921 158.992 58.8921 158.992L36.394 159.371Z" fill="#1A2E35"/>
<path d="M36.394 159.371C36.394 159.371 32.0273 142.948 32.0273 139.531C32.0273 136.114 32.4068 133.646 32.4068 133.646L59.2719 129.184L61.9297 132.886C61.9297 132.886 61.1704 138.772 60.2212 145.037C59.2719 151.302 58.8921 158.992 58.8921 158.992L36.394 159.371Z" stroke="#1A2E35" stroke-width="0.34" stroke-miterlimit="10" stroke-linecap="round" stroke-linejoin="round"/>
<path d="M40.2138 83.2619C40.2138 83.2619 35.2009 88.3585 34.2819 91.3658C33.3632 94.3738 33.029 95.794 32.1932 100.89C31.3579 105.987 30.6061 108.075 30.8567 110.248C31.1073 112.42 32.778 118.603 32.778 118.603C32.778 118.603 32.6111 124.701 32.1932 128.211C31.7757 131.719 30.5225 134.059 30.7731 135.061C31.0236 136.064 47.9002 138.904 51.4094 138.403C54.9182 137.902 57.5083 137.067 57.5083 137.067L59.179 131.636L59.4296 137.234C59.4296 137.234 61.1007 136.649 61.9361 136.315C62.7715 135.98 63.8578 135.479 63.8578 135.479C63.8578 135.479 62.9388 121.443 62.9388 121.192C62.9388 120.942 63.273 106.154 63.1057 104.232C62.9388 102.311 61.3513 98.3005 59.6802 95.6271C58.0094 92.9533 55.0018 88.1076 53.9991 86.938C52.9965 85.7684 53.5813 86.1026 51.2421 84.181C48.9029 82.2593 43.4721 81.1733 40.2138 83.2619Z" fill="#599BFE"/>
<path d="M40.2138 83.2619C40.2138 83.2619 35.2009 88.3585 34.2819 91.3658C33.3632 94.3738 33.029 95.794 32.1932 100.89C31.3579 105.987 30.6061 108.075 30.8567 110.248C31.1073 112.42 32.778 118.603 32.778 118.603C32.778 118.603 32.6111 124.701 32.1932 128.211C31.7757 131.719 30.5225 134.059 30.7731 135.061C31.0236 136.064 47.9002 138.904 51.4094 138.403C54.9182 137.902 57.5083 137.067 57.5083 137.067L59.179 131.636L59.4296 137.234C59.4296 137.234 61.1007 136.649 61.9361 136.315C62.7715 135.98 63.8578 135.479 63.8578 135.479C63.8578 135.479 62.9388 121.443 62.9388 121.192C62.9388 120.942 63.273 106.154 63.1057 104.232C62.9388 102.311 61.3513 98.3005 59.6802 95.6271C58.0094 92.9533 55.0018 88.1076 53.9991 86.938C52.9965 85.7684 53.5813 86.1026 51.2421 84.181C48.9029 82.2593 43.4721 81.1733 40.2138 83.2619Z" stroke="#1A2E35" stroke-width="0.34" stroke-miterlimit="10" stroke-linecap="round" stroke-linejoin="round"/>
<path d="M63.0288 122.684C62.0649 122.071 60.7556 121.387 59.8413 121.494C58.2277 121.684 48.64 125.861 41.1406 126.62C36.7791 127.062 33.9296 127.15 32.3061 127.147C32.2707 127.52 32.2333 127.877 32.1935 128.21C32.0623 129.314 31.8481 130.302 31.624 131.169L32.217 131.082C32.217 131.082 42.1848 130.417 46.7414 129.373C51.2981 128.329 59.5567 125.101 60.1262 125.386C60.4853 125.566 62.1264 126.274 63.2909 126.772C63.1889 125.192 63.0941 123.72 63.0288 122.684Z" fill="white"/>
<path d="M63.0288 122.684C62.0649 122.071 60.7556 121.387 59.8413 121.494C58.2277 121.684 48.64 125.861 41.1406 126.62C36.7791 127.062 33.9296 127.15 32.3061 127.147C32.2707 127.52 32.2333 127.877 32.1935 128.21C32.0623 129.314 31.8481 130.302 31.624 131.169L32.217 131.082C32.217 131.082 42.1848 130.417 46.7414 129.373C51.2981 128.329 59.5567 125.101 60.1262 125.386C60.4853 125.566 62.1264 126.274 63.2909 126.772C63.1889 125.192 63.0941 123.72 63.0288 122.684Z" stroke="#1A2E35" stroke-width="0.34" stroke-miterlimit="10" stroke-linecap="round" stroke-linejoin="round"/>
<path d="M54.7153 112.381C51.1079 113.52 37.818 118.551 36.9636 118.647C36.4226 118.706 34.2085 118.386 32.6558 118.143C32.7326 118.432 32.7782 118.602 32.7782 118.602C32.7782 118.602 32.737 120.105 32.6445 122.047C33.0519 122.202 33.4517 122.349 33.7359 122.444C34.5904 122.729 36.7735 122.348 37.818 121.874C38.8621 121.399 54.4304 115.894 55.9492 115.609C56.978 115.416 60.7255 115.788 63.0388 116.049C63.0653 114.595 63.0922 112.983 63.1133 111.425C60.8778 111.453 57.1218 111.621 54.7153 112.381Z" fill="white"/>
<path d="M54.7153 112.381C51.1079 113.52 37.818 118.551 36.9636 118.647C36.4226 118.706 34.2085 118.386 32.6558 118.143C32.7326 118.432 32.7782 118.602 32.7782 118.602C32.7782 118.602 32.737 120.105 32.6445 122.047C33.0519 122.202 33.4517 122.349 33.7359 122.444C34.5904 122.729 36.7735 122.348 37.818 121.874C38.8621 121.399 54.4304 115.894 55.9491 115.609C56.978 115.416 60.7255 115.788 63.0388 116.049C63.0654 114.595 63.0922 112.983 63.1133 111.425C60.8778 111.453 57.1218 111.621 54.7153 112.381Z" stroke="#1A2E35" stroke-width="0.34" stroke-miterlimit="10" stroke-linecap="round" stroke-linejoin="round"/>
<path d="M41.8748 115.421C41.8748 115.421 38.3718 124.338 35.665 128.158" stroke="#1A2E35" stroke-width="0.34" stroke-miterlimit="10" stroke-linecap="round" stroke-linejoin="round"/>
<path d="M45.3774 121.312C45.3774 121.312 39.6457 128.796 35.5059 132.776" stroke="#1A2E35" stroke-width="0.34" stroke-miterlimit="10" stroke-linecap="round" stroke-linejoin="round"/>
<path d="M57.001 97.2703C57.001 97.2703 59.0709 101.41 59.8672 105.709C60.6631 110.008 60.1854 126.407 60.1854 126.885" stroke="#1A2E35" stroke-width="0.34" stroke-miterlimit="10" stroke-linecap="round" stroke-linejoin="round"/>
<path d="M34.4336 113.808C34.4336 113.808 36.8721 115.84 37.38 116.247C37.888 116.653 40.3268 115.129 40.3268 115.129" stroke="#1A2E35" stroke-width="0.34" stroke-miterlimit="10" stroke-linecap="round" stroke-linejoin="round"/>
<path d="M52.3343 85.0961C52.0634 84.8612 51.7145 84.5684 51.2426 84.1808C49.2451 82.54 44.9978 81.5159 41.7695 82.5492C43.0435 83.1374 45.4449 84.4403 47.3156 86.6037C49.9894 89.695 56.1719 94.8745 56.1719 94.8745C56.1719 94.8745 54.3988 88.557 52.3343 85.0961Z" fill="#1A2E35"/>
<path d="M52.3343 85.0961C52.0634 84.8612 51.7145 84.5684 51.2426 84.1808C49.2451 82.54 44.9978 81.5159 41.7695 82.5492C43.0435 83.1374 45.4449 84.4403 47.3156 86.6037C49.9894 89.695 56.1719 94.8745 56.1719 94.8745C56.1719 94.8745 54.3988 88.557 52.3343 85.0961Z" stroke="#1A2E35" stroke-width="0.34" stroke-miterlimit="10" stroke-linecap="round" stroke-linejoin="round"/>
<path d="M62.135 69.7639C62.135 69.7639 62.2513 71.2755 62.1932 71.7988C62.135 72.3221 61.4955 73.1941 61.4955 73.6596C61.4955 74.1247 61.9606 75.6945 62.2513 76.2178C62.542 76.741 63.0071 77.7294 62.8327 78.0201C62.6583 78.3108 60.5652 79.3573 60.5652 79.3573C60.5652 79.3573 58.7626 84.3577 58.3556 84.5903C57.9486 84.8232 56.1463 84.4159 55.5067 84.1252C54.8672 83.8345 53.0064 82.9624 53.0064 82.9624C53.0064 82.9624 52.2505 84.2414 52.0761 85.6368C51.9017 87.0325 52.1924 88.7764 52.1924 88.7764C52.1924 88.7764 51.4366 88.893 48.1226 85.5787C44.8083 82.2647 44.5176 79.474 44.5176 73.9503C44.5176 68.4267 44.5757 67.729 44.5757 67.729L62.135 69.7639Z" fill="white"/>
<path d="M62.135 69.7639C62.135 69.7639 62.2513 71.2755 62.1932 71.7988C62.135 72.322 61.4955 73.1941 61.4955 73.6596C61.4955 74.1247 61.9606 75.6945 62.2513 76.2178C62.542 76.741 63.0071 77.7294 62.8327 78.0201C62.6583 78.3108 60.5652 79.3573 60.5652 79.3573C60.5652 79.3573 58.7626 84.3577 58.3556 84.5903C57.9486 84.8232 56.1463 84.4159 55.5067 84.1252C54.8672 83.8345 53.0064 82.9624 53.0064 82.9624C53.0064 82.9624 52.2505 84.2414 52.0761 85.6368C51.9017 87.0325 52.1924 88.7764 52.1924 88.7764C52.1924 88.7764 51.4366 88.893 48.1226 85.5787C44.8083 82.2647 44.5176 79.474 44.5176 73.9503C44.5176 68.4267 44.5757 67.729 44.5757 67.729L62.135 69.7639Z" stroke="#1A2E35" stroke-width="0.34" stroke-miterlimit="10" stroke-linecap="round" stroke-linejoin="round"/>
<path d="M53.0061 82.9624L51.2422 82.0084L52.0779 84.6821L53.0061 82.9624Z" fill="#1A2E35"/>
<path d="M53.0061 82.9624L51.2422 82.0084L52.0779 84.6821L53.0061 82.9624Z" stroke="#1A2E35" stroke-width="0.34" stroke-miterlimit="10" stroke-linecap="round" stroke-linejoin="round"/>
<path d="M54.1688 69.2407C54.1688 69.2407 53.82 70.1709 53.122 70.6942C52.4246 71.2174 52.1339 72.4968 51.3781 73.3689C50.6219 74.241 49.6917 74.2992 49.2847 73.1364C48.8777 71.9736 48.9359 70.7523 47.7149 69.8802C46.494 69.0081 46.901 71.1593 46.6103 74.2992C46.3196 77.4387 47.0754 83.1368 47.5987 83.9508C48.1219 84.7647 48.587 85.0558 48.587 85.0558C48.587 85.0558 46.7847 86.6833 41.8425 85.9279C36.9002 85.1717 36.5514 81.1019 37.3653 78.66C38.1793 76.2178 39.4584 70.5779 39.4584 69.7058C39.4584 68.8337 39.6909 67.6127 39.6909 67.6127L54.1688 69.2407Z" fill="#1A2E35"/>
<path d="M54.1688 69.2407C54.1688 69.2407 53.82 70.1709 53.122 70.6942C52.4246 71.2174 52.1339 72.4968 51.3781 73.3689C50.6219 74.241 49.6917 74.2992 49.2847 73.1364C48.8777 71.9736 48.9359 70.7523 47.7149 69.8802C46.494 69.0081 46.901 71.1593 46.6103 74.2992C46.3196 77.4387 47.0754 83.1368 47.5987 83.9508C48.1219 84.7647 48.587 85.0558 48.587 85.0558C48.587 85.0558 46.7847 86.6833 41.8425 85.9279C36.9002 85.1717 36.5514 81.1019 37.3653 78.66C38.1793 76.2178 39.4584 70.5779 39.4584 69.7058C39.4584 68.8337 39.6909 67.6127 39.6909 67.6127L54.1688 69.2407Z" stroke="#1A2E35" stroke-width="0.34" stroke-miterlimit="10" stroke-linecap="round" stroke-linejoin="round"/>
<path d="M59.3802 79.2351C59.3802 79.2351 57.7519 79.0025 56.9961 78.363C56.9961 78.363 57.2287 80.8633 58.1592 80.6304C59.0895 80.3979 59.3802 79.2351 59.3802 79.2351Z" stroke="#1A2E35" stroke-width="0.34" stroke-miterlimit="10" stroke-linecap="round" stroke-linejoin="round"/>
<path d="M59.6283 73.9185C59.5335 74.4071 59.3291 74.7783 59.1714 74.7477C59.0136 74.7175 58.9626 74.2966 59.0575 73.808C59.1523 73.3191 59.3567 72.9481 59.5144 72.9784C59.6719 73.009 59.7229 73.4299 59.6283 73.9185Z" fill="black"/>
<path d="M61.4953 72.6127C61.4953 72.6127 60.1581 71.8568 57.1344 72.0313C57.1344 72.0313 56.6112 74.1824 56.7856 74.9964C56.96 75.8104 57.5418 76.7409 59.1115 76.4502C60.6813 76.1595 61.379 73.9499 61.4953 72.6127Z" stroke="#1A2E35" stroke-width="0.34" stroke-miterlimit="10" stroke-linecap="round" stroke-linejoin="round"/>
<path d="M61.495 72.6132C61.495 72.6132 63.181 72.7295 63.588 73.0783C63.588 73.0783 63.3554 75.2876 62.2508 75.8694L61.495 73.6597C61.495 73.6597 61.2624 73.1365 61.495 72.6132Z" stroke="#1A2E35" stroke-width="0.34" stroke-miterlimit="10" stroke-linecap="round" stroke-linejoin="round"/>
<path d="M58.7041 71.5084C58.7041 71.5084 60.0413 70.927 61.0297 71.741" stroke="#1A2E35" stroke-width="0.34" stroke-miterlimit="10" stroke-linecap="round" stroke-linejoin="round"/>
<path d="M57.1338 72.0315L48.7031 71.4501L49.052 71.9733L56.7849 72.9036L57.1338 72.0315Z" fill="#1A2E35"/>
<path d="M57.1338 72.0315L48.7031 71.4501L49.052 71.9733L56.7849 72.9036L57.1338 72.0315Z" stroke="#1A2E35" stroke-width="0.34" stroke-miterlimit="10" stroke-linecap="round" stroke-linejoin="round"/>
<path d="M58.2969 74.6479L59.6922 75.1711" stroke="#1A2E35" stroke-width="0.34" stroke-miterlimit="10" stroke-linecap="round" stroke-linejoin="round"/>
<path d="M38.9611 72.8184L45.4779 68.8917L43.4729 68.5575L38.46 70.3119L38.9611 72.8184Z" fill="white"/>
<path d="M38.9611 72.8184L45.4779 68.8917L43.4729 68.5575L38.46 70.3119L38.9611 72.8184Z" stroke="#1A2E35" stroke-width="0.34" stroke-miterlimit="10" stroke-linecap="round" stroke-linejoin="round"/>
<path d="M38.2295 68.7774C38.2295 68.7774 55.1384 69.9579 57.6197 70.0483C60.7746 70.1636 65.761 70.169 66.5848 69.4625C67.4086 68.7563 64.5839 69.3449 63.6421 68.7563C62.7007 68.1681 62.3953 63.8678 61.6494 61.0206C61.0166 58.6053 58.163 53.8249 51.8805 53.7321C47.042 53.6607 40.5442 56.3144 39.5215 61.5007C39.2628 62.8131 38.6287 65.1346 38.7633 65.3757C38.8048 65.4505 38.917 67.3508 38.9007 67.4347L38.2295 68.7774Z" fill="white"/>
<path d="M38.2295 68.7774C38.2295 68.7774 55.1384 69.9579 57.6197 70.0483C60.7746 70.1636 65.761 70.169 66.5848 69.4625C67.4086 68.7563 64.5839 69.3449 63.6421 68.7563C62.7007 68.1681 62.3953 63.8678 61.6494 61.0206C61.0166 58.6053 58.163 53.8249 51.8805 53.7321C47.042 53.6607 40.5442 56.3144 39.5215 61.5007C39.2628 62.8131 38.6287 65.1346 38.7633 65.3757C38.8048 65.4505 38.917 67.3508 38.9007 67.4347L38.2295 68.7774Z" stroke="#1A2E35" stroke-width="0.34" stroke-miterlimit="10" stroke-linecap="round" stroke-linejoin="round"/>
<path d="M38.2295 68.7774C38.2295 68.7774 38.6164 66.6786 44.0459 66.5848C49.4753 66.4913 57.6197 70.0483 57.6197 70.0483C57.6197 70.0483 42.8039 70.0341 38.2295 68.7774Z" fill="white"/>
<path d="M38.2295 68.7774C38.2295 68.7774 38.6164 66.6786 44.0459 66.5848C49.4753 66.4913 57.6197 70.0483 57.6197 70.0483C57.6197 70.0483 42.8039 70.0341 38.2295 68.7774Z" stroke="#1A2E35" stroke-width="0.34" stroke-miterlimit="10" stroke-linecap="round" stroke-linejoin="round"/>
<path d="M60.1713 59.6143C60.1713 59.6143 60.5157 60.5096 60.7911 61.8872C61.0669 63.2649 61.8931 68.4305 61.8931 68.4305C61.8931 68.4305 59.7582 69.1884 58.1738 69.2571" stroke="#1A2E35" stroke-width="0.34" stroke-miterlimit="10" stroke-linecap="round" stroke-linejoin="round"/>
<path d="M88.64 92.2192C88.64 92.2192 81.4252 99.1113 77.6563 103.957C73.8874 108.802 67.2111 118.279 65.0572 122.909C62.9037 127.539 60.3193 137.769 60.3193 137.769C60.3193 137.769 64.0882 143.154 71.1953 143.477C78.3023 143.799 102.962 139.815 110.177 139.385C117.391 138.954 120.354 138.26 127.191 134.969C134.956 131.232 150.324 109.222 152.28 105.895C154.375 102.333 156.243 96.2373 156.243 96.2373C156.243 96.2373 140.503 103.174 130.25 104.804C119.556 106.503 105.223 103.634 99.9467 102.126C94.6699 100.619 88.64 92.2192 88.64 92.2192Z" fill="white"/>
<path d="M88.64 92.2192C88.64 92.2192 81.4252 99.1113 77.6563 103.957C73.8874 108.802 67.2111 118.279 65.0572 122.909C62.9037 127.539 60.3193 137.769 60.3193 137.769C60.3193 137.769 64.0882 143.154 71.1953 143.477C78.3023 143.799 102.962 139.815 110.177 139.385C117.391 138.954 120.354 138.26 127.191 134.969C134.956 131.232 150.324 109.222 152.28 105.895C154.375 102.333 156.243 96.2373 156.243 96.2373C156.243 96.2373 140.503 103.174 130.25 104.804C119.556 106.503 105.223 103.634 99.9467 102.126C94.6699 100.619 88.64 92.2192 88.64 92.2192Z" stroke="#1A2E35" stroke-width="0.34" stroke-miterlimit="10" stroke-linecap="round" stroke-linejoin="round"/>
<path d="M156.242 96.2372C156.242 96.2372 156.39 95.2774 155.873 94.0218C155.356 92.7665 151.147 91.8805 151.147 91.8805C151.147 91.8805 151.221 95.0557 150.925 96.6803C150.63 98.3048 150.624 98.4707 150.624 98.4707L156.242 96.2372Z" fill="white"/>
<path d="M156.242 96.2372C156.242 96.2372 156.39 95.2774 155.873 94.0218C155.356 92.7665 151.147 91.8805 151.147 91.8805C151.147 91.8805 151.221 95.0557 150.925 96.6803C150.63 98.3048 150.624 98.4707 150.624 98.4707L156.242 96.2372Z" stroke="#1A2E35" stroke-width="0.34" stroke-miterlimit="10" stroke-linecap="round" stroke-linejoin="round"/>
<path d="M50.4061 103.814C50.4061 103.814 48.7353 95.1253 47.2315 92.3686C45.7277 89.6115 40.2741 88.989 38.7097 91.2826C37.8451 92.5491 37.5398 95.042 36.8713 98.3839C36.2032 101.726 37.5398 113.088 38.3755 113.171C39.2109 113.255 41.7174 111.25 41.7174 111.25C41.7174 111.25 42.9703 114.425 43.7223 114.926C44.4744 115.427 55.586 119.187 59.8472 119.605C59.8472 119.605 63.1054 120.44 63.356 119.939C63.6065 119.438 65.5282 113.757 65.5282 113.757L60.2647 111.668L51.3251 105.819L50.4061 103.814Z" fill="#1A2E35"/>
<path d="M50.4061 103.814C50.4061 103.814 48.7353 95.1253 47.2315 92.3686C45.7277 89.6115 40.2741 88.989 38.7097 91.2826C37.8451 92.5491 37.5398 95.042 36.8713 98.3839C36.2032 101.726 37.5398 113.088 38.3755 113.171C39.2109 113.255 41.7174 111.25 41.7174 111.25C41.7174 111.25 42.9703 114.425 43.7223 114.926C44.4744 115.427 55.586 119.187 59.8472 119.605C59.8472 119.605 63.1054 120.44 63.356 119.939C63.6065 119.438 65.5282 113.757 65.5282 113.757L60.2647 111.668L51.3251 105.819L50.4061 103.814Z" stroke="#1A2E35" stroke-width="0.34" stroke-miterlimit="10" stroke-linecap="round" stroke-linejoin="round"/>
<path d="M41.7184 111.25C41.7184 111.25 38.2929 103.313 37.875 98.9688" stroke="#DADADA" stroke-width="0.34" stroke-miterlimit="10" stroke-linecap="round" stroke-linejoin="round"/>
<path d="M66.6151 112.587C66.6151 112.587 64.6935 113.673 63.9417 114.676C63.1896 115.678 62.2706 117.934 62.6048 119.02C62.9391 120.106 64.2759 120.524 64.944 120.273C65.6125 120.023 66.7821 119.939 66.7821 119.939C66.7821 119.939 67.5342 120.608 68.0353 120.19C68.5368 119.772 71.795 115.845 71.8783 115.595C71.9623 115.344 73.2152 114.175 73.3825 113.506C73.5494 112.838 71.6281 111 71.1266 110.665C70.6254 110.331 68.871 110.665 68.119 110.749C67.3669 110.833 66.6151 111.668 66.6151 112.587Z" fill="#599BFE"/>
<path d="M66.6151 112.587C66.6151 112.587 64.6935 113.673 63.9417 114.676C63.1896 115.678 62.2706 117.934 62.6048 119.02C62.9391 120.106 64.2759 120.524 64.944 120.273C65.6125 120.023 66.7821 119.939 66.7821 119.939C66.7821 119.939 67.5342 120.608 68.0353 120.19C68.5368 119.772 71.795 115.845 71.8783 115.595C71.9623 115.344 73.2152 114.175 73.3825 113.506C73.5494 112.838 71.6281 111 71.1266 110.665C70.6254 110.331 68.871 110.665 68.119 110.749C67.3669 110.833 66.6151 111.668 66.6151 112.587Z" stroke="#1A2E35" stroke-width="0.34" stroke-miterlimit="10" stroke-linecap="round" stroke-linejoin="round"/>
<path d="M67.6592 112.966L71.8776 115.594" stroke="#1A2E35" stroke-width="0.34" stroke-miterlimit="10" stroke-linecap="round" stroke-linejoin="round"/>
<path d="M69.7852 112.541L70.8245 114.855" stroke="#1A2E35" stroke-width="0.34" stroke-miterlimit="10" stroke-linecap="round" stroke-linejoin="round"/>
<path d="M66.1019 113.533C66.1019 113.533 65.8187 113.58 65.8656 114.1C65.9129 114.619 66.4324 114.808 66.4324 114.808L70.4002 117.075" stroke="#1A2E35" stroke-width="0.34" stroke-miterlimit="10" stroke-linecap="round" stroke-linejoin="round"/>
<path d="M65.9587 114.666C65.9587 114.666 64.8251 115.895 64.9197 116.273C65.0142 116.65 69.0289 118.634 69.0289 118.634" stroke="#1A2E35" stroke-width="0.34" stroke-miterlimit="10" stroke-linecap="round" stroke-linejoin="round"/>
<path d="M66.7825 119.939C66.7825 119.939 64.4484 118.634 64.1179 118.02C63.7871 117.406 64.5429 116.698 64.5429 116.698" stroke="#1A2E35" stroke-width="0.34" stroke-miterlimit="10" stroke-linecap="round" stroke-linejoin="round"/>
</g>
</svg>
