<svg width="127" height="81" viewBox="0 0 127 81" fill="none" xmlns="http://www.w3.org/2000/svg">
<g id="&#208;&#152;&#208;&#187;&#208;&#187;&#209;&#142;&#209;&#129;&#209;&#130;&#209;&#128;&#208;&#176;&#209;&#134;&#208;&#184;&#209;&#143;">
<g id="&#208;&#156;&#208;&#181;&#208;&#189;&#208;&#181;&#208;&#180;&#208;&#182;&#208;&#181;&#209;&#128;">
<g id="g1237">
<g id="g1243">
<path id="path1245" d="M77.7195 48.2326C77.7195 48.2326 72.2283 46.3392 68.7252 44.1615C65.222 41.9838 62.8551 41.1316 61.6242 41.3211C60.3933 41.5106 57.6478 41.5106 55.6595 41.8892C53.6713 42.2679 52.4404 42.6466 52.0617 43.5934C51.6831 44.5402 53.2926 47.1911 55.2809 47.7593C57.2691 48.3274 61.2455 50.9784 61.2455 50.9784C61.2455 50.9784 43.9194 67.5469 44.5821 69.251C45.2448 70.9555 52.8191 77.8669 53.8608 77.9615C54.9022 78.0561 70.5242 73.2275 71.4707 73.0383C72.4176 72.8488 75.1634 72.0915 77.4354 70.5765C79.708 69.0618 80.844 67.831 80.844 67.831L88.7023 64.4224L79.8026 47.2857L77.7195 48.2326Z" fill="white"/>
</g>
<g id="g1247">
<path id="path1249" d="M77.7195 48.2326C77.7195 48.2326 72.2283 46.3392 68.7252 44.1615C65.222 41.9838 62.8551 41.1316 61.6242 41.3211C60.3933 41.5106 57.6478 41.5106 55.6595 41.8892C53.6713 42.2679 52.4404 42.6466 52.0617 43.5934C51.6831 44.5402 53.2926 47.1911 55.2809 47.7593C57.2691 48.3274 61.2455 50.9784 61.2455 50.9784C61.2455 50.9784 43.9194 67.5469 44.5821 69.251C45.2448 70.9555 52.8191 77.8669 53.8608 77.9615C54.9022 78.0561 70.5242 73.2275 71.4707 73.0383C72.4176 72.8488 75.1634 72.0915 77.4354 70.5765C79.708 69.0618 80.844 67.831 80.844 67.831L88.7023 64.4224L79.8026 47.2857L77.7195 48.2326Z" stroke="#1A2E35" stroke-width="0.269516" stroke-miterlimit="10" stroke-linecap="round" stroke-linejoin="round"/>
</g>
<g id="g1251">
<path id="path1253" d="M69.7465 64.16C69.7465 64.16 73.7432 67.7246 74.1755 69.2368C74.6072 70.7491 74.0671 72.2616 74.0671 72.2616L71.4706 73.0381L69.7465 64.16Z" fill="#1A2E35"/>
</g>
<g id="g1255">
<path id="path1257" d="M69.7465 64.16C69.7465 64.16 73.7432 67.7246 74.1755 69.2368C74.6072 70.7491 74.0671 72.2616 74.0671 72.2616L71.4706 73.0381L69.7465 64.16Z" stroke="#1A2E35" stroke-width="0.269516" stroke-miterlimit="10" stroke-linecap="round" stroke-linejoin="round"/>
</g>
<g id="g1259">
<path id="path1261" d="M82.1693 53.1416L85.842 65.4561L88.7026 64.4222L82.1693 53.1416Z" fill="#1A2E35"/>
</g>
<g id="g1263">
<path id="path1265" d="M82.1693 53.1416L85.842 65.4561L88.7026 64.4222L82.1693 53.1416Z" stroke="#1A2E35" stroke-width="0.269516" stroke-miterlimit="10" stroke-linecap="round" stroke-linejoin="round"/>
</g>
<g id="g1267">
<path id="path1269" d="M55.2801 47.7595C55.2801 47.7595 62.2865 48.9901 63.612 49.5582C64.9374 50.1264 72.133 57.7952 74.6891 60.1623C77.2457 62.5292 78.571 66.2216 78.6658 68.5885C78.7604 70.9554 77.8136 74.0799 76.583 74.5531C75.3518 75.0267 74.4999 74.3639 74.1212 73.4171C73.7423 72.4706 73.5531 70.6716 73.5531 70.6716L72.0381 67.5471C72.0381 67.5471 72.2276 69.4407 71.8489 71.2394C71.4703 73.0385 70.8075 76.8257 69.2926 77.7722C67.7779 78.7191 65.9789 78.1512 65.7897 77.6776C65.6002 77.2044 65.4107 76.3522 65.4107 76.3522C65.4107 76.3522 64.9374 78.0563 63.5171 78.5299C62.097 79.0031 60.1088 78.435 60.1088 78.435C60.1088 78.435 58.4992 80.3286 57.1737 79.9499C55.8483 79.5713 54.5228 78.1512 54.5228 78.1512C54.5228 78.1512 50.0728 75.4054 46.0017 72.5649C41.9304 69.7248 34.6402 60.8251 34.6402 60.8251L31.1371 58.6471L41.8358 43.6884L46.3804 46.5286L55.2801 47.7595Z" fill="white"/>
</g>
<g id="g1271">
<path id="path1273" d="M55.2801 47.7595C55.2801 47.7595 62.2865 48.9901 63.612 49.5582C64.9374 50.1264 72.133 57.7952 74.6891 60.1623C77.2457 62.5292 78.571 66.2216 78.6658 68.5885C78.7604 70.9554 77.8136 74.0799 76.583 74.5531C75.3518 75.0267 74.4999 74.3639 74.1212 73.4171C73.7423 72.4706 73.5531 70.6716 73.5531 70.6716L72.0381 67.5471C72.0381 67.5471 72.2276 69.4407 71.8489 71.2394C71.4703 73.0385 70.8075 76.8257 69.2926 77.7722C67.7779 78.7191 65.9789 78.1512 65.7897 77.6776C65.6002 77.2044 65.4107 76.3522 65.4107 76.3522C65.4107 76.3522 64.9374 78.0563 63.5171 78.5299C62.097 79.0031 60.1088 78.435 60.1088 78.435C60.1088 78.435 58.4992 80.3286 57.1737 79.9499C55.8483 79.5713 54.5228 78.1512 54.5228 78.1512C54.5228 78.1512 50.0728 75.4054 46.0017 72.5649C41.9304 69.7248 34.6402 60.8251 34.6402 60.8251L31.1371 58.6471L41.8358 43.6884L46.3804 46.5286L55.2801 47.7595Z" stroke="#1A2E35" stroke-width="0.269516" stroke-miterlimit="10" stroke-linecap="round" stroke-linejoin="round"/>
</g>
<g id="g1275">
<path id="path1277" d="M43.1732 47.849L35.8178 62.0029L34.6408 60.8251L43.1732 47.849Z" fill="#1A2E35"/>
</g>
<g id="g1279">
<path id="path1281" d="M43.1732 47.849L35.8178 62.0029L34.6408 60.8251L43.1732 47.849Z" stroke="#1A2E35" stroke-width="0.269516" stroke-miterlimit="10" stroke-linecap="round" stroke-linejoin="round"/>
</g>
<g id="g1283">
<g id="path1285">
<path d="M57.3637 41.7946C57.3637 41.7946 53.3832 41.6903 52.4404 42.0787C50.8308 42.7414 50.7362 44.9191 50.7362 45.2978C50.7362 45.6764 49.6 48.7063 49.4108 49.8421C49.2213 50.9784 50.5468 51.5465 53.5764 50.5048C56.6063 49.4637 57.4585 48.1382 57.4585 45.2978" fill="white"/>
<path d="M57.3637 41.7946C57.3637 41.7946 53.3832 41.6903 52.4404 42.0787C50.8308 42.7414 50.7362 44.9191 50.7362 45.2978C50.7362 45.6764 49.6 48.7063 49.4108 49.8421C49.2213 50.9784 50.5468 51.5465 53.5764 50.5048C56.6063 49.4637 57.4585 48.1382 57.4585 45.2978" stroke="#1A2E35" stroke-width="0.269516" stroke-miterlimit="10" stroke-linecap="round" stroke-linejoin="round"/>
</g>
</g>
<g id="g1287">
<path id="path1289" d="M49.6948 49.1797C49.6948 49.1797 50.168 48.6118 50.9254 48.7064C51.683 48.8013 53.1979 48.6118 53.2925 47.4755C53.3871 46.3395 53.0085 45.7714 52.2509 45.7714C51.4935 45.7714 50.8308 46.2447 50.8308 46.2447L49.6948 49.1797Z" stroke="#1A2E35" stroke-width="0.269516" stroke-miterlimit="10" stroke-linecap="round" stroke-linejoin="round"/>
</g>
<g id="g1291">
<path id="path1293" d="M67.0221 59.9905C67.4652 60.7572 67.9028 61.9479 68.7251 62.9077C71.733 66.4171 72.0389 67.5469 72.0389 67.5469" stroke="#1A2E35" stroke-width="0.269516" stroke-miterlimit="10" stroke-linecap="round" stroke-linejoin="round"/>
</g>
<g id="g1295">
<path id="path1297" d="M66.1692 56.9434L66.3584 58.8371C66.3584 58.8371 66.4858 59.0599 66.7015 59.4346" stroke="#1A2E35" stroke-width="0.269516" stroke-miterlimit="10" stroke-linecap="round" stroke-linejoin="round"/>
</g>
<g id="g1299">
<path id="path1301" d="M61.0559 62.0561L61.1508 64.3286C61.1508 64.3286 65.0324 71.9026 65.6005 72.7548C66.1687 73.6067 65.79 75.8793 65.4113 76.3525" stroke="#1A2E35" stroke-width="0.269516" stroke-miterlimit="10" stroke-linecap="round" stroke-linejoin="round"/>
</g>
<g id="g1303">
<path id="path1305" d="M56.834 71.1733C57.3428 72.0228 57.8953 72.8745 58.4052 73.5113C59.9199 75.4049 60.1094 78.4346 60.1094 78.4346" stroke="#1A2E35" stroke-width="0.269516" stroke-miterlimit="10" stroke-linecap="round" stroke-linejoin="round"/>
</g>
<g id="g1307">
<path id="path1309" d="M54.9973 66.6004V67.831C54.9973 67.831 55.5652 68.967 56.3279 70.3057" stroke="#1A2E35" stroke-width="0.269516" stroke-miterlimit="10" stroke-linecap="round" stroke-linejoin="round"/>
</g>
<g id="g1311">
<path id="path1313" d="M39.7004 67.7119C39.7004 67.7119 37.4168 67.0724 36.7775 66.2503C36.1382 65.4283 35.8641 62.8253 35.8185 62.003C35.7727 61.1813 35.2703 60.3592 36.2754 59.9938C37.2799 59.6286 38.6043 60.7244 39.1067 61.8206C39.609 62.9167 39.6548 64.4238 39.6548 64.6518C39.6548 64.8804 40.4311 66.1134 40.4311 66.1134C40.4311 66.1134 41.1617 67.5292 39.7004 67.7119Z" fill="white"/>
</g>
<g id="g1315">
<path id="path1317" d="M39.7004 67.7119C39.7004 67.7119 37.4168 67.0724 36.7775 66.2503C36.1382 65.4283 35.8641 62.8253 35.8185 62.003C35.7727 61.1813 35.2703 60.3592 36.2754 59.9938C37.2799 59.6286 38.6043 60.7244 39.1067 61.8206C39.609 62.9167 39.6548 64.4238 39.6548 64.6518C39.6548 64.8804 40.4311 66.1134 40.4311 66.1134C40.4311 66.1134 41.1617 67.5292 39.7004 67.7119Z" stroke="#1A2E35" stroke-width="0.269516" stroke-miterlimit="10" stroke-linecap="round" stroke-linejoin="round"/>
</g>
<g id="g1319">
<path id="path1321" d="M36.0809 63.742C36.0809 63.742 36.8941 64.5552 37.4811 64.5099C38.0684 64.4646 37.6619 62.4772 37.6619 62.4772C37.6619 62.4772 37.0296 62.3419 36.5327 61.8899C36.0359 61.4382 35.7648 61.1221 35.7648 61.1221L36.0809 63.742Z" fill="white"/>
</g>
<g id="g1323">
<path id="path1325" d="M36.0809 63.742C36.0809 63.742 36.8941 64.5552 37.4811 64.5099C38.0684 64.4646 37.6619 62.4772 37.6619 62.4772C37.6619 62.4772 37.0296 62.3419 36.5327 61.8899C36.0359 61.4382 35.7648 61.1221 35.7648 61.1221L36.0809 63.742Z" stroke="#1A2E35" stroke-width="0.269516" stroke-miterlimit="10" stroke-linecap="round" stroke-linejoin="round"/>
</g>
<g id="g1327">
<path id="path1329" d="M43.9474 72.187C43.9474 72.187 41.5271 72.6892 40.9331 71.8671C40.3396 71.0454 39.1521 67.757 39.1977 66.6153C39.2435 65.4737 42.2575 62.688 43.7646 61.5463C45.2718 60.4043 46.2307 60.0391 47.1441 60.5871C48.0575 61.1353 48.7882 61.8201 48.5143 62.7793C48.2402 63.7383 46.048 67.8484 45.6828 68.579C45.3173 69.31 44.9521 71.8671 44.9521 71.8671L43.9474 72.187Z" fill="white"/>
</g>
<g id="g1331">
<path id="path1333" d="M43.9474 72.187C43.9474 72.187 41.5271 72.6892 40.9331 71.8671C40.3396 71.0454 39.1521 67.757 39.1977 66.6153C39.2435 65.4737 42.2575 62.688 43.7646 61.5463C45.2718 60.4043 46.2307 60.0391 47.1441 60.5871C48.0575 61.1353 48.7882 61.8201 48.5143 62.7793C48.2402 63.7383 46.048 67.8484 45.6828 68.579C45.3173 69.31 44.9521 71.8671 44.9521 71.8671L43.9474 72.187Z" stroke="#1A2E35" stroke-width="0.269516" stroke-miterlimit="10" stroke-linecap="round" stroke-linejoin="round"/>
</g>
<g id="g1335">
<path id="path1337" d="M43.034 62.3227C43.034 62.3227 42.0292 63.2819 42.5316 64.0125C43.034 64.7429 44.3126 65.428 44.8608 65.2456C45.4087 65.0628 47.1897 63.1905 47.5093 62.5968C47.8292 62.0028 45.8653 60.5873 45.8653 60.5873C45.8653 60.5873 44.3126 60.9983 43.034 62.3227Z" fill="white"/>
</g>
<g id="g1339">
<path id="path1341" d="M43.034 62.3227C43.034 62.3227 42.0292 63.2819 42.5316 64.0125C43.034 64.7429 44.3126 65.428 44.8608 65.2456C45.4087 65.0628 47.1897 63.1905 47.5093 62.5968C47.8292 62.0028 45.8653 60.5873 45.8653 60.5873C45.8653 60.5873 44.3126 60.9983 43.034 62.3227Z" stroke="#1A2E35" stroke-width="0.269516" stroke-miterlimit="10" stroke-linecap="round" stroke-linejoin="round"/>
</g>
<g id="g1343">
<path id="path1345" d="M47.9037 75.7022C47.9037 75.7022 45.2595 76.2509 44.611 75.3529C43.9623 74.4549 42.6654 70.863 42.7153 69.6157C42.7651 68.3684 46.0578 65.3253 47.704 64.078C49.3505 62.8306 50.3981 62.4318 51.3961 63.0304C52.3936 63.6289 53.1919 64.3771 52.8925 65.425C52.5933 66.4726 50.1987 70.9627 49.7995 71.7608C49.4004 72.5591 49.0012 75.3529 49.0012 75.3529L47.9037 75.7022Z" fill="white"/>
</g>
<g id="g1347">
<path id="path1349" d="M47.9037 75.7022C47.9037 75.7022 45.2595 76.2509 44.611 75.3529C43.9623 74.4549 42.6654 70.863 42.7153 69.6157C42.7651 68.3684 46.0578 65.3253 47.704 64.078C49.3505 62.8306 50.3981 62.4318 51.3961 63.0304C52.3936 63.6289 53.1919 64.3771 52.8925 65.425C52.5933 66.4726 50.1987 70.9627 49.7995 71.7608C49.4004 72.5591 49.0012 75.3529 49.0012 75.3529L47.9037 75.7022Z" stroke="#1A2E35" stroke-width="0.269516" stroke-miterlimit="10" stroke-linecap="round" stroke-linejoin="round"/>
</g>
<g id="g1351">
<path id="path1353" d="M46.9067 64.9267C46.9067 64.9267 45.8092 65.9746 46.358 66.7729C46.9067 67.5709 48.3036 68.3194 48.9022 68.1197C49.5008 67.9199 51.4467 65.8749 51.7957 65.2261C52.145 64.5777 49.9999 63.0312 49.9999 63.0312C49.9999 63.0312 48.3036 63.4802 46.9067 64.9267Z" fill="white"/>
</g>
<g id="g1355">
<path id="path1357" d="M46.9067 64.9267C46.9067 64.9267 45.8092 65.9746 46.358 66.7729C46.9067 67.5709 48.3036 68.3194 48.9022 68.1197C49.5008 67.9199 51.4467 65.8749 51.7957 65.2261C52.145 64.5777 49.9999 63.0312 49.9999 63.0312C49.9999 63.0312 48.3036 63.4802 46.9067 64.9267Z" stroke="#1A2E35" stroke-width="0.269516" stroke-miterlimit="10" stroke-linecap="round" stroke-linejoin="round"/>
</g>
<g id="g1359">
<path id="path1361" d="M53.0456 77.2921C53.0456 77.2921 52.3487 75.2009 52.3487 75.0109C52.3487 74.8209 53.6159 71.7794 53.4893 70.4488C53.3626 69.1182 52.2853 67.5973 51.5884 67.9776C50.8914 68.3579 49.6241 69.4351 48.4835 71.1458C47.3429 72.8566 46.9629 74.187 47.3429 74.8209C47.7232 75.4545 50.0041 77.8621 50.9547 78.2424C51.9053 78.6227 53.8607 77.9618 53.8607 77.9618L53.0456 77.2921Z" fill="white"/>
</g>
<g id="g1363">
<path id="path1365" d="M53.0456 77.2921C53.0456 77.2921 52.3487 75.2009 52.3487 75.0109C52.3487 74.8209 53.6159 71.7794 53.4893 70.4488C53.3626 69.1182 52.2853 67.5973 51.5884 67.9776C50.8914 68.3579 49.6241 69.4351 48.4835 71.1458C47.3429 72.8566 46.9629 74.187 47.3429 74.8209C47.7232 75.4545 50.0041 77.8621 50.9547 78.2424C51.9053 78.6227 53.8607 77.9618 53.8607 77.9618L53.0456 77.2921Z" stroke="#1A2E35" stroke-width="0.269516" stroke-miterlimit="10" stroke-linecap="round" stroke-linejoin="round"/>
</g>
<g id="g1367">
<path id="path1369" d="M48.6093 71.7157C48.6093 71.7157 49.433 72.2227 50.0033 72.2227C50.5736 72.2227 52.0309 70.8921 51.9675 69.5615C51.9042 68.2309 51.0803 68.5478 51.0803 68.5478C51.0803 68.5478 48.8627 70.1951 48.6093 71.7157Z" fill="white"/>
</g>
<g id="g1371">
<path id="path1373" d="M48.6093 71.7157C48.6093 71.7157 49.433 72.2227 50.0033 72.2227C50.5736 72.2227 52.0309 70.8921 51.9675 69.5615C51.9042 68.2309 51.0803 68.5478 51.0803 68.5478C51.0803 68.5478 48.8627 70.1951 48.6093 71.7157Z" stroke="#1A2E35" stroke-width="0.269516" stroke-miterlimit="10" stroke-linecap="round" stroke-linejoin="round"/>
</g>
<g id="g1375">
<path id="path1377" d="M79.0521 46.675L88.8248 67.8301L94.6887 65.3007L84.4559 44.2604L79.0521 46.675Z" fill="white"/>
</g>
<g id="g1379">
<path id="path1381" d="M79.0521 46.675L88.8248 67.8301L94.6887 65.3007L84.4559 44.2604L79.0521 46.675Z" stroke="#1A2E35" stroke-width="0.269516" stroke-miterlimit="10" stroke-linecap="round" stroke-linejoin="round"/>
</g>
<g id="g1383">
<path id="path1385" d="M126.406 18.862L82.5013 44.6056L97.0167 74.2686L126.406 59.6045V18.862Z" fill="#1A2E35"/>
</g>
<g id="g1387">
<path id="path1389" d="M126.406 18.862L82.5013 44.6056L97.0167 74.2686L126.406 59.6045V18.862Z" stroke="#1A2E35" stroke-width="0.269516" stroke-miterlimit="10" stroke-linecap="round" stroke-linejoin="round"/>
</g>
<g id="g1391">
<path id="path1393" d="M44.9053 45.0654L31.5683 65.7607L26.5094 63.2313L40.5364 42.4209L44.9053 45.0654Z" fill="white"/>
</g>
<g id="g1395">
<path id="path1397" d="M44.9053 45.0654L31.5683 65.7607L26.5094 63.2313L40.5364 42.4209L44.9053 45.0654Z" stroke="#1A2E35" stroke-width="0.269516" stroke-miterlimit="10" stroke-linecap="round" stroke-linejoin="round"/>
</g>
<g id="g1399">
<path id="path1401" d="M0.711914 16.0003V60.0368L22.4107 73.4854L42.6054 42.5363L0.711914 16.0003Z" fill="#599BFE"/>
</g>
<g id="g1403">
<path id="path1405" d="M0.711914 16.0003V60.0368L22.4107 73.4854L42.6054 42.5363L0.711914 16.0003Z" stroke="#1A2E35" stroke-width="0.269516" stroke-miterlimit="10" stroke-linecap="round" stroke-linejoin="round"/>
</g>
</g>
<g id="g26504">
<g id="Clip path group">
<g id="g26506">
<g id="g26512">
<path id="path26514" d="M42.4849 16.9484C42.4849 13.8073 39.9387 11.2612 36.7976 11.2612C33.6567 11.2612 31.1103 13.8073 31.1103 16.9484C31.1103 20.0896 33.6567 22.6357 36.7976 22.6357C39.9387 22.6357 42.4849 20.0896 42.4849 16.9484Z" fill="#D9D9D9"/>
</g>
<g id="g26516">
<path id="path26518" d="M42.4849 16.9484C42.4849 13.8073 39.9387 11.2612 36.7976 11.2612C33.6567 11.2612 31.1103 13.8073 31.1103 16.9484C31.1103 20.0896 33.6567 22.6357 36.7976 22.6357C39.9387 22.6357 42.4849 20.0896 42.4849 16.9484Z" stroke="#D9D9D9" stroke-width="0.256001" stroke-miterlimit="10" stroke-linecap="round" stroke-linejoin="round"/>
</g>
<g id="g26520">
<path id="path26522" d="M37.2037 19.335C36.8315 19.3306 36.4836 19.168 36.2442 18.889L33.7474 15.9762C33.2889 15.4409 33.3511 14.633 33.8859 14.175C34.1171 13.9766 34.4123 13.8676 34.7166 13.8676C35.0904 13.8676 35.4439 14.0299 35.6869 14.3133L37.2362 16.1209L42.367 10.4072C42.6092 10.1379 42.9555 9.98354 43.3178 9.98354C43.6332 9.98354 43.936 10.0995 44.1708 10.3102C44.6951 10.781 44.7386 11.5902 44.2678 12.1142L38.1645 18.911C37.9226 19.1803 37.5762 19.335 37.2139 19.335H37.2037Z" fill="white"/>
</g>
<g id="g26524">
<path id="path26526" d="M43.3172 9.6003C42.8462 9.6003 42.3953 9.80126 42.0807 10.1512L37.2426 15.5395L35.9779 14.0642C35.6617 13.6955 35.2017 13.4843 34.7161 13.4843C34.32 13.4843 33.9363 13.6264 33.6355 13.884C32.9399 14.4802 32.8588 15.5311 33.455 16.2266L35.9518 19.1399C36.2631 19.5026 36.716 19.7141 37.1939 19.7197H37.1985H37.2134C37.6842 19.7197 38.1347 19.5188 38.4493 19.1686L44.5529 12.3715C45.165 11.69 45.1084 10.6376 44.4267 10.0255C44.1213 9.75134 43.7273 9.6003 43.3172 9.6003ZM43.3172 10.3683C43.5297 10.3683 43.7429 10.4438 43.9137 10.5969C44.2808 10.9266 44.311 11.4916 43.9815 11.8585L37.8779 18.6553C37.7085 18.844 37.4668 18.9517 37.2134 18.9517H37.2031C36.9458 18.9489 36.7024 18.835 36.535 18.6399L34.0382 15.7272C33.7172 15.3524 33.7604 14.7884 34.135 14.4674C34.3037 14.3227 34.5103 14.2523 34.7161 14.2523C34.968 14.2523 35.2181 14.3581 35.3947 14.5641L37.229 16.704L42.6521 10.6645C42.8285 10.4684 43.0722 10.3683 43.3172 10.3683Z" fill="#D9D9D9"/>
</g>
</g>
</g>
</g>
<g id="g26504_2">
<g id="Clip path group_2">
<g id="g26506_2">
<g id="g26512_2">
<path id="path26514_2" d="M104.566 12.3094C104.566 7.04781 100.301 2.78281 95.0395 2.78281C89.7783 2.78281 85.5129 7.04781 85.5129 12.3094C85.5129 17.5709 89.7783 21.8359 95.0395 21.8359C100.301 21.8359 104.566 17.5709 104.566 12.3094Z" fill="#D9D9D9"/>
</g>
<g id="g26516_2">
<path id="path26518_2" d="M104.566 12.3094C104.566 7.04781 100.301 2.78281 95.0395 2.78281C89.7783 2.78281 85.5129 7.04781 85.5129 12.3094C85.5129 17.5709 89.7783 21.8359 95.0395 21.8359C100.301 21.8359 104.566 17.5709 104.566 12.3094Z" stroke="#D9D9D9" stroke-width="0.428816" stroke-miterlimit="10" stroke-linecap="round" stroke-linejoin="round"/>
</g>
<g id="g26520_2">
<path id="path26522_2" d="M95.7189 16.3076C95.0954 16.3003 94.5126 16.028 94.1117 15.5606L89.9294 10.6816C89.1614 9.7849 89.2656 8.43156 90.1614 7.66441C90.5486 7.33208 91.0431 7.1494 91.5529 7.1494C92.179 7.1494 92.7712 7.42127 93.1781 7.89597L95.7733 10.9238L104.368 1.3531C104.773 0.90199 105.354 0.643414 105.96 0.643414C106.489 0.643414 106.996 0.837668 107.389 1.19058C108.267 1.97918 108.34 3.33466 107.552 4.21245L97.3282 15.5975C96.923 16.0486 96.3428 16.3076 95.736 16.3076H95.7189Z" fill="white"/>
</g>
<g id="g26524_2">
<path id="path26526_2" d="M105.959 0.000522614C105.17 0.000522614 104.415 0.337143 103.888 0.923334L95.7839 9.94904L93.6655 7.47778C93.1359 6.86028 92.3653 6.50651 91.5519 6.50651C90.8885 6.50651 90.2457 6.7445 89.7418 7.17589C88.5767 8.1746 88.4408 9.93489 89.4395 11.1L93.6218 15.9799C94.1432 16.5875 94.9018 16.9417 95.7024 16.9512H95.7101H95.735C96.5236 16.9512 97.2783 16.6146 97.8053 16.0279L108.029 4.64245C109.054 3.50094 108.96 1.73808 107.818 0.712786C107.306 0.253523 106.646 0.000522614 105.959 0.000522614ZM105.959 1.28697C106.315 1.28697 106.672 1.41347 106.958 1.6699C107.573 2.22222 107.624 3.16861 107.072 3.7831L96.8482 15.1682C96.5643 15.4842 96.1595 15.6647 95.735 15.6647H95.7178C95.2869 15.66 94.8791 15.4692 94.5986 15.1424L90.4164 10.2634C89.8786 9.63558 89.9511 8.6909 90.5785 8.15316C90.861 7.91088 91.2071 7.79296 91.5519 7.79296C91.9738 7.79296 92.3928 7.97006 92.6887 8.31526L95.7611 11.8997L104.845 1.78311C105.141 1.45464 105.549 1.28697 105.959 1.28697Z" fill="#D9D9D9"/>
</g>
</g>
</g>
</g>
<g id="Clip path group_3">
<g id="g26506_3">
<g id="g26512_3">
<path id="path26514_3" d="M71.6937 27.9451C71.6937 25.5751 69.7726 23.6539 67.4025 23.6539C65.0327 23.6539 63.1113 25.5751 63.1113 27.9451C63.1113 30.3152 65.0327 32.2363 67.4025 32.2363C69.7726 32.2363 71.6937 30.3152 71.6937 27.9451Z" fill="#D9D9D9"/>
</g>
<g id="g26516_3">
<path id="path26518_3" d="M71.6937 27.9451C71.6937 25.5751 69.7726 23.6539 67.4025 23.6539C65.0327 23.6539 63.1113 25.5751 63.1113 27.9451C63.1113 30.3152 65.0327 32.2363 67.4025 32.2363C69.7726 32.2363 71.6937 30.3152 71.6937 27.9451Z" stroke="#D9D9D9" stroke-width="0.193159" stroke-miterlimit="10" stroke-linecap="round" stroke-linejoin="round"/>
</g>
<g id="g26520_3">
<path id="path26522_3" d="M67.7086 29.7461C67.4277 29.7428 67.1652 29.6202 66.9846 29.4096L65.1007 27.2119C64.7548 26.808 64.8017 26.1984 65.2052 25.8528C65.3796 25.7031 65.6023 25.6208 65.832 25.6208C66.114 25.6208 66.3808 25.7433 66.5641 25.9571L67.7331 27.321L71.6044 23.0099C71.7871 22.8067 72.0485 22.6902 72.3218 22.6902C72.5597 22.6902 72.7883 22.7777 72.9654 22.9367C73.361 23.2919 73.3938 23.9025 73.0386 24.2979L68.4335 29.4262C68.2509 29.6294 67.9896 29.7461 67.7163 29.7461H67.7086Z" fill="white"/>
</g>
<g id="g26524_3">
<path id="path26526_3" d="M72.322 22.4008C71.9666 22.4008 71.6264 22.5524 71.389 22.8165L67.7385 26.8821L66.7843 25.7689C66.5457 25.4907 66.1986 25.3314 65.8322 25.3314C65.5334 25.3314 65.2439 25.4386 65.0169 25.6329C64.4921 26.0828 64.4309 26.8757 64.8807 27.4005L66.7646 29.5986C66.9995 29.8723 67.3412 30.0319 67.7018 30.0361H67.7053H67.7165C68.0717 30.0361 68.4117 29.8845 68.6491 29.6203L73.2544 24.4917C73.7162 23.9775 73.6735 23.1835 73.1591 22.7216C72.9287 22.5147 72.6314 22.4008 72.322 22.4008ZM72.322 22.9803C72.4823 22.9803 72.6432 23.0372 72.772 23.1527C73.049 23.4015 73.0718 23.8278 72.8232 24.1046L68.2179 29.233C68.0901 29.3753 67.9077 29.4567 67.7165 29.4567H67.7088C67.5146 29.4545 67.3309 29.3686 67.2046 29.2214L65.3207 27.0236C65.0785 26.7409 65.1112 26.3153 65.3937 26.0731C65.521 25.964 65.6769 25.9109 65.8322 25.9109C66.0223 25.9109 66.211 25.9906 66.3443 26.1461L67.7283 27.7607L71.8202 23.2037C71.9532 23.0558 72.1371 22.9803 72.322 22.9803Z" fill="#D9D9D9"/>
</g>
</g>
</g>
</g>
</g>
</svg>
