<svg width="630" height="400" viewBox="0 0 630 400" fill="none" xmlns="http://www.w3.org/2000/svg">
<mask id="mask0_640_120429" style="mask-type:luminance" maskUnits="userSpaceOnUse" x="13" y="0" width="604" height="400">
<path d="M13.9438 -9.15527e-05H616.056V400H13.9438V-9.15527e-05Z" fill="white"/>
</mask>
<g mask="url(#mask0_640_120429)">
<path d="M553.638 188.025C537.151 159.089 516.819 132.519 493.324 109.077C467.972 83.7829 442.128 66.6829 408.786 55.6165C386.213 48.1237 362.668 43.8365 339.016 43.0398C295.034 41.5582 258.755 51.9933 222.625 78.3237C183.889 106.551 147.752 138.496 110.005 168.14C106.065 171.234 102.109 174.306 98.1328 177.348C32.2987 227.707 0.321659 317.16 44.8386 339.026H557.092C557.092 339.026 603.687 336.572 592.204 286.679C584.165 251.756 571.044 218.572 553.638 188.025Z" fill="#599BFE"/>
<mask id="mask1_640_120429" style="mask-type:luminance" maskUnits="userSpaceOnUse" x="24" y="42" width="571" height="298">
<path d="M24.2043 42.9019H594.025V339.026H24.2043V42.9019Z" fill="white"/>
</mask>
<g mask="url(#mask1_640_120429)">
<g opacity="0.699997">
<path d="M553.638 188.026C537.151 159.09 516.819 132.519 493.324 109.078C467.972 83.7834 442.128 66.6834 408.786 55.617C386.213 48.1242 362.668 43.837 339.016 43.0403C295.034 41.5587 258.755 51.9938 222.625 78.3242C183.889 106.551 147.752 138.496 110.005 168.14C106.065 171.235 102.109 174.307 98.1328 177.348C32.2987 227.707 0.321659 317.16 44.8386 339.026H557.092C557.092 339.026 603.687 336.573 592.204 286.679C584.165 251.756 571.044 218.572 553.638 188.026Z" fill="white"/>
</g>
</g>
</g>
<mask id="mask2_640_120429" style="mask-type:luminance" maskUnits="userSpaceOnUse" x="13" y="0" width="604" height="400">
<path d="M13.9438 -9.15527e-05H616.056V400H13.9438V-9.15527e-05Z" fill="white"/>
</mask>
<g mask="url(#mask2_640_120429)">
<path d="M50.7129 283.259C52.4631 284.022 56.7445 283.926 56.7485 283.926C56.7927 283.924 55.8277 281.133 55.7466 280.963C54.8073 279.005 51.8369 275.771 49.4196 276.097C47.6783 276.331 46.7093 278.068 47.1027 279.703C47.5041 281.371 49.2221 282.61 50.7129 283.259Z" fill="#1A2E35"/>
<path d="M52.1908 295.618C54.0068 295.882 57.8274 294.778 58.1316 294.689C58.7346 296.82 59.5277 298.959 60.4494 301.078C60.9744 302.291 61.542 303.497 62.1257 304.698C61.7772 304.189 61.4617 303.736 61.4111 303.678C59.9853 302.036 56.2635 299.7 54.0188 300.65C52.4011 301.334 51.9275 303.264 52.7399 304.736C53.5684 306.239 55.5546 306.983 57.1642 307.217C58.798 307.454 62.0743 306.578 62.9389 306.335C63.1677 306.794 63.3909 307.254 63.6221 307.711C64.7284 309.906 65.8419 312.093 66.8687 314.27C67.23 315.037 67.5583 315.806 67.8899 316.574C67.58 316.122 67.3151 315.745 67.2685 315.691C65.8435 314.05 62.1216 311.713 59.8762 312.663C58.2585 313.347 57.7848 315.277 58.5965 316.75C59.4274 318.254 61.4119 318.998 63.0224 319.231C64.5807 319.458 67.6121 318.675 68.6405 318.391C68.956 319.188 69.2739 319.986 69.5429 320.771C69.7155 321.313 69.9186 321.822 70.0607 322.374C70.2132 322.919 70.3642 323.458 70.5135 323.992C70.7632 325.03 71.0281 326.101 71.2464 327.119C71.4038 327.827 71.5403 328.504 71.68 329.186C71.3283 328.418 70.6082 326.93 70.5344 326.812C69.3759 324.974 66.0514 322.103 63.6879 322.702C61.9844 323.135 61.2233 324.971 61.8021 326.55C62.393 328.161 64.2427 329.196 65.7985 329.67C67.5117 330.192 71.3043 329.714 71.7771 329.652C72.0051 330.782 72.2154 331.882 72.3969 332.923C72.8031 335.222 73.1106 337.282 73.3434 339.026H74.9426C74.664 337.222 74.2996 335.072 73.8171 332.659C73.5915 331.511 73.3265 330.29 73.0432 329.038C73.3282 328.925 74.9458 328.273 76.3789 327.474C77.6272 328.822 80.8265 330.399 81.2407 330.599C80.8056 331.666 80.3713 332.7 79.9458 333.668C79.0611 335.697 78.2213 337.496 77.4795 339.026H79.2088C79.8462 337.615 80.5471 336.009 81.2776 334.229C81.724 333.147 82.18 331.982 82.6368 330.782C83.0952 330.878 86.8492 331.638 88.5993 331.244C90.1857 330.887 92.1084 329.993 92.8181 328.43C93.5142 326.899 92.8912 325.011 91.2253 324.454C88.9132 323.679 85.384 326.297 84.0907 328.042C84.0144 328.146 83.312 329.356 82.8817 330.126C83.0655 329.635 83.2494 329.16 83.4324 328.652C83.8017 327.65 84.1405 326.638 84.5082 325.552C84.6679 325.022 84.8285 324.485 84.9915 323.943C85.1641 323.41 85.2781 322.824 85.4258 322.26C85.7405 320.944 85.9942 319.596 86.2206 318.232C87.1021 318.551 90.2491 319.642 91.8796 319.528C93.5021 319.414 95.5381 318.82 96.4774 317.382C97.3982 315.974 97.069 314.014 95.5084 313.211C93.34 312.098 89.4535 314.152 87.9097 315.683C87.8134 315.778 86.8291 317.002 86.3017 317.683C86.4309 316.862 86.5642 316.043 86.6677 315.208C86.9688 312.798 87.1968 310.35 87.436 307.907C87.5091 307.159 87.5902 306.414 87.6689 305.669C87.982 305.786 91.6942 307.164 93.5198 307.036C95.1431 306.923 97.179 306.329 98.1183 304.89C99.0383 303.482 98.71 301.523 97.1485 300.721C94.9801 299.606 91.0937 301.66 89.5507 303.191C89.4343 303.306 88.0205 305.068 87.6833 305.534C87.8575 303.891 88.0462 302.257 88.2983 300.653C88.6419 298.439 89.1035 296.286 89.704 294.234C89.8493 294.289 93.7173 295.743 95.5878 295.613C97.2111 295.499 99.2463 294.904 100.186 293.467C101.106 292.059 100.778 290.1 99.2158 289.297C97.0482 288.182 93.1617 290.236 91.6171 291.768C91.4967 291.888 89.977 293.783 89.7265 294.147C89.7626 294.026 89.7867 293.895 89.8236 293.773C90.4932 291.59 91.4172 289.558 92.3758 287.699C92.9305 286.618 93.5214 285.614 94.1187 284.651C94.8107 284.996 97.9939 286.535 99.6894 286.603C101.315 286.668 103.404 286.301 104.497 284.974C105.566 283.675 105.456 281.692 103.992 280.723C101.96 279.378 97.8711 280.994 96.1675 282.347C96.0751 282.421 95.2169 283.273 94.6004 283.902C94.8757 283.471 95.1527 283.022 95.4257 282.614C96.4461 281.083 97.4753 279.744 98.3961 278.565C98.9251 277.899 99.4165 277.306 99.8829 276.758C100.74 276.742 104.191 276.638 105.7 275.933C107.172 275.243 108.856 273.958 109.212 272.279C109.561 270.635 108.546 268.925 106.799 268.738C104.374 268.477 101.492 271.79 100.605 273.772C100.529 273.943 99.6405 276.761 99.6854 276.761C99.6854 276.761 99.7272 276.76 99.7376 276.76C99.2776 277.279 98.7919 277.841 98.2733 278.466C97.3243 279.627 96.263 280.948 95.2057 282.463C94.1444 283.974 93.0349 285.646 92.0249 287.512C91.0102 289.382 90.0396 291.4 89.3074 293.607C89.2994 293.633 89.2946 293.66 89.2857 293.685C89.2986 292.972 89.2673 290.98 89.2472 290.828C88.967 288.675 87.1567 284.68 84.7579 284.238C83.0294 283.92 81.5658 285.269 81.4286 286.943C81.2881 288.654 82.5316 290.366 83.7455 291.446C85.1143 292.664 88.9124 293.843 89.2151 293.936C88.5375 296.045 88.0157 298.265 87.6103 300.539C87.3774 301.839 87.1832 303.157 87.0057 304.479C86.9961 303.864 86.9841 303.313 86.9736 303.236C86.6934 301.083 84.8831 297.089 82.4843 296.646C80.7566 296.328 79.2931 297.678 79.155 299.352C79.0145 301.062 80.2589 302.774 81.4719 303.854C82.7034 304.95 85.9211 306.02 86.7769 306.292C86.7135 306.801 86.6453 307.307 86.5851 307.815C86.292 310.255 86.011 312.69 85.661 315.07C85.539 315.91 85.3873 316.732 85.2379 317.554C85.2291 317.006 85.2179 316.546 85.2082 316.476C84.928 314.324 83.1177 310.329 80.7197 309.886C78.9912 309.568 77.5277 310.918 77.3896 312.593C77.2491 314.302 78.4943 316.014 79.7073 317.094C80.8819 318.139 83.8434 319.154 84.8582 319.482C84.6808 320.321 84.5042 321.16 84.293 321.964C84.1365 322.51 84.0249 323.046 83.837 323.586C83.6636 324.123 83.491 324.656 83.32 325.183C82.9531 326.187 82.5814 327.225 82.1993 328.195C81.9392 328.871 81.6774 329.511 81.4173 330.158C81.549 329.323 81.773 327.686 81.7762 327.547C81.8091 326.106 81.2953 323.762 80.2725 322.114C80.2789 321.901 80.2669 321.689 80.2332 321.478C79.9658 319.819 78.4011 318.586 76.7032 319.037C74.3461 319.663 72.8513 323.786 72.7397 325.953C72.7325 326.081 72.8168 327.476 72.8842 328.356C72.7654 327.845 72.657 327.347 72.5285 326.823C72.2805 325.784 72.0035 324.755 71.7089 323.646C71.5483 323.115 71.3853 322.58 71.2216 322.038C71.0698 321.499 70.841 320.947 70.6516 320.396C70.1859 319.126 69.6513 317.861 69.0837 316.599C69.9973 316.381 73.2254 315.561 74.5219 314.569C75.8129 313.582 77.1817 311.968 77.1696 310.252C77.1576 308.571 75.7992 307.118 74.0515 307.306C71.6262 307.569 69.522 311.419 69.0821 313.545C69.0548 313.678 68.9111 315.238 68.8484 316.097C68.5016 315.341 68.1596 314.585 67.7839 313.831C66.7001 311.656 65.536 309.488 64.3832 307.32C64.0291 306.656 63.6855 305.99 63.3379 305.326C63.6638 305.251 67.523 304.358 68.9753 303.248C70.2654 302.262 71.6342 300.647 71.6222 298.931C71.6101 297.251 70.2518 295.797 68.5048 295.986C66.0795 296.249 63.9753 300.098 63.5346 302.224C63.5017 302.384 63.2978 304.63 63.2745 305.203C62.511 303.738 61.7636 302.271 61.0852 300.795C60.1475 298.76 59.3391 296.711 58.704 294.669C58.8566 294.634 62.8875 293.721 64.3751 292.584C65.6661 291.598 67.0349 289.982 67.0228 288.266C67.0108 286.586 65.6524 285.133 63.9047 285.322C61.4794 285.584 59.3752 289.434 58.9353 291.559C58.9007 291.726 58.6832 294.142 58.6751 294.583C58.6374 294.462 58.5852 294.34 58.5491 294.218C57.8988 292.03 57.5448 289.827 57.3152 287.749C57.1787 286.542 57.1169 285.381 57.0816 284.25C57.8499 284.156 61.3566 283.691 62.8088 282.814C64.2009 281.974 65.7391 280.52 65.9165 278.814C66.0892 277.142 64.8994 275.548 63.1428 275.545C60.7031 275.54 58.187 279.136 57.5151 281.202C57.4781 281.314 57.2341 282.496 57.0679 283.359C57.0599 282.849 57.0422 282.322 57.0446 281.832C57.0478 279.994 57.1642 278.31 57.2799 276.822C57.3521 275.974 57.4348 275.21 57.5199 274.497C58.2256 274.013 61.0467 272.029 61.9145 270.61C62.7615 269.226 63.4535 267.229 62.8217 265.632C62.2019 264.069 60.4092 263.202 58.8478 264.005C56.681 265.122 56.111 269.468 56.4698 271.609C56.5011 271.794 57.3192 274.632 57.3561 274.607C57.3561 274.607 57.3906 274.584 57.3987 274.578C57.3031 275.264 57.2092 276 57.1233 276.806C56.974 278.297 56.8206 279.981 56.7773 281.826C56.7291 283.67 56.7283 285.675 56.9194 287.786C57.108 289.902 57.4147 292.12 58.0281 294.364C58.0345 294.39 58.0449 294.415 58.0522 294.44C57.6684 293.839 56.5389 292.196 56.4377 292.079C55.0127 290.437 51.2908 288.101 49.0454 289.05C47.4277 289.735 46.954 291.666 47.7665 293.137C48.5958 294.641 50.582 295.385 52.1908 295.618Z" fill="#1A2E35"/>
<path d="M94.0199 284.199C94.0576 284.222 94.7986 281.363 94.8243 281.177C95.1246 279.028 94.4374 274.697 92.2401 273.641C90.6585 272.879 88.8891 273.795 88.3135 275.374C87.7242 276.986 88.4708 278.965 89.3547 280.325C90.392 281.923 94.0167 284.197 94.0199 284.199Z" fill="#1A2E35"/>
<path d="M549.673 283.259C551.424 284.022 555.705 283.926 555.708 283.926C555.752 283.924 554.788 281.133 554.707 280.963C553.768 279.005 550.797 275.771 548.379 276.097C546.639 276.331 545.67 278.068 546.062 279.703C546.465 281.371 548.183 282.61 549.673 283.259Z" fill="#1A2E35"/>
<path d="M551.15 295.618C552.966 295.882 556.787 294.778 557.09 294.689C557.694 296.82 558.487 298.959 559.408 301.078C559.934 302.291 560.501 303.497 561.085 304.698C560.737 304.189 560.421 303.736 560.37 303.678C558.945 302.036 555.223 299.7 552.978 300.65C551.361 301.334 550.887 303.264 551.699 304.736C552.528 306.239 554.514 306.983 556.124 307.217C557.757 307.454 561.035 306.578 561.898 306.335C562.127 306.794 562.35 307.254 562.581 307.711C563.687 309.906 564.801 312.093 565.827 314.27C566.189 315.037 566.519 315.806 566.85 316.574C566.539 316.122 566.275 315.745 566.228 315.691C564.803 314.05 561.081 311.713 558.836 312.663C557.219 313.347 556.744 315.277 557.556 316.75C558.387 318.254 560.371 318.998 561.981 319.231C563.541 319.458 566.572 318.675 567.6 318.391C567.915 319.188 568.233 319.986 568.502 320.771C568.674 321.313 568.878 321.822 569.02 322.374C569.173 322.919 569.324 323.458 569.472 323.992C569.723 325.03 569.988 326.101 570.205 327.119C570.363 327.827 570.5 328.504 570.639 329.186C570.288 328.418 569.568 326.93 569.494 326.812C568.335 324.974 565.011 322.103 562.647 322.702C560.944 323.135 560.183 324.971 560.762 326.55C561.353 328.161 563.202 329.196 564.758 329.67C566.471 330.192 570.264 329.714 570.737 329.652C570.965 330.782 571.174 331.882 571.356 332.923C571.763 335.222 572.07 337.282 572.303 339.026H573.902C573.623 337.222 573.259 335.072 572.777 332.659C572.55 331.511 572.286 330.29 572.003 329.038C572.288 328.925 573.905 328.273 575.338 327.474C576.587 328.822 579.786 330.399 580.2 330.599C579.765 331.666 579.331 332.7 578.905 333.668C578.021 335.697 577.181 337.496 576.439 339.026H578.167C578.805 337.615 579.506 336.009 580.236 334.229C580.683 333.147 581.139 331.982 581.596 330.782C582.055 330.878 585.809 331.638 587.559 331.244C589.145 330.887 591.068 329.993 591.778 328.43C592.474 326.899 591.851 325.011 590.185 324.454C587.873 323.679 584.344 326.297 583.05 328.042C582.974 328.146 582.271 329.356 581.841 330.126C582.025 329.635 582.209 329.16 582.392 328.652C582.761 327.65 583.1 326.638 583.468 325.552C583.627 325.022 583.788 324.485 583.95 323.943C584.124 323.41 584.238 322.824 584.385 322.26C584.7 320.944 584.954 319.596 585.18 318.232C586.062 318.551 589.209 319.642 590.839 319.528C592.462 319.414 594.498 318.82 595.437 317.382C596.358 315.974 596.029 314.014 594.467 313.211C592.299 312.098 588.412 314.152 586.868 315.683C586.772 315.778 585.789 317.002 585.261 317.683C585.39 316.862 585.524 316.043 585.627 315.208C585.927 312.798 586.156 310.35 586.396 307.907C586.468 307.159 586.55 306.414 586.628 305.669C586.941 305.786 590.654 307.164 592.479 307.036C594.103 306.923 596.138 306.329 597.078 304.89C597.998 303.482 597.669 301.523 596.108 300.721C593.94 299.606 590.053 301.66 588.509 303.191C588.394 303.306 586.98 305.068 586.643 305.534C586.817 303.891 587.006 302.257 587.258 300.653C587.601 298.439 588.063 296.286 588.663 294.234C588.808 294.289 592.678 295.743 594.547 295.613C596.17 295.499 598.206 294.904 599.145 293.467C600.066 292.059 599.738 290.1 598.175 289.297C596.007 288.182 592.121 290.236 590.577 291.768C590.456 291.888 588.936 293.783 588.686 294.147C588.722 294.026 588.745 293.895 588.783 293.773C589.453 291.59 590.377 289.558 591.335 287.699C591.89 286.618 592.481 285.614 593.078 284.651C593.771 284.996 596.953 286.535 598.649 286.603C600.275 286.668 602.364 286.301 603.455 284.974C604.526 283.675 604.416 281.692 602.951 280.723C600.919 279.378 596.83 280.994 595.127 282.347C595.035 282.421 594.176 283.273 593.56 283.902C593.835 283.471 594.112 283.022 594.385 282.614C595.406 281.083 596.434 279.744 597.356 278.565C597.885 277.899 598.376 277.306 598.842 276.758C599.699 276.742 603.15 276.638 604.659 275.933C606.131 275.243 607.816 273.958 608.172 272.279C608.52 270.635 607.505 268.925 605.759 268.738C603.333 268.477 600.451 271.79 599.566 273.772C599.489 273.943 598.6 276.761 598.645 276.761C598.645 276.761 598.687 276.76 598.697 276.76C598.237 277.279 597.751 277.841 597.233 278.466C596.284 279.627 595.222 280.948 594.165 282.463C593.105 283.974 591.994 285.646 590.984 287.512C589.97 289.382 588.999 291.4 588.267 293.607C588.259 293.633 588.254 293.66 588.245 293.685C588.258 292.972 588.227 290.98 588.206 290.828C587.926 288.675 586.116 284.68 583.717 284.238C581.989 283.92 580.525 285.269 580.388 286.943C580.248 288.654 581.492 290.366 582.706 291.446C584.074 292.664 587.872 293.843 588.174 293.936C587.497 296.045 586.974 298.265 586.57 300.539C586.337 301.839 586.143 303.157 585.964 304.479C585.956 303.864 585.944 303.313 585.933 303.236C585.653 301.083 583.843 297.089 581.444 296.646C579.715 296.328 578.253 297.678 578.115 299.352C577.974 301.062 579.218 302.774 580.432 303.854C581.663 304.95 584.881 306.02 585.736 306.292C585.673 306.801 585.605 307.307 585.545 307.815C585.251 310.255 584.971 312.69 584.62 315.07C584.498 315.91 584.347 316.732 584.197 317.554C584.189 317.006 584.177 316.546 584.168 316.476C583.888 314.324 582.077 310.329 579.679 309.886C577.951 309.568 576.487 310.918 576.349 312.593C576.209 314.302 577.454 316.014 578.667 317.094C579.841 318.139 582.803 319.154 583.818 319.482C583.64 320.321 583.463 321.16 583.252 321.964C583.097 322.51 582.984 323.046 582.797 323.586C582.622 324.123 582.45 324.656 582.279 325.183C581.913 326.187 581.541 327.225 581.16 328.195C580.899 328.871 580.637 329.511 580.376 330.158C580.508 329.323 580.732 327.686 580.736 327.547C580.769 326.106 580.255 323.762 579.232 322.114C579.238 321.901 579.226 321.689 579.193 321.478C578.925 319.819 577.361 318.586 575.663 319.037C573.306 319.663 571.81 323.786 571.699 325.953C571.693 326.081 571.776 327.476 571.844 328.356C571.725 327.845 571.616 327.347 571.487 326.823C571.24 325.784 570.963 324.755 570.668 323.646C570.508 323.115 570.345 322.58 570.18 322.038C570.029 321.499 569.8 320.947 569.611 320.396C569.145 319.126 568.61 317.861 568.044 316.599C568.957 316.381 572.185 315.561 573.481 314.569C574.772 313.582 576.141 311.968 576.128 310.252C576.117 308.571 574.758 307.118 573.011 307.306C570.586 307.569 568.481 311.419 568.042 313.545C568.014 313.678 567.871 315.238 567.808 316.097C567.461 315.341 567.119 314.585 566.743 313.831C565.66 311.656 564.495 309.488 563.343 307.32C562.989 306.656 562.644 305.99 562.297 305.326C562.623 305.251 566.482 304.358 567.934 303.248C569.225 302.262 570.594 300.647 570.582 298.931C570.57 297.251 569.211 295.797 567.463 295.986C565.039 296.249 562.935 300.098 562.494 302.224C562.461 302.384 562.258 304.63 562.234 305.203C561.47 303.738 560.723 302.271 560.045 300.795C559.106 298.76 558.299 296.711 557.664 294.669C557.816 294.634 561.847 293.721 563.335 292.584C564.626 291.598 565.994 289.982 565.982 288.266C565.97 286.586 564.612 285.133 562.864 285.322C560.439 285.584 558.335 289.434 557.895 291.559C557.86 291.726 557.643 294.142 557.635 294.583C557.597 294.462 557.545 294.34 557.509 294.218C556.858 292.03 556.504 289.827 556.275 287.749C556.139 286.542 556.076 285.381 556.041 284.25C556.809 284.156 560.317 283.691 561.769 282.814C563.16 281.974 564.699 280.52 564.876 278.814C565.049 277.142 563.859 275.548 562.102 275.545C559.663 275.54 557.147 279.136 556.475 281.202C556.438 281.314 556.193 282.496 556.027 283.359C556.019 282.849 556.002 282.322 556.004 281.832C556.007 279.994 556.124 278.31 556.239 276.822C556.312 275.974 556.394 275.21 556.479 274.497C557.185 274.013 560.005 272.029 560.873 270.61C561.72 269.226 562.413 267.229 561.78 265.632C561.162 264.069 559.368 263.202 557.807 264.005C555.64 265.122 555.07 269.468 555.428 271.609C555.46 271.794 556.279 274.632 556.316 274.607C556.316 274.607 556.35 274.584 556.357 274.578C556.263 275.264 556.169 276 556.083 276.806C555.933 278.297 555.78 279.981 555.737 281.826C555.688 283.67 555.688 285.675 555.879 287.786C556.068 289.902 556.374 292.12 556.988 294.364C556.994 294.39 557.004 294.415 557.012 294.44C556.628 293.839 555.498 292.196 555.397 292.079C553.972 290.437 550.25 288.101 548.005 289.05C546.387 289.735 545.913 291.666 546.726 293.137C547.555 294.641 549.541 295.385 551.15 295.618Z" fill="#1A2E35"/>
<path d="M592.979 284.199C593.017 284.222 593.758 281.363 593.784 281.177C594.085 279.028 593.397 274.697 591.2 273.641C589.618 272.879 587.848 273.795 587.273 275.374C586.683 276.986 587.43 278.965 588.314 280.325C589.352 281.923 592.977 284.197 592.979 284.199Z" fill="#1A2E35"/>
</g>
<path d="M44.5083 339.027H608.704" stroke="#1A2E35" stroke-width="0.802816" stroke-miterlimit="10" stroke-linecap="round" stroke-linejoin="round"/>
<mask id="mask3_640_120429" style="mask-type:luminance" maskUnits="userSpaceOnUse" x="13" y="0" width="604" height="400">
<path d="M13.9438 -9.15527e-05H616.056V400H13.9438V-9.15527e-05Z" fill="white"/>
</mask>
<g mask="url(#mask3_640_120429)">
<path d="M471.073 102.363C470.732 102.541 461.43 113.378 459.786 133.308C459.284 133.546 474.698 126.332 471.073 102.363Z" stroke="#1A2E35" stroke-width="0.802816" stroke-miterlimit="10" stroke-linecap="round" stroke-linejoin="round"/>
<path d="M452.151 89.6567C452.27 90.2503 450.614 105.849 459.045 122.366C459.11 123.065 466.501 104.865 452.151 89.6567Z" stroke="#1A2E35" stroke-width="0.802816" stroke-miterlimit="10" stroke-linecap="round" stroke-linejoin="round"/>
<path d="M443.582 109.421C443.876 109.716 445.849 124.171 458.801 134.193C459.226 134.547 459.497 114.773 443.582 109.421Z" stroke="#1A2E35" stroke-width="0.802816" stroke-miterlimit="10" stroke-linecap="round" stroke-linejoin="round"/>
<path d="M475.08 123.132C474.712 123.262 463.636 132.171 458.572 151.683C458.049 151.858 474.446 147.203 475.08 123.132Z" stroke="#1A2E35" stroke-width="0.802816" stroke-miterlimit="10" stroke-linecap="round" stroke-linejoin="round"/>
<path d="M443.465 125.931C443.716 126.183 443.845 140.401 455.667 151.422C456.05 151.745 458.544 132.584 443.465 125.931Z" stroke="#1A2E35" stroke-width="0.802816" stroke-miterlimit="10" stroke-linecap="round" stroke-linejoin="round"/>
<path d="M473.721 146.552C473.333 146.621 460.758 153.095 452.076 171.34C451.538 171.436 468.499 169.855 473.721 146.552Z" stroke="#1A2E35" stroke-width="0.802816" stroke-miterlimit="10" stroke-linecap="round" stroke-linejoin="round"/>
<path d="M442.162 143.229C442.355 143.507 439.769 157.439 449.275 170.535C449.593 170.907 455.681 152.568 442.162 143.229Z" stroke="#1A2E35" stroke-width="0.802816" stroke-miterlimit="10" stroke-linecap="round" stroke-linejoin="round"/>
<path d="M467.923 169.163C467.517 169.165 453.988 173.092 441.911 189.525C441.361 189.535 458.376 191.061 467.923 169.163Z" stroke="#1A2E35" stroke-width="0.802816" stroke-miterlimit="10" stroke-linecap="round" stroke-linejoin="round"/>
<path d="M437.579 159.924C437.718 160.223 432.519 173.473 439.311 188.207C439.567 188.622 449.081 171.647 437.579 159.924Z" stroke="#1A2E35" stroke-width="0.802816" stroke-miterlimit="10" stroke-linecap="round" stroke-linejoin="round"/>
<path d="M457.914 190.327C457.493 190.256 443.522 191.584 428.279 205.652C427.72 205.57 444.308 210.176 457.914 190.327Z" stroke="#1A2E35" stroke-width="0.802816" stroke-miterlimit="10" stroke-linecap="round" stroke-linejoin="round"/>
<path d="M429.87 175.536C429.957 175.851 422.255 188.013 425.973 203.868C426.168 204.321 438.934 189.263 429.87 175.536Z" stroke="#1A2E35" stroke-width="0.802816" stroke-miterlimit="10" stroke-linecap="round" stroke-linejoin="round"/>
<path d="M443.925 209.396C443.494 209.244 429.566 207.986 411.387 219.124C410.823 218.944 426.532 226.544 443.925 209.396Z" stroke="#1A2E35" stroke-width="0.802816" stroke-miterlimit="10" stroke-linecap="round" stroke-linejoin="round"/>
<path d="M419.194 189.577C419.231 189.901 409.141 200.556 409.462 216.936C409.6 217.423 425.435 204.849 419.194 189.577Z" stroke="#1A2E35" stroke-width="0.802816" stroke-miterlimit="10" stroke-linecap="round" stroke-linejoin="round"/>
<path d="M426.201 225.707C425.76 225.469 412.335 221.693 391.454 229.335C390.887 229.049 405.294 239.493 426.201 225.707Z" stroke="#1A2E35" stroke-width="0.802816" stroke-miterlimit="10" stroke-linecap="round" stroke-linejoin="round"/>
<path d="M405.714 201.537C405.705 201.866 393.352 210.58 389.986 226.815C390.068 227.33 408.787 217.822 405.714 201.537Z" stroke="#1A2E35" stroke-width="0.802816" stroke-miterlimit="10" stroke-linecap="round" stroke-linejoin="round"/>
<path d="M176.316 102.363C176.657 102.541 185.959 113.378 187.602 133.308C188.104 133.546 172.691 126.332 176.316 102.363Z" stroke="#1A2E35" stroke-width="0.802816" stroke-miterlimit="10" stroke-linecap="round" stroke-linejoin="round"/>
<path d="M195.238 89.6567C195.118 90.2503 196.775 105.849 188.344 122.366C188.279 123.065 180.888 104.865 195.238 89.6567Z" stroke="#1A2E35" stroke-width="0.802816" stroke-miterlimit="10" stroke-linecap="round" stroke-linejoin="round"/>
<path d="M203.808 109.421C203.513 109.716 201.54 124.171 188.589 134.193C188.163 134.547 187.893 114.773 203.808 109.421Z" stroke="#1A2E35" stroke-width="0.802816" stroke-miterlimit="10" stroke-linecap="round" stroke-linejoin="round"/>
<path d="M172.31 123.132C172.678 123.262 183.753 132.171 188.817 151.683C189.34 151.858 172.944 147.203 172.31 123.132Z" stroke="#1A2E35" stroke-width="0.802816" stroke-miterlimit="10" stroke-linecap="round" stroke-linejoin="round"/>
<path d="M203.924 125.931C203.673 126.183 203.544 140.401 191.721 151.422C191.34 151.745 188.845 132.584 203.924 125.931Z" stroke="#1A2E35" stroke-width="0.802816" stroke-miterlimit="10" stroke-linecap="round" stroke-linejoin="round"/>
<path d="M173.668 146.552C174.057 146.621 186.63 153.095 195.313 171.34C195.851 171.436 178.89 169.855 173.668 146.552Z" stroke="#1A2E35" stroke-width="0.802816" stroke-miterlimit="10" stroke-linecap="round" stroke-linejoin="round"/>
<path d="M205.228 143.229C205.034 143.507 207.621 157.439 198.115 170.535C197.797 170.907 191.709 152.568 205.228 143.229Z" stroke="#1A2E35" stroke-width="0.802816" stroke-miterlimit="10" stroke-linecap="round" stroke-linejoin="round"/>
<path d="M179.466 169.163C179.873 169.165 193.402 173.092 205.478 189.525C206.028 189.535 189.013 191.061 179.466 169.163Z" stroke="#1A2E35" stroke-width="0.802816" stroke-miterlimit="10" stroke-linecap="round" stroke-linejoin="round"/>
<path d="M209.81 159.924C209.671 160.223 214.87 173.473 208.077 188.207C207.822 188.622 198.308 171.647 209.81 159.924Z" stroke="#1A2E35" stroke-width="0.802816" stroke-miterlimit="10" stroke-linecap="round" stroke-linejoin="round"/>
<path d="M189.476 190.327C189.896 190.256 203.867 191.584 219.111 205.652C219.67 205.57 203.081 210.176 189.476 190.327Z" stroke="#1A2E35" stroke-width="0.802816" stroke-miterlimit="10" stroke-linecap="round" stroke-linejoin="round"/>
<path d="M217.52 175.536C217.432 175.851 225.134 188.013 221.416 203.868C221.221 204.321 208.455 189.263 217.52 175.536Z" stroke="#1A2E35" stroke-width="0.802816" stroke-miterlimit="10" stroke-linecap="round" stroke-linejoin="round"/>
<path d="M203.463 209.396C203.895 209.244 217.823 207.986 236.002 219.124C236.566 218.944 220.856 226.544 203.463 209.396Z" stroke="#1A2E35" stroke-width="0.802816" stroke-miterlimit="10" stroke-linecap="round" stroke-linejoin="round"/>
<path d="M228.196 189.577C228.158 189.901 238.247 200.556 237.927 216.936C237.79 217.423 221.954 204.849 228.196 189.577Z" stroke="#1A2E35" stroke-width="0.802816" stroke-miterlimit="10" stroke-linecap="round" stroke-linejoin="round"/>
<path d="M221.189 225.707C221.629 225.469 235.055 221.693 255.937 229.335C256.503 229.049 242.095 239.493 221.189 225.707Z" stroke="#1A2E35" stroke-width="0.802816" stroke-miterlimit="10" stroke-linecap="round" stroke-linejoin="round"/>
<path d="M241.675 201.537C241.684 201.866 254.037 210.58 257.403 226.815C257.321 227.33 238.602 217.822 241.675 201.537Z" stroke="#1A2E35" stroke-width="0.802816" stroke-miterlimit="10" stroke-linecap="round" stroke-linejoin="round"/>
<path d="M396.727 139.776V70.1395L423.337 139.776H396.727ZM394.723 139.776H369.021L394.723 72.5171V139.776ZM325.72 48.1683C324.684 48.1683 323.845 47.3315 323.845 46.3003C323.845 45.2683 324.684 44.4315 325.72 44.4315C326.755 44.4315 327.595 45.2683 327.595 46.3003C327.595 47.3315 326.755 48.1683 325.72 48.1683ZM256.605 139.776V70.1395L283.215 139.776H256.605ZM254.601 139.776H228.899L254.601 72.5171V139.776ZM425.099 139.892L397.326 67.2138H406.349C408.667 67.2138 410.492 65.1106 410.007 62.7138C409.654 60.9723 408.035 59.7667 406.251 59.7667H384.972C384.347 59.7667 383.766 59.9347 383.248 60.2059L341.045 47.7203C340.263 45.9387 338.484 44.6907 336.408 44.6907L330.932 43.6379V41.7227C330.932 38.8123 328.566 36.4531 325.645 36.4531C322.725 36.4531 320.357 38.8123 320.357 41.7227V43.5227L314.282 44.6907C311.977 44.6907 310.054 46.2347 309.442 48.3347L269.317 60.2059C268.798 59.9347 268.218 59.7667 267.592 59.7667H246.314C244.53 59.7667 242.911 60.9723 242.557 62.7138C242.073 65.1106 243.898 67.2138 246.216 67.2138H254.601V68.0251L227.183 139.776H226.1C225.932 139.776 225.783 139.879 225.724 140.036C225.665 140.192 225.71 140.368 225.836 140.478L232.542 146.303C232.616 146.366 232.709 146.401 232.806 146.401C232.806 146.401 277.71 146.366 277.783 146.303C277.783 146.303 287.607 140.21 287.694 140.015C287.782 139.819 285.053 140.091 284.977 139.892L257.204 67.2138H267.592C268.991 67.2138 270.196 66.4387 270.836 65.3051L310.888 53.4563C311.788 54.2707 312.97 54.7803 314.282 54.7803L320.357 53.6507V57.5299H323.935V198.269H319.146V204.403H282.836V209.715H368.454V204.403H332.143V198.269H327.355V57.5299H330.932V53.6907L336.408 54.7803C337.936 54.7803 339.29 54.0915 340.218 53.0251L381.728 65.3051C382.369 66.4387 383.574 67.2138 384.972 67.2138H394.723V68.0251L367.305 139.776H366.222C366.055 139.776 365.905 139.879 365.846 140.036C365.787 140.192 365.832 140.368 365.958 140.478L372.664 146.303C372.738 146.366 372.831 146.401 372.928 146.401C372.928 146.401 417.832 146.366 417.905 146.303C417.905 146.303 427.728 140.21 427.816 140.015C427.904 139.819 425.176 140.091 425.099 139.892Z" stroke="#1A2E35" stroke-width="0.802816" stroke-miterlimit="10" stroke-linecap="round" stroke-linejoin="round"/>
</g>
<mask id="mask4_640_120429" style="mask-type:luminance" maskUnits="userSpaceOnUse" x="13" y="0" width="604" height="400">
<path d="M13.9438 -9.15527e-05H616.056V400H13.9438V-9.15527e-05Z" fill="white"/>
</mask>
<g mask="url(#mask4_640_120429)">
<path d="M268.913 232.944C268.913 232.944 267.212 252.149 267.212 253.296C267.21 254.444 244.895 307.484 243.163 312.329C241.432 317.175 237.967 326.674 239.115 330.838C240.261 335.002 246.59 338.972 250.234 340.174C253.878 341.376 261.17 341.294 262.514 341.053C263.857 340.811 270.958 340.928 270.958 340.928L277.883 324.414L271.745 321.394L280.984 294.85L277.179 262.872L268.913 232.944Z" fill="#1A2E35"/>
<path d="M268.913 232.944C268.913 232.944 267.212 252.149 267.212 253.296C267.21 254.444 244.895 307.484 243.163 312.329C241.432 317.175 237.967 326.674 239.115 330.838C240.261 335.002 246.59 338.972 250.234 340.174C253.878 341.376 261.17 341.294 262.514 341.053C263.857 340.811 270.958 340.928 270.958 340.928L277.883 324.414L271.745 321.394L280.984 294.85L277.179 262.872L268.913 232.944Z" stroke="#1A2E35" stroke-width="0.802816" stroke-miterlimit="10" stroke-linecap="round" stroke-linejoin="round"/>
<path d="M271.745 321.394C271.745 321.394 257.361 314.857 249.877 315.138" stroke="white" stroke-width="0.802816" stroke-miterlimit="10" stroke-linecap="round" stroke-linejoin="round"/>
<path d="M283.996 316.475L282.161 339.021H381.201C377.693 318.578 377.693 302.542 377.693 302.542C377.693 302.542 382.665 262.698 382.67 257.974C382.675 253.249 386.482 239.641 385.536 237.315C384.591 234.988 363.737 228.682 354.733 225.476C345.728 222.27 332.93 219.442 332.93 219.442L309.459 221.975C309.459 221.975 281.956 227.021 276.029 227.952C270.102 228.883 269.39 230.327 268.913 232.943C268.436 235.559 277.178 262.871 277.178 262.871L283.996 316.475Z" fill="#1A2E35"/>
<path d="M283.996 316.475L282.161 339.021H381.201C377.693 318.578 377.693 302.542 377.693 302.542C377.693 302.542 382.665 262.698 382.67 257.974C382.675 253.249 386.482 239.641 385.536 237.315C384.591 234.988 363.737 228.682 354.733 225.476C345.728 222.27 332.93 219.442 332.93 219.442L309.459 221.975C309.459 221.975 281.956 227.021 276.029 227.952C270.102 228.883 269.39 230.327 268.913 232.943C268.436 235.559 277.178 262.871 277.178 262.871L283.996 316.475Z" stroke="#1A2E35" stroke-width="0.802816" stroke-miterlimit="10" stroke-linecap="round" stroke-linejoin="round"/>
<path d="M306.395 236.219C306.395 236.219 308.228 248.658 310.616 258.868C313.005 269.079 319.634 284.282 319.634 284.282C319.634 284.282 335.719 258.296 338.131 246.25C340.544 234.203 341.285 230.498 341.285 230.498L306.586 230.142L306.395 236.219Z" fill="white"/>
<path d="M306.395 236.219C306.395 236.219 308.228 248.658 310.616 258.868C313.005 269.079 319.634 284.282 319.634 284.282C319.634 284.282 335.719 258.296 338.131 246.25C340.544 234.203 341.285 230.498 341.285 230.498L306.586 230.142L306.395 236.219Z" stroke="#1A2E35" stroke-width="0.802816" stroke-miterlimit="10" stroke-linecap="round" stroke-linejoin="round"/>
<path d="M310.11 214.008C310.11 214.008 306.779 222.225 305.115 225.415C303.45 228.604 293.837 242.207 294.391 243.291C294.943 244.373 299.743 242.905 301.036 242.305C302.329 241.705 308.238 239.46 308.238 239.46C308.238 239.46 306.943 242.268 307.495 243.167C308.048 244.066 316.899 252.195 316.899 252.195L323.913 252.3C323.913 252.3 325.022 250.971 326.315 249.819C327.608 248.667 336.289 243.191 338.505 241.637C340.722 240.083 340.911 236.029 340.911 236.029C340.911 236.029 352.348 242.223 352.904 239.994C353.46 237.766 350.51 235.118 347.564 227.503C344.619 219.888 343.517 214.963 341.121 211.374C338.725 207.785 337.803 207.636 337.803 207.636L310.11 214.008Z" fill="white"/>
<path d="M310.11 214.008C310.11 214.008 306.779 222.225 305.115 225.415C303.45 228.604 293.837 242.207 294.391 243.291C294.943 244.373 299.743 242.905 301.036 242.305C302.329 241.705 308.238 239.46 308.238 239.46C308.238 239.46 306.943 242.268 307.495 243.167C308.048 244.066 316.899 252.195 316.899 252.195L323.913 252.3C323.913 252.3 325.022 250.971 326.315 249.819C327.608 248.667 336.289 243.191 338.505 241.637C340.722 240.083 340.911 236.029 340.911 236.029C340.911 236.029 352.348 242.223 352.904 239.994C353.46 237.766 350.51 235.118 347.564 227.503C344.619 219.888 343.517 214.963 341.121 211.374C338.725 207.785 337.803 207.636 337.803 207.636L310.11 214.008Z" stroke="#1A2E35" stroke-width="0.802816" stroke-miterlimit="10" stroke-linecap="round" stroke-linejoin="round"/>
<path d="M312.505 218.7C312.505 218.7 313.222 238.906 313.403 242.393C313.584 245.882 320.766 261.616 322.06 259.544C323.354 257.472 331.676 241.893 334.266 236.094C336.857 230.295 337.792 218.673 338.163 216.267C338.535 213.862 338.915 202.996 338.915 202.996C338.915 202.996 329.302 217.518 325.424 219.687C321.545 221.856 312.505 218.7 312.505 218.7Z" fill="white"/>
<path d="M312.505 218.7C312.505 218.7 313.222 238.906 313.403 242.393C313.584 245.882 320.766 261.616 322.06 259.544C323.354 257.472 331.676 241.893 334.266 236.094C336.857 230.295 337.792 218.673 338.163 216.267C338.535 213.862 338.915 202.996 338.915 202.996C338.915 202.996 329.302 217.518 325.424 219.687C321.545 221.856 312.505 218.7 312.505 218.7Z" stroke="#1A2E35" stroke-width="0.802816" stroke-miterlimit="10" stroke-linecap="round" stroke-linejoin="round"/>
<path d="M324.572 224.097L312.98 231.205L312.504 218.699L324.572 224.097Z" fill="#1A2E35"/>
<path d="M324.572 224.097L312.98 231.205L312.504 218.699L324.572 224.097Z" stroke="#1A2E35" stroke-width="0.802816" stroke-miterlimit="10" stroke-linecap="round" stroke-linejoin="round"/>
<path d="M277.883 324.413C277.883 324.413 299.756 327.227 301.291 327.169C302.825 327.112 309.729 331.061 312.222 332.879C314.714 334.698 319.59 338.918 319.59 338.918L294.178 339.483C294.178 339.483 291.299 338.826 289.764 338.883C288.229 338.941 286.117 340.167 281.704 340.142C277.29 340.116 272.303 338.007 272.303 338.007L277.883 324.413Z" fill="white"/>
<path d="M277.883 324.413C277.883 324.413 299.756 327.227 301.291 327.169C302.825 327.112 309.729 331.061 312.222 332.879C314.714 334.698 319.59 338.918 319.59 338.918L294.178 339.483C294.178 339.483 291.299 338.826 289.764 338.883C288.229 338.941 286.117 340.167 281.704 340.142C277.29 340.116 272.303 338.007 272.303 338.007L277.883 324.413Z" stroke="#1A2E35" stroke-width="0.802816" stroke-miterlimit="10" stroke-linecap="round" stroke-linejoin="round"/>
<path d="M286.041 335.171C286.041 335.171 290.737 334.125 292.265 334.829C293.793 335.534 299.795 339.009 299.795 339.009" stroke="#1A2E35" stroke-width="0.802816" stroke-miterlimit="10" stroke-linecap="round" stroke-linejoin="round"/>
<path d="M289.866 331.764C289.866 331.764 297.074 331.712 298.274 332.102C299.475 332.492 306.893 338.96 306.893 338.96" stroke="#1A2E35" stroke-width="0.802816" stroke-miterlimit="10" stroke-linecap="round" stroke-linejoin="round"/>
<path d="M296.748 329.329C296.748 329.329 302.536 329.33 303.408 330.169C304.281 331.006 312.792 337.761 313.446 338.607" stroke="#1A2E35" stroke-width="0.802816" stroke-miterlimit="10" stroke-linecap="round" stroke-linejoin="round"/>
<path d="M353.436 331.119L349.701 322.762L358.604 321.759C358.604 321.759 359.367 328.682 353.436 331.119Z" fill="white"/>
<path d="M353.436 331.119L349.701 322.762L358.604 321.759C358.604 321.759 359.367 328.682 353.436 331.119Z" stroke="#1A2E35" stroke-width="0.802816" stroke-miterlimit="10" stroke-linecap="round" stroke-linejoin="round"/>
<path d="M369.162 254.228C369.162 254.228 357.057 269.563 356.816 273.352C356.575 277.141 361.994 308.356 361.994 308.356L351.324 310.882C351.324 310.882 354.161 318.335 354.157 322.586C354.152 326.839 353.437 331.117 353.437 331.117C353.437 331.117 374.53 335.289 380.219 334.603C385.909 333.917 387.571 331.729 391.132 326.635C394.693 321.541 390.435 312.96 388.544 308.306C386.652 303.653 387.366 301.264 387.366 301.264L381.964 252.803" fill="#1A2E35"/>
<path d="M369.162 254.228C369.162 254.228 357.057 269.563 356.816 273.352C356.575 277.141 361.994 308.356 361.994 308.356L351.324 310.882C351.324 310.882 354.161 318.335 354.157 322.586C354.152 326.839 353.437 331.117 353.437 331.117C353.437 331.117 374.53 335.289 380.219 334.603C385.909 333.917 387.571 331.729 391.132 326.635C394.693 321.541 390.435 312.96 388.544 308.306C386.652 303.653 387.366 301.264 387.366 301.264L381.964 252.803" stroke="#1A2E35" stroke-width="0.802816" stroke-miterlimit="10" stroke-linecap="round" stroke-linejoin="round"/>
<path d="M361.994 308.357C361.994 308.357 374.797 305.515 382.62 305.222L361.994 308.357Z" fill="white"/>
<path d="M361.994 308.357C361.994 308.357 374.797 305.515 382.62 305.222" stroke="#1A2E35" stroke-width="0.802816" stroke-miterlimit="10" stroke-linecap="round" stroke-linejoin="round"/>
<path d="M322.019 293.169L318.512 273.717C318.512 273.717 298.019 274.652 288.949 275.159C279.879 275.667 252.838 274.839 252.838 274.839C252.838 274.839 268.415 315.764 269.756 319.061C271.096 322.359 272.269 325.16 272.269 325.16C272.269 325.16 288.054 327.917 303.843 327.492C319.632 327.068 326.689 323.288 326.689 323.288L322.019 293.169Z" fill="white"/>
<path d="M322.019 293.169L318.512 273.717C318.512 273.717 298.019 274.652 288.949 275.159C279.879 275.667 252.838 274.839 252.838 274.839C252.838 274.839 268.415 315.764 269.756 319.061C271.096 322.359 272.269 325.16 272.269 325.16C272.269 325.16 288.054 327.917 303.843 327.492C319.632 327.068 326.689 323.288 326.689 323.288L322.019 293.169Z" stroke="#1A2E35" stroke-width="0.802816" stroke-miterlimit="10" stroke-linecap="round" stroke-linejoin="round"/>
<path d="M351.324 310.883L343.838 307.918C343.838 307.918 331.084 298.186 329.909 297.058C328.734 295.93 322.019 293.169 322.019 293.169L323.522 300.979C323.522 300.979 300.669 311.208 299.156 312.437C297.643 313.666 300.833 314.718 300.833 314.718C300.833 314.718 297.808 316.671 299.319 317.619C300.83 318.566 306.036 318.372 306.036 318.372C306.036 318.372 309.226 320.094 312.585 320.47C315.944 320.846 323.669 321.226 323.669 321.226C323.669 321.226 322.828 322.598 320.308 323.361C317.788 324.125 310.227 326.584 311.233 327.885C312.239 329.186 319.463 327.911 319.463 327.911C319.463 327.911 333.239 324.885 333.743 324.866C334.247 324.847 338.613 325.855 340.796 325.773C342.979 325.692 348.019 324.833 348.019 324.833L354.066 324.774C354.066 324.774 353.939 314.7 351.324 310.883Z" fill="white"/>
<path d="M351.324 310.883L343.838 307.918C343.838 307.918 331.084 298.186 329.909 297.058C328.734 295.93 322.019 293.169 322.019 293.169L323.522 300.979C323.522 300.979 300.669 311.208 299.156 312.437C297.643 313.666 300.833 314.718 300.833 314.718C300.833 314.718 297.808 316.671 299.319 317.619C300.83 318.566 306.036 318.372 306.036 318.372C306.036 318.372 309.226 320.094 312.585 320.47C315.944 320.846 323.669 321.226 323.669 321.226C323.669 321.226 322.828 322.598 320.308 323.361C317.788 324.125 310.227 326.584 311.233 327.885C312.239 329.186 319.463 327.911 319.463 327.911C319.463 327.911 333.239 324.885 333.743 324.866C334.247 324.847 338.613 325.855 340.796 325.773C342.979 325.692 348.019 324.833 348.019 324.833L354.066 324.774C354.066 324.774 353.939 314.7 351.324 310.883Z" stroke="#1A2E35" stroke-width="0.802816" stroke-miterlimit="10" stroke-linecap="round" stroke-linejoin="round"/>
<path d="M323.522 300.979L327.723 298.98" stroke="#1A2E35" stroke-width="0.802816" stroke-miterlimit="10" stroke-linecap="round" stroke-linejoin="round"/>
<path d="M300.833 314.717L323.851 307.16" stroke="#1A2E35" stroke-width="0.802816" stroke-miterlimit="10" stroke-linecap="round" stroke-linejoin="round"/>
<path d="M306.036 318.372L327.539 314.553" stroke="#1A2E35" stroke-width="0.802816" stroke-miterlimit="10" stroke-linecap="round" stroke-linejoin="round"/>
<path d="M323.669 321.226L329.716 320.831" stroke="#1A2E35" stroke-width="0.802816" stroke-miterlimit="10" stroke-linecap="round" stroke-linejoin="round"/>
<path d="M326.774 151.72C326.774 151.72 328.146 144.291 330.484 143.815C332.823 143.339 347.533 144.42 350.256 148.784C352.979 153.147 354.032 168.171 352.666 169.776C351.301 171.38 342.922 172.858 341.948 172.895C340.974 172.932 337.673 162.183 332.417 158.109C327.161 154.035 326.774 151.72 326.774 151.72Z" fill="#1A2E35"/>
<path d="M326.774 151.72C326.774 151.72 328.146 144.291 330.484 143.815C332.823 143.339 347.533 144.42 350.256 148.784C352.979 153.147 354.032 168.171 352.666 169.776C351.301 171.38 342.922 172.858 341.948 172.895C340.974 172.932 337.673 162.183 332.417 158.109C327.161 154.035 326.774 151.72 326.774 151.72Z" stroke="#1A2E35" stroke-width="0.802816" stroke-miterlimit="10" stroke-linecap="round" stroke-linejoin="round"/>
<path d="M301.056 154.042C301.056 154.042 294.624 157.195 293.451 160.928C292.278 164.661 292.079 168.745 292.079 168.745C292.079 168.745 283.895 171.576 284.862 177.752C285.829 183.928 292.644 187.75 293.228 188.116C293.813 188.482 299.647 197.971 299.647 197.971L300.239 189.99C300.239 189.99 299.851 188.645 308.814 187.921C317.776 187.197 324.009 188.128 326.543 187.45C329.075 186.774 330.05 186.542 330.05 186.542C330.05 186.542 330.634 187.298 333.36 188.748C336.086 190.199 339.784 193.361 341.148 192.339C342.514 191.318 344.276 182.515 344.276 182.515C344.276 182.515 345.461 167.522 345.463 164.804C345.467 162.086 339.433 156.682 337.875 155.381C336.318 154.08 323.466 148.738 320.545 147.876C317.623 147.015 309.05 148.113 305.736 150.178C302.422 152.244 301.056 154.042 301.056 154.042Z" fill="#1A2E35"/>
<path d="M301.056 154.042C301.056 154.042 294.624 157.195 293.451 160.928C292.278 164.661 292.079 168.745 292.079 168.745C292.079 168.745 283.895 171.576 284.862 177.752C285.829 183.928 292.644 187.75 293.228 188.116C293.813 188.482 299.647 197.971 299.647 197.971L300.239 189.99C300.239 189.99 299.851 188.645 308.814 187.921C317.776 187.197 324.009 188.128 326.543 187.45C329.075 186.774 330.05 186.542 330.05 186.542C330.05 186.542 330.634 187.298 333.36 188.748C336.086 190.199 339.784 193.361 341.148 192.339C342.514 191.318 344.276 182.515 344.276 182.515C344.276 182.515 345.461 167.522 345.463 164.804C345.467 162.086 339.433 156.682 337.875 155.381C336.318 154.08 323.466 148.738 320.545 147.876C317.623 147.015 309.05 148.113 305.736 150.178C302.422 152.244 301.056 154.042 301.056 154.042Z" stroke="#1A2E35" stroke-width="0.802816" stroke-miterlimit="10" stroke-linecap="round" stroke-linejoin="round"/>
<path d="M296.542 186.439C296.542 186.439 301.977 205.067 302.558 208.928C303.06 212.264 307.102 215.603 309.353 217.81C311.682 220.094 319.771 228.851 323.19 225.627C325.335 223.606 333.465 215.74 335.806 212.547C338.147 209.352 338.603 204.666 339.385 201.724L340.167 198.783C340.167 198.783 344.067 196.307 344.654 192.984C345.243 189.662 347.198 182.211 344.275 182.515C341.353 182.819 341.153 187.486 340.957 188.852C340.761 190.219 339.204 188.918 338.231 187.983C337.258 187.049 334.726 186.95 333.558 185.635C332.39 184.319 335.128 174.122 333.764 174.949C332.399 175.776 331.417 182.997 322.65 183.519C313.883 184.042 307.845 182.715 307.845 182.715C307.845 182.715 303.942 189.074 296.542 186.439Z" fill="white"/>
<path d="M296.542 186.439C296.542 186.439 301.977 205.067 302.558 208.928C303.06 212.264 307.102 215.603 309.353 217.81C311.682 220.094 319.771 228.851 323.19 225.627C325.335 223.606 333.465 215.74 335.806 212.547C338.147 209.352 338.603 204.666 339.385 201.724L340.167 198.783C340.167 198.783 344.067 196.307 344.654 192.984C345.243 189.662 347.198 182.211 344.275 182.515C341.353 182.819 341.153 187.486 340.957 188.852C340.761 190.219 339.204 188.918 338.231 187.983C337.258 187.049 334.726 186.95 333.558 185.635C332.39 184.319 335.128 174.122 333.764 174.949C332.399 175.776 331.417 182.997 322.65 183.519C313.883 184.042 307.845 182.715 307.845 182.715C307.845 182.715 303.942 189.074 296.542 186.439Z" stroke="#1A2E35" stroke-width="0.802816" stroke-miterlimit="10" stroke-linecap="round" stroke-linejoin="round"/>
<path d="M315.761 193.821C315.761 193.821 298.758 193.18 298.276 193.677C297.794 194.175 299.392 200.189 300.834 202.054C302.276 203.918 309.655 203.641 311.901 202.598C314.148 201.555 315.761 193.821 315.761 193.821Z" stroke="#1A2E35" stroke-width="0.802816" stroke-miterlimit="10" stroke-linecap="round" stroke-linejoin="round"/>
<path d="M318.809 193.707C318.809 193.707 321.848 201.746 323.611 202.639C325.375 203.531 329.866 203.843 332.273 203.433C334.679 203.023 336.446 201.679 336.767 201.027C337.089 200.375 337.898 192.831 337.898 192.831L318.809 193.707Z" stroke="#1A2E35" stroke-width="0.802816" stroke-miterlimit="10" stroke-linecap="round" stroke-linejoin="round"/>
<path d="M318.809 193.706L315.76 193.821" stroke="#1A2E35" stroke-width="0.802816" stroke-miterlimit="10" stroke-linecap="round" stroke-linejoin="round"/>
<path d="M337.899 192.832L340.953 186.483" stroke="#1A2E35" stroke-width="0.802816" stroke-miterlimit="10" stroke-linecap="round" stroke-linejoin="round"/>
<path d="M305.169 198.533C305.169 198.533 308.695 201.438 311.746 198.287" stroke="#1A2E35" stroke-width="0.802816" stroke-miterlimit="10" stroke-linecap="round" stroke-linejoin="round"/>
<path d="M324.418 198.451C324.418 198.451 328.907 200.361 331.156 198.039" stroke="#1A2E35" stroke-width="0.802816" stroke-miterlimit="10" stroke-linecap="round" stroke-linejoin="round"/>
<path d="M312.553 193.301C312.553 193.301 306.94 191.114 302.608 192.395" stroke="#1A2E35" stroke-width="0.802816" stroke-miterlimit="10" stroke-linecap="round" stroke-linejoin="round"/>
<path d="M321.537 192.485C321.537 192.485 328.597 191.102 332.607 191.91" stroke="#1A2E35" stroke-width="0.802816" stroke-miterlimit="10" stroke-linecap="round" stroke-linejoin="round"/>
<path d="M314.945 206.639C314.945 206.639 314.781 209.683 315.102 210.151C315.422 210.618 316.704 212.008 317.988 211.8C319.272 211.592 321.839 209.897 321.839 209.897" stroke="#1A2E35" stroke-width="0.802816" stroke-miterlimit="10" stroke-linecap="round" stroke-linejoin="round"/>
<path d="M313.494 213.727C313.494 213.727 317.982 216.756 322.959 213.213" stroke="#1A2E35" stroke-width="0.802816" stroke-miterlimit="10" stroke-linecap="round" stroke-linejoin="round"/>
</g>
<mask id="mask5_640_120429" style="mask-type:luminance" maskUnits="userSpaceOnUse" x="13" y="0" width="604" height="400">
<path d="M13.9438 -9.15527e-05H616.056V400H13.9438V-9.15527e-05Z" fill="white"/>
</mask>
<g mask="url(#mask5_640_120429)">
<path d="M460.004 157.087C460.004 157.087 469.239 139.303 472.831 139.424C476.422 139.545 476.482 145.729 476.482 145.729C476.482 145.729 483.495 140.411 484.413 142.502L485.33 144.593C485.33 144.593 501.999 148.829 508.474 156.662C514.95 164.496 518.077 173.021 515.17 179.194C512.263 185.367 506.802 205.877 506.802 205.877L509.03 214.373L484.076 229.118L478.237 218.44C478.237 218.44 465.433 222.218 463.778 220.64C462.123 219.061 455.367 198.318 455.367 198.318L447.548 192.948C447.548 192.948 454.351 177.949 454.937 173.937C455.523 169.925 457.946 162.124 460.004 157.087Z" fill="white"/>
<path d="M460.004 157.087C460.004 157.087 469.239 139.303 472.831 139.424C476.422 139.545 476.482 145.729 476.482 145.729C476.482 145.729 483.495 140.411 484.413 142.502L485.33 144.593C485.33 144.593 501.999 148.829 508.474 156.662C514.95 164.496 518.077 173.021 515.17 179.194C512.263 185.367 506.802 205.877 506.802 205.877L509.03 214.373L484.076 229.118L478.237 218.44C478.237 218.44 465.433 222.218 463.778 220.64C462.123 219.061 455.367 198.318 455.367 198.318L447.548 192.948C447.548 192.948 454.351 177.949 454.937 173.937C455.523 169.925 457.946 162.124 460.004 157.087Z" stroke="#1A2E35" stroke-width="0.802816" stroke-miterlimit="10" stroke-linecap="round" stroke-linejoin="round"/>
<path d="M458.586 203.122C458.586 203.122 460.358 204.435 462.742 200.061" stroke="#1A2E35" stroke-width="0.802816" stroke-miterlimit="10" stroke-linecap="round" stroke-linejoin="round"/>
<path d="M460.004 157.087C460.004 157.087 469.239 139.303 472.832 139.423C476.423 139.545 476.482 145.728 476.482 145.728C476.482 145.728 483.495 140.411 484.413 142.502L485.331 144.593C485.331 144.593 501.999 148.829 508.474 156.662C514.951 164.495 518.077 173.021 515.17 179.194C512.923 183.966 509.152 197.299 507.554 203.107C505.75 203.855 503.86 204.431 501.99 204.639C493.958 205.532 486.2 198.373 486.2 198.373C486.2 198.373 490.893 195.216 489.148 188.349C487.403 181.483 482.641 181.411 482.641 181.411C482.641 181.411 480.119 186.88 476.284 185.944C472.45 185.009 478.757 179.309 479.041 176.273C479.323 173.236 475.47 170.239 474.36 168.5C473.251 166.761 479.133 165.615 480.99 163.887C482.846 162.157 469.518 160.185 466.582 159.279C463.647 158.374 469.146 157.933 471.659 155.419C474.171 152.906 460.004 157.087 460.004 157.087Z" fill="#1A2E35"/>
<path d="M460.004 157.087C460.004 157.087 469.239 139.303 472.832 139.423C476.423 139.545 476.482 145.728 476.482 145.728C476.482 145.728 483.495 140.411 484.413 142.502L485.331 144.593C485.331 144.593 501.999 148.829 508.474 156.662C514.951 164.495 518.077 173.021 515.17 179.194C512.923 183.966 509.152 197.299 507.554 203.107C505.75 203.855 503.86 204.431 501.99 204.639C493.958 205.532 486.2 198.373 486.2 198.373C486.2 198.373 490.893 195.216 489.148 188.349C487.403 181.483 482.641 181.411 482.641 181.411C482.641 181.411 480.119 186.88 476.284 185.944C472.45 185.009 478.757 179.309 479.041 176.273C479.323 173.236 475.47 170.239 474.36 168.5C473.251 166.761 479.133 165.615 480.99 163.887C482.846 162.157 469.518 160.185 466.582 159.279C463.647 158.374 469.146 157.933 471.659 155.419C474.171 152.906 460.004 157.087 460.004 157.087Z" stroke="#1A2E35" stroke-width="0.802816" stroke-miterlimit="10" stroke-linecap="round" stroke-linejoin="round"/>
<path d="M458.578 179.947C458.49 181.586 458.989 182.946 459.695 182.984C460.4 183.022 461.043 181.724 461.132 180.084C461.219 178.444 460.72 177.084 460.015 177.047C459.309 177.009 458.666 178.308 458.578 179.947Z" fill="#1A2E35"/>
<path d="M463.483 173.776C463.483 173.776 460.134 166.496 456.199 171.201" stroke="#1A2E35" stroke-width="0.802816" stroke-miterlimit="10" stroke-linecap="round" stroke-linejoin="round"/>
<path d="M486.2 198.373L480.621 198.542L480.469 203.017" stroke="#1A2E35" stroke-width="0.802816" stroke-miterlimit="10" stroke-linecap="round" stroke-linejoin="round"/>
<path d="M475.12 232.901C475.12 232.901 470.532 237.185 469.959 239.757C469.385 242.328 469.099 244.613 469.099 244.613C469.099 244.613 460.786 256.041 459.925 262.325C459.066 268.61 461.646 282.321 461.646 282.321L478.273 233.186L475.12 232.901Z" fill="#1A2E35"/>
<path d="M475.12 232.901C475.12 232.901 470.532 237.185 469.959 239.757C469.385 242.328 469.099 244.613 469.099 244.613C469.099 244.613 460.786 256.041 459.925 262.325C459.066 268.61 461.646 282.321 461.646 282.321L478.273 233.186L475.12 232.901Z" stroke="#1A2E35" stroke-width="0.802816" stroke-miterlimit="10" stroke-linecap="round" stroke-linejoin="round"/>
<path d="M509.602 204.838C509.602 204.838 475.289 229.216 475.107 229.939C474.926 230.662 474.744 237.719 474.744 237.719L514.321 211.667L509.602 204.838Z" fill="white"/>
<path d="M509.602 204.838C509.602 204.838 475.289 229.216 475.107 229.939C474.926 230.662 474.744 237.719 474.744 237.719L514.321 211.667L509.602 204.838Z" stroke="#1A2E35" stroke-width="0.802816" stroke-miterlimit="10" stroke-linecap="round" stroke-linejoin="round"/>
<path d="M474.744 237.718C474.744 237.718 465.304 254.18 464.759 256.713C464.215 259.246 458.587 295.066 458.587 295.066L451.499 339.026H540.646C540.646 339.026 538.704 321.063 537.614 306.41C536.525 291.756 536.01 270.166 530.66 250.977C527.652 240.186 514.322 211.666 514.322 211.666L474.744 237.718Z" fill="#599BFE"/>
<path d="M474.744 237.718C474.744 237.718 465.304 254.18 464.759 256.713C464.215 259.246 458.587 295.066 458.587 295.066L451.499 339.026H540.646C540.646 339.026 538.704 321.063 537.614 306.41C536.525 291.756 536.01 270.166 530.66 250.977C527.652 240.186 514.322 211.666 514.322 211.666L474.744 237.718Z" stroke="#1A2E35" stroke-width="0.802816" stroke-miterlimit="10" stroke-linecap="round" stroke-linejoin="round"/>
<path d="M431.706 291.079C431.706 291.079 427.086 282.859 426.096 281.708C425.106 280.558 420.486 278.913 419.167 278.42C417.846 277.926 406.957 274.31 406.297 274.31C405.637 274.31 404.812 275.79 404.978 277.433C405.142 279.078 407.947 281.05 408.608 281.214C409.267 281.379 400.193 281.379 397.058 281.708C393.923 282.037 387.984 283.188 387.489 284.502C386.994 285.818 387.489 287.133 389.304 287.298C391.118 287.462 394.583 286.969 394.583 286.969L403.162 287.791C403.162 287.791 392.108 289.434 390.459 289.763C388.808 290.093 387.819 292.23 388.643 293.381C389.469 294.531 394.254 293.874 394.254 293.874L402.338 293.381C402.338 293.381 391.778 296.669 391.283 297.327C390.789 297.985 391.118 299.958 392.603 300.286C394.088 300.615 401.017 299.794 401.017 299.794L404.482 300.286C404.482 300.286 399.533 300.944 399.533 301.601C399.533 302.259 399.533 303.246 400.687 303.246C401.843 303.246 409.432 303.081 409.432 303.081C409.432 303.081 412.897 305.054 415.867 304.89C418.837 304.726 431.046 303.246 431.046 303.246L431.706 291.079Z" fill="white"/>
<path d="M431.706 291.079C431.706 291.079 427.086 282.859 426.096 281.708C425.106 280.558 420.486 278.913 419.167 278.42C417.846 277.926 406.957 274.31 406.297 274.31C405.637 274.31 404.812 275.79 404.978 277.433C405.142 279.078 407.947 281.05 408.608 281.214C409.267 281.379 400.193 281.379 397.058 281.708C393.923 282.037 387.984 283.188 387.489 284.502C386.994 285.818 387.489 287.133 389.304 287.298C391.118 287.462 394.583 286.969 394.583 286.969L403.162 287.791C403.162 287.791 392.108 289.434 390.459 289.763C388.808 290.093 387.819 292.23 388.643 293.381C389.469 294.531 394.254 293.874 394.254 293.874L402.338 293.381C402.338 293.381 391.778 296.669 391.283 297.327C390.789 297.985 391.118 299.958 392.603 300.286C394.088 300.615 401.017 299.794 401.017 299.794L404.482 300.286C404.482 300.286 399.533 300.944 399.533 301.601C399.533 302.259 399.533 303.246 400.687 303.246C401.843 303.246 409.432 303.081 409.432 303.081C409.432 303.081 412.897 305.054 415.867 304.89C418.837 304.726 431.046 303.246 431.046 303.246L431.706 291.079Z" stroke="#1A2E35" stroke-width="0.802816" stroke-miterlimit="10" stroke-linecap="round" stroke-linejoin="round"/>
<path d="M408.608 281.215L413.825 283.765C413.825 283.765 413.825 288.74 418.434 291.994" stroke="#1A2E35" stroke-width="0.802816" stroke-miterlimit="10" stroke-linecap="round" stroke-linejoin="round"/>
<path d="M403.071 286.443C403.071 286.443 404.224 296.585 404.992 299.072" stroke="#1A2E35" stroke-width="0.802816" stroke-miterlimit="10" stroke-linecap="round" stroke-linejoin="round"/>
<path d="M461.738 293.027L439.079 291.845V304.338L458.86 307.04L461.738 293.027Z" fill="#599BFE"/>
<path d="M461.738 293.027L439.079 291.845V304.338L458.86 307.04L461.738 293.027Z" stroke="#1A2E35" stroke-width="0.802816" stroke-miterlimit="10" stroke-linecap="round" stroke-linejoin="round"/>
<path d="M439.079 291.844L431.706 290.831L430.987 303.325L439.079 304.337V291.844Z" fill="white"/>
<path d="M439.079 291.844L431.706 290.831L430.987 303.325L439.079 304.337V291.844Z" stroke="#1A2E35" stroke-width="0.802816" stroke-miterlimit="10" stroke-linecap="round" stroke-linejoin="round"/>
<path d="M504.036 239.667C504.036 239.667 497.222 234.779 493.133 235.593C489.046 236.408 477.053 240.482 474.327 245.914C471.602 251.346 454.976 300.778 454.976 300.778L391.784 296.108L389.447 318.865C389.447 318.865 457.428 333.098 462.879 333.913C468.33 334.728 474.327 334.728 477.053 332.013C479.778 329.296 508.397 267.914 508.397 267.914" fill="#599BFE"/>
<path d="M504.036 239.667C504.036 239.667 497.222 234.779 493.133 235.593C489.046 236.408 477.053 240.482 474.327 245.914C471.602 251.346 454.976 300.778 454.976 300.778L391.784 296.108L389.447 318.865C389.447 318.865 457.428 333.098 462.879 333.913C468.33 334.728 474.327 334.728 477.053 332.012C479.778 329.296 508.397 267.914 508.397 267.914" stroke="#1A2E35" stroke-width="0.802816" stroke-miterlimit="10" stroke-linecap="round" stroke-linejoin="round"/>
<path d="M391.784 296.108L381.533 294.675L380.653 314.104L389.626 315.461L391.784 296.108Z" fill="white"/>
<path d="M391.784 296.108L381.533 294.675L380.653 314.104L389.626 315.461L391.784 296.108Z" stroke="#1A2E35" stroke-width="0.802816" stroke-miterlimit="10" stroke-linecap="round" stroke-linejoin="round"/>
<path d="M381.533 294.675C381.533 294.675 376.318 288.045 375.239 285.357C374.16 282.669 368.586 282.31 366.068 281.593C363.551 280.877 359.954 279.443 359.594 280.697C359.234 281.952 359.055 284.64 360.493 285.715C361.932 286.79 365.349 287.507 366.248 288.224C367.147 288.941 368.046 289.657 368.046 289.657L351.682 291.27C351.682 291.27 344.129 290.194 340.712 291.27C337.295 292.345 334.598 292.345 334.418 293.779C334.238 295.213 334.598 297.184 335.497 297.362C336.396 297.542 339.273 297.184 339.813 297.184C339.813 297.184 337.835 299.155 338.014 299.872C338.194 300.589 339.453 302.559 340.172 302.559C340.892 302.559 345.387 302.918 346.107 303.097C346.826 303.277 350.063 306.501 350.782 306.86C351.502 307.219 356.537 309.011 356.537 309.011C356.537 309.011 358.335 310.444 361.932 311.34C365.528 312.236 380.653 314.104 380.653 314.104L381.533 294.675Z" fill="white"/>
<path d="M381.533 294.675C381.533 294.675 376.318 288.045 375.239 285.357C374.16 282.669 368.586 282.31 366.068 281.593C363.551 280.877 359.954 279.443 359.594 280.697C359.234 281.952 359.055 284.64 360.493 285.715C361.932 286.79 365.349 287.507 366.248 288.224C367.147 288.941 368.046 289.657 368.046 289.657L351.682 291.27C351.682 291.27 344.129 290.194 340.712 291.27C337.295 292.345 334.598 292.345 334.418 293.779C334.238 295.213 334.598 297.184 335.497 297.362C336.396 297.542 339.273 297.184 339.813 297.184C339.813 297.184 337.835 299.155 338.014 299.872C338.194 300.589 339.453 302.559 340.172 302.559C340.892 302.559 345.387 302.918 346.107 303.097C346.826 303.277 350.063 306.501 350.782 306.86C351.502 307.219 356.537 309.011 356.537 309.011C356.537 309.011 358.335 310.444 361.932 311.34C365.529 312.236 380.653 314.104 380.653 314.104L381.533 294.675Z" stroke="#1A2E35" stroke-width="0.802816" stroke-miterlimit="10" stroke-linecap="round" stroke-linejoin="round"/>
<path d="M356.688 308.525C356.688 308.525 358.529 308.877 360.511 309.159" stroke="#1A2E35" stroke-width="0.802816" stroke-miterlimit="10" stroke-linecap="round" stroke-linejoin="round"/>
<path d="M339.813 297.183L348.624 296.825L357.256 297.721" stroke="#1A2E35" stroke-width="0.802816" stroke-miterlimit="10" stroke-linecap="round" stroke-linejoin="round"/>
<path d="M346.107 303.096L350.962 303.454L358.515 303.812" stroke="#1A2E35" stroke-width="0.802816" stroke-miterlimit="10" stroke-linecap="round" stroke-linejoin="round"/>
<path d="M557.949 339.193L562.968 289.21C563.675 282.16 558.258 275.981 551.153 275.733C544.861 275.512 539.418 280.058 538.535 286.269L531.011 339.193H557.949Z" fill="#1A2E35"/>
<path d="M557.949 339.193L562.968 289.21C563.675 282.16 558.258 275.981 551.153 275.733C544.861 275.512 539.418 280.058 538.535 286.269L531.011 339.193H557.949Z" stroke="#1A2E35" stroke-width="0.802816" stroke-miterlimit="10" stroke-linecap="round" stroke-linejoin="round"/>
</g>
<mask id="mask6_640_120429" style="mask-type:luminance" maskUnits="userSpaceOnUse" x="13" y="0" width="604" height="400">
<path d="M13.9438 -9.15527e-05H616.056V400H13.9438V-9.15527e-05Z" fill="white"/>
</mask>
<g mask="url(#mask6_640_120429)">
<path d="M165.287 201.902C165.287 201.902 132.389 219.479 130.974 220.934C129.56 222.388 121.403 327.077 121.403 327.077L221.175 313.64C221.175 313.64 231.505 267.671 233.406 249.106C235.304 230.54 234.76 216.854 234.22 215.288C233.679 213.723 218.75 206.05 215.288 204.418C211.826 202.785 206.584 200.836 206.584 200.836L165.287 201.902Z" fill="#599BFE"/>
<path d="M165.287 201.902C165.287 201.902 132.389 219.479 130.974 220.934C129.56 222.388 121.403 327.077 121.403 327.077L221.175 313.64C221.175 313.64 231.505 267.671 233.406 249.106C235.304 230.54 234.76 216.854 234.22 215.288C233.679 213.723 218.75 206.05 215.288 204.418C211.826 202.785 206.584 200.836 206.584 200.836L165.287 201.902Z" stroke="#1A2E35" stroke-width="0.802816" stroke-miterlimit="10" stroke-linecap="round" stroke-linejoin="round"/>
<path d="M210.909 272.472C202.788 280.803 184.504 298.489 168.148 306.684" stroke="#1A2E35" stroke-width="0.802816" stroke-miterlimit="10" stroke-linecap="round" stroke-linejoin="round"/>
<path d="M215.192 267.957C215.192 267.957 214.161 269.092 212.337 270.994" stroke="#1A2E35" stroke-width="0.802816" stroke-miterlimit="10" stroke-linecap="round" stroke-linejoin="round"/>
<path d="M162.778 302.464C160.391 303.569 158.263 304.373 156.694 304.645" stroke="#1A2E35" stroke-width="0.802816" stroke-miterlimit="10" stroke-linecap="round" stroke-linejoin="round"/>
<path d="M184.92 289.562C184.92 289.562 175.168 296.069 166.606 300.563" stroke="#1A2E35" stroke-width="0.802816" stroke-miterlimit="10" stroke-linecap="round" stroke-linejoin="round"/>
<path d="M168.79 314.609C168.79 314.609 145.931 303.319 143.107 302.254C140.283 301.189 128.889 314.022 128.889 314.022L174.816 324.67L168.79 314.609Z" fill="white"/>
<path d="M168.79 314.609C168.79 314.609 145.931 303.319 143.107 302.254C140.283 301.189 128.889 314.022 128.889 314.022L174.816 324.67L168.79 314.609Z" stroke="#1A2E35" stroke-width="0.802816" stroke-miterlimit="10" stroke-linecap="round" stroke-linejoin="round"/>
<path d="M133.88 315.387C133.88 315.387 141.09 305.524 144.652 304.172" stroke="#1A2E35" stroke-width="0.802816" stroke-miterlimit="10" stroke-linecap="round" stroke-linejoin="round"/>
<path d="M140.787 316.468C140.787 316.468 146.932 307.646 149.101 305.959" stroke="#1A2E35" stroke-width="0.802816" stroke-miterlimit="10" stroke-linecap="round" stroke-linejoin="round"/>
<path d="M146.339 317.608C146.339 317.608 150.819 309.657 153.394 308.15" stroke="#1A2E35" stroke-width="0.802816" stroke-miterlimit="10" stroke-linecap="round" stroke-linejoin="round"/>
<path d="M150.112 318.43C150.112 318.43 152.824 316.32 153.83 316.673C154.835 317.025 159.417 320.196 160.249 320.755" stroke="#1A2E35" stroke-width="0.802816" stroke-miterlimit="10" stroke-linecap="round" stroke-linejoin="round"/>
<path d="M234.22 215.288C234.22 215.288 232.665 221.319 228.722 232.823C224.781 244.327 221.813 249.826 221.813 249.826L212.749 304.878L168.791 314.609L174.816 324.67C174.816 324.67 200.105 326.909 212.823 323.753C225.54 320.597 231.018 318.959 231.659 317.539C232.299 316.119 238.045 285.061 237.78 264.208C237.515 243.356 236.989 213.772 234.22 215.288Z" fill="#599BFE"/>
<path d="M234.22 215.288C234.22 215.288 232.665 221.319 228.722 232.823C224.781 244.327 221.813 249.826 221.813 249.826L212.749 304.878L168.791 314.609L174.816 324.67C174.816 324.67 200.105 326.909 212.823 323.753C225.54 320.597 231.018 318.959 231.659 317.539C232.299 316.119 238.045 285.061 237.78 264.208C237.515 243.356 236.989 213.772 234.22 215.288Z" stroke="#1A2E35" stroke-width="0.802816" stroke-miterlimit="10" stroke-linecap="round" stroke-linejoin="round"/>
<path d="M221.813 249.827L235.073 230.154" stroke="#1A2E35" stroke-width="0.802816" stroke-miterlimit="10" stroke-linecap="round" stroke-linejoin="round"/>
<path d="M225.046 249.084L234.02 237.354" stroke="#1A2E35" stroke-width="0.802816" stroke-miterlimit="10" stroke-linecap="round" stroke-linejoin="round"/>
<path d="M215.207 304.173C215.207 304.173 224.477 303.556 228.864 308.724" stroke="#1A2E35" stroke-width="0.802816" stroke-miterlimit="10" stroke-linecap="round" stroke-linejoin="round"/>
<path d="M173.552 313.6L180.447 324.616L173.552 313.6Z" fill="white"/>
<path d="M173.552 313.6L180.447 324.616" stroke="#1A2E35" stroke-width="0.802816" stroke-miterlimit="10" stroke-linecap="round" stroke-linejoin="round"/>
<path d="M214.784 301.808C214.784 301.808 219.317 298.424 227.093 300.458" stroke="#1A2E35" stroke-width="0.802816" stroke-miterlimit="10" stroke-linecap="round" stroke-linejoin="round"/>
<path d="M196.916 324.072L208.699 325.329L206.492 342.717L194.185 342.078L196.916 324.072Z" fill="white"/>
<path d="M196.916 324.072L208.699 325.329L206.492 342.717L194.185 342.078L196.916 324.072Z" stroke="#1A2E35" stroke-width="0.802816" stroke-miterlimit="10" stroke-linecap="round" stroke-linejoin="round"/>
<path d="M139.282 216.386C139.282 216.386 120.617 224.381 119.646 228.399C118.673 232.417 107.881 275.625 103.461 298.277C99.0405 320.931 97.4541 336.701 98.9048 337.629C100.355 338.557 124.055 342.457 152.539 343.558C181.023 344.659 192.923 345.117 194.163 343.869C195.403 342.621 197.592 325.036 196.916 324.073C196.24 323.109 132.413 312.274 132.413 312.274C132.413 312.274 148.85 257.088 148.834 254.903C148.817 252.717 140.398 237.996 137.093 233.971" fill="#599BFE"/>
<path d="M139.282 216.386C139.282 216.386 120.617 224.381 119.646 228.399C118.673 232.417 107.881 275.625 103.461 298.277C99.0405 320.931 97.4541 336.701 98.9048 337.629C100.355 338.557 124.055 342.457 152.539 343.558C181.023 344.659 192.923 345.117 194.163 343.869C195.403 342.621 197.592 325.036 196.916 324.073C196.24 323.109 132.413 312.274 132.413 312.274C132.413 312.274 148.85 257.088 148.834 254.903C148.817 252.717 140.398 237.996 137.093 233.971" stroke="#1A2E35" stroke-width="0.802816" stroke-miterlimit="10" stroke-linecap="round" stroke-linejoin="round"/>
<path d="M132.413 312.275C132.413 312.275 121.513 310.759 113.74 318.912" stroke="#1A2E35" stroke-width="0.802816" stroke-miterlimit="10" stroke-linecap="round" stroke-linejoin="round"/>
<path d="M113.74 314.428C113.74 314.428 108.831 319.319 107.603 323.804" stroke="#1A2E35" stroke-width="0.802816" stroke-miterlimit="10" stroke-linecap="round" stroke-linejoin="round"/>
<path d="M208.699 325.329C208.699 325.329 233.362 317.065 235.025 318.182C236.688 319.3 246.219 327.414 246.333 328.602C246.448 329.789 246.154 332.782 245.225 333.221C244.295 333.661 242.591 334.136 242.591 334.136C242.591 334.136 239.949 342.997 238.865 343.841C237.78 344.685 234.547 345.427 233.019 345.694C231.489 345.962 206.491 342.717 206.491 342.717L208.699 325.329Z" fill="white"/>
<path d="M208.699 325.329C208.699 325.329 233.362 317.065 235.025 318.182C236.688 319.3 246.219 327.414 246.333 328.602C246.448 329.789 246.154 332.782 245.225 333.221C244.295 333.661 242.591 334.136 242.591 334.136C242.591 334.136 239.949 342.997 238.865 343.841C237.78 344.685 234.547 345.427 233.019 345.694C231.489 345.962 206.491 342.717 206.491 342.717L208.699 325.329Z" stroke="#1A2E35" stroke-width="0.802816" stroke-miterlimit="10" stroke-linecap="round" stroke-linejoin="round"/>
<path d="M242.592 334.136C242.592 334.136 240.506 330.653 239.481 330.103C238.457 329.553 232.615 327.432 232.615 327.432" stroke="#1A2E35" stroke-width="0.802816" stroke-miterlimit="10" stroke-linecap="round" stroke-linejoin="round"/>
<path d="M231.697 334.03C231.697 334.03 238.623 335.307 240.807 337.792" stroke="#1A2E35" stroke-width="0.802816" stroke-miterlimit="10" stroke-linecap="round" stroke-linejoin="round"/>
<path d="M231.147 340.413C231.147 340.413 236.925 342.479 239.965 341.745" stroke="#1A2E35" stroke-width="0.802816" stroke-miterlimit="10" stroke-linecap="round" stroke-linejoin="round"/>
<path d="M178.815 233.284L185.323 244.317L175.17 320.283L182.392 332.675L196.012 318.748L188.245 244.384L195.829 230.332L187.419 223.756L178.815 233.284Z" fill="white"/>
<path d="M178.815 233.284L185.323 244.317L175.17 320.283L182.392 332.675L196.012 318.748L188.245 244.384L195.829 230.332L187.419 223.756L178.815 233.284Z" stroke="#1A2E35" stroke-width="0.802816" stroke-miterlimit="10" stroke-linecap="round" stroke-linejoin="round"/>
<path d="M169.493 197.142L163.586 200.388C163.586 200.388 163.534 211.915 166.656 222.108C169.779 232.3 172.577 239.129 172.577 239.129L187.913 230.886L203.015 240.341C203.015 240.341 205.079 229.517 204.124 219.625C203.169 209.733 199.001 198.793 199.001 198.793C199.001 198.793 177.664 193.197 169.493 197.142Z" fill="#599BFE"/>
<path d="M169.493 197.142L163.586 200.388C163.586 200.388 163.534 211.915 166.656 222.108C169.779 232.3 172.577 239.129 172.577 239.129L187.913 230.886L203.015 240.341C203.015 240.341 205.079 229.517 204.124 219.625C203.169 209.733 199.001 198.793 199.001 198.793C199.001 198.793 177.664 193.197 169.493 197.142Z" stroke="#1A2E35" stroke-width="0.802816" stroke-miterlimit="10" stroke-linecap="round" stroke-linejoin="round"/>
<path d="M175.241 212.383C175.241 212.383 177.982 218.618 179.835 221.713C181.689 224.809 187.913 230.888 187.913 230.888C187.913 230.888 194.194 221.465 195.396 219.821L196.598 218.177C196.598 218.177 188.508 218.938 186.709 218.424C184.91 217.909 175.241 212.383 175.241 212.383Z" fill="#1A2E35"/>
<path d="M175.241 212.383C175.241 212.383 177.982 218.618 179.835 221.713C181.689 224.809 187.913 230.888 187.913 230.888C187.913 230.888 194.194 221.465 195.396 219.821L196.598 218.177C196.598 218.177 188.508 218.938 186.709 218.424C184.91 217.909 175.241 212.383 175.241 212.383Z" stroke="#1A2E35" stroke-width="0.802816" stroke-miterlimit="10" stroke-linecap="round" stroke-linejoin="round"/>
<path d="M212.132 175.289C212.132 175.289 208.976 191.688 209.035 193.874C209.092 196.059 210.501 202.719 209.523 205.263C208.546 207.808 197.679 218.771 194.265 221.426C190.852 224.081 185.936 223.833 183.274 221.609C180.613 219.384 171.582 209.787 170.093 207.039C168.605 204.293 166.985 197.019 166.985 197.019C166.985 197.019 162.649 194.87 160.097 190.607C157.544 186.346 156.192 183.437 159.665 181.404L158.074 163.343C158.074 163.343 164.063 157.289 178.235 158.371C192.407 159.451 212.132 175.289 212.132 175.289Z" fill="white"/>
<path d="M212.132 175.289C212.132 175.289 208.976 191.688 209.035 193.874C209.092 196.059 210.501 202.719 209.523 205.263C208.546 207.808 197.679 218.771 194.265 221.426C190.852 224.081 185.936 223.833 183.274 221.609C180.613 219.384 171.582 209.787 170.093 207.039C168.605 204.293 166.985 197.019 166.985 197.019C166.985 197.019 162.649 194.87 160.097 190.607C157.544 186.346 156.192 183.437 159.665 181.404L158.074 163.343C158.074 163.343 164.063 157.289 178.235 158.371C192.407 159.451 212.132 175.289 212.132 175.289Z" stroke="#1A2E35" stroke-width="0.802816" stroke-miterlimit="10" stroke-linecap="round" stroke-linejoin="round"/>
<path d="M165.675 185.041L169.045 193.018L171.053 193.24L170.011 187.191C170.011 187.191 178.008 182.923 178.434 182.591C178.861 182.259 176.666 172.197 176.576 171.263C176.485 170.329 177.083 167.019 188.421 170.417C199.757 173.814 200.148 177.86 205.75 178.859C211.351 179.857 211.901 177.643 211.901 177.643C211.901 177.643 218.004 179.088 221.388 174.559C224.774 170.03 214.779 164.696 214.779 164.696C214.779 164.696 216.403 156.182 212.373 152.455C208.343 148.729 204.731 152.487 204.776 152.954C204.821 153.421 190.219 143.136 182.988 142.68C175.758 142.225 159.395 153.279 156.572 158.877C153.749 164.475 159.666 181.404 159.666 181.404C159.666 181.404 163.351 179.987 165.675 185.041Z" fill="#1A2E35"/>
<path d="M165.675 185.041L169.045 193.018L171.053 193.24L170.011 187.191C170.011 187.191 178.008 182.923 178.434 182.591C178.861 182.259 176.666 172.197 176.576 171.263C176.485 170.329 177.083 167.019 188.421 170.417C199.757 173.814 200.148 177.86 205.75 178.859C211.351 179.857 211.901 177.643 211.901 177.643C211.901 177.643 218.004 179.088 221.388 174.559C224.774 170.03 214.779 164.696 214.779 164.696C214.779 164.696 216.403 156.182 212.373 152.455C208.343 148.729 204.731 152.487 204.776 152.954C204.821 153.421 190.219 143.136 182.988 142.68C175.758 142.225 159.395 153.279 156.572 158.877C153.749 164.475 159.666 181.404 159.666 181.404C159.666 181.404 163.351 179.987 165.675 185.041Z" stroke="#1A2E35" stroke-width="0.802816" stroke-miterlimit="10" stroke-linecap="round" stroke-linejoin="round"/>
<path d="M199.93 194.596L200.204 206.933L194.009 206.117" stroke="#1A2E35" stroke-width="0.802816" stroke-miterlimit="10" stroke-linecap="round" stroke-linejoin="round"/>
<path d="M187.719 209.058C187.719 209.058 192.844 213.048 198.282 210.772" stroke="#1A2E35" stroke-width="0.802816" stroke-miterlimit="10" stroke-linecap="round" stroke-linejoin="round"/>
<path d="M191.666 192.938C191.666 192.938 189.865 196.458 183.825 194.072" stroke="#1A2E35" stroke-width="0.802816" stroke-miterlimit="10" stroke-linecap="round" stroke-linejoin="round"/>
<path d="M201.821 192.01C201.821 192.01 204.437 193.768 207.287 191.608" stroke="#1A2E35" stroke-width="0.802816" stroke-miterlimit="10" stroke-linecap="round" stroke-linejoin="round"/>
<path d="M177.282 191.24C177.282 191.24 184.561 189.036 198.003 188.9C198.003 188.9 196.812 192.392 195.575 195.418C194.339 198.444 193.955 200.805 189.006 201.81C184.058 202.815 179.904 200.969 179.115 199.129C178.325 197.289 177.282 191.24 177.282 191.24Z" stroke="#1A2E35" stroke-width="0.802816" stroke-miterlimit="10" stroke-linecap="round" stroke-linejoin="round"/>
<path d="M198.003 188.9C198.003 188.9 210.733 186.138 214.494 185.5C214.494 185.5 214.55 189.249 213.588 191.95C212.626 194.651 210.583 197.243 208.664 197.955C206.745 198.667 202.42 199.8 201.312 197.817C200.764 196.839 198.003 188.9 198.003 188.9Z" stroke="#1A2E35" stroke-width="0.802816" stroke-miterlimit="10" stroke-linecap="round" stroke-linejoin="round"/>
<path d="M214.494 185.499L210.647 182.077" stroke="#1A2E35" stroke-width="0.802816" stroke-miterlimit="10" stroke-linecap="round" stroke-linejoin="round"/>
<path d="M177.282 191.24L165.674 185.041" stroke="#1A2E35" stroke-width="0.802816" stroke-miterlimit="10" stroke-linecap="round" stroke-linejoin="round"/>
<path d="M181.913 188.531C181.913 188.531 186.757 186.438 193.104 187.246" stroke="#1A2E35" stroke-width="0.802816" stroke-miterlimit="10" stroke-linecap="round" stroke-linejoin="round"/>
<path d="M201.462 186.712C201.462 186.712 203.323 183.814 208.908 184.657" stroke="#1A2E35" stroke-width="0.802816" stroke-miterlimit="10" stroke-linecap="round" stroke-linejoin="round"/>
</g>
<path d="M418.646 358.304L399.206 348.53H485.507L510.545 358.304H418.646Z" fill="white"/>
<path d="M418.646 358.304L399.206 348.53H485.507L510.545 358.304H418.646Z" stroke="#1A2E35" stroke-width="0.802816" stroke-miterlimit="10" stroke-linecap="round"/>
<path d="M428.031 357.947L411.386 349.579H485.279L506.717 357.947H428.031Z" fill="white"/>
<path d="M428.031 357.947L411.386 349.579H485.279L506.717 357.947H428.031Z" stroke="#1A2E35" stroke-width="0.802816" stroke-miterlimit="10" stroke-linecap="round"/>
<path d="M418.647 358.304H510.545L523.078 299.357H431.179L418.647 358.304Z" fill="white"/>
<path d="M418.647 358.304H510.545L523.078 299.357H431.179L418.647 358.304Z" stroke="#1A2E35" stroke-width="0.802816" stroke-miterlimit="10" stroke-linecap="round"/>
<mask id="mask7_640_120429" style="mask-type:luminance" maskUnits="userSpaceOnUse" x="13" y="0" width="604" height="400">
<path d="M13.9438 -9.15527e-05H616.056V400H13.9438V-9.15527e-05Z" fill="white"/>
</mask>
<g mask="url(#mask7_640_120429)">
<path d="M466.917 327.03C464.598 329.324 464.421 332.891 466.519 334.998C468.619 337.105 472.199 336.952 474.518 334.658C476.835 332.364 477.014 328.797 474.915 326.69C472.816 324.584 469.235 324.737 466.917 327.03Z" fill="white"/>
<path d="M466.917 327.03C464.598 329.324 464.421 332.891 466.519 334.998C468.619 337.105 472.199 336.952 474.518 334.658C476.835 332.364 477.014 328.797 474.915 326.69C472.816 324.584 469.235 324.737 466.917 327.03Z" stroke="#1A2E35" stroke-width="0.802816" stroke-miterlimit="10" stroke-linecap="round"/>
</g>
<path d="M292.642 342.078L252.974 359.837L324.836 363.848L357.605 343.224L292.642 342.078Z" fill="white"/>
<path d="M292.642 342.078L252.974 359.837L324.836 363.848L357.605 343.224L292.642 342.078Z" stroke="#1A2E35" stroke-width="0.802816" stroke-miterlimit="10" stroke-linecap="round" stroke-linejoin="round"/>
<path d="M298.354 342.483L263.912 364.995L337.24 371.268L348.72 342.852L298.354 342.483Z" fill="white"/>
<path d="M298.354 342.483L263.912 364.995L337.24 371.268L348.72 342.852L298.354 342.483Z" stroke="#1A2E35" stroke-width="0.802816" stroke-miterlimit="10" stroke-linecap="round" stroke-linejoin="round"/>
<mask id="mask8_640_120429" style="mask-type:luminance" maskUnits="userSpaceOnUse" x="13" y="0" width="604" height="400">
<path d="M13.9438 -9.15527e-05H616.056V400H13.9438V-9.15527e-05Z" fill="white"/>
</mask>
<g mask="url(#mask8_640_120429)">
<path d="M179.888 329.367C179.888 326.284 180.681 323.456 181.998 321.25H113.958C109.589 321.25 106.046 324.781 106.046 329.135C106.046 333.488 109.589 337.018 113.958 337.018H181.747C180.585 334.885 179.888 332.242 179.888 329.367Z" fill="white"/>
<path d="M179.888 329.367C179.888 326.284 180.681 323.456 181.998 321.25H113.958C109.589 321.25 106.046 324.781 106.046 329.135C106.046 333.488 109.589 337.018 113.958 337.018H181.747C180.585 334.885 179.888 332.242 179.888 329.367Z" stroke="#1A2E35" stroke-width="0.802816" stroke-miterlimit="10" stroke-linecap="round"/>
<path d="M181.747 338.408H113.958C108.826 338.408 104.651 334.248 104.651 329.134C104.651 324.021 108.826 319.86 113.958 319.86H181.998C182.768 319.86 183.393 320.483 183.393 321.25C183.393 322.018 182.768 322.639 181.998 322.639H113.958C110.364 322.639 107.441 325.553 107.441 329.134C107.441 332.715 110.364 335.628 113.958 335.628H181.747C182.517 335.628 183.142 336.251 183.142 337.019C183.142 337.786 182.517 338.408 181.747 338.408Z" fill="#8D8D8D"/>
<path d="M181.747 338.408H113.958C108.826 338.408 104.651 334.248 104.651 329.134C104.651 324.021 108.826 319.86 113.958 319.86H181.998C182.768 319.86 183.393 320.483 183.393 321.25C183.393 322.018 182.768 322.639 181.998 322.639H113.958C110.364 322.639 107.441 325.553 107.441 329.134C107.441 332.715 110.364 335.628 113.958 335.628H181.747C182.517 335.628 183.142 336.251 183.142 337.019C183.142 337.786 182.517 338.408 181.747 338.408Z" stroke="#1A2E35" stroke-width="0.802816" stroke-miterlimit="10" stroke-linecap="round"/>
<path d="M172.536 321.25C171.218 323.456 170.426 326.283 170.426 329.367C170.426 332.241 171.123 334.885 172.285 337.018H181.747C180.586 334.885 179.889 332.241 179.889 329.367C179.889 326.283 180.681 323.456 181.999 321.25H172.536Z" fill="white"/>
<path d="M172.536 321.25C171.218 323.456 170.426 326.283 170.426 329.367C170.426 332.241 171.123 334.885 172.285 337.018H181.747C180.586 334.885 179.889 332.241 179.889 329.367C179.889 326.283 180.681 323.456 181.999 321.25H172.536Z" stroke="#1A2E35" stroke-width="0.802816" stroke-miterlimit="10" stroke-linecap="round"/>
<path d="M181.809 347.762C181.809 344.679 182.6 341.851 183.918 339.646H115.878C111.508 339.646 107.966 343.176 107.966 347.53C107.966 351.884 111.508 355.414 115.878 355.414H183.667C182.505 353.281 181.809 350.637 181.809 347.762Z" fill="white"/>
<path d="M181.809 347.762C181.809 344.679 182.6 341.851 183.918 339.646H115.878C111.508 339.646 107.966 343.176 107.966 347.53C107.966 351.884 111.508 355.414 115.878 355.414H183.667C182.505 353.281 181.809 350.637 181.809 347.762Z" stroke="#1A2E35" stroke-width="0.802816" stroke-miterlimit="10" stroke-linecap="round"/>
<path d="M183.667 356.804H115.878C110.746 356.804 106.571 352.644 106.571 347.531C106.571 342.417 110.746 338.256 115.878 338.256H183.919C184.689 338.256 185.313 338.879 185.313 339.647C185.313 340.414 184.689 341.036 183.919 341.036H115.878C112.284 341.036 109.361 343.95 109.361 347.531C109.361 351.112 112.284 354.025 115.878 354.025H183.667C184.437 354.025 185.062 354.647 185.062 355.415C185.062 356.183 184.437 356.804 183.667 356.804Z" fill="#599BFE"/>
<path d="M183.667 356.804H115.878C110.746 356.804 106.571 352.644 106.571 347.531C106.571 342.417 110.746 338.256 115.878 338.256H183.919C184.689 338.256 185.313 338.879 185.313 339.647C185.313 340.414 184.689 341.036 183.919 341.036H115.878C112.284 341.036 109.361 343.95 109.361 347.531C109.361 351.112 112.284 354.025 115.878 354.025H183.667C184.437 354.025 185.062 354.647 185.062 355.415C185.062 356.183 184.437 356.804 183.667 356.804Z" stroke="#1A2E35" stroke-width="0.802816" stroke-miterlimit="10" stroke-linecap="round"/>
<path d="M174.455 339.646C173.137 341.851 172.345 344.679 172.345 347.762C172.345 350.636 173.042 353.281 174.204 355.414H183.667C182.505 353.281 181.808 350.636 181.808 347.762C181.808 344.679 182.6 341.851 183.918 339.646H174.455Z" fill="white"/>
<path d="M174.455 339.646C173.137 341.851 172.345 344.679 172.345 347.762C172.345 350.636 173.042 353.281 174.204 355.414H183.667C182.505 353.281 181.808 350.636 181.808 347.762C181.808 344.679 182.6 341.851 183.918 339.646H174.455Z" stroke="#1A2E35" stroke-width="0.802816" stroke-miterlimit="10" stroke-linecap="round"/>
</g>
</svg>
