<svg width="322" height="250" viewBox="0 0 322 250" fill="none" xmlns="http://www.w3.org/2000/svg">
<g clip-path="url(#clip0_659_47023)">
<path d="M118.207 184.024C82.4189 172.996 0.481926 147.102 16.105 74.4145C34.1231 -9.54948 133.387 47.3875 194.281 18.9791C237.381 -1.11854 327.351 -22.3122 320.745 68.4235C314.318 156.682 310.632 220.623 258.335 235.796C206.037 250.969 172.329 200.691 118.207 184.024Z" fill="#599BFE"/>
<path opacity="0.7" d="M118.207 184.024C82.4189 172.996 0.481926 147.102 16.105 74.4145C34.1231 -9.54948 133.387 47.3875 194.281 18.9791C237.381 -1.11854 327.351 -22.3122 320.745 68.4235C314.318 156.682 310.632 220.623 258.335 235.796C206.037 250.969 172.329 200.691 118.207 184.024Z" fill="white"/>
<path d="M10.2642 248.881H320.745" stroke="#263238" stroke-width="0.750751" stroke-linecap="round" stroke-linejoin="round"/>
<path d="M63.4023 163.296C67.9068 167.05 66.4053 189.122 80.4894 179.625C94.5735 170.128 70.5795 164.505 71.9459 159.122C73.8678 151.614 105.557 160.623 100.242 146.209C94.9264 131.794 75.9774 153.476 70.9999 148.108C66.4204 143.168 89.2282 125.315 78.5975 122.282C67.9669 119.249 70.2267 145.068 63.4023 145.068C58.072 145.068 59.0705 120.383 49.2732 129.114C39.4759 137.845 60.8873 146.457 58.087 151.877C55.9549 155.999 39.1005 145.826 39.8588 155.323C40.6171 164.82 58.5975 159.324 63.4023 163.296Z" fill="#599BFE"/>
<path d="M66.4054 152.005C66.4054 152.005 56.1651 164.415 57.3063 198.236" stroke="#263238" stroke-width="0.750751" stroke-linecap="round" stroke-linejoin="round"/>
<path d="M86.3977 169.595C84.5809 165.939 69.5133 163.439 78.1395 155.503C86.7656 147.568 86.7356 164.58 90.5719 164.512C95.9398 164.422 94.8962 141.674 103.755 147.545C112.614 153.416 95.0013 162.703 97.8242 166.9C100.414 170.766 116.045 158.273 116.398 165.909C116.751 173.544 99.7461 167.891 98.6575 172.493C97.8091 176.074 114.566 179.332 107.133 184.505C99.701 189.677 97.3212 173.942 93.2371 174.963C90.1215 175.713 94.2806 188.694 88.0193 186.667C81.7581 184.64 88.3046 173.424 86.3977 169.595Z" fill="#599BFE"/>
<path opacity="0.3" d="M86.3977 169.595C84.5809 165.939 69.5133 163.439 78.1395 155.503C86.7656 147.568 86.7356 164.58 90.5719 164.512C95.9398 164.422 94.8962 141.674 103.755 147.545C112.614 153.416 95.0013 162.703 97.8242 166.9C100.414 170.766 116.045 158.273 116.398 165.909C116.751 173.544 99.7461 167.891 98.6575 172.493C97.8091 176.074 114.566 179.332 107.133 184.505C99.701 189.677 97.3212 173.942 93.2371 174.963C90.1215 175.713 94.2806 188.694 88.0193 186.667C81.7581 184.64 88.3046 173.424 86.3977 169.595Z" fill="black"/>
<path d="M94.1832 169.752C94.1832 169.752 65.0015 166.712 62.1187 198.236" stroke="#263238" stroke-width="0.750751" stroke-linecap="round" stroke-linejoin="round"/>
<path d="M38.5074 166.337C34.0029 170.09 35.5044 192.162 21.4203 182.665C7.33625 173.168 31.3377 167.538 29.9639 162.162C28.0495 154.655 -3.64724 163.664 1.67559 149.249C6.99841 134.835 25.9323 156.524 30.9549 151.149C35.5269 146.216 12.7266 128.364 23.3573 125.323C33.9879 122.282 31.6981 148.116 38.545 148.116C43.8753 148.116 42.8843 123.424 52.6816 132.162C62.4789 140.901 41.06 149.505 43.8678 154.925C45.9924 159.047 62.8543 148.874 62.096 158.364C61.3378 167.853 43.2897 162.365 38.5074 166.337Z" fill="#599BFE"/>
<path opacity="0.3" d="M38.5074 166.337C34.0029 170.09 35.5044 192.162 21.4203 182.665C7.33625 173.168 31.3377 167.538 29.9639 162.162C28.0495 154.655 -3.64724 163.664 1.67559 149.249C6.99841 134.835 25.9323 156.524 30.9549 151.149C35.5269 146.216 12.7266 128.364 23.3573 125.323C33.9879 122.282 31.6981 148.116 38.545 148.116C43.8753 148.116 42.8843 123.424 52.6816 132.162C62.4789 140.901 41.06 149.505 43.8678 154.925C45.9924 159.047 62.8543 148.874 62.096 158.364C61.3378 167.853 43.2897 162.365 38.5074 166.337Z" fill="white"/>
<path d="M35.2793 155.045C35.2793 155.045 48.5676 172.793 51.6081 202.41" stroke="#263238" stroke-width="0.750751" stroke-linecap="round" stroke-linejoin="round"/>
<path d="M44.7912 248.754H65.5119C67.4355 248.762 69.2915 248.045 70.7095 246.745C72.1276 245.446 73.0033 243.659 73.1621 241.742L76.4203 203.454C76.5053 202.402 76.3716 201.344 76.0277 200.347C75.6837 199.349 75.137 198.434 74.4219 197.658C73.7067 196.882 72.8387 196.263 71.8725 195.839C70.9063 195.415 69.8628 195.196 68.8077 195.195H41.5329C40.4781 195.196 39.4349 195.415 38.469 195.839C37.5032 196.263 36.6356 196.882 35.9211 197.658C35.2066 198.434 34.6605 199.35 34.3175 200.347C33.9744 201.345 33.8417 202.402 33.9278 203.454L37.1861 241.742C37.3425 243.652 38.2113 245.433 39.6202 246.732C41.0291 248.031 42.8749 248.753 44.7912 248.754Z" fill="#599BFE" stroke="#263238" stroke-width="0.750751" stroke-linecap="round" stroke-linejoin="round"/>
<path d="M199.949 193.769C193.02 193.769 173.02 189.264 173.02 189.264H226.878C226.878 189.264 206.871 193.769 199.949 193.769Z" fill="#263238" stroke="#263238" stroke-width="0.750751" stroke-linecap="round" stroke-linejoin="round"/>
<path d="M206.12 191.509H193.778V199.97H206.12V191.509Z" fill="#858585" stroke="#263238" stroke-width="0.750751" stroke-linecap="round" stroke-linejoin="round"/>
<path d="M207.945 199.97H191.954V236.344H207.945V199.97Z" fill="#999999" stroke="#263238" stroke-width="0.750751" stroke-linecap="round" stroke-linejoin="round"/>
<path d="M229.987 178.461H219.559C220.715 171.299 221.571 164.001 222.096 156.772H232.487C231.991 164.001 231.143 171.299 229.987 178.461Z" fill="#858585" stroke="#263238" stroke-width="0.750751" stroke-linecap="round" stroke-linejoin="round"/>
<path d="M245.775 92.7026H200.97C195.715 92.7026 192.254 97.1546 193.275 102.395C196.136 118.403 197.847 134.596 198.395 150.848C198.39 151.957 198.605 153.056 199.028 154.081C199.452 155.106 200.074 156.036 200.86 156.818C201.646 157.601 202.579 158.219 203.606 158.638C204.632 159.056 205.732 159.267 206.841 159.257H244.559C246.903 159.233 249.161 158.373 250.928 156.831C252.694 155.29 253.851 153.168 254.191 150.848C256.009 134.765 256.667 118.572 256.158 102.395C255.91 97.1546 251.038 92.7026 245.775 92.7026Z" fill="#858585" stroke="#263238" stroke-width="0.750751" stroke-linecap="round" stroke-linejoin="round"/>
<path d="M248.215 102.395C248.724 118.572 248.066 134.765 246.248 150.848C245.908 153.168 244.751 155.29 242.985 156.831C241.219 158.373 238.96 159.233 236.616 159.257H206.841C205.732 159.267 204.633 159.056 203.606 158.638C202.579 158.219 201.646 157.601 200.86 156.818C200.074 156.036 199.452 155.106 199.029 154.081C198.605 153.056 198.39 151.957 198.395 150.848C197.85 134.596 196.141 118.403 193.282 102.395C192.261 97.1396 195.707 92.7026 200.978 92.7026H237.832C243.095 92.7026 247.967 97.1546 248.215 102.395Z" fill="#999999" stroke="#263238" stroke-width="0.750751" stroke-linecap="round" stroke-linejoin="round"/>
<path d="M226.878 242.875C226.879 243.075 226.834 243.272 226.748 243.453C226.661 243.633 226.536 243.791 226.38 243.917C226.225 244.042 226.043 244.131 225.849 244.177C225.654 244.223 225.452 244.224 225.257 244.182C220.354 243.116 205.677 240.022 199.949 240.022C194.221 240.022 179.536 243.116 174.634 244.182C174.439 244.224 174.237 244.223 174.043 244.177C173.849 244.131 173.667 244.042 173.512 243.917C173.357 243.791 173.233 243.632 173.147 243.452C173.062 243.272 173.018 243.075 173.02 242.875C173.019 242.073 173.294 241.294 173.798 240.67C174.302 240.045 175.005 239.613 175.79 239.444C181.526 238.213 194.611 235.533 199.949 235.533C205.287 235.533 218.372 238.213 224.108 239.444C224.892 239.614 225.595 240.047 226.099 240.671C226.603 241.295 226.878 242.073 226.878 242.875Z" fill="#263238" stroke="#263238" stroke-width="0.750751" stroke-linecap="round" stroke-linejoin="round"/>
<path d="M173.012 240.173C172.1 240.171 171.208 240.44 170.448 240.946C169.689 241.452 169.097 242.172 168.747 243.015C168.398 243.857 168.306 244.785 168.483 245.68C168.661 246.575 169.1 247.397 169.745 248.042C170.39 248.687 171.212 249.126 172.107 249.304C173.002 249.481 173.93 249.389 174.772 249.04C175.615 248.69 176.335 248.098 176.841 247.338C177.346 246.579 177.616 245.687 177.614 244.775C177.612 243.555 177.127 242.385 176.264 241.523C175.401 240.66 174.232 240.175 173.012 240.173ZM173.012 247.275C172.517 247.276 172.033 247.131 171.621 246.857C171.209 246.583 170.887 246.193 170.697 245.737C170.507 245.28 170.456 244.777 170.552 244.292C170.647 243.806 170.885 243.36 171.234 243.01C171.584 242.659 172.029 242.42 172.514 242.323C172.999 242.226 173.502 242.275 173.96 242.464C174.417 242.653 174.808 242.974 175.083 243.385C175.358 243.796 175.505 244.28 175.505 244.775C175.505 245.436 175.242 246.071 174.775 246.54C174.308 247.008 173.674 247.273 173.012 247.275Z" fill="#858585" stroke="#263238" stroke-width="0.750751" stroke-linecap="round" stroke-linejoin="round"/>
<path d="M199.949 240.173C199.035 240.17 198.141 240.438 197.38 240.945C196.619 241.451 196.026 242.172 195.676 243.017C195.326 243.861 195.235 244.79 195.414 245.686C195.593 246.582 196.035 247.405 196.683 248.05C197.33 248.694 198.155 249.132 199.052 249.307C199.949 249.482 200.878 249.386 201.721 249.032C202.563 248.677 203.281 248.081 203.784 247.317C204.287 246.554 204.551 245.659 204.544 244.745C204.534 243.531 204.046 242.371 203.186 241.515C202.325 240.659 201.162 240.177 199.949 240.173ZM199.949 247.275C199.455 247.276 198.973 247.132 198.561 246.859C198.15 246.587 197.828 246.198 197.637 245.743C197.446 245.289 197.393 244.787 197.487 244.303C197.58 243.818 197.814 243.372 198.161 243.02C198.507 242.669 198.95 242.428 199.433 242.327C199.916 242.227 200.418 242.271 200.876 242.456C201.334 242.64 201.726 242.956 202.005 243.363C202.284 243.771 202.436 244.251 202.441 244.745C202.445 245.075 202.384 245.403 202.261 245.709C202.137 246.015 201.954 246.294 201.723 246.529C201.491 246.764 201.215 246.951 200.91 247.079C200.606 247.207 200.279 247.274 199.949 247.275Z" fill="#858585" stroke="#263238" stroke-width="0.750751" stroke-linecap="round" stroke-linejoin="round"/>
<path d="M226.315 240.173C225.403 240.173 224.512 240.443 223.754 240.95C222.995 241.457 222.405 242.177 222.056 243.02C221.707 243.863 221.616 244.79 221.795 245.684C221.973 246.579 222.413 247.4 223.059 248.044C223.704 248.689 224.526 249.127 225.421 249.304C226.315 249.481 227.242 249.389 228.085 249.039C228.927 248.689 229.646 248.097 230.152 247.338C230.657 246.579 230.927 245.687 230.925 244.775C230.925 244.17 230.806 243.571 230.574 243.012C230.342 242.453 230.003 241.945 229.574 241.518C229.146 241.09 228.638 240.752 228.079 240.521C227.52 240.29 226.92 240.172 226.315 240.173ZM226.315 247.275C225.821 247.275 225.338 247.128 224.926 246.853C224.515 246.579 224.195 246.188 224.006 245.731C223.817 245.275 223.767 244.772 223.863 244.287C223.96 243.802 224.198 243.357 224.548 243.007C224.897 242.657 225.343 242.419 225.828 242.323C226.313 242.226 226.815 242.276 227.272 242.465C227.729 242.654 228.119 242.975 228.394 243.386C228.669 243.797 228.815 244.28 228.815 244.775C228.815 245.438 228.552 246.074 228.083 246.542C227.614 247.011 226.978 247.275 226.315 247.275Z" fill="#858585" stroke="#263238" stroke-width="0.750751" stroke-linecap="round" stroke-linejoin="round"/>
<path d="M213.598 177.004C195.623 177.575 177.631 176.779 159.776 174.625C158.952 174.476 158.105 174.513 157.297 174.732C156.489 174.952 155.74 175.35 155.105 175.896C154.47 176.441 153.965 177.122 153.626 177.888C153.287 178.654 153.124 179.486 153.147 180.323V181.201C153.191 183.046 153.877 184.817 155.087 186.21C156.298 187.602 157.956 188.528 159.776 188.829C177.631 190.98 195.623 191.775 213.598 191.209V177.004Z" fill="#999999" stroke="#263238" stroke-width="0.750751" stroke-linecap="round" stroke-linejoin="round"/>
<path d="M241.826 188.596C230.67 189.992 219.611 190.916 208.38 191.396C207.733 191.416 207.089 191.306 206.485 191.071C205.882 190.837 205.332 190.483 204.869 190.031C204.406 189.578 204.038 189.038 203.789 188.44C203.54 187.843 203.413 187.201 203.418 186.554V182.237C203.431 180.918 203.956 179.656 204.881 178.716C205.807 177.776 207.061 177.233 208.38 177.2C219.641 176.712 230.67 175.788 241.826 174.392C242.437 174.277 243.066 174.301 243.667 174.461C244.267 174.621 244.824 174.914 245.297 175.319C245.769 175.723 246.145 176.227 246.397 176.796C246.648 177.364 246.769 177.982 246.751 178.603V182.92C246.715 184.29 246.204 185.605 245.305 186.64C244.407 187.676 243.177 188.367 241.826 188.596Z" fill="#858585" stroke="#263238" stroke-width="0.750751" stroke-linecap="round" stroke-linejoin="round"/>
<path d="M167.134 246.997C167.134 244.489 166.586 239.489 163.628 232.995L159.776 219.106L147.764 224.234L151.143 234.872C151.143 234.872 140.82 239.797 137.006 241.126C134.469 242.012 126.871 243.754 127.246 247.012C127.246 247.242 127.292 247.469 127.379 247.681C127.467 247.893 127.596 248.086 127.759 248.249C127.921 248.411 128.114 248.54 128.326 248.628C128.538 248.716 128.766 248.761 128.996 248.761H165.377C165.609 248.762 165.838 248.717 166.052 248.629C166.266 248.54 166.461 248.41 166.624 248.246C166.788 248.082 166.917 247.887 167.004 247.673C167.092 247.458 167.136 247.228 167.134 246.997Z" fill="white" stroke="#263238" stroke-width="0.750751" stroke-linecap="round" stroke-linejoin="round"/>
<path d="M160.52 238.866C158.643 240.248 148.635 241.997 151.143 239.992C153.65 237.988 151.143 234.865 151.143 234.865C151.143 234.865 140.82 239.79 137.006 241.119C134.469 242.004 126.871 243.746 127.246 247.004C127.246 247.234 127.292 247.462 127.379 247.674C127.467 247.886 127.596 248.079 127.759 248.241C127.921 248.404 128.114 248.533 128.326 248.62C128.538 248.708 128.766 248.754 128.996 248.754H165.377C165.608 248.755 165.837 248.71 166.051 248.621C166.265 248.533 166.459 248.402 166.621 248.238C166.784 248.074 166.913 247.879 166.999 247.665C167.086 247.45 167.129 247.221 167.126 246.989C167.003 243.186 166.226 239.433 164.829 235.893C162.764 235.916 162.396 237.492 160.52 238.866Z" fill="#599BFE" stroke="#263238" stroke-width="0.750751" stroke-linecap="round" stroke-linejoin="round"/>
<path d="M175.82 248.754H202.471C202.738 248.753 202.996 248.66 203.202 248.49C203.407 248.32 203.547 248.084 203.598 247.823C204.003 245.706 203.913 240.968 201.511 234.677L201.27 221.914L187.622 224.234L189.348 235.12C189.348 235.12 183.853 241.171 181.24 242.252C179.408 243.003 175.234 243.093 174.679 247.507C174.664 247.666 174.683 247.826 174.733 247.976C174.784 248.127 174.866 248.266 174.973 248.383C175.081 248.501 175.212 248.594 175.357 248.658C175.503 248.722 175.661 248.754 175.82 248.754Z" fill="white" stroke="#263238" stroke-width="0.750751" stroke-linecap="round" stroke-linejoin="round"/>
<path d="M197.036 238.919C194.221 240.886 192.141 241.119 193.455 238.168C194.769 235.218 189.378 235.113 189.378 235.113C189.378 235.113 183.883 241.164 181.27 242.245C179.438 242.996 175.264 243.086 174.709 247.5C174.69 247.661 174.705 247.824 174.753 247.978C174.802 248.133 174.883 248.275 174.991 248.396C175.099 248.517 175.231 248.613 175.38 248.678C175.528 248.744 175.688 248.777 175.85 248.776H202.502C202.768 248.776 203.026 248.683 203.232 248.513C203.437 248.343 203.577 248.107 203.628 247.845C204.033 245.728 203.943 240.991 201.541 234.7C199.453 235.18 199.829 236.944 197.036 238.919Z" fill="#599BFE" stroke="#263238" stroke-width="0.750751" stroke-linecap="round" stroke-linejoin="round"/>
<path d="M173.17 151.284C173.17 151.284 170.482 154.032 159.499 155.788C148.515 157.545 125.715 163.041 125.993 172.05C126.27 181.059 147.269 229.107 147.269 229.107C147.269 229.107 157.779 227.11 162.659 224.107C162.659 224.107 154.198 189.82 147.854 180.811C147.854 180.811 176.33 177.305 192.081 170.803C207.832 164.302 198.568 149.482 198.568 149.482L173.17 151.284Z" fill="#263238" stroke="#263238" stroke-width="0.750751" stroke-linecap="round" stroke-linejoin="round"/>
<path d="M191.03 150.015C191.03 150.015 195.069 156.772 192.051 160.525C189.033 164.279 171.893 171.284 173.83 179.797C175.767 188.311 182.164 200.315 186.33 228.844C186.33 228.844 196.038 227.342 202.539 224.587C202.539 224.587 203.62 195.563 196.075 183.048C196.075 183.048 217.682 179.046 219.874 171.787C222.066 164.527 217.967 153.431 217.884 149.467L191.03 150.015Z" fill="#263238" stroke="#263238" stroke-width="0.750751" stroke-linecap="round" stroke-linejoin="round"/>
<path d="M178.042 160.766C177.542 160.728 177.041 160.728 176.541 160.766" stroke="#7F7F7F" stroke-width="0.563063" stroke-linecap="round" stroke-linejoin="round"/>
<path d="M179.018 156.284C179.018 156.284 183.455 157.59 185.197 163.378C185.219 163.473 185.212 163.573 185.174 163.664C185.137 163.754 185.072 163.83 184.989 163.882C184.906 163.933 184.809 163.957 184.711 163.95C184.614 163.944 184.521 163.906 184.446 163.844C183.257 162.62 181.792 161.699 180.174 161.156" stroke="#7F7F7F" stroke-width="0.563063" stroke-linecap="round" stroke-linejoin="round"/>
<path d="M145.767 180.496C145.767 178.056 135.257 176.742 138.072 174.49C140.887 172.237 147.269 179.557 147.269 179.557" stroke="#7F7F7F" stroke-width="0.563063" stroke-linecap="round" stroke-linejoin="round"/>
<path d="M197.412 190.255C197.412 187.462 187.367 185.938 187.87 182.935C188.373 179.932 194.754 185.848 194.754 185.848" stroke="#7F7F7F" stroke-width="0.563063" stroke-linecap="round" stroke-linejoin="round"/>
<path d="M146.158 229.279L147.261 231.832C147.322 231.973 147.431 232.089 147.568 232.158C147.705 232.228 147.862 232.248 148.012 232.215C150.437 231.667 160.557 229.279 164.108 226.727C164.211 226.651 164.289 226.546 164.332 226.426C164.375 226.305 164.381 226.175 164.349 226.051L163.658 223.206C163.635 223.107 163.589 223.016 163.524 222.938C163.46 222.861 163.378 222.799 163.286 222.758C163.193 222.717 163.093 222.699 162.992 222.703C162.891 222.708 162.793 222.736 162.704 222.785C161.105 223.656 156.653 225.736 146.601 228.378C146.509 228.403 146.424 228.447 146.35 228.508C146.277 228.568 146.217 228.643 146.175 228.729C146.134 228.814 146.11 228.907 146.107 229.002C146.104 229.097 146.121 229.191 146.158 229.279Z" fill="#999999" stroke="#263238" stroke-width="0.750751" stroke-linecap="round" stroke-linejoin="round"/>
<path d="M185.137 227.177C185.124 227.089 185.134 226.999 185.166 226.916C185.198 226.833 185.251 226.76 185.32 226.704C185.389 226.647 185.471 226.609 185.558 226.593C185.646 226.578 185.736 226.585 185.82 226.614C187.04 226.995 188.344 227.013 189.574 226.667C192.359 226.036 200.324 223.514 202.697 222.755C202.775 222.73 202.857 222.724 202.938 222.737C203.018 222.751 203.095 222.783 203.161 222.831C203.227 222.879 203.28 222.943 203.317 223.015C203.354 223.088 203.373 223.169 203.372 223.251V226.569C203.373 226.669 203.345 226.768 203.29 226.852C203.235 226.936 203.157 227.002 203.065 227.042C201.203 227.875 191.225 232.147 186.008 230.984C185.906 230.96 185.814 230.905 185.744 230.827C185.674 230.749 185.63 230.652 185.617 230.548L185.137 227.177Z" fill="#999999" stroke="#263238" stroke-width="0.750751" stroke-linecap="round" stroke-linejoin="round"/>
<path d="M193.17 157.658C193.097 158.695 192.718 159.688 192.081 160.511C189.874 163.251 180.167 167.718 175.82 173.273" stroke="#7F7F7F" stroke-width="0.750751" stroke-linecap="round" stroke-linejoin="round"/>
<path d="M192.697 153.904C192.865 154.457 192.993 155.021 193.08 155.593" stroke="#7F7F7F" stroke-width="0.750751" stroke-linecap="round" stroke-linejoin="round"/>
<path d="M135.204 242.808C135.817 243.924 136.26 245.126 136.518 246.374H163.628C163.728 245.192 164.263 244.09 165.129 243.281" stroke="#263238" stroke-width="0.750751" stroke-linecap="round" stroke-linejoin="round"/>
<path d="M182.314 242.808C182.314 242.808 186.068 243.093 187.472 246.374H201.646C202.073 245.394 202.328 244.347 202.397 243.281" stroke="#263238" stroke-width="0.750751" stroke-linecap="round" stroke-linejoin="round"/>
<path d="M160.092 108.859C160.437 110.18 160.797 111.494 161.158 112.778C164.911 126.291 169.791 152.004 169.791 152.004C193.815 157.072 219.153 152.004 219.153 152.004C219.288 146.404 218.605 139.009 217.847 131.239C221.781 130.15 224.604 126.517 224.784 120.473C224.971 113.153 223.643 99.9775 222.907 93.8213C222.254 88.4084 222.719 85.1877 214.333 81.0585C210.129 78.6336 203.147 77.485 194.566 76.3363C177.674 74.0841 165.482 77.5 161.158 79.3393C157.727 78.4384 156.773 82.4624 156.773 82.4624C154.874 81.0285 152.667 87.1096 152.667 87.1096C147.111 94.1967 142.742 106.134 141.285 110.383C140.963 111.312 140.373 112.124 139.589 112.718C135.647 115.721 137.839 119.437 137.839 119.437L145.91 121.907C145.91 121.907 149.821 122.928 152.809 117.785C155.302 113.491 159.386 106.201 160.092 108.859Z" fill="#599BFE"/>
<mask id="mask0_659_47023" style="mask-type:luminance" maskUnits="userSpaceOnUse" x="137" y="75" width="88" height="80">
<path d="M160.092 108.859C160.437 110.18 160.797 111.494 161.158 112.778C164.911 126.291 169.791 152.004 169.791 152.004C193.815 157.072 219.153 152.004 219.153 152.004C219.288 146.404 218.605 139.009 217.847 131.239C221.781 130.15 224.604 126.517 224.784 120.473C224.971 113.153 223.643 99.9775 222.907 93.8213C222.254 88.4084 222.719 85.1877 214.333 81.0585C210.129 78.6336 203.147 77.485 194.566 76.3363C177.674 74.0841 165.482 77.5 161.158 79.3393C157.727 78.4384 156.773 82.4624 156.773 82.4624C154.874 81.0285 152.667 87.1096 152.667 87.1096C147.111 94.1967 142.742 106.134 141.285 110.383C140.963 111.312 140.373 112.124 139.589 112.718C135.647 115.721 137.839 119.437 137.839 119.437L145.91 121.907C145.91 121.907 149.821 122.928 152.809 117.785C155.302 113.491 159.386 106.201 160.092 108.859Z" fill="white"/>
</mask>
<g mask="url(#mask0_659_47023)">
<path opacity="0.3" d="M147.396 118.521C147.396 118.521 147.209 114.767 144.206 114.114C141.203 113.461 145.046 112.335 147.396 112.898C149.746 113.461 149.198 111.396 151.21 108.018C153.222 104.64 154.213 101.967 155.91 103.911C157.607 105.856 159.371 106.164 160.092 108.821C160.812 111.479 157.246 117.83 157.246 117.83L151.646 122.177L148.8 123.769H144.559L143.102 120.097L147.396 118.521Z" fill="black"/>
</g>
<path d="M160.092 108.859C160.437 110.18 160.797 111.494 161.158 112.778C164.911 126.291 169.791 152.004 169.791 152.004C193.815 157.072 219.153 152.004 219.153 152.004C219.288 146.404 218.605 139.009 217.847 131.239C221.781 130.15 224.604 126.517 224.784 120.473C224.971 113.153 223.643 99.9775 222.907 93.8213C222.254 88.4084 222.719 85.1877 214.333 81.0585C210.129 78.6336 203.147 77.485 194.566 76.3363C177.674 74.0841 165.482 77.5 161.158 79.3393C157.727 78.4384 156.773 82.4624 156.773 82.4624C154.874 81.0285 152.667 87.1096 152.667 87.1096C147.111 94.1967 142.742 106.134 141.285 110.383C140.963 111.312 140.373 112.124 139.589 112.718C135.647 115.721 137.839 119.437 137.839 119.437L145.91 121.907C145.91 121.907 149.821 122.928 152.809 117.785C155.302 113.491 159.386 106.201 160.092 108.859Z" stroke="#263238" stroke-width="0.750751" stroke-linecap="round" stroke-linejoin="round"/>
<path opacity="0.3" d="M219.153 151.967C219.172 147.143 218.934 142.321 218.44 137.523C219.258 148.956 195.452 152.538 194.701 146.336C193.951 140.135 217.847 131.201 204.844 134.324C193.5 137.05 171.511 134.444 166.105 133.739C168.185 143.499 169.791 151.967 169.791 151.967C193.815 157.035 219.153 151.967 219.153 151.967Z" fill="black"/>
<path opacity="0.3" d="M208.237 94.5344C208.237 94.5344 204.836 104.482 204.844 109.737C204.851 114.992 195.317 118.521 195.294 118.521C200.407 117.485 205.377 116.111 207.749 115.42C208.158 115.305 208.514 115.05 208.755 114.701C208.996 114.352 209.108 113.929 209.071 113.506C208.465 107.201 208.187 100.868 208.237 94.5344Z" fill="black"/>
<path d="M156.946 92.0344C156.978 96.7217 157.824 101.368 159.446 105.766C159.493 105.895 159.498 106.035 159.459 106.167C159.421 106.299 159.342 106.415 159.233 106.499C159.124 106.582 158.992 106.629 158.854 106.632C158.717 106.636 158.583 106.595 158.47 106.516C157.179 105.593 155.354 103.716 153.71 99.9323" stroke="#263238" stroke-width="0.563063" stroke-linecap="round" stroke-linejoin="round"/>
<path d="M220.655 122.688C218.673 116.119 215.242 114.474 212.584 114.309C212.502 114.298 212.425 114.262 212.363 114.207C212.302 114.151 212.258 114.079 212.237 113.999C212.216 113.919 212.219 113.834 212.246 113.756C212.273 113.677 212.323 113.609 212.389 113.559C213.936 112.725 216.946 112.057 220.647 116.156" stroke="#263238" stroke-width="0.563063" stroke-linecap="round" stroke-linejoin="round"/>
<path d="M182.569 103.889C182.537 104.165 182.405 104.42 182.197 104.605C181.989 104.79 181.721 104.892 181.443 104.892C181.165 104.892 180.896 104.79 180.689 104.605C180.481 104.42 180.349 104.165 180.317 103.889C180.298 103.73 180.314 103.569 180.362 103.417C180.41 103.264 180.49 103.124 180.597 103.004C180.703 102.885 180.833 102.79 180.979 102.724C181.125 102.659 181.283 102.625 181.443 102.625C181.603 102.625 181.761 102.659 181.907 102.724C182.053 102.79 182.183 102.885 182.289 103.004C182.396 103.124 182.476 103.264 182.524 103.417C182.572 103.569 182.587 103.73 182.569 103.889Z" fill="#999999" stroke="#263238" stroke-width="0.563063" stroke-linecap="round" stroke-linejoin="round"/>
<path d="M184.093 116.667C184.093 116.889 184.027 117.107 183.904 117.292C183.78 117.477 183.604 117.622 183.398 117.707C183.192 117.792 182.966 117.815 182.748 117.771C182.529 117.728 182.328 117.62 182.171 117.463C182.013 117.305 181.906 117.105 181.863 116.886C181.819 116.668 181.842 116.441 181.927 116.236C182.012 116.03 182.156 115.854 182.342 115.73C182.527 115.607 182.744 115.541 182.967 115.541C183.266 115.541 183.552 115.659 183.763 115.87C183.975 116.082 184.093 116.368 184.093 116.667Z" fill="#999999" stroke="#263238" stroke-width="0.563063" stroke-linecap="round" stroke-linejoin="round"/>
<path d="M187.87 147.462C187.871 147.687 187.806 147.907 187.682 148.094C187.559 148.282 187.382 148.428 187.175 148.515C186.968 148.602 186.74 148.625 186.519 148.583C186.299 148.54 186.096 148.432 185.937 148.274C185.778 148.116 185.669 147.914 185.625 147.694C185.58 147.474 185.602 147.245 185.688 147.038C185.773 146.83 185.919 146.653 186.105 146.528C186.292 146.403 186.511 146.336 186.736 146.336C187.035 146.336 187.322 146.455 187.535 146.666C187.747 146.877 187.868 147.163 187.87 147.462Z" fill="#999999" stroke="#263238" stroke-width="0.750751" stroke-linecap="round" stroke-linejoin="round"/>
<path d="M166.308 125.037C166.308 125.037 162.622 128.551 164.378 128.611C166.135 128.671 168.35 126.254 170.384 125.976C172.419 125.698 169.131 124.474 169.131 124.474L166.308 125.037Z" fill="white" stroke="#263238" stroke-width="0.750751" stroke-linecap="round" stroke-linejoin="round"/>
<path d="M187.832 121.081C187.667 120.933 187.473 120.821 187.262 120.751C187.052 120.681 186.829 120.655 186.608 120.676C184.806 120.826 179.626 121.216 177.674 121.096C174.206 120.878 163.988 118.716 163.988 118.716C163.753 118.676 163.512 118.689 163.282 118.754L156.954 120.616C156.723 120.682 156.512 120.803 156.338 120.968L152.509 124.482C152.383 124.6 152.277 124.736 152.194 124.887L151.398 126.344C151.234 126.643 151.172 126.988 151.222 127.325C151.272 127.663 151.432 127.975 151.676 128.213L157.997 128.378C158.388 128.397 158.77 128.262 159.063 128.003L160.94 126.396C161.065 126.288 161.174 126.161 161.263 126.021C161.721 125.27 163.515 122.793 166.293 123.018C166.293 123.018 160.287 126.209 161.421 127.522C162.554 128.836 167.149 125.083 168.65 125.458C170.152 125.833 170.249 129.519 178.41 128.183C178.775 128.121 179.149 128.139 179.506 128.236L186.939 130.315C187.159 130.376 187.389 130.393 187.616 130.364C187.843 130.335 188.062 130.261 188.26 130.146C188.457 130.031 188.63 129.878 188.768 129.696C188.906 129.514 189.007 129.306 189.063 129.084C189.641 126.952 190.152 123.198 187.832 121.081Z" fill="white" stroke="#263238" stroke-width="0.750751" stroke-linecap="round" stroke-linejoin="round"/>
<path d="M164.874 120.06L163.282 120.33C162.506 120.462 161.782 120.805 161.188 121.321L159.499 122.77C159.211 123.029 158.959 123.324 158.748 123.649L157.659 125.308C157.541 125.491 157.408 125.664 157.261 125.826C156.616 126.577 154.836 128.656 156.758 128.371" fill="white"/>
<path d="M164.874 120.06L163.282 120.33C162.506 120.462 161.782 120.805 161.188 121.321L159.499 122.77C159.211 123.029 158.959 123.324 158.748 123.649L157.659 125.308C157.541 125.491 157.408 125.664 157.261 125.826C156.616 126.577 154.836 128.656 156.758 128.371" stroke="#263238" stroke-width="0.750751" stroke-linecap="round" stroke-linejoin="round"/>
<path d="M160.392 120.623L158.748 121.074C158.234 121.199 157.763 121.458 157.381 121.824L156.098 123.055C155.971 123.168 155.858 123.293 155.76 123.431L153.65 126.231C153.65 126.231 152.524 128.213 153.65 128.251" fill="white"/>
<path d="M160.392 120.623L158.748 121.074C158.234 121.199 157.763 121.458 157.381 121.824L156.098 123.055C155.971 123.168 155.858 123.293 155.76 123.431L153.65 126.231C153.65 126.231 152.524 128.213 153.65 128.251" stroke="#263238" stroke-width="0.750751" stroke-linecap="round" stroke-linejoin="round"/>
<path d="M208.297 92.9429C208.138 99.8061 208.389 106.673 209.048 113.506C209.085 113.929 208.973 114.352 208.732 114.701C208.491 115.051 208.135 115.305 207.727 115.42C201.758 117.185 195.678 118.552 189.529 119.512" stroke="#263238" stroke-width="0.750751" stroke-linecap="round" stroke-linejoin="round"/>
<path d="M208.658 88.2883C208.56 89.0391 208.478 89.8574 208.417 90.6907" stroke="#263238" stroke-width="0.563063" stroke-linecap="round" stroke-linejoin="round"/>
<path d="M211.173 81.2612C210.317 82.012 209.671 83.3708 209.228 85.1726" stroke="#263238" stroke-width="0.563063" stroke-linecap="round" stroke-linejoin="round"/>
<path d="M173.583 76.8017C173.583 76.8017 174.056 75.3002 176.586 74.4519C179.116 73.6035 187.892 72.2597 192.404 74.4519C196.916 76.6441 188.275 88.5735 188.275 88.5735L184.273 94.114L180.707 96.7867L179.116 92.0345L177.051 89.8873C177.051 89.8873 172.592 86.2312 172.967 82.62C173.342 79.0089 173.583 76.8017 173.583 76.8017Z" fill="white"/>
<path d="M195.737 76.4865C195.032 74.0165 191.811 73.3259 191.811 73.3259C176.421 70.6982 173.17 76.3289 173.17 76.3289C171.283 81.4147 171.283 87.0088 173.17 92.0946C173.17 92.0946 177.547 90.2778 178.298 92.0946C179.048 93.9114 180.422 97.7853 180.422 97.7853C182.511 96.6078 184.334 95.0102 185.775 93.0931C188.155 89.9625 193.74 93.0931 193.74 93.0931C197.359 86.8394 195.737 76.4865 195.737 76.4865ZM191.984 76.3063C186.023 95.015 180.767 95.8259 180.767 95.8259C179.018 88.949 177.517 90.4505 175.137 86.1487C173.23 82.6952 173.876 78.3259 174.206 76.7268C174.245 76.5359 174.325 76.3561 174.442 76.2002C174.559 76.0444 174.709 75.9165 174.882 75.8259C180.798 72.8228 188.035 73.9265 191.015 74.5796C191.2 74.6178 191.374 74.6945 191.527 74.8047C191.679 74.915 191.807 75.0562 191.901 75.2193C191.996 75.3823 192.054 75.5634 192.074 75.7508C192.093 75.9381 192.073 76.1274 192.014 76.3063H191.984Z" fill="#599BFE"/>
<mask id="mask1_659_47023" style="mask-type:luminance" maskUnits="userSpaceOnUse" x="171" y="72" width="26" height="26">
<path d="M195.737 76.4865C195.032 74.0165 191.811 73.3259 191.811 73.3259C176.421 70.6982 173.17 76.3289 173.17 76.3289C171.283 81.4147 171.283 87.0088 173.17 92.0946C173.17 92.0946 177.547 90.2778 178.298 92.0946C179.048 93.9114 180.422 97.7853 180.422 97.7853C182.511 96.6078 184.334 95.0102 185.775 93.0931C188.155 89.9625 193.74 93.0931 193.74 93.0931C197.359 86.8394 195.737 76.4865 195.737 76.4865ZM191.984 76.3063C186.023 95.015 180.767 95.8259 180.767 95.8259C179.018 88.949 177.517 90.4505 175.137 86.1487C173.23 82.6952 173.876 78.3259 174.206 76.7268C174.245 76.5359 174.325 76.3561 174.442 76.2002C174.559 76.0444 174.709 75.9165 174.882 75.8259C180.798 72.8228 188.035 73.9265 191.015 74.5796C191.2 74.6178 191.374 74.6945 191.527 74.8047C191.679 74.915 191.807 75.0562 191.901 75.2193C191.996 75.3823 192.054 75.5634 192.074 75.7508C192.093 75.9381 192.073 76.1274 192.014 76.3063H191.984Z" fill="white"/>
</mask>
<g mask="url(#mask1_659_47023)">
<path opacity="0.4" d="M195.737 76.4865C195.032 74.0165 191.811 73.3259 191.811 73.3259C176.421 70.6982 173.17 76.3289 173.17 76.3289C171.283 81.4147 171.283 87.0088 173.17 92.0946C173.17 92.0946 177.547 90.2778 178.298 92.0946C179.048 93.9114 180.422 97.7853 180.422 97.7853C182.511 96.6078 184.334 95.0102 185.775 93.0931C188.155 89.9625 193.74 93.0931 193.74 93.0931C197.359 86.8394 195.737 76.4865 195.737 76.4865ZM191.984 76.3063C186.023 95.015 180.767 95.8259 180.767 95.8259C179.018 88.949 177.517 90.4505 175.137 86.1487C173.23 82.6952 173.876 78.3259 174.206 76.7268C174.245 76.5359 174.325 76.3561 174.442 76.2002C174.559 76.0444 174.709 75.9165 174.882 75.8259C180.798 72.8228 188.035 73.9265 191.015 74.5796C191.2 74.6178 191.374 74.6945 191.527 74.8047C191.679 74.915 191.807 75.0562 191.901 75.2193C191.996 75.3823 192.054 75.5634 192.074 75.7508C192.093 75.9381 192.073 76.1274 192.014 76.3063H191.984Z" fill="white"/>
</g>
<path d="M195.737 76.4865C195.032 74.0165 191.811 73.3259 191.811 73.3259C176.421 70.6982 173.17 76.3289 173.17 76.3289C171.283 81.4147 171.283 87.0088 173.17 92.0946C173.17 92.0946 177.547 90.2778 178.298 92.0946C179.048 93.9114 180.422 97.7853 180.422 97.7853C182.511 96.6078 184.334 95.0102 185.775 93.0931C188.155 89.9625 193.74 93.0931 193.74 93.0931C197.359 86.8394 195.737 76.4865 195.737 76.4865ZM191.984 76.3063C186.023 95.015 180.767 95.8259 180.767 95.8259C179.018 88.949 177.517 90.4505 175.137 86.1487C173.23 82.6952 173.876 78.3259 174.206 76.7268C174.245 76.5359 174.325 76.3561 174.442 76.2002C174.559 76.0444 174.709 75.9165 174.882 75.8259C180.798 72.8228 188.035 73.9264 191.015 74.5796C191.2 74.6178 191.374 74.6945 191.527 74.8047C191.679 74.915 191.807 75.0562 191.901 75.2193C191.996 75.3823 192.054 75.5634 192.074 75.7508C192.093 75.9381 192.073 76.1274 192.014 76.3063H191.984Z" stroke="#263238" stroke-width="0.750751" stroke-linecap="round" stroke-linejoin="round"/>
<path d="M170.61 47.8979C170.61 47.8979 157.344 50.5556 164.649 59.1592C172.749 68.7463 170.61 47.8979 170.61 47.8979Z" fill="#263238" stroke="#263238" stroke-width="0.750751" stroke-linecap="round" stroke-linejoin="round"/>
<path d="M165.377 68.949C165.377 68.949 162.224 56.1862 168.23 50.0526C174.236 43.9189 180.745 42.6727 185.625 45.6757C190.505 48.6787 192.532 56.1862 191.781 60.0601C191.03 63.934 191.391 77.8228 184.701 83.5811C178.012 89.3394 173.898 87.9204 169.476 80.0751C166.541 74.9325 165.152 73.4535 165.377 68.949Z" fill="white" stroke="#263238" stroke-width="0.750751" stroke-linecap="round" stroke-linejoin="round"/>
<path d="M188.628 66.4489C188.628 66.4489 183.583 61.4414 182.036 55.563C180.49 49.6846 179.619 48.6786 173.86 51.554C168.102 54.4294 159.123 50.563 161.473 43.2957C163.943 35.6681 171.488 45.548 178.74 43.048C185.993 40.548 191.15 45.0525 191.158 51.6816C191.158 51.6816 195.542 55.9384 191.158 66.9444L188.628 66.4489Z" fill="#263238" stroke="#263238" stroke-width="0.750751" stroke-linecap="round" stroke-linejoin="round"/>
<path d="M187.044 65.608C187.044 65.608 188.32 58.611 191.864 59.2567C195.407 59.9023 192.877 70.2327 188.703 69.1065" fill="white"/>
<path d="M187.044 65.608C187.044 65.608 188.32 58.611 191.864 59.2567C195.407 59.9023 192.877 70.2327 188.703 69.1065" stroke="#263238" stroke-width="0.750751" stroke-linecap="round" stroke-linejoin="round"/>
<path d="M170.174 67.9805C170.174 67.9805 168.778 74.4745 169.236 75.5856C169.694 76.6967 173.981 75.8483 173.981 75.8483" fill="white"/>
<path d="M170.174 67.9805C170.174 67.9805 168.778 74.4745 169.236 75.5856C169.694 76.6967 173.981 75.8483 173.981 75.8483" stroke="#263238" stroke-width="0.750751" stroke-linecap="round" stroke-linejoin="round"/>
<path d="M174.581 78.6786C174.581 78.6786 177.945 80.0074 180.91 75.5854L174.581 78.6786Z" fill="white"/>
<path d="M174.581 78.6785C174.581 78.6785 177.945 80.0074 180.91 75.5854" stroke="#263238" stroke-width="0.750751" stroke-linecap="round" stroke-linejoin="round"/>
<path d="M167.869 68.521C167.99 69.1216 167.832 69.6696 167.517 69.7372C167.201 69.8048 166.833 69.3693 166.706 68.7612C166.578 68.1531 166.706 67.6126 167.059 67.545C167.412 67.4774 167.757 67.9129 167.869 68.521Z" fill="#263238"/>
<path d="M176.098 67.8603C176.225 68.4609 176.098 69.009 175.745 69.0765C175.392 69.1441 175.069 68.7012 174.942 68.1006C174.814 67.5 174.942 66.9519 175.295 66.8844C175.647 66.8168 176.015 67.2522 176.098 67.8603Z" fill="#263238"/>
<path d="M169.596 68.2357C169.769 69.9399 168.095 71.5015 165.782 71.7267C163.47 71.9519 161.518 70.7658 161.345 69.0616C161.173 67.3574 162.967 66.6141 165.249 66.3814C167.532 66.1486 169.431 66.539 169.596 68.2357Z" stroke="#263238" stroke-width="0.750751" stroke-linecap="round" stroke-linejoin="round"/>
<path d="M180.219 67.177C180.392 68.8737 178.68 70.4428 176.405 70.668C174.131 70.8932 172.141 69.6995 171.969 68.0028C171.796 66.3061 173.59 65.5479 175.872 65.3226C178.155 65.0974 180.054 65.4728 180.219 67.177Z" stroke="#263238" stroke-width="0.750751" stroke-linecap="round" stroke-linejoin="round"/>
<path d="M169.596 68.2357L171.969 68.0029" stroke="#263238" stroke-width="0.750751" stroke-linecap="round" stroke-linejoin="round"/>
<path d="M179.934 66.3213L188.658 61.1787" stroke="#263238" stroke-width="0.750751" stroke-linecap="round" stroke-linejoin="round"/>
<path d="M190.152 74.3318L190.565 75.3303" stroke="#263238" stroke-width="0.750751" stroke-linecap="round" stroke-linejoin="round"/>
<path d="M164.679 65.4956C164.679 65.4956 166.008 63.8064 167.637 64.6172L164.679 65.4956Z" fill="white"/>
<path d="M164.679 65.4956C164.679 65.4956 166.008 63.8064 167.637 64.6172" stroke="#263238" stroke-width="0.750751" stroke-linecap="round" stroke-linejoin="round"/>
<path d="M178.267 64.7373C178.267 64.7373 175.932 62.485 173.68 64.0766L178.267 64.7373Z" fill="white"/>
<path d="M178.267 64.7373C178.267 64.7373 175.932 62.485 173.68 64.0766" stroke="#263238" stroke-width="0.750751" stroke-linecap="round" stroke-linejoin="round"/>
<path d="M167.629 44.144C171.18 45.2702 177.156 46.6515 182.036 45.1726C189.544 42.9203 186.968 51.3287 188.658 53.6485" stroke="#7F7F7F" stroke-width="0.750751" stroke-linecap="round" stroke-linejoin="round"/>
<path d="M164.551 43.0181C164.551 43.0181 165.144 43.2808 166.158 43.6412" stroke="#7F7F7F" stroke-width="0.750751" stroke-linecap="round" stroke-linejoin="round"/>
<path d="M173.523 48.3259C173.921 48.2058 174.334 48.0631 174.769 47.8979" stroke="#7F7F7F" stroke-width="0.750751" stroke-linecap="round" stroke-linejoin="round"/>
<path d="M165.377 47.3347C165.377 47.3347 166.969 49.7897 172.089 48.7011" stroke="#7F7F7F" stroke-width="0.750751" stroke-linecap="round" stroke-linejoin="round"/>
<path d="M184.446 52.147C184.842 55.0449 185.934 57.8037 187.629 60.1875" stroke="#7F7F7F" stroke-width="0.750751" stroke-linecap="round" stroke-linejoin="round"/>
<path d="M184.273 49.4895C184.263 49.9379 184.278 50.3866 184.318 50.8334" stroke="#7F7F7F" stroke-width="0.750751" stroke-linecap="round" stroke-linejoin="round"/>
<path opacity="0.3" d="M190.925 130.03C190.788 130.144 190.69 130.298 190.643 130.471C190.596 130.643 190.604 130.826 190.665 130.994C190.725 131.162 190.836 131.307 190.982 131.41C191.128 131.513 191.302 131.568 191.481 131.569C196.556 131.569 210.249 131.629 215.505 131.321C222.074 130.946 217.059 123.814 211.751 126.531C206.939 129.046 196.698 124.857 190.925 130.03Z" fill="black"/>
<path d="M133.755 122.988C133.755 122.988 136.826 114.812 144.529 116.111C152.231 117.41 146.345 123.859 142.637 124.429C142.637 124.429 142.074 122.185 133.755 122.988Z" fill="white" stroke="#263238" stroke-width="0.750751" stroke-linecap="round" stroke-linejoin="round"/>
<path d="M127.216 127.627C126.203 128.641 123.763 128.731 125.407 126.531C126.752 124.762 128.576 123.415 130.662 122.65C134.311 121.021 135.737 121.351 139.041 120.623C142.344 119.895 142.967 121.246 144.108 121.869C146.833 123.371 147.487 123.626 148.177 125.127C148.868 126.629 149.619 128.581 147.487 128.581C145.55 128.581 145.422 125.375 143.545 125.503C141.668 125.63 140.73 128.581 139.416 128.581H138.921C137.794 128.581 137.734 127.642 138.418 126.171C139.101 124.7 139.859 123.371 139.859 123.371C138.744 123.958 137.853 124.894 137.321 126.036C136.421 127.95 136.255 128.754 134.596 128.754C132.937 128.754 133.095 127.522 134.701 124.805C133.747 125.376 132.958 126.186 132.412 127.155C131.601 128.656 131.173 128.581 130.114 128.581C128.718 128.581 128.815 126.284 131.285 124.782C131.3 124.782 130.752 124.106 127.216 127.627Z" fill="white" stroke="#263238" stroke-width="0.750751" stroke-linecap="round" stroke-linejoin="round"/>
<path d="M136.886 122.14C136.886 122.14 135.918 122.094 135.302 123.731L136.886 122.14Z" fill="white"/>
<path d="M136.886 122.14C136.886 122.14 135.918 122.094 135.302 123.731" stroke="#263238" stroke-width="0.563063" stroke-linecap="round" stroke-linejoin="round"/>
<path d="M260.249 51.4565C265.097 55.2661 269.712 59.3625 274.071 63.7238" stroke="#263238" stroke-width="0.563063" stroke-linecap="round" stroke-linejoin="round"/>
<path d="M255.009 47.5149C255.925 48.1756 256.841 48.8437 257.742 49.5269" stroke="#263238" stroke-width="0.563063" stroke-linecap="round" stroke-linejoin="round"/>
<path d="M249.776 43.9189C250.717 44.5346 251.653 45.1652 252.584 45.8108" stroke="#263238" stroke-width="0.563063" stroke-linecap="round" stroke-linejoin="round"/>
<path d="M211.368 25.7507C223.8 29.6178 235.684 35.0652 246.728 41.9594" stroke="#263238" stroke-width="0.563063" stroke-linecap="round" stroke-linejoin="round"/>
<path d="M203.17 23.4385C204.671 23.8239 206.185 24.2293 207.712 24.6547" stroke="#263238" stroke-width="0.563063" stroke-linecap="round" stroke-linejoin="round"/>
<path d="M194.731 21.5691C196.383 21.8844 198.03 22.2298 199.671 22.6051" stroke="#263238" stroke-width="0.563063" stroke-linecap="round" stroke-linejoin="round"/>
<path d="M187.216 20.3152C188.643 20.5204 190.064 20.7406 191.481 20.9758" stroke="#263238" stroke-width="0.563063" stroke-linecap="round" stroke-linejoin="round"/>
<path d="M141.938 20.6156C155.853 18.4485 169.998 18.1959 183.981 19.8649" stroke="#263238" stroke-width="0.563063" stroke-linecap="round" stroke-linejoin="round"/>
<path d="M135.745 21.7042C137.021 21.4565 138.305 21.2163 139.581 20.9985" stroke="#263238" stroke-width="0.563063" stroke-linecap="round" stroke-linejoin="round"/>
<path d="M129.731 23.0179C131.015 22.7101 132.291 22.4248 133.583 22.1545" stroke="#263238" stroke-width="0.563063" stroke-linecap="round" stroke-linejoin="round"/>
<path d="M122.344 24.985C123.65 24.6021 124.957 24.2343 126.27 23.8889" stroke="#263238" stroke-width="0.563063" stroke-linecap="round" stroke-linejoin="round"/>
<path d="M77.6667 46.4641C90.0974 37.75 103.762 30.9454 118.207 26.2764" stroke="#263238" stroke-width="0.563063" stroke-linecap="round" stroke-linejoin="round"/>
<path d="M71.6606 50.9158C72.8318 50.0099 74.0155 49.119 75.2117 48.2432" stroke="#263238" stroke-width="0.563063" stroke-linecap="round" stroke-linejoin="round"/>
<path d="M65.5796 55.8709C66.8634 54.7598 68.1697 53.6787 69.4835 52.6201" stroke="#263238" stroke-width="0.563063" stroke-linecap="round" stroke-linejoin="round"/>
<path d="M57.1262 63.7238C58.888 61.9621 60.6798 60.2528 62.5016 58.5962" stroke="#263238" stroke-width="0.563063" stroke-linecap="round" stroke-linejoin="round"/>
<path d="M115.339 40.6419C117.732 30.6072 111.536 20.533 101.502 18.1406C91.467 15.7481 81.3928 21.9434 79.0004 31.978C76.6079 42.0127 82.8032 52.0869 92.8379 54.4794C102.873 56.8718 112.947 50.6766 115.339 40.6419Z" fill="#599BFE"/>
<mask id="mask2_659_47023" style="mask-type:luminance" maskUnits="userSpaceOnUse" x="78" y="17" width="38" height="38">
<path d="M115.339 40.6419C117.732 30.6072 111.536 20.533 101.502 18.1406C91.467 15.7481 81.3928 21.9434 79.0004 31.978C76.6079 42.0127 82.8032 52.0869 92.8379 54.4794C102.873 56.8718 112.947 50.6766 115.339 40.6419Z" fill="white"/>
</mask>
<g mask="url(#mask2_659_47023)">
<path opacity="0.3" d="M115.339 40.6419C117.732 30.6072 111.536 20.533 101.502 18.1406C91.467 15.7481 81.3928 21.9434 79.0004 31.978C76.6079 42.0127 82.8032 52.0869 92.8379 54.4794C102.873 56.8718 112.947 50.6766 115.339 40.6419Z" fill="white"/>
</g>
<path d="M115.339 40.6419C117.732 30.6072 111.536 20.533 101.502 18.1406C91.467 15.7481 81.3928 21.9434 79.0004 31.978C76.6079 42.0127 82.8032 52.0869 92.8379 54.4794C102.873 56.8718 112.947 50.6766 115.339 40.6419Z" stroke="#263238" stroke-width="0.563063" stroke-linecap="round" stroke-linejoin="round"/>
<path d="M88.1772 43.6411V38.9639C88.1772 37.7927 87.8469 37.4624 86.5781 37.4624V35.1726C87.8469 35.1726 88.1772 34.8197 88.1772 33.6711V28.9939C88.144 28.6149 88.1942 28.2331 88.3243 27.8755C88.4544 27.518 88.6612 27.1932 88.9303 26.9242C89.1993 26.6551 89.5241 26.4482 89.8817 26.3181C90.2392 26.188 90.621 26.1378 91 26.1711H92.4265V28.4234H92.0136C91.1277 28.4234 90.6697 28.8288 90.6697 30.2327V34.039C90.7206 34.5378 90.5922 35.0385 90.3074 35.4512C90.0226 35.864 89.6001 36.1618 89.1157 36.2912V36.3438C89.6001 36.4732 90.0226 36.771 90.3074 37.1838C90.5922 37.5965 90.7206 38.0972 90.6697 38.596V42.4098C90.6697 43.8062 91.1277 44.2116 92.0136 44.2116H92.4265V46.4639H91C90.621 46.4972 90.2392 46.447 89.8817 46.3169C89.5241 46.1868 89.1993 45.9799 88.9303 45.7108C88.6612 45.4418 88.4544 45.117 88.3243 44.7595C88.1942 44.4019 88.144 44.0201 88.1772 43.6411Z" fill="white" stroke="#263238" stroke-width="0.563063" stroke-linecap="round" stroke-linejoin="round"/>
<path d="M101.864 44.174H102.269C103.162 44.174 103.62 43.7686 103.62 42.3722V38.5584C103.571 38.0608 103.699 37.5617 103.982 37.1495C104.265 36.7372 104.685 36.4385 105.167 36.3062V36.2536C104.684 36.1227 104.263 35.8243 103.98 35.4117C103.696 34.9991 103.569 34.4992 103.62 34.0014V30.1951C103.62 28.7912 103.162 28.3858 102.269 28.3858H101.864V26.1335H103.29C103.669 26.1002 104.051 26.1504 104.408 26.2805C104.766 26.4106 105.091 26.6175 105.36 26.8866C105.629 27.1556 105.836 27.4804 105.966 27.8379C106.096 28.1955 106.146 28.5773 106.113 28.9563V33.6335C106.113 34.8047 106.443 35.135 107.712 35.135V37.4248C106.443 37.4248 106.113 37.7777 106.113 38.9263V43.6035C106.146 43.9825 106.096 44.3643 105.966 44.7219C105.836 45.0794 105.629 45.4042 105.36 45.6733C105.091 45.9423 104.766 46.1492 104.408 46.2793C104.051 46.4094 103.669 46.4596 103.29 46.4263H101.864V44.174Z" fill="white" stroke="#263238" stroke-width="0.563063" stroke-linecap="round" stroke-linejoin="round"/>
<path d="M60.97 60.1426H50.1968C45.2378 60.1426 41.2178 64.1626 41.2178 69.1216V79.8948C41.2178 84.8538 45.2378 88.8738 50.1968 88.8738H60.97C65.929 88.8738 69.949 84.8538 69.949 79.8948V69.1216C69.949 64.1626 65.929 60.1426 60.97 60.1426Z" fill="#599BFE" stroke="#263238" stroke-width="0.563063" stroke-linecap="round" stroke-linejoin="round"/>
<path d="M45.1667 75.2028V73.8139L50.91 71.3364V72.8379L46.9535 74.5121L50.91 76.1788V77.6803L45.1667 75.2028Z" fill="white" stroke="#263238" stroke-width="0.563063" stroke-linecap="round" stroke-linejoin="round"/>
<path d="M57.2764 67.9429H59.0632L53.883 81.081H52.0962L57.2764 67.9429Z" fill="white" stroke="#263238" stroke-width="0.563063" stroke-linecap="round" stroke-linejoin="round"/>
<path d="M60.2493 76.1786L64.2057 74.512L60.2493 72.8228V71.3213L65.9925 73.7988V75.1877L60.2493 77.6651V76.1786Z" fill="white" stroke="#263238" stroke-width="0.563063" stroke-linecap="round" stroke-linejoin="round"/>
<path d="M245.184 35.6983C247.188 27.1269 241.864 18.5538 233.293 16.5497C224.722 14.5456 216.148 19.8695 214.144 28.4408C212.14 37.0122 217.464 45.5853 226.035 47.5894C234.607 49.5935 243.18 44.2697 245.184 35.6983Z" fill="#599BFE"/>
<mask id="mask3_659_47023" style="mask-type:luminance" maskUnits="userSpaceOnUse" x="213" y="16" width="33" height="33">
<path d="M245.184 35.6983C247.188 27.1269 241.864 18.5538 233.293 16.5497C224.722 14.5456 216.148 19.8695 214.144 28.4408C212.14 37.0122 217.464 45.5853 226.035 47.5894C234.607 49.5935 243.18 44.2697 245.184 35.6983Z" fill="white"/>
</mask>
<g mask="url(#mask3_659_47023)">
<path opacity="0.2" d="M245.184 35.6983C247.188 27.1269 241.864 18.5538 233.293 16.5497C224.722 14.5456 216.148 19.8695 214.144 28.4408C212.14 37.0122 217.464 45.5853 226.035 47.5894C234.607 49.5935 243.18 44.2697 245.184 35.6983Z" fill="black"/>
</g>
<path d="M245.184 35.6983C247.188 27.1269 241.864 18.5538 233.293 16.5497C224.722 14.5456 216.148 19.8695 214.144 28.4408C212.14 37.0122 217.464 45.5853 226.035 47.5894C234.607 49.5935 243.18 44.2697 245.184 35.6983Z" stroke="#263238" stroke-width="0.563063" stroke-linecap="round" stroke-linejoin="round"/>
<path d="M219.806 35.3752V28.7686C219.806 26.8692 220.79 25.7656 222.652 25.7656C224.514 25.7656 225.497 26.8842 225.497 28.7686V30.0674H223.673V28.6485C223.673 27.8377 223.282 27.5074 222.704 27.5074C222.126 27.5074 221.743 27.8377 221.743 28.6485V35.5104C221.743 36.3212 222.126 36.6365 222.704 36.6365C223.282 36.6365 223.673 36.3212 223.673 35.5104V33.6335H225.497V35.3752C225.497 37.2671 224.514 38.3782 222.652 38.3782C220.79 38.3782 219.806 37.2671 219.806 35.3752Z" fill="white" stroke="#263238" stroke-width="0.563063" stroke-linecap="round" stroke-linejoin="round"/>
<path d="M228.77 32.7553H226.413V31.3815H228.77V29.0166H230.137V31.3815H232.494V32.7553H230.137V35.1577H228.77V32.7553Z" fill="white" stroke="#263238" stroke-width="0.563063" stroke-linecap="round" stroke-linejoin="round"/>
<path d="M235.797 32.7553H233.44V31.3815H235.797V29.0166H237.164V31.3815H239.521V32.7553H237.164V35.1577H235.797V32.7553Z" fill="white" stroke="#263238" stroke-width="0.563063" stroke-linecap="round" stroke-linejoin="round"/>
<path d="M168.56 0.930908H154.153C148.514 0.930908 143.943 5.50217 143.943 11.1411V25.548C143.943 31.187 148.514 35.7582 154.153 35.7582H168.56C174.199 35.7582 178.77 31.187 178.77 25.548V11.1411C178.77 5.50217 174.199 0.930908 168.56 0.930908Z" fill="#599BFE" stroke="#263238" stroke-width="0.563063" stroke-linecap="round" stroke-linejoin="round"/>
<path d="M150.887 22.012V14.6771C150.887 12.5675 151.984 11.3213 154.048 11.3213C156.113 11.3213 157.246 12.5675 157.246 14.6771V16.1186H155.219V14.5345C155.219 13.6411 154.784 13.2732 154.146 13.2732C153.508 13.2732 153.072 13.6411 153.072 14.5345V22.1621C153.072 23.063 153.5 23.4159 154.146 23.4159C154.791 23.4159 155.219 23.063 155.219 22.1621V20.075H157.246V22.012C157.246 24.1141 156.15 25.3603 154.086 25.3603C152.021 25.3603 150.887 24.1141 150.887 22.012Z" fill="white" stroke="#263238" stroke-width="0.563063" stroke-linecap="round" stroke-linejoin="round"/>
<path d="M158.17 21.9294V21.1786H160.197V22.1171C160.197 23.0931 160.625 23.4459 161.308 23.4459C161.991 23.4459 162.419 23.0931 162.419 22.0795C162.419 20.9459 161.991 20.2252 160.587 18.994C158.793 17.4174 158.207 16.3063 158.207 14.7447C158.207 12.5976 159.318 11.3513 161.405 11.3513C163.492 11.3513 164.529 12.5976 164.529 14.7822V15.3453H162.502V14.6471C162.502 13.6711 162.111 13.3033 161.428 13.3033C160.745 13.3033 160.362 13.6711 160.362 14.6096C160.362 15.548 160.805 16.3213 162.209 17.5525C164.003 19.1291 164.574 20.2252 164.574 21.9219C164.574 24.1741 163.44 25.3904 161.33 25.3904C159.221 25.3904 158.17 24.1141 158.17 21.9294Z" fill="white" stroke="#263238" stroke-width="0.563063" stroke-linecap="round" stroke-linejoin="round"/>
<path d="M165.429 21.9294V21.1786H167.456V22.1171C167.456 23.0931 167.884 23.4459 168.568 23.4459C169.251 23.4459 169.679 23.0931 169.679 22.0795C169.679 20.9459 169.251 20.2252 167.847 18.994C166.053 17.4174 165.467 16.3063 165.467 14.7447C165.467 12.5976 166.578 11.3513 168.665 11.3513C170.752 11.3513 171.788 12.5976 171.788 14.7822V15.3453H169.754V14.6471C169.754 13.6711 169.363 13.3033 168.68 13.3033C167.997 13.3033 167.614 13.6711 167.614 14.6096C167.614 15.548 168.057 16.3213 169.461 17.5525C171.255 19.1291 171.826 20.2252 171.826 21.9219C171.826 24.1741 170.692 25.3904 168.583 25.3904C166.473 25.3904 165.429 24.1141 165.429 21.9294Z" fill="white" stroke="#263238" stroke-width="0.563063" stroke-linecap="round" stroke-linejoin="round"/>
<path d="M287.294 69.4815C289.33 60.9391 284.056 52.3631 275.514 50.3265C266.972 48.2898 258.396 53.5637 256.359 62.1061C254.322 70.6485 259.596 79.2245 268.139 81.2612C276.681 83.2978 285.257 78.0239 287.294 69.4815Z" fill="#599BFE"/>
<mask id="mask4_659_47023" style="mask-type:luminance" maskUnits="userSpaceOnUse" x="255" y="49" width="33" height="33">
<path d="M287.294 69.4815C289.33 60.9391 284.056 52.3631 275.514 50.3265C266.972 48.2898 258.396 53.5637 256.359 62.1061C254.322 70.6485 259.596 79.2245 268.139 81.2612C276.681 83.2978 285.257 78.0239 287.294 69.4815Z" fill="white"/>
</mask>
<g mask="url(#mask4_659_47023)">
<path opacity="0.3" d="M287.294 69.4815C289.33 60.9391 284.056 52.3631 275.514 50.3265C266.972 48.2898 258.396 53.5637 256.359 62.1061C254.322 70.6485 259.596 79.2245 268.139 81.2612C276.681 83.2978 285.257 78.0239 287.294 69.4815Z" fill="white"/>
</g>
<path d="M287.294 69.4815C289.33 60.9391 284.056 52.3631 275.514 50.3265C266.972 48.2898 258.396 53.5637 256.359 62.1061C254.322 70.6485 259.596 79.2245 268.139 81.2612C276.681 83.2978 285.257 78.0239 287.294 69.4815Z" stroke="#263238" stroke-width="0.563063" stroke-linecap="round" stroke-linejoin="round"/>
<path d="M265.557 68.9413V62.6275C265.557 60.8182 266.496 59.7446 268.275 59.7446C270.054 59.7446 270.993 60.8182 270.993 62.6275V63.8738H269.251V62.5149C269.251 61.7642 268.875 61.4188 268.327 61.4188C267.779 61.4188 267.404 61.7416 267.404 62.5149V69.069C267.404 69.8197 267.772 70.1425 268.327 70.1425C268.883 70.1425 269.251 69.8422 269.251 69.069V67.2747H270.993V68.9338C270.993 70.7431 270.054 71.8167 268.275 71.8167C266.496 71.8167 265.557 70.7506 265.557 68.9413Z" fill="white" stroke="#263238" stroke-width="0.563063" stroke-linecap="round" stroke-linejoin="round"/>
<path d="M272.509 68.3182H271.683L271.818 67.0119H272.644L272.959 63.9413H272.111L272.246 62.6275H273.087L273.372 59.9248H274.829L274.543 62.6275H275.737L276.022 59.9248H277.486L277.201 62.6275H278.057L277.922 63.9413H277.066L276.743 67.0119H277.599L277.464 68.3182H276.616L276.263 71.674H274.806L275.159 68.3182H273.965L273.613 71.674H272.156L272.509 68.3182ZM275.294 67.0119L275.61 63.9413H274.423L274.101 67.0119H275.294Z" fill="white" stroke="#263238" stroke-width="0.563063" stroke-linecap="round" stroke-linejoin="round"/>
<path d="M83.8454 248.881H81.0601L80.3093 138.326H83.8454V248.881Z" fill="#858585" stroke="#263238" stroke-width="0.750751" stroke-linecap="round" stroke-linejoin="round"/>
<path d="M86.6232 248.881H83.8455V138.326H87.374L86.6232 248.881Z" fill="#999999" stroke="#263238" stroke-width="0.750751" stroke-linecap="round" stroke-linejoin="round"/>
<path d="M242.824 131.562H51.9761V138.333H242.824V131.562Z" fill="#263238" stroke="#263238" stroke-width="0.750751" stroke-linecap="round" stroke-linejoin="round"/>
<path d="M282.704 131.562H239.972V138.333H282.704V131.562Z" fill="#858585" stroke="#263238" stroke-width="0.750751" stroke-linecap="round" stroke-linejoin="round"/>
<path d="M251.48 138.326H61.7507V149.482H251.48V138.326Z" fill="#599BFE" stroke="#263238" stroke-width="0.750751" stroke-miterlimit="10"/>
<path d="M251.481 149.49H273.575V138.333H251.481V149.49Z" fill="#599BFE"/>
<mask id="mask5_659_47023" style="mask-type:luminance" maskUnits="userSpaceOnUse" x="251" y="138" width="23" height="12">
<path d="M251.481 149.49H273.575V138.333H251.481V149.49Z" fill="white"/>
</mask>
<g mask="url(#mask5_659_47023)">
<path opacity="0.3" d="M251.481 149.49H273.575V138.333H251.481V149.49Z" fill="black"/>
</g>
<path d="M251.481 149.49H273.575V138.333H251.481V149.49Z" stroke="#263238" stroke-width="0.750751" stroke-miterlimit="10"/>
<path d="M251.481 248.881H248.703L247.952 138.326H251.481V248.881Z" fill="#858585" stroke="#263238" stroke-width="0.750751" stroke-linecap="round" stroke-linejoin="round"/>
<path d="M254.266 248.881H251.48V138.326H255.017L254.266 248.881Z" fill="#999999" stroke="#263238" stroke-width="0.750751" stroke-linecap="round" stroke-linejoin="round"/>
<path d="M61.7509 248.881H58.9656L58.2148 138.326H61.7509V248.881Z" fill="#858585" stroke="#263238" stroke-width="0.750751" stroke-linecap="round" stroke-linejoin="round"/>
<path d="M64.5285 248.881H61.7507V138.326H65.2793L64.5285 248.881Z" fill="#999999" stroke="#263238" stroke-width="0.750751" stroke-linecap="round" stroke-linejoin="round"/>
<path d="M273.575 248.881H270.79L270.039 138.326H273.575V248.881Z" fill="#858585" stroke="#263238" stroke-width="0.750751" stroke-linecap="round" stroke-linejoin="round"/>
<path d="M276.353 248.881H273.575V138.326H277.104L276.353 248.881Z" fill="#999999" stroke="#263238" stroke-width="0.750751" stroke-linecap="round" stroke-linejoin="round"/>
<path d="M175.302 130.811H152.937C152.717 130.809 152.507 130.72 152.353 130.564C152.198 130.408 152.111 130.197 152.111 129.977V128.131L176.135 128.881V129.977C176.135 130.198 176.048 130.41 175.891 130.567C175.735 130.723 175.523 130.811 175.302 130.811Z" fill="#858585" stroke="#263238" stroke-width="0.750751" stroke-linecap="round" stroke-linejoin="round"/>
<path d="M149.611 130.811H104.649C104.279 130.797 103.922 130.669 103.628 130.444C103.334 130.22 103.116 129.91 103.005 129.557L93.3499 98.2206C93.2776 98.0377 93.2519 97.8398 93.2751 97.6445C93.2984 97.4492 93.3698 97.2628 93.483 97.1019C93.5961 96.9411 93.7475 96.8109 93.9235 96.7232C94.0995 96.6354 94.2945 96.5927 94.491 96.599H139.454C139.823 96.6112 140.179 96.7377 140.474 96.9609C140.768 97.184 140.986 97.493 141.098 97.8452L150.752 129.182C150.824 129.365 150.85 129.563 150.826 129.759C150.803 129.954 150.732 130.141 150.619 130.302C150.506 130.464 150.355 130.594 150.179 130.683C150.003 130.772 149.808 130.816 149.611 130.811Z" fill="#999999" stroke="#263238" stroke-width="0.750751" stroke-linecap="round" stroke-linejoin="round"/>
<path d="M152.742 129.181L143.087 97.8451C142.976 97.4929 142.758 97.1839 142.463 96.9607C142.169 96.7375 141.812 96.6111 141.443 96.5989H139.454C139.823 96.6111 140.179 96.7375 140.474 96.9607C140.768 97.1839 140.986 97.4929 141.098 97.8451L150.752 129.181C150.824 129.365 150.85 129.563 150.826 129.759C150.803 129.954 150.732 130.141 150.619 130.302C150.506 130.463 150.355 130.594 150.179 130.683C150.003 130.772 149.808 130.816 149.611 130.811H151.631C151.825 130.811 152.016 130.763 152.188 130.672C152.36 130.581 152.507 130.45 152.617 130.289C152.726 130.129 152.795 129.944 152.817 129.751C152.838 129.558 152.813 129.362 152.742 129.181Z" fill="#858585" stroke="#263238" stroke-width="0.750751" stroke-linecap="round" stroke-linejoin="round"/>
<path d="M124.836 113.701C124.892 114.05 124.869 114.407 124.771 114.746C124.673 115.086 124.502 115.399 124.269 115.665C124.036 115.931 123.748 116.142 123.424 116.284C123.1 116.426 122.75 116.495 122.396 116.486C121.63 116.467 120.896 116.177 120.324 115.667C119.752 115.156 119.38 114.46 119.273 113.701C119.218 113.352 119.24 112.996 119.338 112.657C119.436 112.318 119.608 112.005 119.841 111.739C120.074 111.474 120.363 111.264 120.686 111.122C121.01 110.981 121.36 110.913 121.713 110.923C122.478 110.944 123.21 111.234 123.782 111.742C124.353 112.25 124.727 112.944 124.836 113.701Z" fill="white" stroke="#263238" stroke-width="0.750751" stroke-linecap="round" stroke-linejoin="round"/>
</g>
<defs>
<clipPath id="clip0_659_47023">
<rect width="321.321" height="250" fill="white" transform="translate(0.339355)"/>
</clipPath>
</defs>
</svg>
