<svg width="40" height="41" viewBox="0 0 40 41" fill="none" xmlns="http://www.w3.org/2000/svg">
<g id="Icon / bed">
<mask id="mask0_294_28071" style="mask-type:alpha" maskUnits="userSpaceOnUse" x="0" y="0" width="40" height="41">
<rect id="Bounding box" y="0.5" width="40" height="40" fill="#D9D9D9"/>
</mask>
<g mask="url(#mask0_294_28071)">
<path id="bed" d="M5.41616 31.3333C5.06186 31.3333 4.76505 31.2135 4.52575 30.9739C4.28641 30.7343 4.16675 30.4375 4.16675 30.0833V22.1667C4.16675 21.5449 4.31419 20.9418 4.60908 20.3574C4.90394 19.773 5.31205 19.2928 5.83342 18.9167V14.6667C5.83342 13.5022 6.23672 12.5167 7.04333 11.71C7.84997 10.9034 8.83554 10.5001 10 10.5001H17.0834C17.6902 10.5001 18.234 10.6182 18.7148 10.8543C19.1956 11.0904 19.624 11.4168 20 11.8335C20.3761 11.4168 20.8045 11.0904 21.2853 10.8543C21.766 10.6182 22.3098 10.5001 22.9167 10.5001H30C31.1645 10.5001 32.1501 10.9034 32.9568 11.71C33.7634 12.5167 34.1667 13.5022 34.1667 14.6667V18.9167C34.688 19.2928 35.0961 19.773 35.391 20.3574C35.6859 20.9418 35.8333 21.5449 35.8333 22.1667V30.0833C35.8333 30.4375 35.7135 30.7343 35.4738 30.9739C35.2341 31.2135 34.9371 31.3333 34.5828 31.3333C34.2285 31.3333 33.9316 31.2135 33.6923 30.9739C33.453 30.7343 33.3334 30.4375 33.3334 30.0833V28H6.66671V30.0833C6.66671 30.4375 6.54686 30.7343 6.30716 30.9739C6.0675 31.2135 5.7705 31.3333 5.41616 31.3333ZM21.25 18H31.6667V14.6667C31.6667 14.1945 31.507 13.7986 31.1875 13.4792C30.8681 13.1598 30.4723 13 30 13H22.9167C22.4444 13 22.0486 13.1598 21.7292 13.4792C21.4097 13.7986 21.25 14.1945 21.25 14.6667V18ZM8.33337 18H18.7501V14.6667C18.7501 14.1945 18.5904 13.7986 18.2709 13.4792C17.9515 13.1598 17.5556 13 17.0834 13H10C9.52782 13 9.13198 13.1598 8.81254 13.4792C8.4931 13.7986 8.33337 14.1945 8.33337 14.6667V18ZM6.66671 25.5H33.3334V22.1667C33.3334 21.6944 33.1737 21.2986 32.8542 20.9792C32.5348 20.6597 32.1389 20.5 31.6667 20.5H8.33337C7.86115 20.5 7.46532 20.6597 7.14587 20.9792C6.82643 21.2986 6.66671 21.6944 6.66671 22.1667V25.5Z" fill="#1C1B1F"/>
</g>
</g>
</svg>
