<svg width="25" height="25" viewBox="0 0 25 25" fill="none" xmlns="http://www.w3.org/2000/svg">
<g id="Icon / call">
<mask id="mask0_262_16042" style="mask-type:alpha" maskUnits="userSpaceOnUse" x="0" y="0" width="25" height="25">
<rect id="Bounding box" x="0.043457" y="0.5" width="24" height="24" fill="#D9D9D9"/>
</mask>
<g mask="url(#mask0_262_16042)">
<path id="call" d="M19.4838 21C17.5992 21 15.7059 20.5618 13.804 19.6855C11.9021 18.8093 10.1531 17.573 8.55691 15.9769C6.96717 14.3807 5.73417 12.6333 4.85788 10.7346C3.9816 8.83591 3.54346 6.94425 3.54346 5.05965C3.54346 4.75965 3.64346 4.50805 3.84346 4.30485C4.04346 4.10163 4.29346 4.00002 4.59346 4.00002H7.85496C8.10752 4.00002 8.33028 4.0824 8.52323 4.24715C8.71618 4.4119 8.83893 4.61542 8.89148 4.85772L9.46456 7.8C9.50431 8.07308 9.49597 8.3077 9.43956 8.50385C9.38316 8.7 9.28187 8.86474 9.13571 8.99807L6.82611 11.2461C7.19791 11.9269 7.62259 12.5708 8.10016 13.1779C8.57772 13.7849 9.09471 14.3648 9.65111 14.9173C10.1998 15.466 10.7832 15.9757 11.4011 16.4462C12.0191 16.9167 12.6864 17.3545 13.4031 17.7596L15.6473 15.4962C15.8037 15.3334 15.9931 15.2193 16.2156 15.1539C16.438 15.0885 16.6691 15.0725 16.9088 15.1058L19.6857 15.6712C19.9383 15.7378 20.1444 15.8667 20.304 16.0577C20.4636 16.2487 20.5434 16.4654 20.5434 16.7077V19.95C20.5434 20.25 20.4418 20.5 20.2386 20.7C20.0354 20.9 19.7838 21 19.4838 21Z" fill="#1C1B1F"/>
</g>
</g>
</svg>
