<svg width="30" height="30" viewBox="0 0 30 30" fill="none" xmlns="http://www.w3.org/2000/svg">
<g id="Icon / chevron">
<mask id="mask0_287_1195" style="mask-type:alpha" maskUnits="userSpaceOnUse" x="0" y="0" width="30" height="30">
<rect id="Bounding box" width="30" height="30" fill="#D9D9D9"/>
</mask>
<g mask="url(#mask0_287_1195)">
<path id="chevron_right" d="M16.1827 14.9996L11.0914 9.90824C10.9183 9.73518 10.8297 9.51764 10.8257 9.25562C10.8217 8.99362 10.9103 8.77208 11.0914 8.59099C11.2724 8.40989 11.492 8.31934 11.75 8.31934C12.008 8.31934 12.2275 8.40989 12.4086 8.59099L18.0264 14.2088C18.1434 14.3258 18.2259 14.4491 18.274 14.579C18.3221 14.7088 18.3461 14.849 18.3461 14.9996C18.3461 15.1503 18.3221 15.2905 18.274 15.4203C18.2259 15.5501 18.1434 15.6735 18.0264 15.7905L12.4086 21.4082C12.2355 21.5813 12.018 21.6699 11.756 21.6739C11.494 21.6779 11.2724 21.5893 11.0914 21.4082C10.9103 21.2272 10.8197 21.0076 10.8197 20.7496C10.8197 20.4916 10.9103 20.2721 11.0914 20.091L16.1827 14.9996Z" fill="#1C1B1F"/>
</g>
</g>
</svg>
