<svg width="30" height="30" viewBox="0 0 30 30" fill="none" xmlns="http://www.w3.org/2000/svg">
<g id="home">
<mask id="mask0_262_12817" style="mask-type:alpha" maskUnits="userSpaceOnUse" x="0" y="0" width="30" height="30">
<rect id="Bounding box" width="30" height="30" fill="#D9D9D9"/>
</mask>
<g mask="url(#mask0_262_12817)">
<path id="home_2" d="M7.49997 23.7499H11.6827V17.4518C11.6827 17.1317 11.791 16.8633 12.0075 16.6468C12.224 16.4303 12.4924 16.322 12.8125 16.322H17.1874C17.5076 16.322 17.7759 16.4303 17.9924 16.6468C18.209 16.8633 18.3173 17.1317 18.3173 17.4518V23.7499H22.5V12.6922C22.5 12.6281 22.4859 12.57 22.4579 12.5179C22.4298 12.4658 22.3918 12.4197 22.3437 12.3797L15.2283 7.03111C15.1642 6.97503 15.0881 6.94699 15 6.94699C14.9118 6.94699 14.8357 6.97503 14.7716 7.03111L7.65622 12.3797C7.60816 12.4197 7.57009 12.4658 7.54203 12.5179C7.51399 12.57 7.49997 12.6281 7.49997 12.6922V23.7499ZM5.625 23.7499V12.6922C5.625 12.3344 5.70503 11.9955 5.86509 11.6754C6.02516 11.3553 6.24641 11.0916 6.52884 10.8845L13.6442 5.52396C14.0391 5.22267 14.4903 5.07202 14.998 5.07202C15.5057 5.07202 15.9583 5.22267 16.3557 5.52396L23.4711 10.8845C23.7535 11.0916 23.9748 11.3553 24.1348 11.6754C24.2949 11.9955 24.3749 12.3344 24.3749 12.6922V23.7499C24.3749 24.2611 24.1902 24.7014 23.8208 25.0707C23.4515 25.4401 23.0112 25.6248 22.5 25.6248H17.5721C17.252 25.6248 16.9837 25.5166 16.7671 25.3C16.5506 25.0834 16.4423 24.8151 16.4423 24.495V18.1969H13.5577V24.495C13.5577 24.8151 13.4494 25.0834 13.2328 25.3C13.0163 25.5166 12.7479 25.6248 12.4278 25.6248H7.49997C6.98876 25.6248 6.54847 25.4401 6.17909 25.0707C5.8097 24.7014 5.625 24.2611 5.625 23.7499Z" fill="#1C1B1F"/>
</g>
</g>
</svg>
