<svg width="41" height="41" viewBox="0 0 41 41" fill="none" xmlns="http://www.w3.org/2000/svg">
<g id="Icon / shower">
<mask id="mask0_294_28064" style="mask-type:alpha" maskUnits="userSpaceOnUse" x="0" y="0" width="41" height="41">
<rect id="Bounding box" x="0.333252" y="0.5" width="40" height="40" fill="#D9D9D9"/>
</mask>
<g mask="url(#mask0_294_28064)">
<path id="shower" d="M13.7296 29.6025C13.3116 29.6025 12.9615 29.4611 12.6795 29.1783C12.3974 28.8955 12.2564 28.5451 12.2564 28.127C12.2564 27.709 12.3978 27.3589 12.6806 27.0769C12.9634 26.7948 13.3138 26.6538 13.7319 26.6538C14.1499 26.6538 14.4999 26.7952 14.782 27.078C15.0641 27.3608 15.2051 27.7112 15.2051 28.1293C15.2051 28.5473 15.0637 28.8974 14.7809 29.1794C14.4981 29.4615 14.1477 29.6025 13.7296 29.6025ZM20.3322 29.6025C19.9141 29.6025 19.5641 29.4611 19.282 29.1783C19 28.8955 18.859 28.5451 18.859 28.127C18.859 27.709 19.0003 27.3589 19.2831 27.0769C19.5659 26.7948 19.9164 26.6538 20.3344 26.6538C20.7525 26.6538 21.1025 26.7952 21.3846 27.078C21.6666 27.3608 21.8076 27.7112 21.8076 28.1293C21.8076 28.5473 21.6662 28.8974 21.3835 29.1794C21.1007 29.4615 20.7502 29.6025 20.3322 29.6025ZM26.9347 29.6025C26.5167 29.6025 26.1666 29.4611 25.8846 29.1783C25.6025 28.8955 25.4615 28.5451 25.4615 28.127C25.4615 27.709 25.6029 27.3589 25.8857 27.0769C26.1685 26.7948 26.5189 26.6538 26.937 26.6538C27.355 26.6538 27.7051 26.7952 27.9871 27.078C28.2692 27.3608 28.4102 27.7112 28.4102 28.1293C28.4102 28.5473 28.2688 28.8974 27.986 29.1794C27.7032 29.4615 27.3528 29.6025 26.9347 29.6025ZM10.9744 23C10.5663 23 10.2185 22.8563 9.93112 22.5688C9.64371 22.2814 9.5 21.9337 9.5 21.5256V20.5C9.5 17.7158 10.4151 15.3072 12.2452 13.2741C14.0753 11.241 16.3547 10.0727 19.0833 9.76929V7.58337C19.0833 7.22921 19.2032 6.93233 19.4428 6.69275C19.6825 6.45317 19.9795 6.33337 20.3338 6.33337C20.6882 6.33337 20.985 6.45317 21.2243 6.69275C21.4636 6.93233 21.5832 7.22921 21.5832 7.58337V9.76929C24.3119 10.0727 26.5913 11.241 28.4214 13.2741C30.2515 15.3072 31.1666 17.7158 31.1666 20.5V21.5256C31.1666 21.9337 31.0229 22.2814 30.7355 22.5688C30.4481 22.8563 30.1003 23 29.6922 23H10.9744ZM12 20.5H28.6666C28.6666 18.1944 27.8541 16.2292 26.2291 14.6042C24.6041 12.9792 22.6388 12.1667 20.3333 12.1667C18.0277 12.1667 16.0625 12.9792 14.4375 14.6042C12.8125 16.2292 12 18.1944 12 20.5ZM13.7296 34.5384C13.3116 34.5384 12.9615 34.397 12.6795 34.1142C12.3974 33.8314 12.2564 33.481 12.2564 33.0629C12.2564 32.6449 12.3978 32.2948 12.6806 32.0128C12.9634 31.7307 13.3138 31.5897 13.7319 31.5897C14.1499 31.5897 14.4999 31.7311 14.782 32.0139C15.0641 32.2967 15.2051 32.6471 15.2051 33.0652C15.2051 33.4832 15.0637 33.8333 14.7809 34.1153C14.4981 34.3974 14.1477 34.5384 13.7296 34.5384ZM20.3322 34.5384C19.9141 34.5384 19.5641 34.397 19.282 34.1142C19 33.8314 18.859 33.481 18.859 33.0629C18.859 32.6449 19.0003 32.2948 19.2831 32.0128C19.5659 31.7307 19.9164 31.5897 20.3344 31.5897C20.7525 31.5897 21.1025 31.7311 21.3846 32.0139C21.6666 32.2967 21.8076 32.6471 21.8076 33.0652C21.8076 33.4832 21.6662 33.8333 21.3835 34.1153C21.1007 34.3974 20.7502 34.5384 20.3322 34.5384ZM26.9347 34.5384C26.5167 34.5384 26.1666 34.397 25.8846 34.1142C25.6025 33.8314 25.4615 33.481 25.4615 33.0629C25.4615 32.6449 25.6029 32.2948 25.8857 32.0128C26.1685 31.7307 26.5189 31.5897 26.937 31.5897C27.355 31.5897 27.7051 31.7311 27.9871 32.0139C28.2692 32.2967 28.4102 32.6471 28.4102 33.0652C28.4102 33.4832 28.2688 33.8333 27.986 34.1153C27.7032 34.3974 27.3528 34.5384 26.9347 34.5384Z" fill="#1C1B1F"/>
</g>
</g>
</svg>
