<svg width="40" height="41" viewBox="0 0 40 41" fill="none" xmlns="http://www.w3.org/2000/svg">
<g id="Icon / crop">
<mask id="mask0_294_28050" style="mask-type:alpha" maskUnits="userSpaceOnUse" x="0" y="0" width="40" height="41">
<rect id="Bounding box" y="0.5" width="40" height="40" fill="#D9D9D9"/>
</mask>
<g mask="url(#mask0_294_28050)">
<path id="crop" d="M28.7502 38.4167V31.75H11.763C10.9211 31.75 10.2085 31.4583 9.62516 30.875C9.04183 30.2917 8.75016 29.5791 8.75016 28.7372V11.75H2.0835V9.25004H8.75016V2.58337H11.2501V28.7372C11.2501 28.8654 11.3035 28.9829 11.4104 29.0897C11.5172 29.1966 11.6347 29.25 11.763 29.25H37.9168V31.75H31.2501V38.4166L28.7502 38.4167ZM28.7502 26.7501V12.2628C28.7502 12.1346 28.6967 12.0171 28.5899 11.9103C28.483 11.8034 28.3655 11.75 28.2373 11.75H13.75V9.25004H28.2373C29.0792 9.25004 29.7918 9.54171 30.3751 10.125C30.9584 10.7083 31.2501 11.4209 31.2501 12.2628V26.7501H28.7502Z" fill="#1C1B1F"/>
</g>
</g>
</svg>
