<svg width="36" height="24" viewBox="0 0 36 24" fill="none" xmlns="http://www.w3.org/2000/svg">
<rect width="36" height="24" rx="12" fill="#FFCBCB"/>
<mask id="mask0_1113_64281" style="mask-type:alpha" maskUnits="userSpaceOnUse" x="9" y="3" width="18" height="18">
<rect x="9" y="3" width="18" height="18" fill="#D9D9D9"/>
</mask>
<g mask="url(#mask0_1113_64281)">
<path d="M18.2582 13.0485L14.4533 16.8533C14.3495 16.9572 14.219 17.0103 14.0618 17.0127C13.9046 17.0151 13.7716 16.962 13.663 16.8533C13.5543 16.7447 13.5 16.613 13.5 16.4582C13.5 16.3034 13.5543 16.1716 13.663 16.063L17.4678 12.2582L13.663 8.45334C13.5591 8.34951 13.506 8.21898 13.5036 8.06177C13.5012 7.90457 13.5543 7.77164 13.663 7.66299C13.7716 7.55433 13.9034 7.5 14.0582 7.5C14.213 7.5 14.3447 7.55433 14.4533 7.66299L18.2582 11.4678L22.063 7.66299C22.1668 7.55914 22.2974 7.50602 22.4546 7.50362C22.6118 7.50121 22.7447 7.55433 22.8533 7.66299C22.962 7.77164 23.0163 7.90337 23.0163 8.05817C23.0163 8.21297 22.962 8.34469 22.8533 8.45334L19.0485 12.2582L22.8533 16.063C22.9572 16.1668 23.0103 16.2974 23.0127 16.4546C23.0151 16.6118 22.962 16.7447 22.8533 16.8533C22.7447 16.962 22.613 17.0163 22.4582 17.0163C22.3034 17.0163 22.1716 16.962 22.063 16.8533L18.2582 13.0485Z" fill="#E4003A"/>
</g>
</svg>
