<svg width="24" height="24" viewBox="0 0 24 24" fill="none" xmlns="http://www.w3.org/2000/svg">
<g id="Page-1">
<g id="SB_ENG_RGB">
<g id="Group">
<path id="Path_2_" d="M21.4951 4.66724C22.0731 5.39516 22.5442 6.20872 22.9295 7.0651L12.0107 15.1365L7.42908 12.2462V8.79926L11.9893 11.6681L21.4951 4.66724Z" fill="#21A038"/>
<g id="Path_3_">
<path id="Vector" d="M2.76182 12.0108C2.76182 11.8395 2.76182 11.711 2.78323 11.5398L0.0214095 11.3899C0.0214095 11.5826 0 11.7967 0 11.9894C0 15.3078 1.3488 18.3051 3.53256 20.4889L5.50223 18.5192C3.81088 16.8707 2.76182 14.5585 2.76182 12.0108Z" fill="url(#paint0_linear_659_54066)"/>
<path id="Vector_2" d="M11.9893 2.7833C12.1605 2.7833 12.289 2.7833 12.4603 2.80471L12.6101 0.0428938C12.4174 0.0428938 12.2033 0.0214844 12.0107 0.0214844C8.6922 0.0214844 5.69487 1.37028 3.51111 3.55404L5.48078 5.52371C7.15072 3.83237 9.46294 2.7833 11.9893 2.7833Z" fill="url(#paint1_linear_659_54066)"/>
<path id="Vector_3" d="M11.9893 21.238C11.818 21.238 11.6896 21.238 11.5183 21.2166L11.3684 23.9784C11.5611 23.9784 11.7752 23.9998 11.9679 23.9998C15.2863 23.9998 18.2837 22.651 20.4674 20.4672L18.4978 18.4976C16.8492 20.2103 14.5584 21.238 11.9893 21.238Z" fill="url(#paint2_linear_659_54066)"/>
</g>
<g id="Path_4_">
<path id="Vector_4" d="M17.1918 4.38894L19.5254 2.65477C17.4915 1.00624 14.8581 0 11.9893 0V2.76182C13.9375 2.78323 15.7359 3.38269 17.1918 4.38894Z" fill="url(#paint3_linear_659_54066)"/>
<path id="Vector_5" d="M24 12.0107C24 11.2828 23.9358 10.5763 23.8073 9.84839L21.2382 11.7752C21.2382 11.8395 21.2382 11.9465 21.2382 12.0107C21.2382 14.7297 20.0607 17.1704 18.1766 18.8404L20.0393 20.8957C22.4799 18.7333 24 15.5433 24 12.0107Z" fill="#21A038"/>
<path id="Vector_6" d="M11.9893 21.2381C9.27029 21.2381 6.82962 20.0605 5.15968 18.1765L3.10437 20.0391C5.30954 22.4798 8.47814 23.9999 11.9893 23.9999V21.2381Z" fill="url(#paint4_linear_659_54066)"/>
<path id="Vector_7" d="M5.82337 5.18104L3.96075 3.12573C1.52007 5.3095 0 8.4781 0 12.0107H2.76182C2.76182 9.31307 3.93934 6.85098 5.82337 5.18104Z" fill="url(#paint5_linear_659_54066)"/>
</g>
</g>
</g>
</g>
<defs>
<linearGradient id="paint0_linear_659_54066" x1="3.31064" y1="20.1296" x2="0.485562" y2="11.9634" gradientUnits="userSpaceOnUse">
<stop offset="0.1444" stop-color="#F2E913"/>
<stop offset="0.3037" stop-color="#E7E518"/>
<stop offset="0.5823" stop-color="#CADB26"/>
<stop offset="0.891" stop-color="#A3CD39"/>
</linearGradient>
<linearGradient id="paint1_linear_659_54066" x1="4.33841" y1="3.31661" x2="11.5161" y2="0.581402" gradientUnits="userSpaceOnUse">
<stop offset="0.0592" stop-color="#0FA8E0"/>
<stop offset="0.5385" stop-color="#0099F9"/>
<stop offset="0.9234" stop-color="#0291EB"/>
</linearGradient>
<linearGradient id="paint2_linear_659_54066" x1="11.2066" y1="21.6135" x2="19.7616" y2="19.6799" gradientUnits="userSpaceOnUse">
<stop offset="0.1226" stop-color="#A3CD39"/>
<stop offset="0.2846" stop-color="#86C339"/>
<stop offset="0.8693" stop-color="#21A038"/>
</linearGradient>
<linearGradient id="paint3_linear_659_54066" x1="11.4008" y1="1.82556" x2="18.515" y2="4.02075" gradientUnits="userSpaceOnUse">
<stop offset="0.0566" stop-color="#0291EB"/>
<stop offset="0.79" stop-color="#0C8ACB"/>
</linearGradient>
<linearGradient id="paint4_linear_659_54066" x1="3.82808" y1="20.4131" x2="11.4679" y2="23.2675" gradientUnits="userSpaceOnUse">
<stop offset="0.1324" stop-color="#F2E913"/>
<stop offset="0.2977" stop-color="#EBE716"/>
<stop offset="0.5306" stop-color="#D9E01F"/>
<stop offset="0.8023" stop-color="#BBD62D"/>
<stop offset="0.9829" stop-color="#A3CD39"/>
</linearGradient>
<linearGradient id="paint5_linear_659_54066" x1="2.20187" y1="12.3885" x2="5.25675" y2="4.44169" gradientUnits="userSpaceOnUse">
<stop offset="0.0698" stop-color="#A3CD39"/>
<stop offset="0.2599" stop-color="#81C55F"/>
<stop offset="0.9216" stop-color="#0FA8E0"/>
</linearGradient>
</defs>
</svg>
