<svg width="300" height="300" viewBox="0 0 300 300" fill="none" xmlns="http://www.w3.org/2000/svg">
<mask id="mask0_783_99238" style="mask-type:luminance" maskUnits="userSpaceOnUse" x="0" y="0" width="300" height="300">
<path d="M0 0H300V300H0V0Z" fill="white"/>
</mask>
<g mask="url(#mask0_783_99238)">
<path d="M282.555 168.034C273.722 191.694 255.672 217.3 230.274 224.882C191.897 236.341 187.313 267.275 118.576 264.406C107.859 263.96 97.9534 262.453 88.8538 260.047C83.9614 258.755 79.3018 257.196 74.8792 255.399C34.7236 239.135 13.7764 203.338 12.037 165.883C9.74201 116.622 44.113 93.1418 66.4516 79.3934C88.7896 65.6451 115.713 12.3722 183.308 14.6618C193.613 15.0152 203.895 16.424 213.859 19.1246C236.603 25.2806 259.724 38.8958 273.159 58.7996C274.167 60.2948 275.13 61.8248 276.051 63.3842C294.032 93.8895 294.599 135.778 282.555 168.034Z" fill="#599BFE"/>
<mask id="mask1_783_99238" style="mask-type:luminance" maskUnits="userSpaceOnUse" x="11" y="14" width="280" height="251">
<path d="M11.9297 14.5896H290.721V264.593H11.9297V14.5896Z" fill="white"/>
</mask>
<g mask="url(#mask1_783_99238)">
<g opacity="0.699997">
<path d="M282.557 168.034C273.724 191.694 255.674 217.301 230.276 224.882C191.899 236.342 187.315 267.275 118.578 264.406C107.861 263.96 97.9554 262.453 88.8558 260.048C83.9634 258.755 79.3038 257.196 74.8812 255.399C34.7256 239.135 13.7784 203.339 12.039 165.884C9.74397 116.622 44.115 93.1421 66.4536 79.3937C88.7916 65.6453 115.715 12.3725 183.31 14.6621C193.615 15.0155 203.897 16.4243 213.861 19.1249C236.605 25.2809 259.726 38.8961 273.161 58.7999C274.169 60.2951 275.132 61.8251 276.053 63.3845C294.034 93.8897 294.601 135.778 282.557 168.034Z" fill="white"/>
</g>
</g>
</g>
<mask id="mask2_783_99238" style="mask-type:luminance" maskUnits="userSpaceOnUse" x="0" y="0" width="300" height="300">
<path d="M0 0H300V300H0V0Z" fill="white"/>
</mask>
<g mask="url(#mask2_783_99238)">
<path d="M150.302 189.43C143.327 173.59 144.353 147.648 147.59 145.491C151.15 143.117 156.785 155.279 162.422 151.719C168.057 148.16 171.913 140.448 167.168 128.286C162.422 116.124 156.193 124.133 151.743 127.099C147.293 130.066 143.734 127.396 144.624 116.718C145.28 108.843 148.354 94.3646 149.924 87.299C150.631 87.6044 151.339 87.9134 152.039 88.2416C138.098 81.716 122.674 79.6394 116.148 81.716C109.623 83.792 110.808 84.3854 114.07 92.0948C120.876 108.18 95.0994 113.709 87.6576 101.306C83.208 93.89 89.748 89.7248 87.9684 84.3854C86.1888 79.046 53.2632 85.2752 49.11 87.6482C49.11 87.6482 57.1188 111.675 55.9326 120.277C54.7458 128.88 50.5932 132.735 44.3646 126.506C38.1354 120.277 30.126 125.913 29.8296 136.295C29.5326 146.677 31.3128 154.983 38.4318 152.61C45.5508 150.237 51.1866 141.634 53.5596 152.61C55.9326 163.585 51.78 177.822 49.407 187.908C49.407 187.908 68.094 195.917 76.6968 195.324C85.2984 194.73 90.6378 194.434 87.9684 189.094C85.2984 183.755 80.8494 180.196 84.1122 174.264C87.375 168.331 100.427 168.924 107.249 170.407C114.071 171.891 117.038 176.933 114.961 182.568C112.885 188.205 109.325 193.841 115.851 195.027C122.002 196.145 137.641 193.573 153.079 188.554C152.153 188.855 151.227 189.147 150.302 189.43Z" stroke="#1A2E35" stroke-width="0.6" stroke-miterlimit="10"/>
<path d="M155.895 187.611C154.983 187.926 154.067 188.232 153.15 188.531" stroke="#1A2E35" stroke-width="0.6" stroke-miterlimit="10"/>
<path d="M264.164 123.836C258.528 123.836 258.231 128.286 252.299 127.396C246.366 126.506 245.773 112.861 252.002 88.8347C252.002 88.8347 245.179 93.8771 229.755 94.1735C214.33 94.4705 208.101 92.6903 211.957 87.0545C215.814 81.4187 218.78 76.9691 215.517 72.5201C212.254 68.0705 196.533 68.6639 191.49 72.5201C186.448 76.3757 190.007 80.8253 193.567 85.8683C197.127 90.9107 192.974 93.8771 187.041 94.1735C181.108 94.4705 165.981 94.7669 152.039 88.2413C151.338 87.9125 150.631 87.6041 149.923 87.2987C148.354 94.3637 145.279 108.842 144.624 116.717C143.734 127.396 147.293 130.066 151.743 127.099C156.192 124.133 162.421 116.124 167.167 128.286C171.913 140.447 168.057 148.16 162.421 151.719C156.785 155.279 151.15 143.117 147.589 145.49C144.353 147.648 143.326 173.589 150.301 189.43C152.166 188.859 154.036 188.254 155.895 187.612C172.21 181.975 188.524 179.306 191.49 183.161C194.457 187.018 193.27 186.425 189.414 192.357C185.558 198.289 185.854 203.332 192.38 206.299C198.906 209.264 214.924 208.672 216.407 201.849C217.89 195.027 209.584 191.17 213.441 184.645C217.297 178.119 251.409 187.612 251.409 187.612C251.409 187.612 243.697 161.508 246.663 152.906C249.629 144.304 252.002 146.38 256.749 149.643C261.495 152.906 267.724 152.609 270.097 143.117C272.47 133.625 269.8 123.836 264.164 123.836Z" stroke="#1A2E35" stroke-width="0.6" stroke-miterlimit="10"/>
</g>
<mask id="mask3_783_99238" style="mask-type:luminance" maskUnits="userSpaceOnUse" x="0" y="0" width="300" height="300">
<path d="M0 0H300V300H0V0Z" fill="white"/>
</mask>
<g mask="url(#mask3_783_99238)">
<path d="M255.189 47.2646C255.189 38.9144 248.42 32.1458 240.07 32.1458C231.72 32.1458 224.951 38.9144 224.951 47.2646C224.951 55.6148 231.72 62.3834 240.07 62.3834C248.42 62.3834 255.189 55.6148 255.189 47.2646Z" fill="#599BFE"/>
<path d="M255.189 47.2646C255.189 38.9144 248.42 32.1458 240.07 32.1458C231.72 32.1458 224.951 38.9144 224.951 47.2646C224.951 55.6148 231.72 62.3834 240.07 62.3834C248.42 62.3834 255.189 55.6148 255.189 47.2646Z" stroke="#1A2E35" stroke-width="0.6" stroke-miterlimit="10"/>
<path d="M252.5 47.2646C252.5 40.4 246.935 34.835 240.07 34.835C233.206 34.835 227.641 40.4 227.641 47.2646C227.641 54.1292 233.206 59.6942 240.07 59.6942C246.935 59.6942 252.5 54.1292 252.5 47.2646Z" fill="white"/>
<path d="M252.5 47.2646C252.5 40.4 246.935 34.835 240.07 34.835C233.206 34.835 227.641 40.4 227.641 47.2646C227.641 54.1292 233.206 59.6942 240.07 59.6942C246.935 59.6942 252.5 54.1292 252.5 47.2646Z" stroke="#1A2E35" stroke-width="0.6" stroke-miterlimit="10"/>
<path d="M249.122 47.2647C249.122 42.2649 245.069 38.2113 240.069 38.2113C235.069 38.2113 231.016 42.2649 231.016 47.2647C231.016 52.2645 235.069 56.3181 240.069 56.3181C245.069 56.3181 249.122 52.2645 249.122 47.2647Z" fill="#599BFE"/>
<path d="M249.122 47.2647C249.122 42.2649 245.069 38.2113 240.069 38.2113C235.069 38.2113 231.016 42.2649 231.016 47.2647C231.016 52.2645 235.069 56.3181 240.069 56.3181C245.069 56.3181 249.122 52.2645 249.122 47.2647Z" stroke="#1A2E35" stroke-width="0.6" stroke-miterlimit="10"/>
<path d="M245.785 47.2639C245.785 44.1073 243.226 41.5483 240.07 41.5483C236.913 41.5483 234.354 44.1073 234.354 47.2639C234.354 50.4205 236.913 52.9795 240.07 52.9795C243.226 52.9795 245.785 50.4205 245.785 47.2639Z" fill="white"/>
<path d="M245.785 47.2639C245.785 44.1073 243.226 41.5483 240.07 41.5483C236.913 41.5483 234.354 44.1073 234.354 47.2639C234.354 50.4205 236.913 52.9795 240.07 52.9795C243.226 52.9795 245.785 50.4205 245.785 47.2639Z" stroke="#1A2E35" stroke-width="0.6" stroke-miterlimit="10"/>
<path d="M242.714 47.2637C242.714 45.8021 241.529 44.6171 240.068 44.6171C238.606 44.6171 237.422 45.8021 237.422 47.2637C237.422 48.7253 238.606 49.9097 240.068 49.9097C241.529 49.9097 242.714 48.7253 242.714 47.2637Z" fill="#599BFE"/>
<path d="M242.714 47.2637C242.714 45.8021 241.529 44.6171 240.068 44.6171C238.606 44.6171 237.422 45.8021 237.422 47.2637C237.422 48.7253 238.606 49.9097 240.068 49.9097C241.529 49.9097 242.714 48.7253 242.714 47.2637Z" stroke="#1A2E35" stroke-width="0.6" stroke-miterlimit="10"/>
<path d="M241.162 43.1159L240.07 47.2649L243.987 48.1223L241.162 43.1159Z" fill="#1A2E35"/>
<path d="M241.162 43.1159L240.07 47.2649L243.987 48.1223L241.162 43.1159Z" stroke="#1A2E35" stroke-width="0.6" stroke-miterlimit="10"/>
<path d="M242.832 45.4264L260.033 36.055L242.832 45.4264Z" fill="white"/>
<path d="M242.832 45.4264L260.033 36.055" stroke="#1A2E35" stroke-width="1.2" stroke-miterlimit="10"/>
<path d="M254.512 39.1361L254.769 34.6433L262.856 30.0221V35.1569L254.512 39.1361Z" fill="#1A2E35"/>
<path d="M254.512 39.1361L254.769 34.6433L262.856 30.0221V35.1569L254.512 39.1361Z" stroke="#1A2E35" stroke-width="0.6" stroke-miterlimit="10"/>
<path d="M266.323 37.5958L262.782 34.984L254.48 39.3502L258.479 41.6632L266.323 37.5958Z" fill="#1A2E35"/>
<path d="M266.323 37.5958L262.782 34.984L254.48 39.3502L258.479 41.6632L266.323 37.5958Z" stroke="#1A2E35" stroke-width="0.6" stroke-miterlimit="10"/>
</g>
<path d="M160.807 48.1794H154.793V62.4966H160.807V48.1794Z" fill="#599BFE" stroke="#1A2E35" stroke-width="0.6" stroke-miterlimit="10"/>
<path d="M169.672 43.8413H163.658V62.4965H169.672V43.8413Z" fill="#599BFE" stroke="#1A2E35" stroke-width="0.6" stroke-miterlimit="10"/>
<path d="M178.535 48.1794H172.521V62.4966H178.535V48.1794Z" fill="#599BFE" stroke="#1A2E35" stroke-width="0.6" stroke-miterlimit="10"/>
<path d="M187.399 42.8987H181.385V62.4971H187.399V42.8987Z" fill="#599BFE" stroke="#1A2E35" stroke-width="0.6" stroke-miterlimit="10"/>
<path d="M196.261 35.7323H190.248V62.4965H196.261V35.7323Z" fill="#599BFE" stroke="#1A2E35" stroke-width="0.6" stroke-miterlimit="10"/>
<path d="M188.277 24.3885L190.623 25.3923L174.669 40.7031L167.05 36.5469L154.98 43.8849V46.1007L167.101 38.7315L174.98 43.0293L191.935 26.7585L192.84 29.1435L196.195 21.3573L188.277 24.3885Z" fill="#1A2E35"/>
<path d="M188.277 24.3885L190.623 25.3923L174.669 40.7031L167.05 36.5469L154.98 43.8849V46.1007L167.101 38.7315L174.98 43.0293L191.935 26.7585L192.84 29.1435L196.195 21.3573L188.277 24.3885Z" stroke="#1A2E35" stroke-width="0.6" stroke-miterlimit="10" stroke-linecap="round" stroke-linejoin="round"/>
<mask id="mask4_783_99238" style="mask-type:luminance" maskUnits="userSpaceOnUse" x="0" y="0" width="300" height="300">
<path d="M0 0H300V300H0V0Z" fill="white"/>
</mask>
<g mask="url(#mask4_783_99238)">
<path d="M129.95 47.1718C129.95 38.8216 123.181 32.053 114.832 32.053C106.481 32.053 99.7129 38.8216 99.7129 47.1718C99.7129 55.522 106.481 62.2906 114.832 62.2906C123.181 62.2906 129.95 55.522 129.95 47.1718Z" fill="white"/>
<path d="M129.95 47.1718C129.95 38.8216 123.181 32.053 114.832 32.053C106.481 32.053 99.7129 38.8216 99.7129 47.1718C99.7129 55.522 106.481 62.2906 114.832 62.2906C123.181 62.2906 129.95 55.522 129.95 47.1718Z" stroke="#1A2E35" stroke-width="0.6" stroke-miterlimit="10"/>
<path d="M128.274 47.1717C128.274 39.7485 122.257 33.7305 114.834 33.7305C107.411 33.7305 101.393 39.7485 101.393 47.1717C101.393 54.5949 107.411 60.6123 114.834 60.6123C122.257 60.6123 128.274 54.5949 128.274 47.1717Z" fill="#599BFE"/>
<path d="M128.274 47.1717C128.274 39.7485 122.257 33.7305 114.834 33.7305C107.411 33.7305 101.393 39.7485 101.393 47.1717C101.393 54.5949 107.411 60.6123 114.834 60.6123C122.257 60.6123 128.274 54.5949 128.274 47.1717Z" stroke="#1A2E35" stroke-width="0.6" stroke-miterlimit="10"/>
<path d="M126.947 47.2647C126.947 40.5663 121.517 35.1363 114.818 35.1363C108.12 35.1363 102.689 40.5663 102.689 47.2647C102.689 53.9631 108.12 59.3931 114.818 59.3931C121.517 59.3931 126.947 53.9631 126.947 47.2647Z" fill="white"/>
<path d="M116.609 48.7281H109.867C109.25 48.7281 108.75 48.228 108.75 47.6111C108.75 46.9942 109.25 46.4942 109.867 46.4942H116.55C117.18 46.4942 117.698 46.3941 118.103 46.1939C118.513 45.9937 118.816 45.7154 119.011 45.3589C119.211 45.0025 119.309 44.585 119.304 44.1065C119.309 43.6377 119.211 43.2178 119.011 42.8467C118.816 42.4707 118.518 42.1753 118.118 41.9605C117.722 41.7408 117.219 41.6309 116.609 41.6309H114.81C114.178 41.6309 113.665 42.1439 113.665 42.7767V53.2292C113.665 53.862 113.152 54.375 112.519 54.375H112.1C111.468 54.375 110.955 53.862 110.955 53.2292V40.5209C110.955 39.888 111.468 39.375 112.1 39.375H116.609C117.771 39.375 118.755 39.585 119.561 40.0049C120.366 40.42 120.977 40.9839 121.392 41.6968C121.812 42.4048 122.021 43.2007 122.021 44.0845C122.021 45.0025 121.809 45.8106 121.384 46.5088C120.959 47.2022 120.344 47.7466 119.539 48.1421C118.733 48.5327 117.756 48.7281 116.609 48.7281ZM115.836 49.8413C116.453 49.8413 116.953 50.3414 116.953 50.9583C116.953 51.5752 116.453 52.0752 115.836 52.0752H109.867C109.25 52.0752 108.75 51.5752 108.75 50.9583C108.75 50.3414 109.25 49.8413 109.867 49.8413H115.836Z" fill="#263238"/>
</g>
<path d="M65.8248 61.8642H37.752V35.4714H65.8248V61.8642Z" fill="white" stroke="#1A2E35" stroke-width="0.6" stroke-miterlimit="10"/>
<path d="M65.8248 42.258H37.752V35.4714H65.8248V42.258Z" fill="#599BFE" stroke="#1A2E35" stroke-width="0.6" stroke-miterlimit="10" stroke-linecap="round" stroke-linejoin="round"/>
<path d="M43.3906 49.3878H40.0312V46.029H43.3906V49.3878Z" fill="#599BFE" stroke="#1A2E35" stroke-width="0.6" stroke-miterlimit="10" stroke-linecap="round" stroke-linejoin="round"/>
<path d="M48.4277 49.3878H45.0684V46.029H48.4277V49.3878Z" fill="#599BFE" stroke="#1A2E35" stroke-width="0.6" stroke-miterlimit="10" stroke-linecap="round" stroke-linejoin="round"/>
<path d="M53.4662 49.3878H50.1074V46.029H53.4662V49.3878Z" fill="#599BFE" stroke="#1A2E35" stroke-width="0.6" stroke-miterlimit="10" stroke-linecap="round" stroke-linejoin="round"/>
<path d="M58.5059 49.3878H55.1465V46.029H58.5059V49.3878Z" fill="#599BFE" stroke="#1A2E35" stroke-width="0.6" stroke-miterlimit="10" stroke-linecap="round" stroke-linejoin="round"/>
<path d="M63.545 49.3878H60.1855V46.029H63.545V49.3878Z" fill="#599BFE" stroke="#1A2E35" stroke-width="0.6" stroke-miterlimit="10" stroke-linecap="round" stroke-linejoin="round"/>
<path d="M43.3906 54.6667H40.0312V51.3073H43.3906V54.6667Z" fill="#599BFE" stroke="#1A2E35" stroke-width="0.6" stroke-miterlimit="10" stroke-linecap="round" stroke-linejoin="round"/>
<path d="M48.4277 54.6667H45.0684V51.3073H48.4277V54.6667Z" fill="#599BFE" stroke="#1A2E35" stroke-width="0.6" stroke-miterlimit="10" stroke-linecap="round" stroke-linejoin="round"/>
<path d="M53.4662 54.6667H50.1074V51.3073H53.4662V54.6667Z" fill="#599BFE" stroke="#1A2E35" stroke-width="0.6" stroke-miterlimit="10" stroke-linecap="round" stroke-linejoin="round"/>
<path d="M58.5059 54.6667H55.1465V51.3073H58.5059V54.6667Z" fill="#599BFE" stroke="#1A2E35" stroke-width="0.6" stroke-miterlimit="10" stroke-linecap="round" stroke-linejoin="round"/>
<path d="M63.545 54.6667H60.1855V51.3073H63.545V54.6667Z" fill="#599BFE" stroke="#1A2E35" stroke-width="0.6" stroke-miterlimit="10" stroke-linecap="round" stroke-linejoin="round"/>
<path d="M43.3906 59.9447H40.0312V56.5859H43.3906V59.9447Z" fill="#599BFE" stroke="#1A2E35" stroke-width="0.6" stroke-miterlimit="10" stroke-linecap="round" stroke-linejoin="round"/>
<path d="M48.4277 59.9447H45.0684V56.5859H48.4277V59.9447Z" fill="#599BFE" stroke="#1A2E35" stroke-width="0.6" stroke-miterlimit="10" stroke-linecap="round" stroke-linejoin="round"/>
<path d="M53.4662 59.9447H50.1074V56.5859H53.4662V59.9447Z" fill="#599BFE" stroke="#1A2E35" stroke-width="0.6" stroke-miterlimit="10" stroke-linecap="round" stroke-linejoin="round"/>
<path d="M58.5059 59.9447H55.1465V56.5859H58.5059V59.9447Z" fill="#599BFE" stroke="#1A2E35" stroke-width="0.6" stroke-miterlimit="10" stroke-linecap="round" stroke-linejoin="round"/>
<path d="M63.545 59.9447H60.1855V56.5859H63.545V59.9447Z" fill="#599BFE" stroke="#1A2E35" stroke-width="0.6" stroke-miterlimit="10" stroke-linecap="round" stroke-linejoin="round"/>
<path d="M43.9912 37.6308H41.5918V31.1526H43.9912V37.6308Z" fill="#1A2E35"/>
<path d="M49.9873 37.6308H47.5879V31.1526H49.9873V37.6308Z" fill="#1A2E35"/>
<path d="M55.9873 37.6308H53.5879V31.1526H55.9873V37.6308Z" fill="#1A2E35"/>
<path d="M61.9854 37.6308H59.5859V31.1526H61.9854V37.6308Z" fill="#1A2E35"/>
<mask id="mask5_783_99238" style="mask-type:luminance" maskUnits="userSpaceOnUse" x="0" y="0" width="300" height="300">
<path d="M0 0H300V300H0V0Z" fill="white"/>
</mask>
<g mask="url(#mask5_783_99238)">
<path d="M13.3354 232.635C14.638 233.204 17.824 233.132 17.8264 233.132C17.8594 233.131 17.1418 231.047 17.0812 230.921C16.3822 229.458 14.1718 227.043 12.373 227.286C11.077 227.462 10.3564 228.758 10.6486 229.978C10.948 231.224 12.226 232.149 13.3354 232.635Z" fill="#599BFE"/>
<path d="M14.4337 241.863C15.7849 242.06 18.6283 241.236 18.8545 241.169C19.3033 242.761 19.8931 244.357 20.5789 245.941C20.9701 246.846 21.3919 247.746 21.8269 248.643C21.5677 248.263 21.3325 247.926 21.2947 247.881C20.2339 246.655 17.4643 244.911 15.7939 245.62C14.5897 246.131 14.2375 247.573 14.8423 248.672C15.4585 249.795 16.9369 250.351 18.1345 250.525C19.3501 250.702 21.7885 250.048 22.4317 249.866C22.6021 250.208 22.7683 250.552 22.9399 250.894C23.7631 252.533 24.5917 254.166 25.3555 255.792C25.6249 256.364 25.8691 256.938 26.1163 257.512C25.8853 257.175 25.6879 256.893 25.6537 256.852C24.5929 255.627 21.8233 253.882 20.1529 254.592C18.9487 255.102 18.5965 256.544 19.2007 257.643C19.8187 258.766 21.2959 259.321 22.4935 259.496C23.6539 259.665 25.9093 259.081 26.6743 258.869C26.9095 259.464 27.1459 260.059 27.3463 260.647C27.4741 261.051 27.6259 261.43 27.7309 261.843C27.8449 262.25 27.9571 262.653 28.0681 263.051C28.2541 263.826 28.4509 264.626 28.6135 265.387C28.7305 265.915 28.8325 266.421 28.9363 266.93C28.6747 266.357 28.1389 265.245 28.0837 265.157C27.2215 263.785 24.7477 261.641 22.9885 262.089C21.7213 262.412 21.1549 263.782 21.5857 264.961C22.0261 266.164 23.4019 266.937 24.5593 267.291C25.8343 267.681 28.6567 267.325 29.0089 267.278C29.1781 268.122 29.3341 268.943 29.4697 269.721C29.7721 271.437 30.0007 272.976 30.1741 274.278H31.3639C31.1569 272.931 30.8851 271.326 30.5269 269.523C30.3589 268.666 30.1615 267.754 29.9503 266.819C30.1627 266.734 31.3663 266.248 32.4331 265.651C33.3613 266.658 35.7421 267.835 36.0505 267.985C35.7265 268.782 35.4037 269.553 35.0869 270.277C34.4287 271.792 33.8035 273.135 33.2515 274.278H34.5385C35.0125 273.225 35.5345 272.025 36.0781 270.696C36.4105 269.888 36.7495 269.018 37.0891 268.122C37.4311 268.194 40.2241 268.761 41.5261 268.467C42.7069 268.2 44.1373 267.532 44.6659 266.365C45.1837 265.222 44.7205 263.812 43.4803 263.396C41.7601 262.818 39.1339 264.772 38.1715 266.076C38.1145 266.153 37.5919 267.057 37.2715 267.632C37.4083 267.265 37.5457 266.91 37.6813 266.531C37.9567 265.783 38.2081 265.027 38.4823 264.216C38.6005 263.82 38.7205 263.419 38.8417 263.015C38.9701 262.617 39.0553 262.179 39.1651 261.757C39.3991 260.775 39.5881 259.768 39.7567 258.75C40.4125 258.988 42.7543 259.803 43.9675 259.718C45.1753 259.633 46.6897 259.189 47.3887 258.115C48.0733 257.064 47.8291 255.601 46.6675 255.001C45.0541 254.169 42.1615 255.703 41.0131 256.846C40.9411 256.918 40.2091 257.83 39.8167 258.34C39.9133 257.727 40.0123 257.116 40.0897 256.492C40.3129 254.692 40.4833 252.864 40.6609 251.04C40.7149 250.482 40.7755 249.926 40.8343 249.369C41.0671 249.456 43.8295 250.485 45.1879 250.389C46.3957 250.305 47.9107 249.861 48.6097 248.787C49.2943 247.736 49.0501 246.273 47.8879 245.673C46.2745 244.841 43.3831 246.375 42.2341 247.518C42.1477 247.604 41.0959 248.92 40.8451 249.267C40.9741 248.041 41.1145 246.82 41.3023 245.623C41.5585 243.97 41.9011 242.362 42.3481 240.829C42.4567 240.87 45.3349 241.956 46.7263 241.859C47.9341 241.774 49.4491 241.33 50.1481 240.256C50.8333 239.205 50.5891 237.742 49.4263 237.142C47.8129 236.31 44.9215 237.844 43.7725 238.987C43.6825 239.077 42.5515 240.493 42.3649 240.765C42.3919 240.673 42.4093 240.576 42.4375 240.486C42.9355 238.855 43.6231 237.338 44.3365 235.95C44.7493 235.142 45.1891 234.393 45.6337 233.674C46.1485 233.931 48.5167 235.081 49.7791 235.131C50.9887 235.18 52.5433 234.905 53.3563 233.915C54.1519 232.945 54.0703 231.463 52.9807 230.74C51.4687 229.736 48.4255 230.943 47.1583 231.953C47.0893 232.008 46.4503 232.644 45.9919 233.114C46.1971 232.792 46.4029 232.456 46.6063 232.153C47.3653 231.009 48.1315 230.009 48.8167 229.128C49.2103 228.631 49.5757 228.189 49.9231 227.779C50.5603 227.768 53.1289 227.69 54.2515 227.163C55.3471 226.648 56.6005 225.688 56.8657 224.434C57.1249 223.207 56.3695 221.93 55.0693 221.79C53.2651 221.596 51.1201 224.069 50.4607 225.55C50.4037 225.678 49.7425 227.781 49.7761 227.781H49.8145C49.4725 228.168 49.1107 228.588 48.7249 229.054C48.0193 229.922 47.2297 230.908 46.4425 232.039C45.6529 233.169 44.8267 234.417 44.0755 235.81C43.3207 237.206 42.5977 238.713 42.0535 240.362C42.0475 240.38 42.0439 240.4 42.0373 240.42C42.0463 239.887 42.0235 238.4 42.0085 238.286C41.7997 236.679 40.4527 233.695 38.6677 233.365C37.3819 233.127 36.2929 234.135 36.1903 235.386C36.0859 236.662 37.0117 237.94 37.9147 238.747C38.9329 239.656 41.7589 240.538 41.9845 240.607C41.4805 242.182 41.0917 243.84 40.7905 245.538C40.6171 246.509 40.4725 247.492 40.3405 248.48C40.3339 248.02 40.3243 247.609 40.3165 247.552C40.1083 245.944 38.7613 242.961 36.9763 242.631C35.6899 242.394 34.6009 243.401 34.4989 244.651C34.3939 245.928 35.3203 247.206 36.2227 248.013C37.1395 248.831 39.5335 249.631 40.1701 249.834C40.1233 250.213 40.0723 250.592 40.0273 250.972C39.8095 252.793 39.6001 254.612 39.3403 256.389C39.2491 257.016 39.1357 257.629 39.0253 258.244C39.0187 257.835 39.0097 257.491 39.0031 257.439C38.7949 255.831 37.4479 252.849 35.6629 252.519C34.3765 252.28 33.2875 253.288 33.1849 254.539C33.0805 255.816 34.0069 257.094 34.9093 257.901C35.7835 258.681 37.9873 259.439 38.7427 259.684C38.6101 260.31 38.4787 260.937 38.3221 261.537C38.2057 261.945 38.1223 262.345 37.9831 262.748C37.8535 263.149 37.7251 263.547 37.5979 263.941C37.3249 264.69 37.0483 265.465 36.7645 266.19C36.5707 266.695 36.3757 267.174 36.1819 267.655C36.2803 267.033 36.4465 265.81 36.4489 265.706C36.4735 264.629 36.0913 262.879 35.3305 261.649C35.3353 261.49 35.3257 261.331 35.3005 261.174C35.1019 259.935 33.9379 259.015 32.6737 259.351C30.9205 259.818 29.8075 262.897 29.7247 264.516C29.7199 264.611 29.7823 265.653 29.8327 266.31C29.7439 265.928 29.6629 265.557 29.5675 265.165C29.3833 264.39 29.1769 263.621 28.9579 262.793C28.8385 262.397 28.7173 261.997 28.5949 261.592C28.4821 261.19 28.3117 260.778 28.1713 260.366C27.8239 259.417 27.4261 258.473 27.0049 257.53C27.6835 257.368 30.0859 256.755 31.0507 256.015C32.0113 255.278 33.0301 254.072 33.0211 252.791C33.0121 251.536 32.0011 250.451 30.7009 250.592C28.8961 250.788 27.3307 253.662 27.0031 255.25C26.9827 255.349 26.8753 256.514 26.8291 257.155C26.5711 256.591 26.3167 256.026 26.0371 255.463C25.2307 253.839 24.3637 252.22 23.5063 250.601C23.2429 250.105 22.9867 249.609 22.7287 249.112C22.9711 249.056 25.8427 248.39 26.9233 247.561C27.8839 246.825 28.9021 245.619 28.8931 244.337C28.8841 243.082 27.8731 241.997 26.5735 242.138C24.7687 242.334 23.2027 245.208 22.8751 246.796C22.8505 246.916 22.6993 248.593 22.6819 249.021C22.1131 247.927 21.5569 246.831 21.0523 245.729C20.3545 244.209 19.7533 242.679 19.2805 241.154C19.3939 241.128 22.3939 240.447 23.5003 239.598C24.4609 238.86 25.4797 237.654 25.4707 236.373C25.4617 235.119 24.4507 234.033 23.1505 234.174C21.3463 234.37 19.7803 237.245 19.4527 238.832C19.4269 238.957 19.2649 240.762 19.2589 241.09C19.2313 241 19.1917 240.909 19.1653 240.818C18.6817 239.183 18.4183 237.538 18.2467 235.987C18.1459 235.086 18.0991 234.219 18.0733 233.374C18.6451 233.304 21.2545 232.956 22.3351 232.302C23.3707 231.675 24.5161 230.589 24.6475 229.314C24.7759 228.066 23.8903 226.876 22.5835 226.873C20.7679 226.87 18.8959 229.555 18.3961 231.097C18.3685 231.181 18.1861 232.064 18.0631 232.709C18.0571 232.327 18.0439 231.934 18.0457 231.568C18.0481 230.196 18.1345 228.939 18.2209 227.826C18.2743 227.194 18.3361 226.624 18.3991 226.09C18.9241 225.729 21.0235 224.248 21.6697 223.188C22.2991 222.154 22.8151 220.663 22.3441 219.471C21.8839 218.304 20.5489 217.656 19.3879 218.256C17.7751 219.09 17.3509 222.336 17.6173 223.934C17.6407 224.073 18.2497 226.192 18.2773 226.174C18.2773 226.174 18.3031 226.156 18.3091 226.151C18.2377 226.663 18.1681 227.213 18.1039 227.815C17.9929 228.928 17.8783 230.186 17.8465 231.564C17.8105 232.941 17.8105 234.438 17.9527 236.015C18.0931 237.595 18.3211 239.251 18.7771 240.926C18.7825 240.946 18.7903 240.964 18.7957 240.983C18.5095 240.535 17.6695 239.307 17.5939 239.22C16.5337 237.994 13.7641 236.25 12.0931 236.959C10.8895 237.47 10.5367 238.911 11.1415 240.01C11.7589 241.134 13.2361 241.689 14.4337 241.863Z" fill="#599BFE"/>
<path d="M45.5611 233.335C45.5893 233.353 46.1407 231.218 46.1605 231.079C46.3837 229.474 45.8719 226.241 44.2369 225.451C43.0597 224.882 41.7433 225.567 41.3143 226.746C40.8763 227.949 41.4319 229.427 42.0895 230.443C42.8617 231.637 45.5593 233.334 45.5611 233.335Z" fill="#599BFE"/>
<path d="M234.802 232.635C236.105 233.204 239.29 233.132 239.293 233.132C239.326 233.131 238.608 231.047 238.548 230.921C237.849 229.458 235.639 227.043 233.84 227.286C232.544 227.462 231.823 228.758 232.115 229.978C232.415 231.224 233.692 232.149 234.802 232.635Z" fill="#599BFE"/>
<path d="M235.902 241.863C237.253 242.06 240.097 241.236 240.323 241.169C240.772 242.761 241.362 244.357 242.047 245.941C242.439 246.846 242.861 247.746 243.295 248.643C243.036 248.263 242.801 247.926 242.764 247.881C241.702 246.655 238.933 244.911 237.263 245.62C236.059 246.131 235.707 247.573 236.311 248.672C236.928 249.795 238.405 250.351 239.603 250.525C240.819 250.702 243.257 250.048 243.9 249.866C244.07 250.208 244.237 250.552 244.408 250.894C245.232 252.533 246.061 254.166 246.824 255.792C247.093 256.364 247.338 256.938 247.585 257.512C247.354 257.175 247.157 256.893 247.122 256.852C246.062 255.627 243.292 253.882 241.621 254.592C240.417 255.102 240.064 256.544 240.669 257.643C241.287 258.766 242.764 259.321 243.963 259.496C245.122 259.665 247.378 259.081 248.143 258.869C248.378 259.464 248.614 260.059 248.815 260.647C248.943 261.051 249.094 261.43 249.199 261.843C249.313 262.25 249.426 262.653 249.537 263.051C249.723 263.826 249.919 264.626 250.082 265.387C250.199 265.915 250.3 266.421 250.405 266.93C250.143 266.357 249.607 265.245 249.552 265.157C248.689 263.785 246.216 261.641 244.458 262.089C243.19 262.412 242.623 263.782 243.055 264.961C243.494 266.164 244.87 266.937 246.028 267.291C247.303 267.681 250.125 267.325 250.477 267.278C250.646 268.122 250.803 268.943 250.938 269.721C251.241 271.437 251.469 272.976 251.643 274.278H252.832C252.625 272.931 252.354 271.326 251.995 269.523C251.827 268.666 251.63 267.754 251.419 266.819C251.631 266.734 252.835 266.248 253.902 265.651C254.83 266.658 257.211 267.835 257.519 267.985C257.195 268.782 256.872 269.553 256.556 270.277C255.897 271.792 255.272 273.135 254.72 274.278H256.007C256.482 273.225 257.003 272.025 257.547 270.696C257.879 269.888 258.218 269.018 258.558 268.122C258.899 268.194 261.693 268.761 262.995 268.467C264.175 268.2 265.606 267.532 266.135 266.365C266.652 265.222 266.189 263.812 264.949 263.396C263.229 262.818 260.602 264.772 259.64 266.076C259.583 266.153 259.06 267.057 258.74 267.632C258.877 267.265 259.014 266.91 259.15 266.531C259.425 265.783 259.677 265.027 259.951 264.216C260.069 263.82 260.19 263.419 260.31 263.015C260.439 262.617 260.524 262.179 260.634 261.757C260.868 260.775 261.057 259.768 261.225 258.75C261.881 258.988 264.223 259.803 265.436 259.718C266.643 259.633 268.158 259.189 268.858 258.115C269.542 257.064 269.298 255.601 268.136 255.001C266.523 254.169 263.631 255.703 262.482 256.846C262.41 256.918 261.678 257.83 261.286 258.34C261.382 257.727 261.481 257.116 261.558 256.492C261.781 254.692 261.951 252.864 262.129 251.04C262.183 250.482 262.244 249.926 262.303 249.369C262.536 249.456 265.297 250.485 266.657 250.389C267.865 250.305 269.379 249.861 270.078 248.787C270.763 247.736 270.519 246.273 269.356 245.673C267.743 244.841 264.852 246.375 263.703 247.518C263.616 247.604 262.564 248.92 262.314 249.267C262.443 248.041 262.584 246.82 262.771 245.623C263.027 243.97 263.37 242.362 263.817 240.829C263.925 240.87 266.803 241.956 268.195 241.859C269.403 241.774 270.918 241.33 271.617 240.256C272.302 239.205 272.058 237.742 270.895 237.142C269.282 236.31 266.39 237.844 265.24 238.987C265.151 239.077 264.02 240.493 263.834 240.765C263.861 240.673 263.878 240.576 263.906 240.486C264.405 238.855 265.092 237.338 265.805 235.95C266.218 235.142 266.658 234.393 267.102 233.674C267.617 233.931 269.986 235.081 271.248 235.131C272.457 235.18 274.012 234.905 274.824 233.915C275.62 232.945 275.539 231.463 274.449 230.74C272.937 229.736 269.894 230.943 268.627 231.953C268.558 232.008 267.919 232.644 267.46 233.114C267.666 232.792 267.871 232.456 268.075 232.153C268.834 231.009 269.599 230.009 270.285 229.128C270.679 228.631 271.044 228.189 271.392 227.779C272.029 227.768 274.597 227.69 275.72 227.163C276.816 226.648 278.069 225.688 278.334 224.434C278.593 223.207 277.838 221.93 276.538 221.79C274.734 221.596 272.589 224.069 271.929 225.55C271.872 225.678 271.212 227.781 271.244 227.781H271.283C270.941 228.168 270.58 228.588 270.193 229.054C269.488 229.922 268.698 230.908 267.912 232.039C267.121 233.169 266.295 234.417 265.544 235.81C264.789 237.206 264.066 238.713 263.522 240.362C263.515 240.38 263.512 240.4 263.506 240.42C263.515 239.887 263.491 238.4 263.477 238.286C263.268 236.679 261.921 233.695 260.136 233.365C258.85 233.127 257.761 234.135 257.659 235.386C257.554 236.662 258.48 237.94 259.383 238.747C260.401 239.656 263.228 240.538 263.453 240.607C262.949 242.182 262.561 243.84 262.259 245.538C262.086 246.509 261.941 247.492 261.809 248.48C261.802 248.02 261.793 247.609 261.786 247.552C261.577 245.944 260.23 242.961 258.444 242.631C257.159 242.394 256.069 243.401 255.967 244.651C255.863 245.928 256.789 247.206 257.691 248.013C258.608 248.831 261.003 249.631 261.639 249.834C261.592 250.213 261.541 250.592 261.496 250.972C261.278 252.793 261.069 254.612 260.809 256.389C260.718 257.016 260.605 257.629 260.494 258.244C260.488 257.835 260.478 257.491 260.472 257.439C260.263 255.831 258.916 252.849 257.131 252.519C255.845 252.28 254.757 253.288 254.654 254.539C254.549 255.816 255.475 257.094 256.378 257.901C257.252 258.681 259.456 259.439 260.212 259.684C260.079 260.31 259.947 260.937 259.791 261.537C259.674 261.945 259.591 262.345 259.452 262.748C259.322 263.149 259.194 263.547 259.066 263.941C258.793 264.69 258.517 265.465 258.233 266.19C258.039 266.695 257.844 267.174 257.65 267.655C257.748 267.033 257.915 265.81 257.917 265.706C257.942 264.629 257.56 262.879 256.799 261.649C256.804 261.49 256.794 261.331 256.769 261.174C256.57 259.935 255.406 259.015 254.142 259.351C252.389 259.818 251.276 262.897 251.193 264.516C251.188 264.611 251.251 265.653 251.301 266.31C251.213 265.928 251.131 265.557 251.036 265.165C250.852 264.39 250.645 263.621 250.426 262.793C250.307 262.397 250.186 261.997 250.063 261.592C249.951 261.19 249.78 260.778 249.64 260.366C249.292 259.417 248.895 258.473 248.473 257.53C249.153 257.368 251.555 256.755 252.519 256.015C253.48 255.278 254.499 254.072 254.49 252.791C254.481 251.536 253.47 250.451 252.169 250.592C250.365 250.788 248.799 253.662 248.471 255.25C248.451 255.349 248.344 256.514 248.298 257.155C248.04 256.591 247.785 256.026 247.506 255.463C246.699 253.839 245.833 252.22 244.975 250.601C244.712 250.105 244.456 249.609 244.197 249.112C244.44 249.056 247.311 248.39 248.392 247.561C249.352 246.825 250.371 245.619 250.362 244.337C250.353 243.082 249.342 241.997 248.041 242.138C246.237 242.334 244.671 245.208 244.344 246.796C244.319 246.916 244.167 248.593 244.15 249.021C243.582 247.927 243.025 246.831 242.521 245.729C241.822 244.209 241.222 242.679 240.749 241.154C240.862 241.128 243.862 240.447 244.969 239.598C245.929 238.86 246.948 237.654 246.939 236.373C246.93 235.119 245.919 234.033 244.619 234.174C242.815 234.37 241.248 237.245 240.921 238.832C240.895 238.957 240.733 240.762 240.727 241.09C240.699 241 240.661 240.909 240.634 240.818C240.15 239.183 239.887 237.538 239.715 235.987C239.614 235.086 239.568 234.219 239.541 233.374C240.114 233.304 242.723 232.956 243.804 232.302C244.84 231.675 245.985 230.589 246.115 229.314C246.244 228.066 245.359 226.876 244.051 226.873C242.236 226.87 240.364 229.555 239.865 231.097C239.837 231.181 239.655 232.064 239.532 232.709C239.526 232.327 239.512 231.934 239.514 231.568C239.516 230.196 239.603 228.939 239.689 227.826C239.743 227.194 239.805 226.624 239.868 226.09C240.393 225.729 242.492 224.248 243.138 223.188C243.768 222.154 244.284 220.663 243.813 219.471C243.352 218.304 242.017 217.656 240.856 218.256C239.244 219.09 238.819 222.336 239.086 223.934C239.11 224.073 239.718 226.192 239.746 226.174C239.746 226.174 239.772 226.156 239.778 226.151C239.707 226.663 239.637 227.213 239.572 227.815C239.462 228.928 239.347 230.186 239.314 231.564C239.279 232.941 239.279 234.438 239.421 236.015C239.562 237.595 239.79 239.251 240.246 240.926C240.25 240.946 240.259 240.964 240.264 240.983C239.978 240.535 239.138 239.307 239.062 239.22C238.002 237.994 235.233 236.25 233.562 236.959C232.358 237.47 232.006 238.911 232.61 240.01C233.227 241.134 234.705 241.689 235.902 241.863Z" fill="#599BFE"/>
<path d="M267.028 233.335C267.056 233.353 267.607 231.218 267.626 231.079C267.85 229.474 267.338 226.241 265.703 225.451C264.526 224.882 263.21 225.567 262.781 226.746C262.343 227.949 262.898 229.427 263.557 230.443C264.329 231.637 267.026 233.334 267.028 233.335Z" fill="#599BFE"/>
</g>
<mask id="mask6_783_99238" style="mask-type:luminance" maskUnits="userSpaceOnUse" x="0" y="0" width="300" height="300">
<path d="M0 0H300V300H0V0Z" fill="white"/>
</mask>
<g mask="url(#mask6_783_99238)">
<path d="M209.597 107.742C209.597 107.742 209.78 100.97 213.685 99.0467C217.591 97.1231 217.812 103.471 217.812 103.471C217.812 103.471 226.751 97.7969 228.688 102.099C230.626 106.401 227.918 108.482 227.918 108.482C227.918 108.482 235.853 108.205 236.402 112.555C236.951 116.906 232.854 119.035 232.854 119.035C232.854 119.035 237.76 123.035 236.037 124.883C234.314 126.73 230.544 126.862 230.544 126.862C230.544 126.862 232.681 131.157 228.96 132.677C225.239 134.197 220.969 131.366 220.969 131.366C220.969 131.366 221.634 133.33 218.835 132.831C216.038 132.333 213.212 131.041 211.48 126.93C209.747 122.82 207.509 111.203 209.597 107.742Z" fill="#1A2E35"/>
<path d="M209.597 107.742C209.597 107.742 209.78 100.97 213.685 99.0467C217.591 97.1231 217.812 103.471 217.812 103.471C217.812 103.471 226.751 97.7969 228.688 102.099C230.626 106.401 227.918 108.482 227.918 108.482C227.918 108.482 235.853 108.205 236.402 112.555C236.951 116.906 232.854 119.035 232.854 119.035C232.854 119.035 237.76 123.035 236.037 124.883C234.314 126.73 230.544 126.862 230.544 126.862C230.544 126.862 232.681 131.157 228.96 132.677C225.239 134.197 220.969 131.366 220.969 131.366C220.969 131.366 221.634 133.33 218.835 132.831C216.038 132.333 213.212 131.041 211.48 126.93C209.747 122.82 207.509 111.203 209.597 107.742Z" stroke="#1A2E35" stroke-width="0.6" stroke-miterlimit="10" stroke-linecap="round" stroke-linejoin="round"/>
<path d="M168.356 238.573C168.356 238.573 166.127 247.066 166.16 248.012C166.193 248.958 165.426 251.088 166.078 251.697C166.73 252.306 169.641 254.308 169.959 254.402C170.279 254.496 171.213 254.148 171.521 253.927C171.829 253.706 172.02 253.173 172.01 252.858C171.998 252.543 171.111 251.206 170.994 250.894C170.878 250.583 172.631 246.524 173.296 244.503C173.963 242.481 174.367 238.995 174.367 238.995L168.356 238.573Z" fill="white"/>
<path d="M168.356 238.573C168.356 238.573 166.127 247.066 166.16 248.012C166.193 248.958 165.426 251.088 166.078 251.697C166.73 252.306 169.641 254.308 169.959 254.402C170.279 254.496 171.213 254.148 171.521 253.927C171.829 253.706 172.02 253.173 172.01 252.858C171.998 252.543 171.111 251.206 170.994 250.894C170.878 250.583 172.631 246.524 173.296 244.503C173.963 242.481 174.367 238.995 174.367 238.995L168.356 238.573Z" stroke="#1A2E35" stroke-width="0.6" stroke-miterlimit="10"/>
<path d="M170.772 244.484C170.772 244.484 169.509 247.474 169.422 248.003C169.335 248.532 167.597 249.96 167.847 251.109C168.098 252.257 170.612 251.959 171.86 248.549" fill="white"/>
<path d="M170.772 244.484C170.772 244.484 169.509 247.474 169.422 248.003C169.335 248.532 167.597 249.96 167.847 251.109C168.098 252.257 170.612 251.959 171.86 248.549" stroke="#1A2E35" stroke-width="0.6" stroke-miterlimit="10"/>
<path d="M176.441 192.42C176.441 192.42 175.377 209.749 174.975 211.281C174.574 212.811 169.752 226.783 168.687 231.067C167.624 235.352 167.301 239.155 167.301 239.155L173.779 240.516L177.41 224.544C177.41 224.544 182.163 210.01 181.215 203.175C180.268 196.339 176.441 192.42 176.441 192.42Z" fill="#599BFE"/>
<path d="M176.441 192.42C176.441 192.42 175.377 209.749 174.975 211.281C174.574 212.811 169.752 226.783 168.687 231.067C167.624 235.352 167.301 239.155 167.301 239.155L173.779 240.516L177.41 224.544C177.41 224.544 182.163 210.01 181.215 203.175C180.268 196.339 176.441 192.42 176.441 192.42Z" stroke="#1A2E35" stroke-width="0.6" stroke-miterlimit="10"/>
<path d="M210.168 274.279C210.243 270.509 210.402 265.427 210.74 262.517C211.323 257.491 213.49 254.383 215.698 248.086C217.905 241.79 218.074 233.593 218.074 233.593L178.531 234.971C178.531 234.971 173.967 251.968 171.219 264.502C170.297 268.705 169.956 271.891 169.908 274.279" fill="#599BFE"/>
<path d="M210.168 274.279C210.243 270.509 210.402 265.427 210.74 262.517C211.323 257.491 213.49 254.383 215.698 248.086C217.905 241.79 218.074 233.593 218.074 233.593L178.531 234.971C178.531 234.971 173.967 251.968 171.219 264.502C170.297 268.705 169.956 271.891 169.908 274.279" stroke="#1A2E35" stroke-width="0.6" stroke-miterlimit="10"/>
<path d="M183.76 241.375L216.661 242.302L217.356 239.753L183.76 241.375Z" fill="#1A2E35"/>
<path d="M183.76 241.375L216.661 242.302L217.356 239.753L183.76 241.375Z" stroke="#1A2E35" stroke-width="0.6" stroke-miterlimit="10" stroke-linecap="round" stroke-linejoin="round"/>
<path d="M182.1 273.675C182.1 273.675 181.451 253.103 181.436 241.939L182.1 273.675Z" fill="white"/>
<path d="M182.1 273.675C182.1 273.675 181.451 253.103 181.436 241.939" stroke="#1A2E35" stroke-width="0.6" stroke-miterlimit="10"/>
<path d="M207.314 148.895L212.112 152.125C212.112 152.125 217.783 157.21 219.197 161.387C220.61 165.563 219.578 190.532 218.17 198.611C216.761 206.689 220.28 216.708 221.533 222.369C222.787 228.031 223.366 238.575 223.366 238.575C223.366 238.575 224.254 239.813 208.849 240.35C193.443 240.887 182.695 241.684 181.435 241.939C180.176 242.195 179.122 242.231 179.122 242.231L178.508 236.759L176.974 241.249L173.779 240.516C173.779 240.516 175.762 230.727 176.263 226.906C176.764 223.085 179.902 210.087 179.945 205.226C179.986 200.364 175.908 192.477 175.105 187.645C174.303 182.814 175.916 174.517 179.923 168.249C183.931 161.982 186.593 159.565 194.4 153.165C202.205 146.766 207.314 148.895 207.314 148.895Z" fill="#599BFE"/>
<path d="M207.314 148.895L212.112 152.125C212.112 152.125 217.783 157.21 219.197 161.387C220.61 165.563 219.578 190.532 218.17 198.611C216.761 206.689 220.28 216.708 221.533 222.369C222.787 228.031 223.366 238.575 223.366 238.575C223.366 238.575 224.254 239.813 208.849 240.35C193.443 240.887 182.695 241.684 181.435 241.939C180.176 242.195 179.122 242.231 179.122 242.231L178.508 236.759L176.974 241.249L173.779 240.516C173.779 240.516 175.762 230.727 176.263 226.906C176.764 223.085 179.902 210.087 179.945 205.226C179.986 200.364 175.908 192.477 175.105 187.645C174.303 182.814 175.916 174.517 179.923 168.249C183.931 161.982 186.593 159.565 194.4 153.165C202.205 146.766 207.314 148.895 207.314 148.895Z" stroke="#1A2E35" stroke-width="0.6" stroke-miterlimit="10"/>
<path d="M194.811 222.009L210.907 223.831L210.001 219.616L199.96 218.752" stroke="#1A2E35" stroke-width="0.6" stroke-miterlimit="10"/>
<path d="M189.183 218.521L188.369 221.28L192.407 221.736" stroke="#1A2E35" stroke-width="0.6" stroke-miterlimit="10"/>
<path d="M195.223 190.939C194.385 190.134 193.638 189.337 193.146 188.652" stroke="#1A2E35" stroke-width="0.6" stroke-miterlimit="10"/>
<path d="M200.824 195.666C200.824 195.666 199.124 194.382 197.264 192.783" stroke="#1A2E35" stroke-width="0.6" stroke-miterlimit="10"/>
<path d="M207.313 148.895C207.313 148.895 202.204 146.766 194.399 153.165C186.592 159.565 183.929 161.982 179.922 168.249C177.441 172.13 175.88 176.786 175.24 180.918C175.336 181.386 175.439 181.862 175.553 182.347C177.784 191.778 180.268 196.34 180.268 196.34C180.268 196.34 184.589 174.848 192.103 166.134C199.618 157.42 212.111 152.125 212.111 152.125L207.313 148.895Z" fill="#599BFE"/>
<path d="M207.313 148.895C207.313 148.895 202.204 146.766 194.399 153.165C186.592 159.565 183.929 161.982 179.922 168.249C177.441 172.13 175.88 176.786 175.24 180.918C175.336 181.386 175.439 181.862 175.553 182.347C177.784 191.778 180.268 196.34 180.268 196.34C180.268 196.34 184.589 174.848 192.103 166.134C199.618 157.42 212.111 152.125 212.111 152.125L207.313 148.895Z" stroke="#1A2E35" stroke-width="0.6" stroke-miterlimit="10"/>
<path d="M188.553 106.974C188.553 106.974 182.919 112.237 182.501 116.38C182.082 120.523 181.644 124.104 180.941 125.442C180.236 126.78 176.701 127.654 177.897 129.677C179.094 131.699 180.218 131.66 180.218 131.66C180.218 131.66 182.032 140.604 183.39 141.87C184.747 143.136 189.6 142.404 189.6 142.404L191.095 153.252C191.095 153.252 181.025 162.188 179.064 174.633C177.102 187.079 179.346 194.188 179.346 194.188C179.346 194.188 180.659 174.578 185.194 167.233C189.729 159.888 200.267 152.933 201.821 151.68C203.374 150.429 207.314 148.894 207.314 148.894C207.314 148.894 205.443 144.667 205.19 142.799C204.938 140.931 205.026 138.114 205.376 137.351C205.724 136.588 212.025 134.304 214.401 127.09C216.776 119.876 213.29 111.366 209.598 107.741C205.906 104.117 193.269 102.306 188.553 106.974Z" fill="white"/>
<path d="M188.553 106.974C188.553 106.974 182.919 112.237 182.501 116.38C182.082 120.523 181.644 124.104 180.941 125.442C180.236 126.78 176.701 127.654 177.897 129.677C179.094 131.699 180.218 131.66 180.218 131.66C180.218 131.66 182.032 140.604 183.39 141.87C184.747 143.136 189.6 142.404 189.6 142.404L191.095 153.252C191.095 153.252 181.025 162.188 179.064 174.633C177.102 187.079 179.346 194.188 179.346 194.188C179.346 194.188 180.659 174.578 185.194 167.233C189.729 159.888 200.267 152.933 201.821 151.68C203.374 150.429 207.314 148.894 207.314 148.894C207.314 148.894 205.443 144.667 205.19 142.799C204.938 140.931 205.026 138.114 205.376 137.351C205.724 136.588 212.025 134.304 214.401 127.09C216.776 119.876 213.29 111.366 209.598 107.741C205.906 104.117 193.269 102.306 188.553 106.974Z" stroke="#1A2E35" stroke-width="0.6" stroke-miterlimit="10"/>
<path d="M214.401 127.091C216.777 119.877 213.289 111.367 209.598 107.742C205.906 104.117 193.27 102.306 188.554 106.975C188.554 106.975 188.251 107.257 187.785 107.74C188.757 107.479 190.691 107.138 193.265 107.561C197.04 108.179 196.957 111.185 195.931 114.036C194.904 116.887 195.673 117.422 197.6 118.856C199.527 120.291 197.557 122.987 198.908 124.066C200.259 125.144 201.368 119.288 204.33 123.501C207.291 127.714 205.295 129.66 203.46 130.85C201.625 132.04 200.139 132.467 200.139 132.467C200.139 132.467 202.92 135.725 205.658 137.068C206.964 136.074 212.266 133.573 214.401 127.091Z" fill="#1A2E35"/>
<path d="M214.401 127.091C216.777 119.877 213.289 111.367 209.598 107.742C205.906 104.117 193.27 102.306 188.554 106.975C188.554 106.975 188.251 107.257 187.785 107.74C188.757 107.479 190.691 107.138 193.265 107.561C197.04 108.179 196.957 111.185 195.931 114.036C194.904 116.887 195.673 117.422 197.6 118.856C199.527 120.291 197.557 122.987 198.908 124.066C200.259 125.144 201.368 119.288 204.33 123.501C207.291 127.714 205.295 129.66 203.46 130.85C201.625 132.04 200.139 132.467 200.139 132.467C200.139 132.467 202.92 135.725 205.658 137.068C206.964 136.074 212.266 133.573 214.401 127.091Z" stroke="#1A2E35" stroke-width="0.6" stroke-miterlimit="10" stroke-linecap="round" stroke-linejoin="round"/>
<path d="M183.277 133.243C183.277 133.243 187.207 132.918 189.022 131.166" stroke="#1A2E35" stroke-width="0.6" stroke-miterlimit="10"/>
<path d="M185.769 123.96C185.802 124.892 185.45 125.66 184.984 125.676C184.518 125.692 184.115 124.95 184.082 124.019C184.05 123.087 184.401 122.319 184.867 122.302C185.333 122.286 185.736 123.028 185.769 123.96Z" fill="#1A2E35"/>
<path d="M184.076 120.16C184.076 120.16 185.342 118.457 187.154 120.466" stroke="#1A2E35" stroke-width="0.6" stroke-miterlimit="10"/>
<path d="M189.6 142.405L194.281 140.639L191.02 146.501L189.6 142.405Z" fill="#1A2E35"/>
<path d="M189.6 142.405L194.281 140.639L191.02 146.501L189.6 142.405Z" stroke="#1A2E35" stroke-width="0.6" stroke-miterlimit="10"/>
<path d="M176.105 228.519L169.959 254.402L175.474 255.682L178.508 236.758L176.105 228.519Z" fill="white"/>
<path d="M176.105 228.519L169.959 254.402L175.474 255.682L178.508 236.758L176.105 228.519Z" fill="#D9D9D9" stroke="#1A2E35" stroke-width="0.6" stroke-miterlimit="10"/>
<path d="M181.535 166.565C180.424 169.019 179.522 171.728 179.064 174.633C177.102 187.079 179.347 194.188 179.347 194.188C179.347 194.188 180.644 174.842 185.107 167.386C183.701 167.222 182.513 166.919 181.535 166.565Z" fill="white"/>
<path d="M181.535 166.565C180.424 169.019 179.522 171.728 179.064 174.633C177.102 187.079 179.347 194.188 179.347 194.188C179.347 194.188 180.644 174.842 185.107 167.386C183.701 167.222 182.513 166.919 181.535 166.565Z" fill="#D9D9D9" stroke="#1A2E35" stroke-width="0.6" stroke-miterlimit="10"/>
<path d="M200.521 174.642L200.099 196.604L161.666 202.938L162.511 213.286C162.511 213.286 183.839 213.708 193.764 212.863C203.689 212.019 212.347 211.385 213.613 210.33C214.881 209.274 218.478 188.861 219.956 174.502C221.434 160.142 218.478 155.285 212.565 156.13" fill="#599BFE"/>
<path d="M200.521 174.642L200.099 196.604L161.666 202.938L162.511 213.286C162.511 213.286 183.839 213.708 193.764 212.863C203.689 212.019 212.347 211.385 213.613 210.33C214.881 209.274 218.478 188.861 219.956 174.502C221.434 160.142 218.478 155.285 212.565 156.13" stroke="#1A2E35" stroke-width="0.6" stroke-miterlimit="10"/>
<path d="M138.679 202.006L135.607 211.344L138.631 212.977C138.631 212.977 142.44 215.926 144.529 217.523C146.618 219.121 148.215 219.121 149.321 218.63C150.427 218.138 155.466 211.011 156.079 209.659C156.694 208.308 153.745 204.253 150.796 202.532C147.847 200.812 145.389 200.812 143.669 201.304C141.948 201.795 138.679 202.006 138.679 202.006Z" fill="white"/>
<path d="M138.679 202.006L135.607 211.344L138.631 212.977C138.631 212.977 142.44 215.926 144.529 217.523C146.618 219.121 148.215 219.121 149.321 218.63C150.427 218.138 155.466 211.011 156.079 209.659C156.694 208.308 153.745 204.253 150.796 202.532C147.847 200.812 145.389 200.812 143.669 201.304C141.948 201.795 138.679 202.006 138.679 202.006Z" stroke="#1A2E35" stroke-width="0.6" stroke-miterlimit="10"/>
<path d="M161.666 202.938L156.809 202.516C156.809 202.516 153.431 201.671 152.164 201.671C150.897 201.671 149.207 202.938 148.363 203.572C147.518 204.205 138.227 214.341 138.227 214.341C138.227 214.341 139.071 216.03 140.339 215.608C141.605 215.185 143.928 214.129 143.928 214.129C143.928 214.129 141.394 216.664 142.661 217.93C143.928 219.198 146.04 219.198 146.04 219.198L147.518 218.353C147.518 218.353 148.574 219.198 149.63 219.409C150.686 219.621 152.375 219.198 153.854 218.353C155.331 217.509 159.075 213.104 159.075 213.104L162.32 211.849L161.666 202.938Z" fill="white"/>
<path d="M161.666 202.938L156.809 202.516C156.809 202.516 153.431 201.671 152.164 201.671C150.897 201.671 149.207 202.938 148.363 203.572C147.518 204.205 138.227 214.341 138.227 214.341C138.227 214.341 139.071 216.03 140.339 215.608C141.605 215.185 143.928 214.129 143.928 214.129C143.928 214.129 141.394 216.664 142.661 217.93C143.928 219.198 146.04 219.198 146.04 219.198L147.518 218.353C147.518 218.353 148.574 219.198 149.63 219.409C150.686 219.621 152.375 219.198 153.854 218.353C155.331 217.509 159.075 213.104 159.075 213.104L162.32 211.849L161.666 202.938Z" stroke="#1A2E35" stroke-width="0.6" stroke-miterlimit="10"/>
<path d="M140.35 202.409C140.35 202.409 146.494 198.846 149.197 199.829C151.9 200.812 155.464 206.833 154.481 207.693C153.497 208.553 151.9 208.185 151.04 207.324C150.18 206.465 148.705 205.604 148.705 205.604C148.705 205.604 146.248 207.079 143.422 207.079" fill="white"/>
<path d="M140.35 202.409C140.35 202.409 146.494 198.846 149.197 199.829C151.9 200.812 155.464 206.833 154.481 207.693C153.497 208.553 151.9 208.185 151.04 207.324C150.18 206.465 148.705 205.604 148.705 205.604C148.705 205.604 146.248 207.079 143.422 207.079" stroke="#1A2E35" stroke-width="0.6" stroke-miterlimit="10"/>
<path d="M158.673 216.358L156.723 215.316C156.064 214.964 155.816 214.145 156.168 213.486C156.519 212.828 157.338 212.579 157.997 212.931L159.948 213.973C160.606 214.325 160.855 215.144 160.503 215.802C160.151 216.461 159.332 216.71 158.673 216.358Z" fill="white"/>
<path d="M158.673 216.358L156.723 215.316C156.064 214.964 155.816 214.145 156.168 213.486C156.519 212.828 157.338 212.579 157.997 212.931L159.948 213.973C160.606 214.325 160.855 215.144 160.503 215.802C160.151 216.461 159.332 216.71 158.673 216.358Z" stroke="#1A2E35" stroke-width="0.6" stroke-miterlimit="10"/>
<path d="M156.953 218.448L155.002 217.405C154.343 217.053 154.095 216.235 154.447 215.576C154.799 214.917 155.618 214.669 156.276 215.021L158.227 216.063C158.885 216.415 159.134 217.234 158.782 217.892C158.431 218.551 157.612 218.799 156.953 218.448Z" fill="white"/>
<path d="M156.953 218.448L155.002 217.405C154.343 217.053 154.095 216.235 154.447 215.576C154.799 214.917 155.618 214.669 156.276 215.021L158.227 216.063C158.885 216.415 159.134 217.234 158.782 217.892C158.431 218.551 157.612 218.799 156.953 218.448Z" stroke="#1A2E35" stroke-width="0.6" stroke-miterlimit="10"/>
<path d="M154.988 220.29L153.037 219.248C152.379 218.896 152.13 218.077 152.482 217.419C152.834 216.76 153.653 216.512 154.311 216.863L156.262 217.905C156.921 218.258 157.169 219.077 156.818 219.735C156.465 220.394 155.647 220.642 154.988 220.29Z" fill="white"/>
<path d="M154.988 220.29L153.037 219.248C152.379 218.896 152.13 218.077 152.482 217.419C152.834 216.76 153.653 216.512 154.311 216.863L156.262 217.905C156.921 218.258 157.169 219.077 156.818 219.735C156.465 220.394 155.647 220.642 154.988 220.29Z" stroke="#1A2E35" stroke-width="0.6" stroke-miterlimit="10"/>
<path d="M150.847 220.382L150.334 220.108C149.676 219.756 149.427 218.937 149.779 218.279C150.131 217.62 150.949 217.372 151.608 217.723L152.121 217.997C152.779 218.349 153.028 219.169 152.676 219.827C152.324 220.485 151.506 220.733 150.847 220.382Z" fill="white"/>
<path d="M150.847 220.382L150.334 220.108C149.676 219.756 149.427 218.937 149.779 218.279C150.131 217.62 150.949 217.372 151.608 217.723L152.121 217.997C152.779 218.349 153.028 219.169 152.676 219.827C152.324 220.485 151.506 220.733 150.847 220.382Z" stroke="#1A2E35" stroke-width="0.6" stroke-miterlimit="10"/>
<path d="M138.678 202.005L112.889 191.105L113.842 208.185L135.138 213.065L138.678 202.005Z" fill="#1A2E35"/>
<path d="M138.678 202.005L112.889 191.105L113.842 208.185L135.138 213.065L138.678 202.005Z" stroke="#1A2E35" stroke-width="0.6" stroke-miterlimit="10" stroke-linecap="round" stroke-linejoin="round"/>
<path d="M135.139 213.065L138.679 202.005L135.074 200.414L135.003 200.777L131.697 212.231L135.139 213.065Z" fill="white"/>
<path d="M135.139 213.065L138.679 202.005L135.074 200.414L135.003 200.777L131.697 212.231L135.139 213.065Z" stroke="#1A2E35" stroke-width="0.6" stroke-miterlimit="10"/>
<path d="M98.4238 133.677L105.038 136.746C105.038 136.746 107.81 144.598 106.886 144.829C105.962 145.06 99.0334 139.518 99.0334 139.518L98.4238 133.677Z" fill="white"/>
<path d="M98.4238 133.677L105.038 136.746C105.038 136.746 107.81 144.598 106.886 144.829C105.962 145.06 99.0334 139.518 99.0334 139.518L98.4238 133.677Z" stroke="#1A2E35" stroke-width="0.6" stroke-miterlimit="10" stroke-linecap="round" stroke-linejoin="round"/>
<path d="M102.23 132.105L102.695 129.461C102.695 129.461 108.813 129.882 111.26 129.867C113.706 129.851 115.845 129.532 115.829 126.933C115.812 124.333 114.381 115.474 114.381 115.474C114.381 115.474 117.13 114.845 118.193 113.616C119.255 112.386 117.717 110.866 116.33 109.04C114.942 107.214 113.706 105.234 113.54 103.094C113.374 100.954 109.661 93.9434 109.661 93.9434C109.661 93.9434 110.265 92.8694 108.264 90.5888C106.262 88.307 96.0149 87.9122 89.4599 91.1642C82.9055 94.4156 81.4055 99.1652 81.4379 104.364C81.4703 109.562 84.4211 116.883 84.4211 116.883C84.4211 116.883 82.4825 124.846 82.3325 125.305C82.1825 125.766 80.4473 129.153 80.4473 129.153C80.4473 129.153 88.6445 134.874 91.6427 137.439C94.6415 140.004 101.394 144.4 101.436 142.026C101.478 139.653 101.749 134.283 101.749 134.283L102.23 132.105Z" fill="white"/>
<path d="M102.23 132.105L102.695 129.461C102.695 129.461 108.813 129.882 111.26 129.867C113.706 129.851 115.845 129.532 115.829 126.933C115.812 124.333 114.381 115.474 114.381 115.474C114.381 115.474 117.13 114.845 118.193 113.616C119.255 112.386 117.717 110.866 116.33 109.04C114.942 107.214 113.706 105.234 113.54 103.094C113.374 100.954 109.661 93.9434 109.661 93.9434C109.661 93.9434 110.265 92.8694 108.264 90.5888C106.262 88.307 96.0149 87.9122 89.4599 91.1642C82.9055 94.4156 81.4055 99.1652 81.4379 104.364C81.4703 109.562 84.4211 116.883 84.4211 116.883C84.4211 116.883 82.4825 124.846 82.3325 125.305C82.1825 125.766 80.4473 129.153 80.4473 129.153C80.4473 129.153 88.6445 134.874 91.6427 137.439C94.6415 140.004 101.394 144.4 101.436 142.026C101.478 139.653 101.749 134.283 101.749 134.283L102.23 132.105Z" stroke="#1A2E35" stroke-width="0.6" stroke-miterlimit="10" stroke-linecap="round" stroke-linejoin="round"/>
<path d="M111.273 107.293C111.313 108.179 111.107 108.907 110.811 108.92C110.516 108.934 110.244 108.227 110.204 107.341C110.164 106.455 110.372 105.726 110.666 105.713C110.961 105.7 111.234 106.407 111.273 107.293Z" fill="#1A2E35"/>
<path d="M106.975 104.358C106.975 104.358 108.337 102.057 111.862 103.41" stroke="#1A2E35" stroke-width="1.2" stroke-miterlimit="10" stroke-linecap="round" stroke-linejoin="round"/>
<path d="M115.831 126.933C115.815 124.334 114.384 115.474 114.384 115.474C114.384 115.474 112.696 114.568 109.49 115.352C106.284 116.136 105.399 121.341 104.791 121.956C104.183 122.571 100.185 118.927 98.6408 116.49C97.0964 114.053 95.9996 109.778 95.8316 107.333C95.6636 104.887 101.466 103.628 102.369 101.329C103.272 99.0302 98.9762 96.6098 100.495 95.0714C102.015 93.533 105.077 94.1258 106.608 94.4222C108.139 94.7186 109.663 93.9446 109.663 93.9446C109.663 93.9446 110.268 92.8706 108.266 90.5894C106.264 88.3082 96.017 87.9128 89.462 91.1648C82.9076 94.4162 81.4076 99.1658 81.44 104.364C81.4664 108.577 83.4086 114.183 84.1442 116.158C84.734 116.369 85.6934 116.673 86.1032 116.568C86.714 116.41 87.161 114.573 87.4556 112.737C87.7496 110.9 92.1704 108.732 92.1704 108.732C92.1704 108.732 92.969 114.231 92.9762 115.302C92.9822 116.372 92.4044 121.727 95.3252 124.308C98.2466 126.889 102.697 129.462 102.697 129.462C102.697 129.462 108.816 129.882 111.262 129.867C113.708 129.852 115.847 129.533 115.831 126.933Z" fill="#1A2E35"/>
<path d="M115.831 126.933C115.815 124.334 114.384 115.474 114.384 115.474C114.384 115.474 112.696 114.568 109.49 115.352C106.284 116.136 105.399 121.341 104.791 121.956C104.183 122.571 100.185 118.927 98.6408 116.49C97.0964 114.053 95.9996 109.778 95.8316 107.333C95.6636 104.887 101.466 103.628 102.369 101.329C103.272 99.0302 98.9762 96.6098 100.495 95.0714C102.015 93.533 105.077 94.1258 106.608 94.4222C108.139 94.7186 109.663 93.9446 109.663 93.9446C109.663 93.9446 110.268 92.8706 108.266 90.5894C106.264 88.3082 96.017 87.9128 89.462 91.1648C82.9076 94.4162 81.4076 99.1658 81.44 104.364C81.4664 108.577 83.4086 114.183 84.1442 116.158C84.734 116.369 85.6934 116.673 86.1032 116.568C86.714 116.41 87.161 114.573 87.4556 112.737C87.7496 110.9 92.1704 108.732 92.1704 108.732C92.1704 108.732 92.969 114.231 92.9762 115.302C92.9822 116.372 92.4044 121.727 95.3252 124.308C98.2466 126.889 102.697 129.462 102.697 129.462C102.697 129.462 108.816 129.882 111.262 129.867C113.708 129.852 115.847 129.533 115.831 126.933Z" stroke="#1A2E35" stroke-width="0.6" stroke-miterlimit="10" stroke-linecap="round" stroke-linejoin="round"/>
<path d="M93.1129 112.548C93.1129 112.548 91.8439 105.217 89.7055 105.536C87.5665 105.855 86.3611 108.615 87.4525 112.125C88.5451 115.635 90.6835 115.316 91.9051 115.002" fill="white"/>
<path d="M93.1129 112.548C93.1129 112.548 91.8439 105.217 89.7055 105.536C87.5665 105.855 86.3611 108.615 87.4525 112.125C88.5451 115.635 90.6835 115.316 91.9051 115.002" stroke="#1A2E35" stroke-width="0.6" stroke-miterlimit="10" stroke-linecap="round" stroke-linejoin="round"/>
<path d="M108.131 118.112C108.131 118.112 109.364 119.634 112.574 119.613" stroke="white" stroke-width="0.6" stroke-miterlimit="10" stroke-linecap="round" stroke-linejoin="round"/>
<path d="M73.7781 274.279H106.175C106.287 272.576 107.541 266.021 107.541 261.728C107.541 256.762 110.958 224.753 110.958 224.753L68.8203 224.201L70.2003 243.793L73.7781 274.279Z" fill="#1A2E35"/>
<path d="M73.7781 274.279H106.175C106.287 272.576 107.541 266.021 107.541 261.728C107.541 256.762 110.958 224.753 110.958 224.753L68.8203 224.201L70.2003 243.793L73.7781 274.279Z" stroke="#1A2E35" stroke-width="0.6" stroke-miterlimit="10" stroke-linecap="round" stroke-linejoin="round"/>
<path d="M78.0183 130.281C78.0183 130.281 70.6281 139.749 68.5497 145.061C66.4713 150.373 64.8549 151.296 65.3163 157.994C65.7783 164.691 69.0117 191.481 69.0117 191.481L62.5449 226.353C62.5449 226.353 72.9375 230.51 86.3325 230.51C99.7269 230.51 105.501 229.356 106.425 228.894C107.348 228.432 115.431 226.353 115.431 226.353C115.431 226.353 115.431 186.862 112.891 173.236C110.351 159.61 107.118 149.218 105.963 146.677C104.808 144.137 101.113 135.823 101.113 135.823L78.0183 130.281Z" fill="#1A2E35"/>
<path d="M78.0183 130.281C78.0183 130.281 70.6281 139.749 68.5497 145.061C66.4713 150.373 64.8549 151.296 65.3163 157.994C65.7783 164.691 69.0117 191.481 69.0117 191.481L62.5449 226.353C62.5449 226.353 72.9375 230.51 86.3325 230.51C99.7269 230.51 105.501 229.356 106.425 228.894C107.348 228.432 115.431 226.353 115.431 226.353C115.431 226.353 115.431 186.862 112.891 173.236C110.351 159.61 107.118 149.218 105.963 146.677C104.808 144.137 101.113 135.823 101.113 135.823L78.0183 130.281Z" stroke="#1A2E35" stroke-width="0.6" stroke-miterlimit="10" stroke-linecap="round" stroke-linejoin="round"/>
<path d="M105.961 146.677C104.806 144.137 101.111 135.823 101.111 135.823L78.0163 130.28C78.0163 130.28 76.4539 132.283 74.5645 134.961C79.5979 137.888 92.0605 145.107 92.7973 145.292C93.7207 145.523 98.3395 145.061 98.3395 145.061L96.2611 147.601C96.2611 147.601 101.804 151.989 103.651 153.836C104.623 154.808 107.446 157.376 109.904 159.592C108.228 152.957 106.685 148.271 105.961 146.677Z" fill="#1A2E35"/>
<path d="M105.961 146.677C104.806 144.137 101.111 135.823 101.111 135.823L78.0163 130.28C78.0163 130.28 76.4539 132.283 74.5645 134.961C79.5979 137.888 92.0605 145.107 92.7973 145.292C93.7207 145.523 98.3395 145.061 98.3395 145.061L96.2611 147.601C96.2611 147.601 101.804 151.989 103.651 153.836C104.623 154.808 107.446 157.376 109.904 159.592C108.228 152.957 106.685 148.271 105.961 146.677Z" stroke="#1A2E35" stroke-width="0.6" stroke-miterlimit="10" stroke-linecap="round" stroke-linejoin="round"/>
<path d="M95.3398 140.904L103.192 147.14L109.658 158.687L105.501 141.828L96.9562 136.978L95.3398 140.904Z" fill="white"/>
<path d="M95.3398 140.904L103.192 147.14L109.658 158.687L105.501 141.828L96.9562 136.978L95.3398 140.904Z" stroke="#1A2E35" stroke-width="0.6" stroke-miterlimit="10" stroke-linecap="round" stroke-linejoin="round"/>
<path d="M79.6337 125.893L103.817 136.789V145.334L76.1699 131.204L79.6337 125.893Z" fill="white"/>
<path d="M79.6337 125.893L103.817 136.789V145.334L76.1699 131.204L79.6337 125.893Z" stroke="#1A2E35" stroke-width="0.6" stroke-miterlimit="10" stroke-linecap="round" stroke-linejoin="round"/>
<path d="M111.61 247.104H69.8262V213.296H111.61V247.104Z" fill="#599BFE" stroke="#1A2E35" stroke-width="0.6" stroke-miterlimit="10"/>
<path d="M93.2838 229.409C93.2838 229.409 96.3906 233.461 97.6068 233.867C98.8218 234.271 99.4974 235.217 100.038 236.027C100.578 236.838 101.254 242.917 101.659 243.321C102.064 243.727 102.064 244.673 100.578 243.997C99.0924 243.321 98.1468 241.025 98.1468 241.025L98.6868 246.429C98.6868 246.429 99.903 246.699 98.9574 247.374C98.0118 248.049 97.2012 248.996 96.3906 248.59C95.58 248.184 94.3644 247.104 94.3644 247.104C94.3644 247.104 92.8788 247.644 91.3926 247.374C89.907 247.104 90.177 247.644 88.8264 246.699C87.4752 245.753 87.4752 246.834 86.7996 245.078C86.1246 243.321 84.5034 237.243 84.2334 235.487C83.9634 233.731 83.6934 231.299 83.6934 231.299L93.2838 229.409Z" fill="white"/>
<path d="M93.2838 229.409C93.2838 229.409 96.3906 233.461 97.6068 233.867C98.8218 234.271 99.4974 235.217 100.038 236.027C100.578 236.838 101.254 242.917 101.659 243.321C102.064 243.727 102.064 244.673 100.578 243.997C99.0924 243.321 98.1468 241.025 98.1468 241.025L98.6868 246.429C98.6868 246.429 99.903 246.699 98.9574 247.374C98.0118 248.049 97.2012 248.996 96.3906 248.59C95.58 248.184 94.3644 247.104 94.3644 247.104C94.3644 247.104 92.8788 247.644 91.3926 247.374C89.907 247.104 90.177 247.644 88.8264 246.699C87.4752 245.753 87.4752 246.834 86.7996 245.078C86.1246 243.321 84.5034 237.243 84.2334 235.487C83.9634 233.731 83.6934 231.299 83.6934 231.299L93.2838 229.409Z" stroke="#1A2E35" stroke-width="0.6" stroke-miterlimit="10" stroke-linecap="round" stroke-linejoin="round"/>
<path d="M93.8249 226.842L94.7705 231.029L83.1533 232.65L82.6133 228.462L93.8249 226.842Z" fill="white"/>
<path d="M93.8249 226.842L94.7705 231.029L83.1533 232.65L82.6133 228.462L93.8249 226.842Z" stroke="#1A2E35" stroke-width="0.6" stroke-miterlimit="10" stroke-linecap="round" stroke-linejoin="round"/>
<path d="M78.9421 138.594C78.9421 138.594 70.8589 141.135 70.6285 144.83C70.3969 148.525 67.7209 193.348 68.8759 196.35C70.0303 199.353 81.3973 229.754 81.3973 229.754L94.5613 228.137C94.5613 228.137 87.8131 192.887 87.5821 192.194C87.3511 191.501 92.1061 152.22 92.1061 152.22" fill="#1A2E35"/>
<path d="M78.9421 138.594C78.9421 138.594 70.8589 141.135 70.6285 144.83C70.3969 148.525 67.7209 193.348 68.8759 196.35C70.0303 199.353 81.3973 229.754 81.3973 229.754L94.5613 228.137C94.5613 228.137 87.8131 192.887 87.5821 192.194C87.3511 191.501 92.1061 152.22 92.1061 152.22" stroke="#1A2E35" stroke-width="0.6" stroke-miterlimit="10" stroke-linecap="round" stroke-linejoin="round"/>
<path d="M90.5568 163.503L87.582 192.193L90.42 210.021" stroke="#888888" stroke-width="0.6" stroke-miterlimit="10" stroke-linecap="round" stroke-linejoin="round"/>
<path d="M91.0119 159.11L90.8535 160.635" stroke="#888888" stroke-width="0.6" stroke-miterlimit="10" stroke-linecap="round" stroke-linejoin="round"/>
<path d="M69.7025 154.67L68.8145 181.606" stroke="#888888" stroke-width="0.6" stroke-miterlimit="10" stroke-linecap="round" stroke-linejoin="round"/>
<path d="M99.8941 205.311L108.773 204.988L109.569 208.184L94.8613 209.132" stroke="#888888" stroke-width="0.6" stroke-miterlimit="10" stroke-linecap="round" stroke-linejoin="round"/>
<path d="M92.4922 205.581L97.222 205.409" stroke="#888888" stroke-width="0.6" stroke-miterlimit="10" stroke-linecap="round" stroke-linejoin="round"/>
<path d="M76.5098 135.727L92.7998 145.292L98.3426 145.061L96.2642 147.601L106.997 156.15" stroke="#888888" stroke-width="0.6" stroke-miterlimit="10" stroke-linecap="round" stroke-linejoin="round"/>
</g>
<path d="M6.88867 274.278H280.785" stroke="#1A2E35" stroke-width="0.6" stroke-miterlimit="10"/>
<path d="M84.293 27.0143V67.5677" stroke="#1A2E35" stroke-width="0.6" stroke-miterlimit="10"/>
<path d="M146.586 27.0143V67.5677" stroke="#1A2E35" stroke-width="0.6" stroke-miterlimit="10"/>
<path d="M208.879 27.0143V67.5677" stroke="#1A2E35" stroke-width="0.6" stroke-miterlimit="10"/>
</svg>
