<svg width="160" height="160" viewBox="0 0 160 160" fill="none" xmlns="http://www.w3.org/2000/svg">
<g id="Group 4803">
<g id="g753">
<g id="Clip path group">
<mask id="mask0_159_42061" style="mask-type:luminance" maskUnits="userSpaceOnUse" x="0" y="0" width="160" height="160">
<g id="clipPath759">
<path id="path757" d="M0 0H160V160H0V0Z" fill="white"/>
</g>
</mask>
<g mask="url(#mask0_159_42061)">
<g id="g755">
<g id="g761">
<path id="path763" d="M150.695 89.6178C145.984 102.236 136.358 115.893 122.812 119.937C102.345 126.049 99.8995 142.546 63.2399 141.016C57.5241 140.778 52.2412 139.975 47.3881 138.692C44.7788 138.002 42.2937 137.171 39.935 136.212C18.5187 127.538 7.34683 108.447 6.41915 88.4709C5.19515 62.198 23.5264 49.6754 35.4403 42.3429C47.3539 35.0104 61.7129 6.59827 97.7635 7.8194C103.26 8.00787 108.744 8.75923 114.058 10.1996C126.188 13.4827 138.519 20.7442 145.684 31.3596C146.222 32.157 146.735 32.973 147.227 33.8047C156.816 50.0741 157.119 72.4146 150.695 89.6178Z" fill="#599BFE"/>
</g>
<g id="g765">
<g id="g779">
<g id="Clip path group_2">
<mask id="mask1_159_42061" style="mask-type:luminance" maskUnits="userSpaceOnUse" x="6" y="7" width="150" height="135">
<g id="clipPath771">
<path id="path769" d="M6.36101 7.7811H155.05V141.116H6.36101V7.7811Z" fill="white"/>
</g>
</mask>
<g mask="url(#mask1_159_42061)">
<g id="g777" opacity="0.699997">
<g id="g775">
<path id="path773" d="M150.695 89.6178C145.984 102.236 136.358 115.893 122.812 119.937C102.345 126.049 99.8995 142.546 63.2399 141.016C57.5241 140.778 52.2412 139.975 47.3881 138.692C44.7788 138.002 42.2937 137.171 39.935 136.212C18.5187 127.538 7.34683 108.447 6.41915 88.4709C5.19515 62.198 23.5264 49.6754 35.4403 42.3429C47.3539 35.0104 61.7129 6.59827 97.7635 7.8194C103.26 8.00787 108.744 8.75923 114.058 10.1996C126.188 13.4827 138.519 20.7442 145.684 31.3596C146.222 32.157 146.735 32.973 147.227 33.8047C156.816 50.0741 157.119 72.4146 150.695 89.6178Z" fill="white"/>
</g>
</g>
</g>
</g>
</g>
</g>
</g>
</g>
</g>
</g>
<g id="g781">
<g id="Clip path group_3">
<mask id="mask2_159_42061" style="mask-type:luminance" maskUnits="userSpaceOnUse" x="0" y="0" width="160" height="160">
<g id="clipPath787">
<path id="path785" d="M0 0H160V160H0V0Z" fill="white"/>
</g>
</mask>
<g mask="url(#mask2_159_42061)">
<g id="g783">
<g id="g789">
<path id="path791" d="M80.1595 101.029C76.4395 92.581 76.987 78.7455 78.7131 77.5948C80.612 76.3289 83.6174 82.8153 86.6235 80.9167C89.629 79.0185 91.6856 74.9052 89.1547 68.4191C86.6235 61.9327 83.3013 66.2041 80.9282 67.7861C78.555 69.3682 76.6568 67.9445 77.1314 62.2492C77.4811 58.0492 79.1208 50.3276 79.9579 46.5593C80.3352 46.7221 80.7125 46.8869 81.0862 47.062C73.651 43.5817 65.4245 42.4741 61.9442 43.5817C58.4642 44.6889 59.0962 45.0053 60.836 49.117C64.4658 57.6959 50.7182 60.6447 46.7493 54.0297C44.3762 50.0745 47.8642 47.853 46.915 45.0053C45.9659 42.1577 28.4056 45.4799 26.1906 46.7455C26.1906 46.7455 30.4619 59.5599 29.8293 64.1477C29.1963 68.7356 26.9816 70.7919 23.6597 67.4697C20.3374 64.1477 16.0658 67.1535 15.9077 72.6905C15.7493 78.2274 16.6987 82.6572 20.4955 81.3916C24.2923 80.126 27.2981 75.5381 28.5637 81.3916C29.8293 87.245 27.6146 94.8383 26.349 100.218C26.349 100.218 36.3154 104.489 40.9035 104.172C45.491 103.856 48.3387 103.698 46.915 100.85C45.491 98.0025 43.1182 96.1042 44.8584 92.9404C46.5986 89.7762 53.5595 90.0924 57.1979 90.8834C60.8366 91.6748 62.4187 94.3641 61.3112 97.3695C60.204 100.376 58.3054 103.382 61.7858 104.014C65.0664 104.61 73.4069 103.239 81.6405 100.562C81.1467 100.722 80.653 100.878 80.1595 101.029Z" stroke="#1A2E35" stroke-width="0.32" stroke-miterlimit="10"/>
</g>
<g id="g793">
<path id="path795" d="M83.1428 100.059C82.6561 100.227 82.1675 100.391 81.6788 100.55" stroke="#1A2E35" stroke-width="0.32" stroke-miterlimit="10"/>
</g>
<g id="g797">
<path id="path799" d="M140.886 66.0461C137.88 66.0461 137.722 68.4192 134.558 67.9446C131.394 67.4697 131.078 60.1926 134.4 47.3785C134.4 47.3785 130.761 50.0678 122.535 50.2259C114.308 50.3843 110.986 49.4349 113.043 46.4291C115.099 43.4233 116.681 41.0502 114.941 38.6774C113.201 36.3043 104.817 36.6208 102.127 38.6774C99.4376 40.7337 101.336 43.1069 103.234 45.7965C105.133 48.4857 102.918 50.0678 99.7541 50.2259C96.5899 50.3843 88.5218 50.5424 81.0863 47.0621C80.7125 46.8867 80.3352 46.7222 79.9579 46.5593C79.1208 50.3273 77.4811 58.0493 77.1314 62.2493C76.6568 67.9446 78.5551 69.3683 80.9282 67.7862C83.3013 66.2041 86.6235 61.9328 89.1547 68.4192C91.6856 74.9053 89.629 79.0185 86.6235 80.9168C83.6175 82.8153 80.612 76.3289 78.7131 77.5945C76.9871 78.7456 76.4395 92.5808 80.1595 101.029C81.1541 100.725 82.1515 100.402 83.1429 100.06C91.844 97.0534 100.545 95.6297 102.127 97.6861C103.709 99.7427 103.076 99.4265 101.02 102.59C98.9631 105.754 99.1211 108.444 102.601 110.026C106.082 111.608 114.625 111.292 115.416 107.653C116.207 104.014 111.777 101.957 113.834 98.4771C115.891 94.9968 134.083 100.06 134.083 100.06C134.083 100.06 129.97 86.1376 131.553 81.5497C133.134 76.9619 134.4 78.0694 136.931 79.8096C139.463 81.5497 142.785 81.3917 144.05 76.3289C145.316 71.2665 143.892 66.0461 140.886 66.0461Z" stroke="#1A2E35" stroke-width="0.32" stroke-miterlimit="10"/>
</g>
</g>
</g>
</g>
</g>
<g id="g801">
<g id="Clip path group_4">
<mask id="mask3_159_42061" style="mask-type:luminance" maskUnits="userSpaceOnUse" x="0" y="0" width="160" height="160">
<g id="clipPath807">
<path id="path805" d="M0 0H160V160H0V0Z" fill="white"/>
</g>
</mask>
<g mask="url(#mask3_159_42061)">
<g id="g803">
<g id="g809">
<path id="path811" d="M136.1 25.2078C136.1 20.7544 132.49 17.1445 128.037 17.1445C123.584 17.1445 119.974 20.7544 119.974 25.2078C119.974 29.6613 123.584 33.2712 128.037 33.2712C132.49 33.2712 136.1 29.6613 136.1 25.2078Z" fill="#599BFE"/>
</g>
<g id="g813">
<path id="path815" d="M136.1 25.2078C136.1 20.7544 132.49 17.1445 128.037 17.1445C123.584 17.1445 119.974 20.7544 119.974 25.2078C119.974 29.6613 123.584 33.2712 128.037 33.2712C132.49 33.2712 136.1 29.6613 136.1 25.2078Z" stroke="#1A2E35" stroke-width="0.32" stroke-miterlimit="10"/>
</g>
<g id="g817">
<path id="path819" d="M134.666 25.2079C134.666 21.5467 131.698 18.5787 128.037 18.5787C124.376 18.5787 121.408 21.5467 121.408 25.2079C121.408 28.869 124.376 31.837 128.037 31.837C131.698 31.837 134.666 28.869 134.666 25.2079Z" fill="white"/>
</g>
<g id="g821">
<path id="path823" d="M134.666 25.2079C134.666 21.5467 131.698 18.5787 128.037 18.5787C124.376 18.5787 121.408 21.5467 121.408 25.2079C121.408 28.869 124.376 31.837 128.037 31.837C131.698 31.837 134.666 28.869 134.666 25.2079Z" stroke="#1A2E35" stroke-width="0.32" stroke-miterlimit="10"/>
</g>
<g id="g825">
<path id="path827" d="M132.865 25.2078C132.865 22.5413 130.703 20.3794 128.037 20.3794C125.37 20.3794 123.208 22.5413 123.208 25.2078C123.208 27.8744 125.37 30.0363 128.037 30.0363C130.703 30.0363 132.865 27.8744 132.865 25.2078Z" fill="#599BFE"/>
</g>
<g id="g829">
<path id="path831" d="M132.865 25.2078C132.865 22.5413 130.703 20.3794 128.037 20.3794C125.37 20.3794 123.208 22.5413 123.208 25.2078C123.208 27.8744 125.37 30.0363 128.037 30.0363C130.703 30.0363 132.865 27.8744 132.865 25.2078Z" stroke="#1A2E35" stroke-width="0.32" stroke-miterlimit="10"/>
</g>
<g id="g833">
<path id="path835" d="M131.085 25.2078C131.085 23.5243 129.72 22.1595 128.037 22.1595C126.353 22.1595 124.988 23.5243 124.988 25.2078C124.988 26.8914 126.353 28.2562 128.037 28.2562C129.72 28.2562 131.085 26.8914 131.085 25.2078Z" fill="white"/>
</g>
<g id="g837">
<path id="path839" d="M131.085 25.2078C131.085 23.5243 129.72 22.1595 128.037 22.1595C126.353 22.1595 124.988 23.5243 124.988 25.2078C124.988 26.8914 126.353 28.2562 128.037 28.2562C129.72 28.2562 131.085 26.8914 131.085 25.2078Z" stroke="#1A2E35" stroke-width="0.32" stroke-miterlimit="10"/>
</g>
<g id="g841">
<path id="path843" d="M129.448 25.2078C129.448 24.4283 128.816 23.7963 128.037 23.7963C127.257 23.7963 126.626 24.4283 126.626 25.2078C126.626 25.9873 127.257 26.619 128.037 26.619C128.816 26.619 129.448 25.9873 129.448 25.2078Z" fill="#599BFE"/>
</g>
<g id="g845">
<path id="path847" d="M129.448 25.2078C129.448 24.4283 128.816 23.7963 128.037 23.7963C127.257 23.7963 126.626 24.4283 126.626 25.2078C126.626 25.9873 127.257 26.619 128.037 26.619C128.816 26.619 129.448 25.9873 129.448 25.2078Z" stroke="#1A2E35" stroke-width="0.32" stroke-miterlimit="10"/>
</g>
<g id="g849">
<path id="path851" d="M128.619 22.9951L128.037 25.2079L130.126 25.6652L128.619 22.9951Z" fill="#1A2E35"/>
</g>
<g id="g853">
<path id="path855" d="M128.619 22.9951L128.037 25.2079L130.126 25.6652L128.619 22.9951Z" stroke="#1A2E35" stroke-width="0.32" stroke-miterlimit="10"/>
</g>
<g id="g857">
<g id="path859">
<path d="M129.51 24.2275L138.684 19.2294L129.51 24.2275Z" fill="white"/>
<path d="M129.51 24.2275L138.684 19.2294" stroke="#1A2E35" stroke-width="0.64" stroke-miterlimit="10"/>
</g>
</g>
<g id="g861">
<path id="path863" d="M135.74 20.8727L135.877 18.4765L140.19 16.0119V18.7504L135.74 20.8727Z" fill="#1A2E35"/>
</g>
<g id="g865">
<path id="path867" d="M135.74 20.8727L135.877 18.4765L140.19 16.0119V18.7504L135.74 20.8727Z" stroke="#1A2E35" stroke-width="0.32" stroke-miterlimit="10"/>
</g>
<g id="g869">
<path id="path871" d="M142.038 20.0511L140.15 18.6582L135.723 20.9868L137.855 22.2204L142.038 20.0511Z" fill="#1A2E35"/>
</g>
<g id="g873">
<path id="path875" d="M142.038 20.0511L140.15 18.6582L135.723 20.9868L137.855 22.2204L142.038 20.0511Z" stroke="#1A2E35" stroke-width="0.32" stroke-miterlimit="10"/>
</g>
</g>
</g>
</g>
</g>
<path id="path877" d="M85.7638 25.6957H82.5565V33.3315H85.7638V25.6957Z" fill="#599BFE" stroke="#1A2E35" stroke-width="0.32" stroke-miterlimit="10"/>
<path id="path879" d="M90.4912 23.382H87.2838V33.3315H90.4912V23.382Z" fill="#599BFE" stroke="#1A2E35" stroke-width="0.32" stroke-miterlimit="10"/>
<path id="path881" d="M95.2185 25.6957H92.0112V33.3315H95.2185V25.6957Z" fill="#599BFE" stroke="#1A2E35" stroke-width="0.32" stroke-miterlimit="10"/>
<path id="path883" d="M99.9459 22.8793H96.7386V33.3318H99.9459V22.8793Z" fill="#599BFE" stroke="#1A2E35" stroke-width="0.32" stroke-miterlimit="10"/>
<path id="path885" d="M104.673 19.0573H101.466V33.3315H104.673V19.0573Z" fill="#599BFE" stroke="#1A2E35" stroke-width="0.32" stroke-miterlimit="10"/>
<g id="g887">
<path id="path889" d="M100.415 13.0072L101.667 13.5426L93.1577 21.7083L89.094 19.4917L82.6569 23.4053V24.587L89.1212 20.6568L93.3235 22.949L102.366 14.2712L102.849 15.5432L104.638 11.3906L100.415 13.0072Z" fill="#1A2E35"/>
</g>
<g id="g891">
<path id="path893" d="M100.415 13.0072L101.667 13.5426L93.1577 21.7083L89.094 19.4917L82.6569 23.4053V24.587L89.1212 20.6568L93.3235 22.949L102.366 14.2712L102.849 15.5432L104.638 11.3906L100.415 13.0072Z" stroke="#1A2E35" stroke-width="0.32" stroke-miterlimit="10" stroke-linecap="round" stroke-linejoin="round"/>
</g>
<g id="g895">
<g id="Clip path group_5">
<mask id="mask4_159_42061" style="mask-type:luminance" maskUnits="userSpaceOnUse" x="0" y="0" width="160" height="160">
<g id="clipPath901">
<path id="path899" d="M0 0H160V160H0V0Z" fill="white"/>
</g>
</mask>
<g mask="url(#mask4_159_42061)">
<g id="g897">
<g id="g903">
<path id="path905" d="M69.3061 25.1583C69.3061 20.7048 65.6958 17.0949 61.2427 17.0949C56.7893 17.0949 53.1794 20.7048 53.1794 25.1583C53.1794 29.6117 56.7893 33.2216 61.2427 33.2216C65.6958 33.2216 69.3061 29.6117 69.3061 25.1583Z" fill="white"/>
</g>
<g id="g907">
<path id="path909" d="M69.3061 25.1583C69.3061 20.7048 65.6958 17.0949 61.2427 17.0949C56.7893 17.0949 53.1794 20.7048 53.1794 25.1583C53.1794 29.6117 56.7893 33.2216 61.2427 33.2216C65.6958 33.2216 69.3061 29.6117 69.3061 25.1583Z" stroke="#1A2E35" stroke-width="0.32" stroke-miterlimit="10"/>
</g>
<g id="g911">
<path id="path913" d="M68.4111 25.1582C68.4111 21.1992 65.2018 17.9896 61.2428 17.9896C57.2837 17.9896 54.0741 21.1992 54.0741 25.1582C54.0741 29.1173 57.2837 32.3265 61.2428 32.3265C65.2018 32.3265 68.4111 29.1173 68.4111 25.1582Z" fill="#599BFE"/>
</g>
<g id="g915">
<path id="path917" d="M68.4111 25.1582C68.4111 21.1992 65.2018 17.9896 61.2428 17.9896C57.2837 17.9896 54.0741 21.1992 54.0741 25.1582C54.0741 29.1173 57.2837 32.3265 61.2428 32.3265C65.2018 32.3265 68.4111 29.1173 68.4111 25.1582Z" stroke="#1A2E35" stroke-width="0.32" stroke-miterlimit="10"/>
</g>
<g id="g919">
<path id="path921" d="M67.7045 25.2078C67.7045 21.6353 64.8085 18.7393 61.2361 18.7393C57.6636 18.7393 54.7673 21.6353 54.7673 25.2078C54.7673 28.7803 57.6636 31.6763 61.2361 31.6763C64.8085 31.6763 67.7045 28.7803 67.7045 25.2078Z" fill="white"/>
</g>
<g id="g923">
<path id="path925" d="M67.7045 25.2078C67.7045 21.6353 64.8085 18.7393 61.2361 18.7393C57.6636 18.7393 54.7673 21.6353 54.7673 25.2078C54.7673 28.7803 57.6636 31.6763 61.2361 31.6763C64.8085 31.6763 67.7045 28.7803 67.7045 25.2078Z" stroke="#1A2E35" stroke-width="0.32" stroke-miterlimit="10"/>
</g>
<g id="g927">
<path id="path929" d="M61.1433 30.7406V29.7137C60.3849 29.684 59.8182 29.4414 59.4425 28.9848C59.0672 28.5281 58.8646 27.8472 58.8352 26.9416L60.3923 26.6766C60.407 27.0449 60.4457 27.3521 60.5084 27.5988C60.5708 27.8456 60.6646 28.0296 60.79 28.1508C60.9152 28.2724 61.0771 28.3332 61.2758 28.3332C61.504 28.3332 61.6604 28.2596 61.7452 28.1124C61.83 27.9652 61.8723 27.7956 61.8723 27.6043C61.8723 27.2286 61.7856 26.914 61.6128 26.6603C61.4396 26.4062 61.2022 26.1505 60.9004 25.8926L59.9616 25.0865C59.7481 24.8875 59.5568 24.6852 59.3875 24.4788C59.2179 24.2731 59.0838 24.0372 58.9843 23.7723C58.8851 23.5073 58.8352 23.1944 58.8352 22.8337C58.8352 22.1416 59.0323 21.602 59.4259 21.2158C59.8198 20.8289 60.3484 20.61 61.0108 20.5588V19.5758H61.5411V20.5588C61.9385 20.5806 62.2643 20.6708 62.518 20.8289C62.7721 20.9873 62.9654 21.1864 63.0979 21.4254C63.2304 21.6648 63.326 21.9262 63.3852 22.2094C63.4438 22.4932 63.4806 22.7672 63.4956 23.0321L61.9164 23.2641C61.9091 22.9921 61.8867 22.7508 61.8499 22.5409C61.8131 22.331 61.7472 22.1672 61.6512 22.0494C61.5555 21.9316 61.4083 21.8766 61.2099 21.884C61.0035 21.8913 60.847 21.9723 60.7401 22.1268C60.6336 22.2814 60.5801 22.4545 60.5801 22.6459C60.5801 22.9844 60.6611 23.2571 60.823 23.4628C60.9849 23.6692 61.1692 23.868 61.3753 24.0596L62.2918 24.8545C62.535 25.0753 62.7593 25.3147 62.9654 25.5723C63.1715 25.8299 63.3372 26.1153 63.4624 26.4283C63.5875 26.7412 63.6502 27.1 63.6502 27.5051C63.6502 27.8952 63.5708 28.2504 63.4128 28.5704C63.2544 28.891 63.0262 29.1505 62.7283 29.3489C62.43 29.548 62.0784 29.6657 61.6736 29.7025V30.7406H61.1433Z" fill="#1A2E35"/>
</g>
</g>
</g>
</g>
</g>
<path id="path931" d="M35.1063 32.9943H20.1341V18.9181H35.1063V32.9943Z" fill="white" stroke="#1A2E35" stroke-width="0.32" stroke-miterlimit="10"/>
<path id="path933" d="M35.1063 22.5376H20.1341V18.9181H35.1063V22.5376Z" fill="#599BFE" stroke="#1A2E35" stroke-width="0.32" stroke-miterlimit="10" stroke-linecap="round" stroke-linejoin="round"/>
<path id="path935" d="M23.1414 26.3401H21.3497V24.5488H23.1414V26.3401Z" fill="#599BFE" stroke="#1A2E35" stroke-width="0.32" stroke-miterlimit="10" stroke-linecap="round" stroke-linejoin="round"/>
<path id="path937" d="M25.8288 26.3401H24.0371V24.5488H25.8288V26.3401Z" fill="#599BFE" stroke="#1A2E35" stroke-width="0.32" stroke-miterlimit="10" stroke-linecap="round" stroke-linejoin="round"/>
<path id="path939" d="M28.5159 26.3401H26.7245V24.5488H28.5159V26.3401Z" fill="#599BFE" stroke="#1A2E35" stroke-width="0.32" stroke-miterlimit="10" stroke-linecap="round" stroke-linejoin="round"/>
<path id="path941" d="M31.2032 26.3401H29.4115V24.5488H31.2032V26.3401Z" fill="#599BFE" stroke="#1A2E35" stroke-width="0.32" stroke-miterlimit="10" stroke-linecap="round" stroke-linejoin="round"/>
<path id="path943" d="M33.8906 26.3401H32.0989V24.5488H33.8906V26.3401Z" fill="#599BFE" stroke="#1A2E35" stroke-width="0.32" stroke-miterlimit="10" stroke-linecap="round" stroke-linejoin="round"/>
<path id="path945" d="M23.1414 29.1556H21.3497V27.3639H23.1414V29.1556Z" fill="#599BFE" stroke="#1A2E35" stroke-width="0.32" stroke-miterlimit="10" stroke-linecap="round" stroke-linejoin="round"/>
<path id="path947" d="M25.8288 29.1556H24.0371V27.3639H25.8288V29.1556Z" fill="#599BFE" stroke="#1A2E35" stroke-width="0.32" stroke-miterlimit="10" stroke-linecap="round" stroke-linejoin="round"/>
<path id="path949" d="M28.5159 29.1556H26.7245V27.3639H28.5159V29.1556Z" fill="#599BFE" stroke="#1A2E35" stroke-width="0.32" stroke-miterlimit="10" stroke-linecap="round" stroke-linejoin="round"/>
<path id="path951" d="M31.2032 29.1556H29.4115V27.3639H31.2032V29.1556Z" fill="#599BFE" stroke="#1A2E35" stroke-width="0.32" stroke-miterlimit="10" stroke-linecap="round" stroke-linejoin="round"/>
<path id="path953" d="M33.8906 29.1556H32.0989V27.3639H33.8906V29.1556Z" fill="#599BFE" stroke="#1A2E35" stroke-width="0.32" stroke-miterlimit="10" stroke-linecap="round" stroke-linejoin="round"/>
<path id="path955" d="M23.1414 31.9705H21.3497V30.1791H23.1414V31.9705Z" fill="#599BFE" stroke="#1A2E35" stroke-width="0.32" stroke-miterlimit="10" stroke-linecap="round" stroke-linejoin="round"/>
<path id="path957" d="M25.8288 31.9705H24.0371V30.1791H25.8288V31.9705Z" fill="#599BFE" stroke="#1A2E35" stroke-width="0.32" stroke-miterlimit="10" stroke-linecap="round" stroke-linejoin="round"/>
<path id="path959" d="M28.5159 31.9705H26.7245V30.1791H28.5159V31.9705Z" fill="#599BFE" stroke="#1A2E35" stroke-width="0.32" stroke-miterlimit="10" stroke-linecap="round" stroke-linejoin="round"/>
<path id="path961" d="M31.2032 31.9705H29.4115V30.1791H31.2032V31.9705Z" fill="#599BFE" stroke="#1A2E35" stroke-width="0.32" stroke-miterlimit="10" stroke-linecap="round" stroke-linejoin="round"/>
<path id="path963" d="M33.8906 31.9705H32.0989V30.1791H33.8906V31.9705Z" fill="#599BFE" stroke="#1A2E35" stroke-width="0.32" stroke-miterlimit="10" stroke-linecap="round" stroke-linejoin="round"/>
<path id="path965" d="M23.4614 20.0697H22.1818V16.6147H23.4614V20.0697Z" fill="#1A2E35"/>
<path id="path967" d="M26.6605 20.0697H25.3808V16.6147H26.6605V20.0697Z" fill="#1A2E35"/>
<path id="path969" d="M29.8598 20.0697H28.5801V16.6147H29.8598V20.0697Z" fill="#1A2E35"/>
<path id="path971" d="M33.0589 20.0697H31.7792V16.6147H33.0589V20.0697Z" fill="#1A2E35"/>
<g id="g973">
<g id="Clip path group_6">
<mask id="mask5_159_42061" style="mask-type:luminance" maskUnits="userSpaceOnUse" x="0" y="0" width="160" height="160">
<g id="clipPath979">
<path id="path977" d="M0 0H160V160H0V0Z" fill="white"/>
</g>
</mask>
<g mask="url(#mask5_159_42061)">
<g id="g975">
<g id="g981">
<path id="path983" d="M7.11234 124.072C7.80706 124.375 9.50626 124.337 9.50754 124.337C9.52514 124.337 9.14242 123.225 9.1101 123.158C8.7373 122.377 7.55842 121.09 6.59906 121.219C5.90786 121.313 5.52354 122.004 5.67938 122.655C5.83906 123.32 6.52066 123.813 7.11234 124.072Z" fill="#599BFE"/>
</g>
<g id="g985">
<path id="path987" d="M7.69874 128.994C8.41938 129.099 9.93586 128.659 10.0565 128.623C10.2959 129.472 10.6104 130.324 10.9762 131.168C11.1848 131.651 11.4098 132.131 11.6418 132.61C11.5035 132.407 11.3781 132.227 11.3579 132.203C10.7922 131.55 9.31506 130.619 8.42418 130.998C7.78194 131.27 7.5941 132.039 7.91666 132.625C8.2453 133.224 9.03378 133.52 9.6725 133.613C10.3208 133.708 11.6213 133.359 11.9643 133.262C12.0552 133.444 12.1439 133.628 12.2354 133.81C12.6744 134.684 13.1163 135.555 13.5237 136.422C13.6674 136.727 13.7976 137.034 13.9295 137.34C13.8063 137.16 13.701 137.009 13.6827 136.988C13.117 136.334 11.6399 135.404 10.749 135.782C10.1067 136.055 9.9189 136.823 10.2411 137.41C10.5707 138.008 11.3586 138.305 11.9973 138.398C12.6162 138.488 13.8191 138.176 14.2271 138.063C14.3525 138.381 14.4786 138.698 14.5855 139.012C14.6536 139.227 14.7346 139.43 14.7906 139.65C14.8514 139.867 14.9112 140.081 14.9704 140.294C15.0696 140.707 15.1746 141.134 15.2613 141.54C15.3237 141.822 15.3781 142.091 15.4335 142.363C15.2939 142.057 15.0082 141.464 14.9787 141.417C14.5189 140.685 13.1995 139.542 12.2613 139.781C11.5855 139.953 11.2834 140.684 11.5131 141.312C11.748 141.954 12.4818 142.367 13.0991 142.555C13.7791 142.763 15.2843 142.573 15.4722 142.548C15.5624 142.998 15.6456 143.436 15.7179 143.851C15.8792 144.767 16.0011 145.587 16.0936 146.282H16.7282C16.6178 145.563 16.4728 144.707 16.2818 143.746C16.1922 143.289 16.0869 142.802 15.9743 142.303C16.0875 142.258 16.7295 141.999 17.2984 141.681C17.7935 142.217 19.0632 142.846 19.2277 142.925C19.0549 143.35 18.8827 143.762 18.7138 144.148C18.3627 144.956 18.0293 145.672 17.7349 146.282H18.4213C18.6741 145.72 18.9525 145.08 19.2424 144.371C19.4197 143.94 19.6005 143.476 19.7816 142.999C19.964 143.037 21.4536 143.339 22.148 143.183C22.7778 143.04 23.5407 142.684 23.8226 142.061C24.0987 141.452 23.8517 140.7 23.1903 140.478C22.2728 140.17 20.8722 141.212 20.3589 141.907C20.3285 141.948 20.0498 142.43 19.8789 142.737C19.9519 142.542 20.0251 142.352 20.0975 142.15C20.2443 141.751 20.3784 141.348 20.5247 140.915C20.5877 140.704 20.6517 140.49 20.7163 140.275C20.7848 140.062 20.8303 139.829 20.8888 139.604C21.0136 139.08 21.1144 138.543 21.2043 138C21.5541 138.127 22.8031 138.561 23.4501 138.516C24.0943 138.471 24.9019 138.234 25.2747 137.662C25.6399 137.101 25.5096 136.32 24.8901 136C24.0296 135.557 22.4869 136.375 21.8744 136.985C21.836 137.023 21.4456 137.51 21.2363 137.781C21.2879 137.454 21.3407 137.128 21.3819 136.796C21.501 135.836 21.5919 134.861 21.6866 133.888C21.7154 133.59 21.7477 133.294 21.7791 132.997C21.9032 133.043 23.3765 133.592 24.101 133.541C24.7451 133.496 25.5531 133.259 25.9259 132.687C26.2911 132.126 26.1608 131.345 25.541 131.026C24.6805 130.582 23.1384 131.4 22.5256 132.01C22.4795 132.055 21.9186 132.757 21.7848 132.943C21.8536 132.288 21.9285 131.638 22.0287 130.999C22.1653 130.117 22.348 129.26 22.5864 128.442C22.6443 128.464 24.1794 129.043 24.9215 128.991C25.5656 128.946 26.3736 128.71 26.7464 128.137C27.1119 127.576 26.9816 126.796 26.3615 126.476C25.501 126.032 23.9589 126.85 23.3461 127.46C23.2981 127.508 22.6949 128.263 22.5954 128.408C22.6098 128.359 22.6191 128.307 22.6341 128.259C22.8997 127.389 23.2664 126.58 23.6469 125.84C23.8671 125.409 24.1016 125.01 24.3387 124.626C24.6133 124.763 25.8763 125.376 26.5496 125.403C27.1947 125.429 28.0239 125.283 28.4575 124.755C28.8818 124.238 28.8383 123.447 28.2571 123.062C27.4507 122.526 25.8277 123.17 25.1519 123.708C25.1151 123.738 24.7743 124.077 24.5298 124.327C24.6392 124.156 24.749 123.977 24.8575 123.815C25.2623 123.205 25.6709 122.671 26.0363 122.202C26.2463 121.936 26.4411 121.701 26.6264 121.482C26.9663 121.476 28.3362 121.435 28.9349 121.153C29.5192 120.879 30.1877 120.367 30.3291 119.698C30.4674 119.044 30.0645 118.363 29.3711 118.288C28.4088 118.184 27.2648 119.503 26.9131 120.293C26.8827 120.361 26.5301 121.483 26.548 121.483H26.5685C26.3861 121.69 26.1931 121.914 25.9874 122.162C25.6111 122.625 25.1899 123.151 24.7701 123.754C24.349 124.357 23.9083 125.022 23.5077 125.766C23.1051 126.51 22.7195 127.314 22.4293 128.193C22.4261 128.203 22.4242 128.214 22.4207 128.224C22.4255 127.94 22.4133 127.147 22.4053 127.086C22.2939 126.229 21.5755 124.638 20.6235 124.462C19.9378 124.335 19.357 124.872 19.3023 125.539C19.2466 126.22 19.7403 126.902 20.2219 127.332C20.765 127.817 22.2722 128.287 22.3925 128.324C22.1237 129.164 21.9163 130.048 21.7557 130.953C21.6632 131.471 21.5861 131.996 21.5157 132.523C21.5122 132.278 21.5071 132.058 21.5029 132.028C21.3919 131.17 20.6735 129.579 19.7215 129.403C19.0354 129.277 18.4546 129.814 18.4002 130.48C18.3442 131.162 18.8383 131.843 19.3195 132.274C19.8085 132.71 21.0853 133.136 21.4248 133.245C21.3999 133.447 21.3727 133.649 21.3487 133.852C21.2325 134.823 21.1208 135.793 20.9823 136.741C20.9336 137.075 20.8731 137.402 20.8143 137.73C20.8107 137.512 20.8059 137.329 20.8024 137.301C20.6914 136.443 19.973 134.853 19.021 134.677C18.3349 134.55 17.7541 135.087 17.6994 135.754C17.6437 136.435 18.1378 137.117 18.6191 137.547C19.0853 137.963 20.2607 138.367 20.6635 138.498C20.5928 138.832 20.5227 139.166 20.4392 139.487C20.3771 139.704 20.3327 139.917 20.2584 140.132C20.1893 140.346 20.1208 140.559 20.053 140.768C19.9074 141.168 19.7599 141.582 19.6085 141.968C19.5051 142.238 19.4011 142.493 19.2978 142.749C19.3503 142.417 19.4389 141.765 19.4402 141.71C19.4533 141.135 19.2495 140.202 18.8437 139.546C18.8463 139.461 18.8411 139.376 18.8277 139.293C18.7218 138.632 18.101 138.141 17.4267 138.32C16.4917 138.57 15.8981 140.212 15.8539 141.075C15.8514 141.126 15.8847 141.682 15.9115 142.032C15.8642 141.828 15.821 141.63 15.7701 141.422C15.6719 141.008 15.5618 140.598 15.445 140.156C15.3813 139.945 15.3167 139.732 15.2514 139.516C15.1912 139.301 15.1003 139.081 15.0255 138.862C14.8402 138.356 14.628 137.852 14.4034 137.35C14.7653 137.263 16.0466 136.936 16.5611 136.541C17.0735 136.148 17.6168 135.505 17.612 134.822C17.6072 134.153 17.068 133.574 16.3746 133.649C15.412 133.753 14.5771 135.287 14.4024 136.133C14.3915 136.186 14.3343 136.807 14.3096 137.15C14.172 136.849 14.0363 136.547 13.8872 136.247C13.4571 135.381 12.9947 134.518 12.5375 133.654C12.397 133.39 12.2603 133.125 12.1227 132.86C12.252 132.83 13.7835 132.475 14.3599 132.032C14.8722 131.64 15.4152 130.997 15.4104 130.313C15.4056 129.644 14.8664 129.065 14.1733 129.14C13.2107 129.245 12.3755 130.778 12.2008 131.625C12.1877 131.688 12.1071 132.583 12.0978 132.811C11.7944 132.228 11.4978 131.643 11.2287 131.055C10.8565 130.245 10.5359 129.429 10.2837 128.615C10.3442 128.602 11.9442 128.238 12.5343 127.785C13.0466 127.392 13.5899 126.749 13.5851 126.066C13.5803 125.397 13.0411 124.817 12.3477 124.893C11.3855 124.998 10.5503 126.531 10.3755 127.377C10.3618 127.444 10.2754 128.406 10.2722 128.582C10.2575 128.533 10.2363 128.485 10.2223 128.436C9.96434 127.564 9.82386 126.687 9.73234 125.86C9.67858 125.379 9.65362 124.917 9.63986 124.466C9.94482 124.429 11.3365 124.243 11.9128 123.895C12.4651 123.56 13.076 122.981 13.1461 122.301C13.2146 121.635 12.7423 121 12.0453 120.999C11.077 120.998 10.0786 122.43 9.81202 123.252C9.7973 123.296 9.70002 123.767 9.63442 124.111C9.63122 123.908 9.62418 123.698 9.62514 123.503C9.62642 122.771 9.6725 122.101 9.71858 121.507C9.74706 121.17 9.78002 120.866 9.81362 120.582C10.0936 120.389 11.2133 119.599 11.5579 119.034C11.8936 118.482 12.1688 117.687 11.9176 117.051C11.6722 116.429 10.9602 116.083 10.341 116.403C9.48082 116.848 9.25458 118.579 9.39666 119.431C9.40914 119.505 9.73394 120.636 9.74866 120.626C9.74866 120.626 9.76242 120.616 9.76562 120.614C9.72754 120.887 9.69042 121.18 9.65618 121.502C9.59698 122.095 9.53586 122.766 9.5189 123.501C9.4997 124.235 9.4997 125.034 9.57554 125.875C9.65042 126.718 9.77202 127.6 10.0152 128.494C10.0181 128.504 10.0223 128.514 10.0251 128.524C9.8725 128.285 9.4245 127.631 9.38418 127.584C8.81874 126.93 7.34162 126 6.45042 126.378C5.8085 126.651 5.62034 127.419 5.9429 128.006C6.27218 128.605 7.06002 128.901 7.69874 128.994Z" fill="#599BFE"/>
</g>
<g id="g989">
<path id="path991" d="M24.2994 124.446C24.3144 124.455 24.6085 123.316 24.619 123.242C24.7381 122.386 24.4651 120.662 23.5931 120.241C22.9653 119.937 22.2632 120.302 22.0344 120.931C21.8008 121.573 22.0971 122.361 22.4478 122.903C22.8597 123.54 24.2984 124.445 24.2994 124.446Z" fill="#599BFE"/>
</g>
<g id="g993">
<path id="path995" d="M125.228 124.072C125.922 124.375 127.621 124.337 127.623 124.337C127.641 124.337 127.258 123.225 127.226 123.158C126.853 122.377 125.674 121.09 124.714 121.219C124.023 121.313 123.639 122.004 123.795 122.655C123.954 123.32 124.636 123.813 125.228 124.072Z" fill="#599BFE"/>
</g>
<g id="g997">
<path id="path999" d="M125.814 128.994C126.535 129.099 128.051 128.659 128.172 128.623C128.411 129.472 128.726 130.324 129.091 131.168C129.3 131.651 129.525 132.131 129.757 132.61C129.619 132.407 129.493 132.227 129.474 132.203C128.907 131.55 127.43 130.619 126.54 130.998C125.898 131.27 125.71 132.039 126.032 132.625C126.361 133.224 127.149 133.52 127.788 133.613C128.436 133.708 129.737 133.359 130.08 133.262C130.17 133.444 130.259 133.628 130.351 133.81C130.79 134.684 131.232 135.555 131.639 136.422C131.783 136.727 131.913 137.034 132.045 137.34C131.922 137.16 131.817 137.009 131.798 136.988C131.233 136.334 129.755 135.404 128.864 135.782C128.222 136.055 128.034 136.823 128.356 137.41C128.686 138.008 129.474 138.305 130.113 138.398C130.731 138.488 131.935 138.176 132.342 138.063C132.468 138.381 132.594 138.698 132.701 139.012C132.769 139.227 132.85 139.43 132.906 139.65C132.967 139.867 133.026 140.081 133.086 140.294C133.185 140.707 133.29 141.134 133.377 141.54C133.439 141.822 133.493 142.091 133.549 142.363C133.409 142.057 133.123 141.464 133.094 141.417C132.634 140.685 131.315 139.542 130.377 139.781C129.701 139.953 129.399 140.684 129.629 141.312C129.863 141.954 130.597 142.367 131.215 142.555C131.894 142.763 133.4 142.573 133.587 142.548C133.677 142.998 133.761 143.436 133.833 143.851C133.994 144.767 134.116 145.587 134.209 146.282H134.843C134.733 145.563 134.588 144.707 134.397 143.746C134.307 143.289 134.202 142.802 134.09 142.303C134.203 142.258 134.845 141.999 135.414 141.681C135.909 142.217 137.179 142.846 137.343 142.925C137.17 143.35 136.998 143.762 136.829 144.148C136.478 144.956 136.145 145.672 135.85 146.282H136.537C136.79 145.72 137.068 145.08 137.358 144.371C137.535 143.94 137.716 143.476 137.897 142.999C138.079 143.037 139.569 143.339 140.263 143.183C140.893 143.04 141.656 142.684 141.938 142.061C142.214 141.452 141.967 140.7 141.306 140.478C140.388 140.17 138.987 141.212 138.474 141.907C138.444 141.948 138.165 142.43 137.994 142.737C138.067 142.542 138.14 142.352 138.213 142.15C138.36 141.751 138.494 141.348 138.64 140.915C138.703 140.704 138.767 140.49 138.832 140.275C138.9 140.062 138.946 139.829 139.004 139.604C139.129 139.08 139.23 138.543 139.319 138C139.669 138.127 140.918 138.561 141.565 138.516C142.209 138.471 143.017 138.234 143.39 137.662C143.755 137.101 143.625 136.32 143.005 136C142.145 135.557 140.602 136.375 139.99 136.985C139.952 137.023 139.561 137.51 139.352 137.781C139.403 137.454 139.456 137.128 139.497 136.796C139.616 135.836 139.707 134.861 139.802 133.888C139.831 133.59 139.863 133.294 139.894 132.997C140.018 133.043 141.491 133.592 142.217 133.541C142.861 133.496 143.668 133.259 144.041 132.687C144.407 132.126 144.276 131.345 143.656 131.026C142.796 130.582 141.254 131.4 140.641 132.01C140.594 132.055 140.034 132.757 139.9 132.943C139.969 132.288 140.044 131.638 140.144 130.999C140.281 130.117 140.463 129.26 140.702 128.442C140.76 128.464 142.295 129.043 143.037 128.991C143.681 128.946 144.489 128.71 144.862 128.137C145.227 127.576 145.097 126.796 144.477 126.476C143.617 126.032 142.074 126.85 141.461 127.46C141.413 127.508 140.81 128.263 140.711 128.408C140.725 128.359 140.735 128.307 140.749 128.259C141.015 127.389 141.382 126.58 141.762 125.84C141.982 125.409 142.217 125.01 142.454 124.626C142.729 124.763 143.992 125.376 144.665 125.403C145.31 125.429 146.139 125.283 146.572 124.755C146.997 124.238 146.954 123.447 146.372 123.062C145.566 122.526 143.943 123.17 143.267 123.708C143.23 123.738 142.89 124.077 142.645 124.327C142.754 124.156 142.864 123.977 142.973 123.815C143.378 123.205 143.786 122.671 144.152 122.202C144.362 121.936 144.556 121.701 144.742 121.482C145.082 121.476 146.451 121.435 147.05 121.153C147.634 120.879 148.303 120.367 148.444 119.698C148.582 119.044 148.18 118.363 147.487 118.288C146.524 118.184 145.38 119.503 145.028 120.293C144.998 120.361 144.646 121.483 144.663 121.483H144.684C144.501 121.69 144.309 121.914 144.103 122.162C143.726 122.625 143.305 123.151 142.886 123.754C142.464 124.357 142.024 125.022 141.623 125.766C141.22 126.51 140.835 127.314 140.545 128.193C140.541 128.203 140.539 128.214 140.536 128.224C140.541 127.94 140.528 127.147 140.521 127.086C140.409 126.229 139.691 124.638 138.739 124.462C138.053 124.335 137.472 124.872 137.418 125.539C137.362 126.22 137.856 126.902 138.337 127.332C138.88 127.817 140.388 128.287 140.508 128.324C140.239 129.164 140.032 130.048 139.871 130.953C139.778 131.471 139.701 131.996 139.631 132.523C139.627 132.278 139.622 132.058 139.618 132.028C139.507 131.17 138.789 129.579 137.836 129.403C137.151 129.277 136.57 129.814 136.515 130.48C136.46 131.162 136.954 131.843 137.435 132.274C137.924 132.71 139.201 133.136 139.54 133.245C139.515 133.447 139.488 133.649 139.464 133.852C139.348 134.823 139.236 135.793 139.098 136.741C139.049 137.075 138.989 137.402 138.93 137.73C138.926 137.512 138.921 137.329 138.918 137.301C138.807 136.443 138.088 134.853 137.136 134.677C136.45 134.55 135.87 135.087 135.815 135.754C135.759 136.435 136.253 137.117 136.735 137.547C137.201 137.963 138.376 138.367 138.779 138.498C138.708 138.832 138.638 139.166 138.554 139.487C138.492 139.704 138.448 139.917 138.374 140.132C138.305 140.346 138.236 140.559 138.168 140.768C138.023 141.168 137.875 141.582 137.724 141.968C137.62 142.238 137.516 142.493 137.413 142.749C137.465 142.417 137.554 141.765 137.555 141.71C137.569 141.135 137.365 140.202 136.959 139.546C136.962 139.461 136.956 139.376 136.943 139.293C136.837 138.632 136.216 138.141 135.542 138.32C134.607 138.57 134.013 140.212 133.969 141.075C133.967 141.126 134 141.682 134.027 142.032C133.98 141.828 133.936 141.63 133.885 141.422C133.787 141.008 133.677 140.598 133.56 140.156C133.497 139.945 133.432 139.732 133.367 139.516C133.306 139.301 133.216 139.081 133.141 138.862C132.955 138.356 132.743 137.852 132.518 137.35C132.881 137.263 134.162 136.936 134.676 136.541C135.189 136.148 135.732 135.505 135.727 134.822C135.722 134.153 135.183 133.574 134.49 133.649C133.527 133.753 132.692 135.287 132.517 136.133C132.507 136.186 132.45 136.807 132.425 137.15C132.287 136.849 132.152 136.547 132.002 136.247C131.572 135.381 131.11 134.518 130.653 133.654C130.513 133.39 130.376 133.125 130.238 132.86C130.367 132.83 131.899 132.475 132.475 132.032C132.987 131.64 133.53 130.997 133.526 130.313C133.521 129.644 132.982 129.065 132.288 129.14C131.326 129.245 130.491 130.778 130.316 131.625C130.303 131.688 130.222 132.583 130.213 132.811C129.91 132.228 129.613 131.643 129.344 131.055C128.971 130.245 128.651 129.429 128.399 128.615C128.459 128.602 130.059 128.238 130.65 127.785C131.162 127.392 131.705 126.749 131.7 126.066C131.696 125.397 131.156 124.817 130.463 124.893C129.501 124.998 128.665 126.531 128.491 127.377C128.477 127.444 128.391 128.406 128.387 128.582C128.372 128.533 128.352 128.485 128.338 128.436C128.08 127.564 127.939 126.687 127.848 125.86C127.794 125.379 127.769 124.917 127.755 124.466C128.06 124.429 129.452 124.243 130.028 123.895C130.581 123.56 131.191 122.981 131.261 122.301C131.33 121.635 130.858 121 130.16 120.999C129.192 120.998 128.194 122.43 127.927 123.252C127.913 123.296 127.816 123.767 127.75 124.111C127.746 123.908 127.739 123.698 127.74 123.503C127.741 122.771 127.788 122.101 127.834 121.507C127.862 121.17 127.895 120.866 127.929 120.582C128.209 120.389 129.329 119.599 129.673 119.034C130.009 118.482 130.284 117.687 130.033 117.051C129.787 116.429 129.075 116.083 128.456 116.403C127.596 116.848 127.37 118.579 127.512 119.431C127.525 119.505 127.849 120.636 127.864 120.626C127.864 120.626 127.878 120.616 127.881 120.614C127.843 120.887 127.806 121.18 127.771 121.502C127.713 122.095 127.651 122.766 127.634 123.501C127.615 124.235 127.615 125.034 127.69 125.875C127.766 126.718 127.887 127.6 128.13 128.494C128.133 128.504 128.138 128.514 128.14 128.524C127.988 128.285 127.54 127.631 127.499 127.584C126.934 126.93 125.457 126 124.566 126.378C123.924 126.651 123.736 127.419 124.058 128.006C124.387 128.605 125.175 128.901 125.814 128.994Z" fill="#599BFE"/>
</g>
<g id="g1001">
<path id="path1003" d="M142.415 124.446C142.43 124.455 142.724 123.316 142.734 123.242C142.853 122.386 142.58 120.662 141.708 120.241C141.081 119.937 140.379 120.302 140.15 120.931C139.916 121.573 140.212 122.361 140.563 122.903C140.975 123.54 142.414 124.445 142.415 124.446Z" fill="#599BFE"/>
</g>
</g>
</g>
</g>
</g>
<g id="g1005">
<g id="Clip path group_7">
<mask id="mask6_159_42061" style="mask-type:luminance" maskUnits="userSpaceOnUse" x="0" y="0" width="160" height="160">
<g id="clipPath1011">
<path id="path1009" d="M0 0H160V160H0V0Z" fill="white"/>
</g>
</mask>
<g mask="url(#mask6_159_42061)">
<g id="g1007">
<g id="g1013">
<path id="path1015" d="M111.787 57.4623C111.787 57.4623 111.884 53.8508 113.967 52.8249C116.05 51.7989 116.168 55.1845 116.168 55.1845C116.168 55.1845 120.936 52.1583 121.969 54.4527C123.002 56.7471 121.558 57.8569 121.558 57.8569C121.558 57.8569 125.79 57.7093 126.083 60.0293C126.375 62.3497 124.19 63.4853 124.19 63.4853C124.19 63.4853 126.807 65.6185 125.888 66.6041C124.969 67.5893 122.959 67.6594 122.959 67.6594C122.959 67.6594 124.098 69.9503 122.114 70.7609C120.129 71.5717 117.852 70.062 117.852 70.062C117.852 70.062 118.206 71.109 116.714 70.8431C115.222 70.5775 113.715 69.8885 112.791 67.6959C111.867 65.5039 110.673 59.3084 111.787 57.4623Z" fill="#1A2E35"/>
</g>
<g id="g1017">
<path id="path1019" d="M111.787 57.4623C111.787 57.4623 111.884 53.8508 113.967 52.8249C116.05 51.7989 116.168 55.1845 116.168 55.1845C116.168 55.1845 120.936 52.1583 121.969 54.4527C123.002 56.7471 121.558 57.8569 121.558 57.8569C121.558 57.8569 125.79 57.7093 126.083 60.0293C126.375 62.3497 124.19 63.4853 124.19 63.4853C124.19 63.4853 126.807 65.6185 125.888 66.6041C124.969 67.5893 122.959 67.6594 122.959 67.6594C122.959 67.6594 124.098 69.9503 122.114 70.7609C120.129 71.5717 117.852 70.062 117.852 70.062C117.852 70.062 118.206 71.109 116.714 70.8431C115.222 70.5775 113.715 69.8885 112.791 67.6959C111.867 65.5039 110.673 59.3084 111.787 57.4623Z" stroke="#1A2E35" stroke-width="0.32" stroke-miterlimit="10" stroke-linecap="round" stroke-linejoin="round"/>
</g>
<g id="g1021">
<path id="path1023" d="M89.7903 127.239C89.7903 127.239 88.6018 131.769 88.6194 132.273C88.637 132.778 88.2277 133.914 88.5756 134.238C88.9234 134.563 90.4757 135.631 90.6457 135.681C90.8159 135.731 91.3145 135.546 91.4783 135.428C91.6428 135.31 91.7449 135.026 91.7391 134.858C91.733 134.689 91.2597 133.977 91.1977 133.81C91.1356 133.644 92.0703 131.479 92.4252 130.401C92.7807 129.323 92.9964 127.464 92.9964 127.464L89.7903 127.239Z" fill="#BEBEBE"/>
</g>
<g id="g1025">
<path id="path1027" d="M89.7903 127.239C89.7903 127.239 88.6018 131.769 88.6194 132.273C88.637 132.778 88.2277 133.914 88.5756 134.238C88.9234 134.563 90.4757 135.631 90.6457 135.681C90.8159 135.731 91.3145 135.546 91.4783 135.428C91.6428 135.31 91.7449 135.026 91.7391 134.858C91.733 134.689 91.2597 133.977 91.1977 133.81C91.1356 133.644 92.0703 131.479 92.4252 130.401C92.7807 129.323 92.9964 127.464 92.9964 127.464L89.7903 127.239Z" stroke="#1A2E35" stroke-width="0.32" stroke-miterlimit="10"/>
</g>
<g id="g1029">
<g id="path1031">
<path d="M91.0784 130.392C91.0784 130.392 90.4048 131.986 90.3584 132.268C90.312 132.551 89.385 133.313 89.5184 133.925C89.6522 134.537 90.993 134.378 91.6589 132.56" fill="#BEBEBE"/>
<path d="M91.0784 130.392C91.0784 130.392 90.4048 131.986 90.3584 132.268C90.312 132.551 89.385 133.313 89.5184 133.925C89.6522 134.537 90.993 134.378 91.6589 132.56" stroke="#1A2E35" stroke-width="0.32" stroke-miterlimit="10"/>
</g>
</g>
<g id="g1033">
<path id="path1035" d="M94.1031 102.624C94.1031 102.624 93.5358 111.866 93.3214 112.683C93.1073 113.499 90.5354 120.951 89.9678 123.236C89.4004 125.521 89.2282 127.55 89.2282 127.55L92.6833 128.275L94.6196 119.757C94.6196 119.757 97.1546 112.006 96.6494 108.36C96.1441 104.714 94.1031 102.624 94.1031 102.624Z" fill="#599BFE"/>
</g>
<g id="g1037">
<path id="path1039" d="M94.1031 102.624C94.1031 102.624 93.5358 111.866 93.3214 112.683C93.1073 113.499 90.5354 120.951 89.9678 123.236C89.4004 125.521 89.2282 127.55 89.2282 127.55L92.6833 128.275L94.6196 119.757C94.6196 119.757 97.1546 112.006 96.6494 108.36C96.1441 104.714 94.1031 102.624 94.1031 102.624Z" stroke="#1A2E35" stroke-width="0.32" stroke-miterlimit="10"/>
</g>
<g id="g1041">
<g id="path1043">
<path d="M112.09 146.282C112.13 144.271 112.215 141.561 112.396 140.009C112.707 137.329 113.862 135.671 115.04 132.313C116.217 128.955 116.307 124.583 116.307 124.583L95.2176 125.318C95.2176 125.318 92.7834 134.383 91.3175 141.068C90.826 143.309 90.6442 145.009 90.6186 146.282" fill="#599BFE"/>
<path d="M112.09 146.282C112.13 144.271 112.215 141.561 112.396 140.009C112.707 137.329 113.862 135.671 115.04 132.313C116.217 128.955 116.307 124.583 116.307 124.583L95.2176 125.318C95.2176 125.318 92.7834 134.383 91.3175 141.068C90.826 143.309 90.6442 145.009 90.6186 146.282" stroke="#1A2E35" stroke-width="0.32" stroke-miterlimit="10"/>
</g>
</g>
<g id="g1045">
<path id="path1047" d="M98.006 128.733L115.554 129.228L115.924 127.868L98.006 128.733Z" fill="#1A2E35"/>
</g>
<g id="g1049">
<path id="path1051" d="M98.006 128.733L115.554 129.228L115.924 127.868L98.006 128.733Z" stroke="#1A2E35" stroke-width="0.32" stroke-miterlimit="10" stroke-linecap="round" stroke-linejoin="round"/>
</g>
<g id="g1053">
<g id="path1055">
<path d="M97.1209 145.96C97.1209 145.96 96.7747 134.989 96.7664 129.034L97.1209 145.96Z" fill="white"/>
<path d="M97.1209 145.96C97.1209 145.96 96.7747 134.989 96.7664 129.034" stroke="#1A2E35" stroke-width="0.32" stroke-miterlimit="10"/>
</g>
</g>
<g id="g1057">
<path id="path1059" d="M110.568 79.4105L113.127 81.1334C113.127 81.1334 116.152 83.8454 116.906 86.0729C117.659 88.3004 117.109 101.617 116.358 105.926C115.607 110.234 117.483 115.578 118.152 118.597C118.821 121.617 119.129 127.24 119.129 127.24C119.129 127.24 119.603 127.9 111.387 128.186C103.17 128.473 97.4379 128.898 96.7662 129.034C96.0948 129.17 95.5323 129.19 95.5323 129.19L95.2049 126.271L94.387 128.666L92.683 128.275C92.683 128.275 93.7406 123.054 94.0075 121.017C94.2747 118.979 95.9486 112.046 95.9713 109.454C95.9934 106.861 93.8184 102.654 93.3902 100.077C92.9624 97.5007 93.8225 93.0758 95.9598 89.733C98.0971 86.3903 99.5172 85.1014 103.681 81.6882C107.844 78.2751 110.568 79.4105 110.568 79.4105Z" fill="#599BFE"/>
</g>
<g id="g1061">
<path id="path1063" d="M110.568 79.4105L113.127 81.1334C113.127 81.1334 116.152 83.8454 116.906 86.0729C117.659 88.3004 117.109 101.617 116.358 105.926C115.607 110.234 117.483 115.578 118.152 118.597C118.821 121.617 119.129 127.24 119.129 127.24C119.129 127.24 119.603 127.9 111.387 128.186C103.17 128.473 97.4379 128.898 96.7662 129.034C96.0948 129.17 95.5323 129.19 95.5323 129.19L95.2049 126.271L94.387 128.666L92.683 128.275C92.683 128.275 93.7406 123.054 94.0075 121.017C94.2747 118.979 95.9486 112.046 95.9713 109.454C95.9934 106.861 93.8184 102.654 93.3902 100.077C92.9624 97.5007 93.8225 93.0758 95.9598 89.733C98.0971 86.3903 99.5172 85.1014 103.681 81.6882C107.844 78.2751 110.568 79.4105 110.568 79.4105Z" stroke="#1A2E35" stroke-width="0.32" stroke-miterlimit="10"/>
</g>
<g id="g1065">
<path id="path1067" d="M103.901 118.405L112.485 119.377L112.002 117.129L106.647 116.668" stroke="#1A2E35" stroke-width="0.32" stroke-miterlimit="10"/>
</g>
<g id="g1069">
<path id="path1071" d="M100.899 116.545L100.465 118.016L102.618 118.26" stroke="#1A2E35" stroke-width="0.32" stroke-miterlimit="10"/>
</g>
<g id="g1073">
<path id="path1075" d="M104.121 101.834C103.674 101.405 103.275 100.98 103.013 100.614" stroke="#1A2E35" stroke-width="0.32" stroke-miterlimit="10"/>
</g>
<g id="g1077">
<path id="path1079" d="M107.108 104.355C107.108 104.355 106.201 103.671 105.209 102.818" stroke="#1A2E35" stroke-width="0.32" stroke-miterlimit="10"/>
</g>
<g id="g1081">
<path id="path1083" d="M110.568 79.4105C110.568 79.4105 107.844 78.2751 103.681 81.6882C99.5172 85.1014 98.0971 86.3903 95.9598 89.733C94.6366 91.8025 93.8043 94.286 93.4628 96.4898C93.514 96.7394 93.5687 96.9929 93.6299 97.2518C94.8196 102.282 96.1441 104.714 96.1441 104.714C96.1441 104.714 98.4491 93.2524 102.456 88.605C106.464 83.9574 113.127 81.1334 113.127 81.1334L110.568 79.4105Z" fill="#599BFE"/>
</g>
<g id="g1085">
<path id="path1087" d="M110.568 79.4105C110.568 79.4105 107.844 78.2751 103.681 81.6882C99.5172 85.1014 98.0971 86.3903 95.9598 89.733C94.6366 91.8025 93.8043 94.286 93.4628 96.4898C93.514 96.7394 93.5687 96.9929 93.6299 97.2518C94.8196 102.282 96.1441 104.714 96.1441 104.714C96.1441 104.714 98.4491 93.2524 102.456 88.605C106.464 83.9574 113.127 81.1334 113.127 81.1334L110.568 79.4105Z" stroke="#1A2E35" stroke-width="0.32" stroke-miterlimit="10"/>
</g>
<g id="g1089">
<path id="path1091" d="M100.563 57.053C100.563 57.053 97.558 59.86 97.3346 62.0696C97.1116 64.2792 96.8777 66.189 96.5026 66.9026C96.127 67.6162 94.2415 68.0824 94.8796 69.1611C95.5177 70.2395 96.1174 70.2187 96.1174 70.2187C96.1174 70.2187 97.0847 74.989 97.8089 75.6645C98.5327 76.3397 101.121 75.9493 101.121 75.9493L101.918 81.7349C101.918 81.7349 96.5478 86.5006 95.5017 93.1381C94.4553 99.7758 95.6521 103.567 95.6521 103.567C95.6521 103.567 96.3526 93.1083 98.7711 89.1912C101.19 85.2741 106.81 81.5643 107.639 80.8965C108.467 80.229 110.568 79.4104 110.568 79.4104C110.568 79.4104 109.57 77.156 109.436 76.1598C109.301 75.1637 109.348 73.661 109.535 73.2539C109.721 72.8472 113.081 71.6293 114.348 67.7816C115.615 63.9342 113.755 59.3954 111.786 57.4622C109.818 55.5294 103.078 54.5634 100.563 57.053Z" fill="#BEBEBE"/>
</g>
<g id="g1093">
<path id="path1095" d="M100.563 57.053C100.563 57.053 97.558 59.86 97.3346 62.0696C97.1116 64.2792 96.8777 66.189 96.5026 66.9026C96.127 67.6162 94.2415 68.0824 94.8796 69.1611C95.5177 70.2395 96.1174 70.2187 96.1174 70.2187C96.1174 70.2187 97.0847 74.989 97.8089 75.6645C98.5327 76.3397 101.121 75.9493 101.121 75.9493L101.918 81.7349C101.918 81.7349 96.5478 86.5006 95.5017 93.1381C94.4553 99.7758 95.6521 103.567 95.6521 103.567C95.6521 103.567 96.3526 93.1083 98.7711 89.1912C101.19 85.2741 106.81 81.5643 107.639 80.8965C108.467 80.229 110.568 79.4104 110.568 79.4104C110.568 79.4104 109.57 77.156 109.436 76.1598C109.301 75.1637 109.348 73.661 109.535 73.2539C109.721 72.8472 113.081 71.6293 114.348 67.7816C115.615 63.9342 113.755 59.3954 111.786 57.4622C109.818 55.5294 103.078 54.5634 100.563 57.053Z" stroke="#1A2E35" stroke-width="0.32" stroke-miterlimit="10"/>
</g>
<g id="g1097">
<path id="path1099" d="M114.348 67.7817C115.615 63.9343 113.755 59.3955 111.787 57.4623C109.818 55.5292 103.078 54.5631 100.563 57.0531C100.563 57.0531 100.402 57.2038 100.153 57.4611C100.671 57.3222 101.703 57.1404 103.075 57.3657C105.089 57.6956 105.045 59.2988 104.497 60.8191C103.95 62.3395 104.36 62.6252 105.387 63.39C106.415 64.1551 105.364 65.5929 106.085 66.1683C106.806 66.7436 107.397 63.6204 108.977 65.8671C110.556 68.1142 109.491 69.1519 108.513 69.7868C107.534 70.4214 106.741 70.6489 106.741 70.6489C106.741 70.6489 108.225 72.3865 109.685 73.1027C110.382 72.5727 113.209 71.239 114.348 67.7817Z" fill="#1A2E35"/>
</g>
<g id="g1101">
<path id="path1103" d="M114.348 67.7817C115.615 63.9343 113.755 59.3955 111.787 57.4623C109.818 55.5292 103.078 54.5631 100.563 57.0531C100.563 57.0531 100.402 57.2038 100.153 57.4611C100.671 57.3222 101.703 57.1404 103.075 57.3657C105.089 57.6956 105.045 59.2988 104.497 60.8191C103.95 62.3395 104.36 62.6252 105.387 63.39C106.415 64.1551 105.364 65.5929 106.085 66.1683C106.806 66.7436 107.397 63.6204 108.977 65.8671C110.556 68.1142 109.491 69.1519 108.513 69.7868C107.534 70.4214 106.741 70.6489 106.741 70.6489C106.741 70.6489 108.225 72.3865 109.685 73.1027C110.382 72.5727 113.209 71.239 114.348 67.7817Z" stroke="#1A2E35" stroke-width="0.32" stroke-miterlimit="10" stroke-linecap="round" stroke-linejoin="round"/>
</g>
<g id="g1105">
<path id="path1107" d="M97.7485 71.0626C97.7485 71.0626 99.8441 70.8895 100.812 69.9551" stroke="#1A2E35" stroke-width="0.32" stroke-miterlimit="10"/>
</g>
<g id="g1109">
<path id="path1111" d="M99.0769 66.1124C99.0945 66.6093 98.907 67.0189 98.6583 67.0276C98.41 67.0362 98.1947 66.6404 98.1774 66.1437C98.1601 65.6468 98.3476 65.2372 98.5959 65.2282C98.8443 65.2196 99.0596 65.6154 99.0769 66.1124Z" fill="#1A2E35"/>
</g>
<g id="g1113">
<path id="path1115" d="M98.1759 64.085C98.1759 64.085 98.8511 63.1771 99.8175 64.2482" stroke="#1A2E35" stroke-width="0.32" stroke-miterlimit="10"/>
</g>
<g id="g1117">
<path id="path1119" d="M101.121 75.9493L103.618 75.0073L101.879 78.134L101.121 75.9493Z" fill="#1A2E35"/>
</g>
<g id="g1121">
<path id="path1123" d="M101.121 75.9493L103.618 75.0073L101.879 78.134L101.121 75.9493Z" stroke="#1A2E35" stroke-width="0.32" stroke-miterlimit="10"/>
</g>
<g id="g1125">
<path id="path1127" d="M93.9237 121.877L90.6457 135.681L93.5871 136.364L95.205 126.271L93.9237 121.877Z" fill="white"/>
</g>
<g id="g1129">
<path id="path1131" d="M93.9237 121.877L90.6457 135.681L93.5871 136.364L95.205 126.271L93.9237 121.877Z" stroke="#1A2E35" stroke-width="0.32" stroke-miterlimit="10"/>
</g>
<g id="g1133">
<path id="path1135" d="M96.8194 88.835C96.227 90.1435 95.7461 91.5886 95.5016 93.1381C94.4552 99.7758 95.6523 103.567 95.6523 103.567C95.6523 103.567 96.3442 93.2491 98.7243 89.2728C97.9746 89.1854 97.3413 89.0235 96.8194 88.835Z" fill="white"/>
</g>
<g id="g1137">
<path id="path1139" d="M96.8194 88.835C96.227 90.1435 95.7461 91.5886 95.5016 93.1381C94.4552 99.7758 95.6523 103.567 95.6523 103.567C95.6523 103.567 96.3442 93.2491 98.7243 89.2728C97.9746 89.1854 97.3413 89.0235 96.8194 88.835Z" stroke="#1A2E35" stroke-width="0.32" stroke-miterlimit="10"/>
</g>
<g id="g1141">
<g id="path1143">
<path d="M106.945 93.1425L106.72 104.855L86.2224 108.234L86.673 113.752C86.673 113.752 98.048 113.978 103.341 113.527C108.635 113.077 113.252 112.739 113.928 112.176C114.604 111.613 116.522 100.726 117.31 93.0676C118.099 85.409 116.522 82.8186 113.368 83.2692" fill="#599BFE"/>
<path d="M106.945 93.1425L106.72 104.855L86.2224 108.234L86.673 113.752C86.673 113.752 98.048 113.978 103.341 113.527C108.635 113.077 113.252 112.739 113.928 112.176C114.604 111.613 116.522 100.726 117.31 93.0676C118.099 85.409 116.522 82.8186 113.368 83.2692" stroke="#1A2E35" stroke-width="0.32" stroke-miterlimit="10"/>
</g>
</g>
<g id="g1145">
<path id="path1147" d="M73.9625 107.736L72.3241 112.717L73.9366 113.588C73.9366 113.588 75.9683 115.161 77.0825 116.012C78.1964 116.864 79.0483 116.864 79.638 116.603C80.2281 116.34 82.9151 112.539 83.2425 111.818C83.5702 111.098 81.9974 108.935 80.4246 108.017C78.8518 107.1 77.5411 107.1 76.6236 107.362C75.7059 107.624 73.9625 107.736 73.9625 107.736Z" fill="white"/>
</g>
<g id="g1149">
<path id="path1151" d="M73.9625 107.736L72.3241 112.717L73.9366 113.588C73.9366 113.588 75.9683 115.161 77.0825 116.012C78.1964 116.864 79.0483 116.864 79.638 116.603C80.2281 116.34 82.9151 112.539 83.2425 111.818C83.5702 111.098 81.9974 108.935 80.4246 108.017C78.8518 107.1 77.5411 107.1 76.6236 107.362C75.7059 107.624 73.9625 107.736 73.9625 107.736Z" stroke="#1A2E35" stroke-width="0.32" stroke-miterlimit="10"/>
</g>
<g id="g1153">
<path id="path1155" d="M86.2225 108.234L83.6321 108.009C83.6321 108.009 81.8302 107.558 81.1547 107.558C80.4788 107.558 79.5777 108.234 79.1275 108.572C78.6769 108.91 73.7214 114.316 73.7214 114.316C73.7214 114.316 74.1719 115.216 74.8478 114.991C75.5233 114.766 76.7623 114.203 76.7623 114.203C76.7623 114.203 75.4107 115.554 76.0865 116.23C76.7623 116.906 77.8884 116.906 77.8884 116.906L78.6769 116.455C78.6769 116.455 79.2401 116.906 79.803 117.018C80.3662 117.131 81.2673 116.906 82.0558 116.455C82.8439 116.005 84.8407 113.656 84.8407 113.656L86.571 112.987L86.2225 108.234Z" fill="#BEBEBE"/>
</g>
<g id="g1157">
<path id="path1159" d="M86.2225 108.234L83.6321 108.009C83.6321 108.009 81.8302 107.558 81.1547 107.558C80.4788 107.558 79.5777 108.234 79.1275 108.572C78.6769 108.91 73.7214 114.316 73.7214 114.316C73.7214 114.316 74.1719 115.216 74.8478 114.991C75.5233 114.766 76.7623 114.203 76.7623 114.203C76.7623 114.203 75.4107 115.554 76.0865 116.23C76.7623 116.906 77.8884 116.906 77.8884 116.906L78.6769 116.455C78.6769 116.455 79.2401 116.906 79.803 117.018C80.3662 117.131 81.2673 116.906 82.0558 116.455C82.8439 116.005 84.8407 113.656 84.8407 113.656L86.571 112.987L86.2225 108.234Z" stroke="#1A2E35" stroke-width="0.32" stroke-miterlimit="10"/>
</g>
<g id="g1161">
<g id="path1163">
<path d="M74.8541 107.952C74.8541 107.952 78.1309 106.051 79.5728 106.575C81.0144 107.1 82.9149 110.311 82.3907 110.77C81.8662 111.228 81.0144 111.032 80.5555 110.573C80.0969 110.114 79.3104 109.656 79.3104 109.656C79.3104 109.656 78 110.442 76.4925 110.442" fill="white"/>
<path d="M74.8541 107.952C74.8541 107.952 78.1309 106.051 79.5728 106.575C81.0144 107.1 82.9149 110.311 82.3907 110.77C81.8662 111.228 81.0144 111.032 80.5555 110.573C80.0969 110.114 79.3104 109.656 79.3104 109.656C79.3104 109.656 78 110.442 76.4925 110.442" stroke="#1A2E35" stroke-width="0.32" stroke-miterlimit="10"/>
</g>
</g>
<g id="g1165">
<path id="path1167" d="M84.6262 115.391L83.5859 114.835C83.2346 114.648 83.1021 114.211 83.2899 113.86C83.4774 113.508 83.9142 113.376 84.2653 113.563L85.3059 114.119C85.657 114.307 85.7898 114.744 85.6019 115.095C85.4144 115.446 84.9776 115.579 84.6262 115.391Z" fill="white"/>
</g>
<g id="g1169">
<path id="path1171" d="M84.6262 115.391L83.5859 114.835C83.2346 114.648 83.1021 114.211 83.2899 113.86C83.4774 113.508 83.9142 113.376 84.2653 113.563L85.3059 114.119C85.657 114.307 85.7898 114.744 85.6019 115.095C85.4144 115.446 84.9776 115.579 84.6262 115.391Z" stroke="#1A2E35" stroke-width="0.32" stroke-miterlimit="10"/>
</g>
<g id="g1173">
<path id="path1175" d="M83.7087 116.505L82.6684 115.949C82.317 115.762 82.1846 115.325 82.3724 114.974C82.5599 114.622 82.9967 114.49 83.3478 114.678L84.3884 115.234C84.7394 115.421 84.8719 115.858 84.6844 116.209C84.4969 116.56 84.0601 116.693 83.7087 116.505Z" fill="white"/>
</g>
<g id="g1177">
<path id="path1179" d="M83.7087 116.505L82.6684 115.949C82.317 115.762 82.1846 115.325 82.3724 114.974C82.5599 114.622 82.9967 114.49 83.3478 114.678L84.3884 115.234C84.7394 115.421 84.8719 115.858 84.6844 116.209C84.4969 116.56 84.0601 116.693 83.7087 116.505Z" stroke="#1A2E35" stroke-width="0.32" stroke-miterlimit="10"/>
</g>
<g id="g1181">
<path id="path1183" d="M82.6603 117.488L81.6197 116.932C81.2686 116.745 81.1362 116.308 81.3237 115.957C81.5115 115.606 81.948 115.473 82.2994 115.661L83.3397 116.216C83.691 116.404 83.8235 116.841 83.636 117.192C83.4482 117.543 83.0117 117.676 82.6603 117.488Z" fill="white"/>
</g>
<g id="g1185">
<path id="path1187" d="M82.6603 117.488L81.6197 116.932C81.2686 116.745 81.1362 116.308 81.3237 115.957C81.5115 115.606 81.948 115.473 82.2994 115.661L83.3397 116.216C83.691 116.404 83.8235 116.841 83.636 117.192C83.4482 117.543 83.0117 117.676 82.6603 117.488Z" stroke="#1A2E35" stroke-width="0.32" stroke-miterlimit="10"/>
</g>
<g id="g1189">
<path id="path1191" d="M80.4516 117.537L80.178 117.391C79.8269 117.203 79.6944 116.767 79.882 116.416C80.0698 116.064 80.5063 115.932 80.8576 116.119L81.1309 116.266C81.4823 116.453 81.6148 116.89 81.4272 117.241C81.2394 117.592 80.8029 117.725 80.4516 117.537Z" fill="white"/>
</g>
<g id="g1193">
<path id="path1195" d="M80.4516 117.537L80.178 117.391C79.8269 117.203 79.6944 116.767 79.882 116.416C80.0698 116.064 80.5063 115.932 80.8576 116.119L81.1309 116.266C81.4823 116.453 81.6148 116.89 81.4272 117.241C81.2394 117.592 80.8029 117.725 80.4516 117.537Z" stroke="#1A2E35" stroke-width="0.32" stroke-miterlimit="10"/>
</g>
<g id="g1197">
<path id="path1199" d="M73.9625 107.736L60.2079 101.922L60.7164 111.032L72.0742 113.634L73.9625 107.736Z" fill="#1A2E35"/>
</g>
<g id="g1201">
<path id="path1203" d="M73.9625 107.736L60.2079 101.922L60.7164 111.032L72.0742 113.634L73.9625 107.736Z" stroke="#1A2E35" stroke-width="0.32" stroke-miterlimit="10" stroke-linecap="round" stroke-linejoin="round"/>
</g>
<g id="g1205">
<path id="path1207" d="M72.0742 113.634L73.9625 107.736L72.0396 106.888L72.0016 107.081L70.2387 113.19L72.0742 113.634Z" fill="white"/>
</g>
<g id="g1209">
<path id="path1211" d="M72.0742 113.634L73.9625 107.736L72.0396 106.888L72.0016 107.081L70.2387 113.19L72.0742 113.634Z" stroke="#1A2E35" stroke-width="0.32" stroke-miterlimit="10"/>
</g>
<g id="g1213">
<path id="path1215" d="M52.4939 71.2949L56.0216 72.9317C56.0216 72.9317 57.4997 77.1195 57.0069 77.2427C56.5141 77.3659 52.819 74.4098 52.819 74.4098L52.4939 71.2949Z" fill="white"/>
</g>
<g id="g1217">
<path id="path1219" d="M52.4939 71.2949L56.0216 72.9317C56.0216 72.9317 57.4997 77.1195 57.0069 77.2427C56.5141 77.3659 52.819 74.4098 52.819 74.4098L52.4939 71.2949Z" stroke="#1A2E35" stroke-width="0.32" stroke-miterlimit="10" stroke-linecap="round" stroke-linejoin="round"/>
</g>
<g id="g1221">
<path id="path1223" d="M54.5242 70.4564L54.7719 69.0462C54.7719 69.0462 58.0353 69.2705 59.3399 69.2625C60.6446 69.2542 61.7854 69.084 61.7767 67.6977C61.7681 66.3115 61.0049 61.5864 61.0049 61.5864C61.0049 61.5864 62.4708 61.251 63.0375 60.5953C63.6042 59.9393 62.7838 59.1291 62.0439 58.155C61.3038 57.1809 60.6446 56.1249 60.5562 54.9838C60.4676 53.8427 58.4871 50.1035 58.4871 50.1035C58.4871 50.1035 58.8097 49.5307 57.7422 48.3144C56.6743 47.0974 51.2094 46.8868 47.7134 48.6212C44.2177 50.3553 43.4177 52.8884 43.435 55.6609C43.4522 58.4334 45.026 62.338 45.026 62.338C45.026 62.338 43.9921 66.5848 43.9121 66.8299C43.8321 67.0753 42.9066 68.8817 42.9066 68.8817C42.9066 68.8817 47.2785 71.9332 48.8775 73.3012C50.4769 74.6692 54.0785 77.0136 54.1009 75.7476C54.1233 74.482 54.2676 71.618 54.2676 71.618L54.5242 70.4564Z" fill="white"/>
</g>
<g id="g1225">
<path id="path1227" d="M54.5242 70.4564L54.7719 69.0462C54.7719 69.0462 58.0353 69.2705 59.3399 69.2625C60.6446 69.2542 61.7854 69.084 61.7767 67.6977C61.7681 66.3115 61.0049 61.5864 61.0049 61.5864C61.0049 61.5864 62.4708 61.251 63.0375 60.5953C63.6042 59.9393 62.7838 59.1291 62.0439 58.155C61.3038 57.1809 60.6446 56.1249 60.5562 54.9838C60.4676 53.8427 58.4871 50.1035 58.4871 50.1035C58.4871 50.1035 58.8097 49.5307 57.7422 48.3144C56.6743 47.0974 51.2094 46.8868 47.7134 48.6212C44.2177 50.3553 43.4177 52.8884 43.435 55.6609C43.4522 58.4334 45.026 62.338 45.026 62.338C45.026 62.338 43.9921 66.5848 43.9121 66.8299C43.8321 67.0753 42.9066 68.8817 42.9066 68.8817C42.9066 68.8817 47.2785 71.9332 48.8775 73.3012C50.4769 74.6692 54.0785 77.0136 54.1009 75.7476C54.1233 74.482 54.2676 71.618 54.2676 71.618L54.5242 70.4564Z" stroke="#1A2E35" stroke-width="0.32" stroke-miterlimit="10" stroke-linecap="round" stroke-linejoin="round"/>
</g>
<g id="g1229">
<path id="path1231" d="M59.3465 57.2227C59.3677 57.6953 59.2576 58.0838 59.0998 58.0908C58.9424 58.0979 58.7977 57.7209 58.7763 57.2486C58.7549 56.776 58.8656 56.3872 59.0227 56.3801C59.1801 56.3731 59.3254 56.7504 59.3465 57.2227Z" fill="#1A2E35"/>
</g>
<g id="g1233">
<path id="path1235" d="M57.0537 55.6578C57.0537 55.6578 57.7801 54.4303 59.6601 55.1522" stroke="#1A2E35" stroke-width="0.64" stroke-miterlimit="10" stroke-linecap="round" stroke-linejoin="round"/>
</g>
<g id="g1237">
<path id="path1239" d="M61.7767 67.6977C61.7681 66.3114 61.0049 61.5863 61.0049 61.5863C61.0049 61.5863 60.1047 61.1028 58.3949 61.521C56.6849 61.9393 56.2129 64.715 55.8887 65.0433C55.5645 65.3713 53.4321 63.4276 52.6087 62.1278C51.785 60.8282 51.2001 58.5482 51.1105 57.2442C51.0209 55.9399 54.1156 55.2682 54.5972 54.042C55.0788 52.8161 52.7876 51.5252 53.5978 50.7047C54.4084 49.8842 56.0413 50.2004 56.8577 50.3585C57.6743 50.5166 58.4871 50.1038 58.4871 50.1038C58.4871 50.1038 58.8097 49.531 57.7421 48.3143C56.6743 47.0977 51.2093 46.8868 47.7133 48.6212C44.2177 50.3553 43.4177 52.8884 43.4349 55.6609C43.449 57.9076 44.4849 60.8974 44.8772 61.9508C45.1917 62.0634 45.7034 62.2254 45.922 62.1694C46.2477 62.0855 46.4861 61.1057 46.6433 60.1262C46.8001 59.1466 49.1578 57.9902 49.1578 57.9902C49.1578 57.9902 49.5837 60.9233 49.5876 61.4942C49.5908 62.065 49.2826 64.921 50.8404 66.2977C52.3985 67.6743 54.7719 69.0462 54.7719 69.0462C54.7719 69.0462 58.0353 69.2705 59.3399 69.2625C60.6445 69.2542 61.7853 69.0842 61.7767 67.6977Z" fill="#1A2E35"/>
</g>
<g id="g1241">
<path id="path1243" d="M61.7767 67.6977C61.7681 66.3114 61.0049 61.5863 61.0049 61.5863C61.0049 61.5863 60.1047 61.1028 58.3949 61.521C56.6849 61.9393 56.2129 64.715 55.8887 65.0433C55.5645 65.3713 53.4321 63.4276 52.6087 62.1278C51.785 60.8282 51.2001 58.5482 51.1105 57.2442C51.0209 55.9399 54.1156 55.2682 54.5972 54.042C55.0788 52.8161 52.7876 51.5252 53.5978 50.7047C54.4084 49.8842 56.0413 50.2004 56.8577 50.3585C57.6743 50.5166 58.4871 50.1038 58.4871 50.1038C58.4871 50.1038 58.8097 49.531 57.7421 48.3143C56.6743 47.0977 51.2093 46.8868 47.7133 48.6212C44.2177 50.3553 43.4177 52.8884 43.4349 55.6609C43.449 57.9076 44.4849 60.8974 44.8772 61.9508C45.1917 62.0634 45.7034 62.2254 45.922 62.1694C46.2477 62.0855 46.4861 61.1057 46.6433 60.1262C46.8001 59.1466 49.1578 57.9902 49.1578 57.9902C49.1578 57.9902 49.5837 60.9233 49.5876 61.4942C49.5908 62.065 49.2826 64.921 50.8404 66.2977C52.3985 67.6743 54.7719 69.0462 54.7719 69.0462C54.7719 69.0462 58.0353 69.2705 59.3399 69.2625C60.6445 69.2542 61.7853 69.0842 61.7767 67.6977Z" stroke="#1A2E35" stroke-width="0.32" stroke-miterlimit="10" stroke-linecap="round" stroke-linejoin="round"/>
</g>
<g id="g1245">
<g id="path1247">
<path d="M49.6598 60.0258C49.6598 60.0258 48.983 56.1157 47.8425 56.2856C46.7017 56.4559 46.0589 57.9279 46.6409 59.7999C47.2237 61.6719 48.3641 61.5016 49.0157 61.3346" fill="white"/>
<path d="M49.6598 60.0258C49.6598 60.0258 48.983 56.1157 47.8425 56.2856C46.7017 56.4559 46.0589 57.9279 46.6409 59.7999C47.2237 61.6719 48.3641 61.5016 49.0157 61.3346" stroke="#1A2E35" stroke-width="0.32" stroke-miterlimit="10" stroke-linecap="round" stroke-linejoin="round"/>
</g>
</g>
<g id="g1249">
<path id="path1251" d="M57.67 62.9934C57.67 62.9934 58.3276 63.805 60.0399 63.7941" stroke="white" stroke-width="0.32" stroke-miterlimit="10" stroke-linecap="round" stroke-linejoin="round"/>
</g>
<g id="g1253">
<path id="path1255" d="M39.3483 146.282H56.6264C56.6862 145.374 57.3553 141.878 57.3553 139.588C57.3553 136.94 59.1774 119.868 59.1774 119.868L36.7041 119.574L37.4401 130.023L39.3483 146.282Z" fill="#1A2E35"/>
</g>
<g id="g1257">
<path id="path1259" d="M39.3483 146.282H56.6264C56.6862 145.374 57.3553 141.878 57.3553 139.588C57.3553 136.94 59.1774 119.868 59.1774 119.868L36.7041 119.574L37.4401 130.023L39.3483 146.282Z" stroke="#1A2E35" stroke-width="0.32" stroke-miterlimit="10" stroke-linecap="round" stroke-linejoin="round"/>
</g>
<g id="g1261">
<path id="path1263" d="M41.6106 69.483C41.6106 69.483 37.6692 74.5329 36.5607 77.3659C35.4522 80.1988 34.5902 80.6913 34.8362 84.2635C35.0826 87.8353 36.8071 102.123 36.8071 102.123L33.3582 120.722C33.3582 120.722 38.9009 122.939 46.0449 122.939C53.1886 122.939 56.2679 122.323 56.7607 122.077C57.2532 121.83 61.5642 120.722 61.5642 120.722C61.5642 120.722 61.5642 99.6596 60.2094 92.3924C58.8545 85.1255 57.1303 79.5828 56.5143 78.2279C55.8983 76.8731 53.9278 72.4391 53.9278 72.4391L41.6106 69.483Z" fill="#1A2E35"/>
</g>
<g id="g1265">
<path id="path1267" d="M41.6106 69.483C41.6106 69.483 37.6692 74.5329 36.5607 77.3659C35.4522 80.1988 34.5902 80.6913 34.8362 84.2635C35.0826 87.8353 36.8071 102.123 36.8071 102.123L33.3582 120.722C33.3582 120.722 38.9009 122.939 46.0449 122.939C53.1886 122.939 56.2679 122.323 56.7607 122.077C57.2532 121.83 61.5642 120.722 61.5642 120.722C61.5642 120.722 61.5642 99.6596 60.2093 92.3924C58.8545 85.1255 57.1303 79.5828 56.5143 78.2279C55.8983 76.8731 53.9278 72.4391 53.9278 72.4391L41.6106 69.483Z" stroke="#1A2E35" stroke-width="0.32" stroke-miterlimit="10" stroke-linecap="round" stroke-linejoin="round"/>
</g>
<g id="g1269">
<path id="path1271" d="M56.5142 78.228C55.8985 76.8731 53.9277 72.4392 53.9277 72.4392L41.6105 69.483C41.6105 69.483 40.7773 70.5512 39.7696 71.9796C42.4541 73.5403 49.1008 77.3908 49.4937 77.4891C49.9862 77.6123 52.4496 77.3659 52.4496 77.3659L51.3411 78.7208C51.3411 78.7208 54.2973 81.0609 55.2825 82.0462C55.8006 82.5643 57.3062 83.9339 58.6176 85.116C57.7235 81.5771 56.9008 79.0782 56.5142 78.228Z" fill="#1A2E35"/>
</g>
<g id="g1273">
<path id="path1275" d="M56.5142 78.228C55.8985 76.8731 53.9277 72.4392 53.9277 72.4392L41.6105 69.483C41.6105 69.483 40.7773 70.5512 39.7696 71.9796C42.4541 73.5403 49.1008 77.3908 49.4937 77.4891C49.9862 77.6123 52.4496 77.3659 52.4496 77.3659L51.3411 78.7208C51.3411 78.7208 54.2973 81.0609 55.2825 82.0462C55.8006 82.5643 57.3062 83.9339 58.6176 85.116C57.7235 81.5771 56.9008 79.0782 56.5142 78.228Z" stroke="#1A2E35" stroke-width="0.32" stroke-miterlimit="10" stroke-linecap="round" stroke-linejoin="round"/>
</g>
<g id="g1277">
<path id="path1279" d="M50.8484 75.1488L55.0363 78.4745L58.4849 84.6329L56.268 75.6416L51.7105 73.055L50.8484 75.1488Z" fill="white"/>
</g>
<g id="g1281">
<path id="path1283" d="M50.8484 75.1488L55.0363 78.4745L58.4849 84.6329L56.268 75.6416L51.7105 73.055L50.8484 75.1488Z" stroke="#1A2E35" stroke-width="0.32" stroke-miterlimit="10" stroke-linecap="round" stroke-linejoin="round"/>
</g>
<g id="g1285">
<path id="path1287" d="M42.4728 67.1427L55.3707 72.9542V77.5113L40.6254 69.9756L42.4728 67.1427Z" fill="white"/>
</g>
<g id="g1289">
<path id="path1291" d="M42.4728 67.1427L55.3707 72.9542V77.5113L40.6254 69.9756L42.4728 67.1427Z" stroke="#1A2E35" stroke-width="0.32" stroke-miterlimit="10" stroke-linecap="round" stroke-linejoin="round"/>
</g>
<path id="path1293" d="M59.5254 131.789H37.2406V113.758H59.5254V131.789Z" fill="#599BFE" stroke="#1A2E35" stroke-width="0.32" stroke-miterlimit="10"/>
<g id="g1295">
<path id="path1297" d="M49.7519 122.351C49.7519 122.351 51.4088 124.513 52.0575 124.729C52.7055 124.945 53.0658 125.449 53.3541 125.881C53.6421 126.313 54.0024 129.556 54.2184 129.771C54.4348 129.988 54.4348 130.492 53.6421 130.132C52.8498 129.771 52.3455 128.547 52.3455 128.547L52.6335 131.429C52.6335 131.429 53.2821 131.573 52.7778 131.933C52.2735 132.293 51.8412 132.798 51.4088 132.581C50.9765 132.365 50.3282 131.789 50.3282 131.789C50.3282 131.789 49.5359 132.077 48.7432 131.933C47.9509 131.789 48.0949 132.077 47.3746 131.573C46.654 131.068 46.654 131.645 46.2936 130.708C45.9336 129.771 45.069 126.53 44.925 125.593C44.781 124.657 44.637 123.36 44.637 123.36L49.7519 122.351Z" fill="white"/>
</g>
<g id="g1299">
<path id="path1301" d="M49.7519 122.351C49.7519 122.351 51.4088 124.513 52.0575 124.729C52.7055 124.945 53.0658 125.449 53.3541 125.881C53.6421 126.313 54.0024 129.556 54.2184 129.771C54.4348 129.988 54.4348 130.492 53.6421 130.132C52.8498 129.771 52.3455 128.547 52.3455 128.547L52.6335 131.429C52.6335 131.429 53.2821 131.573 52.7778 131.933C52.2735 132.293 51.8412 132.798 51.4088 132.581C50.9765 132.365 50.3282 131.789 50.3282 131.789C50.3282 131.789 49.5359 132.077 48.7432 131.933C47.9509 131.789 48.0949 132.077 47.3746 131.573C46.654 131.068 46.654 131.645 46.2936 130.708C45.9336 129.771 45.069 126.53 44.925 125.593C44.781 124.657 44.637 123.36 44.637 123.36L49.7519 122.351Z" stroke="#1A2E35" stroke-width="0.32" stroke-miterlimit="10" stroke-linecap="round" stroke-linejoin="round"/>
</g>
<g id="g1303">
<path id="path1305" d="M50.04 120.983L50.5443 123.216L44.3485 124.08L44.0605 121.847L50.04 120.983Z" fill="white"/>
</g>
<g id="g1307">
<path id="path1309" d="M50.04 120.983L50.5443 123.216L44.3485 124.08L44.0605 121.847L50.04 120.983Z" stroke="#1A2E35" stroke-width="0.32" stroke-miterlimit="10" stroke-linecap="round" stroke-linejoin="round"/>
</g>
<g id="g1311">
<g id="path1313">
<path d="M42.1033 73.917C42.1033 73.917 37.7922 75.2719 37.6694 77.2428C37.5458 79.2134 36.1186 103.119 36.7346 104.72C37.3503 106.322 43.4127 122.535 43.4127 122.535L50.4335 121.673C50.4335 121.673 46.8345 102.873 46.7113 102.503C46.5881 102.134 49.1241 81.1839 49.1241 81.1839" fill="#1A2E35"/>
<path d="M42.1033 73.917C42.1033 73.917 37.7922 75.2719 37.6694 77.2428C37.5458 79.2134 36.1186 103.119 36.7346 104.72C37.3503 106.322 43.4127 122.535 43.4127 122.535L50.4335 121.673C50.4335 121.673 46.8345 102.873 46.7113 102.503C46.5881 102.134 49.1241 81.1839 49.1241 81.1839" stroke="#1A2E35" stroke-width="0.32" stroke-miterlimit="10" stroke-linecap="round" stroke-linejoin="round"/>
</g>
</g>
<g id="g1315">
<path id="path1317" d="M48.2978 87.2013L46.7112 102.503L48.2248 112.011" stroke="#888888" stroke-width="0.32" stroke-miterlimit="10" stroke-linecap="round" stroke-linejoin="round"/>
</g>
<g id="g1319">
<path id="path1321" d="M48.5408 84.8584L48.4563 85.6719" stroke="#888888" stroke-width="0.32" stroke-miterlimit="10" stroke-linecap="round" stroke-linejoin="round"/>
</g>
<g id="g1323">
<path id="path1325" d="M37.1747 82.4906L36.7011 96.8564" stroke="#888888" stroke-width="0.32" stroke-miterlimit="10" stroke-linecap="round" stroke-linejoin="round"/>
</g>
<g id="g1327">
<path id="path1329" d="M53.2772 109.499L58.0126 109.327L58.4369 111.032L50.593 111.537" stroke="#888888" stroke-width="0.32" stroke-miterlimit="10" stroke-linecap="round" stroke-linejoin="round"/>
</g>
<g id="g1331">
<path id="path1333" d="M49.33 109.643L51.8525 109.551" stroke="#888888" stroke-width="0.32" stroke-miterlimit="10" stroke-linecap="round" stroke-linejoin="round"/>
</g>
<g id="g1335">
<path id="path1337" d="M40.8055 72.3875L49.4935 77.4889L52.4496 77.3657L51.3412 78.7206L57.0653 83.28" stroke="#888888" stroke-width="0.32" stroke-miterlimit="10" stroke-linecap="round" stroke-linejoin="round"/>
</g>
</g>
</g>
</g>
</g>
<g id="g1339">
<path id="path1341" d="M3.67359 146.282H149.752" stroke="#1A2E35" stroke-width="0.32" stroke-miterlimit="10"/>
</g>
<g id="g1343">
<path id="path1345" d="M44.9553 14.4077V36.0361" stroke="#1A2E35" stroke-width="0.32" stroke-miterlimit="10"/>
</g>
<g id="g1347">
<path id="path1349" d="M78.1788 14.4077V36.0361" stroke="#1A2E35" stroke-width="0.32" stroke-miterlimit="10"/>
</g>
<g id="g1351">
<path id="path1353" d="M111.402 14.4077V36.0361" stroke="#1A2E35" stroke-width="0.32" stroke-miterlimit="10"/>
</g>
</g>
</svg>
