<svg width="350" height="342" viewBox="0 0 350 342" fill="none" xmlns="http://www.w3.org/2000/svg">
<mask id="mask0_519_41946" style="mask-type:luminance" maskUnits="userSpaceOnUse" x="0" y="0" width="350" height="350">
<path d="M0 5.96046e-06H350V350H0V5.96046e-06Z" fill="white"/>
</mask>
<g mask="url(#mask0_519_41946)">
<path d="M315.915 75.9571C314.752 74.0195 313.541 72.1183 312.278 70.2598C295.445 45.5267 267.422 28.593 240.186 20.9245C228.255 17.5596 216.006 15.7998 203.778 15.3497C123.569 12.4349 94.103 78.5681 68.2611 95.6194C42.4185 112.671 2.76207 141.796 7.73837 202.978C11.5142 249.496 37.9777 293.976 86.3092 314.217C91.632 316.453 97.2264 318.395 103.083 320.005C113.977 323.002 125.784 324.883 138.506 325.45C175.047 327.077 204.717 318.269 233.739 296.089C240.486 290.932 247.195 285.117 255.95 284.48C262.314 284.017 268.347 286.303 261.696 292.452C253.878 299.681 262.898 313.898 282.743 304.021C315.889 287.524 329.523 251.933 335.947 215.741C343.831 171.318 340.009 116.073 315.915 75.9571Z" fill="#599BFE"/>
<mask id="mask1_519_41946" style="mask-type:luminance" maskUnits="userSpaceOnUse" x="7" y="15" width="333" height="311">
<path d="M7.30981 15.2552H339.649V325.638H7.30981V15.2552Z" fill="white"/>
</mask>
<g mask="url(#mask1_519_41946)">
<g opacity="0.699997">
<path d="M315.915 75.9571C314.752 74.0195 313.541 72.1183 312.278 70.2598C295.445 45.5267 267.422 28.593 240.186 20.9245C228.255 17.5596 216.006 15.7998 203.778 15.3497C123.569 12.4349 94.103 78.5681 68.2611 95.6194C42.4185 112.671 2.76207 141.796 7.73837 202.978C11.5142 249.496 37.9777 293.976 86.3092 314.217C91.632 316.453 97.2264 318.395 103.083 320.005C113.977 323.002 125.784 324.883 138.506 325.45C175.047 327.077 204.717 318.269 233.739 296.089C240.486 290.932 247.195 285.117 255.95 284.48C262.314 284.017 268.347 286.303 261.696 292.452C253.878 299.681 262.898 313.898 282.743 304.021C315.889 287.524 329.523 251.933 335.947 215.741C343.831 171.318 340.009 116.073 315.915 75.9571Z" fill="white"/>
</g>
</g>
</g>
<path d="M20.9211 328.337H321.951" stroke="#1C1B1F" stroke-width="0.7" stroke-miterlimit="10" stroke-linecap="round" stroke-linejoin="round"/>
<mask id="mask2_519_41946" style="mask-type:luminance" maskUnits="userSpaceOnUse" x="0" y="0" width="350" height="350">
<path d="M0 5.96046e-06H350V350H0V5.96046e-06Z" fill="white"/>
</mask>
<g mask="url(#mask2_519_41946)">
<path d="M331.142 282.354C329.283 282.933 324.952 282.358 324.949 282.357C324.904 282.351 326.196 279.619 326.296 279.455C327.468 277.568 330.842 274.61 333.257 275.211C334.996 275.643 335.783 277.519 335.202 279.137C334.607 280.791 332.727 281.859 331.142 282.354Z" fill="#1C1B1F"/>
<path d="M290.777 281.141C290.736 281.16 290.305 278.169 290.3 277.977C290.237 275.756 291.419 271.427 293.765 270.596C295.454 269.999 297.145 271.128 297.552 272.799C297.968 274.505 296.99 276.434 295.941 277.721C294.71 279.23 290.78 281.139 290.777 281.141Z" fill="#1C1B1F"/>
<path d="M291.533 313.125C292.986 313.312 295.859 312.493 296.664 312.251C296.796 313.489 296.954 314.713 297.168 315.911C297.27 316.425 297.343 316.957 297.47 317.445C297.587 317.939 297.703 318.429 297.819 318.915C298.093 319.909 298.343 320.835 298.622 321.754C298.76 322.22 298.9 322.656 299.04 323.107C298.693 322.392 298.128 321.27 298.065 321.173C296.997 319.538 293.973 317.006 291.864 317.582C290.344 317.998 289.69 319.661 290.234 321.072C290.789 322.512 292.462 323.414 293.864 323.816C295.409 324.26 298.809 323.771 299.224 323.708C299.571 324.809 299.919 325.879 300.263 326.873C300.487 327.526 300.706 328.141 300.923 328.74H302.358C302.074 328.011 301.784 327.254 301.483 326.439C301.153 325.547 300.818 324.596 300.483 323.616C300.865 323.457 303.809 322.205 304.995 321.059C306.238 321.849 307.651 322.519 307.901 322.634C307.582 323.744 307.282 324.828 307.021 325.847C306.755 326.873 306.523 327.827 306.308 328.74H307.701C307.876 327.921 308.063 327.071 308.279 326.157C308.495 325.232 308.74 324.253 309.001 323.252C309.422 323.332 312.792 323.956 314.352 323.575C315.769 323.229 317.477 322.395 318.089 320.978C318.689 319.59 318.102 317.902 316.601 317.426C314.516 316.765 311.393 319.174 310.261 320.764C310.188 320.867 309.467 322.167 309.113 322.839C309.274 322.234 309.43 321.631 309.608 321.005C309.856 320.1 310.148 319.152 310.424 318.233C310.586 317.761 310.749 317.284 310.914 316.803C311.069 316.315 311.278 315.867 311.46 315.39C311.741 314.698 312.067 313.998 312.39 313.299C313.295 313.607 315.968 314.465 317.375 314.341C318.828 314.215 320.644 313.648 321.463 312.341C322.266 311.06 321.942 309.303 320.53 308.605C318.569 307.636 315.117 309.543 313.757 310.945C313.714 310.99 313.456 311.316 313.156 311.706C313.492 311.032 313.826 310.359 314.189 309.688C315.219 307.786 316.33 305.879 317.433 303.964C317.663 303.565 317.886 303.164 318.115 302.763C318.876 303.026 321.764 303.981 323.238 303.853C324.69 303.725 326.506 303.16 327.326 301.852C328.129 300.571 327.804 298.814 326.392 298.116C324.431 297.147 320.98 299.054 319.62 300.455C319.571 300.506 319.265 300.895 318.927 301.334C319.512 300.286 320.082 299.232 320.615 298.171C321.549 296.313 322.369 294.434 323.018 292.55C323.286 292.646 326.648 293.834 328.287 293.691C329.74 293.564 331.555 292.998 332.376 291.69C333.178 290.409 332.853 288.651 331.441 287.953C329.481 286.985 326.029 288.893 324.669 290.293C324.572 290.393 323.477 291.812 323.103 292.331C323.11 292.309 323.12 292.286 323.129 292.264C323.792 290.28 324.182 288.305 324.459 286.414C324.739 284.528 324.842 282.726 324.894 281.068C324.95 279.408 324.9 277.887 324.844 276.541C324.807 275.813 324.762 275.147 324.711 274.526C324.718 274.532 324.748 274.554 324.748 274.554C324.78 274.579 325.659 272.072 325.696 271.907C326.128 270.003 325.842 266.069 323.96 264.956C322.604 264.153 320.955 264.84 320.32 266.212C319.671 267.613 320.189 269.443 320.875 270.73C321.578 272.048 324.001 273.976 324.608 274.446C324.647 275.092 324.681 275.782 324.702 276.547C324.729 277.89 324.746 279.408 324.654 281.059C324.631 281.499 324.588 281.971 324.555 282.43C324.45 281.646 324.293 280.57 324.266 280.468C323.771 278.579 321.705 275.221 319.521 275.099C317.948 275.012 316.801 276.382 316.869 277.892C316.94 279.434 318.242 280.82 319.444 281.646C320.698 282.507 323.813 283.105 324.497 283.228C324.407 284.243 324.291 285.283 324.107 286.36C323.793 288.221 323.36 290.187 322.662 292.127C322.594 292.115 322.607 292.117 322.539 292.106C322.531 291.371 322.479 289.825 322.46 289.698C322.176 287.766 320.491 284.201 318.334 283.84C316.78 283.581 315.49 284.817 315.392 286.326C315.292 287.866 316.434 289.386 317.539 290.339C318.811 291.437 322.373 292.464 322.506 292.503C321.833 294.304 321.004 296.103 320.06 297.884C319.377 299.174 318.632 300.453 317.873 301.731C317.882 301.213 317.815 299.186 317.794 299.041C317.509 297.109 315.824 293.543 313.668 293.183C312.114 292.923 310.823 294.159 310.725 295.667C310.625 297.208 311.768 298.728 312.872 299.681C314.115 300.753 317.522 301.753 317.81 301.836C317.465 302.415 317.123 302.996 316.772 303.573C315.628 305.462 314.473 307.349 313.392 309.247C313.017 309.905 312.671 310.566 312.322 311.228C312.311 310.453 312.263 309.044 312.245 308.923C311.961 306.991 310.275 303.426 308.119 303.066C306.565 302.806 305.275 304.041 305.177 305.55C305.078 307.091 306.219 308.611 307.323 309.564C308.433 310.521 311.28 311.423 312.085 311.666C311.513 312.77 310.97 313.879 310.487 314.996C310.289 315.482 310.056 315.965 309.892 316.442C309.718 316.92 309.544 317.393 309.372 317.861C309.052 318.842 308.751 319.752 308.476 320.672C308.334 321.136 308.21 321.577 308.078 322.031C308.184 321.244 308.331 319.994 308.331 319.88C308.343 317.927 307.218 314.147 305.14 313.464C303.644 312.972 302.181 313.999 301.856 315.475C301.814 315.662 301.792 315.853 301.786 316.044C300.787 317.472 300.206 319.551 300.162 320.847C300.157 320.972 300.273 322.454 300.349 323.21C300.148 322.617 299.948 322.029 299.749 321.407C299.457 320.516 299.178 319.565 298.901 318.644C298.776 318.162 298.649 317.675 298.52 317.183C298.381 316.688 298.309 316.201 298.197 315.703C298.05 314.97 297.935 314.207 297.818 313.445C298.744 313.202 301.447 312.444 302.552 311.565C303.694 310.658 304.896 309.184 304.858 307.641C304.822 306.13 303.581 304.842 302.018 305.04C299.849 305.313 298.023 308.808 297.661 310.727C297.649 310.789 297.614 311.203 297.579 311.694C297.488 310.948 297.394 310.201 297.327 309.441C297.138 307.285 297.012 305.084 296.875 302.877C296.847 302.418 296.812 301.96 296.782 301.5C297.562 301.299 300.497 300.504 301.656 299.582C302.797 298.675 304 297.201 303.961 295.658C303.924 294.147 302.685 292.86 301.121 293.057C298.952 293.331 297.125 296.826 296.764 298.745C296.751 298.814 296.711 299.307 296.671 299.86C296.58 298.663 296.475 297.47 296.333 296.29C296.088 294.226 295.735 292.206 295.237 290.277C295.514 290.209 298.974 289.344 300.261 288.321C301.403 287.414 302.605 285.94 302.568 284.397C302.531 282.886 301.289 281.599 299.727 281.795C297.557 282.07 295.731 285.565 295.369 287.484C295.343 287.619 295.213 289.407 295.187 290.047C295.181 290.025 295.178 290 295.171 289.977C294.631 287.956 293.865 286.094 293.054 284.363C292.247 282.635 291.34 281.077 290.468 279.665C289.599 278.249 288.717 277.008 287.929 275.917C287.496 275.329 287.09 274.799 286.706 274.309C286.715 274.31 286.753 274.312 286.753 274.312C286.793 274.315 286.143 271.739 286.083 271.581C285.392 269.755 282.984 266.632 280.8 266.741C279.226 266.82 278.229 268.304 278.457 269.797C278.689 271.323 280.13 272.565 281.412 273.26C282.726 273.97 285.81 274.242 286.576 274.3C286.965 274.816 287.374 275.374 287.814 275.999C288.577 277.105 289.429 278.361 290.263 279.789C290.486 280.169 290.71 280.587 290.935 280.988C290.416 280.391 289.692 279.582 289.613 279.511C288.158 278.209 284.581 276.546 282.694 277.65C281.334 278.445 281.133 280.22 282.023 281.442C282.932 282.69 284.782 283.128 286.24 283.153C287.762 283.179 290.69 281.96 291.328 281.686C291.812 282.582 292.29 283.513 292.731 284.513C293.495 286.238 294.219 288.116 294.706 290.118C294.643 290.146 294.654 290.142 294.592 290.17C294.18 289.561 293.284 288.301 293.199 288.205C291.896 286.751 288.524 284.706 286.526 285.596C285.087 286.236 284.692 287.979 285.443 289.291C286.21 290.632 288.001 291.269 289.448 291.455C291.114 291.669 294.651 290.561 294.784 290.519C295.217 292.393 295.517 294.351 295.712 296.357C295.855 297.81 295.939 299.288 296.01 300.772C295.732 300.336 294.558 298.682 294.46 298.572C293.158 297.118 289.785 295.073 287.787 295.962C286.348 296.603 285.953 298.346 286.704 299.658C287.471 300.998 289.262 301.636 290.708 301.822C292.336 302.03 295.73 300.984 296.015 300.894C296.048 301.568 296.083 302.241 296.109 302.917C296.197 305.122 296.275 307.334 296.419 309.513C296.469 310.269 296.546 311.011 296.62 311.755C296.184 311.115 295.366 309.966 295.284 309.875C293.981 308.421 290.61 306.377 288.611 307.266C287.173 307.907 286.777 309.649 287.527 310.962C288.295 312.301 290.086 312.939 291.533 313.125Z" fill="#1C1B1F"/>
</g>
<path d="M309.622 194.511H40.416V26.9629H309.622V194.511Z" fill="white" stroke="#1C1B1F" stroke-width="0.7" stroke-miterlimit="10" stroke-linecap="round" stroke-linejoin="round"/>
<path d="M309.246 39.7641H302.469V175.309H309.246" stroke="#1C1B1F" stroke-width="0.7" stroke-miterlimit="10" stroke-linecap="round" stroke-linejoin="round"/>
<path d="M302.363 147.616H309.642" stroke="#1C1B1F" stroke-width="0.7" stroke-miterlimit="10" stroke-linecap="round" stroke-linejoin="round"/>
<path d="M302.644 70.6768H309.398" stroke="#1C1B1F" stroke-width="0.7" stroke-miterlimit="10" stroke-linecap="round" stroke-linejoin="round"/>
<path d="M304.421 44.7288V66.7676" stroke="#1C1B1F" stroke-width="0.7" stroke-miterlimit="10" stroke-linecap="round" stroke-linejoin="round"/>
<path d="M305.843 44.7288V66.7676" stroke="#1C1B1F" stroke-width="0.7" stroke-miterlimit="10" stroke-linecap="round" stroke-linejoin="round"/>
<path d="M307.265 44.7288V66.7676" stroke="#1C1B1F" stroke-width="0.7" stroke-miterlimit="10" stroke-linecap="round" stroke-linejoin="round"/>
<path d="M171.438 124.141L266.83 124.318L266.86 85.0526L171.468 84.8748L171.438 124.141Z" fill="white"/>
<path d="M171.438 124.141L266.83 124.318L266.86 85.0526L171.468 84.8748L171.438 124.141Z" stroke="#1C1B1F" stroke-width="0.35" stroke-miterlimit="10" stroke-linecap="round" stroke-linejoin="round"/>
<path d="M171.464 88.6344L266.856 88.8115L266.859 85.0525L171.467 84.8747L171.464 88.6344Z" fill="white"/>
<path d="M171.464 88.6344L266.856 88.8115L266.859 85.0525L171.467 84.8747L171.464 88.6344Z" stroke="#1C1B1F" stroke-width="0.35" stroke-miterlimit="10" stroke-linecap="round" stroke-linejoin="round"/>
<path d="M270.974 81.7178L171.88 81.533L171.899 56.8874L255.779 57.0435L270.974 81.7178Z" fill="white"/>
<path d="M270.974 81.7178L171.88 81.533L171.899 56.8874L255.779 57.0435L270.974 81.7178Z" stroke="#1C1B1F" stroke-width="0.35" stroke-miterlimit="10" stroke-linecap="round" stroke-linejoin="round"/>
<path d="M171.055 86.1273L270.971 86.3135L270.975 81.7187L171.059 81.5325L171.055 86.1273Z" fill="white"/>
<path d="M171.055 86.1273L270.971 86.3135L270.975 81.7187L171.059 81.5325L171.055 86.1273Z" stroke="#1C1B1F" stroke-width="0.35" stroke-miterlimit="10" stroke-linecap="round" stroke-linejoin="round"/>
<path d="M188.415 71.9743L121.561 71.8497L121.535 104.704L188.389 104.828L188.415 71.9743Z" fill="white"/>
<path d="M188.415 71.9743L121.561 71.8497L121.535 104.704L188.389 104.828L188.415 71.9743Z" stroke="#1C1B1F" stroke-width="0.35" stroke-miterlimit="10" stroke-linecap="round" stroke-linejoin="round"/>
<path d="M188.415 71.9745L121.561 71.8499L121.559 75.1742L188.412 75.2988L188.415 71.9745Z" fill="white"/>
<path d="M188.415 71.9745L121.561 71.8499L121.559 75.1742L188.412 75.2988L188.415 71.9745Z" stroke="#1C1B1F" stroke-width="0.35" stroke-miterlimit="10" stroke-linecap="round" stroke-linejoin="round"/>
<path d="M154.235 38.426L117.833 66.1572L190.595 66.293L154.235 38.426Z" fill="white"/>
<path d="M154.235 38.426L117.833 66.1572L190.595 66.293L154.235 38.426Z" stroke="#1C1B1F" stroke-width="0.35" stroke-miterlimit="10" stroke-linecap="round" stroke-linejoin="round"/>
<path d="M154.232 42.2159L125.276 64.275L183.154 64.3828L154.232 42.2159Z" fill="white"/>
<path d="M154.232 42.2159L125.276 64.275L183.154 64.3828L154.232 42.2159Z" stroke="#1C1B1F" stroke-width="0.35" stroke-miterlimit="10" stroke-linecap="round" stroke-linejoin="round"/>
<path d="M72.666 169.249L68.3127 169.241L68.3519 117.872L72.7052 117.88L72.666 169.249Z" fill="white"/>
<path d="M72.666 169.249L68.3127 169.241L68.3519 117.872L72.7052 117.88L72.666 169.249Z" stroke="#1C1B1F" stroke-width="0.35" stroke-miterlimit="10" stroke-linecap="round" stroke-linejoin="round"/>
<path d="M280.379 169.484L78.8853 169.109L78.9245 117.892L280.419 118.267L280.379 169.484Z" fill="white"/>
<path d="M280.379 169.484L78.8853 169.109L78.9245 117.892L280.419 118.267L280.379 169.484Z" stroke="#1C1B1F" stroke-width="0.35" stroke-miterlimit="10" stroke-linecap="round" stroke-linejoin="round"/>
<path d="M280.415 123.926L78.9209 123.551L78.9251 117.892L280.419 118.267L280.415 123.926Z" fill="white"/>
<path d="M280.415 123.926L78.9209 123.551L78.9251 117.892L280.419 118.267L280.415 123.926Z" stroke="#1C1B1F" stroke-width="0.35" stroke-miterlimit="10" stroke-linecap="round" stroke-linejoin="round"/>
<path d="M199.263 116.536L62.7571 116.282L74.2735 101.14L199.275 101.373L199.263 116.536Z" fill="white"/>
<path d="M199.263 116.536L62.7571 116.282L74.2735 101.14L199.275 101.373L199.263 116.536Z" stroke="#1C1B1F" stroke-width="0.35" stroke-miterlimit="10" stroke-linecap="round" stroke-linejoin="round"/>
<path d="M173.762 119.647L62.7539 119.441L62.756 116.282L173.764 116.488L173.762 119.647Z" fill="white"/>
<path d="M173.762 119.647L62.7539 119.441L62.756 116.282L173.764 116.488L173.762 119.647Z" stroke="#1C1B1F" stroke-width="0.35" stroke-miterlimit="10" stroke-linecap="round" stroke-linejoin="round"/>
<path d="M280.421 116.688L167.858 116.478L167.818 169.275L280.38 169.484L280.421 116.688Z" fill="white"/>
<path d="M280.421 116.688L167.858 116.478L167.818 169.275L280.38 169.484L280.421 116.688Z" stroke="#1C1B1F" stroke-width="0.35" stroke-miterlimit="10" stroke-linecap="round" stroke-linejoin="round"/>
<path d="M277.524 119.743L170.748 119.544L170.71 169.28L277.486 169.479L277.524 119.743Z" fill="white"/>
<path d="M277.524 119.743L170.748 119.544L170.71 169.28L277.486 169.479L277.524 119.743Z" stroke="#1C1B1F" stroke-width="0.35" stroke-miterlimit="10" stroke-linecap="round" stroke-linejoin="round"/>
<path d="M268.596 126.774L179.666 126.609L179.633 169.297L268.564 169.462L268.596 126.774Z" fill="white"/>
<path d="M268.596 126.774L179.666 126.609L179.633 169.297L268.564 169.462L268.596 126.774Z" stroke="#1C1B1F" stroke-width="0.35" stroke-miterlimit="10" stroke-linecap="round" stroke-linejoin="round"/>
<path d="M202.052 148.086L181.968 148.048L181.974 140.004L202.058 140.042L202.052 148.086Z" fill="white"/>
<path d="M202.052 148.086L181.968 148.048L181.974 140.004L202.058 140.042L202.052 148.086Z" stroke="#1C1B1F" stroke-width="0.35" stroke-miterlimit="10" stroke-linecap="round" stroke-linejoin="round"/>
<path d="M223.49 148.125L203.406 148.088L203.412 140.044L223.496 140.081L223.49 148.125Z" fill="white"/>
<path d="M223.49 148.125L203.406 148.088L203.412 140.044L223.496 140.081L223.49 148.125Z" stroke="#1C1B1F" stroke-width="0.35" stroke-miterlimit="10" stroke-linecap="round" stroke-linejoin="round"/>
<path d="M202.044 157.699L181.96 157.662L181.966 149.618L202.05 149.655L202.044 157.699Z" fill="white"/>
<path d="M202.044 157.699L181.96 157.662L181.966 149.618L202.05 149.655L202.044 157.699Z" stroke="#1C1B1F" stroke-width="0.35" stroke-miterlimit="10" stroke-linecap="round" stroke-linejoin="round"/>
<path d="M223.482 157.739L203.399 157.701L203.404 149.658L223.489 149.695L223.482 157.739Z" fill="white"/>
<path d="M223.482 157.739L203.399 157.701L203.404 149.658L223.489 149.695L223.482 157.739Z" stroke="#1C1B1F" stroke-width="0.35" stroke-miterlimit="10" stroke-linecap="round" stroke-linejoin="round"/>
<path d="M202.038 167.313L181.954 167.276L181.96 159.232L202.044 159.269L202.038 167.313Z" fill="white"/>
<path d="M202.038 167.313L181.954 167.276L181.96 159.232L202.044 159.269L202.038 167.313Z" stroke="#1C1B1F" stroke-width="0.35" stroke-miterlimit="10" stroke-linecap="round" stroke-linejoin="round"/>
<path d="M223.475 167.354L203.391 167.316L203.396 159.272L223.481 159.309L223.475 167.354Z" fill="white"/>
<path d="M223.475 167.354L203.391 167.316L203.396 159.272L223.481 159.309L223.475 167.354Z" stroke="#1C1B1F" stroke-width="0.35" stroke-miterlimit="10" stroke-linecap="round" stroke-linejoin="round"/>
<path d="M244.927 148.165L224.843 148.128L224.85 140.084L244.933 140.121L244.927 148.165Z" fill="white"/>
<path d="M244.927 148.165L224.843 148.128L224.85 140.084L244.933 140.121L244.927 148.165Z" stroke="#1C1B1F" stroke-width="0.35" stroke-miterlimit="10" stroke-linecap="round" stroke-linejoin="round"/>
<path d="M266.365 148.205L246.282 148.167L246.287 140.124L266.372 140.161L266.365 148.205Z" fill="white"/>
<path d="M266.365 148.205L246.282 148.167L246.287 140.124L266.372 140.161L266.365 148.205Z" stroke="#1C1B1F" stroke-width="0.35" stroke-miterlimit="10" stroke-linecap="round" stroke-linejoin="round"/>
<path d="M244.919 157.779L224.835 157.741L224.841 149.698L244.925 149.735L244.919 157.779Z" fill="white"/>
<path d="M244.919 157.779L224.835 157.741L224.841 149.698L244.925 149.735L244.919 157.779Z" stroke="#1C1B1F" stroke-width="0.35" stroke-miterlimit="10" stroke-linecap="round" stroke-linejoin="round"/>
<path d="M266.358 157.819L246.274 157.782L246.28 149.738L266.364 149.775L266.358 157.819Z" fill="white"/>
<path d="M266.358 157.819L246.274 157.782L246.28 149.738L266.364 149.775L266.358 157.819Z" stroke="#1C1B1F" stroke-width="0.35" stroke-miterlimit="10" stroke-linecap="round" stroke-linejoin="round"/>
<path d="M244.913 167.394L224.829 167.356L224.835 159.312L244.919 159.349L244.913 167.394Z" fill="white"/>
<path d="M244.913 167.394L224.829 167.356L224.835 159.312L244.919 159.349L244.913 167.394Z" stroke="#1C1B1F" stroke-width="0.35" stroke-miterlimit="10" stroke-linecap="round" stroke-linejoin="round"/>
<path d="M266.352 167.433L246.268 167.396L246.273 159.351L266.358 159.388L266.352 167.433Z" fill="white"/>
<path d="M266.352 167.433L246.268 167.396L246.273 159.351L266.358 159.388L266.352 167.433Z" stroke="#1C1B1F" stroke-width="0.35" stroke-miterlimit="10" stroke-linecap="round" stroke-linejoin="round"/>
<path d="M222.933 65.6966L163.503 117.102L282.285 117.322L222.933 65.6966Z" fill="white"/>
<path d="M222.933 65.6966L163.503 117.102L282.285 117.322L222.933 65.6966Z" stroke="#1C1B1F" stroke-width="0.35" stroke-miterlimit="10" stroke-linecap="round" stroke-linejoin="round"/>
<path d="M222.929 72.7209L175.654 113.611L270.139 113.787L222.929 72.7209Z" fill="white"/>
<path d="M222.929 72.7209L175.654 113.611L270.139 113.787L222.929 72.7209Z" stroke="#1C1B1F" stroke-width="0.35" stroke-miterlimit="10" stroke-linecap="round" stroke-linejoin="round"/>
<path d="M191.523 72.2959L117.828 72.1587L117.833 66.1569L191.528 66.2941L191.523 72.2959Z" fill="white"/>
<path d="M191.523 72.2959L117.828 72.1587L117.833 66.1569L191.528 66.2941L191.523 72.2959Z" stroke="#1C1B1F" stroke-width="0.35" stroke-miterlimit="10" stroke-linecap="round" stroke-linejoin="round"/>
<path d="M176.577 99.4355L133.044 99.3543L133.064 73.7665L176.596 73.8477L176.577 99.4355Z" fill="white"/>
<path d="M176.577 99.4355L133.044 99.3543L133.064 73.7665L176.596 73.8477L176.577 99.4355Z" stroke="#1C1B1F" stroke-width="0.35" stroke-miterlimit="10" stroke-linecap="round" stroke-linejoin="round"/>
<path d="M170.358 99.4238L139.264 99.3657L139.283 73.7779L170.378 73.836L170.358 99.4238Z" fill="white"/>
<path d="M170.358 99.4238L139.264 99.3657L139.283 73.7779L170.378 73.836L170.358 99.4238Z" stroke="#1C1B1F" stroke-width="0.35" stroke-miterlimit="10" stroke-linecap="round" stroke-linejoin="round"/>
<path d="M156.054 99.3975L153.566 99.3933L153.586 73.8048L156.074 73.8097L156.054 99.3975Z" fill="white"/>
<path d="M156.054 99.3975L153.566 99.3933L153.586 73.8048L156.074 73.8097L156.054 99.3975Z" stroke="#1C1B1F" stroke-width="0.35" stroke-miterlimit="10" stroke-linecap="round" stroke-linejoin="round"/>
<path d="M139.427 87.678L139.428 85.4667L170.209 85.5241L170.208 87.7354L139.427 87.678Z" fill="white"/>
<path d="M139.427 87.678L139.428 85.4667L170.209 85.5241L170.208 87.7354L139.427 87.678Z" stroke="#1C1B1F" stroke-width="0.35" stroke-miterlimit="10" stroke-linecap="round" stroke-linejoin="round"/>
<path d="M131.753 160.952L88.2209 160.871L88.2447 129.281L131.778 129.363L131.753 160.952Z" fill="white"/>
<path d="M131.753 160.952L88.2209 160.871L88.2447 129.281L131.778 129.363L131.753 160.952Z" stroke="#1C1B1F" stroke-width="0.35" stroke-miterlimit="10" stroke-linecap="round" stroke-linejoin="round"/>
<path d="M125.535 160.94L94.4399 160.882L94.4644 129.293L125.559 129.35L125.535 160.94Z" fill="white"/>
<path d="M125.535 160.94L94.4399 160.882L94.4644 129.293L125.559 129.35L125.535 160.94Z" stroke="#1C1B1F" stroke-width="0.35" stroke-miterlimit="10" stroke-linecap="round" stroke-linejoin="round"/>
<path d="M111.23 160.914L108.743 160.909L108.767 129.32L111.255 129.324L111.23 160.914Z" fill="white"/>
<path d="M111.23 160.914L108.743 160.909L108.767 129.32L111.255 129.324L111.23 160.914Z" stroke="#1C1B1F" stroke-width="0.35" stroke-miterlimit="10" stroke-linecap="round" stroke-linejoin="round"/>
<path d="M94.6062 146.453L94.6083 143.723L125.492 143.781L125.489 146.511L94.6062 146.453Z" fill="white"/>
<path d="M94.6062 146.453L94.6083 143.723L125.492 143.781L125.489 146.511L94.6062 146.453Z" stroke="#1C1B1F" stroke-width="0.35" stroke-miterlimit="10" stroke-linecap="round" stroke-linejoin="round"/>
<path d="M162.562 130.052L145.77 130.021L145.741 168.876L162.532 168.907L162.562 130.052Z" fill="white"/>
<path d="M162.562 130.052L145.77 130.021L145.741 168.876L162.532 168.907L162.562 130.052Z" stroke="#1C1B1F" stroke-width="0.35" stroke-miterlimit="10" stroke-linecap="round" stroke-linejoin="round"/>
<path d="M159.76 132.473L148.566 132.452L148.543 162.563L159.737 162.583L159.76 132.473Z" fill="white"/>
<path d="M159.76 132.473L148.566 132.452L148.543 162.563L159.737 162.583L159.76 132.473Z" stroke="#1C1B1F" stroke-width="0.35" stroke-miterlimit="10" stroke-linecap="round" stroke-linejoin="round"/>
<path d="M184.681 132.716L184.683 131.041L181.753 131.035L181.752 132.71L184.681 132.716Z" fill="white"/>
<path d="M184.681 132.716L184.683 131.041L181.753 131.035L181.752 132.71L184.681 132.716Z" stroke="#1C1B1F" stroke-width="0.35" stroke-miterlimit="10" stroke-linecap="round" stroke-linejoin="round"/>
<path d="M185.975 132.718L188.904 132.724L188.906 131.049L185.976 131.043L185.975 132.718Z" fill="white"/>
<path d="M185.975 132.718L188.904 132.724L188.906 131.049L185.976 131.043L185.975 132.718Z" stroke="#1C1B1F" stroke-width="0.35" stroke-miterlimit="10" stroke-linecap="round" stroke-linejoin="round"/>
<path d="M184.68 133.636L181.75 133.631L181.749 135.733L184.679 135.738L184.68 133.636Z" fill="white"/>
<path d="M184.68 133.636L181.75 133.631L181.749 135.733L184.679 135.738L184.68 133.636Z" stroke="#1C1B1F" stroke-width="0.35" stroke-miterlimit="10" stroke-linecap="round" stroke-linejoin="round"/>
<path d="M185.974 133.638L185.972 135.74L188.901 135.746L188.903 133.644L185.974 133.638Z" fill="white"/>
<path d="M185.974 133.638L185.972 135.74L188.901 135.746L188.903 133.644L185.974 133.638Z" stroke="#1C1B1F" stroke-width="0.35" stroke-miterlimit="10" stroke-linecap="round" stroke-linejoin="round"/>
<path d="M195.712 132.736L195.714 131.061L192.784 131.056L192.783 132.731L195.712 132.736Z" fill="white"/>
<path d="M195.712 132.736L195.714 131.061L192.784 131.056L192.783 132.731L195.712 132.736Z" stroke="#1C1B1F" stroke-width="0.35" stroke-miterlimit="10" stroke-linecap="round" stroke-linejoin="round"/>
<path d="M197.005 132.739L199.935 132.744L199.936 131.069L197.007 131.063L197.005 132.739Z" fill="white"/>
<path d="M197.005 132.739L199.935 132.744L199.936 131.069L197.007 131.063L197.005 132.739Z" stroke="#1C1B1F" stroke-width="0.35" stroke-miterlimit="10" stroke-linecap="round" stroke-linejoin="round"/>
<path d="M195.712 133.657L192.783 133.651L192.781 135.754L195.711 135.759L195.712 133.657Z" fill="white"/>
<path d="M195.712 133.657L192.783 133.651L192.781 135.754L195.711 135.759L195.712 133.657Z" stroke="#1C1B1F" stroke-width="0.35" stroke-miterlimit="10" stroke-linecap="round" stroke-linejoin="round"/>
<path d="M197.005 133.659L197.004 135.761L199.934 135.767L199.935 133.665L197.005 133.659Z" fill="white"/>
<path d="M197.005 133.659L197.004 135.761L199.934 135.767L199.935 133.665L197.005 133.659Z" stroke="#1C1B1F" stroke-width="0.35" stroke-miterlimit="10" stroke-linecap="round" stroke-linejoin="round"/>
<path d="M206.744 132.757L206.746 131.082L203.816 131.076L203.815 132.751L206.744 132.757Z" fill="white"/>
<path d="M206.744 132.757L206.746 131.082L203.816 131.076L203.815 132.751L206.744 132.757Z" stroke="#1C1B1F" stroke-width="0.35" stroke-miterlimit="10" stroke-linecap="round" stroke-linejoin="round"/>
<path d="M208.038 132.759L210.967 132.765L210.969 131.09L208.039 131.084L208.038 132.759Z" fill="white"/>
<path d="M208.038 132.759L210.967 132.765L210.969 131.09L208.039 131.084L208.038 132.759Z" stroke="#1C1B1F" stroke-width="0.35" stroke-miterlimit="10" stroke-linecap="round" stroke-linejoin="round"/>
<path d="M206.744 133.677L203.815 133.672L203.813 135.774L206.743 135.779L206.744 133.677Z" fill="white"/>
<path d="M206.744 133.677L203.815 133.672L203.813 135.774L206.743 135.779L206.744 133.677Z" stroke="#1C1B1F" stroke-width="0.35" stroke-miterlimit="10" stroke-linecap="round" stroke-linejoin="round"/>
<path d="M208.038 133.679L208.036 135.782L210.966 135.787L210.967 133.685L208.038 133.679Z" fill="white"/>
<path d="M208.038 133.679L208.036 135.782L210.966 135.787L210.967 133.685L208.038 133.679Z" stroke="#1C1B1F" stroke-width="0.35" stroke-miterlimit="10" stroke-linecap="round" stroke-linejoin="round"/>
<path d="M217.775 132.777L217.777 131.102L214.847 131.097L214.846 132.772L217.775 132.777Z" fill="white"/>
<path d="M217.775 132.777L217.777 131.102L214.847 131.097L214.846 132.772L217.775 132.777Z" stroke="#1C1B1F" stroke-width="0.35" stroke-miterlimit="10" stroke-linecap="round" stroke-linejoin="round"/>
<path d="M219.07 132.78L222 132.785L222.001 131.11L219.071 131.104L219.07 132.78Z" fill="white"/>
<path d="M219.07 132.78L222 132.785L222.001 131.11L219.071 131.104L219.07 132.78Z" stroke="#1C1B1F" stroke-width="0.35" stroke-miterlimit="10" stroke-linecap="round" stroke-linejoin="round"/>
<path d="M217.775 133.698L214.846 133.692L214.844 135.795L217.773 135.8L217.775 133.698Z" fill="white"/>
<path d="M217.775 133.698L214.846 133.692L214.844 135.795L217.773 135.8L217.775 133.698Z" stroke="#1C1B1F" stroke-width="0.35" stroke-miterlimit="10" stroke-linecap="round" stroke-linejoin="round"/>
<path d="M219.069 133.7L219.067 135.802L221.997 135.808L221.999 133.706L219.069 133.7Z" fill="white"/>
<path d="M219.069 133.7L219.067 135.802L221.997 135.808L221.999 133.706L219.069 133.7Z" stroke="#1C1B1F" stroke-width="0.35" stroke-miterlimit="10" stroke-linecap="round" stroke-linejoin="round"/>
<path d="M228.807 132.798L228.809 131.122L225.879 131.117L225.878 132.792L228.807 132.798Z" fill="white"/>
<path d="M228.807 132.798L228.809 131.122L225.879 131.117L225.878 132.792L228.807 132.798Z" stroke="#1C1B1F" stroke-width="0.35" stroke-miterlimit="10" stroke-linecap="round" stroke-linejoin="round"/>
<path d="M230.101 132.801L233.03 132.806L233.032 131.131L230.102 131.125L230.101 132.801Z" fill="white"/>
<path d="M230.101 132.801L233.03 132.806L233.032 131.131L230.102 131.125L230.101 132.801Z" stroke="#1C1B1F" stroke-width="0.35" stroke-miterlimit="10" stroke-linecap="round" stroke-linejoin="round"/>
<path d="M228.806 133.718L225.876 133.713L225.875 135.815L228.804 135.82L228.806 133.718Z" fill="white"/>
<path d="M228.806 133.718L225.876 133.713L225.875 135.815L228.804 135.82L228.806 133.718Z" stroke="#1C1B1F" stroke-width="0.35" stroke-miterlimit="10" stroke-linecap="round" stroke-linejoin="round"/>
<path d="M230.099 133.72L230.098 135.823L233.027 135.828L233.029 133.726L230.099 133.72Z" fill="white"/>
<path d="M230.099 133.72L230.098 135.823L233.027 135.828L233.029 133.726L230.099 133.72Z" stroke="#1C1B1F" stroke-width="0.35" stroke-miterlimit="10" stroke-linecap="round" stroke-linejoin="round"/>
<path d="M239.838 132.818L239.84 131.143L236.91 131.138L236.909 132.813L239.838 132.818Z" fill="white"/>
<path d="M239.838 132.818L239.84 131.143L236.91 131.138L236.909 132.813L239.838 132.818Z" stroke="#1C1B1F" stroke-width="0.35" stroke-miterlimit="10" stroke-linecap="round" stroke-linejoin="round"/>
<path d="M241.131 132.821L244.061 132.826L244.062 131.15L241.133 131.145L241.131 132.821Z" fill="white"/>
<path d="M241.131 132.821L244.061 132.826L244.062 131.15L241.133 131.145L241.131 132.821Z" stroke="#1C1B1F" stroke-width="0.35" stroke-miterlimit="10" stroke-linecap="round" stroke-linejoin="round"/>
<path d="M239.838 133.739L236.909 133.733L236.907 135.836L239.836 135.841L239.838 133.739Z" fill="white"/>
<path d="M239.838 133.739L236.909 133.733L236.907 135.836L239.836 135.841L239.838 133.739Z" stroke="#1C1B1F" stroke-width="0.35" stroke-miterlimit="10" stroke-linecap="round" stroke-linejoin="round"/>
<path d="M241.132 133.741L241.13 135.843L244.06 135.849L244.061 133.747L241.132 133.741Z" fill="white"/>
<path d="M241.132 133.741L241.13 135.843L244.06 135.849L244.061 133.747L241.132 133.741Z" stroke="#1C1B1F" stroke-width="0.35" stroke-miterlimit="10" stroke-linecap="round" stroke-linejoin="round"/>
<path d="M250.87 132.839L250.872 131.163L247.942 131.158L247.941 132.833L250.87 132.839Z" fill="white"/>
<path d="M250.87 132.839L250.872 131.163L247.942 131.158L247.941 132.833L250.87 132.839Z" stroke="#1C1B1F" stroke-width="0.35" stroke-miterlimit="10" stroke-linecap="round" stroke-linejoin="round"/>
<path d="M252.164 132.841L255.093 132.847L255.095 131.171L252.165 131.165L252.164 132.841Z" fill="white"/>
<path d="M252.164 132.841L255.093 132.847L255.095 131.171L252.165 131.165L252.164 132.841Z" stroke="#1C1B1F" stroke-width="0.35" stroke-miterlimit="10" stroke-linecap="round" stroke-linejoin="round"/>
<path d="M250.869 133.759L247.939 133.754L247.938 135.856L250.867 135.861L250.869 133.759Z" fill="white"/>
<path d="M250.869 133.759L247.939 133.754L247.938 135.856L250.867 135.861L250.869 133.759Z" stroke="#1C1B1F" stroke-width="0.35" stroke-miterlimit="10" stroke-linecap="round" stroke-linejoin="round"/>
<path d="M252.162 133.761L252.161 135.864L255.09 135.869L255.092 133.767L252.162 133.761Z" fill="white"/>
<path d="M252.162 133.761L252.161 135.864L255.09 135.869L255.092 133.767L252.162 133.761Z" stroke="#1C1B1F" stroke-width="0.35" stroke-miterlimit="10" stroke-linecap="round" stroke-linejoin="round"/>
<path d="M261.901 132.859L261.903 131.184L258.973 131.179L258.972 132.854L261.901 132.859Z" fill="white"/>
<path d="M261.901 132.859L261.903 131.184L258.973 131.179L258.972 132.854L261.901 132.859Z" stroke="#1C1B1F" stroke-width="0.35" stroke-miterlimit="10" stroke-linecap="round" stroke-linejoin="round"/>
<path d="M263.194 132.862L266.124 132.867L266.125 131.191L263.196 131.186L263.194 132.862Z" fill="white"/>
<path d="M263.194 132.862L266.124 132.867L266.125 131.191L263.196 131.186L263.194 132.862Z" stroke="#1C1B1F" stroke-width="0.35" stroke-miterlimit="10" stroke-linecap="round" stroke-linejoin="round"/>
<path d="M261.901 133.78L258.971 133.774L258.97 135.877L261.9 135.882L261.901 133.78Z" fill="white"/>
<path d="M261.901 133.78L258.971 133.774L258.97 135.877L261.9 135.882L261.901 133.78Z" stroke="#1C1B1F" stroke-width="0.35" stroke-miterlimit="10" stroke-linecap="round" stroke-linejoin="round"/>
<path d="M263.194 133.782L263.193 135.884L266.122 135.89L266.124 133.788L263.194 133.782Z" fill="white"/>
<path d="M263.194 133.782L263.193 135.884L266.122 135.89L266.124 133.788L263.194 133.782Z" stroke="#1C1B1F" stroke-width="0.35" stroke-miterlimit="10" stroke-linecap="round" stroke-linejoin="round"/>
<path d="M149.062 38.6211H89.3705" stroke="#1C1B1F" stroke-width="0.35" stroke-miterlimit="10" stroke-linecap="round" stroke-linejoin="round"/>
<path d="M114.026 72.6846H53.6854" stroke="#1C1B1F" stroke-width="0.35" stroke-miterlimit="10" stroke-linecap="round" stroke-linejoin="round"/>
<path d="M93.2639 35.0528V75.6045" stroke="#1C1B1F" stroke-width="0.35" stroke-miterlimit="10" stroke-linecap="round" stroke-linejoin="round"/>
<path d="M255.47 54.8418V38.2966" stroke="#1C1B1F" stroke-width="0.35" stroke-miterlimit="10" stroke-linecap="round" stroke-linejoin="round"/>
<path d="M160.416 39.2705H260.011" stroke="#1C1B1F" stroke-width="0.35" stroke-miterlimit="10" stroke-linecap="round" stroke-linejoin="round"/>
<path d="M273.638 86.3096H284.992" stroke="#1C1B1F" stroke-width="0.35" stroke-miterlimit="10" stroke-linecap="round" stroke-linejoin="round"/>
<path d="M259.687 57.4375H284.99" stroke="#1C1B1F" stroke-width="0.35" stroke-miterlimit="10" stroke-linecap="round" stroke-linejoin="round"/>
<path d="M281.423 54.8423V94.7451" stroke="#1C1B1F" stroke-width="0.35" stroke-miterlimit="10" stroke-linecap="round" stroke-linejoin="round"/>
<path d="M285.315 116.805H292.776" stroke="#1C1B1F" stroke-width="0.35" stroke-miterlimit="10" stroke-linecap="round" stroke-linejoin="round"/>
<path d="M290.83 114.534V170.333" stroke="#1C1B1F" stroke-width="0.35" stroke-miterlimit="10" stroke-linecap="round" stroke-linejoin="round"/>
<path d="M284.667 170.009H297.644" stroke="#1C1B1F" stroke-width="0.35" stroke-miterlimit="10" stroke-linecap="round" stroke-linejoin="round"/>
<path d="M69.9058 101.233H53.6854" stroke="#1C1B1F" stroke-width="0.35" stroke-miterlimit="10" stroke-linecap="round" stroke-linejoin="round"/>
<path d="M59.8496 120.049H53.6854" stroke="#1C1B1F" stroke-width="0.35" stroke-miterlimit="10" stroke-linecap="round" stroke-linejoin="round"/>
<path d="M56.6047 70.4136V127.51" stroke="#1C1B1F" stroke-width="0.35" stroke-miterlimit="10" stroke-linecap="round" stroke-linejoin="round"/>
<path d="M65.3648 169.684H55.9568" stroke="#1C1B1F" stroke-width="0.35" stroke-miterlimit="10" stroke-linecap="round" stroke-linejoin="round"/>
<mask id="mask3_519_41946" style="mask-type:luminance" maskUnits="userSpaceOnUse" x="0" y="0" width="350" height="350">
<path d="M0 0H350V350H0V0Z" fill="white"/>
</mask>
<g mask="url(#mask3_519_41946)">
<path d="M308.035 229.753C308.409 228.037 306.779 228.264 305.791 228.844C304.851 229.397 303.36 229.478 302.288 229.578C301.274 229.673 300.245 229.514 299.255 229.834C297.928 230.263 294.337 231.872 293.421 232.131C290.659 232.911 277.539 226.651 273.391 223.902C269.244 221.152 259.316 219.744 259.316 219.744C259.316 219.744 257.258 214.692 255.184 203.802C253.109 192.911 245.799 182.049 245.799 182.049C244.019 180.346 243.429 184.615 243.429 184.615L246.142 219.271C246.142 219.271 245.832 230.506 247.117 231.709L247.232 233.188C247.232 233.188 250.171 236.3 252.591 237.164C254.12 237.71 255.511 238.256 256.327 238.584C256.587 238.701 256.841 238.808 257.085 238.893C261.6 240.473 284.913 241.716 284.913 241.716C284.913 241.716 288.25 245.28 292.072 245.482C295.894 245.685 297.702 246.078 298.497 245.546C299.293 245.014 307.394 237.509 307.07 235.653C306.748 233.796 300.962 233.758 300.962 233.758L305.525 232.393C306.43 231.801 307.791 230.874 308.035 229.753Z" fill="white"/>
<path d="M308.035 229.753C308.409 228.037 306.779 228.264 305.791 228.844C304.851 229.397 303.36 229.478 302.288 229.578C301.274 229.673 300.245 229.514 299.255 229.834C297.928 230.263 294.337 231.872 293.421 232.131C290.659 232.911 277.539 226.651 273.391 223.902C269.244 221.152 259.316 219.744 259.316 219.744C259.316 219.744 257.258 214.692 255.184 203.802C253.109 192.911 245.799 182.049 245.799 182.049C244.019 180.346 243.429 184.615 243.429 184.615L246.142 219.271C246.142 219.271 245.832 230.506 247.117 231.709L247.232 233.188C247.232 233.188 250.171 236.3 252.591 237.164C254.12 237.71 255.511 238.256 256.327 238.584C256.587 238.701 256.841 238.808 257.085 238.893C261.6 240.473 284.913 241.716 284.913 241.716C284.913 241.716 288.25 245.28 292.072 245.482C295.894 245.685 297.702 246.078 298.497 245.546C299.293 245.014 307.394 237.509 307.07 235.653C306.748 233.796 300.962 233.758 300.962 233.758L305.525 232.393C306.43 231.801 307.791 230.874 308.035 229.753Z" stroke="#1C1B1F" stroke-width="0.7" stroke-miterlimit="10"/>
<path d="M307.071 235.652C306.749 233.796 300.963 233.757 300.963 233.757L305.527 232.393C306.431 231.801 307.792 230.874 308.036 229.753C308.41 228.036 306.78 228.264 305.793 228.844C304.852 229.397 303.361 229.478 302.289 229.578C301.275 229.673 300.246 229.514 299.256 229.833C297.929 230.262 294.338 231.872 293.422 232.131C292.662 232.346 291.114 232.025 289.186 231.393C283.328 234.18 282.293 239.186 282.149 241.555C283.852 241.659 284.914 241.716 284.914 241.716C284.914 241.716 288.251 245.279 292.073 245.482C295.895 245.685 297.703 246.079 298.499 245.546C299.294 245.013 307.395 237.509 307.071 235.652Z" fill="#599BFE"/>
<path d="M307.071 235.652C306.749 233.796 300.963 233.757 300.963 233.757L305.527 232.393C306.431 231.801 307.792 230.874 308.036 229.753C308.41 228.036 306.78 228.264 305.793 228.844C304.852 229.397 303.361 229.478 302.289 229.578C301.275 229.673 300.246 229.514 299.256 229.833C297.929 230.262 294.338 231.872 293.422 232.131C292.662 232.346 291.114 232.025 289.186 231.393C283.328 234.18 282.293 239.186 282.149 241.555C283.852 241.659 284.914 241.716 284.914 241.716C284.914 241.716 288.251 245.279 292.073 245.482C295.895 245.685 297.703 246.079 298.499 245.546C299.294 245.013 307.395 237.509 307.071 235.652Z" stroke="#1C1B1F" stroke-width="0.7" stroke-miterlimit="10" stroke-linecap="round" stroke-linejoin="round"/>
<path d="M302.234 236.087C302.234 236.087 304.522 238.444 305.458 238.523C306.396 238.603 307.51 236.572 307.07 235.652C306.63 234.731 304.061 233.801 302.88 233.886C301.699 233.97 300.968 234.991 302.234 236.087Z" fill="#599BFE"/>
<path d="M302.234 236.087C302.234 236.087 304.522 238.444 305.458 238.523C306.396 238.603 307.51 236.572 307.07 235.652C306.63 234.731 304.061 233.801 302.88 233.886C301.699 233.97 300.968 234.991 302.234 236.087Z" stroke="#1C1B1F" stroke-width="0.7" stroke-miterlimit="10" stroke-linecap="round" stroke-linejoin="round"/>
<path d="M302.235 236.087C302.235 236.087 300.571 236.661 300.434 237.66C300.297 238.659 303.739 241.389 304.344 241.388C304.947 241.386 306.336 239.85 306.242 239.409C306.148 238.969 304.507 237.02 302.235 236.087Z" fill="#599BFE"/>
<path d="M302.235 236.087C302.235 236.087 300.571 236.661 300.434 237.66C300.297 238.659 303.739 241.389 304.344 241.388C304.947 241.386 306.336 239.85 306.242 239.409C306.148 238.969 304.507 237.02 302.235 236.087Z" stroke="#1C1B1F" stroke-width="0.7" stroke-miterlimit="10" stroke-linecap="round" stroke-linejoin="round"/>
<path d="M300.879 239.377C300.879 239.377 298.299 238.386 298.745 240.102C299.19 241.819 301.007 243.927 301.564 244.158C302.122 244.388 303.537 243.642 303.232 242.738C302.928 241.833 301.601 240.304 300.879 239.377Z" fill="#599BFE"/>
<path d="M300.879 239.377C300.879 239.377 298.299 238.386 298.745 240.102C299.19 241.819 301.007 243.927 301.564 244.158C302.122 244.388 303.537 243.642 303.232 242.738C302.928 241.833 301.601 240.304 300.879 239.377Z" stroke="#1C1B1F" stroke-width="0.7" stroke-miterlimit="10" stroke-linecap="round" stroke-linejoin="round"/>
<path d="M299.072 241.494C299.072 241.494 296.981 240.478 297.008 242.173C297.036 243.868 298.642 245.814 299.316 246.067C299.991 246.321 300.87 245.529 300.682 244.647C300.494 243.765 299.072 241.494 299.072 241.494Z" fill="#599BFE"/>
<path d="M299.072 241.494C299.072 241.494 296.981 240.478 297.008 242.173C297.036 243.868 298.642 245.814 299.316 246.067C299.991 246.321 300.87 245.529 300.682 244.647C300.494 243.765 299.072 241.494 299.072 241.494Z" stroke="#1C1B1F" stroke-width="0.7" stroke-miterlimit="10" stroke-linecap="round" stroke-linejoin="round"/>
<path d="M209.611 328.222L212.142 311.317L214.312 328.222H247.273L248.588 284.65L171.697 283.761L173.012 328.222H209.611Z" fill="#1C1B1F"/>
<path d="M209.611 328.222L212.142 311.317L214.312 328.222H247.273L248.588 284.65L171.697 283.761L173.012 328.222H209.611Z" stroke="#1C1B1F" stroke-width="0.7" stroke-miterlimit="10"/>
<path d="M194.923 171.376L170.335 183.091C170.335 183.091 167.396 247.711 167.788 259.471C168.18 271.231 169.552 286.52 169.552 286.52C169.552 286.52 185.625 289.853 193.661 291.616C201.698 293.381 216.202 293.381 216.202 293.381L219.143 287.501L220.515 292.988L234.663 292.136C236.064 292.052 237.436 291.705 238.71 291.116L250.308 285.736C250.308 285.736 250.112 218.701 249.328 206.549C248.544 194.397 245.8 182.048 245.8 182.048L226.787 173.227C226.787 173.227 212.648 165.8 194.923 171.376Z" fill="#599BFE"/>
<path d="M194.923 171.376L170.335 183.091C170.335 183.091 167.396 247.711 167.788 259.471C168.18 271.231 169.552 286.52 169.552 286.52C169.552 286.52 185.625 289.853 193.661 291.616C201.698 293.381 216.202 293.381 216.202 293.381L219.143 287.501L220.515 292.988L234.663 292.136C236.064 292.052 237.436 291.705 238.71 291.116L250.308 285.736C250.308 285.736 250.112 218.701 249.328 206.549C248.544 194.397 245.8 182.048 245.8 182.048L226.787 173.227C226.787 173.227 212.648 165.8 194.923 171.376Z" stroke="#1C1B1F" stroke-width="0.7" stroke-miterlimit="10" stroke-linecap="round" stroke-linejoin="round"/>
<path d="M250.233 268.741C250.214 265.298 250.19 261.511 250.163 257.548C217.409 262.573 181.426 259.003 167.754 257.282C167.757 258.136 167.768 258.875 167.788 259.472C167.895 262.661 168.073 266.109 168.277 269.442C202.526 274.102 236.331 270.62 250.233 268.741Z" fill="white"/>
<path d="M250.233 268.741C250.214 265.298 250.19 261.511 250.163 257.548C217.409 262.573 181.426 259.003 167.754 257.282C167.757 258.136 167.768 258.875 167.788 259.472C167.895 262.661 168.073 266.109 168.277 269.442C202.526 274.102 236.331 270.62 250.233 268.741Z" stroke="#1C1B1F" stroke-width="0.7" stroke-miterlimit="10" stroke-linecap="round" stroke-linejoin="round"/>
<path d="M168.456 229.16C168.307 233.352 168.171 237.434 168.06 241.204C202.212 245.885 235.96 242.448 250.02 240.56C249.981 236.729 249.938 232.958 249.889 229.378C217.754 234.26 182.583 230.905 168.456 229.16Z" fill="white"/>
<path d="M168.456 229.16C168.307 233.352 168.171 237.434 168.06 241.204C202.212 245.885 235.96 242.448 250.02 240.56C249.981 236.729 249.938 232.958 249.889 229.378C217.754 234.26 182.583 230.905 168.456 229.16Z" stroke="#1C1B1F" stroke-width="0.7" stroke-miterlimit="10" stroke-linecap="round" stroke-linejoin="round"/>
<path d="M201.718 190.307L217.191 211.292L227.486 189.471L216.146 178.755L201.718 190.307Z" fill="white"/>
<path d="M201.718 190.307L217.191 211.292L227.486 189.471L216.146 178.755L201.718 190.307Z" stroke="#1C1B1F" stroke-width="0.7" stroke-miterlimit="10" stroke-linecap="round" stroke-linejoin="round"/>
<path d="M200.598 166.378C200.598 166.378 196.905 167.147 195.673 168.994C194.441 170.841 193.21 172.688 193.21 172.688C193.21 172.688 194.903 179.767 196.289 184.077C197.673 188.385 202.444 196.389 202.444 196.389L215.526 188.231C215.526 188.231 220.451 190.694 221.528 191.31C222.605 191.926 228.146 197.466 228.146 197.466C228.146 197.466 231.378 184.538 230.454 180.075C229.531 175.612 227.53 171.457 227.53 171.457C227.53 171.457 214.449 164.07 200.598 166.378Z" fill="white"/>
<path d="M200.598 166.378C200.598 166.378 196.905 167.147 195.673 168.994C194.441 170.841 193.21 172.688 193.21 172.688C193.21 172.688 194.903 179.767 196.289 184.077C197.673 188.385 202.444 196.389 202.444 196.389L215.526 188.231C215.526 188.231 220.451 190.694 221.528 191.31C222.605 191.926 228.146 197.466 228.146 197.466C228.146 197.466 231.378 184.538 230.454 180.075C229.531 175.612 227.53 171.457 227.53 171.457C227.53 171.457 214.449 164.07 200.598 166.378Z" stroke="#1C1B1F" stroke-width="0.7" stroke-miterlimit="10" stroke-linecap="round" stroke-linejoin="round"/>
<path d="M199.982 160.838C199.982 160.838 199.828 172.227 200.444 174.535C201.059 176.843 207.985 185.616 209.062 187.924C210.139 190.233 215.526 196.389 215.526 196.389C215.526 196.389 225.068 183.153 226.145 179.614C227.222 176.074 228.146 174.073 228.146 174.073C228.146 174.073 224.298 178.998 217.989 176.382C211.678 173.765 205.368 166.994 205.368 166.994C205.368 166.994 199.982 155.297 199.828 156.99C199.674 158.683 199.982 160.838 199.982 160.838Z" fill="white"/>
<path d="M199.982 160.838C199.982 160.838 199.828 172.227 200.444 174.535C201.059 176.843 207.985 185.616 209.062 187.924C210.139 190.233 215.526 196.389 215.526 196.389C215.526 196.389 225.068 183.153 226.145 179.614C227.222 176.074 228.146 174.073 228.146 174.073C228.146 174.073 224.298 178.998 217.989 176.382C211.678 173.765 205.368 166.994 205.368 166.994C205.368 166.994 199.982 155.297 199.828 156.99C199.674 158.683 199.982 160.838 199.982 160.838Z" stroke="#1C1B1F" stroke-width="0.7" stroke-miterlimit="10" stroke-linecap="round" stroke-linejoin="round"/>
<path d="M233.995 153.451C233.995 153.451 232.763 162.531 231.686 167.61C230.609 172.688 227.069 179.768 224.145 181.615C221.221 183.461 217.219 183.307 215.064 182.538C212.91 181.769 204.445 176.228 202.137 173.612C199.828 170.996 199.982 160.838 199.982 160.838C199.982 160.838 197.674 161.3 196.751 159.145C195.828 156.991 195.212 152.989 195.212 152.989C195.212 152.989 194.596 151.758 195.058 149.296C195.519 146.833 196.289 146.372 196.289 146.372C196.289 146.372 211.525 152.682 217.373 153.451C223.221 154.221 233.995 153.451 233.995 153.451Z" fill="white"/>
<path d="M233.995 153.451C233.995 153.451 232.763 162.531 231.686 167.61C230.609 172.688 227.069 179.768 224.145 181.615C221.221 183.461 217.219 183.307 215.064 182.538C212.91 181.769 204.445 176.228 202.137 173.612C199.828 170.996 199.982 160.838 199.982 160.838C199.982 160.838 197.674 161.3 196.751 159.145C195.828 156.991 195.212 152.989 195.212 152.989C195.212 152.989 194.596 151.758 195.058 149.296C195.519 146.833 196.289 146.372 196.289 146.372C196.289 146.372 211.525 152.682 217.373 153.451C223.221 154.221 233.995 153.451 233.995 153.451Z" stroke="#1C1B1F" stroke-width="0.7" stroke-miterlimit="10" stroke-linecap="round" stroke-linejoin="round"/>
<path d="M228.762 170.072C226.916 168.379 222.76 166.84 222.76 166.84C222.76 166.84 222.914 168.225 220.759 168.379C218.604 168.533 217.373 166.994 217.373 166.994C217.373 166.994 214.296 167.917 212.757 168.687C211.218 169.457 209.063 172.073 209.063 172.073C209.063 172.073 204.908 168.841 203.676 166.071C202.445 163.3 202.445 153.605 202.445 153.605C202.445 153.605 203.369 152.066 203.985 150.989C204.187 150.636 204.37 150.119 204.528 149.582C202.695 148.905 200.99 148.247 199.609 147.704L198.906 147.757L199.983 160.838C199.983 160.838 199.829 170.995 202.138 173.612C204.446 176.228 212.91 181.768 215.065 182.538C217.22 183.308 221.222 183.461 224.145 181.615C226.202 180.316 228.559 176.429 230.154 172.47C229.797 171.494 229.34 170.602 228.762 170.072Z" fill="#1C1B1F"/>
<path d="M228.762 170.072C226.916 168.379 222.76 166.84 222.76 166.84C222.76 166.84 222.914 168.225 220.759 168.379C218.604 168.533 217.373 166.994 217.373 166.994C217.373 166.994 214.296 167.917 212.757 168.687C211.218 169.457 209.063 172.073 209.063 172.073C209.063 172.073 204.908 168.841 203.676 166.071C202.445 163.3 202.445 153.605 202.445 153.605C202.445 153.605 203.369 152.066 203.985 150.989C204.187 150.636 204.37 150.119 204.528 149.582C202.695 148.905 200.99 148.247 199.609 147.704L198.906 147.757L199.983 160.838C199.983 160.838 199.829 170.995 202.138 173.612C204.446 176.228 212.91 181.768 215.065 182.538C217.22 183.308 221.222 183.461 224.145 181.615C226.202 180.316 228.559 176.429 230.154 172.47C229.797 171.494 229.34 170.602 228.762 170.072Z" stroke="#1C1B1F" stroke-width="0.7" stroke-miterlimit="10" stroke-linecap="round" stroke-linejoin="round"/>
<path d="M225.684 156.375L224.299 157.914L223.221 165.608" stroke="#1C1B1F" stroke-width="0.7" stroke-miterlimit="10" stroke-linecap="round" stroke-linejoin="round"/>
<path d="M209.525 155.452C209.525 155.452 212.141 154.375 214.603 154.837C217.065 155.298 218.912 156.067 218.912 156.067" stroke="#1C1B1F" stroke-width="0.7" stroke-miterlimit="10" stroke-linecap="round" stroke-linejoin="round"/>
<path d="M228.146 155.605C228.146 155.605 230.916 154.528 231.84 156.99" stroke="#1C1B1F" stroke-width="0.7" stroke-miterlimit="10" stroke-linecap="round" stroke-linejoin="round"/>
<path d="M215.22 159.53C215.22 160.507 214.738 161.3 214.143 161.3C213.547 161.3 213.065 160.507 213.065 159.53C213.065 158.553 213.547 157.761 214.143 157.761C214.738 157.761 215.22 158.553 215.22 159.53Z" fill="#1C1B1F"/>
<path d="M228.3 160.685C228.3 161.662 227.818 162.454 227.223 162.454C226.627 162.454 226.145 161.662 226.145 160.685C226.145 159.707 226.627 158.915 227.223 158.915C227.818 158.915 228.3 159.707 228.3 160.685Z" fill="#1C1B1F"/>
<path d="M211.372 161.146L214.142 161.3" stroke="#1C1B1F" stroke-width="0.7" stroke-miterlimit="10" stroke-linecap="round" stroke-linejoin="round"/>
<path d="M227.222 162.454L230.146 162.685" stroke="#1C1B1F" stroke-width="0.7" stroke-miterlimit="10" stroke-linecap="round" stroke-linejoin="round"/>
<path d="M213.219 171.303C213.219 171.303 217.374 174.997 224.299 172.226" stroke="#DADADA" stroke-width="0.7" stroke-miterlimit="10" stroke-linecap="round" stroke-linejoin="round"/>
<path d="M195.828 147.757C195.828 147.757 210.448 153.912 214.603 154.836C218.759 155.76 225.992 155.606 232.764 155.298C239.535 154.99 237.38 152.989 237.072 151.604C236.764 150.219 236.611 149.449 236.611 149.449C236.611 149.449 239.227 141.909 235.38 132.52C231.532 123.133 222.76 118.823 215.219 118.823C207.678 118.823 198.751 126.211 196.905 130.982C195.058 135.753 195.52 143.294 195.212 144.217C194.904 145.141 192.134 146.833 193.057 146.987C193.98 147.141 195.828 147.757 195.828 147.757Z" fill="white"/>
<path d="M195.828 147.757C195.828 147.757 210.448 153.912 214.603 154.836C218.759 155.76 225.992 155.606 232.764 155.298C239.535 154.99 237.38 152.989 237.072 151.604C236.764 150.219 236.611 149.449 236.611 149.449C236.611 149.449 239.227 141.909 235.38 132.52C231.532 123.133 222.76 118.823 215.219 118.823C207.678 118.823 198.751 126.211 196.905 130.982C195.058 135.753 195.52 143.294 195.212 144.217C194.904 145.141 192.134 146.833 193.057 146.987C193.98 147.141 195.828 147.757 195.828 147.757Z" stroke="#1C1B1F" stroke-width="0.7" stroke-miterlimit="10" stroke-linecap="round" stroke-linejoin="round"/>
<path d="M196.289 146.371L192.596 148.68L193.365 152.989L199.983 148.218L196.289 146.371Z" fill="white"/>
<path d="M196.289 146.371L192.596 148.68L193.365 152.989L199.983 148.218L196.289 146.371Z" stroke="#1C1B1F" stroke-width="0.7" stroke-miterlimit="10" stroke-linecap="round" stroke-linejoin="round"/>
<path d="M197.212 144.679L201.829 146.987L201.983 142.832" stroke="#1C1B1F" stroke-width="0.7" stroke-miterlimit="10" stroke-linecap="round" stroke-linejoin="round"/>
<path d="M204.292 144.063L204.446 147.295C204.446 147.295 208.909 150.219 214.45 151.45C219.99 152.681 232.61 151.912 233.532 151.758C234.456 151.604 235.226 150.989 235.226 150.989" stroke="#1C1B1F" stroke-width="0.7" stroke-miterlimit="10" stroke-linecap="round" stroke-linejoin="round"/>
<path d="M216.603 120.208C216.603 120.208 219.68 121.593 221.066 124.209C221.977 125.93 222.297 129.288 222.297 129.288C222.297 129.288 217.834 130.212 217.064 131.289C216.295 132.366 217.526 137.445 217.68 142.523" stroke="#1C1B1F" stroke-width="0.7" stroke-miterlimit="10" stroke-linecap="round" stroke-linejoin="round"/>
<path d="M226.453 129.134C226.453 129.134 229.223 129.596 229.993 132.212C230.762 134.829 230.916 142.985 230.916 142.985" stroke="#1C1B1F" stroke-width="0.7" stroke-miterlimit="10" stroke-linecap="round" stroke-linejoin="round"/>
<path d="M170.334 183.092C170.334 183.092 166.024 184.205 164.26 188.517C162.496 192.829 151.715 221.446 150.931 231.051C150.147 240.655 157.596 246.731 161.516 247.123C165.436 247.515 169.16 246.927 170.924 243.595C172.688 240.263 173.864 212.625 173.864 212.625C173.864 212.625 175.236 195.965 174.649 191.653C174.061 187.34 172.293 183.547 170.334 183.092Z" fill="white"/>
<path d="M170.334 183.092C170.334 183.092 166.024 184.205 164.26 188.517C162.496 192.829 151.715 221.446 150.931 231.051C150.147 240.655 157.596 246.731 161.516 247.123C165.436 247.515 169.16 246.927 170.924 243.595C172.688 240.263 173.864 212.625 173.864 212.625C173.864 212.625 175.236 195.965 174.649 191.653C174.061 187.34 172.293 183.547 170.334 183.092Z" stroke="#1C1B1F" stroke-width="0.7" stroke-miterlimit="10" stroke-linecap="round" stroke-linejoin="round"/>
<path d="M153.924 227.314C153.924 227.314 164.979 221.397 172.609 224.822" stroke="#1C1B1F" stroke-width="0.7" stroke-miterlimit="10" stroke-linecap="round" stroke-linejoin="round"/>
<path d="M173.577 224.627C173.577 224.627 169.102 227.051 168.077 230.501C167.051 233.95 165.093 238.798 165.839 240.569C166.585 242.34 170.408 244.951 173.204 244.857C176.002 244.765 177.679 243.739 178.611 243.086C179.544 242.434 183.18 237.586 183.739 235.907L184.299 234.23C184.299 234.23 187.562 235.814 188.587 236.374C189.612 236.933 191.384 235.721 191.198 234.23C191.011 232.738 186.909 230.593 184.858 229.009C182.808 227.423 180.756 226.491 177.959 225.559C175.162 224.627 174.51 224.348 173.577 224.627Z" fill="#599BFE"/>
<path d="M173.577 224.627C173.577 224.627 169.102 227.051 168.077 230.501C167.051 233.95 165.093 238.798 165.839 240.569C166.585 242.34 170.408 244.951 173.204 244.857C176.002 244.765 177.679 243.739 178.611 243.086C179.544 242.434 183.18 237.586 183.739 235.907L184.299 234.23C184.299 234.23 187.562 235.814 188.587 236.374C189.612 236.933 191.384 235.721 191.198 234.23C191.011 232.738 186.909 230.593 184.858 229.009C182.808 227.423 180.756 226.491 177.959 225.559C175.162 224.627 174.51 224.348 173.577 224.627Z" stroke="#1C1B1F" stroke-width="0.7" stroke-miterlimit="10" stroke-linecap="round" stroke-linejoin="round"/>
<path d="M184.298 234.229C184.298 234.229 179.264 232.645 177.306 232.085C175.348 231.526 174.882 231.433 174.882 231.433" stroke="#1C1B1F" stroke-width="0.7" stroke-miterlimit="10" stroke-linecap="round" stroke-linejoin="round"/>
<path d="M182.713 237.772C182.713 237.772 179.451 237.959 176.653 237.212C173.857 236.467 170.314 234.695 170.314 234.695" stroke="#1C1B1F" stroke-width="0.7" stroke-miterlimit="10" stroke-linecap="round" stroke-linejoin="round"/>
<path d="M169.381 239.73C169.381 239.73 173.016 241.222 176.001 241.688C178.983 242.153 180.102 241.594 180.102 241.594" stroke="#1C1B1F" stroke-width="0.7" stroke-miterlimit="10" stroke-linecap="round" stroke-linejoin="round"/>
<path d="M184.763 228.542C184.763 228.542 185.229 228.635 187.281 228.542C189.331 228.448 191.103 227.422 191.289 228.262C191.476 229.101 191.289 230.033 190.356 230.5C189.424 230.966 187.932 230.966 187.932 230.966L184.11 228.542" fill="#599BFE"/>
<path d="M184.763 228.542C184.763 228.542 185.229 228.635 187.281 228.542C189.331 228.448 191.103 227.422 191.289 228.262C191.476 229.101 191.289 230.033 190.356 230.5C189.424 230.966 187.932 230.966 187.932 230.966L184.11 228.542" stroke="#1C1B1F" stroke-width="0.7" stroke-miterlimit="10" stroke-linecap="round" stroke-linejoin="round"/>
<path d="M140.358 209.745C140.358 209.745 143.522 209.555 144.825 208.985C146.128 208.416 147.9 207.934 147.617 210.314C147.412 212.031 145.076 213.478 143.407 213.478C140.735 213.478 138.81 215.408 138.81 215.408L140.358 209.745Z" fill="#599BFE"/>
<path d="M140.358 209.745C140.358 209.745 143.522 209.555 144.825 208.985C146.128 208.416 147.9 207.934 147.617 210.314C147.412 212.031 145.076 213.478 143.407 213.478C140.735 213.478 138.81 215.408 138.81 215.408L140.358 209.745Z" stroke="#1C1B1F" stroke-width="0.7" stroke-miterlimit="10" stroke-linecap="round" stroke-linejoin="round"/>
<path d="M120.467 195.216C120.467 195.216 143.935 200.609 144.131 201.781C144.326 202.954 129.849 268.507 129.849 268.507L106.395 259.126L120.467 195.216Z" fill="#DADADA"/>
<path d="M120.467 195.216C120.467 195.216 143.935 200.609 144.131 201.781C144.326 202.954 129.849 268.507 129.849 268.507L106.395 259.126L120.467 195.216Z" stroke="#1C1B1F" stroke-width="0.7" stroke-miterlimit="10" stroke-linecap="round" stroke-linejoin="round"/>
<path d="M140.184 223.143C140.184 223.143 142.421 223.535 142.328 224.18C142.205 225.024 142.214 225.621 141.309 225.929C140.404 226.238 137.215 225.574 136.989 224.853C136.763 224.132 137.123 222.842 137.575 222.739C138.028 222.636 140.184 223.143 140.184 223.143Z" fill="#599BFE"/>
<path d="M140.184 223.143C140.184 223.143 142.421 223.535 142.328 224.18C142.205 225.024 142.214 225.621 141.309 225.929C140.404 226.238 137.215 225.574 136.989 224.853C136.763 224.132 137.123 222.842 137.575 222.739C138.028 222.636 140.184 223.143 140.184 223.143Z" stroke="#1C1B1F" stroke-width="0.7" stroke-miterlimit="10" stroke-linecap="round" stroke-linejoin="round"/>
<path d="M140.887 219.922C140.887 219.922 143.682 220.411 143.566 221.219C143.413 222.273 143.425 223.019 142.293 223.405C141.162 223.79 137.176 222.96 136.892 222.059C136.61 221.159 137.06 219.546 137.626 219.417C138.191 219.289 140.887 219.922 140.887 219.922Z" fill="#599BFE"/>
<path d="M140.887 219.922C140.887 219.922 143.682 220.411 143.566 221.219C143.413 222.273 143.425 223.019 142.293 223.405C141.162 223.79 137.176 222.96 136.892 222.059C136.61 221.159 137.06 219.546 137.626 219.417C138.191 219.289 140.887 219.922 140.887 219.922Z" stroke="#1C1B1F" stroke-width="0.7" stroke-miterlimit="10" stroke-linecap="round" stroke-linejoin="round"/>
<path d="M142.24 216.822C142.24 216.822 145.036 217.311 144.919 218.118C144.766 219.172 144.778 219.919 143.646 220.305C142.514 220.69 138.529 219.86 138.246 218.959C137.963 218.059 138.413 216.446 138.979 216.317C139.545 216.189 142.24 216.822 142.24 216.822Z" fill="#599BFE"/>
<path d="M142.24 216.822C142.24 216.822 145.036 217.311 144.919 218.118C144.766 219.172 144.778 219.919 143.646 220.305C142.514 220.69 138.529 219.86 138.246 218.959C137.963 218.059 138.413 216.446 138.979 216.317C139.545 216.189 142.24 216.822 142.24 216.822Z" stroke="#1C1B1F" stroke-width="0.7" stroke-miterlimit="10" stroke-linecap="round" stroke-linejoin="round"/>
<path d="M142.804 213.272C142.804 213.272 145.6 213.761 145.483 214.568C145.33 215.622 145.342 216.369 144.21 216.755C143.078 217.14 139.093 216.309 138.81 215.409C138.527 214.509 138.977 212.896 139.543 212.767C140.108 212.639 142.804 213.272 142.804 213.272Z" fill="#599BFE"/>
<path d="M142.804 213.272C142.804 213.272 145.6 213.761 145.483 214.568C145.33 215.622 145.342 216.369 144.21 216.755C143.078 217.14 139.093 216.309 138.81 215.409C138.527 214.509 138.977 212.896 139.543 212.767C140.108 212.639 142.804 213.272 142.804 213.272Z" stroke="#1C1B1F" stroke-width="0.7" stroke-miterlimit="10" stroke-linecap="round" stroke-linejoin="round"/>
<path d="M74.9289 328.117C74.9289 328.117 65.9388 294.305 65.9388 287.269C65.9388 280.234 66.72 275.152 66.72 275.152L122.031 265.966L127.502 273.589C127.502 273.589 125.939 285.706 123.985 298.605C122.031 311.505 121.249 327.335 121.249 327.335L74.9289 328.117Z" fill="#1C1B1F"/>
<path d="M74.9289 328.117C74.9289 328.117 65.9388 294.305 65.9388 287.269C65.9388 280.234 66.72 275.152 66.72 275.152L122.031 265.966L127.502 273.589C127.502 273.589 125.939 285.706 123.985 298.605C122.031 311.505 121.249 327.335 121.249 327.335L74.9289 328.117Z" stroke="#1C1B1F" stroke-width="0.7" stroke-miterlimit="10" stroke-linecap="round" stroke-linejoin="round"/>
<path d="M82.7928 171.421C82.7928 171.421 72.472 181.914 70.5799 188.106C68.6885 194.299 68.0004 197.223 66.2798 207.715C64.5599 218.208 63.0122 222.508 63.5281 226.98C64.044 231.453 67.4838 244.181 67.4838 244.181C67.4838 244.181 67.1401 256.737 66.2798 263.963C65.4202 271.187 62.84 276.003 63.3559 278.067C63.8718 280.131 98.6177 285.979 105.842 284.947C113.066 283.916 118.399 282.196 118.399 282.196L121.839 271.015L122.355 282.539C122.355 282.539 125.795 281.335 127.515 280.647C129.235 279.959 131.471 278.927 131.471 278.927C131.471 278.927 129.579 250.029 129.579 249.513C129.579 248.997 130.267 218.552 129.923 214.595C129.579 210.64 126.311 202.383 122.871 196.879C119.431 191.374 113.239 181.398 111.174 178.99C109.11 176.582 110.314 177.27 105.498 173.313C100.682 169.357 89.5009 167.121 82.7928 171.421Z" fill="#599BFE"/>
<path d="M82.7928 171.421C82.7928 171.421 72.472 181.914 70.5799 188.106C68.6885 194.299 68.0004 197.223 66.2798 207.715C64.5599 218.208 63.0122 222.508 63.5281 226.98C64.044 231.453 67.4838 244.181 67.4838 244.181C67.4838 244.181 67.1401 256.737 66.2798 263.963C65.4202 271.187 62.84 276.003 63.3559 278.067C63.8718 280.131 98.6177 285.979 105.842 284.947C113.066 283.916 118.399 282.196 118.399 282.196L121.839 271.015L122.355 282.539C122.355 282.539 125.795 281.335 127.515 280.647C129.235 279.959 131.471 278.927 131.471 278.927C131.471 278.927 129.579 250.029 129.579 249.513C129.579 248.997 130.267 218.552 129.923 214.595C129.579 210.64 126.311 202.383 122.871 196.879C119.431 191.374 113.239 181.398 111.174 178.99C109.11 176.582 110.314 177.27 105.498 173.313C100.682 169.357 89.5009 167.121 82.7928 171.421Z" stroke="#1C1B1F" stroke-width="0.7" stroke-miterlimit="10" stroke-linecap="round" stroke-linejoin="round"/>
<path d="M129.765 252.586C127.78 251.323 125.084 249.914 123.202 250.135C119.88 250.527 100.141 259.126 84.7007 260.689C75.7211 261.599 69.8544 261.781 66.5119 261.774C66.4391 262.542 66.3621 263.276 66.2802 263.963C66.01 266.235 65.569 268.269 65.1077 270.055L66.3285 269.875C66.3285 269.875 86.8504 268.507 96.2318 266.357C105.613 264.208 122.616 257.562 123.789 258.148C124.528 258.519 127.907 259.975 130.304 261.001C130.094 257.748 129.899 254.718 129.765 252.586Z" fill="white"/>
<path d="M129.765 252.586C127.78 251.323 125.084 249.914 123.202 250.135C119.88 250.527 100.141 259.126 84.7007 260.689C75.7211 261.599 69.8544 261.781 66.5119 261.774C66.4391 262.542 66.3621 263.276 66.2802 263.963C66.01 266.235 65.569 268.269 65.1077 270.055L66.3285 269.875C66.3285 269.875 86.8504 268.507 96.2318 266.357C105.613 264.208 122.616 257.562 123.789 258.148C124.528 258.519 127.907 259.975 130.304 261.001C130.094 257.748 129.899 254.718 129.765 252.586Z" stroke="#1C1B1F" stroke-width="0.7" stroke-miterlimit="10" stroke-linecap="round" stroke-linejoin="round"/>
<path d="M112.65 231.373C105.223 233.718 77.8609 244.076 76.1018 244.272C74.9881 244.396 70.4297 243.736 67.2328 243.236C67.391 243.831 67.4848 244.181 67.4848 244.181C67.4848 244.181 67.4001 247.275 67.2097 251.274C68.0483 251.592 68.8715 251.895 69.4567 252.09C71.2158 252.677 75.7105 251.894 77.8609 250.917C80.0106 249.94 112.063 238.604 115.19 238.018C117.308 237.621 125.023 238.387 129.786 238.924C129.841 235.931 129.896 232.613 129.94 229.404C125.337 229.462 117.604 229.809 112.65 231.373Z" fill="white"/>
<path d="M112.65 231.373C105.223 233.718 77.8609 244.076 76.1018 244.272C74.9881 244.396 70.4297 243.736 67.2328 243.236C67.391 243.831 67.4848 244.181 67.4848 244.181C67.4848 244.181 67.4001 247.275 67.2097 251.274C68.0483 251.592 68.8715 251.895 69.4567 252.09C71.2158 252.677 75.7105 251.894 77.8609 250.917C80.0106 249.94 112.063 238.604 115.19 238.018C117.308 237.621 125.023 238.387 129.786 238.924C129.841 235.931 129.896 232.613 129.94 229.404C125.337 229.462 117.604 229.809 112.65 231.373Z" stroke="#1C1B1F" stroke-width="0.7" stroke-miterlimit="10" stroke-linecap="round" stroke-linejoin="round"/>
<path d="M86.2135 237.632C86.2135 237.632 79.0014 255.99 73.4287 263.856" stroke="#1C1B1F" stroke-width="0.7" stroke-miterlimit="10" stroke-linecap="round" stroke-linejoin="round"/>
<path d="M93.425 249.76C93.425 249.76 81.6244 265.167 73.1012 273.362" stroke="#1C1B1F" stroke-width="0.7" stroke-miterlimit="10" stroke-linecap="round" stroke-linejoin="round"/>
<path d="M117.354 200.262C117.354 200.262 121.616 208.784 123.255 217.635C124.894 226.486 123.911 260.25 123.911 261.233" stroke="#1C1B1F" stroke-width="0.7" stroke-miterlimit="10" stroke-linecap="round" stroke-linejoin="round"/>
<path d="M70.8933 234.311C70.8933 234.311 75.9137 238.495 76.9595 239.332C78.0053 240.168 83.0264 237.031 83.0264 237.031" stroke="#1C1B1F" stroke-width="0.7" stroke-miterlimit="10" stroke-linecap="round" stroke-linejoin="round"/>
<path d="M107.747 175.198C107.189 174.714 106.471 174.112 105.499 173.314C101.387 169.935 92.6426 167.827 85.9961 169.954C88.619 171.165 93.5631 173.848 97.4145 178.302C102.919 184.666 115.648 195.33 115.648 195.33C115.648 195.33 111.998 182.323 107.747 175.198Z" fill="#1C1B1F"/>
<path d="M107.747 175.198C107.189 174.714 106.471 174.112 105.499 173.314C101.387 169.935 92.6426 167.827 85.9961 169.954C88.619 171.165 93.5631 173.848 97.4145 178.302C102.919 184.666 115.648 195.33 115.648 195.33C115.648 195.33 111.998 182.323 107.747 175.198Z" stroke="#1C1B1F" stroke-width="0.7" stroke-miterlimit="10" stroke-linecap="round" stroke-linejoin="round"/>
<path d="M127.925 143.632C127.925 143.632 128.165 146.744 128.045 147.822C127.925 148.899 126.609 150.694 126.609 151.653C126.609 152.61 127.566 155.842 128.165 156.919C128.763 157.997 129.721 160.032 129.362 160.63C129.003 161.229 124.694 163.383 124.694 163.383C124.694 163.383 120.982 173.678 120.144 174.157C119.306 174.636 115.596 173.798 114.279 173.199C112.962 172.601 109.131 170.805 109.131 170.805C109.131 170.805 107.575 173.439 107.216 176.312C106.857 179.185 107.455 182.775 107.455 182.775C107.455 182.775 105.899 183.015 99.0764 176.192C92.2528 169.369 91.6543 163.623 91.6543 152.251C91.6543 140.879 91.774 139.443 91.774 139.443L127.925 143.632Z" fill="white"/>
<path d="M127.925 143.632C127.925 143.632 128.165 146.744 128.045 147.822C127.925 148.899 126.609 150.694 126.609 151.653C126.609 152.61 127.566 155.842 128.165 156.919C128.763 157.997 129.721 160.032 129.362 160.63C129.003 161.229 124.694 163.383 124.694 163.383C124.694 163.383 120.982 173.678 120.144 174.157C119.306 174.636 115.596 173.798 114.279 173.199C112.962 172.601 109.131 170.805 109.131 170.805C109.131 170.805 107.575 173.439 107.216 176.312C106.857 179.185 107.455 182.775 107.455 182.775C107.455 182.775 105.899 183.015 99.0764 176.192C92.2528 169.369 91.6543 163.623 91.6543 152.251C91.6543 140.879 91.774 139.443 91.774 139.443L127.925 143.632Z" stroke="#1C1B1F" stroke-width="0.7" stroke-miterlimit="10" stroke-linecap="round" stroke-linejoin="round"/>
<path d="M109.13 170.805L105.499 168.841L107.219 174.346L109.13 170.805Z" fill="#1C1B1F"/>
<path d="M109.13 170.805L105.499 168.841L107.219 174.346L109.13 170.805Z" stroke="#1C1B1F" stroke-width="0.7" stroke-miterlimit="10" stroke-linecap="round" stroke-linejoin="round"/>
<path d="M111.525 142.554C111.525 142.554 110.807 144.47 109.369 145.547C107.934 146.624 107.335 149.258 105.779 151.054C104.222 152.849 102.307 152.969 101.469 150.575C100.631 148.181 100.751 145.667 98.2373 143.871C95.7236 142.076 96.5615 146.504 95.963 152.969C95.3645 159.433 96.9206 171.164 97.9979 172.84C99.0752 174.516 100.033 175.115 100.033 175.115C100.033 175.115 96.3221 178.466 86.1469 176.91C75.9717 175.354 75.2535 166.975 76.9293 161.947C78.6051 156.919 81.2385 145.307 81.2385 143.512C81.2385 141.716 81.7173 139.203 81.7173 139.203L111.525 142.554Z" fill="#1C1B1F"/>
<path d="M111.525 142.554C111.525 142.554 110.807 144.47 109.369 145.547C107.934 146.624 107.335 149.258 105.779 151.054C104.222 152.849 102.307 152.969 101.469 150.575C100.631 148.181 100.751 145.667 98.2373 143.871C95.7236 142.076 96.5615 146.504 95.963 152.969C95.3645 159.433 96.9206 171.164 97.9979 172.84C99.0752 174.516 100.033 175.115 100.033 175.115C100.033 175.115 96.3221 178.466 86.1469 176.91C75.9717 175.354 75.2535 166.975 76.9293 161.947C78.6051 156.919 81.2385 145.307 81.2385 143.512C81.2385 141.716 81.7173 139.203 81.7173 139.203L111.525 142.554Z" stroke="#1C1B1F" stroke-width="0.7" stroke-miterlimit="10" stroke-linecap="round" stroke-linejoin="round"/>
<path d="M122.253 163.131C122.253 163.131 118.901 162.652 117.345 161.335C117.345 161.335 117.824 166.483 119.74 166.004C121.655 165.525 122.253 163.131 122.253 163.131Z" stroke="#1C1B1F" stroke-width="0.7" stroke-miterlimit="10" stroke-linecap="round" stroke-linejoin="round"/>
<path d="M122.765 152.185C122.57 153.19 122.149 153.955 121.824 153.892C121.5 153.83 121.395 152.963 121.59 151.957C121.785 150.95 122.206 150.187 122.531 150.249C122.855 150.312 122.96 151.179 122.765 152.185Z" fill="#1C1B1F"/>
<path d="M126.607 149.498C126.607 149.498 123.853 147.942 117.628 148.301C117.628 148.301 116.551 152.73 116.91 154.406C117.269 156.081 118.467 157.997 121.699 157.399C124.931 156.8 126.367 152.251 126.607 149.498Z" stroke="#1C1B1F" stroke-width="0.7" stroke-miterlimit="10" stroke-linecap="round" stroke-linejoin="round"/>
<path d="M126.606 149.497C126.606 149.497 130.078 149.737 130.916 150.455C130.916 150.455 130.437 155.003 128.162 156.201L126.606 151.652C126.606 151.652 126.128 150.575 126.606 149.497Z" stroke="#1C1B1F" stroke-width="0.7" stroke-miterlimit="10" stroke-linecap="round" stroke-linejoin="round"/>
<path d="M120.861 147.223C120.861 147.223 123.614 146.026 125.649 147.702" stroke="#1C1B1F" stroke-width="0.7" stroke-miterlimit="10" stroke-linecap="round" stroke-linejoin="round"/>
<path d="M117.63 148.3L100.272 147.103L100.991 148.181L116.911 150.096L117.63 148.3Z" fill="#1C1B1F"/>
<path d="M117.63 148.3L100.272 147.103L100.991 148.181L116.911 150.096L117.63 148.3Z" stroke="#1C1B1F" stroke-width="0.7" stroke-miterlimit="10" stroke-linecap="round" stroke-linejoin="round"/>
<path d="M120.023 153.687L122.896 154.765" stroke="#1C1B1F" stroke-width="0.7" stroke-miterlimit="10" stroke-linecap="round" stroke-linejoin="round"/>
<path d="M80.2137 149.92L93.6306 141.836L89.5027 141.148L79.1819 144.76L80.2137 149.92Z" fill="white"/>
<path d="M80.2137 149.92L93.6306 141.836L89.5027 141.148L79.1819 144.76L80.2137 149.92Z" stroke="#1C1B1F" stroke-width="0.7" stroke-miterlimit="10" stroke-linecap="round" stroke-linejoin="round"/>
<path d="M78.7081 141.601C78.7081 141.601 113.521 144.032 118.629 144.218C125.124 144.455 135.391 144.466 137.087 143.012C138.783 141.558 132.967 142.769 131.028 141.558C129.09 140.347 128.461 131.493 126.926 125.631C125.623 120.659 119.748 110.817 106.813 110.625C96.8514 110.478 83.4737 115.942 81.3681 126.62C80.8354 129.322 79.5299 134.101 79.8071 134.598C79.8925 134.752 80.1235 138.664 80.0899 138.837L78.7081 141.601Z" fill="white"/>
<path d="M78.7081 141.601C78.7081 141.601 113.521 144.032 118.629 144.218C125.124 144.455 135.391 144.466 137.087 143.012C138.783 141.558 132.967 142.769 131.028 141.558C129.09 140.347 128.461 131.493 126.926 125.631C125.623 120.659 119.748 110.817 106.813 110.625C96.8514 110.478 83.4737 115.942 81.3681 126.62C80.8354 129.322 79.5299 134.101 79.8071 134.598C79.8925 134.752 80.1235 138.664 80.0899 138.837L78.7081 141.601Z" stroke="#1C1B1F" stroke-width="0.7" stroke-miterlimit="10" stroke-linecap="round" stroke-linejoin="round"/>
<path d="M78.7081 141.601C78.7081 141.601 79.5047 137.28 90.683 137.087C101.861 136.894 118.629 144.218 118.629 144.218C118.629 144.218 88.1259 144.188 78.7081 141.601Z" fill="white"/>
<path d="M78.7081 141.601C78.7081 141.601 79.5047 137.28 90.683 137.087C101.861 136.894 118.629 144.218 118.629 144.218C118.629 144.218 88.1259 144.188 78.7081 141.601Z" stroke="#1C1B1F" stroke-width="0.7" stroke-miterlimit="10" stroke-linecap="round" stroke-linejoin="round"/>
<path d="M123.881 122.735C123.881 122.735 124.59 124.578 125.157 127.415C125.725 130.251 127.426 140.886 127.426 140.886C127.426 140.886 123.031 142.446 119.769 142.588" stroke="#1C1B1F" stroke-width="0.7" stroke-miterlimit="10" stroke-linecap="round" stroke-linejoin="round"/>
<path d="M182.493 189.863C182.493 189.863 167.639 204.052 159.879 214.028C152.12 224.004 138.375 243.515 133.94 253.047C129.506 262.581 124.186 283.642 124.186 283.642C124.186 283.642 131.945 294.727 146.577 295.392C161.209 296.057 211.979 287.854 226.833 286.968C241.687 286.08 247.786 284.652 261.862 277.878C277.85 270.183 309.489 224.869 313.517 218.019C317.83 210.686 321.676 198.135 321.676 198.135C321.676 198.135 289.269 212.417 268.161 215.772C246.143 219.27 216.634 213.363 205.771 210.259C194.907 207.155 182.493 189.863 182.493 189.863Z" fill="white"/>
<path d="M182.493 189.863C182.493 189.863 167.639 204.052 159.879 214.028C152.12 224.004 138.375 243.515 133.94 253.047C129.506 262.581 124.186 283.642 124.186 283.642C124.186 283.642 131.945 294.727 146.577 295.392C161.209 296.057 211.979 287.854 226.833 286.968C241.687 286.08 247.786 284.652 261.862 277.878C277.85 270.183 309.489 224.869 313.517 218.019C317.83 210.686 321.676 198.135 321.676 198.135C321.676 198.135 289.269 212.417 268.161 215.772C246.143 219.27 216.634 213.363 205.771 210.259C194.907 207.155 182.493 189.863 182.493 189.863Z" stroke="#1C1B1F" stroke-width="0.7" stroke-miterlimit="10" stroke-linecap="round" stroke-linejoin="round"/>
<path d="M321.676 198.136C321.676 198.136 321.98 196.16 320.916 193.575C319.852 190.99 311.186 189.166 311.186 189.166C311.186 189.166 311.338 195.704 310.729 199.048C310.122 202.393 310.109 202.734 310.109 202.734L321.676 198.136Z" fill="white"/>
<path d="M321.676 198.136C321.676 198.136 321.98 196.16 320.916 193.575C319.852 190.99 311.186 189.166 311.186 189.166C311.186 189.166 311.338 195.704 310.729 199.048C310.122 202.393 310.109 202.734 310.109 202.734L321.676 198.136Z" stroke="#1C1B1F" stroke-width="0.7" stroke-miterlimit="10" stroke-linecap="round" stroke-linejoin="round"/>
<path d="M103.778 213.735C103.778 213.735 100.339 195.846 97.2424 190.17C94.1463 184.494 82.9183 183.212 79.6976 187.935C77.9175 190.542 77.2889 195.675 75.9127 202.555C74.5372 209.435 77.2889 232.828 79.0095 233C80.7294 233.173 85.8898 229.044 85.8898 229.044C85.8898 229.044 88.4693 235.581 90.0177 236.613C91.5661 237.644 114.443 245.385 123.216 246.245C123.216 246.245 129.924 247.965 130.44 246.933C130.956 245.901 134.912 234.205 134.912 234.205L124.076 229.905L105.67 217.863L103.778 213.735Z" fill="#1C1B1F"/>
<path d="M103.778 213.735C103.778 213.735 100.339 195.846 97.2424 190.17C94.1463 184.494 82.9183 183.212 79.6976 187.935C77.9175 190.542 77.2889 195.675 75.9127 202.555C74.5372 209.435 77.2889 232.828 79.0095 233C80.7294 233.173 85.8898 229.044 85.8898 229.044C85.8898 229.044 88.4693 235.581 90.0177 236.613C91.5661 237.644 114.443 245.385 123.216 246.245C123.216 246.245 129.924 247.965 130.44 246.933C130.956 245.901 134.912 234.205 134.912 234.205L124.076 229.905L105.67 217.863L103.778 213.735Z" stroke="#1C1B1F" stroke-width="0.7" stroke-miterlimit="10" stroke-linecap="round" stroke-linejoin="round"/>
<path d="M85.8908 229.045C85.8908 229.045 78.8383 212.703 77.978 203.76" stroke="#DADADA" stroke-width="0.7" stroke-miterlimit="10" stroke-linecap="round" stroke-linejoin="round"/>
<path d="M137.149 231.797C137.149 231.797 133.193 234.033 131.645 236.097C130.097 238.161 128.205 242.806 128.893 245.042C129.581 247.278 132.333 248.138 133.709 247.621C135.085 247.105 137.493 246.934 137.493 246.934C137.493 246.934 139.041 248.31 140.073 247.45C141.106 246.589 147.814 238.505 147.985 237.989C148.158 237.473 150.738 235.065 151.082 233.689C151.426 232.313 147.47 228.529 146.437 227.841C145.406 227.153 141.794 227.841 140.245 228.013C138.697 228.185 137.149 229.905 137.149 231.797Z" fill="#599BFE"/>
<path d="M137.149 231.797C137.149 231.797 133.193 234.033 131.645 236.097C130.097 238.161 128.205 242.806 128.893 245.042C129.581 247.278 132.333 248.138 133.709 247.621C135.085 247.105 137.493 246.934 137.493 246.934C137.493 246.934 139.041 248.31 140.073 247.45C141.106 246.589 147.814 238.505 147.985 237.989C148.158 237.473 150.738 235.065 151.082 233.689C151.426 232.313 147.47 228.529 146.437 227.841C145.406 227.153 141.794 227.841 140.245 228.013C138.697 228.185 137.149 229.905 137.149 231.797Z" stroke="#1C1B1F" stroke-width="0.7" stroke-miterlimit="10" stroke-linecap="round" stroke-linejoin="round"/>
<path d="M139.299 232.577L147.984 237.988" stroke="#1C1B1F" stroke-width="0.7" stroke-miterlimit="10" stroke-linecap="round" stroke-linejoin="round"/>
<path d="M143.676 231.702L145.816 236.468" stroke="#1C1B1F" stroke-width="0.7" stroke-miterlimit="10" stroke-linecap="round" stroke-linejoin="round"/>
<path d="M136.091 233.745C136.091 233.745 135.508 233.842 135.605 234.912C135.702 235.981 136.772 236.37 136.772 236.37L144.941 241.038" stroke="#1C1B1F" stroke-width="0.7" stroke-miterlimit="10" stroke-linecap="round" stroke-linejoin="round"/>
<path d="M135.798 236.078C135.798 236.078 133.464 238.606 133.659 239.385C133.853 240.163 142.119 244.247 142.119 244.247" stroke="#1C1B1F" stroke-width="0.7" stroke-miterlimit="10" stroke-linecap="round" stroke-linejoin="round"/>
<path d="M137.493 246.934C137.493 246.934 132.687 244.247 132.007 242.982C131.326 241.719 132.882 240.26 132.882 240.26" stroke="#1C1B1F" stroke-width="0.7" stroke-miterlimit="10" stroke-linecap="round" stroke-linejoin="round"/>
</g>
</svg>
