<svg width="161" height="160" viewBox="0 0 161 160" fill="none" xmlns="http://www.w3.org/2000/svg">
<g id="Illustration 13">
<g id="g26054">
<g id="Clip path group">
<mask id="mask0_159_40706" style="mask-type:luminance" maskUnits="userSpaceOnUse" x="0" y="0" width="161" height="160">
<g id="clipPath26060">
<path id="path26058" d="M0.5 0H160.5V160H0.5V0Z" fill="white"/>
</g>
</mask>
<g mask="url(#mask0_159_40706)">
<g id="g26056">
<g id="g26062">
<path id="path26064" d="M150.133 80.6124C148.553 93.989 142.446 109.541 130.247 116.686C111.817 127.484 113.36 144.09 77.3857 151.31C71.7771 152.436 66.4542 152.91 61.435 152.817C58.7371 152.766 56.1252 152.549 53.6065 152.178C30.7428 148.838 15.3566 132.946 9.71177 113.762C2.28329 88.5314 17.1162 72.0134 26.9476 62.0614C36.7793 52.1094 43.9799 21.1001 79.2894 13.7251C84.673 12.6028 90.1786 12.03 95.6826 12.1673C108.246 12.4758 121.948 16.6009 131.43 25.2111C132.142 25.8582 132.834 26.5289 133.509 27.2198C146.687 40.7465 152.287 62.3762 150.133 80.6124Z" fill="#599BFE"/>
</g>
<g id="g26066">
<g id="g26080">
<g id="Clip path group_2">
<mask id="mask1_159_40706" style="mask-type:luminance" maskUnits="userSpaceOnUse" x="7" y="12" width="144" height="141">
<g id="clipPath26072">
<path id="path26070" d="M7.70221 12.1475H150.583V152.828H7.70221V12.1475Z" fill="white"/>
</g>
</mask>
<g mask="url(#mask1_159_40706)">
<g id="g26078" opacity="0.699997">
<g id="g26076">
<path id="path26074" d="M150.133 80.6126C148.554 93.9892 142.447 109.542 130.248 116.686C111.818 127.484 113.361 144.091 77.3865 151.31C71.7779 152.436 66.455 152.911 61.4358 152.817C58.7379 152.767 56.1261 152.549 53.6073 152.179C30.7437 148.839 15.3574 132.946 9.71262 113.762C2.28414 88.5316 17.1171 72.0135 26.9485 62.0616C36.7801 52.1096 43.9808 21.1003 79.2902 13.7252C84.6739 12.603 90.1795 12.0302 95.6835 12.1675C108.246 12.476 121.949 16.6011 131.431 25.2113C132.142 25.8584 132.835 26.5291 133.51 27.2199C146.688 40.7467 152.288 62.3764 150.133 80.6126Z" fill="white"/>
</g>
</g>
</g>
</g>
</g>
</g>
</g>
</g>
</g>
</g>
<g id="g26082">
<path id="path26084" d="M8.41064 148.513H152.853" stroke="#1A2E35" stroke-width="0.32" stroke-miterlimit="10" stroke-linecap="round" stroke-linejoin="round"/>
</g>
<g id="g26086">
<g id="Clip path group_3">
<mask id="mask2_159_40706" style="mask-type:luminance" maskUnits="userSpaceOnUse" x="0" y="0" width="161" height="160">
<g id="clipPath26092">
<path id="path26090" d="M0.5 0H160.5V160H0.5V0Z" fill="white"/>
</g>
</mask>
<g mask="url(#mask2_159_40706)">
<g id="g26088">
<g id="g26094">
<path id="path26096" d="M112.221 23.4899H124.413C124.413 23.4899 125.582 19.9805 123.477 18.6938C121.371 17.407 121.371 19.1616 119.733 18.4598C118.38 17.88 118.127 16.7792 117.748 15.6128C117.706 15.48 117.661 15.3462 117.613 15.2122C117.479 14.84 117.308 14.4938 117.107 14.1747" stroke="#DADADA" stroke-width="0.32" stroke-miterlimit="10" stroke-linecap="round" stroke-linejoin="round"/>
</g>
<g id="g26098">
<path id="path26100" d="M115.675 12.6533C112.62 10.4267 107.567 11.2545 107.567 16.003C107.567 17.1729 104.759 16.003 103.706 17.5237C102.654 19.0446 103.824 19.9803 102.42 20.4481C101.016 20.9163 100.899 19.7464 99.1442 19.8635C97.3894 19.9803 97.6236 21.6181 97.0386 22.0862C96.4537 22.5537 96.4537 22.3198 95.167 22.4369C93.8802 22.5537 93.646 23.4897 93.646 23.4897H110.06" stroke="#DADADA" stroke-width="0.32" stroke-miterlimit="10" stroke-linecap="round" stroke-linejoin="round"/>
</g>
<g id="g26102">
<path id="path26104" d="M118.813 22.2102C118.813 22.2102 119.45 20.2402 117.886 18.7916C116.321 17.3436 114.699 18.1545 114.235 18.7916C113.772 19.429 113.772 20.6457 113.019 20.7618C112.266 20.8774 112.44 19.487 110.817 19.8348C109.195 20.1823 109.833 21.8044 109.079 22.1522C108.326 22.4998 108.326 21.2252 107.283 21.6306C106.24 22.0364 106.298 22.7897 106.298 22.7897" stroke="#DADADA" stroke-width="0.32" stroke-miterlimit="10" stroke-linecap="round" stroke-linejoin="round"/>
</g>
<g id="g26106">
<path id="path26108" d="M110.491 18.2732C110.491 18.2732 109.201 17.2409 107.524 18.015C105.847 18.7894 106.621 20.4019 105.847 20.7891C105.073 21.1759 104.686 20.7244 103.718 21.1759C102.751 21.6275 102.815 22.2726 102.815 22.2726" stroke="#DADADA" stroke-width="0.32" stroke-miterlimit="10" stroke-linecap="round" stroke-linejoin="round"/>
</g>
<g id="g26110">
<path id="path26112" d="M28.9853 45.2243C28.7623 45.1104 28.5008 44.9955 28.0551 45.0249C27.0484 45.0921 27.1824 46.032 26.8468 46.3005C26.5114 46.5689 26.5114 46.4349 25.7728 46.5021C25.0343 46.5689 24.9002 47.1059 24.9002 47.1059H42.5552C42.5552 47.1059 42.9901 45.8016 42.53 44.9075" stroke="#DADADA" stroke-width="0.32" stroke-miterlimit="10" stroke-linecap="round" stroke-linejoin="round"/>
</g>
<g id="g26114">
<path id="path26116" d="M42.0185 44.3542C40.8101 43.6157 40.8101 44.6227 39.8703 44.2198C39.094 43.8874 38.9484 43.2554 38.7314 42.5862C38.7065 42.5098 38.6809 42.4333 38.6533 42.3562C37.6335 39.5203 32.8889 39.3248 32.8889 42.8102C32.8889 43.4813 31.2777 42.8102 30.6735 43.6829C30.0693 44.5555 30.7407 45.0928 29.9349 45.361" stroke="#DADADA" stroke-width="0.32" stroke-miterlimit="10" stroke-linecap="round" stroke-linejoin="round"/>
</g>
<g id="g26118">
<path id="path26120" d="M39.3416 46.3722C39.3416 46.3722 39.7073 45.2417 38.8094 44.4106C37.9118 43.5793 36.9809 44.0449 36.715 44.4106C36.4491 44.7764 36.4491 45.4746 36.0168 45.5409C35.5844 45.6074 35.6843 44.8097 34.7534 45.009C33.8222 45.2084 34.1883 46.1393 33.756 46.339C33.3236 46.5386 33.3236 45.8068 32.7252 46.0398C32.1268 46.2724 32.1601 46.7047 32.1601 46.7047" stroke="#DADADA" stroke-width="0.32" stroke-miterlimit="10" stroke-linecap="round" stroke-linejoin="round"/>
</g>
<g id="g26122">
<path id="path26124" d="M34.5664 44.1127C34.5664 44.1127 33.8259 43.5204 32.8637 43.9646C31.9011 44.4087 32.3453 45.3342 31.9011 45.5563C31.457 45.7787 31.2349 45.5195 30.6797 45.7787C30.1242 46.0375 30.1613 46.4078 30.1613 46.4078" stroke="#DADADA" stroke-width="0.32" stroke-miterlimit="10" stroke-linecap="round" stroke-linejoin="round"/>
</g>
<g id="g26126">
<path id="path26128" d="M70.2486 14.5677C70.0256 14.4538 69.7642 14.3389 69.3187 14.3684C68.3117 14.4356 68.4458 15.3754 68.1101 15.6439C67.7747 15.9124 67.7747 15.7783 67.0362 15.8455C66.2976 15.9124 66.1635 16.4493 66.1635 16.4493H83.8186C83.8186 16.4493 84.2534 15.145 83.7933 14.2506" stroke="#DADADA" stroke-width="0.32" stroke-miterlimit="10" stroke-linecap="round" stroke-linejoin="round"/>
</g>
<g id="g26130">
<path id="path26132" d="M83.2815 13.6977C82.0731 12.9591 82.0731 13.9662 81.1333 13.5636C80.357 13.2308 80.2114 12.5991 79.9944 11.9297C79.9695 11.8535 79.9439 11.7767 79.9163 11.6999C78.8965 8.86375 74.1519 8.66823 74.1519 12.1537C74.1519 12.825 72.5407 12.1537 71.9365 13.0263C71.3323 13.899 72.0037 14.4362 71.1979 14.7047" stroke="#DADADA" stroke-width="0.32" stroke-miterlimit="10" stroke-linecap="round" stroke-linejoin="round"/>
</g>
<g id="g26134">
<path id="path26136" d="M80.605 15.7144C80.605 15.7144 80.9708 14.5838 80.0728 13.7528C79.1752 12.9214 78.2444 13.387 77.9784 13.7528C77.7125 14.1186 77.7125 14.8165 77.2802 14.883C76.8479 14.9496 76.9477 14.1518 76.0168 14.3512C75.0856 14.5506 75.4517 15.4814 75.0194 15.6811C74.5871 15.8808 74.5871 15.149 73.9887 15.3819C73.3903 15.6146 73.4236 16.0469 73.4236 16.0469" stroke="#DADADA" stroke-width="0.32" stroke-miterlimit="10" stroke-linecap="round" stroke-linejoin="round"/>
</g>
<g id="g26138">
<path id="path26140" d="M75.8303 13.4563C75.8303 13.4563 75.0901 12.864 74.1275 13.3081C73.165 13.7523 73.6091 14.6777 73.165 14.8998C72.7208 15.1222 72.4987 14.863 71.9435 15.1222C71.388 15.3811 71.4251 15.7513 71.4251 15.7513" stroke="#DADADA" stroke-width="0.32" stroke-miterlimit="10" stroke-linecap="round" stroke-linejoin="round"/>
</g>
</g>
</g>
</g>
</g>
<path id="path26142" d="M139.728 148.513H70.0365V31.0695H139.728V148.513Z" fill="#DADADA" stroke="#DADADA" stroke-width="0.32" stroke-miterlimit="10" stroke-linecap="round" stroke-linejoin="round"/>
<path id="path26144" d="M139.728 148.513H99.6003V31.0695H139.728V148.513Z" fill="white" stroke="#DADADA" stroke-width="0.32" stroke-miterlimit="10" stroke-linecap="round" stroke-linejoin="round"/>
<path id="path26146" d="M135.07 148.513H104.258V31.0695H135.07V148.513Z" fill="white" stroke="#DADADA" stroke-width="0.32" stroke-miterlimit="10" stroke-linecap="round" stroke-linejoin="round"/>
<path id="path26148" d="M139.728 39.1139H99.6003V31.0695H139.728V39.1139Z" fill="#DADADA" stroke="#DADADA" stroke-width="0.32" stroke-miterlimit="10" stroke-linecap="round" stroke-linejoin="round"/>
<path id="path26150" d="M129.412 148.512H109.917V134.078H129.412V148.512Z" fill="white" stroke="#DADADA" stroke-width="0.32" stroke-miterlimit="10" stroke-linecap="round" stroke-linejoin="round"/>
<path id="path26152" d="M129.412 148.512H119.664V134.078H129.412V148.512Z" fill="white" stroke="#DADADA" stroke-width="0.32" stroke-miterlimit="10" stroke-linecap="round" stroke-linejoin="round"/>
<path id="path26154" d="M83.514 52.281H74.6669V44.2468H83.514V52.281Z" fill="white" stroke="#DADADA" stroke-width="0.32" stroke-miterlimit="10" stroke-linecap="round" stroke-linejoin="round"/>
<path id="path26156" d="M83.514 45.4265H74.6669V41.9321H83.514V45.4265Z" fill="white" stroke="#DADADA" stroke-width="0.32" stroke-miterlimit="10" stroke-linecap="round" stroke-linejoin="round"/>
<path id="path26158" d="M96.1614 52.281H87.3144V44.2468H96.1614V52.281Z" fill="white" stroke="#DADADA" stroke-width="0.32" stroke-miterlimit="10" stroke-linecap="round" stroke-linejoin="round"/>
<path id="path26160" d="M96.1614 45.4265H87.3144V41.9321H96.1614V45.4265Z" fill="white" stroke="#DADADA" stroke-width="0.32" stroke-miterlimit="10" stroke-linecap="round" stroke-linejoin="round"/>
<path id="path26162" d="M83.5138 67.704H74.6667V59.6701H83.5138V67.704Z" fill="white" stroke="#DADADA" stroke-width="0.32" stroke-miterlimit="10" stroke-linecap="round" stroke-linejoin="round"/>
<path id="path26164" d="M83.514 60.85H74.6669V57.3556H83.514V60.85Z" fill="white" stroke="#DADADA" stroke-width="0.32" stroke-miterlimit="10" stroke-linecap="round" stroke-linejoin="round"/>
<path id="path26166" d="M96.1612 67.704H87.3143V59.6701H96.1612V67.704Z" fill="white" stroke="#DADADA" stroke-width="0.32" stroke-miterlimit="10" stroke-linecap="round" stroke-linejoin="round"/>
<path id="path26168" d="M96.1614 60.85H87.3144V57.3556H96.1614V60.85Z" fill="white" stroke="#DADADA" stroke-width="0.32" stroke-miterlimit="10" stroke-linecap="round" stroke-linejoin="round"/>
<path id="path26170" d="M83.514 83.1279H74.6669V75.0937H83.514V83.1279Z" fill="white" stroke="#DADADA" stroke-width="0.32" stroke-miterlimit="10" stroke-linecap="round" stroke-linejoin="round"/>
<path id="path26172" d="M83.514 76.2737H74.6669V72.7793H83.514V76.2737Z" fill="white" stroke="#DADADA" stroke-width="0.32" stroke-miterlimit="10" stroke-linecap="round" stroke-linejoin="round"/>
<path id="path26174" d="M96.1614 83.1279H87.3144V75.0937H96.1614V83.1279Z" fill="white" stroke="#DADADA" stroke-width="0.32" stroke-miterlimit="10" stroke-linecap="round" stroke-linejoin="round"/>
<path id="path26176" d="M96.1614 76.2737H87.3144V72.7793H96.1614V76.2737Z" fill="white" stroke="#DADADA" stroke-width="0.32" stroke-miterlimit="10" stroke-linecap="round" stroke-linejoin="round"/>
<path id="path26178" d="M83.514 98.5516H74.6669V90.5177H83.514V98.5516Z" fill="white" stroke="#DADADA" stroke-width="0.32" stroke-miterlimit="10" stroke-linecap="round" stroke-linejoin="round"/>
<path id="path26180" d="M83.514 91.6973H74.6669V88.2029H83.514V91.6973Z" fill="white" stroke="#DADADA" stroke-width="0.32" stroke-miterlimit="10" stroke-linecap="round" stroke-linejoin="round"/>
<path id="path26182" d="M96.1614 98.5516H87.3144V90.5177H96.1614V98.5516Z" fill="white" stroke="#DADADA" stroke-width="0.32" stroke-miterlimit="10" stroke-linecap="round" stroke-linejoin="round"/>
<path id="path26184" d="M96.1614 91.6973H87.3144V88.2029H96.1614V91.6973Z" fill="white" stroke="#DADADA" stroke-width="0.32" stroke-miterlimit="10" stroke-linecap="round" stroke-linejoin="round"/>
<path id="path26186" d="M83.5138 113.975H74.6667V105.941H83.5138V113.975Z" fill="white" stroke="#DADADA" stroke-width="0.32" stroke-miterlimit="10" stroke-linecap="round" stroke-linejoin="round"/>
<path id="path26188" d="M83.5138 107.121H74.6667V103.627H83.5138V107.121Z" fill="white" stroke="#DADADA" stroke-width="0.32" stroke-miterlimit="10" stroke-linecap="round" stroke-linejoin="round"/>
<path id="path26190" d="M96.1612 113.975H87.3143V105.941H96.1612V113.975Z" fill="white" stroke="#DADADA" stroke-width="0.32" stroke-miterlimit="10" stroke-linecap="round" stroke-linejoin="round"/>
<path id="path26192" d="M96.1612 107.121H87.3143V103.627H96.1612V107.121Z" fill="white" stroke="#DADADA" stroke-width="0.32" stroke-miterlimit="10" stroke-linecap="round" stroke-linejoin="round"/>
<path id="path26194" d="M83.514 129.399H74.6669V121.365H83.514V129.399Z" fill="white" stroke="#DADADA" stroke-width="0.32" stroke-miterlimit="10" stroke-linecap="round" stroke-linejoin="round"/>
<path id="path26196" d="M83.5138 122.545H74.6667V119.05H83.5138V122.545Z" fill="white" stroke="#DADADA" stroke-width="0.32" stroke-miterlimit="10" stroke-linecap="round" stroke-linejoin="round"/>
<path id="path26198" d="M96.1614 129.399H87.3144V121.365H96.1614V129.399Z" fill="white" stroke="#DADADA" stroke-width="0.32" stroke-miterlimit="10" stroke-linecap="round" stroke-linejoin="round"/>
<path id="path26200" d="M96.1612 122.545H87.3143V119.05H96.1612V122.545Z" fill="white" stroke="#DADADA" stroke-width="0.32" stroke-miterlimit="10" stroke-linecap="round" stroke-linejoin="round"/>
<path id="path26202" d="M111.688 52.281H102.841V44.2468H111.688V52.281Z" fill="white" stroke="#DADADA" stroke-width="0.32" stroke-miterlimit="10" stroke-linecap="round" stroke-linejoin="round"/>
<path id="path26204" d="M111.688 45.4266H102.841V41.9322H111.688V45.4266Z" fill="white" stroke="#DADADA" stroke-width="0.32" stroke-miterlimit="10" stroke-linecap="round" stroke-linejoin="round"/>
<path id="path26206" d="M124.335 52.281H115.488V44.2468H124.335V52.281Z" fill="white" stroke="#DADADA" stroke-width="0.32" stroke-miterlimit="10" stroke-linecap="round" stroke-linejoin="round"/>
<path id="path26208" d="M124.335 45.4265H115.488V41.9321H124.335V45.4265Z" fill="white" stroke="#DADADA" stroke-width="0.32" stroke-miterlimit="10" stroke-linecap="round" stroke-linejoin="round"/>
<path id="path26210" d="M136.983 52.281H128.135V44.2468H136.983V52.281Z" fill="white" stroke="#DADADA" stroke-width="0.32" stroke-miterlimit="10" stroke-linecap="round" stroke-linejoin="round"/>
<path id="path26212" d="M136.983 45.4265H128.135V41.9321H136.983V45.4265Z" fill="white" stroke="#DADADA" stroke-width="0.32" stroke-miterlimit="10" stroke-linecap="round" stroke-linejoin="round"/>
<path id="path26214" d="M111.688 67.704H102.841V59.6701H111.688V67.704Z" fill="white" stroke="#DADADA" stroke-width="0.32" stroke-miterlimit="10" stroke-linecap="round" stroke-linejoin="round"/>
<path id="path26216" d="M111.688 60.85H102.841V57.3556H111.688V60.85Z" fill="white" stroke="#DADADA" stroke-width="0.32" stroke-miterlimit="10" stroke-linecap="round" stroke-linejoin="round"/>
<path id="path26218" d="M124.335 67.704H115.488V59.6701H124.335V67.704Z" fill="white" stroke="#DADADA" stroke-width="0.32" stroke-miterlimit="10" stroke-linecap="round" stroke-linejoin="round"/>
<path id="path26220" d="M124.335 60.85H115.488V57.3556H124.335V60.85Z" fill="white" stroke="#DADADA" stroke-width="0.32" stroke-miterlimit="10" stroke-linecap="round" stroke-linejoin="round"/>
<path id="path26222" d="M136.983 67.704H128.135V59.6701H136.983V67.704Z" fill="white" stroke="#DADADA" stroke-width="0.32" stroke-miterlimit="10" stroke-linecap="round" stroke-linejoin="round"/>
<path id="path26224" d="M136.983 60.85H128.135V57.3556H136.983V60.85Z" fill="white" stroke="#DADADA" stroke-width="0.32" stroke-miterlimit="10" stroke-linecap="round" stroke-linejoin="round"/>
<path id="path26226" d="M111.688 83.1281H102.841V75.0938H111.688V83.1281Z" fill="white" stroke="#DADADA" stroke-width="0.32" stroke-miterlimit="10" stroke-linecap="round" stroke-linejoin="round"/>
<path id="path26228" d="M111.688 76.2736H102.841V72.7792H111.688V76.2736Z" fill="white" stroke="#DADADA" stroke-width="0.32" stroke-miterlimit="10" stroke-linecap="round" stroke-linejoin="round"/>
<path id="path26230" d="M124.335 83.1279H115.488V75.0937H124.335V83.1279Z" fill="white" stroke="#DADADA" stroke-width="0.32" stroke-miterlimit="10" stroke-linecap="round" stroke-linejoin="round"/>
<path id="path26232" d="M124.335 76.2737H115.488V72.7793H124.335V76.2737Z" fill="white" stroke="#DADADA" stroke-width="0.32" stroke-miterlimit="10" stroke-linecap="round" stroke-linejoin="round"/>
<path id="path26234" d="M136.983 83.1279H128.135V75.0937H136.983V83.1279Z" fill="white" stroke="#DADADA" stroke-width="0.32" stroke-miterlimit="10" stroke-linecap="round" stroke-linejoin="round"/>
<path id="path26236" d="M136.983 76.2737H128.135V72.7793H136.983V76.2737Z" fill="white" stroke="#DADADA" stroke-width="0.32" stroke-miterlimit="10" stroke-linecap="round" stroke-linejoin="round"/>
<path id="path26238" d="M111.688 98.5513H102.841V90.5174H111.688V98.5513Z" fill="white" stroke="#DADADA" stroke-width="0.32" stroke-miterlimit="10" stroke-linecap="round" stroke-linejoin="round"/>
<path id="path26240" d="M111.688 91.6973H102.841V88.2029H111.688V91.6973Z" fill="white" stroke="#DADADA" stroke-width="0.32" stroke-miterlimit="10" stroke-linecap="round" stroke-linejoin="round"/>
<path id="path26242" d="M124.335 98.5516H115.488V90.5177H124.335V98.5516Z" fill="white" stroke="#DADADA" stroke-width="0.32" stroke-miterlimit="10" stroke-linecap="round" stroke-linejoin="round"/>
<path id="path26244" d="M124.335 91.6973H115.488V88.2029H124.335V91.6973Z" fill="white" stroke="#DADADA" stroke-width="0.32" stroke-miterlimit="10" stroke-linecap="round" stroke-linejoin="round"/>
<path id="path26246" d="M136.983 98.5516H128.135V90.5177H136.983V98.5516Z" fill="white" stroke="#DADADA" stroke-width="0.32" stroke-miterlimit="10" stroke-linecap="round" stroke-linejoin="round"/>
<path id="path26248" d="M136.983 91.6973H128.135V88.2029H136.983V91.6973Z" fill="white" stroke="#DADADA" stroke-width="0.32" stroke-miterlimit="10" stroke-linecap="round" stroke-linejoin="round"/>
<path id="path26250" d="M111.688 113.975H102.841V105.941H111.688V113.975Z" fill="white" stroke="#DADADA" stroke-width="0.32" stroke-miterlimit="10" stroke-linecap="round" stroke-linejoin="round"/>
<path id="path26252" d="M111.688 107.121H102.841V103.627H111.688V107.121Z" fill="white" stroke="#DADADA" stroke-width="0.32" stroke-miterlimit="10" stroke-linecap="round" stroke-linejoin="round"/>
<path id="path26254" d="M124.335 113.975H115.488V105.941H124.335V113.975Z" fill="white" stroke="#DADADA" stroke-width="0.32" stroke-miterlimit="10" stroke-linecap="round" stroke-linejoin="round"/>
<path id="path26256" d="M124.335 107.121H115.488V103.627H124.335V107.121Z" fill="white" stroke="#DADADA" stroke-width="0.32" stroke-miterlimit="10" stroke-linecap="round" stroke-linejoin="round"/>
<path id="path26258" d="M136.983 113.975H128.135V105.941H136.983V113.975Z" fill="white" stroke="#DADADA" stroke-width="0.32" stroke-miterlimit="10" stroke-linecap="round" stroke-linejoin="round"/>
<path id="path26260" d="M136.983 107.121H128.135V103.627H136.983V107.121Z" fill="white" stroke="#DADADA" stroke-width="0.32" stroke-miterlimit="10" stroke-linecap="round" stroke-linejoin="round"/>
<path id="path26262" d="M111.688 129.399H102.841V121.365H111.688V129.399Z" fill="white" stroke="#DADADA" stroke-width="0.32" stroke-miterlimit="10" stroke-linecap="round" stroke-linejoin="round"/>
<path id="path26264" d="M111.688 122.544H102.841V119.05H111.688V122.544Z" fill="white" stroke="#DADADA" stroke-width="0.32" stroke-miterlimit="10" stroke-linecap="round" stroke-linejoin="round"/>
<path id="path26266" d="M124.335 129.399H115.488V121.365H124.335V129.399Z" fill="white" stroke="#DADADA" stroke-width="0.32" stroke-miterlimit="10" stroke-linecap="round" stroke-linejoin="round"/>
<path id="path26268" d="M124.335 122.545H115.488V119.05H124.335V122.545Z" fill="white" stroke="#DADADA" stroke-width="0.32" stroke-miterlimit="10" stroke-linecap="round" stroke-linejoin="round"/>
<path id="path26270" d="M136.983 129.399H128.135V121.365H136.983V129.399Z" fill="white" stroke="#DADADA" stroke-width="0.32" stroke-miterlimit="10" stroke-linecap="round" stroke-linejoin="round"/>
<path id="path26272" d="M136.983 122.545H128.135V119.05H136.983V122.545Z" fill="white" stroke="#DADADA" stroke-width="0.32" stroke-miterlimit="10" stroke-linecap="round" stroke-linejoin="round"/>
<path id="path26274" d="M136.87 138.43H102.406V134.057H136.87V138.43Z" fill="white" stroke="#DADADA" stroke-width="0.32" stroke-miterlimit="10" stroke-linecap="round" stroke-linejoin="round"/>
<path id="path26276" d="M136.87 137.166H102.405V132.793H136.87V137.166Z" fill="white" stroke="#DADADA" stroke-width="0.32" stroke-miterlimit="10" stroke-linecap="round" stroke-linejoin="round"/>
<path id="path26278" d="M88.7737 36.6001H69.9983V25.0263H88.7737V36.6001Z" fill="#DADADA" stroke="#DADADA" stroke-width="0.32" stroke-miterlimit="10" stroke-linecap="round" stroke-linejoin="round"/>
<path id="path26280" d="M88.774 36.6001H82.2773V25.0263H88.774V36.6001Z" fill="white" stroke="#DADADA" stroke-width="0.32" stroke-miterlimit="10" stroke-linecap="round" stroke-linejoin="round"/>
<path id="path26282" d="M136.356 36.6009H128.64V27.8559H136.356V36.6009Z" fill="white" stroke="#DADADA" stroke-width="0.32" stroke-miterlimit="10" stroke-linecap="round" stroke-linejoin="round"/>
<path id="path26284" d="M132.79 36.6009H125.074V27.8559H132.79V36.6009Z" fill="#DADADA" stroke="#DADADA" stroke-width="0.32" stroke-miterlimit="10" stroke-linecap="round" stroke-linejoin="round"/>
<path id="path26286" d="M141.425 36.6007H68.3386V31.0695H141.425V36.6007Z" fill="white" stroke="#DADADA" stroke-width="0.32" stroke-miterlimit="10" stroke-linecap="round" stroke-linejoin="round"/>
<path id="path26288" d="M141.425 36.6007H97.7197V31.0695H141.425V36.6007Z" fill="white" stroke="#DADADA" stroke-width="0.32" stroke-miterlimit="10" stroke-linecap="round" stroke-linejoin="round"/>
<g id="g26294">
<path id="path26296" d="M99.6003 31.0693V33.3922" stroke="#DADADA" stroke-width="0.32" stroke-miterlimit="10" stroke-linecap="round" stroke-linejoin="round"/>
</g>
<g id="g26302">
<path id="path26304" d="M100.797 31.0693V33.3922" stroke="#DADADA" stroke-width="0.32" stroke-miterlimit="10" stroke-linecap="round" stroke-linejoin="round"/>
</g>
<g id="g26310">
<path id="path26312" d="M100.797 34.0177V35.7918" stroke="#DADADA" stroke-width="0.32" stroke-miterlimit="10" stroke-linecap="round" stroke-linejoin="round"/>
</g>
<g id="g26318">
<path id="path26320" d="M101.991 31.0693V33.3922" stroke="#DADADA" stroke-width="0.32" stroke-miterlimit="10" stroke-linecap="round" stroke-linejoin="round"/>
</g>
<g id="g26326">
<path id="path26328" d="M101.991 34.1177V35.7621" stroke="#DADADA" stroke-width="0.32" stroke-miterlimit="10" stroke-linecap="round" stroke-linejoin="round"/>
</g>
<g id="g26334">
<path id="path26336" d="M103.108 34.1182V35.1547" stroke="#DADADA" stroke-width="0.32" stroke-miterlimit="10" stroke-linecap="round" stroke-linejoin="round"/>
</g>
<g id="g26342">
<path id="path26344" d="M103.188 31.0693V33.3922" stroke="#DADADA" stroke-width="0.32" stroke-miterlimit="10" stroke-linecap="round" stroke-linejoin="round"/>
</g>
<g id="g26350">
<path id="path26352" d="M104.543 32.8031V33.3922" stroke="#DADADA" stroke-width="0.32" stroke-miterlimit="10" stroke-linecap="round" stroke-linejoin="round"/>
</g>
<g id="g26358">
<path id="path26360" d="M104.623 31.0684V32.389" stroke="#DADADA" stroke-width="0.32" stroke-miterlimit="10" stroke-linecap="round" stroke-linejoin="round"/>
</g>
<g id="g26366">
<path id="path26368" d="M99.6003 33.859V35.2347" stroke="#DADADA" stroke-width="0.32" stroke-miterlimit="10" stroke-linecap="round" stroke-linejoin="round"/>
</g>
<g id="g26370">
<g id="Clip path group_4">
<mask id="mask3_159_40706" style="mask-type:luminance" maskUnits="userSpaceOnUse" x="0" y="0" width="161" height="160">
<g id="clipPath26376">
<path id="path26374" d="M0.5 0H160.5V160H0.5V0Z" fill="white"/>
</g>
</mask>
<g mask="url(#mask3_159_40706)">
<g id="g26372">
<g id="g26378">
<path id="path26380" d="M8.7636 51.3099C10.1284 51.9057 13.466 51.8305 13.4686 51.8305C13.5031 51.8299 12.7511 49.6455 12.6878 49.5134C11.9556 47.9812 9.63976 45.4516 7.75528 45.7063C6.39784 45.89 5.64296 47.2484 5.9492 48.5265C6.26248 49.8321 7.60168 50.8017 8.7636 51.3099Z" fill="#1A2E35"/>
</g>
<g id="g26382">
<path id="path26384" d="M9.91602 60.9783C11.3317 61.1847 14.3103 60.3211 14.5471 60.2513C15.0175 61.9185 15.6351 63.5915 16.3538 65.25C16.7631 66.1985 17.2056 67.1412 17.6607 68.0807C17.3893 67.683 17.1429 67.3291 17.1035 67.283C15.9922 65.9988 13.0907 64.171 11.341 64.9144C10.0795 65.4497 9.71058 66.9592 10.3435 68.1112C10.9896 69.2875 12.5384 69.8696 13.7931 70.052C15.0664 70.2379 17.6207 69.5521 18.2946 69.3617C18.4728 69.7204 18.6469 70.0804 18.8271 70.4382C19.6895 72.156 20.5573 73.866 21.3576 75.5697C21.6399 76.1697 21.8959 76.771 22.1541 77.372C21.9125 77.0187 21.7061 76.7233 21.6696 76.6811C20.5589 75.3976 17.6575 73.5691 15.9071 74.3124C14.6459 74.8478 14.2767 76.3575 14.9099 77.5092C15.5567 78.6855 17.1045 79.2676 18.3595 79.4503C19.5749 79.6276 21.9381 79.0158 22.7394 78.7934C22.9855 79.4167 23.2328 80.0404 23.4431 80.6558C23.5771 81.0788 23.7359 81.4769 23.8463 81.9096C23.9653 82.3355 24.0827 82.7572 24.1992 83.1748C24.3944 83.987 24.6005 84.8244 24.7704 85.6216C24.893 86.1755 24.9999 86.7051 25.109 87.2388C24.8347 86.6379 24.2735 85.4731 24.2155 85.3809C23.3122 83.9435 20.7211 81.6977 18.8783 82.1665C17.5506 82.5051 16.957 83.9412 17.4088 85.1758C17.8693 86.4363 19.3112 87.2459 20.5237 87.6168C21.8594 88.0248 24.8155 87.652 25.1848 87.603C25.3621 88.4862 25.5259 89.347 25.6674 90.162C25.7739 90.7649 25.8706 91.3448 25.9595 91.9016H27.1435C27.0319 91.2817 26.9099 90.6334 26.7749 89.955C26.5986 89.0574 26.3925 88.1015 26.1711 87.122C26.3935 87.0337 27.6543 86.5239 28.7717 85.8993C29.7448 86.9531 32.2386 88.187 32.5615 88.3438C32.2223 89.1783 31.884 89.9867 31.5525 90.7444C31.3778 91.1463 31.2085 91.5249 31.0395 91.9016H32.2914C32.3909 91.6635 32.4895 91.4305 32.5906 91.1828C32.9387 90.3371 33.2943 89.4257 33.6498 88.4871C34.0079 88.562 36.9343 89.1563 38.2981 88.8484C39.5352 88.5688 41.0335 87.8689 41.5874 86.6459C42.1295 85.4487 41.6443 83.9723 40.3451 83.5361C38.5429 82.9303 35.7915 84.9777 34.7835 86.3438C34.7237 86.4244 34.1762 87.371 33.8408 87.9739C33.9842 87.5899 34.1275 87.218 34.2703 86.8203C34.5583 86.0363 34.8223 85.2452 35.109 84.3953C35.2335 83.98 35.3589 83.5608 35.4856 83.1371C35.62 82.7195 35.7093 82.2612 35.8242 81.8196C36.0696 80.7905 36.2677 79.7355 36.444 78.6686C37.1311 78.9185 39.5845 79.7719 40.8555 79.6827C42.1205 79.5937 43.7074 79.1291 44.4399 78.0043C45.157 76.9028 44.9013 75.3697 43.6837 74.7415C41.9935 73.8702 38.9637 75.4769 37.7605 76.6747C37.6853 76.7492 36.9183 77.7057 36.5074 78.2391C36.6082 77.5972 36.7119 76.9566 36.7928 76.3035C37.0271 74.418 37.205 72.5025 37.3915 70.5918C37.4482 70.0068 37.5115 69.4244 37.5733 68.8411C37.8168 68.9329 40.7106 70.0104 42.1343 69.9102C43.3992 69.8219 44.9864 69.3569 45.7186 68.2318C46.436 67.1307 46.18 65.5975 44.9627 64.9697C43.2725 64.098 40.2427 65.7048 39.0395 66.9025C38.949 66.9924 37.8472 68.3707 37.5842 68.7348C37.7199 67.45 37.8671 66.1716 38.0632 64.9169C38.3314 63.1851 38.6907 61.5009 39.1595 59.8951C39.2725 59.938 42.2882 61.076 43.7461 60.9739C45.0111 60.8849 46.5983 60.42 47.3307 59.2952C48.0479 58.194 47.7922 56.6609 46.5746 56.0327C44.8843 55.1614 41.8549 56.7681 40.6511 57.9655C40.557 58.0596 39.3723 59.5428 39.1768 59.8273C39.205 59.7319 39.2235 59.6299 39.2527 59.5348C39.7749 57.827 40.4949 56.2379 41.2421 54.7831C41.6747 53.9371 42.1355 53.1521 42.6005 52.3988C43.1407 52.6686 45.6216 53.8731 46.9435 53.9262C48.2111 53.9767 49.8395 53.6891 50.6907 52.6513C51.525 51.6356 51.4389 50.0836 50.2978 49.3259C48.7135 48.2737 45.5259 49.5383 44.1979 50.5966C44.1259 50.6539 43.4568 51.3204 42.9762 51.8126C43.1912 51.4756 43.4072 51.1243 43.6197 50.8059C44.4152 49.6078 45.2175 48.5598 45.9355 47.6376C46.348 47.1166 46.7311 46.6532 47.0946 46.2238C47.7621 46.2119 50.4527 46.1304 51.6293 45.578C52.7768 45.0388 54.0898 44.0334 54.3675 42.7201C54.6392 41.4337 53.8479 40.0961 52.4859 39.9499C50.5954 39.7457 48.3487 42.3368 47.6578 43.8881C47.5983 44.0225 46.9055 46.226 46.9403 46.2257C46.9403 46.2257 46.973 46.2254 46.9807 46.2251C46.6226 46.6315 46.244 47.0712 45.8395 47.5601C45.1 48.4686 44.2728 49.5019 43.4485 50.6872C42.6213 51.8696 41.756 53.1774 40.9688 54.6372C40.1778 56.0993 39.4207 57.6782 38.8504 59.4052C38.844 59.4248 38.8399 59.4459 38.8335 59.4657C38.8434 58.9086 38.8187 57.3502 38.8031 57.2308C38.5848 55.547 37.1736 52.4216 35.3032 52.0756C33.9563 51.827 32.8155 52.882 32.708 54.1921C32.5986 55.5303 33.5685 56.8689 34.5147 57.714C35.5813 58.6667 38.5423 59.5896 38.7781 59.6625C38.2501 61.3124 37.8427 63.0484 37.5272 64.8279C37.3455 65.8452 37.1944 66.8756 37.0559 67.9105C37.0488 67.4286 37.0392 66.9979 37.0309 66.9377C36.8127 65.2536 35.4015 62.1284 33.5314 61.7828C32.1842 61.5336 31.0434 62.5892 30.9362 63.899C30.8264 65.2369 31.7967 66.5761 32.7426 67.4209C33.7023 68.2782 36.2107 69.1156 36.8773 69.3284C36.8287 69.7259 36.7752 70.1227 36.7279 70.5201C36.4997 72.4286 36.2805 74.3335 36.0079 76.196C35.9125 76.8523 35.7941 77.4948 35.6779 78.1383C35.6712 77.7108 35.6619 77.3502 35.6549 77.2958C35.4363 75.6116 34.0255 72.4862 32.1557 72.1403C30.8085 71.8916 29.6674 72.9467 29.5599 74.2571C29.4501 75.5943 30.4207 76.9339 31.3666 77.7787C32.2821 78.5969 34.5909 79.3908 35.3819 79.6472C35.2434 80.3028 35.1055 80.9595 34.9413 81.5886C34.8197 82.0155 34.732 82.4347 34.5861 82.8571C34.4501 83.2772 34.316 83.6945 34.1826 84.107C33.8968 84.892 33.6072 85.7038 33.3093 86.4628C33.1061 86.9921 32.9026 87.4932 32.6994 87.9979C32.8021 87.3457 32.9765 86.0647 32.9791 85.9563C33.005 84.8286 32.6047 82.9944 31.8072 81.7054C31.812 81.5387 31.8027 81.3729 31.7762 81.2078C31.5679 79.9102 30.3487 78.9463 29.0245 79.299C27.1871 79.7879 26.0216 83.0139 25.9349 84.7092C25.9295 84.8091 25.9951 85.9006 26.0479 86.5889C25.9551 86.1892 25.8699 85.8001 25.7698 85.3899C25.5768 84.5771 25.3605 83.7716 25.1314 82.9041C25.0063 82.4891 24.8792 82.0705 24.7509 81.6468C24.6331 81.2247 24.4546 80.7931 24.3071 80.3617C23.9435 79.3681 23.5269 78.3784 23.0853 77.3915C23.7967 77.2209 26.3135 76.5793 27.324 75.8036C28.3304 75.0318 29.3973 73.7684 29.388 72.4263C29.3784 71.1118 28.3199 69.9742 26.9576 70.1224C25.0674 70.3275 23.4264 73.339 23.0834 75.002C23.0623 75.106 22.9499 76.3265 22.9013 76.9985C22.6312 76.4075 22.3643 75.8158 22.0715 75.226C21.2271 73.5246 20.3189 71.8283 19.42 70.1323C19.1445 69.6129 18.8763 69.0923 18.6056 68.572C18.8597 68.5137 21.868 67.8158 22.9999 66.9473C24.0059 66.1755 25.0731 64.9121 25.0635 63.57C25.0543 62.2558 23.9954 61.1182 22.6335 61.266C20.7429 61.4715 19.1023 64.483 18.7592 66.1457C18.7333 66.2712 18.5749 68.0283 18.5563 68.4769C17.9608 67.331 17.3781 66.1831 16.8495 65.0283C16.1183 63.4359 15.4888 61.8331 14.9935 60.2353C15.1119 60.2084 18.2546 59.4939 19.4143 58.6046C20.4207 57.8324 21.4879 56.5694 21.4779 55.227C21.4687 53.9124 20.4098 52.7752 19.0475 52.9233C17.1573 53.1284 15.5167 56.1399 15.1736 57.803C15.1467 57.9336 14.9771 59.8241 14.9707 60.1684C14.9416 60.0737 14.9007 59.9784 14.8725 59.8836C14.3659 58.1704 14.0898 56.4478 13.9106 54.8222C13.8043 53.8782 13.756 52.9697 13.7285 52.0846C14.3275 52.0116 17.0616 51.6475 18.1931 50.9624C19.2786 50.3051 20.4779 49.1668 20.6159 47.8318C20.7506 46.5246 19.8229 45.2775 18.4533 45.275C16.5515 45.2715 14.5903 48.0846 14.0664 49.6996C14.0379 49.7876 13.8472 50.7124 13.7179 51.3883C13.7119 50.9886 13.6978 50.5761 13.6994 50.1934C13.7023 48.7556 13.7931 47.4385 13.8831 46.2734C13.9397 45.611 14.004 45.0132 14.0699 44.4548C14.6203 44.0763 16.8194 42.5239 17.4959 41.4145C18.156 40.3316 18.6959 38.7687 18.2031 37.5204C17.7205 36.2977 16.3224 35.6187 15.1058 36.2475C13.4162 37.1204 12.972 40.5211 13.2511 42.1959C13.2757 42.3406 13.9138 44.5608 13.9426 44.5415C13.9426 44.5415 13.9695 44.5233 13.9759 44.5185C13.9013 45.0548 13.828 45.6312 13.7605 46.2616C13.6447 47.4273 13.5247 48.7454 13.4911 50.1889C13.4536 51.6315 13.4533 53.1998 13.6021 54.8516C13.7493 56.5073 13.9883 58.242 14.4661 59.9969C14.4712 60.0168 14.4795 60.0369 14.485 60.0568C14.1861 59.5863 13.3055 58.3006 13.2264 58.2094C12.1157 56.9252 9.21426 55.0974 7.46386 55.8404C6.20306 56.3761 5.83346 57.8856 6.46674 59.0375C7.11378 60.2139 8.6613 60.7953 9.91602 60.9783Z" fill="#1A2E35"/>
</g>
<g id="g26386">
<path id="path26388" d="M42.524 52.0448C42.5534 52.0634 43.131 49.8262 43.1515 49.6813C43.3854 47.9997 42.8494 44.6122 41.1371 43.785C39.9038 43.1891 38.5246 43.9059 38.0754 45.1411C37.6162 46.4022 38.1979 47.9504 38.8875 49.0147C39.6965 50.265 42.5221 52.0432 42.524 52.0448Z" fill="#1A2E35"/>
</g>
<g id="g26390">
<path id="path26392" d="M92.397 126.035C93.1525 126.365 95.0009 126.323 95.0025 126.323C95.0213 126.322 94.605 125.113 94.5701 125.04C94.1644 124.191 92.8821 122.79 91.8386 122.932C91.0866 123.033 90.6687 123.786 90.8383 124.494C91.0117 125.216 91.7532 125.753 92.397 126.035Z" fill="#1A2E35"/>
</g>
<g id="g26394">
<path id="path26396" d="M93.0338 131.388C93.8175 131.502 95.4671 131.024 95.5986 130.985C95.8587 131.908 96.2008 132.835 96.5989 133.754C96.8258 134.279 97.0706 134.801 97.3224 135.321C97.1723 135.101 97.036 134.905 97.0139 134.879C96.3989 134.168 94.7919 133.156 93.8229 133.568C93.1243 133.864 92.9202 134.7 93.2706 135.338C93.6283 135.989 94.4859 136.312 95.1807 136.413C95.8859 136.515 97.3003 136.136 97.6735 136.03C97.7727 136.229 97.8687 136.428 97.9685 136.626C98.4463 137.578 98.9269 138.525 99.3701 139.468C99.5263 139.801 99.6677 140.133 99.8111 140.466C99.6773 140.271 99.5627 140.107 99.5429 140.084C98.9275 139.373 97.3208 138.36 96.3515 138.772C95.6533 139.068 95.4488 139.905 95.7995 140.542C96.1576 141.194 97.0146 141.516 97.7096 141.617C98.3826 141.715 99.6914 141.377 100.135 141.253C100.271 141.599 100.409 141.944 100.525 142.285C100.599 142.519 100.687 142.74 100.748 142.979C100.814 143.215 100.879 143.448 100.944 143.68C101.052 144.13 101.166 144.594 101.26 145.035C101.328 145.341 101.387 145.635 101.447 145.93C101.296 145.598 100.985 144.953 100.953 144.901C100.453 144.106 99.0175 142.861 97.997 143.122C97.2616 143.309 96.933 144.104 97.1832 144.788C97.4383 145.486 98.2367 145.934 98.908 146.14C99.6479 146.366 101.285 146.159 101.489 146.132C101.587 146.621 101.678 147.098 101.757 147.549C101.816 147.883 101.869 148.204 101.919 148.513H102.574C102.512 148.169 102.445 147.81 102.37 147.434C102.272 146.938 102.158 146.408 102.036 145.866C102.159 145.817 102.857 145.534 103.476 145.189C104.015 145.772 105.396 146.455 105.574 146.542C105.387 147.004 105.2 147.452 105.016 147.872C104.919 148.094 104.825 148.304 104.732 148.513H105.425C105.48 148.381 105.534 148.251 105.591 148.114C105.784 147.646 105.98 147.141 106.177 146.622C106.375 146.663 107.996 146.992 108.751 146.822C109.436 146.667 110.266 146.279 110.573 145.602C110.873 144.939 110.604 144.122 109.885 143.88C108.887 143.544 107.363 144.678 106.805 145.435C106.772 145.479 106.469 146.004 106.283 146.338C106.362 146.125 106.441 145.919 106.521 145.699C106.681 145.265 106.826 144.826 106.985 144.356C107.054 144.126 107.123 143.893 107.194 143.659C107.268 143.427 107.318 143.174 107.381 142.929C107.517 142.359 107.627 141.775 107.724 141.184C108.105 141.323 109.464 141.795 110.168 141.746C110.868 141.697 111.747 141.439 112.153 140.817C112.55 140.207 112.408 139.357 111.734 139.01C110.798 138.527 109.12 139.417 108.454 140.08C108.412 140.122 107.987 140.651 107.76 140.946C107.815 140.591 107.873 140.236 107.918 139.874C108.048 138.831 108.146 137.77 108.249 136.712C108.281 136.387 108.316 136.065 108.35 135.742C108.485 135.793 110.087 136.39 110.876 136.334C111.576 136.285 112.455 136.027 112.861 135.405C113.258 134.794 113.116 133.946 112.442 133.598C111.506 133.115 109.828 134.005 109.162 134.668C109.112 134.718 108.502 135.482 108.356 135.683C108.431 134.972 108.513 134.264 108.621 133.569C108.77 132.61 108.969 131.677 109.228 130.788C109.291 130.812 110.961 131.442 111.768 131.385C112.469 131.336 113.348 131.079 113.753 130.456C114.151 129.846 114.009 128.997 113.335 128.649C112.399 128.166 110.721 129.056 110.054 129.719C110.002 129.771 109.346 130.593 109.238 130.75C109.254 130.698 109.264 130.641 109.28 130.588C109.569 129.642 109.968 128.762 110.382 127.957C110.621 127.488 110.876 127.054 111.134 126.636C111.433 126.786 112.807 127.453 113.539 127.482C114.241 127.51 115.143 127.351 115.614 126.777C116.076 126.214 116.028 125.354 115.397 124.935C114.519 124.352 112.754 125.052 112.018 125.638C111.979 125.67 111.608 126.039 111.342 126.312C111.461 126.125 111.581 125.93 111.698 125.754C112.139 125.091 112.583 124.511 112.981 124C113.209 123.711 113.421 123.455 113.623 123.217C113.992 123.21 115.482 123.165 116.134 122.859C116.769 122.561 117.497 122.004 117.65 121.276C117.801 120.564 117.362 119.823 116.608 119.742C115.561 119.63 114.317 121.064 113.935 121.923C113.902 121.998 113.518 123.218 113.537 123.218C113.537 123.218 113.555 123.218 113.56 123.218C113.361 123.443 113.152 123.686 112.928 123.957C112.518 124.46 112.06 125.032 111.603 125.689C111.145 126.343 110.666 127.068 110.23 127.876C109.792 128.686 109.373 129.56 109.057 130.517C109.054 130.528 109.051 130.539 109.048 130.55C109.053 130.242 109.04 129.378 109.031 129.313C108.91 128.38 108.129 126.649 107.093 126.458C106.347 126.32 105.715 126.904 105.656 127.63C105.595 128.37 106.132 129.112 106.656 129.58C107.247 130.108 108.887 130.619 109.017 130.659C108.725 131.573 108.499 132.534 108.324 133.52C108.224 134.083 108.14 134.654 108.064 135.227C108.059 134.96 108.054 134.721 108.05 134.688C107.929 133.755 107.147 132.025 106.112 131.833C105.366 131.695 104.734 132.28 104.674 133.005C104.614 133.746 105.151 134.488 105.675 134.955C106.206 135.43 107.595 135.894 107.964 136.012C107.937 136.232 107.908 136.451 107.881 136.672C107.755 137.729 107.634 138.784 107.483 139.815C107.43 140.178 107.365 140.534 107.3 140.891C107.297 140.654 107.292 140.454 107.288 140.424C107.167 139.491 106.385 137.761 105.35 137.569C104.603 137.432 103.972 138.016 103.912 138.741C103.852 139.482 104.389 140.224 104.913 140.691C105.42 141.145 106.698 141.584 107.136 141.726C107.06 142.089 106.983 142.453 106.893 142.802C106.825 143.038 106.777 143.27 106.696 143.504C106.62 143.737 106.546 143.968 106.472 144.196C106.314 144.631 106.153 145.08 105.989 145.501C105.876 145.794 105.763 146.071 105.651 146.351C105.707 145.99 105.804 145.28 105.806 145.22C105.82 144.595 105.599 143.58 105.157 142.866C105.16 142.774 105.154 142.682 105.14 142.591C105.024 141.872 104.349 141.338 103.616 141.533C102.598 141.804 101.953 143.591 101.905 144.529C101.902 144.585 101.938 145.189 101.967 145.57C101.916 145.349 101.869 145.134 101.813 144.906C101.707 144.457 101.587 144.01 101.46 143.53C101.39 143.3 101.32 143.068 101.249 142.834C101.184 142.6 101.085 142.361 101.003 142.122C100.802 141.572 100.571 141.024 100.327 140.477C100.721 140.383 102.114 140.027 102.674 139.598C103.231 139.17 103.822 138.471 103.817 137.728C103.812 137 103.225 136.37 102.471 136.451C101.425 136.565 100.516 138.233 100.326 139.154C100.314 139.211 100.252 139.888 100.225 140.26C100.075 139.932 99.9275 139.604 99.7653 139.278C99.2975 138.336 98.7947 137.396 98.2968 136.457C98.1445 136.169 97.996 135.881 97.8459 135.593C97.9867 135.561 99.6527 135.174 100.28 134.693C100.837 134.266 101.427 133.566 101.422 132.823C101.417 132.095 100.831 131.465 100.077 131.547C99.0293 131.661 98.1208 133.328 97.9311 134.249C97.9167 134.319 97.8287 135.292 97.8184 135.54C97.4888 134.906 97.1663 134.27 96.8735 133.631C96.4683 132.749 96.1199 131.861 95.8456 130.976C95.9112 130.962 97.6517 130.566 98.2936 130.073C98.8511 129.646 99.4418 128.946 99.4367 128.203C99.4315 127.475 98.845 126.845 98.0907 126.927C97.0437 127.041 96.1352 128.708 95.9455 129.629C95.9304 129.701 95.8367 130.749 95.8331 130.939C95.8168 130.887 95.7941 130.834 95.7784 130.781C95.4981 129.833 95.3451 128.879 95.2459 127.979C95.1871 127.456 95.1605 126.953 95.1451 126.462C95.477 126.422 96.9909 126.221 97.6175 125.841C98.2184 125.477 98.8827 124.847 98.9592 124.107C99.0338 123.383 98.5202 122.693 97.7615 122.691C96.7083 122.689 95.6223 124.248 95.3323 125.142C95.3163 125.191 95.2107 125.703 95.1394 126.077C95.1359 125.856 95.1282 125.627 95.1291 125.415C95.1307 124.619 95.1807 123.89 95.2306 123.244C95.2619 122.877 95.2975 122.546 95.3343 122.237C95.6389 122.028 96.8568 121.168 97.2312 120.554C97.597 119.954 97.8959 119.088 97.6232 118.397C97.3557 117.72 96.5816 117.344 95.9077 117.692C94.9723 118.176 94.7263 120.059 94.8805 120.986C94.8943 121.066 95.2475 122.296 95.2639 122.285C95.2639 122.285 95.2786 122.275 95.2818 122.273C95.2405 122.57 95.2002 122.889 95.1627 123.238C95.0984 123.883 95.0322 124.613 95.0136 125.413C94.9928 126.211 94.9925 127.08 95.0751 127.995C95.1567 128.912 95.2888 129.873 95.5535 130.844C95.5563 130.855 95.5608 130.866 95.564 130.877C95.3986 130.617 94.9106 129.905 94.8671 129.854C94.252 129.143 92.645 128.131 91.676 128.542C90.9775 128.839 90.773 129.675 91.1237 130.313C91.4818 130.964 92.3391 131.287 93.0338 131.388Z" fill="#1A2E35"/>
</g>
<g id="g26398">
<path id="path26400" d="M111.092 126.441C111.108 126.451 111.428 125.212 111.439 125.132C111.569 124.2 111.272 122.325 110.324 121.866C109.641 121.536 108.877 121.934 108.628 122.618C108.374 123.316 108.696 124.173 109.078 124.763C109.526 125.455 111.091 126.44 111.092 126.441Z" fill="#1A2E35"/>
</g>
</g>
</g>
</g>
</g>
<g id="g26402">
<g id="Clip path group_5">
<mask id="mask4_159_40706" style="mask-type:luminance" maskUnits="userSpaceOnUse" x="0" y="0" width="161" height="160">
<g id="clipPath26408">
<path id="path26406" d="M0.5 0H160.5V160H0.5V0Z" fill="white"/>
</g>
</mask>
<g mask="url(#mask4_159_40706)">
<g id="g26404">
<g id="g26410">
<path id="path26412" d="M88.1328 148.513H27.0089C24.9257 148.513 23.2368 146.824 23.2368 144.74V63.0562C23.2368 60.9727 24.9257 59.284 27.0089 59.284H88.1328C90.216 59.284 91.9049 60.9727 91.9049 63.0562V144.74C91.9049 146.824 90.2163 148.513 88.1328 148.513Z" fill="#1A2E35"/>
</g>
<path id="path26414" d="M88.6194 144.278H26.5224V64.559H88.6194V144.278Z" fill="white" stroke="#1A2E35" stroke-width="0.32" stroke-miterlimit="10" stroke-linecap="round" stroke-linejoin="round"/>
<g id="g26416">
<path id="path26418" d="M44.9597 76.4985H70.1796" stroke="#1A2E35" stroke-width="0.32" stroke-miterlimit="10" stroke-linecap="round" stroke-linejoin="round"/>
</g>
<g id="g26420">
<path id="path26422" d="M73.4705 87.3629H82.2084" stroke="#1A2E35" stroke-width="0.32" stroke-miterlimit="10" stroke-linecap="round" stroke-linejoin="round"/>
</g>
<g id="g26424">
<path id="path26426" d="M48.3289 87.3625H71.39" stroke="#1A2E35" stroke-width="0.32" stroke-miterlimit="10" stroke-linecap="round" stroke-linejoin="round"/>
</g>
<g id="g26428">
<path id="path26430" d="M37.5786 87.3625H46.7684" stroke="#1A2E35" stroke-width="0.32" stroke-miterlimit="10" stroke-linecap="round" stroke-linejoin="round"/>
</g>
<g id="g26432">
<path id="path26434" d="M32.9328 87.3625H35.3242" stroke="#1A2E35" stroke-width="0.32" stroke-miterlimit="10" stroke-linecap="round" stroke-linejoin="round"/>
</g>
<g id="g26436">
<path id="path26438" d="M73.6445 95.8976H82.209" stroke="#1A2E35" stroke-width="0.32" stroke-miterlimit="10" stroke-linecap="round" stroke-linejoin="round"/>
</g>
<g id="g26440">
<path id="path26442" d="M59.4253 95.8976H71.9095" stroke="#1A2E35" stroke-width="0.32" stroke-miterlimit="10" stroke-linecap="round" stroke-linejoin="round"/>
</g>
<g id="g26444">
<path id="path26446" d="M38.0981 95.8976H57.5182" stroke="#1A2E35" stroke-width="0.32" stroke-miterlimit="10" stroke-linecap="round" stroke-linejoin="round"/>
</g>
<g id="g26448">
<path id="path26450" d="M32.9331 95.8976H35.8448" stroke="#1A2E35" stroke-width="0.32" stroke-miterlimit="10" stroke-linecap="round" stroke-linejoin="round"/>
</g>
<g id="g26452">
<path id="path26454" d="M68.7882 104.434H82.2077" stroke="#1A2E35" stroke-width="0.32" stroke-miterlimit="10" stroke-linecap="round" stroke-linejoin="round"/>
</g>
<g id="g26456">
<path id="path26458" d="M40.0052 104.434H66.3607" stroke="#1A2E35" stroke-width="0.32" stroke-miterlimit="10" stroke-linecap="round" stroke-linejoin="round"/>
</g>
<g id="g26460">
<path id="path26462" d="M32.9328 104.434H37.9251" stroke="#1A2E35" stroke-width="0.32" stroke-miterlimit="10" stroke-linecap="round" stroke-linejoin="round"/>
</g>
<g id="g26464">
<path id="path26466" d="M79.0187 112.97H82.2082" stroke="#1A2E35" stroke-width="0.32" stroke-miterlimit="10" stroke-linecap="round" stroke-linejoin="round"/>
</g>
<g id="g26468">
<path id="path26470" d="M42.0864 112.97H75.7248" stroke="#1A2E35" stroke-width="0.32" stroke-miterlimit="10" stroke-linecap="round" stroke-linejoin="round"/>
</g>
<g id="g26472">
<path id="path26474" d="M32.9328 112.97H39.6589" stroke="#1A2E35" stroke-width="0.32" stroke-miterlimit="10" stroke-linecap="round" stroke-linejoin="round"/>
</g>
<g id="g26476">
<path id="path26478" d="M78.4995 121.505H82.209" stroke="#1A2E35" stroke-width="0.32" stroke-miterlimit="10" stroke-linecap="round" stroke-linejoin="round"/>
</g>
<g id="g26480">
<path id="path26482" d="M49.5425 121.505H75.7249" stroke="#1A2E35" stroke-width="0.32" stroke-miterlimit="10" stroke-linecap="round" stroke-linejoin="round"/>
</g>
<g id="g26484">
<path id="path26486" d="M32.9331 121.505H47.2886" stroke="#1A2E35" stroke-width="0.32" stroke-miterlimit="10" stroke-linecap="round" stroke-linejoin="round"/>
</g>
<g id="g26488">
<path id="path26490" d="M65.4952 130.042H82.2091" stroke="#1A2E35" stroke-width="0.32" stroke-miterlimit="10" stroke-linecap="round" stroke-linejoin="round"/>
</g>
<g id="g26492">
<path id="path26494" d="M32.9331 130.042H62.2003" stroke="#1A2E35" stroke-width="0.32" stroke-miterlimit="10" stroke-linecap="round" stroke-linejoin="round"/>
</g>
<g id="g26496">
<path id="path26498" d="M59.3879 54.0998C58.251 54.0998 57.3291 53.1779 57.3291 52.0409C57.3291 50.9036 58.251 49.982 59.3879 49.982C60.5252 49.982 61.4468 50.9036 61.4468 52.0409C61.4468 53.1779 60.5252 54.0998 59.3879 54.0998ZM65.7489 57.4822C64.4007 57.4822 63.6602 56.0022 64.3767 54.8601C65.1137 53.6864 65.4465 52.2329 65.179 50.6928C64.7774 48.3817 62.954 46.4771 60.658 45.9971C56.8545 45.2016 53.5054 48.0832 53.5054 51.7468C53.5054 52.9305 53.8555 54.0313 54.458 54.9526C55.1691 56.0396 54.3271 57.4822 53.0279 57.4822H42.7991L45.5639 65.4236H73.2122L75.9767 57.4822H65.7489Z" fill="white"/>
</g>
<g id="g26500">
<path id="path26502" d="M59.3879 54.0998C58.251 54.0998 57.329 53.1779 57.329 52.0409C57.329 50.9036 58.251 49.982 59.3879 49.982C60.5252 49.982 61.4468 50.9036 61.4468 52.0409C61.4468 53.1779 60.5252 54.0998 59.3879 54.0998ZM65.7489 57.4822C64.4007 57.4822 63.6602 56.0022 64.3767 54.8601C65.1137 53.6864 65.4465 52.2329 65.179 50.6928C64.7774 48.3817 62.954 46.4771 60.658 45.9971C56.8545 45.2016 53.5054 48.0832 53.5054 51.7468C53.5054 52.9305 53.8555 54.0313 54.458 54.9526C55.1691 56.0396 54.3271 57.4822 53.0279 57.4822H42.7991L45.5639 65.4236H73.2122L75.9767 57.4822H65.7489Z" stroke="#1A2E35" stroke-width="0.32" stroke-miterlimit="10" stroke-linecap="round" stroke-linejoin="round"/>
</g>
</g>
</g>
</g>
</g>
<g id="g26504">
<g id="Clip path group_6">
<mask id="mask5_159_40706" style="mask-type:luminance" maskUnits="userSpaceOnUse" x="0" y="0" width="161" height="160">
<g id="clipPath26510">
<path id="path26508" d="M0.5 0H160.5V160H0.5V0Z" fill="white"/>
</g>
</mask>
<g mask="url(#mask5_159_40706)">
<g id="g26506">
<g id="g26512">
<path id="path26514" d="M46.0064 132.422C46.0064 128.496 42.8237 125.313 38.8973 125.313C34.9712 125.313 31.7882 128.496 31.7882 132.422C31.7882 136.349 34.9712 139.531 38.8973 139.531C42.8237 139.531 46.0064 136.349 46.0064 132.422Z" fill="#1A2E35"/>
</g>
<g id="g26516">
<path id="path26518" d="M46.0064 132.422C46.0064 128.496 42.8237 125.313 38.8973 125.313C34.9712 125.313 31.7882 128.496 31.7882 132.422C31.7882 136.349 34.9712 139.531 38.8973 139.531C42.8237 139.531 46.0064 136.349 46.0064 132.422Z" stroke="#1A2E35" stroke-width="0.32" stroke-miterlimit="10" stroke-linecap="round" stroke-linejoin="round"/>
</g>
<g id="g26520">
<path id="path26522" d="M39.4047 135.406C38.9394 135.4 38.5046 135.197 38.2054 134.848L35.0844 131.207C34.5113 130.538 34.589 129.528 35.2575 128.956C35.5465 128.708 35.9154 128.572 36.2959 128.572C36.7631 128.572 37.205 128.775 37.5087 129.129L39.4454 131.388L45.8588 124.246C46.1615 123.91 46.5945 123.717 47.0473 123.717C47.4415 123.717 47.8201 123.862 48.1135 124.125C48.7689 124.713 48.8233 125.725 48.2348 126.38L40.6057 134.876C40.3033 135.213 39.8703 135.406 39.4175 135.406H39.4047Z" fill="#599BFE"/>
</g>
<g id="g26524">
<path id="path26526" d="M47.0466 123.236C46.4578 123.236 45.8943 123.488 45.501 123.925L39.4533 130.66L37.8726 128.816C37.4774 128.355 36.9023 128.091 36.2953 128.091C35.8002 128.091 35.3206 128.269 34.9446 128.591C34.0751 129.336 33.9737 130.65 34.719 131.519L37.8399 135.161C38.229 135.614 38.7951 135.879 39.3925 135.886H39.3983H39.4169C40.0053 135.886 40.5685 135.634 40.9618 135.197L48.5913 126.7C49.3564 125.849 49.2857 124.533 48.4335 123.768C48.0517 123.425 47.5593 123.236 47.0466 123.236ZM47.0466 124.196C47.3122 124.196 47.5788 124.291 47.7922 124.482C48.2511 124.894 48.2889 125.601 47.877 126.059L40.2476 134.555C40.0357 134.791 39.7337 134.926 39.4169 134.926H39.4041C39.0825 134.922 38.7782 134.78 38.5689 134.536L35.4479 130.895C35.0466 130.426 35.1007 129.722 35.5689 129.32C35.7798 129.139 36.038 129.051 36.2953 129.051C36.6102 129.051 36.9228 129.184 37.1436 129.441L39.4364 132.116L46.2153 124.567C46.4357 124.322 46.7404 124.196 47.0466 124.196Z" fill="#1A2E35"/>
</g>
</g>
</g>
</g>
</g>
<g id="g26528">
<path id="path26530" d="M59.5334 49.9828V30.1165" stroke="#1A2E35" stroke-width="0.32" stroke-miterlimit="10" stroke-linecap="round" stroke-linejoin="round"/>
</g>
<g id="g26532">
<g id="Clip path group_7">
<mask id="mask6_159_40706" style="mask-type:luminance" maskUnits="userSpaceOnUse" x="0" y="0" width="161" height="160">
<g id="clipPath26538">
<path id="path26536" d="M0.5 0H160.5V160H0.5V0Z" fill="white"/>
</g>
</mask>
<g mask="url(#mask6_159_40706)">
<g id="g26534">
<g id="g26540">
<path id="path26542" d="M58.6254 26.1397V27.9918L57.8846 29.2882C57.8846 30.1502 58.5835 30.8491 59.4455 30.8491C60.3076 30.8491 61.0065 30.1502 61.0065 29.2882V27.9918" stroke="#1A2E35" stroke-width="0.96" stroke-miterlimit="10" stroke-linecap="round" stroke-linejoin="round"/>
</g>
<path id="path26544" d="M57.0173 26.0504H60.1393V22.5816H57.0173V26.0504Z" fill="white" stroke="#1A2E35" stroke-width="0.32" stroke-miterlimit="10" stroke-linecap="round" stroke-linejoin="round"/>
<path id="path26546" d="M55.8607 24.8942H61.2953V17.9275H55.8607V24.8942Z" fill="white" stroke="#1A2E35" stroke-width="0.32" stroke-miterlimit="10" stroke-linecap="round" stroke-linejoin="round"/>
<path id="path26548" d="M62.8568 23.5643H54.2424V21.4251H62.8568V23.5643Z" fill="white" stroke="#1A2E35" stroke-width="0.32" stroke-miterlimit="10" stroke-linecap="round" stroke-linejoin="round"/>
<g id="g26550">
<path id="path26552" d="M58.5776 21.4251H59.8109L61.5552 23.4031L61.3722 23.5643H60.4644L58.5776 21.4251Z" fill="#1A2E35"/>
</g>
<g id="g26554">
<path id="path26556" d="M62.1821 21.4256L62.8576 22.1913V23.5648H62.8355L60.9488 21.4256H62.1821Z" fill="#1A2E35"/>
</g>
<g id="g26558">
<path id="path26560" d="M56.2072 21.4252H57.4404L59.1851 23.4031L59.0017 23.5644H58.0939L56.2072 21.4252Z" fill="#1A2E35"/>
</g>
<g id="g26562">
<path id="path26564" d="M54.2427 21.8851V21.4253H55.0705L56.8148 23.4032L56.6318 23.5645H55.7236L54.2427 21.8851Z" fill="#1A2E35"/>
</g>
<g id="g26566">
<g id="path26568">
<path d="M58.7023 17.8055V13.6142V17.8055Z" fill="white"/>
<path d="M58.7023 17.8055V13.6142" stroke="#1A2E35" stroke-width="0.64" stroke-miterlimit="10" stroke-linecap="round" stroke-linejoin="round"/>
</g>
</g>
<g id="g26570">
<path id="path26572" d="M1.93146 13.507H60.8774V10.9966L49.4838 6.1684H1.93146" stroke="#1A2E35" stroke-width="0.64" stroke-miterlimit="10" stroke-linecap="round" stroke-linejoin="round"/>
</g>
<g id="g26574">
<path id="path26576" d="M49.4834 13.507V6.1684L41.9518 13.507V6.1684L49.4834 13.507Z" stroke="#1A2E35" stroke-width="0.64" stroke-miterlimit="10" stroke-linecap="round" stroke-linejoin="round"/>
</g>
<g id="g26578">
<path id="path26580" d="M41.9621 13.507V6.1684L34.4306 13.507V6.1684L41.9621 13.507Z" stroke="#1A2E35" stroke-width="0.64" stroke-miterlimit="10" stroke-linecap="round" stroke-linejoin="round"/>
</g>
<g id="g26582">
<path id="path26584" d="M34.4404 13.507V6.1684L26.9089 13.507V6.1684L34.4404 13.507Z" stroke="#1A2E35" stroke-width="0.64" stroke-miterlimit="10" stroke-linecap="round" stroke-linejoin="round"/>
</g>
<g id="g26586">
<path id="path26588" d="M26.9187 13.507V6.1684L19.3871 13.507V6.1684L26.9187 13.507Z" stroke="#1A2E35" stroke-width="0.64" stroke-miterlimit="10" stroke-linecap="round" stroke-linejoin="round"/>
</g>
<g id="g26590">
<path id="path26592" d="M19.3966 13.507V6.1684L11.8651 13.507V6.1684L19.3966 13.507Z" stroke="#1A2E35" stroke-width="0.64" stroke-miterlimit="10" stroke-linecap="round" stroke-linejoin="round"/>
</g>
<g id="g26594">
<path id="path26596" d="M11.8753 13.507V6.1684L4.34375 13.507V6.1684L11.8753 13.507Z" stroke="#1A2E35" stroke-width="0.64" stroke-miterlimit="10" stroke-linecap="round" stroke-linejoin="round"/>
</g>
</g>
</g>
</g>
</g>
<g id="g26598">
<g id="Clip path group_8">
<mask id="mask7_159_40706" style="mask-type:luminance" maskUnits="userSpaceOnUse" x="0" y="0" width="161" height="160">
<g id="clipPath26604">
<path id="path26602" d="M0.5 0H160.5V160H0.5V0Z" fill="white"/>
</g>
</mask>
<g mask="url(#mask7_159_40706)">
<g id="g26600">
<g id="g26606">
<path id="path26608" d="M126.874 88.1364L122.913 99.0714L122.66 99.0055L120.409 97.3828L119.579 98.2017L120.449 102.478C120.449 102.478 123.959 104.288 124.6 104.172C125.242 104.055 126 103.763 126 103.763C126 103.763 128.216 88.5444 128.274 88.2529C128.332 87.9613 127.983 87.1447 126.874 88.1364Z" fill="white"/>
</g>
<g id="g26610">
<path id="path26612" d="M126.874 88.1364L122.913 99.0714L122.66 99.0055L120.409 97.3828L119.579 98.2017L120.449 102.478C120.449 102.478 123.959 104.288 124.6 104.172C125.242 104.055 126 103.763 126 103.763C126 103.763 128.216 88.5444 128.274 88.2529C128.332 87.9613 127.983 87.1447 126.874 88.1364Z" stroke="#1A2E35" stroke-width="0.32" stroke-miterlimit="10" stroke-linecap="round" stroke-linejoin="round"/>
</g>
<g id="g26614">
<path id="path26616" d="M127.943 145.273C127.943 145.273 126.837 146.958 125.934 147.669C125.03 148.38 122.914 149.404 122.323 149.881C121.732 150.358 121.993 150.783 122.198 150.988C122.402 151.193 125.126 151.343 126.61 151.346C128.093 151.348 130.776 150.715 130.776 150.715C130.776 150.715 131.959 150.904 132.259 150.755C132.558 150.605 132.749 150.268 132.796 149.743C132.843 149.218 132.673 146.255 132.673 146.255L127.943 145.273Z" fill="white"/>
</g>
<g id="g26618">
<path id="path26620" d="M127.943 145.273C127.943 145.273 126.837 146.958 125.934 147.669C125.03 148.38 122.914 149.404 122.323 149.881C121.732 150.358 121.993 150.783 122.198 150.988C122.402 151.193 125.126 151.343 126.61 151.346C128.093 151.348 130.776 150.715 130.776 150.715C130.776 150.715 131.959 150.904 132.259 150.755C132.558 150.605 132.749 150.268 132.796 149.743C132.843 149.218 132.673 146.255 132.673 146.255L127.943 145.273Z" stroke="#1A2E35" stroke-width="0.32" stroke-miterlimit="10" stroke-linecap="round" stroke-linejoin="round"/>
</g>
<g id="g26622">
<path id="path26624" d="M131.124 149.928C129.971 150.113 129.744 150.375 127.512 150.709C125.674 150.984 122.952 150.646 121.961 150.47C121.953 150.692 122.084 150.874 122.198 150.988C122.402 151.193 125.126 151.343 126.61 151.345C128.094 151.348 130.776 150.715 130.776 150.715C130.776 150.715 131.96 150.904 132.259 150.755C132.556 150.606 132.747 150.273 132.795 149.756C132.417 149.773 131.811 149.817 131.124 149.928Z" fill="#1A2E35"/>
</g>
<g id="g26626">
<path id="path26628" d="M131.124 149.928C129.971 150.113 129.744 150.375 127.512 150.709C125.674 150.984 122.952 150.646 121.961 150.47C121.953 150.692 122.084 150.874 122.198 150.988C122.402 151.193 125.126 151.343 126.61 151.345C128.094 151.348 130.776 150.715 130.776 150.715C130.776 150.715 131.96 150.904 132.259 150.755C132.556 150.606 132.747 150.273 132.795 149.756C132.417 149.773 131.811 149.817 131.124 149.928Z" stroke="#1A2E35" stroke-width="0.32" stroke-miterlimit="10" stroke-linecap="round" stroke-linejoin="round"/>
</g>
<g id="g26630">
<path id="path26632" d="M128.905 146.52C128.905 146.52 127.625 145.948 126.764 146.908" stroke="#1A2E35" stroke-width="0.64" stroke-miterlimit="10" stroke-linecap="round" stroke-linejoin="round"/>
</g>
<g id="g26634">
<path id="path26636" d="M127.447 146.037C127.447 146.037 128.432 146.806 128.301 147.625" stroke="#1A2E35" stroke-width="0.64" stroke-miterlimit="10" stroke-linecap="round" stroke-linejoin="round"/>
</g>
<g id="g26638">
<path id="path26640" d="M127.95 147.406C127.95 147.406 126.944 146.939 126.257 147.74" stroke="#1A2E35" stroke-width="0.64" stroke-miterlimit="10" stroke-linecap="round" stroke-linejoin="round"/>
</g>
<g id="g26642">
<path id="path26644" d="M126.801 147.014C126.801 147.014 127.574 147.647 127.465 148.327" stroke="#1A2E35" stroke-width="0.64" stroke-miterlimit="10" stroke-linecap="round" stroke-linejoin="round"/>
</g>
<g id="g26646">
<path id="path26648" d="M127.21 148.312C127.21 148.312 126.278 147.872 124.813 148.389" stroke="#1A2E35" stroke-width="0.64" stroke-miterlimit="10" stroke-linecap="round" stroke-linejoin="round"/>
</g>
<g id="g26650">
<path id="path26652" d="M126.044 147.912C126.044 147.912 126.556 148.45 125.913 148.936" stroke="#1A2E35" stroke-width="0.64" stroke-miterlimit="10" stroke-linecap="round" stroke-linejoin="round"/>
</g>
<g id="g26654">
<path id="path26656" d="M135.244 146.879C135.244 146.879 134.697 148.837 134.499 149.11C134.302 149.382 132.999 151.018 132.988 151.603C132.978 152.188 133.395 152.618 134.432 152.853C135.469 153.089 137.088 153.17 138.371 152.587C139.655 152.004 140.237 151.81 140.561 150.914C140.886 150.017 140.67 147.014 140.67 147.014C140.67 147.014 136.656 144.065 135.244 146.879Z" fill="white"/>
</g>
<g id="g26658">
<path id="path26660" d="M135.244 146.879C135.244 146.879 134.697 148.837 134.499 149.11C134.302 149.382 132.999 151.018 132.988 151.603C132.978 152.188 133.395 152.618 134.432 152.853C135.469 153.089 137.088 153.17 138.371 152.587C139.655 152.004 140.237 151.81 140.561 150.914C140.886 150.017 140.67 147.014 140.67 147.014C140.67 147.014 136.656 144.065 135.244 146.879Z" stroke="#1A2E35" stroke-width="0.32" stroke-miterlimit="10" stroke-linecap="round" stroke-linejoin="round"/>
</g>
<g id="g26662">
<path id="path26664" d="M140.561 150.914C140.674 150.602 140.721 150.035 140.735 149.428C140.513 149.773 140.184 150.248 139.833 150.639C139.203 151.34 138.109 152.119 136.023 152.271C134.491 152.383 133.475 151.719 133.042 151.358C133.009 151.451 132.989 151.535 132.988 151.603C132.977 152.188 133.394 152.617 134.431 152.854C135.468 153.089 137.087 153.17 138.37 152.587C139.654 152.004 140.236 151.81 140.561 150.914Z" fill="#1A2E35"/>
</g>
<g id="g26666">
<path id="path26668" d="M140.561 150.914C140.674 150.602 140.721 150.035 140.735 149.428C140.513 149.773 140.184 150.248 139.833 150.639C139.203 151.34 138.109 152.119 136.023 152.271C134.491 152.383 133.475 151.719 133.042 151.358C133.009 151.451 132.989 151.535 132.988 151.603C132.977 152.188 133.394 152.617 134.431 152.854C135.468 153.089 137.087 153.17 138.37 152.587C139.654 152.004 140.236 151.81 140.561 150.914Z" stroke="#1A2E35" stroke-width="0.32" stroke-miterlimit="10" stroke-linecap="round" stroke-linejoin="round"/>
</g>
<g id="g26670">
<path id="path26672" d="M138.068 146.215C138.068 146.215 136.312 146.129 135.762 147.161" stroke="#1A2E35" stroke-width="0.64" stroke-miterlimit="10" stroke-linecap="round" stroke-linejoin="round"/>
</g>
<g id="g26674">
<path id="path26676" d="M136.148 146.253C136.148 146.253 137.654 146.586 137.887 147.288" stroke="#1A2E35" stroke-width="0.64" stroke-miterlimit="10" stroke-linecap="round" stroke-linejoin="round"/>
</g>
<g id="g26678">
<path id="path26680" d="M137.719 147.494C137.719 147.494 135.963 147.409 135.413 148.441" stroke="#1A2E35" stroke-width="0.64" stroke-miterlimit="10" stroke-linecap="round" stroke-linejoin="round"/>
</g>
<g id="g26682">
<path id="path26684" d="M135.797 147.533C135.797 147.533 137.303 147.866 137.536 148.569" stroke="#1A2E35" stroke-width="0.64" stroke-miterlimit="10" stroke-linecap="round" stroke-linejoin="round"/>
</g>
<g id="g26686">
<path id="path26688" d="M137.369 148.775C137.369 148.775 135.613 148.69 135.063 149.722" stroke="#1A2E35" stroke-width="0.64" stroke-miterlimit="10" stroke-linecap="round" stroke-linejoin="round"/>
</g>
<g id="g26690">
<path id="path26692" d="M135.446 148.813C135.446 148.813 136.952 149.147 137.185 149.849" stroke="#1A2E35" stroke-width="0.64" stroke-miterlimit="10" stroke-linecap="round" stroke-linejoin="round"/>
</g>
<g id="g26694">
<path id="path26696" d="M124.742 108.435C124.742 108.435 125.416 118.615 125.708 121.472C126 124.329 126.699 130.918 126.758 131.093C126.815 131.268 126.99 133.601 126.99 133.601C126.99 133.601 126.815 134.533 127.049 136.574C127.282 138.615 127.982 142.872 127.982 142.872C127.982 142.872 127.399 142.988 127.457 143.455C127.515 143.922 127.748 145.204 127.748 145.204C127.748 145.204 129.964 145.962 130.606 146.02C131.247 146.079 132.53 146.02 132.53 146.02C132.53 146.02 133.055 145.146 132.997 144.68C132.938 144.213 132.53 142.988 132.53 142.988L132.822 139.548L133.288 125.495C133.288 125.495 135.095 139.198 135.387 140.189C135.679 141.181 135.97 142.755 135.97 142.755C135.97 142.755 135.387 143.222 135.387 143.513C135.387 143.805 135.504 145.846 135.504 145.846C135.504 145.846 136.67 144.913 137.778 145.088C138.886 145.263 140.694 146.546 140.694 146.546C140.694 146.546 140.81 145.554 141.043 144.796C141.277 144.038 140.81 142.114 140.694 141.589C140.577 141.064 140.518 140.306 140.635 139.781C140.752 139.257 140.81 137.624 140.868 137.099C140.927 136.575 140.81 123.513 140.81 123.513L142.002 108.552L125.033 108.027L124.742 108.435Z" fill="#1A2E35"/>
</g>
<g id="g26698">
<path id="path26700" d="M124.742 108.435C124.742 108.435 125.416 118.615 125.708 121.472C126 124.329 126.699 130.918 126.758 131.093C126.815 131.268 126.99 133.601 126.99 133.601C126.99 133.601 126.815 134.533 127.049 136.574C127.282 138.615 127.982 142.872 127.982 142.872C127.982 142.872 127.399 142.988 127.457 143.455C127.515 143.922 127.748 145.204 127.748 145.204C127.748 145.204 129.964 145.962 130.606 146.02C131.247 146.079 132.53 146.02 132.53 146.02C132.53 146.02 133.055 145.146 132.997 144.68C132.938 144.213 132.53 142.988 132.53 142.988L132.822 139.548L133.288 125.495C133.288 125.495 135.095 139.198 135.387 140.189C135.679 141.181 135.97 142.755 135.97 142.755C135.97 142.755 135.387 143.222 135.387 143.513C135.387 143.805 135.504 145.846 135.504 145.846C135.504 145.846 136.67 144.913 137.778 145.088C138.886 145.263 140.694 146.546 140.694 146.546C140.694 146.546 140.81 145.554 141.043 144.796C141.277 144.038 140.81 142.114 140.694 141.589C140.577 141.064 140.518 140.306 140.635 139.781C140.752 139.257 140.81 137.624 140.868 137.099C140.927 136.575 140.81 123.513 140.81 123.513L142.002 108.552L125.033 108.027L124.742 108.435Z" stroke="#1A2E35" stroke-width="0.32" stroke-miterlimit="10" stroke-linecap="round" stroke-linejoin="round"/>
</g>
<g id="g26702">
<path id="path26704" d="M130.959 83.3402C130.959 83.3402 127.355 84.992 127.105 85.5927C126.855 86.1933 125.653 98.106 124.953 102.861C124.252 107.616 124.552 108.893 124.552 108.893C124.552 108.893 125.303 110.445 132.66 110.195C140.019 109.945 142.621 108.843 142.721 108.193C142.821 107.542 142.922 108.367 142.922 107.916C142.922 107.466 143.472 86.1933 142.922 84.8919C142.371 83.5904 139.268 81.4384 138.367 81.338C137.466 81.2381 130.959 83.3402 130.959 83.3402Z" fill="#599BFE"/>
</g>
<g id="g26706">
<path id="path26708" d="M130.959 83.3402C130.959 83.3402 127.355 84.992 127.105 85.5927C126.855 86.1933 125.653 98.106 124.953 102.861C124.252 107.616 124.552 108.893 124.552 108.893C124.552 108.893 125.303 110.445 132.66 110.195C140.019 109.945 142.621 108.843 142.721 108.193C142.821 107.542 142.922 108.367 142.922 107.916C142.922 107.466 143.472 86.1933 142.922 84.8919C142.371 83.5904 139.268 81.4384 138.367 81.338C137.466 81.2381 130.959 83.3402 130.959 83.3402Z" stroke="#1A2E35" stroke-width="0.32" stroke-miterlimit="10" stroke-linecap="round" stroke-linejoin="round"/>
</g>
<g id="g26710">
<path id="path26712" d="M136.906 82.3674C134.706 82.9072 130.959 84.1178 130.959 84.1178C130.959 84.1178 127.355 85.7693 127.105 86.3699C127.067 86.4618 127.006 86.8179 126.929 87.3715C128.517 86.463 132.269 84.353 133.532 83.9542C135.151 83.4429 136.684 83.3152 136.684 83.3152L140.859 86.0842L142.606 86.1267C142.606 86.1267 138.686 82.6762 137.579 82.3779C137.445 82.3418 137.211 82.3414 136.906 82.3674Z" fill="white"/>
</g>
<g id="g26714">
<path id="path26716" d="M136.906 82.3674C134.706 82.9072 130.959 84.1178 130.959 84.1178C130.959 84.1178 127.355 85.7693 127.105 86.3699C127.067 86.4618 127.006 86.8179 126.929 87.3715C128.517 86.463 132.269 84.353 133.532 83.9542C135.151 83.4429 136.684 83.3152 136.684 83.3152L140.859 86.0842L142.606 86.1267C142.606 86.1267 138.686 82.6762 137.579 82.3779C137.445 82.3418 137.211 82.3414 136.906 82.3674Z" stroke="#1A2E35" stroke-width="0.32" stroke-miterlimit="10" stroke-linecap="round" stroke-linejoin="round"/>
</g>
<g id="g26718">
<path id="path26720" d="M124.961 103.581C124.958 103.6 124.955 103.62 124.953 103.638C124.831 104.465 124.746 105.213 124.685 105.893C126.461 106.254 131.034 107.044 135.918 106.745C139.75 106.51 141.889 106.372 142.974 106.299C142.988 105.644 143.004 104.881 143.021 104.041C140.462 104.304 130.446 105.187 124.961 103.581Z" fill="white"/>
</g>
<g id="g26722">
<path id="path26724" d="M124.961 103.581C124.958 103.6 124.955 103.62 124.953 103.638C124.831 104.465 124.746 105.213 124.685 105.893C126.461 106.254 131.034 107.044 135.918 106.745C139.75 106.51 141.889 106.372 142.974 106.299C142.988 105.644 143.004 104.881 143.021 104.041C140.462 104.304 130.446 105.187 124.961 103.581Z" stroke="#1A2E35" stroke-width="0.32" stroke-miterlimit="10" stroke-linecap="round" stroke-linejoin="round"/>
</g>
<g id="g26726">
<path id="path26728" d="M127.593 107.57C127.618 108.024 127.655 108.467 127.705 108.894" stroke="#1A2E35" stroke-width="0.32" stroke-miterlimit="10"/>
</g>
<g id="g26730">
<path id="path26732" d="M128.687 97.0156C128.168 100.038 127.486 103.042 127.556 106.573" stroke="#1A2E35" stroke-width="0.32" stroke-miterlimit="10"/>
</g>
<g id="g26734">
<path id="path26736" d="M129.607 93.1769C129.607 93.1769 129.233 94.7395 128.816 97.0524" stroke="#1A2E35" stroke-width="0.32" stroke-miterlimit="10"/>
</g>
<g id="g26738">
<path id="path26740" d="M118.35 110.274C118.35 110.274 119.087 111.581 120.396 110.129C121.1 109.349 123.745 101.27 123.745 101.27C123.745 101.27 118.571 109.426 118.35 110.274Z" fill="white"/>
</g>
<g id="g26742">
<path id="path26744" d="M118.35 110.274C118.35 110.274 119.087 111.581 120.396 110.129C121.1 109.349 123.745 101.27 123.745 101.27C123.745 101.27 118.571 109.426 118.35 110.274Z" stroke="#1A2E35" stroke-width="0.32" stroke-miterlimit="10" stroke-linecap="round" stroke-linejoin="round"/>
</g>
<g id="g26746">
<path id="path26748" d="M113.41 85.8488L116.841 84.6622C116.841 84.6622 116.805 92.0158 117.302 93.7726L117.798 95.5291C117.798 95.5291 114.465 89.9675 113.75 88.1099C113.036 86.2526 113.41 85.8488 113.41 85.8488Z" fill="white"/>
</g>
<g id="g26750">
<path id="path26752" d="M113.41 85.8488L116.841 84.6622C116.841 84.6622 116.805 92.0158 117.302 93.7726L117.798 95.5291C117.798 95.5291 114.465 89.9675 113.75 88.1099C113.036 86.2526 113.41 85.8488 113.41 85.8488Z" stroke="#1A2E35" stroke-width="0.32" stroke-miterlimit="10" stroke-linecap="round" stroke-linejoin="round"/>
</g>
<g id="g26754">
<path id="path26756" d="M120.487 96.5206C120.487 96.5206 119.879 94.8425 118.839 95.1862C117.798 95.5295 117.033 95.5001 116.955 95.9711C116.876 96.4422 119.578 98.2031 119.578 98.2031C119.578 98.2031 121.507 98.0902 120.487 96.5206Z" fill="white"/>
</g>
<g id="g26758">
<path id="path26760" d="M120.487 96.5206C120.487 96.5206 119.879 94.8425 118.839 95.1862C117.798 95.5295 117.033 95.5001 116.955 95.9711C116.876 96.4422 119.578 98.2031 119.578 98.2031C119.578 98.2031 121.507 98.0902 120.487 96.5206Z" stroke="#1A2E35" stroke-width="0.32" stroke-miterlimit="10" stroke-linecap="round" stroke-linejoin="round"/>
</g>
<g id="g26762">
<path id="path26764" d="M121.773 104.456C121.773 104.456 118.394 110.045 118.35 110.274C118.35 110.274 116.033 106.353 112.913 101.544C109.793 96.7354 106.852 85.3722 106.852 85.3722C106.852 85.3722 107.995 84.0465 110.188 83.7521C112.381 83.4573 113.137 83.5421 113.137 83.5421C113.137 83.5421 115.229 90.9447 117.548 94.3543C119.866 97.7639 122.797 100.404 122.797 100.404L123.745 101.27L121.773 104.456Z" fill="white"/>
</g>
<g id="g26766">
<path id="path26768" d="M121.773 104.456C121.773 104.456 118.394 110.045 118.35 110.274C118.35 110.274 116.033 106.353 112.913 101.544C109.793 96.7354 106.852 85.3722 106.852 85.3722C106.852 85.3722 107.995 84.0465 110.188 83.7521C112.381 83.4573 113.137 83.5421 113.137 83.5421C113.137 83.5421 115.229 90.9447 117.548 94.3543C119.866 97.7639 122.797 100.404 122.797 100.404L123.745 101.27L121.773 104.456Z" stroke="#1A2E35" stroke-width="0.32" stroke-miterlimit="10" stroke-linecap="round" stroke-linejoin="round"/>
</g>
<g id="g26770">
<path id="path26772" d="M112.847 95.2774C114.549 95.8873 117.076 96.7443 118.968 97.1766" stroke="#1A2E35" stroke-width="0.32" stroke-miterlimit="10"/>
</g>
<g id="g26774">
<path id="path26776" d="M110.974 94.5853C110.974 94.5853 111.243 94.6893 111.696 94.8576" stroke="#1A2E35" stroke-width="0.32" stroke-miterlimit="10"/>
</g>
<g id="g26778">
<path id="path26780" d="M114.318 93.8565C114.318 93.8565 116.511 96.0549 118.802 96.4913" stroke="#1A2E35" stroke-width="0.32" stroke-miterlimit="10"/>
</g>
<g id="g26782">
<path id="path26784" d="M125.499 99.499C125.499 99.499 122.696 98.1979 122.246 98.1477C121.795 98.0974 119.493 98.9985 119.242 99.1989C118.992 99.3992 118.892 99.8494 119.193 99.8993C119.493 99.9496 119.993 99.5989 119.993 99.5989L121.295 99.3489L121.895 99.6993C121.895 99.6993 119.793 100.951 119.593 101.351C119.393 101.751 119.042 102.502 119.242 102.652C119.443 102.802 119.543 103.153 119.843 103.153C120.144 103.153 120.316 103.123 120.316 103.123C120.316 103.123 120.894 103.053 121.345 102.652C121.795 102.252 122.796 102.402 122.796 102.402C122.796 102.402 123.998 102.802 124.298 102.703C124.598 102.602 125.349 102.152 125.349 102.152H125.899L125.499 99.499Z" fill="white"/>
</g>
<g id="g26786">
<path id="path26788" d="M125.499 99.499C125.499 99.499 122.696 98.1979 122.246 98.1477C121.795 98.0974 119.493 98.9985 119.242 99.1989C118.992 99.3992 118.892 99.8494 119.193 99.8993C119.493 99.9496 119.993 99.5989 119.993 99.5989L121.295 99.3489L121.895 99.6993C121.895 99.6993 119.793 100.951 119.593 101.351C119.393 101.751 119.042 102.502 119.242 102.652C119.443 102.802 119.543 103.153 119.843 103.153C120.144 103.153 120.316 103.123 120.316 103.123C120.316 103.123 120.894 103.053 121.345 102.652C121.795 102.252 122.796 102.402 122.796 102.402C122.796 102.402 123.998 102.802 124.298 102.703C124.598 102.602 125.349 102.152 125.349 102.152H125.899L125.499 99.499Z" stroke="#1A2E35" stroke-width="0.32" stroke-miterlimit="10" stroke-linecap="round" stroke-linejoin="round"/>
</g>
<g id="g26790">
<path id="path26792" d="M119.242 102.653C119.242 102.653 120.315 101.534 120.437 101.391C120.56 101.249 122.374 100.332 122.374 100.332" stroke="#1A2E35" stroke-width="0.32" stroke-miterlimit="10"/>
</g>
<g id="g26794">
<path id="path26796" d="M119.842 103.153C119.842 103.153 121.293 101.88 121.395 101.799C121.497 101.717 122.72 101.228 122.72 101.228" stroke="#1A2E35" stroke-width="0.32" stroke-miterlimit="10"/>
</g>
<g id="g26798">
<path id="path26800" d="M142.171 85.7191C142.171 85.7191 140.218 85.0686 138.867 87.1706C137.516 89.2727 136.709 99.395 136.709 99.395L125.498 99.4996L125.699 102.603C125.699 102.603 136.309 103.75 138.361 103.75C140.413 103.75 140.964 104.1 141.214 103.349C141.464 102.598 143.672 93.4772 143.972 90.5745C144.273 87.6714 143.122 85.9194 142.171 85.7191Z" fill="white"/>
</g>
<g id="g26802">
<path id="path26804" d="M142.171 85.7191C142.171 85.7191 140.218 85.0686 138.867 87.1706C137.516 89.2727 136.709 99.395 136.709 99.395L125.498 99.4996L125.699 102.603C125.699 102.603 136.309 103.75 138.361 103.75C140.413 103.75 140.964 104.1 141.214 103.349C141.464 102.598 143.672 93.4772 143.972 90.5745C144.273 87.6714 143.122 85.9194 142.171 85.7191Z" stroke="#1A2E35" stroke-width="0.32" stroke-miterlimit="10" stroke-linecap="round" stroke-linejoin="round"/>
</g>
<g id="g26806">
<path id="path26808" d="M125.616 108.61C125.616 108.61 122.526 108.144 122.351 108.494C122.176 108.844 122.351 113.625 122.642 113.917C122.934 114.208 124.916 114.616 125.499 114.266C126.083 113.917 126.432 113.683 126.549 113.391C126.666 113.1 126.666 109.427 126.432 108.96C126.199 108.494 125.616 108.61 125.616 108.61Z" fill="#1A2E35"/>
</g>
<g id="g26810">
<path id="path26812" d="M125.616 108.61C125.616 108.61 122.526 108.144 122.351 108.494C122.176 108.844 122.351 113.625 122.642 113.917C122.934 114.208 124.916 114.616 125.499 114.266C126.083 113.917 126.432 113.683 126.549 113.391C126.666 113.1 126.666 109.427 126.432 108.96C126.199 108.494 125.616 108.61 125.616 108.61Z" stroke="#1A2E35" stroke-width="0.32" stroke-miterlimit="10" stroke-linecap="round" stroke-linejoin="round"/>
</g>
<g id="g26814">
<path id="path26816" d="M129.289 109.194C129.289 109.194 128.822 113.917 129.58 114.209C130.338 114.5 131.913 114.617 132.204 114.559C132.496 114.5 133.546 114.325 133.72 113.859C133.895 113.392 133.895 109.719 133.778 109.369C133.662 109.019 129.58 108.727 129.289 109.194Z" fill="#1A2E35"/>
</g>
<g id="g26818">
<path id="path26820" d="M129.289 109.194C129.289 109.194 128.822 113.917 129.58 114.209C130.338 114.5 131.913 114.617 132.204 114.559C132.496 114.5 133.546 114.325 133.72 113.859C133.895 113.392 133.895 109.719 133.778 109.369C133.662 109.019 129.58 108.727 129.289 109.194Z" stroke="#1A2E35" stroke-width="0.32" stroke-miterlimit="10" stroke-linecap="round" stroke-linejoin="round"/>
</g>
<g id="g26822">
<path id="path26824" d="M136.636 109.718C136.636 109.718 136.87 115.024 136.986 115.258C137.103 115.491 139.319 116.949 139.727 116.89C140.135 116.832 143.401 116.482 143.576 115.841C143.75 115.199 144.158 110.01 143.809 109.427C143.458 108.844 142.701 108.61 142.001 108.552C141.301 108.494 137.219 109.077 137.219 109.077C137.219 109.077 136.695 109.077 136.636 109.718Z" fill="#1A2E35"/>
</g>
<g id="g26826">
<path id="path26828" d="M136.636 109.718C136.636 109.718 136.87 115.024 136.986 115.258C137.103 115.491 139.319 116.949 139.727 116.89C140.135 116.832 143.401 116.482 143.576 115.841C143.75 115.199 144.158 110.01 143.809 109.427C143.458 108.844 142.701 108.61 142.001 108.552C141.301 108.494 137.219 109.077 137.219 109.077C137.219 109.077 136.695 109.077 136.636 109.718Z" stroke="#1A2E35" stroke-width="0.32" stroke-miterlimit="10" stroke-linecap="round" stroke-linejoin="round"/>
</g>
<g id="g26830">
<path id="path26832" d="M132.46 82.0156L130.058 83.3167L130.909 84.8684L129.708 92.3766C129.708 92.3766 136.815 83.1164 136.915 82.9667C137.015 82.8163 138.367 82.1155 138.367 82.1155L137.916 80.2636L137.165 80.4636L132.46 82.0156Z" fill="#1A2E35"/>
</g>
<g id="g26834">
<path id="path26836" d="M132.46 82.0156L130.058 83.3167L130.909 84.8684L129.708 92.3766C129.708 92.3766 136.815 83.1164 136.915 82.9667C137.015 82.8163 138.367 82.1155 138.367 82.1155L137.916 80.2636L137.165 80.4636L132.46 82.0156Z" stroke="#1A2E35" stroke-width="0.32" stroke-miterlimit="10" stroke-linecap="round" stroke-linejoin="round"/>
</g>
<g id="g26838">
<path id="path26840" d="M129.925 71.6774C129.925 71.6774 129.493 73.0092 129.493 73.1891C129.493 73.3692 129.601 73.9091 129.601 73.9091C129.601 73.9091 128.269 75.7808 128.341 75.8889C128.413 75.9968 129.205 76.8246 129.205 76.8246C129.205 76.8246 129.277 79.632 129.637 79.6681C129.997 79.704 132.336 79.704 132.336 79.704L132.12 83.8073L137.483 80.712L137.591 77.1126C137.591 77.1126 139.031 75.2768 139.031 74.3411C139.031 73.4051 138.887 73.2252 138.887 73.2252L129.925 71.6774Z" fill="white"/>
</g>
<g id="g26842">
<path id="path26844" d="M129.925 71.6774C129.925 71.6774 129.493 73.0092 129.493 73.1891C129.493 73.3692 129.601 73.9091 129.601 73.9091C129.601 73.9091 128.269 75.7808 128.341 75.8889C128.413 75.9968 129.205 76.8246 129.205 76.8246C129.205 76.8246 129.277 79.632 129.637 79.6681C129.997 79.704 132.336 79.704 132.336 79.704L132.12 83.8073L137.483 80.712L137.591 77.1126C137.591 77.1126 139.031 75.2768 139.031 74.3411C139.031 73.4051 138.887 73.2252 138.887 73.2252L129.925 71.6774Z" stroke="#1A2E35" stroke-width="0.32" stroke-miterlimit="10" stroke-linecap="round" stroke-linejoin="round"/>
</g>
<g id="g26846">
<path id="path26848" d="M138.886 73.2261L133.155 72.2364L133.2 72.6501L132.984 74.63C132.984 74.63 134.495 73.5861 134.783 73.4421C135.071 73.2981 135.647 74.3061 135.323 74.918C134.999 75.5298 133.919 76.3577 133.919 76.3577C133.919 76.3577 135.107 77.5813 136.331 77.6533C136.832 77.6828 137.253 77.6274 137.577 77.5522L137.591 77.1135C137.591 77.1135 139.03 75.2777 139.03 74.342C139.03 73.406 138.886 73.2261 138.886 73.2261Z" fill="#1A2E35"/>
</g>
<g id="g26850">
<path id="path26852" d="M138.886 73.2261L133.155 72.2364L133.2 72.6501L132.984 74.63C132.984 74.63 134.495 73.5861 134.783 73.4421C135.071 73.2981 135.647 74.3061 135.323 74.918C134.999 75.5298 133.919 76.3577 133.919 76.3577C133.919 76.3577 135.107 77.5813 136.331 77.6533C136.832 77.6828 137.253 77.6274 137.577 77.5522L137.591 77.1135C137.591 77.1135 139.03 75.2777 139.03 74.342C139.03 73.406 138.886 73.2261 138.886 73.2261Z" stroke="#1A2E35" stroke-width="0.32" stroke-miterlimit="10" stroke-linecap="round" stroke-linejoin="round"/>
</g>
<g id="g26854">
<path id="path26856" d="M129.852 73.0807C129.852 73.0807 130.356 72.7207 130.931 73.2605" stroke="#1A2E35" stroke-width="0.32" stroke-miterlimit="10"/>
</g>
<g id="g26858">
<path id="path26860" d="M130.392 74.0524C130.392 74.2911 130.312 74.4844 130.212 74.4844C130.113 74.4844 130.032 74.2911 130.032 74.0524C130.032 73.8137 130.113 73.6204 130.212 73.6204C130.312 73.6204 130.392 73.8137 130.392 74.0524Z" fill="#1A2E35"/>
</g>
<g id="g26862">
<path id="path26864" d="M131.327 79.6327L133.523 79.3809L132.335 80.7847V79.7047L131.327 79.6327Z" fill="#1A2E35"/>
</g>
<g id="g26866">
<path id="path26868" d="M131.327 79.6327L133.523 79.3809L132.335 80.7847V79.7047L131.327 79.6327Z" stroke="#1A2E35" stroke-width="0.32" stroke-miterlimit="10"/>
</g>
<g id="g26870">
<path id="path26872" d="M135.575 73.7658L137.577 77.552L138.526 76.6454L136.727 73.6579L135.575 73.7658Z" fill="white"/>
</g>
<g id="g26874">
<path id="path26876" d="M135.575 73.7658L137.577 77.552L138.526 76.6454L136.727 73.6579L135.575 73.7658Z" stroke="#1A2E35" stroke-width="0.32" stroke-miterlimit="10" stroke-linecap="round" stroke-linejoin="round"/>
</g>
<g id="g26878">
<path id="path26880" d="M129.218 70.8145C129.218 70.8145 126.68 71.1473 126.994 71.252C127.308 71.3569 140.406 75.3909 140.406 75.3909C140.406 75.3909 140.144 74.4478 140.144 74.1336C140.144 73.8193 140.668 71.7758 140.458 69.6805C140.249 67.5848 135.819 66.4139 133.618 66.2043C131.418 65.9944 130.318 67.0424 130.108 68.195C129.899 69.3477 129.218 70.8145 129.218 70.8145Z" fill="#599BFE"/>
</g>
<g id="g26882">
<path id="path26884" d="M129.218 70.8145C129.218 70.8145 126.68 71.1473 126.994 71.252C127.308 71.3569 140.406 75.3909 140.406 75.3909C140.406 75.3909 140.144 74.4478 140.144 74.1336C140.144 73.8193 140.668 71.7758 140.458 69.6805C140.249 67.5848 135.819 66.4139 133.618 66.2043C131.418 65.9944 130.318 67.0424 130.108 68.195C129.899 69.3477 129.218 70.8145 129.218 70.8145Z" stroke="#1A2E35" stroke-width="0.32" stroke-miterlimit="10" stroke-linecap="round" stroke-linejoin="round"/>
</g>
<g id="g26886">
<path id="path26888" d="M132.854 71.9132L130.54 71.0802C130.54 71.0802 131.882 68.0262 131.836 67.6559C131.789 67.2857 131.789 66.9615 131.789 66.9615C131.789 66.9615 131.836 66.3599 133.872 66.5916" stroke="#1A2E35" stroke-width="0.32" stroke-miterlimit="10" stroke-linecap="round" stroke-linejoin="round"/>
</g>
</g>
</g>
</g>
</g>
</g>
</svg>
