<svg width="374" height="374" viewBox="0 0 374 374" fill="none" xmlns="http://www.w3.org/2000/svg">
<path d="M334.192 84.9203C331.711 80.9246 328.981 77.0897 326.016 73.4385C301.811 43.6756 270.163 31.0793 234.012 22.6419C196.672 13.9277 152.951 11.2199 117.1 26.9279C108.662 30.6679 100.644 35.6047 94.3008 42.3367C70.3124 67.7014 62.0844 110.18 35.3734 143.758C8.66229 177.336 -4.36788 219.164 19.613 258.868C29.7634 275.683 42.7038 289.536 58.0153 301.728C76.8649 316.688 93.1264 336.929 114.916 348.635C137.812 360.932 168.308 365.218 193.65 359.586C222.56 353.161 239.518 327.609 261.584 310.218C278.982 296.485 299.799 287.494 316.846 273.327C342.966 251.635 362.773 216.733 359.482 182.153C356.25 148.583 352.092 113.696 334.192 84.9203Z" fill="#599BFE"/>
<path opacity="0.7" d="M334.192 84.9203C331.711 80.9246 328.981 77.0897 326.016 73.4385C301.811 43.6756 270.163 31.0793 234.012 22.6419C196.672 13.9277 152.951 11.2199 117.1 26.9279C108.662 30.6679 100.644 35.6047 94.3008 42.3367C70.3124 67.7014 62.0844 110.18 35.3734 143.758C8.66229 177.336 -4.36788 219.164 19.613 258.868C29.7634 275.683 42.7038 289.536 58.0153 301.728C76.8649 316.688 93.1264 336.929 114.916 348.635C137.812 360.932 168.308 365.218 193.65 359.586C222.56 353.161 239.518 327.609 261.584 310.218C278.982 296.485 299.799 287.494 316.846 273.327C342.966 251.635 362.773 216.733 359.482 182.153C356.25 148.583 352.092 113.696 334.192 84.9203Z" fill="white"/>
<path d="M27.5264 327.587H350.064" stroke="#263238" stroke-width="0.748" stroke-linecap="round" stroke-linejoin="round"/>
<path d="M10.3232 327.587H21.5432" stroke="#263238" stroke-width="0.748" stroke-linecap="round" stroke-linejoin="round"/>
<path opacity="0.2" d="M319.746 37.1755C319.03 37.1773 318.332 37.4033 317.751 37.8219C317.17 38.2405 316.735 38.8306 316.507 39.5093H148.79C148.53 38.7382 148.003 38.0848 147.306 37.6657C146.608 37.2465 145.784 37.089 144.981 37.2211C144.177 37.3532 143.447 37.7663 142.92 38.3868C142.394 39.0074 142.104 39.7949 142.104 40.6089C142.104 41.4229 142.394 42.2104 142.92 42.8309C143.447 43.4514 144.177 43.8646 144.981 43.9967C145.784 44.1288 146.608 43.9712 147.306 43.5521C148.003 43.1329 148.53 42.4795 148.79 41.7084H316.507C316.71 42.3044 317.074 42.8328 317.558 43.2354C318.043 43.6381 318.629 43.8995 319.252 43.9909C319.875 44.0824 320.511 44.0003 321.09 43.7536C321.67 43.507 322.17 43.1055 322.536 42.593C322.902 42.0806 323.12 41.4772 323.166 40.8491C323.211 40.221 323.083 39.5925 322.794 39.0326C322.506 38.4727 322.069 38.0032 321.531 37.6756C320.993 37.348 320.375 37.175 319.746 37.1755Z" fill="black"/>
<g opacity="0.2">
<path d="M188.494 42.3291C190.888 100.471 192.982 159.174 195.48 217.114L195.226 228.469C195.226 228.469 184.477 228.469 178.822 229.03C173.167 229.591 164.393 229.598 158.17 229.598C151.947 229.598 148.551 227.354 148.551 227.354L148.962 217.107C150.211 159.204 151.565 100.494 152.455 42.3441" stroke="black" stroke-width="0.748" stroke-linejoin="round"/>
<path d="M161.658 207.502L161.628 214.347" stroke="black" stroke-width="0.748" stroke-linejoin="round"/>
<path d="M162.24 74.1042L161.687 201.421" stroke="black" stroke-width="0.748" stroke-linejoin="round"/>
<path d="M162.39 41.0352L162.263 70.3044" stroke="black" stroke-width="0.748" stroke-linejoin="round"/>
<path d="M172.031 107.921L170.752 192.685" stroke="black" stroke-width="0.748" stroke-linejoin="round"/>
<path d="M173.033 41.7981L172.113 102.618" stroke="black" stroke-width="0.748" stroke-linejoin="round"/>
<path d="M181.037 131.491L181.389 210.165" stroke="black" stroke-width="0.748" stroke-linejoin="round"/>
<path d="M180.782 75.6226L181.007 125.035" stroke="black" stroke-width="0.748" stroke-linejoin="round"/>
<path d="M180.632 42.561L180.752 69.5414" stroke="black" stroke-width="0.748" stroke-linejoin="round"/>
</g>
<g opacity="0.2">
<path d="M275.262 42.3291C272.928 103.889 270.026 166.056 267.782 227.317C271.769 227.92 275.788 228.29 279.818 228.424H303.843C307.576 228.343 311.295 227.96 314.966 227.28C313.881 166.078 313.156 103.86 311.226 42.3291" stroke="black" stroke-width="0.748" stroke-linejoin="round"/>
<path d="M302.026 207.502L302.056 214.347" stroke="black" stroke-width="0.748" stroke-linejoin="round"/>
<path d="M301.44 74.1042L302.001 201.421" stroke="black" stroke-width="0.748" stroke-linejoin="round"/>
<path d="M301.3 41.0352L301.427 70.3044" stroke="black" stroke-width="0.748" stroke-linejoin="round"/>
<path d="M291.651 107.921L292.938 192.685" stroke="black" stroke-width="0.748" stroke-linejoin="round"/>
<path d="M290.656 41.7981L291.576 102.618" stroke="black" stroke-width="0.748" stroke-linejoin="round"/>
<path d="M282.653 131.491L282.294 210.165" stroke="black" stroke-width="0.748" stroke-linejoin="round"/>
<path d="M282.906 75.6226L282.682 125.035" stroke="black" stroke-width="0.748" stroke-linejoin="round"/>
<path d="M283.056 42.561L282.929 69.5414" stroke="black" stroke-width="0.748" stroke-linejoin="round"/>
</g>
<g opacity="0.2">
<path d="M189.528 58.8525H206.403V78.5399H190.65" stroke="black" stroke-width="0.748" stroke-linejoin="round"/>
<path d="M226.995 58.8975H209.35V78.6521H226.995V58.8975Z" stroke="black" stroke-width="0.748" stroke-linejoin="round"/>
</g>
<g opacity="0.2">
<path d="M274.384 58.8525H257.502V78.5399H273.262" stroke="black" stroke-width="0.748" stroke-linejoin="round"/>
<path d="M236.917 78.6521H254.562V58.8974H236.917V78.6521Z" stroke="black" stroke-width="0.748" stroke-linejoin="round"/>
</g>
<path opacity="0.2" d="M192.309 148.336H227.443V89.2961H190.769" stroke="black" stroke-width="0.748" stroke-linejoin="round"/>
<path opacity="0.2" d="M272.608 88.7949H236.704V148.336H269.908" stroke="black" stroke-width="0.748" stroke-linejoin="round"/>
<path opacity="0.2" d="M193.467 162.346H227.441V221.692H196.04" stroke="black" stroke-width="0.748" stroke-linejoin="round"/>
<path opacity="0.2" d="M270.297 161.845H236.704V222.246H267.327" stroke="black" stroke-width="0.748" stroke-linejoin="round"/>
<path opacity="0.2" d="M195.885 226.016H267.797" stroke="black" stroke-width="0.748" stroke-linejoin="round"/>
<path opacity="0.2" d="M189.385 52.0159H274.35" stroke="black" stroke-width="0.748" stroke-linejoin="round"/>
<path opacity="0.2" d="M232.064 52.4199V225.2" stroke="black" stroke-width="0.748" stroke-linejoin="round"/>
<path opacity="0.2" d="M190.461 84.7334H273.107" stroke="black" stroke-width="0.748" stroke-linejoin="round"/>
<path d="M334.355 174.583C334.355 174.583 325.581 169.714 324.931 180.762C324.28 191.81 322.687 299.05 322.687 299.05" stroke="#263238" stroke-width="0.748" stroke-miterlimit="10" stroke-linecap="round"/>
<path d="M320.36 181.764C320.36 181.764 327.519 233.137 324.265 298.108" stroke="#263238" stroke-width="0.748" stroke-miterlimit="10" stroke-linecap="round"/>
<path d="M327.39 176.812C327.39 176.812 324.032 178.959 322.154 176.498C320.277 174.037 323.448 169.534 320.658 167.604C317.868 165.675 312.969 168.614 312.969 168.614C312.969 168.614 316.709 169.721 316.604 171.763C316.499 173.805 314.674 174.591 314.435 173.693C314.196 172.796 312.408 168.293 309.356 170.163C308.478 170.682 307.715 171.374 307.112 172.197C306.509 173.02 306.079 173.956 305.848 174.95C305.848 174.95 312.939 174.202 313.365 176.857C313.792 179.513 310.456 176.393 307.531 176.221C304.606 176.049 301.943 176.476 302.13 178.248C302.196 179.815 302.103 181.383 301.854 182.931C303.452 181.601 305.474 180.887 307.553 180.919C310.77 181.106 310.65 183.163 307.725 182.983C304.801 182.804 302.287 185.594 302.287 185.594C302.287 185.594 304.95 190.157 308.339 192.408C311.727 194.66 312.954 193.852 313.343 192.116C313.732 190.381 312.834 185.923 314.876 186.043C316.918 186.162 311.488 193.769 314.128 194.218C316.769 194.667 318.841 193.904 319.529 192.184L320.217 190.471C320.217 190.471 319.304 185.983 319.701 184.277C320.097 182.572 320.576 184.322 321.04 186.409C321.503 188.496 321.788 193.493 322.693 193.253C323.598 193.014 326.433 189.364 327.113 187.943C327.794 186.521 323.373 182.138 323.373 181.263C323.373 180.388 326.844 182.056 327.375 182.968C327.764 183.655 328.117 184.361 328.43 185.085C328.43 185.085 330.562 183.739 330.509 179.632C330.457 175.526 327.39 176.812 327.39 176.812Z" fill="#599BFE"/>
<path opacity="0.3" d="M327.39 176.812C327.39 176.812 324.032 178.959 322.154 176.498C320.277 174.037 323.448 169.534 320.658 167.604C317.868 165.675 312.969 168.614 312.969 168.614C312.969 168.614 316.709 169.721 316.604 171.763C316.499 173.805 314.674 174.591 314.435 173.693C314.196 172.796 312.408 168.293 309.356 170.163C308.478 170.682 307.715 171.374 307.112 172.197C306.509 173.02 306.079 173.956 305.848 174.95C305.848 174.95 312.939 174.202 313.365 176.857C313.792 179.513 310.456 176.393 307.531 176.221C304.606 176.049 301.943 176.476 302.13 178.248C302.196 179.815 302.103 181.383 301.854 182.931C303.452 181.601 305.474 180.887 307.553 180.919C310.77 181.106 310.65 183.163 307.725 182.983C304.801 182.804 302.287 185.594 302.287 185.594C302.287 185.594 304.95 190.157 308.339 192.408C311.727 194.66 312.954 193.852 313.343 192.116C313.732 190.381 312.834 185.923 314.876 186.043C316.918 186.162 311.488 193.769 314.128 194.218C316.769 194.667 318.841 193.904 319.529 192.184L320.217 190.471C320.217 190.471 319.304 185.983 319.701 184.277C320.097 182.572 320.576 184.322 321.04 186.409C321.503 188.496 321.788 193.493 322.693 193.253C323.598 193.014 326.433 189.364 327.113 187.943C327.794 186.521 323.373 182.138 323.373 181.263C323.373 180.388 326.844 182.056 327.375 182.968C327.764 183.655 328.117 184.361 328.43 185.085C328.43 185.085 330.562 183.739 330.509 179.632C330.457 175.526 327.39 176.812 327.39 176.812Z" fill="#263238"/>
<path d="M310.419 186.446C312.603 183.746 315.827 180.088 318.535 178.338" stroke="#263238" stroke-width="0.748" stroke-miterlimit="10" stroke-linecap="round"/>
<path d="M307.847 189.745C307.847 189.745 308.408 188.997 309.343 187.793" stroke="#263238" stroke-width="0.748" stroke-miterlimit="10" stroke-linecap="round"/>
<path d="M319.927 179.011C319.927 179.011 323.173 183.604 323.771 188.332" stroke="#263238" stroke-width="0.748" stroke-miterlimit="10" stroke-linecap="round"/>
<path d="M316.237 181.764C316.237 181.764 317.15 181.233 316.806 187.082" stroke="#263238" stroke-width="0.748" stroke-miterlimit="10" stroke-linecap="round"/>
<path d="M318.647 176.289C318.647 176.289 320.503 174.643 319.523 171.352" stroke="#263238" stroke-width="0.748" stroke-miterlimit="10" stroke-linecap="round"/>
<path d="M316.104 179.079L314.78 176.655" stroke="#263238" stroke-width="0.748" stroke-miterlimit="10" stroke-linecap="round"/>
<path d="M313.314 181.555C313.314 181.555 309.103 178.368 306.47 178.219" stroke="#263238" stroke-width="0.748" stroke-miterlimit="10" stroke-linecap="round"/>
<path d="M339.343 168.143C339.343 168.143 339.208 172.968 335.446 173.199C331.683 173.431 329.35 167.156 325.497 168.667C321.645 170.178 321.271 177.059 321.271 177.059C321.271 177.059 324.929 174.067 326.896 175.563C328.863 177.059 328.392 179.415 327.353 179.049C326.313 178.682 320.561 177.396 320.359 181.727C320.284 182.952 320.457 184.18 320.869 185.337C321.28 186.494 321.921 187.556 322.752 188.459C322.752 188.459 326.829 180.852 329.791 182.235C332.753 183.619 327.345 184.831 325.176 187.643C323.007 190.456 321.623 193.41 323.53 194.435C325.139 195.435 326.643 196.595 328.018 197.898C327.777 195.393 328.437 192.884 329.881 190.822C332.267 187.733 334.234 189.252 332.065 192.064C329.896 194.877 330.98 199.282 330.98 199.282C330.98 199.282 337.361 199.724 341.931 197.869C346.501 196.013 346.516 194.241 345.05 192.633C343.584 191.024 338.498 188.893 340.016 186.963C341.535 185.033 345.432 195.617 347.668 193.306C349.905 190.994 350.57 188.376 349.314 186.514L348.072 184.756C348.072 184.756 342.986 182.632 341.52 181.053C340.054 179.475 342.17 180.208 344.571 181.166C346.973 182.123 352.179 185.242 352.553 184.158C352.927 183.073 351.214 177.755 350.241 176.109C349.269 174.464 341.871 175.922 341.026 175.279C340.181 174.636 344.19 172.339 345.462 172.422C346.413 172.504 347.359 172.637 348.297 172.818C348.297 172.818 348.409 169.766 344.257 167.014C340.106 164.261 339.343 168.143 339.343 168.143Z" fill="#599BFE"/>
<path opacity="0.2" d="M339.343 168.143C339.343 168.143 339.208 172.968 335.446 173.199C331.683 173.431 329.35 167.156 325.497 168.667C321.645 170.178 321.271 177.059 321.271 177.059C321.271 177.059 324.929 174.067 326.896 175.563C328.863 177.059 328.392 179.415 327.353 179.049C326.313 178.682 320.561 177.396 320.359 181.727C320.284 182.952 320.457 184.18 320.869 185.337C321.28 186.494 321.921 187.556 322.752 188.459C322.752 188.459 326.829 180.852 329.791 182.235C332.753 183.619 327.345 184.831 325.176 187.643C323.007 190.456 321.623 193.41 323.53 194.435C325.139 195.435 326.643 196.595 328.018 197.898C327.777 195.393 328.437 192.884 329.881 190.822C332.267 187.733 334.234 189.252 332.065 192.064C329.896 194.877 330.98 199.282 330.98 199.282C330.98 199.282 337.361 199.724 341.931 197.869C346.501 196.013 346.516 194.241 345.05 192.633C343.584 191.024 338.498 188.893 340.016 186.963C341.535 185.033 345.432 195.617 347.668 193.306C349.905 190.994 350.57 188.376 349.314 186.514L348.072 184.756C348.072 184.756 342.986 182.632 341.52 181.053C340.054 179.475 342.17 180.208 344.571 181.166C346.973 182.123 352.179 185.242 352.553 184.158C352.927 183.073 351.214 177.755 350.241 176.109C349.269 174.464 341.871 175.922 341.026 175.279C340.181 174.636 344.19 172.339 345.462 172.422C346.413 172.504 347.359 172.637 348.297 172.818C348.297 172.818 348.409 169.766 344.257 167.014C340.106 164.261 339.343 168.143 339.343 168.143Z" fill="#263238"/>
<path d="M337.407 191.742C336.188 187.711 334.722 182.018 334.819 178.091" stroke="#263238" stroke-width="0.748" stroke-miterlimit="10" stroke-linecap="round"/>
<path d="M338.97 196.522C338.97 196.522 338.574 195.43 338.021 193.725" stroke="#263238" stroke-width="0.748" stroke-miterlimit="10" stroke-linecap="round"/>
<path d="M336.465 177.119C336.465 177.119 343.279 176.992 348.433 179.617" stroke="#263238" stroke-width="0.748" stroke-miterlimit="10" stroke-linecap="round"/>
<path d="M336.675 182.654C336.675 182.654 336.765 181.383 342.382 185.714" stroke="#263238" stroke-width="0.748" stroke-miterlimit="10" stroke-linecap="round"/>
<path d="M332.86 176.573C332.86 176.573 332.471 173.581 328.514 172.332" stroke="#263238" stroke-width="0.748" stroke-miterlimit="10" stroke-linecap="round"/>
<path d="M333.93 180.986L330.594 180.657" stroke="#263238" stroke-width="0.748" stroke-miterlimit="10" stroke-linecap="round"/>
<path d="M334.505 185.504C334.505 185.504 328.446 187.554 326.494 190.082" stroke="#263238" stroke-width="0.748" stroke-miterlimit="10" stroke-linecap="round"/>
<path d="M298.93 200.247C298.93 200.247 319.874 217.287 317.772 297.427" stroke="#263238" stroke-width="0.748" stroke-miterlimit="10" stroke-linecap="round"/>
<path d="M322.559 196.903C322.559 196.903 321.945 202.454 317.584 202.371C313.224 202.289 311.122 194.824 306.529 196.208C301.936 197.592 300.859 205.491 300.859 205.491C300.859 205.491 305.347 202.364 307.494 204.301C309.641 206.239 308.878 208.886 307.688 208.363C306.499 207.839 300.006 205.82 299.371 210.794C299.161 212.208 299.241 213.65 299.607 215.033C299.972 216.415 300.614 217.709 301.495 218.835C301.495 218.835 306.91 210.435 310.202 212.32C313.493 214.205 307.127 215.08 304.367 218.117C301.607 221.154 299.722 224.445 301.817 225.799C303.584 227.103 305.213 228.584 306.679 230.219C306.679 230.219 306.462 225.582 309.506 222.238C312.55 218.895 314.675 220.832 311.907 223.869C309.139 226.906 309.97 232.097 309.97 232.097C309.97 232.097 317.293 233.204 322.738 231.491C328.184 229.778 328.378 227.751 326.83 225.776C325.281 223.802 319.619 220.877 321.556 218.753C323.494 216.628 326.994 229.225 329.784 226.801C332.574 224.378 333.607 221.408 332.335 219.164L331.063 216.92C331.063 216.92 325.379 213.928 323.883 211.961C322.387 209.993 324.713 211.056 327.391 212.38C330.069 213.704 335.791 217.803 336.314 216.613C336.838 215.424 335.379 209.133 334.414 207.106C333.449 205.079 324.765 206.104 323.853 205.274C322.94 204.443 327.78 202.184 329.246 202.401C330.335 202.594 331.414 202.844 332.477 203.149C332.477 203.149 332.896 199.634 328.363 196.073C323.83 192.513 322.559 196.903 322.559 196.903Z" fill="#599BFE"/>
<path opacity="0.3" d="M322.559 196.903C322.559 196.903 321.945 202.454 317.584 202.371C313.224 202.289 311.122 194.824 306.529 196.208C301.936 197.592 300.859 205.491 300.859 205.491C300.859 205.491 305.347 202.364 307.494 204.301C309.641 206.239 308.878 208.886 307.688 208.363C306.499 207.839 300.006 205.82 299.371 210.794C299.161 212.208 299.241 213.65 299.607 215.033C299.972 216.415 300.614 217.709 301.495 218.835C301.495 218.835 306.91 210.435 310.202 212.32C313.493 214.205 307.127 215.08 304.367 218.117C301.607 221.154 299.722 224.445 301.817 225.799C303.584 227.103 305.213 228.584 306.679 230.219C306.679 230.219 306.462 225.582 309.506 222.238C312.55 218.895 314.675 220.832 311.907 223.869C309.139 226.906 309.97 232.097 309.97 232.097C309.97 232.097 317.293 233.204 322.738 231.491C328.184 229.778 328.378 227.751 326.83 225.776C325.281 223.802 319.619 220.877 321.556 218.753C323.494 216.628 326.994 229.225 329.784 226.801C332.574 224.378 333.607 221.408 332.335 219.164L331.063 216.92C331.063 216.92 325.379 213.928 323.883 211.961C322.387 209.993 324.713 211.056 327.391 212.38C330.069 213.704 335.791 217.803 336.314 216.613C336.838 215.424 335.379 209.133 334.414 207.106C333.449 205.079 324.765 206.104 323.853 205.274C322.94 204.443 327.78 202.184 329.246 202.401C330.335 202.594 331.414 202.844 332.477 203.149C332.477 203.149 332.896 199.634 328.363 196.073C323.83 192.513 322.559 196.903 322.559 196.903Z" fill="#263238"/>
<path d="M318.094 223.951C317.07 219.164 315.918 212.432 316.404 207.944" stroke="#263238" stroke-width="0.748" stroke-miterlimit="10" stroke-linecap="round"/>
<path d="M319.447 229.636C319.447 229.636 319.088 228.334 318.617 226.307" stroke="#263238" stroke-width="0.748" stroke-miterlimit="10" stroke-linecap="round"/>
<path d="M318.385 206.987C318.385 206.987 326.254 207.488 331.946 211.003" stroke="#263238" stroke-width="0.748" stroke-miterlimit="10" stroke-linecap="round"/>
<path d="M318.101 213.397C318.101 213.397 318.325 211.901 324.399 217.466" stroke="#263238" stroke-width="0.748" stroke-miterlimit="10" stroke-linecap="round"/>
<path d="M314.264 206.014C314.264 206.014 314.099 202.536 309.648 200.711" stroke="#263238" stroke-width="0.748" stroke-miterlimit="10" stroke-linecap="round"/>
<path d="M315.094 211.213L311.279 210.525" stroke="#263238" stroke-width="0.748" stroke-miterlimit="10" stroke-linecap="round"/>
<path d="M315.341 216.434C315.341 216.434 308.153 218.229 305.662 220.967" stroke="#263238" stroke-width="0.748" stroke-miterlimit="10" stroke-linecap="round"/>
<path d="M322.559 251.014C322.559 251.014 321.945 256.572 317.584 256.482C313.224 256.392 311.122 248.934 306.529 250.318C301.936 251.702 300.859 259.601 300.859 259.601C300.859 259.601 305.347 256.482 307.494 258.412C309.641 260.341 308.878 263.004 307.688 262.473C306.499 261.942 300.006 259.93 299.371 264.904C299.161 266.319 299.241 267.761 299.607 269.143C299.972 270.525 300.614 271.819 301.495 272.945C301.495 272.945 306.91 264.545 310.202 266.43C313.493 268.315 307.127 269.19 304.367 272.227C301.607 275.264 299.722 278.555 301.817 279.909C303.584 281.215 305.213 282.699 306.679 284.337C306.679 284.337 306.462 279.692 309.506 276.349C312.55 273.005 314.675 274.942 311.907 277.979C309.139 281.016 309.97 286.207 309.97 286.207C309.97 286.207 317.293 287.314 322.738 285.609C328.184 283.903 328.378 281.869 326.83 279.887C325.281 277.904 319.619 274.995 321.556 272.863C323.494 270.731 326.994 283.372 329.784 280.911C332.574 278.451 333.599 275.496 332.335 273.229L331.063 270.985C331.063 270.985 325.401 268.053 323.853 266.094C322.304 264.134 324.683 265.181 327.361 266.505C330.039 267.829 335.761 271.928 336.284 270.739C336.808 269.549 335.349 263.221 334.384 261.232C333.42 259.242 324.735 260.229 323.823 259.406C322.91 258.584 327.75 256.31 329.216 256.534C330.306 256.725 331.384 256.974 332.447 257.282C332.447 257.282 332.866 253.774 328.333 250.206C323.8 246.638 322.559 251.014 322.559 251.014Z" fill="#599BFE"/>
<path opacity="0.3" d="M322.559 251.014C322.559 251.014 321.945 256.572 317.584 256.482C313.224 256.392 311.122 248.934 306.529 250.318C301.936 251.702 300.859 259.601 300.859 259.601C300.859 259.601 305.347 256.482 307.494 258.412C309.641 260.341 308.878 263.004 307.688 262.473C306.499 261.942 300.006 259.93 299.371 264.904C299.161 266.319 299.241 267.761 299.607 269.143C299.972 270.525 300.614 271.819 301.495 272.945C301.495 272.945 306.91 264.545 310.202 266.43C313.493 268.315 307.127 269.19 304.367 272.227C301.607 275.264 299.722 278.555 301.817 279.909C303.584 281.215 305.213 282.699 306.679 284.337C306.679 284.337 306.462 279.692 309.506 276.349C312.55 273.005 314.675 274.942 311.907 277.979C309.139 281.016 309.97 286.207 309.97 286.207C309.97 286.207 317.293 287.314 322.738 285.609C328.184 283.903 328.378 281.869 326.83 279.887C325.281 277.904 319.619 274.995 321.556 272.863C323.494 270.731 326.994 283.372 329.784 280.911C332.574 278.451 333.599 275.496 332.335 273.229L331.063 270.985C331.063 270.985 325.401 268.053 323.853 266.094C322.304 264.134 324.683 265.181 327.361 266.505C330.039 267.829 335.761 271.928 336.284 270.739C336.808 269.549 335.349 263.221 334.384 261.232C333.42 259.242 324.735 260.229 323.823 259.406C322.91 258.584 327.75 256.31 329.216 256.534C330.306 256.725 331.384 256.974 332.447 257.282C332.447 257.282 332.866 253.774 328.333 250.206C323.8 246.638 322.559 251.014 322.559 251.014Z" fill="#263238"/>
<path d="M318.092 278.061C317.068 273.297 315.916 266.55 316.387 262.062" stroke="#263238" stroke-width="0.748" stroke-miterlimit="10" stroke-linecap="round"/>
<path d="M319.447 283.732C319.447 283.732 319.088 282.43 318.617 280.41" stroke="#263238" stroke-width="0.748" stroke-miterlimit="10" stroke-linecap="round"/>
<path d="M318.385 261.097C318.385 261.097 326.254 261.598 331.946 265.114" stroke="#263238" stroke-width="0.748" stroke-miterlimit="10" stroke-linecap="round"/>
<path d="M318.101 267.507C318.101 267.507 318.325 266.049 324.399 271.576" stroke="#263238" stroke-width="0.748" stroke-miterlimit="10" stroke-linecap="round"/>
<path d="M314.264 260.132C314.264 260.132 314.099 256.646 309.648 254.821" stroke="#263238" stroke-width="0.748" stroke-miterlimit="10" stroke-linecap="round"/>
<path d="M315.094 265.323L311.279 264.635" stroke="#263238" stroke-width="0.748" stroke-miterlimit="10" stroke-linecap="round"/>
<path d="M315.341 270.552C315.341 270.552 308.153 272.339 305.662 275.077" stroke="#263238" stroke-width="0.748" stroke-miterlimit="10" stroke-linecap="round"/>
<path d="M306.402 238.904C306.402 238.904 318.744 283.784 320.046 297.757L317.443 215.514" stroke="#263238" stroke-width="0.748" stroke-miterlimit="10" stroke-linecap="round"/>
<path d="M336.284 232.082C320.045 229.157 320.045 297.757 320.045 297.757" stroke="#263238" stroke-width="0.748" stroke-miterlimit="10" stroke-linecap="round"/>
<path d="M321.99 297.427C321.99 297.427 312.573 193.455 339.86 193.455" stroke="#263238" stroke-width="0.748" stroke-miterlimit="10" stroke-linecap="round"/>
<path d="M330.099 230.115C327.855 227.617 323.165 227.616 320.375 233.997C317.585 240.377 320.098 239.233 320.098 239.233C320.098 239.233 325.334 237.572 328.692 236.465C332.051 235.358 336.457 232.583 336.733 234.221C337.01 235.859 334.489 237.55 331.497 238.103C328.505 238.657 320.405 240.879 321.235 242.539C322.065 244.2 324.01 249.196 324.01 249.196C326.378 247.185 328.877 245.333 331.49 243.654C335.095 241.41 337.317 242.262 335.372 244.761C333.427 247.259 327.892 249.997 328.992 253.355C330.091 256.714 336.756 260.835 336.756 260.835C336.756 260.835 337.594 253.901 339.531 251.687C341.468 249.473 341.476 251.964 340.922 255.846C340.642 257.497 340.455 259.163 340.361 260.835L348.133 263.61C349.4 261.676 350.789 259.825 352.292 258.068L353.676 256.676C353.676 256.676 347.572 251.44 347.295 248.082C347.018 244.723 351.462 248.082 352.845 248.635C354.229 249.189 356.451 253.071 356.451 253.071C356.451 253.071 357.835 246.69 358.111 244.476L358.388 242.232C358.388 242.232 352.569 239.988 350.347 239.988C348.125 239.988 347.018 241.649 347.018 239.427C347.018 237.206 349.262 235.822 351.738 236.106C353.995 236.484 356.219 237.039 358.388 237.767C358.388 237.767 360.056 236.383 359.503 232.217C358.949 228.05 357.558 228.058 354.229 229.172C350.901 230.287 348.686 232.778 346.188 232.778C343.69 232.778 345.081 229.726 346.742 228.896C348.402 228.065 352.569 226.397 353.399 226.12C354.229 225.844 348.963 221.962 346.188 221.408C343.413 220.855 339.823 222.807 340.084 225.567C340.638 231.499 332.313 232.628 330.099 230.115Z" fill="#599BFE"/>
<path d="M347.948 258.666C348.031 259.504 348.09 260.342 348.128 261.172" stroke="#263238" stroke-width="0.748" stroke-miterlimit="10" stroke-linecap="round"/>
<path d="M342.381 238.762C344.824 244.26 346.582 250.038 347.617 255.966" stroke="#263238" stroke-width="0.748" stroke-miterlimit="10" stroke-linecap="round"/>
<path d="M341.379 236.533C340.003 233.541 338.971 231.775 338.971 231.775C340.485 231.061 341.743 229.899 342.576 228.447C343.227 227.143 344.178 226.012 345.351 225.148" stroke="#263238" stroke-width="0.748" stroke-miterlimit="10" stroke-linecap="round"/>
<path d="M329.261 241.208C329.261 241.208 339.247 237.049 339.247 237.879" stroke="#263238" stroke-width="0.748" stroke-miterlimit="10" stroke-linecap="round"/>
<path d="M344.827 235.934C344.827 235.934 349.263 233.69 353.145 233.69" stroke="#263238" stroke-width="0.748" stroke-miterlimit="10" stroke-linecap="round"/>
<path d="M343.131 242.592C341.221 244.178 339.467 245.944 337.895 247.865C336.273 249.774 334.963 251.928 334.013 254.245" stroke="#263238" stroke-width="0.748" stroke-miterlimit="10" stroke-linecap="round"/>
<path d="M346.183 243.706C346.183 243.706 352.01 242.038 355.061 244.813" stroke="#263238" stroke-width="0.748" stroke-miterlimit="10" stroke-linecap="round"/>
<path d="M356.728 206.231C353.736 204.443 350.37 204.406 348.739 202.491C347.109 200.576 350.31 199.656 352.031 200.367C353.751 201.077 357.738 203.127 358.493 203.568C359.249 204.01 358.725 197.494 357.326 195.034C355.928 192.573 352.09 191.144 350.183 193.156C346.144 197.39 339.853 191.84 340.287 188.526C340.721 185.212 337.624 181.652 330.989 183.739C324.355 185.826 326.831 186.985 326.831 186.985C326.831 186.985 331.543 189.872 334.557 191.66C337.572 193.448 342.583 194.981 341.506 196.275C340.429 197.569 337.542 196.784 335.118 194.847C332.695 192.909 325.753 188.287 325.043 190.007C324.332 191.727 321.834 196.462 321.834 196.462C324.907 196.932 327.946 197.607 330.93 198.482C334.969 199.746 335.799 201.968 332.642 202.14C329.486 202.312 323.756 199.94 321.969 202.962C320.181 205.984 321.4 213.734 321.4 213.734C321.4 213.734 327.182 209.814 330.129 209.829C333.076 209.844 331.199 211.475 327.885 213.569C326.455 214.445 325.074 215.399 323.749 216.426L326.741 224.108C329.034 223.797 331.345 223.632 333.66 223.615L335.612 223.749C335.612 223.749 335.612 215.686 337.923 213.277C340.235 210.869 340.654 216.419 341.14 217.825C341.626 219.231 340.152 223.458 340.152 223.458C340.152 223.458 345.882 220.323 347.737 219.082L349.592 217.833C349.592 217.833 347.453 211.983 345.994 210.308C344.536 208.632 342.561 208.887 344.236 207.428C345.912 205.969 348.41 206.74 349.839 208.804C351.034 210.758 352.072 212.804 352.943 214.923C352.943 214.923 355.083 215.274 357.858 212.125C360.633 208.976 359.787 208.019 356.728 206.231ZM330.488 215.11C328.244 213.995 333.533 211.781 333.533 211.781C335.477 211.505 332.702 216.217 330.488 215.11ZM334.228 204.75C333.286 204.279 336.121 203.336 336.121 203.336C340.212 204.122 335.171 205.229 334.221 204.75H334.228Z" fill="#599BFE"/>
<path d="M330.428 220.757C329.852 221.363 329.253 221.962 328.647 222.53" stroke="#263238" stroke-width="0.748" stroke-miterlimit="10" stroke-linecap="round"/>
<path d="M341.834 203.501C339.284 208.941 336.076 214.048 332.282 218.708" stroke="#263238" stroke-width="0.748" stroke-miterlimit="10" stroke-linecap="round"/>
<path d="M342.838 201.287C344.162 198.295 344.85 196.35 344.85 196.35C346.383 197.021 348.084 197.209 349.727 196.889C351.143 196.519 352.627 196.488 354.058 196.799" stroke="#263238" stroke-width="0.748" stroke-miterlimit="10" stroke-linecap="round"/>
<path d="M331.362 195.228C331.362 195.228 341.049 200.045 340.421 200.584" stroke="#263238" stroke-width="0.748" stroke-miterlimit="10" stroke-linecap="round"/>
<path d="M345.523 203.456C345.523 203.456 350.109 205.356 352.652 208.288" stroke="#263238" stroke-width="0.748" stroke-miterlimit="10" stroke-linecap="round"/>
<path d="M339.404 206.583C336.951 206.166 334.463 205.988 331.976 206.052C329.47 206.082 326.983 206.506 324.608 207.308" stroke="#263238" stroke-width="0.748" stroke-miterlimit="10" stroke-linecap="round"/>
<path d="M340.569 209.612C340.569 209.612 345.641 212.918 345.551 217.04" stroke="#263238" stroke-width="0.748" stroke-miterlimit="10" stroke-linecap="round"/>
<path d="M313.637 244.656C311.206 243.22 308.52 243.16 307.204 241.664C305.887 240.168 308.476 239.42 309.859 239.951C311.243 240.482 314.445 242.195 315.05 242.539C315.656 242.883 315.237 237.647 314.115 235.665C312.993 233.683 309.904 232.538 308.363 234.169C305.117 237.58 300.061 233.107 300.405 230.429C300.749 227.751 298.265 224.894 292.925 226.577C287.584 228.26 289.574 229.187 289.574 229.187C289.574 229.187 293.366 231.513 295.797 232.927C298.228 234.341 302.252 235.597 301.384 236.667C300.517 237.737 298.191 237.071 296.246 235.515C294.301 233.959 288.706 230.234 288.137 231.618C287.569 233.002 285.557 236.817 285.557 236.817C288.031 237.194 290.478 237.736 292.88 238.44C296.126 239.457 296.792 241.245 294.249 241.387C291.705 241.529 287.098 239.614 285.662 242.045C284.225 244.476 285.205 250.715 285.205 250.715C285.205 250.715 289.858 247.558 292.229 247.573C294.6 247.588 293.089 248.897 290.434 250.61C289.283 251.31 288.174 252.077 287.113 252.906L289.521 259.085C291.366 258.836 293.225 258.704 295.086 258.688L296.657 258.8C296.657 258.8 296.657 252.308 298.52 250.385C300.382 248.463 300.711 252.914 301.108 254.051C301.504 255.188 300.315 258.584 300.315 258.584C300.315 258.584 304.923 256.055 306.419 255.06L307.915 254.058C307.915 254.058 306.187 249.346 305.02 247.999C303.853 246.653 302.252 246.855 303.599 245.681C304.945 244.506 306.957 245.127 308.087 246.788C309.047 248.363 309.882 250.011 310.585 251.717C310.585 251.717 312.305 251.994 314.542 249.473C316.778 246.952 316.068 246.092 313.637 244.656ZM292.513 251.799C290.733 250.909 294.974 249.121 294.974 249.121C296.537 248.897 294.301 252.697 292.513 251.799ZM295.505 243.466C294.757 243.092 297.001 242.329 297.001 242.329C300.345 242.965 296.283 243.848 295.52 243.466H295.505Z" fill="#599BFE"/>
<path d="M292.468 256.347C292.004 256.841 291.525 257.32 291.039 257.776" stroke="#263238" stroke-width="0.748" stroke-miterlimit="10" stroke-linecap="round"/>
<path d="M301.63 242.457C299.583 246.833 297.008 250.943 293.963 254.694" stroke="#263238" stroke-width="0.748" stroke-miterlimit="10" stroke-linecap="round"/>
<path d="M302.453 240.676C303.523 238.283 304.076 236.705 304.076 236.705C305.307 237.248 306.676 237.4 307.996 237.138C309.136 236.842 310.331 236.819 311.481 237.071" stroke="#263238" stroke-width="0.748" stroke-miterlimit="10" stroke-linecap="round"/>
<path d="M293.216 235.785C293.216 235.785 301.01 239.652 300.501 240.093" stroke="#263238" stroke-width="0.748" stroke-miterlimit="10" stroke-linecap="round"/>
<path d="M304.614 242.442C304.614 242.442 308.309 243.938 310.351 246.324" stroke="#263238" stroke-width="0.748" stroke-miterlimit="10" stroke-linecap="round"/>
<path d="M299.692 244.94C297.716 244.605 295.712 244.462 293.708 244.514C291.69 244.54 289.689 244.88 287.776 245.524" stroke="#263238" stroke-width="0.748" stroke-miterlimit="10" stroke-linecap="round"/>
<path d="M300.627 247.379C300.627 247.379 304.711 250.042 304.636 253.363" stroke="#263238" stroke-width="0.748" stroke-miterlimit="10" stroke-linecap="round"/>
<path d="M337.145 274.598C334.714 273.162 332.028 273.102 330.712 271.606C329.395 270.11 331.976 269.317 333.36 269.893C334.743 270.469 337.952 272.137 338.558 272.474C339.164 272.811 338.745 267.582 337.623 265.607C336.501 263.633 333.412 262.473 331.871 264.111C328.625 267.522 323.561 263.057 323.912 260.371C324.264 257.686 321.766 254.844 316.432 256.527C311.099 258.21 313.081 259.137 313.081 259.137C313.081 259.137 316.874 261.456 319.305 262.877C321.736 264.298 325.76 265.548 324.892 266.617C324.025 267.687 321.698 267.029 319.754 265.465C317.809 263.902 312.214 260.192 311.645 261.576C311.077 262.959 309.065 266.767 309.065 266.767C311.543 267.144 313.995 267.684 316.403 268.382C319.656 269.407 320.322 271.195 317.779 271.33C315.236 271.464 310.628 269.557 309.192 271.988C307.756 274.419 308.736 280.657 308.736 280.657C308.736 280.657 313.388 277.508 315.759 277.516C318.13 277.523 316.619 278.84 313.964 280.552C312.813 281.256 311.702 282.023 310.635 282.849L313.051 289.035C314.896 288.786 316.755 288.651 318.617 288.631L320.187 288.743C320.187 288.743 320.187 282.258 322.05 280.336C323.912 278.413 324.242 282.864 324.638 283.993C325.034 285.123 323.845 288.526 323.845 288.526C323.845 288.526 328.453 286.005 329.949 285.003L331.445 284.001C331.445 284.001 329.724 279.296 328.55 277.942C327.376 276.588 325.782 276.797 327.136 275.631C328.49 274.464 330.495 275.077 331.624 276.738C332.585 278.31 333.421 279.956 334.123 281.659C334.123 281.659 335.843 281.944 338.08 279.415C340.316 276.887 339.591 276.012 337.145 274.598ZM316.021 281.742C314.233 280.852 318.474 279.064 318.474 279.064C320.038 278.84 317.809 282.632 316.021 281.742ZM319.013 273.409C318.265 273.028 320.509 272.265 320.509 272.265C323.883 272.9 319.791 273.768 319.028 273.409H319.013Z" fill="#599BFE"/>
<path d="M315.976 286.29C315.512 286.776 315.034 287.254 314.54 287.718" stroke="#263238" stroke-width="0.748" stroke-miterlimit="10" stroke-linecap="round"/>
<path d="M325.133 272.399C323.083 276.779 320.5 280.889 317.443 284.636" stroke="#263238" stroke-width="0.748" stroke-miterlimit="10" stroke-linecap="round"/>
<path d="M325.963 270.619C327.033 268.225 327.579 266.647 327.579 266.647C328.813 267.187 330.183 267.339 331.506 267.081C332.645 266.779 333.84 266.753 334.991 267.006" stroke="#263238" stroke-width="0.748" stroke-miterlimit="10" stroke-linecap="round"/>
<path d="M316.731 265.719C316.731 265.719 324.526 269.594 324.017 270.035" stroke="#263238" stroke-width="0.748" stroke-miterlimit="10" stroke-linecap="round"/>
<path d="M328.124 272.377C328.124 272.377 331.812 273.873 333.861 276.266" stroke="#263238" stroke-width="0.748" stroke-miterlimit="10" stroke-linecap="round"/>
<path d="M323.203 274.875C321.226 274.545 319.223 274.405 317.219 274.456C315.204 274.477 313.205 274.815 311.295 275.459" stroke="#263238" stroke-width="0.748" stroke-miterlimit="10" stroke-linecap="round"/>
<path d="M324.138 277.321C324.138 277.321 328.222 279.976 328.147 283.305" stroke="#263238" stroke-width="0.748" stroke-miterlimit="10" stroke-linecap="round"/>
<path d="M303.732 198.863C303.732 198.863 300.68 201.107 298.736 198.863C296.791 196.619 299.566 192.206 296.798 190.538C294.031 188.87 289.587 191.929 289.587 191.929C289.587 191.929 293.215 192.76 293.215 194.704C293.215 196.649 291.547 197.472 291.27 196.642C290.994 195.811 289.026 191.653 286.281 193.59C285.48 194.13 284.797 194.826 284.272 195.637C283.748 196.449 283.393 197.358 283.229 198.31C283.229 198.31 289.887 197.195 290.44 199.694C290.994 202.192 287.665 199.417 284.89 199.417C282.115 199.417 279.654 199.97 279.901 201.661C280.051 203.135 280.051 204.622 279.901 206.096C281.323 204.749 283.18 203.953 285.137 203.852C288.189 203.852 288.189 205.797 285.421 205.797C282.654 205.797 280.424 208.565 280.424 208.565C280.424 208.565 283.2 212.731 286.528 214.668C289.857 216.606 290.964 215.776 291.241 214.115C291.517 212.454 290.41 208.288 292.348 208.288C294.285 208.288 289.58 215.768 292.071 216.06C294.562 216.351 296.514 215.499 297.067 213.816L297.621 212.148C297.621 212.148 296.514 207.989 296.791 206.328C297.067 204.668 297.621 206.328 298.175 208.266C298.728 210.203 299.282 214.923 300.119 214.646C300.957 214.369 303.44 210.764 304.001 209.41C304.562 208.056 300.119 204.137 300.119 203.306C300.119 202.476 303.44 203.86 304.001 204.69C304.403 205.319 304.772 205.969 305.108 206.635C305.108 206.635 307.046 205.251 306.769 201.362C306.492 197.472 303.732 198.863 303.732 198.863Z" fill="#599BFE"/>
<path d="M288.196 208.924C290.111 206.246 292.954 202.603 295.407 200.801" stroke="#263238" stroke-width="0.748" stroke-miterlimit="10" stroke-linecap="round"/>
<path d="M285.983 212.17C285.983 212.17 286.47 211.422 287.262 210.248" stroke="#263238" stroke-width="0.748" stroke-miterlimit="10" stroke-linecap="round"/>
<path d="M296.799 201.354C296.799 201.354 300.127 205.521 300.958 209.956" stroke="#263238" stroke-width="0.748" stroke-miterlimit="10" stroke-linecap="round"/>
<path d="M293.469 204.129C293.469 204.129 294.299 203.576 294.299 209.126" stroke="#263238" stroke-width="0.748" stroke-miterlimit="10" stroke-linecap="round"/>
<path d="M295.407 198.863C295.407 198.863 297.075 197.195 295.961 194.144" stroke="#263238" stroke-width="0.748" stroke-miterlimit="10" stroke-linecap="round"/>
<path d="M293.192 201.639L291.801 199.417" stroke="#263238" stroke-width="0.748" stroke-miterlimit="10" stroke-linecap="round"/>
<path d="M290.694 204.129C290.694 204.129 286.535 201.354 284.037 201.354" stroke="#263238" stroke-width="0.748" stroke-miterlimit="10" stroke-linecap="round"/>
<path d="M331.737 296.724H310.3V327.587H331.737V296.724Z" fill="#263238" stroke="#263238" stroke-width="1.496" stroke-miterlimit="10" stroke-linecap="round"/>
<path d="M259.033 344.828C284.439 344.828 305.035 342.149 305.035 338.844C305.035 335.539 284.439 332.86 259.033 332.86C233.627 332.86 213.031 335.539 213.031 338.844C213.031 342.149 233.627 344.828 259.033 344.828Z" fill="#263238" stroke="#263238" stroke-width="1.496" stroke-miterlimit="10" stroke-linecap="round"/>
<path d="M240.026 166.871C238.087 168.943 236.631 171.418 235.763 174.119C234.484 178.383 226.173 199.058 226.6 201.19C227.026 203.321 233.205 206.306 235.336 205.453C237.468 204.6 240.879 194.981 240.879 194.981L240.026 166.871Z" fill="#599BFE" stroke="#263238" stroke-width="0.748" stroke-linecap="round" stroke-linejoin="round"/>
<path d="M264.636 160.282C264.636 160.282 264.636 160.282 264.598 160.244C264.56 160.206 264.621 160.267 264.636 160.282Z" fill="#263238" stroke="#263238" stroke-width="0.748" stroke-linecap="round" stroke-linejoin="round"/>
<path d="M264.18 159.788L264.248 159.863" stroke="#263238" stroke-width="0.748" stroke-linecap="round" stroke-linejoin="round"/>
<path d="M281.526 219.994C279.703 215.733 277.628 211.584 275.31 207.57C275.31 207.57 278.789 183.455 278.789 178.234C278.789 173.013 275.31 169.527 272.805 166.55C270.98 164.358 267.688 162.705 265.572 161.097C264.524 164.755 260.515 177.127 254.157 176.491C246.677 175.743 251.165 162.817 251.165 162.817C250.17 165.555 240.476 163.565 238.733 169.033C236.99 174.501 239.728 196.627 239.982 203.09C240.237 209.552 240.476 225.47 239.234 233.421C237.993 241.372 234.507 280.164 235.494 289.356C236.482 298.549 243.206 318.947 243.453 322.179C243.7 325.41 241.71 326.151 242.211 327.893C242.509 328.946 242.675 330.031 242.705 331.125C242.705 331.125 240.97 332.366 237.985 334.865C235.001 337.363 231.769 338.837 235.494 339.832C239.219 340.826 246.438 339.585 246.438 339.585C246.438 339.585 240.715 343.063 243.446 344.073C246.176 345.082 263.088 344.327 266.065 344.073C269.042 343.818 270.045 342.577 269.805 338.837C269.753 337.069 269.502 335.312 269.057 333.601C269.057 333.601 270.8 328.881 270.8 326.644V320.182C270.8 317.691 270.8 307.002 272.79 301.534C274.779 296.066 274.525 291.062 274.525 287.112C274.404 283.699 274.072 280.297 273.53 276.925C273.53 276.925 282.521 257.043 284.99 246.092C287.458 235.141 284.758 227.459 281.526 219.994ZM257.658 309.994C257.658 309.994 256.162 299.058 254.426 294.084C252.691 289.11 251.943 286.125 251.943 284.883C251.943 283.642 257.179 261.516 257.179 261.516C257.179 261.516 255.937 285.631 256.932 293.837C257.535 299.2 257.778 304.598 257.658 309.994Z" fill="#263238" stroke="#263238" stroke-width="0.748" stroke-linecap="round" stroke-linejoin="round"/>
<path d="M267.104 233.174C276.35 232.022 281.451 229.524 284.308 227.19C283.526 224.746 282.609 222.346 281.563 220.002C279.74 215.74 277.665 211.592 275.347 207.577C275.347 207.577 278.826 183.462 278.826 178.241C278.826 173.02 275.347 169.534 272.842 166.557C271.017 164.366 267.725 162.712 265.608 161.104C264.561 164.762 260.552 177.134 254.194 176.498C246.714 175.75 251.202 162.825 251.202 162.825C250.207 165.562 240.513 163.573 238.77 169.041C237.027 174.508 239.765 196.634 240.019 203.097C240.236 208.894 240.461 222.276 239.608 230.721C244.956 232.546 254.546 234.745 267.104 233.174Z" fill="#599BFE" stroke="#263238" stroke-width="0.748" stroke-linecap="round" stroke-linejoin="round"/>
<path d="M245.742 194.63C245.742 194.63 253.222 203.224 257.112 205.446" stroke="#263238" stroke-width="0.748" stroke-linecap="round" stroke-linejoin="round"/>
<path d="M255.354 207.263C255.923 207.585 256.514 207.907 257.112 208.213" stroke="#263238" stroke-width="0.748" stroke-linecap="round" stroke-linejoin="round"/>
<path d="M244.351 199.065C247.076 201.661 250.053 203.978 253.237 205.984" stroke="#263238" stroke-width="0.748" stroke-linecap="round" stroke-linejoin="round"/>
<path d="M241.942 155.876C241.942 155.876 239.698 163.603 240.446 166.243C241.194 168.884 242.57 172.975 242.57 172.975C242.57 172.975 225.591 197.719 225.366 200.704C225.142 203.688 228.455 205.812 231.433 206.007C234.41 206.201 236.212 204.818 237.282 201.474C238.352 198.13 247.193 173.701 247.193 173.701C247.193 173.701 250.185 166.632 250.723 165.383C251.262 164.134 251.591 158.606 251.591 158.606C251.591 158.606 250.215 156.803 250.095 158.292C249.87 159.73 249.492 161.139 248.966 162.496L247.193 160.252C247.193 160.252 247.193 157.26 247.193 156.407C247.193 155.554 246.782 152.966 245.697 153.535C244.612 154.103 242.944 153.587 241.942 155.876Z" fill="white" stroke="#263238" stroke-width="0.748" stroke-linecap="round" stroke-linejoin="round"/>
<path d="M243.101 159.78L242.353 163.64C242.353 163.64 246.205 167.978 245.726 171.352" stroke="#263238" stroke-width="0.748" stroke-linecap="round" stroke-linejoin="round"/>
<path d="M244.731 127.766C244.731 127.766 241.979 125.193 241.47 122.373C240.961 119.553 253.528 116.98 259.168 118.521C264.808 120.062 278.616 126.12 279.177 132.89C280.202 145.464 272.445 152.083 271.48 153.669C268.824 158.06 262.399 156.811 260.963 155.719C259.527 154.627 254.807 145.718 252.496 142.382C250.184 139.046 244.731 127.766 244.731 127.766Z" fill="#263238" stroke="#263238" stroke-width="0.748" stroke-linecap="round" stroke-linejoin="round"/>
<path d="M252.496 131.603C252.496 131.603 262.504 136.996 270.201 137.505" stroke="#757575" stroke-width="0.748" stroke-linecap="round" stroke-linejoin="round"/>
<path d="M255.069 136.735C255.069 136.735 260.971 145.202 273.283 144.693" stroke="#757575" stroke-width="0.748" stroke-linecap="round" stroke-linejoin="round"/>
<path d="M263.873 159.324C262.759 157.319 264.038 154.716 264.315 154.2L260.889 152.106C262.064 152.054 263.232 151.886 264.375 151.605C266.619 151.111 268.115 146.975 266.11 145.142C263.522 142.808 261.143 145.396 261.143 145.396C261.143 145.396 257.164 145.396 254.927 140.422C252.691 135.448 252.683 132.194 249.691 130.698C247.956 129.835 246.293 128.835 244.717 127.706C244.717 127.706 241.957 134.064 242.204 138.545C242.451 143.025 238.254 145.105 238.008 146.346C237.761 147.588 241 148.59 241 148.59C241 148.59 240.498 157.289 241.493 158.314C242.488 159.339 251.217 158.314 251.217 158.314C251.217 158.314 252.212 160.057 251.217 162.802C251.217 162.802 246.729 175.728 254.209 176.476C260.567 177.111 264.577 164.74 265.624 161.082L265.713 161.149C264.984 160.671 264.358 160.05 263.873 159.324Z" fill="white" stroke="#263238" stroke-width="0.748" stroke-linecap="round" stroke-linejoin="round"/>
<path d="M245.233 143.175C245.646 143.175 245.981 142.508 245.981 141.686C245.981 140.864 245.646 140.198 245.233 140.198C244.82 140.198 244.485 140.864 244.485 141.686C244.485 142.508 244.82 143.175 245.233 143.175Z" fill="#263238"/>
<path d="M243.102 150.64C243.992 150.853 244.922 150.835 245.804 150.589C246.686 150.343 247.491 149.877 248.143 149.234" stroke="#263238" stroke-width="0.748" stroke-linecap="round" stroke-linejoin="round"/>
<path d="M243.902 137.632C244.189 137.401 244.526 137.242 244.887 137.167C245.247 137.091 245.62 137.102 245.975 137.198C246.33 137.295 246.658 137.474 246.931 137.721C247.203 137.968 247.414 138.276 247.545 138.619" stroke="#263238" stroke-width="0.748" stroke-linecap="round" stroke-linejoin="round"/>
<path d="M244.238 341.193C248.165 340.445 254.187 338.515 255.174 335.351C256.416 331.372 256.67 331.125 256.67 331.125C253.743 332.294 250.514 332.471 247.477 331.626C247.477 331.626 246.976 328.14 244.739 327.886C242.862 327.676 242.735 330.078 242.742 330.878C242.742 331.035 242.742 331.125 242.742 331.125C242.742 331.125 241.007 332.366 238.022 334.865C235.038 337.363 231.806 338.837 235.532 339.831C239.257 340.826 246.475 339.585 246.475 339.585C245.694 340.07 244.947 340.607 244.238 341.193Z" fill="white" stroke="#263238" stroke-width="0.748" stroke-linecap="round" stroke-linejoin="round"/>
<path d="M269.841 338.844C269.762 337.507 269.607 336.176 269.378 334.857C266.09 335.475 262.733 335.646 259.399 335.366C259.399 335.366 257.903 327.661 255.42 332.374C252.937 337.086 246.444 339.585 246.444 339.585C246.444 339.585 240.722 343.063 243.452 344.073C246.182 345.082 263.095 344.327 266.072 344.073C269.049 343.818 270.088 342.584 269.841 338.844Z" fill="white" stroke="#263238" stroke-width="0.748" stroke-linecap="round" stroke-linejoin="round"/>
<path d="M268.166 175.825C268.166 175.825 260.918 201.616 260.686 203.965C260.454 206.313 263.244 213.345 267.717 212.275C272.191 211.205 274.966 206.523 275.818 201.803C276.671 197.083 281.802 181.121 281.802 177.074C281.802 173.027 270.934 165.772 270.934 165.772" fill="#599BFE"/>
<path d="M268.166 175.825C268.166 175.825 260.918 201.616 260.686 203.965C260.454 206.313 263.244 213.345 267.717 212.275C272.191 211.205 274.966 206.523 275.818 201.803C276.671 197.083 281.802 181.121 281.802 177.074C281.802 173.027 270.934 165.772 270.934 165.772" stroke="#263238" stroke-width="0.748" stroke-linecap="round" stroke-linejoin="round"/>
<path d="M259.108 176.311C259.108 176.311 262.758 167.964 262.923 166.692C263.087 165.42 261.27 161.112 259.983 159.444C258.697 157.776 251.291 156.826 252.002 157.985C252.713 159.145 255.563 160.379 255.563 160.379C255.563 160.379 253.251 171.689 253.67 173.461C254.089 175.234 255.166 178.6 255.166 178.6C255.166 178.6 259.654 207.323 259.856 209.074C260.058 210.824 263.469 212.761 266.087 212.447C268.705 212.133 270.298 209.762 270.575 205.715C270.852 201.668 262.175 185.721 261.599 183.5C261.023 181.278 259.108 176.311 259.108 176.311Z" fill="white" stroke="#263238" stroke-width="0.748" stroke-linecap="round" stroke-linejoin="round"/>
<path d="M259.984 159.444C260.128 159.638 260.222 159.863 260.26 160.102C260.298 160.34 260.278 160.584 260.201 160.813C259.991 161.77 259.243 164.852 259.243 164.852" stroke="#263238" stroke-width="0.748" stroke-linecap="round" stroke-linejoin="round"/>
<path d="M261.689 163.363L260.731 166.55" stroke="#263238" stroke-width="0.748" stroke-linecap="round" stroke-linejoin="round"/>
<path d="M153.616 180.971L157.573 186.14L191.353 189.491L189.543 193.702L149.36 196.791L142.658 182.796L153.616 180.971Z" fill="white" stroke="#263238" stroke-width="0.748" stroke-linecap="round" stroke-linejoin="round"/>
<path d="M148.747 160.887L157.266 181.884L147.527 185.227L139.314 168.188L148.747 160.887Z" fill="#599BFE" stroke="#263238" stroke-width="0.748" stroke-linecap="round" stroke-linejoin="round"/>
<path d="M152.082 152.233C152.082 152.233 149.711 165.607 148.342 170.813C146.973 176.019 139.568 185.826 135.85 189.244C132.133 192.662 124.556 202.17 124.556 202.17V146.877L135.26 139.001L152.082 152.233Z" fill="#599BFE" stroke="#263238" stroke-width="0.748" stroke-linecap="round" stroke-linejoin="round"/>
<path d="M138.858 119.381C138.858 119.381 140.197 124.729 140.788 125.627C141.379 126.524 141.386 131.424 139.292 134.094C137.198 136.764 134.677 139.45 134.677 139.45L147.46 148.665C147.46 148.665 151.2 142.569 152.816 140.931C154.032 139.782 155.377 138.778 156.825 137.939C156.825 137.939 152.337 134.072 152.068 129.172C151.798 124.273 151.926 118.169 151.926 118.169L138.858 119.381Z" fill="white" stroke="#263238" stroke-width="0.748" stroke-linecap="round" stroke-linejoin="round"/>
<path d="M149.262 133.084L151.85 141.888L156.839 137.961L149.262 133.084Z" fill="#263238" stroke="#263238" stroke-width="0.748" stroke-linecap="round" stroke-linejoin="round"/>
<path d="M168.643 118.64C168.643 118.64 168.299 121.759 168.299 122.672C168.299 123.585 171.425 125.664 171.425 126.98C171.425 128.297 168.007 130.257 168.007 130.257C168.007 130.257 165.928 138.283 164.589 139.764C163.25 141.245 153.586 138.724 151.207 136.495C148.828 134.266 147.048 125.941 146.899 123.42C146.749 120.899 146.899 117.765 146.899 117.765L167.708 117.017L168.643 118.64Z" fill="white" stroke="#263238" stroke-width="0.748" stroke-linecap="round" stroke-linejoin="round"/>
<path d="M153.129 118.409C152.949 118.782 152.855 119.191 152.855 119.605C152.855 120.02 152.949 120.429 153.129 120.802C153.687 121.562 154.435 122.161 155.299 122.537L152.696 122.754L152.479 123.622C151.56 123.273 150.732 122.721 150.056 122.007C149.38 121.294 148.873 120.437 148.574 119.501C147.489 116.239 146.622 120.802 146.622 120.802L146.839 124.924C145.777 126.212 144.444 127.249 142.934 127.96L140.757 128.828C140.757 128.828 139.261 118.842 139.456 116.673C139.65 114.504 146.622 113.636 148.14 114.07C149.659 114.504 153.129 116.022 153.129 118.409Z" fill="#263238" stroke="#263238" stroke-width="0.748" stroke-linecap="round" stroke-linejoin="round"/>
<path d="M164.865 122.5C164.865 123.405 164.565 124.138 164.199 124.138C163.832 124.138 163.533 123.39 163.533 122.5C163.533 121.61 163.832 120.869 164.199 120.869C164.565 120.869 164.865 121.602 164.865 122.5Z" fill="#263238"/>
<path d="M161.155 129.486C161.671 130.202 162.374 130.761 163.187 131.103C164 131.445 164.891 131.556 165.763 131.424" stroke="#263238" stroke-width="0.748" stroke-linecap="round" stroke-linejoin="round"/>
<path d="M138.551 120.316C138.551 120.316 154.072 119.837 160.049 119.358C166.025 118.88 168.643 118.61 168.643 118.61C168.643 118.61 167.207 106.912 166.736 103.8C166.265 100.688 153.833 96.4023 148.342 97.3523C142.852 98.3022 137.122 103.561 136.636 107.383C136.15 111.205 138.551 120.316 138.551 120.316Z" fill="#599BFE" stroke="#263238" stroke-width="0.748" stroke-linecap="round" stroke-linejoin="round"/>
<path d="M149.531 122.672C149.531 122.672 147.145 116.942 144.999 118.132C142.852 119.321 143.084 123.869 144.52 125.298C145.956 126.726 149.06 125.776 149.06 125.776" fill="white"/>
<path d="M149.531 122.672C149.531 122.672 147.145 116.942 144.999 118.132C142.852 119.321 143.084 123.869 144.52 125.298C145.956 126.726 149.06 125.776 149.06 125.776" stroke="#263238" stroke-width="0.748" stroke-linecap="round" stroke-linejoin="round"/>
<path d="M158.852 119.598C158.852 119.598 166.017 115.775 168.882 115.775C171.747 115.775 182.975 115.536 181.538 118.401C180.102 121.266 170.79 120.076 166.735 120.076C164.101 120.061 161.469 119.901 158.852 119.598Z" fill="white" stroke="#263238" stroke-width="0.748" stroke-linecap="round" stroke-linejoin="round"/>
<path d="M135.588 134.543L155.059 147.476L153.72 154.904L132.17 139.3L135.588 134.543Z" fill="white" stroke="#263238" stroke-width="0.748" stroke-linecap="round" stroke-linejoin="round"/>
<path d="M198.31 161.89C198.31 161.89 200.396 155.053 204.256 154.462C208.116 153.871 214.661 154.754 214.81 156.706C214.96 158.658 211.99 161.613 211.99 161.613L198.31 161.89Z" fill="#599BFE" stroke="#263238" stroke-width="0.748" stroke-linecap="round" stroke-linejoin="round"/>
<path d="M213.179 155.225C209.947 155.442 207.195 161.306 206.985 161.703L212.027 161.598C212.027 161.598 215.019 158.606 214.847 156.691C214.765 156.1 214.121 155.584 213.179 155.225Z" fill="#263238" stroke="#263238" stroke-width="0.748" stroke-linecap="round" stroke-linejoin="round"/>
<path d="M194.478 153.564C194.478 153.564 186.602 151.784 184.814 154.754C183.026 157.723 190.611 161.74 190.611 161.74H201.434L194.478 153.564Z" fill="#599BFE" stroke="#263238" stroke-width="0.748" stroke-linecap="round" stroke-linejoin="round"/>
<path d="M202.626 161.89C202.626 161.89 198.459 152.233 194.48 153.565C190.501 154.896 198.22 161.74 199.088 161.74L202.626 161.89Z" fill="#263238" stroke="#263238" stroke-width="0.748" stroke-linecap="round" stroke-linejoin="round"/>
<path d="M216.747 161.74H179.437V193.695H216.747V161.74Z" fill="white" stroke="#263238" stroke-width="0.748" stroke-linecap="round" stroke-linejoin="round"/>
<path d="M216.739 161.74H205.444V193.695H216.739V161.74Z" fill="white" stroke="#263238" stroke-width="0.748" stroke-linecap="round" stroke-linejoin="round"/>
<path d="M196.976 161.74H189.541V193.695H196.976V161.74Z" fill="#599BFE" stroke="#263238" stroke-width="0.748" stroke-linecap="round" stroke-linejoin="round"/>
<path d="M208.421 162.039V177.65L211.69 172.893L214.517 176.752V161.89L208.421 162.039Z" fill="#599BFE" stroke="#263238" stroke-width="0.748" stroke-linecap="round" stroke-linejoin="round"/>
<path d="M151.193 183.148L155.21 189.685L184.486 191.324C184.486 191.324 190.732 186.267 191.218 186.267C191.704 186.267 195.228 186.118 197.606 186.267C199.985 186.417 201.473 185.078 201.623 185.826C201.65 186.369 201.486 186.904 201.159 187.338C200.833 187.773 200.364 188.079 199.835 188.204C198.125 188.605 196.439 189.104 194.786 189.7L196.866 191.638C196.866 191.638 204.742 193.134 204.293 193.882C203.844 194.63 198.496 198.489 198.496 198.489C198.496 198.489 193.298 198.781 191.368 197.891C189.767 197.207 188.128 196.612 186.461 196.111C186.461 196.111 148.702 202.057 146.069 202.648C143.436 203.239 141.312 200.569 140.713 199.38C140.115 198.19 137.295 187.935 137.295 187.935L151.193 183.148Z" fill="white" stroke="#263238" stroke-width="0.748" stroke-linecap="round" stroke-linejoin="round"/>
<path d="M140.938 147.356C140.938 147.356 136.63 143.938 133.062 146.466C129.494 148.994 126.524 154.784 127.414 159.1C128.304 163.416 134.842 190.463 134.842 190.463L153.542 184.217L144.626 152.555" fill="#599BFE"/>
<path d="M140.938 147.356C140.938 147.356 136.63 143.938 133.062 146.466C129.494 148.994 126.524 154.784 127.414 159.1C128.304 163.416 134.842 190.463 134.842 190.463L153.542 184.217L144.626 152.555" stroke="#263238" stroke-width="0.748" stroke-linecap="round" stroke-linejoin="round"/>
<path d="M125.738 320.989L47.3777 310.3C45.7321 310.076 44.3857 307.869 44.3857 305.379V71.0152C44.3857 68.5244 45.7172 66.3178 47.3777 66.0934L125.738 55.4044C127.691 55.1352 129.284 57.1323 129.284 59.8924V316.531C129.284 319.261 127.691 321.259 125.738 320.989Z" fill="#263238" stroke="#263238" stroke-width="0.748" stroke-linecap="round" stroke-linejoin="round"/>
<path d="M122.566 320.556L44.6922 309.934C43.0541 309.71 41.7002 307.51 41.7002 305.027V71.3668C41.7002 68.8759 43.0167 66.6843 44.6922 66.4599L122.566 55.8383C124.504 55.569 126.082 57.5662 126.082 60.2814V316.097C126.082 318.828 124.504 320.825 122.566 320.556Z" fill="white" stroke="#263238" stroke-width="0.748" stroke-linecap="round" stroke-linejoin="round"/>
<path d="M87.8603 73.895L77.3883 75.1741C76.7974 75.2489 76.3262 74.6056 76.3262 73.7454C76.3262 72.8852 76.7974 72.1222 77.3883 72.0549L87.8603 70.731C88.4587 70.6562 88.9449 71.3069 88.9449 72.1821C88.9449 73.0498 88.4587 73.8202 87.8603 73.895Z" fill="#263238"/>
<path d="M84.3579 301.302C84.3579 299.948 83.6099 298.766 82.6749 298.654C81.7399 298.542 81.0068 299.552 81.0068 300.898C81.0068 302.244 81.7548 303.426 82.6749 303.546C83.5949 303.666 84.3579 302.656 84.3579 301.302Z" fill="#263238"/>
<path d="M128.662 99.342L126.837 99.514V83.245L128.662 83.0505V99.342Z" fill="white" stroke="#263238" stroke-width="0.748" stroke-linecap="round" stroke-linejoin="round"/>
<path d="M128.662 127.863L126.837 127.975V111.714L128.662 111.572V127.863Z" fill="white" stroke="#263238" stroke-width="0.748" stroke-linecap="round" stroke-linejoin="round"/>
<path d="M128.662 146.197L126.837 146.279V130.01L128.662 129.905V146.197Z" fill="white" stroke="#263238" stroke-width="0.748" stroke-linecap="round" stroke-linejoin="round"/>
<path d="M115.394 299.058L50.8636 291.623C48.5373 291.354 46.6523 288.287 46.6523 284.771V85.4741C46.6523 81.9585 48.5373 78.8767 50.8636 78.5925L63.0784 77.0965L64.9634 79.1984C65.2442 79.545 65.6061 79.8171 66.017 79.9906C66.428 80.1641 66.8753 80.2337 67.3196 80.1932L98.1073 76.5579C98.6391 76.4657 99.1462 76.2646 99.5967 75.9673C100.047 75.67 100.431 75.2828 100.725 74.8301L102.573 72.2869L115.416 70.7161C118.109 70.3869 120.308 73.2069 120.308 77.0142V292.722C120.285 296.53 118.086 299.365 115.394 299.058Z" fill="white" stroke="#263238" stroke-width="0.748" stroke-linecap="round" stroke-linejoin="round"/>
<path d="M46.6289 248.411V284.771C46.6289 288.287 48.5139 291.354 50.8401 291.623L115.393 299.058C118.085 299.365 120.284 296.53 120.284 292.722V252.712L46.6289 248.411Z" fill="#599BFE" stroke="#263238" stroke-width="0.748" stroke-linecap="round" stroke-linejoin="round"/>
<path d="M115.394 70.7161L102.55 72.2869L100.703 74.8301C100.409 75.2828 100.025 75.67 99.5742 75.9673C99.1237 76.2646 98.6167 76.4657 98.0848 76.5579L67.3196 80.1932C66.876 80.2346 66.429 80.1661 66.0181 79.994C65.6072 79.8218 65.245 79.5511 64.9634 79.2059L63.0784 77.104L50.8636 78.6C48.5373 78.8842 46.6523 81.966 46.6523 85.4816V108.729L120.285 103.972V77.0441C120.285 73.2069 118.086 70.3869 115.394 70.7161Z" fill="#599BFE" stroke="#263238" stroke-width="0.748" stroke-linecap="round" stroke-linejoin="round"/>
<path d="M120.285 88.6305V77.044C120.285 73.2367 118.086 70.4167 115.394 70.7458L102.55 72.3166L100.703 74.8598C100.409 75.3126 100.025 75.6998 99.5742 75.9971C99.1237 76.2944 98.6167 76.4955 98.0848 76.5877L67.3196 80.1931C66.876 80.2344 66.429 80.166 66.0181 79.9938C65.6072 79.8216 65.245 79.551 64.9634 79.2057L63.0784 77.1038L50.8636 78.5998C48.5373 78.8841 46.6523 81.9658 46.6523 85.4814V94.9212L120.285 88.6305Z" fill="#263238" stroke="#263238" stroke-width="0.748" stroke-linecap="round" stroke-linejoin="round"/>
<path d="M84.5453 101.579L51.5137 104.421V98.7361L84.5453 95.8862V101.579Z" fill="white"/>
<path d="M108.482 93.7321L99.207 94.3604L101.331 99.2075L108.273 98.6764L110.143 92.3932L113.217 92.1538" stroke="white" stroke-width="0.748" stroke-linecap="round" stroke-linejoin="round"/>
<path d="M103.119 100.98C103.119 101.128 103.075 101.273 102.993 101.396C102.911 101.519 102.794 101.615 102.657 101.671C102.521 101.728 102.37 101.743 102.225 101.714C102.08 101.685 101.947 101.614 101.842 101.509C101.738 101.404 101.666 101.271 101.637 101.126C101.609 100.981 101.623 100.831 101.68 100.694C101.737 100.557 101.832 100.44 101.955 100.358C102.078 100.276 102.223 100.232 102.371 100.232C102.569 100.232 102.76 100.311 102.9 100.451C103.04 100.592 103.119 100.782 103.119 100.98Z" fill="white" stroke="white" stroke-width="0.748" stroke-linecap="round" stroke-linejoin="round"/>
<path d="M108.272 100.569C108.272 100.717 108.228 100.861 108.146 100.984C108.064 101.107 107.947 101.203 107.811 101.26C107.674 101.316 107.524 101.331 107.378 101.302C107.233 101.274 107.1 101.202 106.995 101.098C106.891 100.993 106.82 100.86 106.791 100.715C106.762 100.57 106.777 100.419 106.833 100.283C106.89 100.146 106.986 100.029 107.109 99.9469C107.232 99.8647 107.376 99.8208 107.524 99.8208C107.723 99.8208 107.913 99.8996 108.053 100.04C108.194 100.18 108.272 100.37 108.272 100.569Z" fill="white" stroke="white" stroke-width="0.748" stroke-linecap="round" stroke-linejoin="round"/>
<path d="M80.1094 145.808C80.1094 145.808 82.5404 138.118 87.0882 137.288C91.6361 136.458 99.5275 137.168 99.707 139.353C99.8865 141.537 96.2961 145.015 96.2961 145.015L80.1094 145.808Z" fill="#599BFE" stroke="#263238" stroke-width="0.748" stroke-linecap="round" stroke-linejoin="round"/>
<path d="M97.6871 137.767C93.8125 138.148 90.4988 144.858 90.2744 145.306L96.2958 145.015C96.2958 145.015 99.8862 141.537 99.7067 139.352C99.6543 138.687 98.8689 138.156 97.6871 137.767Z" fill="#263238" stroke="#263238" stroke-width="0.748" stroke-linecap="round" stroke-linejoin="round"/>
<path d="M75.6306 136.72C75.6306 136.72 66.6546 135.104 64.6126 138.44C62.5706 141.776 71.195 145.92 71.195 145.92L83.7614 145.561L75.6306 136.72Z" fill="#599BFE" stroke="#263238" stroke-width="0.748" stroke-linecap="round" stroke-linejoin="round"/>
<path d="M85.1589 145.666C85.1589 145.666 80.2894 135.059 75.6294 136.69C70.9693 138.32 79.9378 145.621 80.9776 145.591L85.1589 145.666Z" fill="#263238" stroke="#263238" stroke-width="0.748" stroke-linecap="round" stroke-linejoin="round"/>
<path d="M102.055 181.353L58.6113 181.016V146.257L102.055 145.015V181.353Z" fill="white" stroke="#263238" stroke-width="0.748" stroke-linecap="round" stroke-linejoin="round"/>
<path d="M102.056 181.353L88.4951 181.248V145.404L102.056 145.015V181.353Z" fill="white" stroke="#263238" stroke-width="0.748" stroke-linecap="round" stroke-linejoin="round"/>
<path d="M70.0039 181.106L78.5535 181.173V145.688L70.0039 145.935V181.106Z" fill="#599BFE" stroke="#263238" stroke-width="0.748" stroke-linecap="round" stroke-linejoin="round"/>
<path d="M92.0264 145.636V163.206L95.9384 157.791L99.3493 162.114V145.262L92.0264 145.636Z" fill="#599BFE" stroke="#263238" stroke-width="0.748" stroke-linecap="round" stroke-linejoin="round"/>
<path d="M56.203 220.884L107.404 223.443C110.725 223.607 113.432 221.244 113.432 218.154V205.042C113.432 201.953 110.725 199.379 107.404 199.297L56.203 198.041C55.5144 198.01 54.8267 198.12 54.1814 198.362C53.536 198.604 52.9462 198.974 52.4474 199.45C51.9486 199.925 51.5511 200.497 51.2787 201.13C51.0063 201.763 50.8647 202.445 50.8623 203.134V215.424C50.8967 216.841 51.4669 218.192 52.4579 219.205C53.449 220.219 54.7872 220.819 56.203 220.884Z" fill="#263238" stroke="#263238" stroke-width="0.748" stroke-linecap="round" stroke-linejoin="round"/>
<path d="M87.7403 344.828C113.146 344.828 133.742 342.149 133.742 338.844C133.742 335.539 113.146 332.86 87.7403 332.86C62.3341 332.86 41.7383 335.539 41.7383 338.844C41.7383 342.149 62.3341 344.828 87.7403 344.828Z" fill="#263238" stroke="#263238" stroke-width="1.496" stroke-miterlimit="10" stroke-linecap="round"/>
<path d="M59.0981 211.762L59.244 207.681L61.0689 207.747C61.5275 207.763 61.8818 207.867 62.1318 208.059C62.382 208.247 62.501 208.51 62.4889 208.848C62.4769 209.182 62.3452 209.437 62.0938 209.61C61.8426 209.78 61.5168 209.858 61.1164 209.844L61.2289 209.638C61.6836 209.654 62.0321 209.758 62.2744 209.95C62.5166 210.141 62.6315 210.41 62.6191 210.756C62.6065 211.11 62.4663 211.383 62.1987 211.576C61.9312 211.765 61.5429 211.85 61.0337 211.832L59.0981 211.762ZM59.8652 211.206L61.0312 211.248C61.2955 211.257 61.4974 211.216 61.6369 211.124C61.7766 211.027 61.8501 210.876 61.8575 210.67C61.8648 210.464 61.8022 210.312 61.6695 210.214C61.5369 210.112 61.3385 210.056 61.0742 210.047L59.9081 210.005L59.8652 211.206ZM59.9279 209.451L60.9424 209.488C61.1873 209.496 61.3756 209.454 61.5073 209.362C61.6392 209.265 61.7084 209.124 61.7151 208.937C61.7221 208.743 61.6632 208.595 61.5384 208.493C61.4136 208.391 61.2287 208.336 60.9839 208.327L59.9694 208.291L59.9279 209.451Z" fill="white"/>
<path d="M62.9232 211.899L64.9057 207.884L65.6519 207.911L67.3483 212.058L66.5554 212.029L65.107 208.294L65.4102 208.305L63.7045 211.927L62.9232 211.899ZM63.8024 210.985L64.0277 210.398L66.2315 210.476L66.4143 211.078L63.8024 210.985Z" fill="white"/>
<path d="M67.98 212.08L68.1259 207.999L68.7439 208.021L70.4273 211.064L70.0949 211.052L71.9622 208.136L72.5802 208.158L72.4459 212.24L71.723 212.214L71.8229 209.258L71.9744 209.263L70.3929 211.699L70.0547 211.687L68.6279 209.144L68.8028 209.15L68.6971 212.106L67.98 212.08Z" fill="white"/>
<path d="M75.2051 212.339L75.3511 208.257L78.96 208.386L78.814 212.468L78.0677 212.441L78.1974 208.815L78.3657 209.007L75.8995 208.919L76.0811 208.739L75.9514 212.365L75.2051 212.339Z" fill="white"/>
<path d="M81.8575 212.635C81.5388 212.623 81.2472 212.56 80.9828 212.446C80.7183 212.331 80.4903 212.177 80.2988 211.984C80.1074 211.786 79.9618 211.559 79.862 211.303C79.7623 211.042 79.7179 210.76 79.7288 210.457C79.7396 210.154 79.804 209.878 79.9218 209.629C80.0398 209.377 80.2013 209.161 80.4062 208.981C80.6112 208.798 80.8497 208.658 81.1216 208.563C81.3936 208.468 81.687 208.426 82.0018 208.437C82.3205 208.448 82.6101 208.511 82.8707 208.626C83.1351 208.74 83.3631 208.896 83.5545 209.094C83.746 209.287 83.8916 209.514 83.9913 209.775C84.0911 210.031 84.1356 210.311 84.1247 210.614C84.1139 210.918 84.0495 211.195 83.9315 211.448C83.8134 211.701 83.652 211.917 83.4471 212.096C83.2422 212.276 83.0038 212.413 82.7318 212.508C82.4638 212.604 82.1723 212.646 81.8575 212.635ZM81.8754 211.97C82.0814 211.977 82.2732 211.949 82.4506 211.885C82.628 211.822 82.7831 211.728 82.9159 211.604C83.0489 211.477 83.1535 211.329 83.2296 211.16C83.3097 210.988 83.3535 210.797 83.361 210.587C83.3685 210.377 83.3384 210.185 83.2706 210.012C83.2069 209.834 83.1132 209.679 82.9895 209.546C82.866 209.41 82.718 209.303 82.5456 209.227C82.3732 209.151 82.184 209.109 81.978 209.101C81.772 209.094 81.5803 209.122 81.4029 209.186C81.2294 209.25 81.0742 209.345 80.9373 209.473C80.8045 209.597 80.698 209.745 80.6179 209.917C80.5418 210.085 80.5 210.275 80.4925 210.484C80.4851 210.69 80.5133 210.882 80.577 211.06C80.6446 211.237 80.7402 211.394 80.8637 211.531C80.9874 211.664 81.1354 211.768 81.3078 211.845C81.4802 211.921 81.6694 211.963 81.8754 211.97Z" fill="white"/>
<path d="M87.4994 212.428L87.6099 209.338L86.0124 209.281L85.9574 210.003C85.936 210.274 85.9093 210.532 85.8772 210.776C85.8492 211.017 85.8083 211.235 85.7545 211.432C85.7047 211.628 85.6385 211.791 85.5561 211.921C85.4736 212.05 85.3753 212.134 85.261 212.173L84.449 212.027C84.5964 212.04 84.7187 211.994 84.8158 211.888C84.9169 211.783 84.9981 211.634 85.0595 211.442C85.1209 211.249 85.1698 211.023 85.2063 210.764C85.243 210.501 85.2726 210.216 85.2953 209.909L85.3882 208.616L88.3791 208.723L88.2456 212.455L87.4994 212.428ZM84.255 213.532L84.3149 212.022L88.8449 212.184L88.7909 213.694L88.0913 213.669L88.1224 212.8L84.9915 212.689L84.9605 213.557L84.255 213.532Z" fill="white"/>
<path d="M89.0224 212.833L91.0049 208.817L91.7512 208.844L93.4476 212.991L92.6547 212.963L91.2062 209.227L91.5094 209.238L89.8037 212.861L89.0224 212.833ZM89.9016 211.918L90.1269 211.331L92.3307 211.41L92.5135 212.012L89.9016 211.918Z" fill="white"/>
<path d="M94.0734 213.013L94.2193 208.932L95.8984 208.992C96.2599 209.005 96.5668 209.074 96.8192 209.2C97.0754 209.326 97.2696 209.5 97.4018 209.723C97.5339 209.946 97.5946 210.207 97.5839 210.506C97.5732 210.805 97.494 211.061 97.3463 211.274C97.1986 211.487 96.9924 211.647 96.7279 211.754C96.4672 211.861 96.1561 211.909 95.7946 211.896L94.5353 211.851L94.8862 211.507L94.8313 213.04L94.0734 213.013ZM94.8832 211.589L94.5582 211.209L95.7826 211.253C96.1168 211.265 96.37 211.204 96.5422 211.07C96.7183 210.932 96.811 210.735 96.8202 210.479C96.8295 210.218 96.7511 210.015 96.5851 209.869C96.423 209.723 96.1748 209.644 95.8405 209.632L94.6162 209.588L94.9677 209.227L94.8832 211.589Z" fill="white"/>
<path d="M100.157 213.289C99.8379 213.278 99.5463 213.215 99.2818 213.1C99.0174 212.986 98.7894 212.832 98.5979 212.638C98.4064 212.441 98.2608 212.213 98.161 211.957C98.0614 211.697 98.017 211.415 98.0278 211.112C98.0387 210.808 98.103 210.532 98.2209 210.284C98.3389 210.031 98.5003 209.815 98.7052 209.635C98.9103 209.452 99.1488 209.313 99.4207 209.217C99.6927 209.122 99.986 209.08 100.301 209.091C100.62 209.103 100.909 209.166 101.17 209.28C101.434 209.395 101.662 209.551 101.854 209.748C102.045 209.942 102.191 210.169 102.29 210.429C102.39 210.686 102.435 210.966 102.424 211.269C102.413 211.572 102.349 211.85 102.231 212.102C102.113 212.355 101.951 212.571 101.746 212.751C101.541 212.93 101.303 213.068 101.031 213.163C100.763 213.258 100.471 213.3 100.157 213.289ZM100.175 212.624C100.381 212.632 100.572 212.604 100.75 212.54C100.927 212.476 101.082 212.382 101.215 212.259C101.348 212.131 101.453 211.983 101.529 211.815C101.609 211.642 101.653 211.451 101.66 211.241C101.668 211.032 101.637 210.84 101.57 210.666C101.506 210.489 101.412 210.334 101.289 210.201C101.165 210.064 101.017 209.958 100.845 209.881C100.672 209.805 100.483 209.763 100.277 209.756C100.071 209.749 99.8794 209.777 99.702 209.84C99.5285 209.904 99.3733 210 99.2364 210.127C99.1035 210.251 98.9971 210.399 98.917 210.571C98.8409 210.74 98.7991 210.929 98.7916 211.139C98.7842 211.345 98.8124 211.537 98.8761 211.714C98.9437 211.892 99.0393 212.049 99.1628 212.185C99.2865 212.318 99.4345 212.423 99.6069 212.499C99.7793 212.575 99.9685 212.617 100.175 212.624Z" fill="white"/>
<path d="M105.888 213.436L104.577 211.398L105.203 211.041L106.745 213.466L105.888 213.436ZM103.189 213.339L103.335 209.258L104.081 209.285L103.935 213.366L103.189 213.339ZM103.769 211.638L103.793 210.985L105.168 211.034L105.145 211.687L103.769 211.638ZM105.258 211.458L104.568 211.34L106.034 209.355L106.839 209.383L105.258 211.458Z" fill="white"/>
</svg>
