<svg width="113" height="82" viewBox="0 0 113 82" fill="none" xmlns="http://www.w3.org/2000/svg">
<g id="&#208;&#152;&#208;&#187;&#208;&#187;&#209;&#142;&#209;&#129;&#209;&#130;&#209;&#128;&#208;&#176;&#209;&#134;&#208;&#184;&#209;&#143;">
<g id="&#208;&#148;&#208;&#190;&#208;&#188; ">
<g id="Group 4795">
<g id="g7854">
<path id="path7856" d="M2.68772 50.7612C3.87461 51.0615 6.64973 50.5701 6.65218 50.5695C6.68098 50.5639 5.87399 48.912 5.81088 48.8146C5.07436 47.6828 2.93589 45.9568 1.38626 46.4047C0.270448 46.727 -0.247321 47.9132 0.113585 48.8967C0.481232 49.9022 1.67792 50.5051 2.68772 50.7612Z" fill="#1C1B1F"/>
</g>
<g id="g7858">
<path id="path7860" d="M19.9733 79.6858C19.9905 79.7453 20.0064 79.801 20.0236 79.8598L21.1057 80.0964C21.0328 79.8611 20.9574 79.6221 20.8796 79.377C20.6584 78.6803 20.4078 77.942 20.1425 77.1865C20.3208 77.0872 21.33 76.5149 22.2092 75.8703C23.1069 76.5884 25.2871 77.2533 25.5695 77.3372C25.3551 78.0498 25.14 78.741 24.9255 79.3905C24.7797 79.8384 24.6351 80.2667 24.4942 80.6797L25.5462 80.5155C25.6388 80.2201 25.7319 79.9199 25.8275 79.6074C26.0475 78.8844 26.2687 78.1092 26.488 77.3115C26.7926 77.3243 29.2803 77.4218 30.3918 76.9984C31.3992 76.6142 32.591 75.8605 32.9519 74.809C33.3054 73.7802 32.7791 72.6608 31.6608 72.4794C30.1087 72.2276 27.9837 74.2233 27.2564 75.4481C27.2129 75.5204 26.8349 76.3495 26.6051 76.8752C26.6927 76.5492 26.7815 76.233 26.8679 75.896C27.0438 75.2306 27.1982 74.5633 27.3673 73.8458C27.4372 73.4965 27.507 73.1448 27.5775 72.7888C27.6553 72.4371 27.6921 72.0591 27.7515 71.6902C27.8716 70.8342 27.95 69.9641 28.0083 69.0867C28.602 69.1982 30.7166 69.5634 31.7687 69.3275C32.8158 69.0928 34.1002 68.5156 34.6179 67.5193C35.1253 66.5444 34.7858 65.3502 33.7196 65.0046C32.2393 64.5254 29.8459 66.2043 28.9421 67.3195C28.8851 67.3888 28.325 68.2546 28.026 68.735C28.0573 68.2074 28.091 67.681 28.1051 67.1473C28.1449 65.6069 28.1351 64.0499 28.1333 62.496C28.132 62.0199 28.1375 61.5457 28.1406 61.0702C28.3514 61.1125 30.852 61.6002 32.0303 61.3361C33.0775 61.1014 34.3612 60.5236 34.8796 59.5279C35.3863 58.5531 35.0475 57.3588 33.9807 57.0133C32.5003 56.5347 30.1075 58.213 29.2031 59.3282C29.1351 59.4121 28.3306 60.6584 28.1412 60.9844C28.1486 59.9379 28.1657 58.8944 28.2264 57.8643C28.3079 56.4428 28.4678 55.0476 28.7264 53.7014C28.8244 53.721 31.431 54.2418 32.6382 53.971C33.6853 53.7357 34.9696 53.1585 35.4874 52.1628C35.9942 51.1879 35.6553 49.9937 34.5891 49.6487C33.1087 49.169 30.7154 50.8485 29.8109 51.9631C29.7399 52.0501 28.8747 53.392 28.7356 53.6444C28.7509 53.5641 28.7583 53.4802 28.7748 53.4012C29.0695 51.9655 29.5383 50.5991 30.042 49.3381C30.3324 48.604 30.6522 47.9159 30.9776 47.2523C31.4494 47.3988 33.6167 48.0415 34.7227 47.9128C35.7834 47.7897 37.1173 47.3485 37.7411 46.4067C38.3526 45.4858 38.1529 44.2542 37.14 43.7952C35.7325 43.158 33.1804 44.5832 32.1608 45.6022C32.1051 45.658 31.6026 46.2781 31.2423 46.7346C31.3943 46.4368 31.545 46.1273 31.6957 45.8449C32.2601 44.7824 32.8422 43.8394 33.3649 43.0079C33.6657 42.5373 33.947 42.1169 34.2147 41.7254C34.7699 41.6298 37.0058 41.2162 37.9408 40.6213C38.8532 40.041 39.8642 39.0661 39.9874 37.9785C40.1081 36.913 39.3385 35.9442 38.1915 36.003C36.5995 36.0851 34.9402 38.4503 34.4917 39.7824C34.4537 39.897 34.0573 41.7524 34.0861 41.7475C34.0861 41.7475 34.113 41.7426 34.1198 41.7413C33.8545 42.1133 33.5756 42.5146 33.2791 42.9582C32.7368 43.7811 32.1326 44.7162 31.5432 45.7719C30.9513 46.8258 30.3373 47.9858 29.8018 49.2566C29.2625 50.5299 28.7619 51.892 28.4292 53.3491C28.4249 53.3656 28.4231 53.3828 28.4194 53.3999C28.382 52.952 28.2331 51.7075 28.2098 51.6138C27.89 50.2933 26.4562 47.9729 24.8692 47.938C23.7264 47.9135 22.8624 48.9067 22.8802 49.9698C22.8992 51.055 23.8177 52.0017 24.6762 52.5562C25.6431 53.1806 28.1866 53.536 28.3894 53.5641C28.0855 54.9538 27.8888 56.3968 27.7723 57.8631C27.7043 58.7007 27.6633 59.5457 27.6333 60.3925C27.5879 60.0071 27.5438 59.6633 27.5322 59.6162C27.2117 58.2963 25.7785 55.9765 24.1915 55.9416C23.0481 55.9164 22.1841 56.9091 22.2025 57.9722C22.2215 59.058 23.14 60.0046 23.9972 60.5586C24.8679 61.1204 27.0279 61.4673 27.6008 61.5506C27.5934 61.8759 27.5812 62.2001 27.5744 62.5242C27.5413 64.0824 27.5156 65.6363 27.4415 67.1633C27.4157 67.7006 27.3704 68.2313 27.3263 68.7613C27.2858 68.4194 27.2485 68.1326 27.238 68.0891C26.9176 66.7687 25.4837 64.4488 23.8974 64.4139C22.754 64.3894 21.89 65.382 21.9078 66.4458C21.9268 67.5303 22.8453 68.4776 23.7037 69.0309C24.534 69.5677 26.5236 69.9047 27.2043 70.0076C27.1424 70.5511 27.0818 71.0946 26.9966 71.6197C26.9304 71.977 26.8918 72.3238 26.8048 72.681C26.7264 73.0352 26.6492 73.3869 26.572 73.7343C26.398 74.4003 26.2233 75.0878 26.0377 75.7343C25.9114 76.1846 25.7834 76.6117 25.6553 77.0425C25.6872 76.5069 25.7276 75.4585 25.7209 75.3709C25.6498 74.4647 25.1651 73.048 24.3943 72.1185C24.3845 71.9849 24.363 71.8532 24.3269 71.7245C24.0462 70.7123 22.9513 70.0983 21.8765 70.5523C20.3857 71.1816 19.6798 73.9157 19.7472 75.2845C19.7515 75.3654 19.8955 76.2306 19.996 76.7753C19.8857 76.4671 19.7828 76.1669 19.6657 75.8507C19.4384 75.2257 19.1915 74.6087 18.9292 73.9432C18.7901 73.6271 18.6504 73.3084 18.5083 72.9855C18.3759 72.6626 18.1915 72.3409 18.0328 72.0137C17.648 71.2656 17.2191 70.5272 16.7693 69.7932C17.349 69.5646 19.3937 68.7251 20.1719 67.9733C20.947 67.2245 21.7325 66.0751 21.6143 65.0015C21.4978 63.9495 20.5224 63.1762 19.3992 63.4709C17.8404 63.8802 16.7203 66.504 16.5714 67.8802C16.5628 67.966 16.5695 68.958 16.5843 69.5027C16.3104 69.064 16.0395 68.6247 15.7472 68.1908C14.9029 66.9372 14.0064 65.697 13.118 64.455C12.8453 64.0745 12.5794 63.6921 12.3104 63.3104C12.5175 63.2313 14.9672 62.2834 15.8392 61.4409C16.6143 60.6928 17.3998 59.5426 17.2809 58.4691C17.1651 57.4177 16.189 56.6444 15.0659 56.9391C13.507 57.3478 12.3876 59.9716 12.2387 61.3478C12.2276 61.4519 12.2399 62.879 12.2613 63.2411C11.6707 62.4005 11.091 61.5567 10.5555 60.7007C9.81465 59.52 9.1584 58.3178 8.61367 57.1027C8.71049 57.0653 11.2711 56.0862 12.1639 55.2241C12.9396 54.4753 13.7246 53.3258 13.6057 52.2523C13.4899 51.2008 12.5138 50.4269 11.3906 50.7216C9.83181 51.131 8.71294 53.7553 8.56404 55.1315C8.55179 55.2394 8.56649 56.7749 8.58978 57.0525C8.5573 56.9795 8.51563 56.9085 8.48377 56.8362C7.92066 55.5298 7.54934 54.1867 7.26564 52.9079C7.09958 52.1653 6.98439 51.4441 6.8888 50.7394C7.38206 50.6028 9.63022 49.9576 10.5175 49.2621C11.368 48.5954 12.2736 47.5287 12.2785 46.4417C12.2834 45.3773 11.4078 44.4987 10.2656 44.6739C8.68046 44.9178 7.27728 47.4245 6.97397 48.7854C6.95743 48.8595 6.8747 49.6248 6.82262 50.183C6.78463 49.8632 6.73868 49.5354 6.70926 49.2284C6.59284 48.0765 6.55975 47.0103 6.53892 46.0654C6.53157 45.5275 6.53586 45.0403 6.54566 44.5851C6.97274 44.2107 8.6774 42.6825 9.15044 41.707C9.61122 40.7542 9.9323 39.4325 9.41882 38.4963C8.91637 37.5796 7.69517 37.2169 6.73316 37.8786C5.39677 38.7965 5.30608 41.5771 5.67679 42.8823C5.70926 42.9944 6.42372 44.6898 6.4464 44.6708C6.4464 44.6708 6.46723 44.6525 6.47213 44.6482C6.45436 45.0869 6.44027 45.5581 6.43598 46.0722C6.43537 47.0201 6.44395 48.0912 6.53463 49.2517C6.62225 50.4122 6.75093 51.6677 7.01135 52.971C7.27054 54.278 7.61184 55.6364 8.15473 56.9795C8.16085 56.9949 8.16882 57.0102 8.17556 57.0255C7.88696 56.6879 7.0475 55.7718 6.97458 55.7087C5.94333 54.8245 3.3741 53.7357 1.97704 54.5574C0.969688 55.1499 0.786477 56.4066 1.40903 57.2473C2.04444 58.1052 3.38268 58.3711 4.44334 58.3545C5.64003 58.3368 8.05179 57.2596 8.24296 57.1732C8.77237 58.4477 9.42495 59.7075 10.1602 60.9421C10.5794 61.6486 11.0254 62.3459 11.4832 63.0395C11.2234 62.7565 10.9893 62.5046 10.9525 62.4728C9.92066 61.5886 7.35203 60.5003 5.95498 61.322C4.94824 61.9139 4.76441 63.1713 5.38635 64.0113C6.02176 64.8698 7.36061 65.1351 8.42127 65.1192C9.49786 65.1032 11.5702 64.2234 12.1161 63.9838C12.2944 64.2479 12.4691 64.5132 12.6486 64.7767C13.5089 66.0401 14.3729 67.2975 15.1805 68.5585C15.4654 69.0021 15.727 69.4506 15.9923 69.8985C15.7619 69.6467 15.5659 69.4365 15.5316 69.4084C14.4997 68.5236 11.9317 67.4353 10.534 68.2576C9.52728 68.8489 9.34345 70.1056 9.966 70.9463C10.602 71.8048 11.9396 72.0701 13.0009 72.0542C14.0285 72.0388 15.9476 71.2429 16.5971 70.961C16.8532 71.4279 17.1106 71.8961 17.3367 72.3611C17.4838 72.6828 17.6486 72.9812 17.776 73.3133C17.9102 73.6387 18.0432 73.961 18.1743 74.2809C18.4035 74.9058 18.6443 75.5498 18.852 76.1663C18.9997 76.5933 19.132 77.0039 19.2668 77.4175C18.9893 76.9714 18.4255 76.1117 18.3698 76.0455C17.4985 75.0112 15.1541 73.5474 13.6566 74.162C12.5781 74.605 12.2013 75.8323 12.6798 76.7624C13.1676 77.7116 14.4354 78.1736 15.477 78.3139C16.6235 78.4677 19.0567 77.7857 19.36 77.6993C19.5806 78.3838 19.7877 79.0516 19.9733 79.6858Z" fill="#1C1B1F"/>
</g>
<g id="g7862">
<path id="path7864" d="M30.8845 46.9785C30.9108 46.9895 31.2074 45.1231 31.2129 45.0042C31.2693 43.6274 30.5438 40.9847 29.0487 40.5435C27.9715 40.2255 26.8814 40.9785 26.6081 42.0257C26.3293 43.0949 26.9421 44.2597 27.6038 45.0232C28.3814 45.919 30.8826 46.9772 30.8845 46.9785Z" fill="#1C1B1F"/>
</g>
</g>
<g id="g231">
<path id="path233" d="M111.554 44.1543H69.4344L45.8706 6.68323H87.9901L111.554 44.1543Z" fill="#1C1B1F"/>
</g>
<g id="g235">
<path id="path237" d="M111.554 44.1543H69.4344L45.8706 6.68323H87.9901L111.554 44.1543Z" stroke="#1C1B1F" stroke-width="0.443088" stroke-miterlimit="10" stroke-linecap="round" stroke-linejoin="round"/>
</g>
<path id="path239" d="M63.5735 80.9997H20.4034V42.8662H63.5735V80.9997Z" fill="#C8C8C8" stroke="#1C1B1F" stroke-width="0.443088" stroke-miterlimit="10" stroke-linecap="round" stroke-linejoin="round"/>
<g id="g241">
<path id="path243" d="M106.743 81H63.573V42.8665L85.5182 7.97066L106.743 42.8665V81Z" fill="white"/>
</g>
<g id="g245">
<path id="path247" d="M106.743 81H63.573V42.8665L85.5182 7.97066L106.743 42.8665V81Z" stroke="#1C1B1F" stroke-width="0.443088" stroke-miterlimit="10" stroke-linecap="round" stroke-linejoin="round"/>
</g>
<path id="path249" d="M72.9269 62.6532H68.6098V49.7021H72.9269V62.6532Z" fill="#C8C8C8" stroke="#1C1B1F" stroke-width="0.443088" stroke-miterlimit="10" stroke-linecap="round" stroke-linejoin="round"/>
<path id="path251" d="M77.2438 62.6532H72.9268V49.7021H77.2438V62.6532Z" fill="#1C1B1F" stroke="#1C1B1F" stroke-width="0.443088" stroke-miterlimit="10" stroke-linecap="round" stroke-linejoin="round"/>
<path id="path253" d="M81.5602 62.6532H77.2433V49.7021H81.5602V62.6532Z" fill="#C8C8C8" stroke="#1C1B1F" stroke-width="0.443088" stroke-miterlimit="10" stroke-linecap="round" stroke-linejoin="round"/>
<path id="path255" d="M53.1407 62.6532H49.5433V49.7021H53.1407V62.6532Z" fill="#929292" stroke="#1C1B1F" stroke-width="0.443088" stroke-miterlimit="10" stroke-linecap="round" stroke-linejoin="round"/>
<path id="path257" d="M56.7383 62.6532H53.1409V49.7021H56.7383V62.6532Z" fill="#1C1B1F" stroke="#1C1B1F" stroke-width="0.443088" stroke-miterlimit="10" stroke-linecap="round" stroke-linejoin="round"/>
<path id="path259" d="M60.3352 62.6532H56.7378V49.7021H60.3352V62.6532Z" fill="#929292" stroke="#1C1B1F" stroke-width="0.443088" stroke-miterlimit="10" stroke-linecap="round" stroke-linejoin="round"/>
<path id="path261" d="M26.5198 62.6532H22.9223V49.7021H26.5198V62.6532Z" fill="#929292" stroke="#1C1B1F" stroke-width="0.443088" stroke-miterlimit="10" stroke-linecap="round" stroke-linejoin="round"/>
<path id="path263" d="M30.117 62.6532H26.5192V49.7021H30.117V62.6532Z" fill="#1C1B1F" stroke="#1C1B1F" stroke-width="0.443088" stroke-miterlimit="10" stroke-linecap="round" stroke-linejoin="round"/>
<path id="path265" d="M33.7141 62.6532H30.1167V49.7021H33.7141V62.6532Z" fill="#929292" stroke="#1C1B1F" stroke-width="0.443088" stroke-miterlimit="10" stroke-linecap="round" stroke-linejoin="round"/>
<path id="path267" d="M94.8712 62.6532H90.5542V49.7021H94.8712V62.6532Z" fill="#C8C8C8" stroke="#1C1B1F" stroke-width="0.443088" stroke-miterlimit="10" stroke-linecap="round" stroke-linejoin="round"/>
<path id="path269" d="M99.1884 62.6532H94.8714V49.7021H99.1884V62.6532Z" fill="#1C1B1F" stroke="#1C1B1F" stroke-width="0.443088" stroke-miterlimit="10" stroke-linecap="round" stroke-linejoin="round"/>
<path id="path271" d="M103.506 62.6532H99.1886V49.7021H103.506V62.6532Z" fill="#C8C8C8" stroke="#1C1B1F" stroke-width="0.443088" stroke-miterlimit="10" stroke-linecap="round" stroke-linejoin="round"/>
<path id="path273" d="M84.7991 36.391H81.9208V28.4766H84.7991V36.391Z" fill="#C8C8C8" stroke="#1C1B1F" stroke-width="0.443088" stroke-miterlimit="10" stroke-linecap="round" stroke-linejoin="round"/>
<path id="path275" d="M87.6766 36.391H84.7987V28.4766H87.6766V36.391Z" fill="#1C1B1F" stroke="#1C1B1F" stroke-width="0.443088" stroke-miterlimit="10" stroke-linecap="round" stroke-linejoin="round"/>
<path id="path277" d="M90.5548 36.391H87.6769V28.4766H90.5548V36.391Z" fill="#C8C8C8" stroke="#1C1B1F" stroke-width="0.443088" stroke-miterlimit="10" stroke-linecap="round" stroke-linejoin="round"/>
<g id="g279">
<path id="path281" d="M18 44.1543H64.3558L87.9201 6.68323H41.5643L18 44.1543Z" fill="#599BFE"/>
</g>
<g id="g283">
<path id="path285" d="M18 44.1543H64.3558L87.9201 6.68323H41.5643L18 44.1543Z" stroke="#1C1B1F" stroke-width="0.443088" stroke-miterlimit="10" stroke-linecap="round" stroke-linejoin="round"/>
</g>
<path id="path287" d="M54.1935 23.6084H35.8878V35.7224H54.1935V23.6084Z" fill="#C8C8C8" stroke="#1C1B1F" stroke-width="0.443088" stroke-miterlimit="10" stroke-linecap="round" stroke-linejoin="round"/>
<g id="g289">
<path id="path291" d="M54.194 23.6086L66.8438 14.921L54.194 35.7227V23.6086Z" fill="white"/>
</g>
<g id="g293">
<path id="path295" d="M54.194 23.6086L66.8438 14.921L54.194 35.7227V23.6086Z" stroke="#1C1B1F" stroke-width="0.443088" stroke-miterlimit="10" stroke-linecap="round" stroke-linejoin="round"/>
</g>
<g id="g297">
<path id="path299" d="M34.4215 24.0205H53.5948L66.844 14.9213H47.6738L34.4215 24.0205Z" fill="#599BFE"/>
</g>
<g id="g301">
<path id="path303" d="M34.4215 24.0205H53.5948L66.844 14.9213H47.6738L34.4215 24.0205Z" stroke="#1C1B1F" stroke-width="0.443088" stroke-miterlimit="10" stroke-linecap="round" stroke-linejoin="round"/>
</g>
<path id="path305" d="M43.2481 34.0951H40.3698V26.1807H43.2481V34.0951Z" fill="#929292" stroke="#1C1B1F" stroke-width="0.443088" stroke-miterlimit="10" stroke-linecap="round" stroke-linejoin="round"/>
<path id="path307" d="M46.1258 34.0951H43.248V26.1807H46.1258V34.0951Z" fill="#1C1B1F" stroke="#1C1B1F" stroke-width="0.443088" stroke-miterlimit="10" stroke-linecap="round" stroke-linejoin="round"/>
<path id="path309" d="M49.0039 34.0951H46.1261V26.1807H49.0039V34.0951Z" fill="#929292" stroke="#1C1B1F" stroke-width="0.443088" stroke-miterlimit="10" stroke-linecap="round" stroke-linejoin="round"/>
<g id="g311">
<path id="path313" d="M76.761 1.00047H75.1512V12.7578L76.761 10.1582V1.00047Z" fill="white"/>
</g>
<g id="g315">
<path id="path317" d="M76.761 1.00047H75.1512V12.7578L76.761 10.1582V1.00047Z" stroke="#1C1B1F" stroke-width="0.443088" stroke-miterlimit="10" stroke-linecap="round" stroke-linejoin="round"/>
</g>
<path id="path319" d="M75.2249 1H70.4675V12.7573H75.2249V1Z" fill="#C8C8C8" stroke="#1C1B1F" stroke-width="0.443088" stroke-miterlimit="10" stroke-linecap="round" stroke-linejoin="round"/>
<path id="path321" d="M47.5282 81H36.448V51.8789H47.5282V81Z" fill="#1C1B1F" stroke="#1C1B1F" stroke-width="0.443088" stroke-miterlimit="10" stroke-linecap="round" stroke-linejoin="round"/>
<g id="g7842">
<path id="path7844" d="M12.9141 81H112.914" stroke="#1A2E35" stroke-width="0.533333" stroke-miterlimit="10"/>
</g>
</g>
</g>
</svg>
