<svg width="170" height="170" viewBox="0 0 170 170" fill="none" xmlns="http://www.w3.org/2000/svg">
<path d="M145.041 22.8208C137.472 16.66 128.153 13.3994 118.473 11.7062C110.833 10.3666 103.041 10.0062 95.2988 10.2544C60.0238 11.4308 49.2424 29.07 40.62 31.2256C16.8404 37.1722 4.71604 59.2008 2.84264 82.1474C2.79164 82.7662 2.74404 83.385 2.70324 84.0038C1.84984 96.8116 2.30884 109.966 7.48024 121.921C11.8798 132.076 19.914 139.628 29.638 144.701C52.1766 156.461 75.4972 152.541 89.0224 146.856C102.548 141.171 100.977 138.234 119.204 143.33C137.432 148.427 153.507 136.68 159.385 122.947C165.264 109.215 173.502 79.22 164.091 52.785C160.671 43.18 155.924 33.6226 148.696 26.18C147.545 24.9895 146.324 23.8678 145.041 22.8208Z" fill="#599BFE"/>
<path opacity="0.7" d="M145.041 22.8208C137.472 16.66 128.153 13.3994 118.473 11.7062C110.833 10.3666 103.041 10.0062 95.2988 10.2544C60.0238 11.4308 49.2424 29.07 40.62 31.2256C16.8404 37.1722 4.71604 59.2008 2.84264 82.1474C2.79164 82.7662 2.74404 83.385 2.70324 84.0038C1.84984 96.8116 2.30884 109.966 7.48024 121.921C11.8798 132.076 19.914 139.628 29.638 144.701C52.1766 156.461 75.4972 152.541 89.0224 146.856C102.548 141.171 100.977 138.234 119.204 143.33C137.432 148.427 153.507 136.68 159.385 122.947C165.264 109.215 173.502 79.22 164.091 52.785C160.671 43.18 155.924 33.6226 148.696 26.18C147.545 24.9895 146.324 23.8678 145.041 22.8208Z" fill="white"/>
<path d="M114.757 158.919H156.278" stroke="#263238" stroke-width="0.34" stroke-linecap="round" stroke-linejoin="round"/>
<path d="M13.6953 158.919H111.87" stroke="#263238" stroke-width="0.34" stroke-linecap="round" stroke-linejoin="round"/>
<g opacity="0.3">
<path d="M155.414 53.1182L160.266 57.97" stroke="black" stroke-width="1.02" stroke-linecap="round" stroke-linejoin="round"/>
<path d="M160.266 53.1182L155.414 57.97" stroke="black" stroke-width="1.02" stroke-linecap="round" stroke-linejoin="round"/>
</g>
<g opacity="0.3">
<path d="M22.4297 141.773L27.2815 146.625" stroke="black" stroke-width="1.02" stroke-linecap="round" stroke-linejoin="round"/>
<path d="M27.2815 141.773L22.4297 146.625" stroke="black" stroke-width="1.02" stroke-linecap="round" stroke-linejoin="round"/>
</g>
<g opacity="0.3">
<path d="M9.57812 87.2168L14.4299 92.0686" stroke="black" stroke-width="1.02" stroke-linecap="round" stroke-linejoin="round"/>
<path d="M14.4299 87.2168L9.57812 92.0686" stroke="black" stroke-width="1.02" stroke-linecap="round" stroke-linejoin="round"/>
</g>
<g opacity="0.3">
<path d="M101.382 94.0371L106.234 98.8889" stroke="black" stroke-width="1.02" stroke-linecap="round" stroke-linejoin="round"/>
<path d="M106.234 94.0371L101.382 98.8889" stroke="black" stroke-width="1.02" stroke-linecap="round" stroke-linejoin="round"/>
</g>
<path opacity="0.3" d="M157.25 75.6738C157.25 75.3625 157.158 75.0581 156.985 74.7992C156.812 74.5404 156.566 74.3386 156.278 74.2194C155.991 74.1003 155.674 74.0691 155.369 74.1299C155.063 74.1906 154.783 74.3405 154.563 74.5607C154.342 74.7808 154.193 75.0613 154.132 75.3667C154.071 75.6721 154.102 75.9886 154.221 76.2762C154.341 76.5639 154.542 76.8097 154.801 76.9827C155.06 77.1557 155.364 77.248 155.676 77.248C156.093 77.2471 156.493 77.081 156.788 76.7859C157.083 76.4909 157.249 76.091 157.25 75.6738Z" stroke="black" stroke-width="1.02" stroke-linecap="round" stroke-linejoin="round"/>
<path opacity="0.3" d="M27.9384 104.788C27.9384 104.477 27.8461 104.172 27.6731 103.913C27.5002 103.655 27.2543 103.453 26.9667 103.334C26.679 103.215 26.3625 103.183 26.0571 103.244C25.7518 103.305 25.4713 103.455 25.2511 103.675C25.031 103.895 24.881 104.176 24.8203 104.481C24.7595 104.786 24.7907 105.103 24.9099 105.39C25.029 105.678 25.2308 105.924 25.4897 106.097C25.7485 106.27 26.0529 106.362 26.3642 106.362C26.5711 106.363 26.776 106.322 26.9672 106.243C27.1584 106.164 27.3321 106.048 27.4784 105.902C27.6246 105.756 27.7406 105.582 27.8195 105.391C27.8985 105.2 27.9389 104.995 27.9384 104.788Z" stroke="black" stroke-width="1.02" stroke-linecap="round" stroke-linejoin="round"/>
<path opacity="0.3" d="M89.0293 146.856C89.0293 146.545 88.9369 146.24 88.764 145.982C88.591 145.723 88.3451 145.521 88.0575 145.402C87.7698 145.283 87.4533 145.251 87.148 145.312C86.8426 145.373 86.5621 145.523 86.3419 145.743C86.1218 145.963 85.9718 146.244 85.9111 146.549C85.8504 146.854 85.8815 147.171 86.0007 147.459C86.1198 147.746 86.3216 147.992 86.5805 148.165C86.8394 148.338 87.1437 148.43 87.4551 148.43C87.8726 148.43 88.273 148.265 88.5682 147.969C88.8634 147.674 89.0293 147.274 89.0293 146.856Z" stroke="black" stroke-width="1.02" stroke-linecap="round" stroke-linejoin="round"/>
<path opacity="0.3" d="M14.0351 58.1025C14.0358 57.791 13.944 57.4863 13.7715 57.227C13.5989 56.9677 13.3533 56.7654 13.0657 56.6457C12.7781 56.526 12.4615 56.4944 12.1559 56.5547C11.8503 56.6151 11.5695 56.7648 11.349 56.9848C11.1285 57.2048 10.9782 57.4853 10.9172 57.7907C10.8562 58.0962 10.8872 58.4129 11.0062 58.7007C11.1253 58.9886 11.327 59.2346 11.586 59.4078C11.8449 59.5809 12.1494 59.6733 12.4609 59.6733C12.8778 59.6733 13.2777 59.5079 13.5728 59.2134C13.868 58.9189 14.0342 58.5194 14.0351 58.1025Z" stroke="black" stroke-width="1.02" stroke-linecap="round" stroke-linejoin="round"/>
<g opacity="0.3">
<path d="M74.8517 101.351H62.0371V133.178H74.8517V101.351Z" stroke="black" stroke-width="0.34" stroke-linecap="round" stroke-linejoin="round"/>
<path d="M94.6945 101.351H81.8799V133.178H94.6945V101.351Z" stroke="black" stroke-width="0.34" stroke-linecap="round" stroke-linejoin="round"/>
</g>
<g opacity="0.3">
<path d="M24.8096 123.281L35.6692 117.011V129.55L24.8096 123.281Z" stroke="black" stroke-width="0.34" stroke-linecap="round" stroke-linejoin="round"/>
<path d="M36.0059 123.281L46.8655 117.011V129.55L36.0059 123.281Z" stroke="black" stroke-width="0.34" stroke-linecap="round" stroke-linejoin="round"/>
</g>
<g opacity="0.3">
<path d="M131.921 123.281L121.058 117.011V129.55L131.921 123.281Z" stroke="black" stroke-width="0.34" stroke-linecap="round" stroke-linejoin="round"/>
<path d="M120.721 123.281L109.861 117.011V129.55L120.721 123.281Z" stroke="black" stroke-width="0.34" stroke-linecap="round" stroke-linejoin="round"/>
</g>
<path opacity="0.3" d="M112.315 146.2C112.683 146.031 112.97 145.726 113.114 145.348C113.259 144.971 113.251 144.552 113.09 144.18L110.03 137.04C109.915 136.739 109.684 136.497 109.39 136.365C109.095 136.234 108.761 136.225 108.46 136.34C108.265 136.41 108.092 136.53 107.957 136.686C107.822 136.843 107.729 137.031 107.688 137.234V137.2C107.601 136.921 107.417 136.682 107.169 136.527C106.921 136.372 106.625 136.312 106.336 136.357C106.047 136.403 105.784 136.551 105.595 136.774C105.406 136.998 105.304 137.282 105.308 137.574C105.126 137.415 104.901 137.313 104.662 137.281C104.422 137.25 104.179 137.29 103.962 137.397C103.745 137.504 103.565 137.673 103.445 137.883C103.324 138.092 103.268 138.333 103.285 138.574L100.827 133.073C100.77 132.919 100.683 132.778 100.57 132.659C100.458 132.539 100.323 132.444 100.173 132.378C100.023 132.312 99.8609 132.277 99.697 132.275C99.5331 132.272 99.3704 132.303 99.2187 132.366C99.067 132.428 98.9294 132.52 98.8141 132.636C98.6987 132.753 98.608 132.891 98.5474 133.043C98.4868 133.196 98.4574 133.359 98.4611 133.523C98.4648 133.686 98.5015 133.848 98.569 133.997L103.268 144.962L99.3816 143.001C99.238 142.924 99.0805 142.876 98.9184 142.861C98.7563 142.846 98.5928 142.864 98.4375 142.913C98.2823 142.962 98.1384 143.042 98.0144 143.147C97.8904 143.253 97.7888 143.382 97.7155 143.527C97.6423 143.673 97.5988 143.831 97.5878 143.994C97.5767 144.156 97.5983 144.319 97.6512 144.473C97.7041 144.627 97.7873 144.769 97.8959 144.891C98.0044 145.012 98.1362 145.11 98.2834 145.18L104.764 148.747C105.076 148.918 105.427 149.008 105.784 149.008C105.896 148.995 110.197 147.183 112.315 146.2Z" stroke="black" stroke-width="0.34" stroke-linecap="round" stroke-linejoin="round"/>
<path d="M57.8475 14.2324H45.4375V15.3544H29.5493C28.2621 15.3544 26.9875 15.6081 25.7984 16.101C24.6093 16.5939 23.529 17.3164 22.6193 18.227C21.7096 19.1377 20.9883 20.2187 20.4966 21.4084C20.0049 22.598 19.7526 23.8728 19.7539 25.16V77.7546C19.7539 80.3525 20.7859 82.844 22.6229 84.681C24.4599 86.518 26.9514 87.55 29.5493 87.55H136.442C139.039 87.5491 141.53 86.5167 143.366 84.6798C145.202 82.8429 146.234 80.3519 146.234 77.7546V25.16C146.234 22.5627 145.202 20.0717 143.366 18.2348C141.53 16.3979 139.039 15.3655 136.442 15.3646H68.4419V14.2426H61.0911V15.3646H57.8475V14.2324Z" fill="#707070" stroke="#263238" stroke-width="0.34" stroke-linejoin="round"/>
<path d="M21.1035 26.8633L21.1035 76.0375C21.1035 81.7685 25.7494 86.4143 31.4803 86.4143H134.507C140.238 86.4143 144.884 81.7685 144.884 76.0375V26.8633C144.884 21.1324 140.238 16.4865 134.507 16.4865H31.4803C25.7494 16.4865 21.1035 21.1324 21.1035 26.8633Z" fill="#263238" stroke="#263238" stroke-width="0.34" stroke-linejoin="round"/>
<path d="M21.9941 28.22V47.6408L22.0655 47.6612C24.2075 48.2358 25.6015 49.5584 25.6015 51.0238V51.867C25.6015 53.3324 24.2075 54.655 22.0655 55.2296L21.9941 55.25V74.6708C21.9941 80.0802 26.5331 84.4628 32.1363 84.4628H133.28C138.883 84.4628 143.422 80.0802 143.422 74.6708V28.22C143.422 22.8106 138.883 18.4246 133.28 18.4246H32.1363C26.5195 18.4314 21.9941 22.8174 21.9941 28.22Z" fill="white" stroke="#263238" stroke-width="0.34" stroke-linecap="round" stroke-linejoin="round"/>
<g opacity="0.4">
<path d="M43.2804 47.5348C43.2804 47.5348 46.2287 47.8267 47.7231 49.6543C47.7231 49.6543 49.302 47.5369 52.1377 47.5804C52.9607 46.5885 53.4557 45.3149 53.4561 43.9253C53.4572 40.7602 50.8923 38.1936 47.7271 38.1926C44.562 38.1913 41.9952 40.7564 41.9941 43.9216C41.9937 45.2935 42.4757 46.5528 43.2795 47.5397L43.2804 47.5348Z" fill="#599BFE"/>
<mask id="mask0_386_41614" style="mask-type:luminance" maskUnits="userSpaceOnUse" x="41" y="38" width="13" height="12">
<path d="M41.9951 38.1928H53.4571V49.6545H41.9951V38.1928Z" fill="white"/>
</mask>
<g mask="url(#mask0_386_41614)">
<g opacity="0.199997">
<path d="M43.2813 47.5353C43.2813 47.5353 46.2297 47.8271 47.7241 49.6548C47.7241 49.6548 49.303 47.5374 52.1387 47.5809C52.9617 46.589 53.4567 45.3154 53.4571 43.9258C53.4581 40.7607 50.8933 38.1941 47.7281 38.1931C44.563 38.1918 41.9962 40.7569 41.9951 43.922C41.9947 45.294 42.4767 46.5533 43.2805 47.5401L43.2813 47.5353Z" fill="white"/>
</g>
</g>
<path d="M47.9174 55.5094L47.6262 40.7645L47.5537 55.6611L47.9174 55.5094Z" fill="#838383"/>
<path d="M47.7754 49.0967C47.7754 49.0967 48.7706 47.3052 50.5624 46.7577C50.5624 46.7577 48.6712 47.2056 47.7256 48.7483L47.7754 49.0967Z" fill="#838383"/>
<path d="M47.7002 44.1201C47.7002 44.1201 48.7702 42.2292 50.562 41.6817C50.562 41.6817 48.6532 42.2011 47.7075 43.7438L47.7002 44.1201Z" fill="#838383"/>
<path d="M47.73 46.623C47.73 46.623 48.7706 44.7677 50.5621 44.2202C50.5621 44.2202 48.671 44.6681 47.7256 46.2108L47.73 46.623Z" fill="#838383"/>
<path d="M47.6275 45.3147C47.6275 45.3147 46.6672 43.5232 44.9385 42.9757C44.9385 42.9757 46.7632 43.4236 47.6757 44.9664L47.6275 45.3147Z" fill="#838383"/>
<path d="M47.6275 47.803C47.6275 47.803 46.6672 46.0115 44.9385 45.464C44.9385 45.464 46.7632 45.9119 47.6757 47.4546L47.6275 47.803Z" fill="#838383"/>
<path d="M115.403 54.2165C115.403 54.2165 118.352 54.5083 119.846 56.3359C119.846 56.3359 121.425 54.2186 124.261 54.2621C125.084 53.2702 125.579 51.9966 125.579 50.607C125.58 47.4418 123.015 44.8751 119.85 44.874C116.685 44.873 114.118 47.4379 114.117 50.6032C114.117 51.9751 114.599 53.2345 115.403 54.2213L115.403 54.2165Z" fill="#599BFE"/>
<mask id="mask1_386_41614" style="mask-type:luminance" maskUnits="userSpaceOnUse" x="114" y="44" width="12" height="13">
<path d="M114.117 44.8743H125.579V56.3362H114.117V44.8743Z" fill="white"/>
</mask>
<g mask="url(#mask1_386_41614)">
<g opacity="0.199997">
<path d="M115.403 54.217C115.403 54.217 118.352 54.5088 119.846 56.3364C119.846 56.3364 121.425 54.2191 124.261 54.2625C125.084 53.2707 125.579 51.9971 125.579 50.6075C125.58 47.4423 123.015 44.8756 119.85 44.8745C116.685 44.8735 114.118 47.4383 114.117 50.6037C114.117 51.9756 114.599 53.235 115.403 54.2218L115.403 54.217Z" fill="white"/>
</g>
</g>
<path d="M120.04 62.1913L119.749 47.4464L119.677 62.343L120.04 62.1913Z" fill="#838383"/>
<path d="M119.897 55.7786C119.897 55.7786 120.893 53.9871 122.684 53.4395C122.684 53.4395 120.793 53.8875 119.848 55.4302L119.897 55.7786Z" fill="#838383"/>
<path d="M119.823 50.802C119.823 50.802 120.893 48.9109 122.685 48.3636C122.685 48.3636 120.776 48.8828 119.831 50.4255L119.823 50.802Z" fill="#838383"/>
<path d="M119.852 53.3052C119.852 53.3052 120.893 51.4498 122.684 50.9021C122.684 50.9021 120.793 51.3502 119.848 52.893L119.852 53.3052Z" fill="#838383"/>
<path d="M119.75 51.9963C119.75 51.9963 118.789 50.2048 117.061 49.6571C117.061 49.6571 118.885 50.1052 119.798 51.648L119.75 51.9963Z" fill="#838383"/>
<path d="M119.75 54.4849C119.75 54.4849 118.789 52.6934 117.061 52.1458C117.061 52.1458 118.885 52.5938 119.798 54.1367L119.75 54.4849Z" fill="#838383"/>
<path d="M46.3069 40.9495C46.3069 40.9495 52.2556 41.5379 55.2708 45.2256C55.2708 45.2256 58.4561 40.9537 64.1775 41.0413C65.8377 39.0401 66.8363 36.4704 66.8374 33.667C66.8397 27.2811 61.6647 22.1026 55.2787 22.1003C48.8928 22.0982 43.7142 27.2731 43.7119 33.659C43.7109 36.4273 44.6832 38.9682 46.305 40.9593L46.3069 40.9495Z" fill="#599BFE"/>
<mask id="mask2_386_41614" style="mask-type:luminance" maskUnits="userSpaceOnUse" x="43" y="22" width="24" height="24">
<path d="M43.7119 22.1H66.8374V45.2253H43.7119V22.1Z" fill="white"/>
</mask>
<g mask="url(#mask2_386_41614)">
<g opacity="0.399994">
<path d="M46.3069 40.9492C46.3069 40.9492 52.2556 41.5377 55.2708 45.2253C55.2708 45.2253 58.4561 40.9534 64.1775 41.041C65.8377 39.0398 66.8363 36.4701 66.8374 33.6668C66.8397 27.2808 61.6647 22.1023 55.2787 22.1C48.8928 22.0979 43.7142 27.2729 43.7119 33.6588C43.7109 36.4271 44.6832 38.968 46.305 40.9591L46.3069 40.9492Z" fill="white"/>
</g>
</g>
<path d="M55.6616 57.04L55.074 27.291L54.9277 57.3459L55.6616 57.04Z" fill="#838383"/>
<path d="M55.3748 44.1018C55.3748 44.1018 57.383 40.4871 60.9977 39.3828C60.9977 39.3828 57.1823 40.2864 55.2744 43.399L55.3748 44.1018Z" fill="#838383"/>
<path d="M55.2246 34.061C55.2246 34.061 57.3836 30.2457 60.9984 29.1412C60.9984 29.1412 57.1472 30.1887 55.2395 33.3015L55.2246 34.061Z" fill="#838383"/>
<path d="M55.2837 39.1108C55.2837 39.1108 57.383 35.3673 60.9977 34.2626C60.9977 34.2626 57.1823 35.1665 55.2744 38.2791L55.2837 39.1108Z" fill="#838383"/>
<path d="M55.078 36.4714C55.078 36.4714 53.1402 32.8567 49.6523 31.7522C49.6523 31.7522 53.3339 32.6561 55.1748 35.7687L55.078 36.4714Z" fill="#838383"/>
<path d="M55.078 41.4919C55.078 41.4919 53.1402 37.8772 49.6523 36.7727C49.6523 36.7727 53.3339 37.6763 55.1748 40.7892L55.078 41.4919Z" fill="#838383"/>
<path d="M61.4359 52.4592H60.9697V41.2686H61.4359V52.4592Z" fill="white" stroke="#DADADA" stroke-width="0.206737" stroke-miterlimit="10"/>
<path d="M117.855 56.9663H117.389V45.7756H117.855V56.9663Z" fill="white" stroke="#DADADA" stroke-width="0.206737" stroke-miterlimit="10"/>
<path d="M80.8643 61.0083H116.923V46.3985H80.8643V61.0083Z" fill="white" stroke="#DADADA" stroke-width="0.206737" stroke-miterlimit="10"/>
<path d="M80.8643 47.7961H116.923V46.3973H80.8643V47.7961Z" fill="#DADADA" stroke="#DADADA" stroke-width="0.206737" stroke-miterlimit="10"/>
<path d="M118.476 45.1541H81.0186V35.9841H112.725L118.476 45.1541Z" fill="#DADADA"/>
<path d="M118.476 45.1541H81.0186V35.9841H112.725L118.476 45.1541Z" stroke="#DADADA" stroke-width="0.206737" stroke-miterlimit="10"/>
<path d="M80.708 46.8638H118.477V45.154H80.708V46.8638Z" fill="white" stroke="#DADADA" stroke-width="0.206737" stroke-miterlimit="10"/>
<path d="M87.2659 41.5861H61.9951V53.8101H87.2659V41.5861Z" fill="white" stroke="#DADADA" stroke-width="0.206737" stroke-miterlimit="10"/>
<path d="M87.2659 41.5861H61.9951V42.823H87.2659V41.5861Z" fill="#DADADA" stroke="#DADADA" stroke-width="0.206737" stroke-miterlimit="10"/>
<path d="M74.337 29.1271L60.585 39.4705H88.0891L74.337 29.1271Z" fill="white"/>
<path d="M74.337 29.1271L60.585 39.4705H88.0891L74.337 29.1271Z" stroke="#DADADA" stroke-width="0.206737" stroke-miterlimit="10"/>
<path d="M74.3375 30.5375L63.3984 38.7651H85.2765L74.3375 30.5375Z" fill="#DADADA"/>
<path d="M74.3375 30.5375L63.3984 38.7651H85.2765L74.3375 30.5375Z" stroke="#DADADA" stroke-width="0.206737" stroke-miterlimit="10"/>
<path d="M43.5422 77.8601H41.8965V58.747H43.5422V77.8601Z" fill="white" stroke="#DADADA" stroke-width="0.206737" stroke-miterlimit="10"/>
<path d="M122.058 77.8037H45.8926V58.747H122.058V77.8037Z" fill="white" stroke="#DADADA" stroke-width="0.206737" stroke-miterlimit="10"/>
<path d="M122.058 60.8521H45.8926V58.7467H122.058V60.8521Z" fill="#DADADA" stroke="#DADADA" stroke-width="0.206737" stroke-miterlimit="10"/>
<path d="M91.3797 58.1594H39.7803L44.1291 52.5174H91.3797V58.1594Z" fill="#DADADA"/>
<path d="M91.3797 58.1594H39.7803L44.1291 52.5174H91.3797V58.1594Z" stroke="#DADADA" stroke-width="0.206737" stroke-miterlimit="10"/>
<path d="M81.7416 59.3347H39.7803V58.1594H81.7416V59.3347Z" fill="white" stroke="#DADADA" stroke-width="0.206737" stroke-miterlimit="10"/>
<path d="M122.058 58.1593H79.5088V77.8037H122.058V58.1593Z" fill="white" stroke="#DADADA" stroke-width="0.206737" stroke-miterlimit="10"/>
<path d="M120.964 59.2983H80.6025V77.8037H120.964V59.2983Z" fill="#DADADA" stroke="#DADADA" stroke-width="0.206737" stroke-miterlimit="10"/>
<path d="M117.592 61.9205H83.9756V77.804H117.592V61.9205Z" fill="white" stroke="#DADADA" stroke-width="0.206737" stroke-miterlimit="10"/>
<path d="M92.4433 69.8958H84.8516V66.9027H92.4433V69.8958Z" stroke="#A8A8A8" stroke-width="0.206737" stroke-miterlimit="10" stroke-linecap="round" stroke-linejoin="round"/>
<path d="M100.547 69.8958H92.9551V66.9027H100.547V69.8958Z" stroke="#A8A8A8" stroke-width="0.206737" stroke-miterlimit="10" stroke-linecap="round" stroke-linejoin="round"/>
<path d="M92.4433 73.4724H84.8516V70.4794H92.4433V73.4724Z" stroke="#A8A8A8" stroke-width="0.206737" stroke-miterlimit="10" stroke-linecap="round" stroke-linejoin="round"/>
<path d="M100.547 73.4724H92.9551V70.4794H100.547V73.4724Z" stroke="#A8A8A8" stroke-width="0.206737" stroke-miterlimit="10" stroke-linecap="round" stroke-linejoin="round"/>
<path d="M92.4433 77.0503H84.8516V74.057H92.4433V77.0503Z" stroke="#A8A8A8" stroke-width="0.206737" stroke-miterlimit="10" stroke-linecap="round" stroke-linejoin="round"/>
<path d="M100.547 77.0503H92.9551V74.057H100.547V77.0503Z" stroke="#A8A8A8" stroke-width="0.206737" stroke-miterlimit="10" stroke-linecap="round" stroke-linejoin="round"/>
<path d="M108.651 69.8958H101.059V66.9027H108.651V69.8958Z" stroke="#A8A8A8" stroke-width="0.206737" stroke-miterlimit="10" stroke-linecap="round" stroke-linejoin="round"/>
<path d="M116.753 69.8958H109.161V66.9027H116.753V69.8958Z" stroke="#A8A8A8" stroke-width="0.206737" stroke-miterlimit="10" stroke-linecap="round" stroke-linejoin="round"/>
<path d="M108.651 73.4724H101.059V70.4794H108.651V73.4724Z" stroke="#A8A8A8" stroke-width="0.206737" stroke-miterlimit="10" stroke-linecap="round" stroke-linejoin="round"/>
<path d="M116.753 73.4724H109.161V70.4794H116.753V73.4724Z" stroke="#A8A8A8" stroke-width="0.206737" stroke-miterlimit="10" stroke-linecap="round" stroke-linejoin="round"/>
<path d="M108.651 77.0503H101.059V74.057H108.651V77.0503Z" stroke="#A8A8A8" stroke-width="0.206737" stroke-miterlimit="10" stroke-linecap="round" stroke-linejoin="round"/>
<path d="M116.753 77.0503H109.161V74.057H116.753V77.0503Z" stroke="#A8A8A8" stroke-width="0.206737" stroke-miterlimit="10" stroke-linecap="round" stroke-linejoin="round"/>
<path d="M100.313 39.2268L77.8633 58.3945H122.763L100.313 39.2268Z" fill="white"/>
<path d="M100.313 39.2268L77.8633 58.3945H122.763L100.313 39.2268Z" stroke="#DADADA" stroke-width="0.206737" stroke-miterlimit="10"/>
<path d="M100.313 41.8399L82.4551 57.0869H118.171L100.313 41.8399Z" fill="#DADADA"/>
<path d="M100.313 41.8399L82.4551 57.0869H118.171L100.313 41.8399Z" stroke="#DADADA" stroke-width="0.206737" stroke-miterlimit="10"/>
<path d="M88.4416 41.7036H60.585V39.4705H88.4416V41.7036Z" fill="white" stroke="#DADADA" stroke-width="0.206737" stroke-miterlimit="10"/>
<path d="M82.8001 51.8118H66.3447V42.2912H82.8001V51.8118Z" fill="#DADADA" stroke="#DADADA" stroke-width="0.206737" stroke-miterlimit="10"/>
<path d="M80.4491 51.8118H68.6953V42.2912H80.4491V51.8118Z" fill="white" stroke="#DADADA" stroke-width="0.206737" stroke-miterlimit="10"/>
<path d="M75.042 51.8118H74.1016V42.2912H75.042V51.8118Z" fill="#DADADA" stroke="#DADADA" stroke-width="0.206737" stroke-miterlimit="10"/>
<path d="M68.7539 46.6406H80.389V47.4634H68.7539V46.6406Z" fill="#DADADA" stroke="#DADADA" stroke-width="0.206737" stroke-miterlimit="10"/>
<path d="M65.8744 74.7322H49.4189V62.9784H65.8744V74.7322Z" fill="#DADADA" stroke="#DADADA" stroke-width="0.206737" stroke-miterlimit="10"/>
<path d="M63.5233 74.7322H51.7695V62.9784H63.5233V74.7322Z" fill="white" stroke="#DADADA" stroke-width="0.206737" stroke-miterlimit="10"/>
<path d="M58.1162 74.7322H57.1758V62.9784H58.1162V74.7322Z" fill="#DADADA" stroke="#DADADA" stroke-width="0.206737" stroke-miterlimit="10"/>
<path d="M51.8281 68.3475H63.5021V69.3633H51.8281V68.3475Z" fill="#DADADA" stroke="#DADADA" stroke-width="0.206737" stroke-miterlimit="10"/>
<path d="M77.5102 63.2136H71.1631V77.6709H77.5102V63.2136Z" fill="#DADADA" stroke="#DADADA" stroke-width="0.206737" stroke-miterlimit="10"/>
<path d="M76.4521 64.1158H72.2207V75.3191H76.4521V64.1158Z" fill="white"/>
<path d="M85.8729 63.5661H84.7656V64.1897H85.8729V63.5661Z" fill="#DADADA"/>
<path d="M86.3613 64.1897H87.4688V63.5661H86.3613V64.1897Z" fill="#DADADA"/>
<path d="M85.8729 64.5311H84.7656V65.3135H85.8729V64.5311Z" fill="#DADADA"/>
<path d="M86.3613 65.3135H87.4688V64.5311H86.3613V65.3135Z" fill="#DADADA"/>
<path d="M90.043 63.5661H88.9355V64.1897H90.043V63.5661Z" fill="#DADADA"/>
<path d="M90.5312 64.1897H91.6385V63.5661H90.5312V64.1897Z" fill="#DADADA"/>
<path d="M90.043 64.5311H88.9355V65.3135H90.043V64.5311Z" fill="#DADADA"/>
<path d="M90.5312 65.3135H91.6385V64.5311H90.5312V65.3135Z" fill="#DADADA"/>
<path d="M94.2127 63.5661H93.1055V64.1897H94.2127V63.5661Z" fill="#DADADA"/>
<path d="M94.7012 64.1897H95.8086V63.5661H94.7012V64.1897Z" fill="#DADADA"/>
<path d="M94.2127 64.5311H93.1055V65.3135H94.2127V64.5311Z" fill="#DADADA"/>
<path d="M94.7012 65.3135H95.8086V64.5311H94.7012V65.3135Z" fill="#DADADA"/>
<path d="M98.3828 63.5661H97.2754V64.1897H98.3828V63.5661Z" fill="#DADADA"/>
<path d="M98.8711 64.1897H99.9783V63.5661H98.8711V64.1897Z" fill="#DADADA"/>
<path d="M98.3828 64.5311H97.2754V65.3135H98.3828V64.5311Z" fill="#DADADA"/>
<path d="M98.8711 65.3135H99.9783V64.5311H98.8711V65.3135Z" fill="#DADADA"/>
<path d="M102.553 63.5661H101.445V64.1897H102.553V63.5661Z" fill="#DADADA"/>
<path d="M103.041 64.1897H104.148V63.5661H103.041V64.1897Z" fill="#DADADA"/>
<path d="M102.553 64.5311H101.445V65.3135H102.553V64.5311Z" fill="#DADADA"/>
<path d="M103.041 65.3135H104.148V64.5311H103.041V65.3135Z" fill="#DADADA"/>
<path d="M106.722 63.5661H105.615V64.1897H106.722V63.5661Z" fill="#DADADA"/>
<path d="M107.211 64.1897H108.318V63.5661H107.211V64.1897Z" fill="#DADADA"/>
<path d="M106.722 64.5311H105.615V65.3135H106.722V64.5311Z" fill="#DADADA"/>
<path d="M107.211 65.3135H108.318V64.5311H107.211V65.3135Z" fill="#DADADA"/>
<path d="M110.893 63.5661H109.785V64.1897H110.893V63.5661Z" fill="#DADADA"/>
<path d="M111.381 64.1897H112.488V63.5661H111.381V64.1897Z" fill="#DADADA"/>
<path d="M110.893 64.5311H109.785V65.3135H110.893V64.5311Z" fill="#DADADA"/>
<path d="M111.381 65.3135H112.488V64.5311H111.381V65.3135Z" fill="#DADADA"/>
<path d="M115.062 63.5661H113.955V64.1897H115.062V63.5661Z" fill="#DADADA"/>
<path d="M115.551 64.1897H116.658V63.5661H115.551V64.1897Z" fill="#DADADA"/>
<path d="M115.062 64.5311H113.955V65.3135H115.062V64.5311Z" fill="#DADADA"/>
<path d="M115.551 65.3135H116.658V64.5311H115.551V65.3135Z" fill="#DADADA"/>
</g>
<path d="M131.678 76.2009H33.7412V78.7033H131.678V76.2009Z" fill="white" stroke="#263238" stroke-width="0.34" stroke-linecap="round" stroke-linejoin="round"/>
<path d="M93.3636 76.2009H33.7412V78.7033H93.3636V76.2009Z" fill="#599BFE" stroke="#263238" stroke-width="0.34" stroke-linecap="round" stroke-linejoin="round"/>
<path d="M95.8186 77.452C95.8186 77.1278 95.7224 76.8108 95.5422 76.5412C95.362 76.2716 95.1058 76.0616 94.8062 75.9377C94.5065 75.8137 94.1768 75.7815 93.8588 75.845C93.5409 75.9085 93.2489 76.0649 93.0198 76.2944C92.7908 76.524 92.6349 76.8163 92.5721 77.1344C92.5092 77.4525 92.5422 77.7821 92.6667 78.0815C92.7913 78.3809 93.0019 78.6366 93.2718 78.8163C93.5418 78.996 93.859 79.0915 94.1832 79.0908C94.3983 79.0908 94.6112 79.0484 94.8098 78.966C95.0085 78.8836 95.1889 78.7629 95.3408 78.6106C95.4927 78.4584 95.6131 78.2777 95.6951 78.0789C95.7771 77.8801 95.8191 77.6671 95.8186 77.452Z" fill="white" stroke="#263238" stroke-width="0.34" stroke-linecap="round" stroke-linejoin="round"/>
<path d="M22.4639 52.5709C22.9709 52.5709 23.3819 52.1599 23.3819 51.6529C23.3819 51.1459 22.9709 50.7349 22.4639 50.7349C21.9569 50.7349 21.5459 51.1459 21.5459 51.6529C21.5459 52.1599 21.9569 52.5709 22.4639 52.5709Z" fill="#707070"/>
<path d="M114.736 47.8721L106.342 43.0271V52.7205L114.736 47.8721Z" fill="white" stroke="#263238" stroke-width="0.34" stroke-linecap="round" stroke-linejoin="round"/>
<path d="M118.639 42.5884H116.375V53.159H118.639V42.5884Z" fill="white" stroke="#263238" stroke-width="0.34" stroke-linecap="round" stroke-linejoin="round"/>
<path d="M50.6807 47.8721L59.0787 43.0271V52.7205L50.6807 47.8721Z" fill="white" stroke="#263238" stroke-width="0.34" stroke-linecap="round" stroke-linejoin="round"/>
<path d="M46.7805 53.1589H49.0449V42.5883H46.7805V53.1589Z" fill="white" stroke="#263238" stroke-width="0.34" stroke-linecap="round" stroke-linejoin="round"/>
<path d="M82.7088 55.9233C87.1141 55.9233 90.6852 52.3521 90.6852 47.9469C90.6852 43.5416 87.1141 39.9705 82.7088 39.9705C78.3036 39.9705 74.7324 43.5416 74.7324 47.9469C74.7324 52.3521 78.3036 55.9233 82.7088 55.9233Z" fill="#599BFE" stroke="#263238" stroke-width="0.34" stroke-linecap="round" stroke-linejoin="round"/>
<path d="M81.7366 43.5269H78.1768V52.3669H81.7366V43.5269Z" fill="white" stroke="#263238" stroke-width="0.34" stroke-linecap="round" stroke-linejoin="round"/>
<path d="M87.2444 43.5269H83.6846V52.3669H87.2444V43.5269Z" fill="white" stroke="#263238" stroke-width="0.34" stroke-linecap="round" stroke-linejoin="round"/>
<path d="M61.2303 64.1786C61.2303 64.1786 63.5457 65.44 63.7565 66.4906C63.9673 67.5412 63.8585 68.9114 64.1747 69.2276C64.4909 69.5438 65.9121 69.333 65.8067 70.3326C65.7616 70.8858 65.6006 71.4233 65.3341 71.9102C65.3341 71.9102 65.2797 73.3824 65.1743 74.5894C65.0689 75.7964 65.1743 76.2894 64.4943 76.5886C63.8143 76.8878 61.3901 76.643 61.0229 76.694C60.6557 76.745 59.9723 75.011 59.4997 71.2778C59.0271 67.5446 60.1797 63.8114 61.2303 64.1786Z" fill="white" stroke="#263238" stroke-width="0.34" stroke-linecap="round" stroke-linejoin="round"/>
<path d="M37.3697 110.228L35.2651 113.176C35.2651 113.176 32.4261 113.281 31.5251 113.438C30.6241 113.594 30.4745 113.965 30.4745 114.437C30.4745 114.91 30.3691 115.96 30.3691 116.436C30.3976 116.687 30.5135 116.919 30.6964 117.091C30.8793 117.264 31.1174 117.367 31.3687 117.382C31.8923 117.433 32.3683 117.538 32.6301 117.331C32.864 117.08 33.0588 116.796 33.2081 116.487C33.2081 116.487 34.1567 116.909 35.2481 116.015C35.9665 115.478 36.6407 114.884 37.2643 114.24C37.5805 113.873 39.8959 111.819 39.8959 111.819L37.3697 110.228Z" fill="white" stroke="#263238" stroke-width="0.34" stroke-linecap="round" stroke-linejoin="round"/>
<path d="M33.2153 116.487C33.2153 116.487 31.9539 116.749 31.6377 116.331" stroke="#263238" stroke-width="0.34" stroke-linecap="round" stroke-linejoin="round"/>
<path d="M50.4498 108.729C50.4498 108.729 48.1446 114.971 48.369 117.497C48.5934 120.023 48.8144 123.593 48.8892 126.715C48.964 129.836 49.0354 135.929 49.0354 135.929C49.0354 135.929 48.0698 139.199 47.8488 140.91C47.6278 142.62 47.6992 156.414 47.6992 156.414C47.6992 156.414 46.6588 159.089 45.9992 160.055C45.3396 161.021 44.3638 161.755 43.6192 162.435C42.8746 163.115 43.1704 164.07 44.51 164.291C45.8496 164.512 47.4068 164.366 48.0766 163.996C48.7464 163.625 50.1574 163.316 50.6776 162.136C51.1978 160.956 50.9768 156.934 50.9768 156.934C50.9768 156.934 54.0368 145.292 54.5434 141.95C55.05 138.608 55.8048 133.477 55.8796 132.882C55.9544 132.287 58.9396 119.207 58.9396 119.207L60.4254 119.058L61.7616 125.154L63.4616 136.524C63.4616 136.524 63.0162 141.131 63.5364 144.327C64.0566 147.523 64.4272 159.905 64.4272 159.905C64.4272 159.905 63.8322 163.846 64.0566 164.441C64.281 165.036 65.318 165.121 66.8786 165.036C68.1918 164.927 69.4627 164.52 70.5949 163.846C70.88 163.697 71.0947 163.442 71.1922 163.136C71.2897 162.829 71.2619 162.497 71.115 162.211C70.8193 161.531 70.0746 160.946 69.6292 160.205C69.1838 159.463 68.7384 159.089 68.5888 158.42C68.4392 157.75 69.8536 145.16 69.6292 142.47C69.4048 139.781 69.3334 136.228 69.3334 136.228C69.3334 136.228 71.0334 130.132 71.115 123.814C71.1966 117.497 71.9344 116.606 70.3738 112.52C68.8132 108.433 67.919 106.944 67.919 106.944L50.8272 107.389L50.4498 108.729Z" fill="white" stroke="#263238" stroke-width="0.34" stroke-linecap="round" stroke-linejoin="round"/>
<path d="M69.6223 142.46C69.4013 139.784 69.3265 136.218 69.3265 136.218C69.3265 136.218 71.0265 130.122 71.1081 123.804C71.1897 117.487 71.9275 116.596 70.3669 112.51C68.8063 108.423 67.9121 106.934 67.9121 106.934L50.8203 107.379L50.4497 108.719C50.4497 108.719 48.1445 114.961 48.3689 117.487C48.5933 120.013 48.8143 123.583 48.8891 126.705C48.9639 129.826 49.0353 135.919 49.0353 135.919C49.0353 135.919 48.0697 139.189 47.8487 140.9C47.7093 141.96 47.6855 149.532 47.6855 152.837C48.3622 152.498 49.1195 152.352 49.8738 152.416C50.628 152.48 51.3498 152.752 51.9593 153.201C52.8569 150.464 54.2475 143.803 54.5365 141.94C55.0567 138.594 55.7979 133.467 55.8727 132.872C55.9475 132.277 58.9327 119.197 58.9327 119.197L60.4185 119.048L61.7547 125.144L63.4547 136.514C63.4547 136.514 63.0093 141.121 63.5295 144.317C63.8491 146.275 64.1109 153.568 64.2673 156.584C65.0014 156.867 65.7932 156.969 66.5752 156.881C67.3571 156.793 68.1062 156.517 68.7587 156.077C69.0987 152.898 69.7821 144.391 69.6223 142.46Z" fill="#263238" stroke="#263238" stroke-width="0.34" stroke-linecap="round" stroke-linejoin="round"/>
<path d="M69.6221 160.205C69.3977 159.827 69.1699 159.545 68.9829 159.27C68.9013 159.467 68.7959 159.725 68.6429 160.055C68.5747 160.291 68.4254 160.495 68.2213 160.631C68.0172 160.767 67.7716 160.827 67.5277 160.8C67.5277 160.8 66.2663 159.685 65.3721 159.61C64.4779 159.535 64.4065 159.906 64.4065 159.906C64.4065 159.906 63.8115 163.846 64.0359 164.441C64.2603 165.036 65.2973 165.121 66.8579 165.036C68.171 164.927 69.442 164.52 70.5741 163.846C70.8593 163.698 71.074 163.442 71.1715 163.136C71.2689 162.829 71.2412 162.497 71.0943 162.211C70.8121 161.541 70.0675 160.946 69.6221 160.205Z" fill="white" stroke="#263238" stroke-width="0.34" stroke-linecap="round" stroke-linejoin="round"/>
<path d="M49.1098 157.899C48.4417 158.355 47.8651 158.931 47.4098 159.599C47.3503 159.067 47.2199 158.544 47.0222 158.046C46.7371 158.739 46.396 159.407 46.0022 160.045C45.3222 161.01 44.3668 161.745 43.6222 162.425C42.8776 163.105 43.1734 164.06 44.513 164.281C45.8526 164.502 47.4098 164.356 48.0796 163.985C48.7494 163.615 50.1604 163.305 50.6806 162.126C51.058 161.265 51.0444 158.919 51.0206 157.706L50.8404 157.757C50.8404 157.757 50.1502 157.23 49.1098 157.899Z" fill="white" stroke="#263238" stroke-width="0.34" stroke-linecap="round" stroke-linejoin="round"/>
<path d="M49.1101 161.466C47.4101 161.765 46.4343 162.806 45.0981 163.326C44.5133 163.554 43.9965 163.768 43.6055 163.935C43.8725 164.119 44.1806 164.236 44.5031 164.275C45.8393 164.499 47.3999 164.349 48.0697 163.979C48.7395 163.608 50.1505 163.299 50.6707 162.119C50.6605 162.136 50.8203 161.16 49.1101 161.466Z" fill="white" stroke="#263238" stroke-width="0.34" stroke-linecap="round" stroke-linejoin="round"/>
<path d="M50.2384 108.039C50.2384 108.039 49.7658 109.038 50.2384 109.616C50.711 110.194 55.2874 112.034 60.809 111.034C66.3306 110.034 67.014 109.773 67.949 108.351C68.884 106.93 68.476 106.039 68.2108 105.356C67.9456 104.673 71.2096 107.461 62.1112 108.195C53.0128 108.929 50.66 106.934 50.66 106.934L50.2384 108.039Z" fill="#599BFE" stroke="#263238" stroke-width="0.34" stroke-linecap="round" stroke-linejoin="round"/>
<path d="M79.475 65.9839C79.475 65.9839 79.8762 62.2439 79.8762 62.0637C79.6253 61.3859 79.317 60.7307 78.9548 60.1053C78.6148 59.4695 78.4924 58.8949 78.149 58.1469C77.8056 57.3989 76.4762 57.5111 77.129 56.9365C77.7818 56.3619 78.149 56.4163 78.625 56.7053C79.101 56.9943 79.4342 57.3853 79.8932 57.1643C80.3522 56.9433 81.1614 53.3053 81.277 52.8429C81.3926 52.3805 82.1984 52.2683 82.314 52.8429C82.4296 53.4175 82.0284 56.2429 82.0284 56.2429C82.0284 56.2429 82.892 55.7839 83.2388 56.0117C83.4551 56.1698 83.6158 56.3924 83.6978 56.6475C83.6978 56.6475 84.3778 56.9875 84.4458 57.3955L84.5036 57.8001C84.5036 57.8001 84.966 58.4801 84.9082 58.9527C84.7435 59.8277 84.4729 60.6795 84.1024 61.4891C83.64 62.5261 82.892 63.9677 82.7186 64.4267C82.5351 65.2442 82.4 66.0719 82.314 66.9053L79.475 65.9839Z" fill="white" stroke="#263238" stroke-width="0.34" stroke-linecap="round" stroke-linejoin="round"/>
<path d="M61.8089 78.4312C61.8089 78.4312 64.5459 80.1652 64.9131 79.9544C65.2803 79.7436 67.3305 78.3258 68.9081 77.9144C70.4857 77.503 70.9073 77.3364 71.2881 76.9658C71.6689 76.5952 76.4969 72.6546 76.7587 72.2874C77.0205 71.9202 79.6521 64.7156 79.6521 64.7156C79.6521 64.7156 80.9645 64.6612 81.5459 64.923C81.9321 65.1131 82.2866 65.362 82.5965 65.6608C82.5965 65.6608 81.7023 74.3376 81.5459 74.8646C81.3895 75.3916 79.3869 77.4928 78.2853 78.7542C77.1837 80.0156 69.0271 85.8942 68.6599 86.5912C68.2927 87.2882 66.4499 93.6904 66.1371 95.5842C65.8243 97.478 68.3437 103.316 68.3981 104.315C68.4525 105.315 68.7653 106.627 67.9765 107.522C67.1877 108.416 65.2565 109.521 57.8785 109.942C50.5005 110.364 49.9395 108.205 49.9395 107.416C49.9395 106.627 50.5175 103.261 50.3067 100.895C50.1941 99.553 50.0011 98.2189 49.7287 96.9C49.7287 96.9 47.9403 101.32 47.4677 102.105C46.9951 102.891 45.0877 106.784 43.8909 108.154C42.6941 109.524 40.6439 112.815 39.3281 112.659C38.0123 112.503 37.2881 111.503 37.2881 110.82C37.3368 110.211 37.4601 109.61 37.6553 109.031C37.6553 109.031 42.4153 100.473 42.8471 99.5792C43.2789 98.685 44.5845 94.112 44.9517 92.2182C45.3189 90.3244 45.2135 86.1186 45.9513 84.9592C46.6891 83.7998 52.6833 81.2804 54.2065 80.3318C55.7297 79.3832 59.5479 78.115 61.8089 78.4312Z" fill="#599BFE" stroke="#263238" stroke-width="0.34" stroke-linecap="round" stroke-linejoin="round"/>
<path d="M47.6278 92.3066L49.7154 96.8898L46.8662 93.1532" stroke="#263238" stroke-width="0.34" stroke-linecap="round" stroke-linejoin="round"/>
<path d="M66.0926 89.0869L68.646 86.5811L65.501 91.8001" stroke="#263238" stroke-width="0.34" stroke-linecap="round" stroke-linejoin="round"/>
<path d="M61.1796 100.185C61.1796 100.185 56.6916 106.114 53.1318 107.637" stroke="#263238" stroke-width="0.34" stroke-linecap="round" stroke-linejoin="round"/>
<path d="M58.1403 101.878C58.1403 101.878 54.4003 105.859 53.6523 106.454" stroke="#263238" stroke-width="0.34" stroke-linecap="round" stroke-linejoin="round"/>
<path d="M53.7206 64.3348C52.5747 65.1388 51.6809 66.2519 51.1434 67.5444C50.409 69.5436 50.7252 72.2228 50.6708 72.488C50.6164 72.7532 45.1492 72.9606 44.7276 74.9598C44.306 76.959 45.938 78.4312 46.1998 79.3798C46.4616 80.3284 42.8338 80.9574 42.3102 83.4292C41.7866 85.901 47.8828 86.1118 47.621 87.635C47.3592 89.1582 46.7812 88.9508 46.941 90.5284C47.1008 92.106 49.0456 92.8438 51.361 93.5884C53.6764 94.333 53.571 94.8498 54.9888 93.6938C56.4066 92.5378 56.5154 91.5892 56.7772 90.4876C57.039 89.386 57.3552 90.2224 59.1572 88.7502C60.9592 87.278 61.4182 85.0102 61.2618 83.9664C61.1054 82.9226 61.2108 84.2282 62.5232 82.3344C63.8356 80.4406 63.261 79.5464 62.4178 77.758C61.5746 75.9696 61.2108 75.2862 61.3162 74.0792C61.4216 72.8722 62.8938 68.9248 62.156 67.4526C61.4182 65.9804 60.9456 66.0926 61.3162 65.1372C61.6868 64.1818 62.5776 63.9812 61.4726 62.7198C60.3676 61.4584 58.5792 61.404 57.7904 61.8766C57.0016 62.3492 57.4742 62.4546 56.1618 62.8252C55.2422 63.1325 54.4065 63.6493 53.7206 64.3348Z" fill="#263238" stroke="#263238" stroke-width="0.34" stroke-linecap="round" stroke-linejoin="round"/>
<path d="M64.1752 72.7771C64.1752 74.3309 63.2232 75.5889 62.0468 75.5889C60.8704 75.5889 59.915 74.3309 59.915 72.7771C59.915 71.2233 60.8704 69.9619 62.0468 69.9619C63.2232 69.9619 64.1752 71.2233 64.1752 72.7771Z" fill="#787878" stroke="#263238" stroke-width="0.34" stroke-linecap="round" stroke-linejoin="round"/>
<path d="M64.291 72.7771C64.291 73.9535 63.5668 74.9089 62.676 74.9089C61.7852 74.9089 61.0645 73.9535 61.0645 72.7771C61.0645 71.6007 61.7852 70.6453 62.676 70.6453C63.5668 70.6453 64.291 71.6007 64.291 72.7771Z" fill="white" stroke="#263238" stroke-width="0.34" stroke-linecap="round" stroke-linejoin="round"/>
<path d="M62.7747 68.459C62.4924 66.8465 61.7374 65.3543 60.6055 64.1716C59.3985 62.9612 57.3857 62.4342 55.4817 62.8116C54.0197 63.1108 53.2921 63.7432 52.8705 64.7938C52.8093 64.9502 52.4659 65.2562 52.5305 65.399C52.3707 65.0148 54.6419 63.9302 54.8901 63.8486C55.729 63.5663 56.6305 63.5257 57.4914 63.7313C58.3523 63.9369 59.1381 64.3805 59.7589 65.0114C60.703 66.0115 61.3382 67.263 61.5881 68.6154C61.6086 68.7587 61.68 68.8898 61.7893 68.9848C61.8985 69.0797 62.0384 69.132 62.1831 69.1322H62.2681C62.4235 69.1078 62.5632 69.0239 62.6578 68.8982C62.7524 68.7726 62.7943 68.615 62.7747 68.459Z" fill="#787878" stroke="#263238" stroke-width="0.34" stroke-linecap="round" stroke-linejoin="round"/>
<path d="M62.56 72.4404C62.3025 72.4392 62.0543 72.3443 61.8616 72.1735C61.6689 72.0027 61.5449 71.7677 61.5128 71.5122C61.3824 70.5383 61.1882 69.5741 60.9314 68.6256C60.8561 68.3551 60.8913 68.0658 61.0294 67.8212C61.1674 67.5767 61.3969 67.397 61.6675 67.3217C61.938 67.2464 62.2273 67.2817 62.4719 67.4197C62.7164 67.5578 62.8961 67.7873 62.9714 68.0578C63.2569 69.1076 63.4716 70.1753 63.614 71.2538C63.6311 71.3914 63.6209 71.5309 63.584 71.6646C63.5471 71.7982 63.4842 71.9232 63.399 72.0324C63.3137 72.1417 63.2077 72.2331 63.0871 72.3014C62.9664 72.3696 62.8335 72.4134 62.6959 72.4302C62.651 72.4372 62.6055 72.4406 62.56 72.4404Z" fill="white" stroke="#263238" stroke-width="0.34" stroke-linecap="round" stroke-linejoin="round"/>
<path d="M136.585 104.734L141.073 147.744" stroke="#263238" stroke-width="0.34" stroke-linecap="round" stroke-linejoin="round"/>
<path d="M140.189 139.335L138.315 137.363" stroke="#263238" stroke-width="0.34" stroke-linecap="round" stroke-linejoin="round"/>
<path d="M138.934 138.009C138.93 137.681 138.856 137.356 138.716 137.058C138.577 136.76 138.375 136.496 138.125 136.282C137.601 135.816 134.854 134.66 134.592 135.626C134.3 136.68 137.122 138.747 138.934 138.009Z" fill="#599BFE" stroke="#263238" stroke-width="0.34" stroke-miterlimit="10"/>
<path d="M138.934 138.009L136.316 136.377" stroke="#263238" stroke-width="0.34" stroke-linecap="round" stroke-linejoin="round"/>
<path d="M140.654 143.776L138.825 142.256" stroke="#263238" stroke-width="0.34" stroke-linecap="round" stroke-linejoin="round"/>
<path d="M139.444 142.898C139.439 142.57 139.365 142.246 139.226 141.949C139.086 141.652 138.884 141.388 138.634 141.175C138.111 140.705 135.364 139.549 135.102 140.518C134.82 141.572 137.631 143.64 139.444 142.898Z" fill="#599BFE" stroke="#263238" stroke-width="0.34" stroke-miterlimit="10"/>
<path d="M139.444 142.899L136.826 141.27" stroke="#263238" stroke-width="0.34" stroke-linecap="round" stroke-linejoin="round"/>
<path d="M138.917 127.089L137.07 125.426" stroke="#263238" stroke-width="0.34" stroke-linecap="round" stroke-linejoin="round"/>
<path d="M137.7 126.072C137.696 125.743 137.621 125.418 137.481 125.12C137.341 124.822 137.139 124.558 136.888 124.345C136.367 123.879 133.617 122.723 133.355 123.692C133.063 124.742 135.878 126.82 137.7 126.072Z" fill="#599BFE" stroke="#263238" stroke-width="0.34" stroke-miterlimit="10"/>
<path d="M137.689 126.072L135.071 124.44" stroke="#263238" stroke-width="0.34" stroke-linecap="round" stroke-linejoin="round"/>
<path d="M139.434 132.291L137.581 130.319" stroke="#263238" stroke-width="0.34" stroke-linecap="round" stroke-linejoin="round"/>
<path d="M138.2 130.965C138.196 130.635 138.121 130.311 137.981 130.013C137.841 129.715 137.638 129.45 137.387 129.237C136.867 128.772 134.116 127.616 133.858 128.581C133.572 129.635 136.388 131.702 138.2 130.965Z" fill="#599BFE" stroke="#263238" stroke-width="0.34" stroke-miterlimit="10"/>
<path d="M138.2 130.965L135.582 129.333" stroke="#263238" stroke-width="0.34" stroke-linecap="round" stroke-linejoin="round"/>
<path d="M138.094 119.371L136.241 117.48" stroke="#263238" stroke-width="0.34" stroke-linecap="round" stroke-linejoin="round"/>
<path d="M136.86 118.126C136.856 117.797 136.781 117.472 136.641 117.174C136.501 116.876 136.298 116.612 136.047 116.399C135.527 115.933 132.777 114.777 132.518 115.746C132.233 116.797 135.048 118.864 136.86 118.126Z" fill="#599BFE" stroke="#263238" stroke-width="0.34" stroke-miterlimit="10"/>
<path d="M136.86 118.126L134.242 116.494" stroke="#263238" stroke-width="0.34" stroke-linecap="round" stroke-linejoin="round"/>
<path d="M137.2 110.874L135.408 109.5" stroke="#263238" stroke-width="0.34" stroke-linecap="round" stroke-linejoin="round"/>
<path d="M136.027 110.16C136.023 109.831 135.948 109.507 135.808 109.21C135.668 108.912 135.465 108.649 135.214 108.436C134.694 107.97 131.944 106.811 131.685 107.78C131.4 108.817 134.215 110.884 136.027 110.16Z" fill="#599BFE" stroke="#263238" stroke-width="0.34" stroke-miterlimit="10"/>
<path d="M136.027 110.143L133.409 108.514" stroke="#263238" stroke-width="0.34" stroke-linecap="round" stroke-linejoin="round"/>
<path d="M140.009 136.619L141.556 134.096" stroke="#263238" stroke-width="0.34" stroke-linecap="round" stroke-linejoin="round"/>
<path d="M141.1 134.854C141.037 134.531 141.043 134.199 141.118 133.879C141.194 133.558 141.337 133.258 141.538 132.998C141.95 132.433 144.401 130.733 144.857 131.638C145.336 132.6 143.011 135.204 141.1 134.854Z" fill="#599BFE" stroke="#263238" stroke-width="0.34" stroke-miterlimit="10"/>
<path d="M141.083 134.854L142.926 133.127" stroke="#263238" stroke-width="0.34" stroke-linecap="round" stroke-linejoin="round"/>
<path d="M138.665 123.746L140.212 121.224" stroke="#263238" stroke-width="0.34" stroke-linecap="round" stroke-linejoin="round"/>
<path d="M139.74 121.982C139.676 121.659 139.682 121.327 139.757 121.007C139.832 120.687 139.975 120.386 140.175 120.125C140.59 119.561 142.507 118.147 142.963 119.041C143.459 120.02 141.668 122.332 139.74 121.982Z" fill="#599BFE" stroke="#263238" stroke-width="0.34" stroke-miterlimit="10"/>
<path d="M139.739 121.982L142.095 119.728" stroke="#263238" stroke-width="0.34" stroke-linecap="round" stroke-linejoin="round"/>
<path d="M138.074 118.089L139.621 115.566" stroke="#263238" stroke-width="0.34" stroke-linecap="round" stroke-linejoin="round"/>
<path d="M139.148 116.324C139.084 116.001 139.091 115.669 139.166 115.349C139.242 115.028 139.385 114.728 139.586 114.468C140.001 113.903 142.453 112.203 142.905 113.108C143.401 114.07 141.076 116.674 139.148 116.324Z" fill="#599BFE" stroke="#263238" stroke-width="0.34" stroke-miterlimit="10"/>
<path d="M139.148 116.324L141.508 114.073" stroke="#263238" stroke-width="0.34" stroke-linecap="round" stroke-linejoin="round"/>
<path d="M137.21 109.796L138.757 107.273" stroke="#263238" stroke-width="0.34" stroke-linecap="round" stroke-linejoin="round"/>
<path d="M138.285 108.032C138.22 107.709 138.226 107.376 138.301 107.056C138.376 106.736 138.519 106.436 138.72 106.175C139.135 105.611 141.586 103.911 142.042 104.815C142.538 105.777 140.209 108.382 138.285 108.032Z" fill="#599BFE" stroke="#263238" stroke-width="0.34" stroke-miterlimit="10"/>
<path d="M138.284 108.032L140.64 105.777" stroke="#263238" stroke-width="0.34" stroke-linecap="round" stroke-linejoin="round"/>
<path d="M136.547 104.496C136.484 104.173 136.49 103.841 136.565 103.52C136.64 103.2 136.782 102.9 136.983 102.639C137.397 102.075 139.849 100.375 140.304 101.279C140.801 102.241 138.472 104.846 136.547 104.496Z" fill="#599BFE" stroke="#263238" stroke-width="0.34" stroke-miterlimit="10"/>
<path d="M136.547 104.496L138.903 102.241" stroke="#263238" stroke-width="0.34" stroke-linecap="round" stroke-linejoin="round"/>
<path d="M136.68 104.591C136.353 104.621 136.023 104.58 135.712 104.472C135.402 104.363 135.119 104.189 134.881 103.962C134.361 103.493 132.93 100.875 133.861 100.518C134.888 100.127 137.234 102.714 136.68 104.591Z" fill="#599BFE" stroke="#263238" stroke-width="0.34" stroke-miterlimit="10"/>
<path d="M136.683 104.591L134.69 102.01" stroke="#263238" stroke-width="0.34" stroke-linecap="round" stroke-linejoin="round"/>
<path d="M143.31 93.1396V147.536" stroke="#263238" stroke-width="0.34" stroke-linecap="round" stroke-linejoin="round"/>
<path d="M148.423 110.656L143.959 153.67" stroke="#263238" stroke-width="0.34" stroke-linecap="round" stroke-linejoin="round"/>
<path d="M144.905 144.884L143.871 143.701" stroke="#263238" stroke-width="0.34" stroke-linecap="round" stroke-linejoin="round"/>
<path d="M143.871 143.701C143.934 143.378 143.928 143.046 143.853 142.726C143.778 142.406 143.636 142.105 143.435 141.845C143.017 141.284 140.566 139.584 140.114 140.485C139.617 141.44 141.946 144.055 143.871 143.701Z" fill="#599BFE" stroke="#263238" stroke-width="0.34" stroke-miterlimit="10"/>
<path d="M143.871 143.701L141.647 141.566" stroke="#263238" stroke-width="0.34" stroke-linecap="round" stroke-linejoin="round"/>
<path d="M146.166 132.603L144.633 131.322" stroke="#263238" stroke-width="0.34" stroke-linecap="round" stroke-linejoin="round"/>
<path d="M145.108 131.764C145.173 131.442 145.167 131.11 145.092 130.79C145.017 130.47 144.874 130.17 144.673 129.911C144.258 129.346 141.807 127.646 141.351 128.551C140.858 129.513 143.184 132.117 145.108 131.764Z" fill="#599BFE" stroke="#263238" stroke-width="0.34" stroke-miterlimit="10"/>
<path d="M145.108 131.764L142.885 129.628" stroke="#263238" stroke-width="0.34" stroke-linecap="round" stroke-linejoin="round"/>
<path d="M145.679 138.421L144.129 135.898" stroke="#263238" stroke-width="0.34" stroke-linecap="round" stroke-linejoin="round"/>
<path d="M144.602 136.656C144.667 136.334 144.661 136.001 144.586 135.681C144.511 135.36 144.368 135.06 144.167 134.8C143.752 134.235 141.297 132.539 140.845 133.44C140.349 134.405 142.678 137.02 144.602 136.656Z" fill="#599BFE" stroke="#263238" stroke-width="0.34" stroke-miterlimit="10"/>
<path d="M144.602 136.656L142.378 134.521" stroke="#263238" stroke-width="0.34" stroke-linecap="round" stroke-linejoin="round"/>
<path d="M146.941 124.763L145.462 123.06" stroke="#263238" stroke-width="0.34" stroke-linecap="round" stroke-linejoin="round"/>
<path d="M145.935 123.818C145.998 123.495 145.992 123.162 145.916 122.842C145.84 122.522 145.697 122.222 145.496 121.961C145.081 121.397 142.63 119.7 142.174 120.601C141.681 121.567 144.01 124.168 145.935 123.818Z" fill="#599BFE" stroke="#263238" stroke-width="0.34" stroke-miterlimit="10"/>
<path d="M145.935 123.818L143.711 121.683" stroke="#263238" stroke-width="0.34" stroke-linecap="round" stroke-linejoin="round"/>
<path d="M147.717 117.297L146.292 115.08" stroke="#263238" stroke-width="0.34" stroke-linecap="round" stroke-linejoin="round"/>
<path d="M146.764 115.838C146.827 115.515 146.821 115.183 146.745 114.862C146.67 114.542 146.526 114.242 146.325 113.982C145.91 113.417 143.459 111.721 143.003 112.622C142.51 113.584 144.839 116.188 146.764 115.838Z" fill="#599BFE" stroke="#263238" stroke-width="0.34" stroke-miterlimit="10"/>
<path d="M146.764 115.838L144.537 113.703" stroke="#263238" stroke-width="0.34" stroke-linecap="round" stroke-linejoin="round"/>
<path d="M145.21 142.565L147.243 140.413" stroke="#263238" stroke-width="0.34" stroke-linecap="round" stroke-linejoin="round"/>
<path d="M146.625 141.059C146.629 140.73 146.703 140.406 146.843 140.108C146.982 139.81 147.184 139.546 147.434 139.332C147.954 138.866 150.705 137.707 150.967 138.676C151.249 139.74 148.437 141.797 146.625 141.059Z" fill="#599BFE" stroke="#263238" stroke-width="0.34" stroke-miterlimit="10"/>
<path d="M146.625 141.059L149.396 139.339" stroke="#263238" stroke-width="0.34" stroke-linecap="round" stroke-linejoin="round"/>
<path d="M146.543 129.69L148.58 127.541" stroke="#263238" stroke-width="0.34" stroke-linecap="round" stroke-linejoin="round"/>
<path d="M147.961 128.18C147.965 127.852 148.039 127.528 148.179 127.231C148.318 126.933 148.52 126.669 148.77 126.456C149.29 125.987 152.041 124.831 152.303 125.797C152.585 126.854 149.773 128.925 147.961 128.18Z" fill="#599BFE" stroke="#263238" stroke-width="0.34" stroke-miterlimit="10"/>
<path d="M147.961 128.183L150.729 126.466" stroke="#263238" stroke-width="0.34" stroke-linecap="round" stroke-linejoin="round"/>
<path d="M147.132 124.032L149.165 121.883" stroke="#263238" stroke-width="0.34" stroke-linecap="round" stroke-linejoin="round"/>
<path d="M148.549 122.529C148.552 122.2 148.625 121.876 148.764 121.578C148.903 121.28 149.105 121.015 149.355 120.802C149.878 120.333 152.625 119.177 152.887 120.142C153.173 121.196 150.361 123.267 148.549 122.529Z" fill="#599BFE" stroke="#263238" stroke-width="0.34" stroke-miterlimit="10"/>
<path d="M148.549 122.529L151.316 120.809" stroke="#263238" stroke-width="0.34" stroke-linecap="round" stroke-linejoin="round"/>
<path d="M147.968 115.314L150.025 113.591" stroke="#263238" stroke-width="0.34" stroke-linecap="round" stroke-linejoin="round"/>
<path d="M149.409 114.24C149.413 113.911 149.487 113.586 149.626 113.288C149.766 112.99 149.968 112.726 150.218 112.513C150.739 112.047 153.486 110.888 153.748 111.857C154.02 112.904 151.221 114.974 149.409 114.24Z" fill="#599BFE" stroke="#263238" stroke-width="0.34" stroke-miterlimit="10"/>
<path d="M149.409 114.233L152.177 112.516" stroke="#263238" stroke-width="0.34" stroke-miterlimit="10"/>
<path d="M148.437 110.415C148.441 110.086 148.515 109.762 148.654 109.464C148.794 109.166 148.996 108.901 149.246 108.688C149.766 108.222 152.517 107.063 152.778 108.032C153.061 109.086 150.249 111.153 148.437 110.415Z" fill="#599BFE" stroke="#263238" stroke-width="0.34" stroke-miterlimit="10"/>
<path d="M148.437 110.415L151.204 108.695" stroke="#263238" stroke-width="0.34" stroke-linecap="round" stroke-linejoin="round"/>
<path d="M148.549 110.537C148.223 110.499 147.908 110.391 147.626 110.221C147.345 110.051 147.103 109.823 146.917 109.551C146.509 108.983 145.646 106.131 146.635 105.971C147.713 105.798 149.474 108.8 148.549 110.537Z" fill="#599BFE" stroke="#263238" stroke-width="0.34" stroke-miterlimit="10"/>
<path d="M148.55 110.537L147.132 107.603" stroke="#263238" stroke-width="0.34" stroke-linecap="round" stroke-linejoin="round"/>
<path d="M143.235 139.257L141.552 137.006" stroke="#263238" stroke-width="0.34" stroke-linecap="round" stroke-linejoin="round"/>
<path d="M142.1 137.7C142.13 137.372 142.09 137.042 141.982 136.731C141.874 136.421 141.701 136.137 141.474 135.898C141.002 135.381 138.39 133.943 138.03 134.878C137.639 135.912 140.22 138.261 142.1 137.7Z" fill="#599BFE" stroke="#263238" stroke-width="0.34" stroke-miterlimit="10"/>
<path d="M142.099 137.714L139.665 135.82" stroke="#263238" stroke-width="0.34" stroke-linecap="round" stroke-linejoin="round"/>
<path d="M143.293 128.408L141.552 126.786" stroke="#263238" stroke-width="0.34" stroke-linecap="round" stroke-linejoin="round"/>
<path d="M142.1 127.5C142.13 127.172 142.09 126.842 141.982 126.531C141.874 126.221 141.701 125.936 141.474 125.698C141.002 125.181 138.39 123.746 138.03 124.678C137.639 125.688 140.22 128.037 142.1 127.5Z" fill="#599BFE" stroke="#263238" stroke-width="0.34" stroke-miterlimit="10"/>
<path d="M142.099 127.49L139.665 125.596" stroke="#263238" stroke-width="0.34" stroke-linecap="round" stroke-linejoin="round"/>
<path d="M143.354 117.133L141.552 114.784" stroke="#263238" stroke-width="0.34" stroke-linecap="round" stroke-linejoin="round"/>
<path d="M142.1 115.488C142.13 115.161 142.09 114.831 141.982 114.521C141.874 114.211 141.701 113.927 141.474 113.689C141.002 113.169 138.39 111.734 138.03 112.669C137.639 113.689 140.22 116.039 142.1 115.488Z" fill="#599BFE" stroke="#263238" stroke-width="0.34" stroke-miterlimit="10"/>
<path d="M142.099 115.488L139.665 113.594" stroke="#263238" stroke-width="0.34" stroke-linecap="round" stroke-linejoin="round"/>
<path d="M143.235 108.314L141.552 106.794" stroke="#263238" stroke-width="0.34" stroke-linecap="round" stroke-linejoin="round"/>
<path d="M142.1 107.501C142.13 107.173 142.09 106.843 141.982 106.532C141.874 106.222 141.701 105.938 141.474 105.699C141.002 105.179 138.39 103.744 138.03 104.679C137.639 105.699 140.22 108.048 142.1 107.501Z" fill="#599BFE" stroke="#263238" stroke-width="0.34" stroke-miterlimit="10"/>
<path d="M142.099 107.501L139.665 105.607" stroke="#263238" stroke-width="0.34" stroke-linecap="round" stroke-linejoin="round"/>
<path d="M143.334 100.32L141.586 99.0386" stroke="#263238" stroke-width="0.34" stroke-linecap="round" stroke-linejoin="round"/>
<path d="M142.1 99.4737C142.13 99.1467 142.09 98.8169 141.982 98.5067C141.874 98.1965 141.701 97.9129 141.474 97.6751C141.002 97.1549 138.39 95.7201 138.03 96.6551C137.639 97.6751 140.22 100.025 142.1 99.4737Z" fill="#599BFE" stroke="#263238" stroke-width="0.34" stroke-miterlimit="10"/>
<path d="M142.099 99.4737L139.665 97.5833" stroke="#263238" stroke-width="0.34" stroke-linecap="round" stroke-linejoin="round"/>
<path d="M143.663 141.974L145.115 140.128" stroke="#263238" stroke-width="0.34" stroke-linecap="round" stroke-linejoin="round"/>
<path d="M144.564 140.835C144.534 140.507 144.575 140.176 144.683 139.866C144.792 139.555 144.966 139.271 145.193 139.033C145.663 138.516 148.277 137.078 148.638 138.013C149.029 139.033 146.445 141.382 144.564 140.835Z" fill="#599BFE" stroke="#263238" stroke-width="0.34" stroke-miterlimit="10"/>
<path d="M144.564 140.835L147.142 138.839" stroke="#263238" stroke-width="0.34" stroke-linecap="round" stroke-linejoin="round"/>
<path d="M143.313 126.221L145.115 123.872" stroke="#263238" stroke-width="0.34" stroke-linecap="round" stroke-linejoin="round"/>
<path d="M144.564 124.576C144.534 124.248 144.575 123.918 144.683 123.607C144.792 123.296 144.966 123.012 145.193 122.774C145.662 122.257 148.277 120.822 148.637 121.754C149.028 122.774 146.444 125.12 144.564 124.576Z" fill="#599BFE" stroke="#263238" stroke-width="0.34" stroke-miterlimit="10"/>
<path d="M144.564 124.576L147.142 122.58" stroke="#263238" stroke-width="0.34" stroke-linecap="round" stroke-linejoin="round"/>
<path d="M143.313 118.198L145.115 115.848" stroke="#263238" stroke-width="0.34" stroke-linecap="round" stroke-linejoin="round"/>
<path d="M144.564 116.552C144.534 116.224 144.575 115.894 144.683 115.583C144.792 115.272 144.966 114.988 145.193 114.75C145.662 114.233 148.277 112.798 148.637 113.73C149.028 114.75 146.444 117.099 144.564 116.552Z" fill="#599BFE" stroke="#263238" stroke-width="0.34" stroke-miterlimit="10"/>
<path d="M144.564 116.552L147.142 114.556" stroke="#263238" stroke-width="0.34" stroke-linecap="round" stroke-linejoin="round"/>
<path d="M143.313 107.59L145.115 105.24" stroke="#263238" stroke-width="0.34" stroke-linecap="round" stroke-linejoin="round"/>
<path d="M144.564 105.947C144.534 105.62 144.575 105.289 144.683 104.978C144.792 104.667 144.966 104.383 145.193 104.145C145.663 103.629 148.277 102.19 148.638 103.125C149.029 104.145 146.445 106.495 144.564 105.947Z" fill="#599BFE" stroke="#263238" stroke-width="0.34" stroke-miterlimit="10"/>
<path d="M144.564 105.947L147.142 103.952" stroke="#263238" stroke-width="0.34" stroke-linecap="round" stroke-linejoin="round"/>
<path d="M143.392 98.4368L145.156 97.0598" stroke="#263238" stroke-width="0.34" stroke-linecap="round" stroke-linejoin="round"/>
<path d="M144.564 97.6073C144.534 97.2799 144.575 96.9499 144.683 96.6396C144.792 96.3293 144.966 96.0459 145.193 95.8087C145.663 95.2885 148.277 93.8537 148.638 94.7887C149.029 95.8087 146.445 98.1547 144.564 97.6073Z" fill="#599BFE" stroke="#263238" stroke-width="0.34" stroke-miterlimit="10"/>
<path d="M144.564 97.6071L147.142 95.6113" stroke="#263238" stroke-width="0.34" stroke-linecap="round" stroke-linejoin="round"/>
<path d="M143.204 93.9115C143.174 93.5839 143.214 93.2536 143.322 92.9428C143.43 92.632 143.603 92.3479 143.83 92.1095C144.302 91.5893 146.917 90.1545 147.277 91.0895C147.668 92.1095 145.084 94.4589 143.204 93.9115Z" fill="#599BFE" stroke="#263238" stroke-width="0.34" stroke-miterlimit="10"/>
<path d="M143.204 93.9113L145.781 91.9155" stroke="#263238" stroke-width="0.34" stroke-linecap="round" stroke-linejoin="round"/>
<path d="M143.33 94.0202C143.001 94.0159 142.677 93.9411 142.38 93.8009C142.082 93.6608 141.818 93.4584 141.606 93.2076C141.14 92.6874 139.984 89.9368 140.953 89.675C142.007 89.3928 144.071 92.208 143.33 94.0202Z" fill="#599BFE" stroke="#263238" stroke-width="0.34" stroke-miterlimit="10"/>
<path d="M143.33 94.0203L141.616 91.2493" stroke="#263238" stroke-width="0.34" stroke-linecap="round" stroke-linejoin="round"/>
<path d="M145.547 161.643H139.787L139.066 147.094H146.268L145.547 161.643Z" fill="#263238" stroke="#263238" stroke-width="0.34" stroke-linecap="round" stroke-linejoin="round"/>
</svg>
