<svg width="276" height="250" viewBox="0 0 276 250" fill="none" xmlns="http://www.w3.org/2000/svg">
<mask id="mask0_443_28076" style="mask-type:luminance" maskUnits="userSpaceOnUse" x="0" y="0" width="276" height="250">
<path d="M0.515625 0H275.846V250H0.515625V0Z" fill="white"/>
</mask>
<g mask="url(#mask0_443_28076)">
<path d="M249.242 138.452C246.855 158.66 237.628 182.156 219.2 192.95C191.357 209.261 193.688 234.349 139.341 245.256C130.868 246.958 122.827 247.674 115.245 247.532C111.168 247.457 107.223 247.128 103.418 246.568C68.8771 241.522 45.6331 217.513 37.1056 188.532C25.8832 150.416 48.2912 125.462 63.1442 110.427C77.9966 95.3922 88.8749 48.5459 142.217 37.4043C150.351 35.7089 158.668 34.8438 166.983 35.0514C185.961 35.5172 206.663 41.749 220.986 54.7568C222.062 55.7342 223.108 56.7474 224.128 57.7915C244.037 78.2265 252.496 110.903 249.242 138.452Z" fill="#599BFE"/>
<mask id="mask1_443_28076" style="mask-type:luminance" maskUnits="userSpaceOnUse" x="34" y="35" width="216" height="213">
<path d="M34.0684 35.0213H249.92V247.55H34.0684V35.0213Z" fill="white"/>
</mask>
<g mask="url(#mask1_443_28076)">
<g opacity="0.699997">
<path d="M249.242 138.452C246.855 158.66 237.628 182.156 219.2 192.95C191.357 209.261 193.688 234.349 139.341 245.256C130.868 246.958 122.827 247.674 115.245 247.532C111.168 247.457 107.223 247.128 103.418 246.568C68.8771 241.522 45.6331 217.513 37.1056 188.532C25.8832 150.416 48.2912 125.462 63.1442 110.427C77.9966 95.3922 88.8749 48.5459 142.217 37.4043C150.351 35.7089 158.668 34.8438 166.983 35.0514C185.961 35.5172 206.663 41.749 220.986 54.7568C222.062 55.7342 223.108 56.7474 224.128 57.7915C244.037 78.2265 252.496 110.903 249.242 138.452Z" fill="white"/>
</g>
</g>
</g>
<mask id="mask2_443_28076" style="mask-type:luminance" maskUnits="userSpaceOnUse" x="0" y="0" width="276" height="250">
<path d="M0.515625 0H275.846V250H0.515625V0Z" fill="white"/>
</mask>
<g mask="url(#mask2_443_28076)">
<mask id="mask3_443_28076" style="mask-type:luminance" maskUnits="userSpaceOnUse" x="78" y="11" width="109" height="125">
<path d="M78.4629 11.0365H186.124V135.464H78.4629V11.0365Z" fill="white"/>
</mask>
<g mask="url(#mask3_443_28076)">
<g opacity="0.149994">
<path d="M177.881 40.1319C175.27 41.9425 168.254 43.1622 168.248 43.1633C168.175 43.176 168.848 38.2944 168.925 37.9909C169.826 34.4821 173.63 28.2321 177.679 27.9871C180.596 27.8114 182.737 30.3434 182.623 33.1451C182.506 36.0069 180.103 38.589 177.881 40.1319Z" fill="black"/>
<path d="M158.533 128.427C158.536 128.593 158.542 128.747 158.545 128.911L156.136 130.467C156.131 129.809 156.128 129.14 156.13 128.451C156.127 126.499 156.165 124.414 156.224 122.272C155.722 122.179 152.873 121.632 150.277 120.786C148.674 123.394 143.963 127.005 143.353 127.466C144.407 129.074 145.448 130.626 146.455 132.075C147.146 133.075 147.817 134.029 148.47 134.944L145.828 135.464C145.381 134.801 144.928 134.127 144.463 133.421C143.385 131.794 142.265 130.033 141.134 128.216C140.415 128.52 134.535 130.971 131.553 130.89C128.849 130.815 125.424 129.969 123.76 127.637C122.131 125.356 122.538 122.065 125.076 120.616C128.599 118.605 135.203 121.754 137.876 124.198C138.034 124.341 139.571 126.097 140.522 127.221C140.064 126.475 139.61 125.757 139.147 124.983C138.221 123.461 137.343 121.914 136.391 120.254C135.959 119.436 135.523 118.609 135.083 117.775C134.629 116.956 134.254 116.035 133.831 115.158C132.893 113.104 132.043 110.978 131.234 108.818C129.898 109.624 125.115 112.423 122.419 112.76C119.734 113.097 116.221 112.779 114.223 110.726C112.267 108.717 112.17 105.402 114.46 103.586C117.637 101.064 124.642 103.177 127.656 105.188C127.843 105.312 129.843 106.998 130.924 107.945C130.448 106.643 129.966 105.345 129.527 104.011C128.259 100.161 127.096 96.2251 125.918 92.3033C125.557 91.1018 125.184 89.9096 124.815 88.7136C124.342 89.0065 118.73 92.4559 115.709 92.8336C113.024 93.1706 109.511 92.8523 107.513 90.7995C105.558 88.7912 105.461 85.4762 107.75 83.6596C110.928 81.1381 117.932 83.2505 120.945 85.2609C121.172 85.4124 124.047 87.8419 124.748 88.4961C123.933 85.8628 123.098 83.2472 122.169 80.702C120.893 77.1888 119.446 73.8116 117.803 70.6431C117.583 70.7802 111.741 74.4063 108.647 74.794C105.963 75.1299 102.449 74.8121 100.452 72.7598C98.4959 70.7505 98.399 67.4366 100.689 65.6194C103.866 63.0974 110.87 65.2108 113.884 67.2207C114.12 67.3788 117.211 69.9944 117.738 70.5087C117.64 70.3209 117.559 70.1144 117.458 69.9283C115.661 66.5682 113.498 63.5395 111.334 60.8028C110.079 59.2103 108.791 57.7582 107.506 56.3732C106.487 57.1607 101.792 60.7059 99.046 61.3622C96.4144 61.9911 92.8868 62.061 90.6765 60.24C88.5118 58.458 88.0515 55.1745 90.1269 53.1172C93.0091 50.2615 100.203 51.5924 103.419 53.2598C103.593 53.3501 105.269 54.4691 106.478 55.3011C105.888 54.6844 105.292 54.0379 104.716 53.4592C102.556 51.2796 100.445 49.4178 98.5614 47.7835C97.4832 46.8628 96.4904 46.0517 95.5515 45.3022C94.1501 45.5533 88.4843 46.4927 85.7943 45.822C83.1693 45.1673 80.0063 43.6045 78.8824 40.9702C77.7833 38.3903 78.888 35.2637 81.6782 34.3953C85.5509 33.1882 91.323 37.6844 93.4089 40.6464C93.5889 40.9024 95.9485 45.2295 95.8753 45.2433C95.8753 45.2433 95.807 45.2554 95.7905 45.2587C96.7079 45.9614 97.682 46.7251 98.7299 47.5819C100.653 49.1778 102.811 50.9994 105.026 53.1403C107.245 55.2736 109.596 57.6541 111.846 60.3848C114.105 63.1188 116.341 66.1106 118.247 69.4911C118.268 69.5291 118.286 69.572 118.308 69.61C118.057 68.4481 117.465 65.1761 117.449 64.9201C117.211 61.3055 118.875 54.1805 122.647 52.6855C125.363 51.6089 128.187 53.3463 128.952 56.0445C129.733 58.8 128.256 62.0021 126.625 64.1612C124.785 66.5957 118.968 69.7488 118.505 69.9994C120.29 73.235 121.859 76.7003 123.255 80.2945C124.055 82.3496 124.796 84.4432 125.513 86.5528C125.329 85.5407 125.172 84.6348 125.164 84.506C124.926 80.8909 126.59 73.7675 130.361 72.2719C133.078 71.1943 135.902 72.9333 136.667 75.631C137.448 78.3859 135.971 81.5886 134.339 83.7477C132.685 85.9377 127.779 88.7262 126.472 89.4459C126.738 90.2582 127.013 91.0665 127.277 91.8793C128.542 95.7791 129.787 99.6767 131.126 103.462C131.597 104.797 132.109 106.093 132.618 107.392C132.456 106.494 132.326 105.736 132.319 105.618C132.081 102.003 133.745 94.8793 137.515 93.3837C140.233 92.3072 143.056 94.0451 143.822 96.7433C144.604 99.4972 143.125 102.701 141.494 104.859C139.915 106.95 135.41 109.564 133.86 110.427C134.421 111.743 134.98 113.06 135.583 114.309C136.015 115.153 136.37 115.994 136.85 116.818C137.309 117.642 137.762 118.459 138.211 119.268C139.133 120.793 140.075 122.373 141.011 123.838C141.654 124.862 142.288 125.826 142.921 126.799C142.437 125.477 141.543 122.868 141.493 122.641C140.973 120.292 141.055 116.288 142.192 113.261C142.113 112.915 142.064 112.563 142.051 112.206C141.952 109.404 144.107 106.883 147.023 107.075C151.071 107.341 154.841 113.611 155.723 117.124C155.775 117.332 156.089 119.643 156.262 121.105C156.292 120.23 156.309 119.381 156.349 118.481C156.418 116.7 156.538 114.926 156.659 113.015C156.751 112.095 156.844 111.165 156.937 110.226C157.01 109.293 157.205 108.317 157.336 107.353C157.687 105.123 158.151 102.88 158.668 100.632C157.108 100.568 151.576 100.264 149.14 99.0577C146.716 97.8573 143.961 95.653 143.426 92.8402C142.904 90.0853 144.651 87.267 147.562 87.0148C151.604 86.664 156.281 92.2907 157.685 95.6299C157.773 95.8386 158.511 98.3474 158.89 99.7339C159.212 98.3848 159.526 97.0357 159.896 95.6816C160.962 91.7708 162.162 87.8457 163.343 83.9256C163.706 82.7246 164.052 81.5241 164.404 80.3231C163.849 80.3061 157.264 80.0869 154.536 78.7361C152.111 77.5357 149.357 75.332 148.823 72.5181C148.3 69.7637 150.047 66.9454 152.959 66.6937C157.001 66.343 161.677 71.9691 163.082 75.3083C163.187 75.5599 164.245 79.1717 164.468 80.1034C165.241 77.4592 165.988 74.8165 166.618 72.1805C167.491 68.5462 168.148 64.9316 168.524 61.3832C168.266 61.3755 161.393 61.1772 158.598 59.794C156.174 58.593 153.419 56.3898 152.885 53.5759C152.362 50.8209 154.109 48.0038 157.022 47.751C161.063 47.4002 165.74 53.0269 167.144 56.3661C167.254 56.6282 168.389 60.5153 168.544 61.2339C168.567 61.023 168.613 60.8072 168.632 60.5968C168.986 56.8022 168.853 53.0825 168.558 49.6056C168.39 47.5858 168.116 45.6645 167.809 43.8006C166.525 43.8947 160.652 44.2615 158 43.294C155.458 42.3666 152.478 40.479 151.638 37.7416C150.816 35.0605 152.244 32.0676 155.109 31.4972C159.088 30.7048 164.355 35.784 166.117 38.9481C166.213 39.1205 166.994 40.9779 167.543 42.3391C167.391 41.4999 167.251 40.631 167.089 39.8303C166.49 36.822 165.757 34.1034 165.087 31.7009C164.696 30.338 164.314 29.1133 163.945 27.9718C162.637 27.4068 157.394 25.0649 155.52 23.0214C153.691 21.0274 151.917 17.9795 152.433 15.1629C152.939 12.4041 155.585 10.4063 158.391 11.2202C162.287 12.3507 164.62 19.2851 164.728 22.9063C164.735 23.2185 164.316 28.1288 164.248 28.1012C164.248 28.1012 164.184 28.0731 164.169 28.0665C164.547 29.1579 164.937 30.3336 165.339 31.6254C166.062 34.0181 166.857 36.7273 167.523 39.735C168.197 42.7389 168.845 46.0214 169.215 49.5401C169.591 53.0665 169.806 56.7956 169.531 60.6662C169.527 60.7103 169.518 60.7554 169.515 60.7989C169.947 59.6921 171.26 56.6365 171.387 56.4135C173.183 53.267 178.501 48.2438 182.471 49.0764C185.331 49.6778 186.728 52.6849 185.877 55.3573C185.009 58.0864 182.01 59.9421 179.459 60.843C176.581 61.8589 169.99 61.2807 169.466 61.2317C169.169 64.9162 168.567 68.6728 167.747 72.4404C167.282 74.5952 166.744 76.7505 166.179 78.9052C166.584 77.9603 166.953 77.1177 167.016 77.0054C168.812 73.8589 174.131 68.8353 178.1 69.6695C180.961 70.2692 182.357 73.2769 181.507 75.9487C180.64 78.6778 177.639 80.5346 175.088 81.4349C172.499 82.3496 166.87 81.9685 165.382 81.8479C165.156 82.6723 164.94 83.4977 164.711 84.3209C163.615 88.2719 162.504 92.2097 161.532 96.1056C161.189 97.4779 160.901 98.8424 160.608 100.207C160.968 99.3677 161.279 98.664 161.337 98.561C163.133 95.4151 168.451 90.3914 172.421 91.2246C175.282 91.8253 176.678 94.8325 175.828 97.5043C174.959 100.234 171.96 102.09 169.408 102.991C166.938 103.863 161.739 103.558 159.97 103.423C159.712 104.83 159.452 106.238 159.266 107.612C159.16 108.553 158.991 109.451 158.939 110.402C158.865 111.344 158.794 112.275 158.722 113.197C158.649 114.977 158.564 116.815 158.537 118.554C158.509 119.763 158.504 120.916 158.496 122.078C158.821 120.708 159.516 118.038 159.599 117.821C160.896 114.44 165.393 108.669 169.444 108.89C172.362 109.051 174.197 111.812 173.761 114.582C173.317 117.411 170.634 119.701 168.249 120.977C165.622 122.383 159.28 122.822 158.487 122.872C158.481 124.793 158.493 126.663 158.533 128.427Z" fill="black"/>
<path d="M107.521 55.6002C107.467 55.6508 105.335 51.207 105.232 50.9118C104.048 47.4889 103.773 40.1778 107.015 37.7389C109.351 35.9829 112.533 36.914 113.983 39.3144C115.465 41.7648 114.886 45.2444 113.882 47.7576C112.705 50.7075 107.524 55.5958 107.521 55.6002Z" fill="black"/>
</g>
</g>
<mask id="mask4_443_28076" style="mask-type:luminance" maskUnits="userSpaceOnUse" x="30" y="136" width="65" height="59">
<path d="M30.3301 136.774H94.0931V194.865H30.3301V136.774Z" fill="white"/>
</mask>
<g mask="url(#mask4_443_28076)">
<g opacity="0.149994">
<path d="M70.9615 142.172C70.5121 143.747 68.1123 146.528 68.1101 146.53C68.0854 146.558 66.7583 144.392 66.69 144.246C65.902 142.551 65.3761 138.815 66.9114 137.394C68.0171 136.371 69.6988 136.68 70.5694 137.835C71.4582 139.015 71.3436 140.83 70.9615 142.172Z" fill="black"/>
<path d="M92.1054 183.713C92.161 183.778 92.2133 183.838 92.2684 183.902L91.8163 185.309C91.5993 185.049 91.3796 184.783 91.1544 184.507C90.5162 183.73 89.8493 182.886 89.1726 182.012C88.9418 182.14 87.6269 182.853 86.3146 183.364C86.5283 184.928 85.8295 187.908 85.7364 188.291C86.6825 188.588 87.6054 188.866 88.4804 189.116C89.0828 189.288 89.6621 189.45 90.2221 189.601L89.3389 190.672C88.9429 190.554 88.5421 190.432 88.1258 190.304C87.1643 190.007 86.1423 189.67 85.0966 189.316C84.9099 189.671 83.3653 192.572 82.1494 193.514C81.0465 194.368 79.4038 195.15 77.9782 194.763C76.5828 194.386 75.6687 192.941 76.2078 191.533C76.9556 189.579 80.6186 188.677 82.4842 188.777C82.5944 188.783 83.781 188.981 84.5272 189.118C84.101 188.971 83.6847 188.833 83.248 188.676C82.3807 188.371 81.525 188.041 80.6021 187.69C80.1632 187.505 79.7188 187.318 79.2706 187.129C78.8218 186.951 78.3708 186.706 77.9154 186.495C76.8703 185.982 75.8361 185.412 74.8075 184.815C74.5388 185.573 73.5459 188.252 72.5801 189.268C71.6192 190.28 70.1142 191.301 68.6467 191.136C67.21 190.974 66.0872 189.684 66.4072 188.211C66.8499 186.166 70.3345 184.719 72.1935 184.536C72.3091 184.525 73.6583 184.544 74.3989 184.568C73.7833 184.204 73.1665 183.844 72.5558 183.455C70.7915 182.334 69.041 181.144 67.2893 179.966C66.7524 179.604 66.2139 179.25 65.6759 178.894C65.5828 179.165 64.4721 182.375 63.3906 183.514C62.4297 184.526 60.9242 185.547 59.4567 185.381C58.0206 185.219 56.8978 183.929 57.2177 182.456C57.6605 180.412 61.145 178.965 63.0041 178.782C63.1439 178.768 65.0845 178.798 65.5779 178.83C64.3923 178.045 63.2045 177.276 62.0019 176.564C60.3444 175.579 58.6638 174.706 56.9727 173.979C56.9297 174.105 55.7849 177.461 54.6775 178.627C53.7166 179.638 52.2111 180.66 50.7442 180.494C49.3069 180.332 48.1852 179.043 48.5041 177.569C48.9474 175.524 52.4319 174.078 54.291 173.894C54.4363 173.881 56.5244 173.913 56.9027 173.946C56.802 173.904 56.7023 173.848 56.6015 173.806C54.7866 173.054 52.9336 172.552 51.1759 172.168C50.155 171.943 49.166 171.785 48.2018 171.653C48.0525 172.3 47.3383 175.249 46.4578 176.408C45.6137 177.519 44.2298 178.7 42.753 178.696C41.3069 178.693 40.0498 177.534 40.2056 176.035C40.4215 173.953 43.726 172.133 45.5536 171.747C45.6528 171.726 46.6869 171.625 47.4407 171.561C47.0041 171.508 46.5547 171.445 46.1362 171.403C44.5624 171.239 43.1115 171.187 41.8257 171.151C41.0949 171.136 40.4336 171.137 39.8146 171.144C39.3372 171.703 37.3846 173.929 36.0927 174.542C34.8317 175.138 33.0591 175.549 31.7502 174.865C30.4683 174.196 29.8868 172.588 30.7161 171.33C31.8659 169.582 35.6379 169.489 37.438 169.988C37.5933 170.031 39.949 170.986 39.9242 171.015C39.9242 171.015 39.9011 171.043 39.8956 171.049C40.4909 171.029 41.1291 171.016 41.8273 171.015C43.1164 171.023 44.5718 171.044 46.155 171.174C47.7376 171.3 49.4534 171.48 51.2436 171.834C53.0382 172.186 54.9077 172.649 56.7728 173.374C56.7943 173.382 56.8152 173.393 56.8361 173.402C56.3565 173.02 55.0509 171.908 54.9606 171.812C53.6841 170.448 52.0189 167.062 53.0344 165.233C53.7662 163.915 55.4606 163.686 56.6478 164.512C57.8598 165.355 58.3174 167.115 58.3725 168.51C58.4347 170.082 57.145 173.241 57.0421 173.492C58.8119 174.2 60.5701 175.069 62.3014 176.046C63.2926 176.604 64.2728 177.197 65.248 177.804C64.8438 177.461 64.4848 177.151 64.4396 177.102C63.1632 175.738 61.4986 172.353 62.514 170.523C63.2453 169.205 64.9396 168.976 66.1269 169.802C67.3389 170.646 67.7965 172.406 67.8515 173.8C67.9072 175.214 66.8625 177.93 66.5762 178.645C66.9479 178.882 67.3218 179.114 67.6929 179.352C69.4721 180.494 71.2425 181.642 73.014 182.714C73.6379 183.092 74.2662 183.442 74.8934 183.793C74.5349 183.489 74.2359 183.228 74.194 183.184C72.9176 181.82 71.253 178.434 72.2678 176.605C73.0002 175.288 74.694 175.058 75.8813 175.884C77.0933 176.727 77.5509 178.488 77.6059 179.882C77.6594 181.232 76.7172 183.747 76.3813 184.598C77.0349 184.94 77.6885 185.282 78.3372 185.583C78.7849 185.778 79.2018 185.997 79.6627 186.169C80.1147 186.348 80.5624 186.526 81.0057 186.702C81.8725 187.008 82.764 187.331 83.6164 187.61C84.2084 187.808 84.7755 187.985 85.3466 188.167C84.721 187.797 83.5118 187.049 83.4182 186.975C82.4424 186.207 81.1665 184.584 80.6302 183.005C80.4853 182.892 80.351 182.768 80.2298 182.63C79.2744 181.545 79.3097 179.836 80.5355 178.958C82.237 177.741 85.7904 179.01 87.2899 180.122C87.3791 180.189 88.2596 181.008 88.8064 181.534C88.5321 181.176 88.2612 180.832 87.9831 180.459C87.4286 179.727 86.8967 178.979 86.3201 178.178C86.0558 177.781 85.7893 177.38 85.5195 176.975C85.2436 176.579 85.0024 176.126 84.7397 175.698C84.1505 174.695 83.6026 173.648 83.074 172.582C82.4308 173.067 80.1247 174.754 78.759 175.069C77.3994 175.382 75.5806 175.404 74.4479 174.456C73.3389 173.528 73.1148 171.833 74.1935 170.781C75.6907 169.32 79.395 170.035 81.047 170.908C81.15 170.963 82.2645 171.723 82.8692 172.151C82.5564 171.508 82.2408 170.868 81.9457 170.207C81.0922 168.299 80.2882 166.341 79.4776 164.391C79.2298 163.793 78.976 163.201 78.7238 162.607C78.4964 162.782 75.7987 164.847 74.2689 165.2C72.9099 165.513 71.0905 165.535 69.9578 164.587C68.8493 163.659 68.6247 161.964 69.7034 160.912C71.2012 159.451 74.9055 160.167 76.5569 161.039C76.6814 161.105 78.2832 162.201 78.6775 162.499C78.1214 161.191 77.5553 159.893 76.9446 158.636C76.1054 156.901 75.1858 155.245 74.1759 153.706C74.0701 153.788 71.264 155.955 69.6974 156.317C68.3378 156.63 66.5189 156.652 65.3868 155.705C64.2772 154.776 64.0531 153.082 65.1324 152.029C66.6296 150.568 70.3339 151.283 71.9853 152.156C72.1153 152.225 73.8389 153.404 74.1351 153.64C74.0751 153.549 74.0233 153.447 73.9622 153.357C72.8625 151.728 71.5938 150.288 70.34 148.998C69.6125 148.247 68.8752 147.57 68.1434 146.927C67.6621 147.385 65.4396 149.45 64.0657 149.931C62.7486 150.392 60.9429 150.614 59.7133 149.796C58.509 148.996 58.0999 147.335 59.0569 146.171C60.3846 144.555 64.1456 144.859 65.8824 145.545C65.9771 145.582 66.8961 146.068 67.5597 146.431C67.2249 146.146 66.8846 145.845 66.5586 145.579C65.3361 144.575 64.1549 143.73 63.1032 142.991C62.5013 142.575 61.949 142.212 61.4286 141.877C60.7221 142.079 57.8653 142.859 56.4501 142.656C55.069 142.459 53.3648 141.823 52.65 140.531C51.9501 139.265 52.3526 137.604 53.7376 137.011C55.661 136.188 58.8587 138.191 60.085 139.601C60.1902 139.723 61.628 141.818 61.5916 141.829C61.5916 141.829 61.5569 141.839 61.5487 141.842C62.0558 142.153 62.5966 142.494 63.1786 142.879C64.2491 143.596 65.4518 144.417 66.7007 145.399C67.9512 146.376 69.2827 147.474 70.5806 148.757C71.8829 150.041 73.188 151.458 74.3433 153.092C74.3559 153.11 74.3675 153.131 74.3802 153.149C74.1907 152.566 73.7155 150.919 73.6929 150.788C73.3813 148.946 73.8603 145.205 75.7161 144.239C77.0536 143.544 78.5933 144.287 79.128 145.631C79.6731 147.003 79.0839 148.724 78.3609 149.917C77.5448 151.262 74.7271 153.186 74.5019 153.338C75.5878 154.905 76.5756 156.6 77.4804 158.371C77.9986 159.382 78.4892 160.417 78.9683 161.462C78.8207 160.952 78.6924 160.496 78.6808 160.43C78.3686 158.588 78.8482 154.846 80.704 153.881C82.0415 153.185 83.5806 153.929 84.1153 155.272C84.6616 156.644 84.0718 158.366 83.3482 159.559C82.6147 160.769 80.2453 162.457 79.612 162.896C79.7915 163.299 79.9749 163.698 80.1527 164.102C81.0068 166.035 81.8504 167.969 82.7364 169.841C83.0481 170.501 83.3796 171.138 83.7089 171.778C83.5784 171.326 83.4721 170.944 83.4617 170.884C83.1494 169.042 83.6285 165.3 85.4848 164.335C86.8218 163.639 88.3614 164.382 88.8961 165.726C89.4418 167.098 88.8521 168.819 88.1291 170.012C87.4286 171.168 85.2557 172.746 84.5057 173.27C84.8625 173.915 85.2188 174.562 85.5938 175.17C85.8592 175.581 86.0861 175.994 86.3758 176.391C86.6538 176.79 86.9297 177.185 87.2029 177.576C87.7557 178.31 88.3218 179.071 88.8796 179.773C89.2634 180.265 89.639 180.727 90.0156 181.192C89.6973 180.539 89.1015 179.248 89.0641 179.134C88.476 177.361 88.3835 173.589 90.0712 172.354C91.2877 171.464 92.922 171.966 93.6538 173.213C94.4011 174.486 94.0795 176.277 93.5454 177.566C92.9567 178.985 90.5712 181.233 90.2711 181.512C90.8967 182.28 91.5129 183.022 92.1054 183.713Z" fill="black"/>
<path d="M47.9544 171.34C47.9494 171.377 45.6466 170.302 45.5095 170.218C43.9181 169.239 41.4181 166.413 41.9148 164.381C42.2721 162.917 43.8459 162.248 45.2088 162.732C46.6003 163.225 47.5073 164.802 47.928 166.132C48.423 167.694 47.9544 171.337 47.9544 171.34Z" fill="black"/>
</g>
</g>
<mask id="mask5_443_28076" style="mask-type:luminance" maskUnits="userSpaceOnUse" x="182" y="136" width="64" height="59">
<path d="M182.18 136.774H245.943V194.865H182.18V136.774Z" fill="white"/>
</mask>
<g mask="url(#mask5_443_28076)">
<g opacity="0.149994">
<path d="M205.311 142.172C205.761 143.747 208.161 146.528 208.163 146.53C208.188 146.558 209.515 144.392 209.583 144.246C210.371 142.551 210.897 138.815 209.361 137.394C208.256 136.371 206.574 136.68 205.704 137.835C204.815 139.015 204.93 140.83 205.311 142.172Z" fill="black"/>
<path d="M184.168 183.713C184.112 183.778 184.06 183.838 184.005 183.902L184.456 185.309C184.674 185.049 184.894 184.783 185.119 184.507C185.757 183.73 186.424 182.886 187.1 182.012C187.331 182.14 188.646 182.853 189.959 183.364C189.745 184.928 190.443 187.908 190.536 188.291C189.591 188.588 188.668 188.866 187.792 189.116C187.19 189.288 186.611 189.45 186.051 189.601L186.934 190.672C187.33 190.554 187.731 190.432 188.147 190.304C189.109 190.007 190.131 189.67 191.177 189.316C191.363 189.671 192.907 192.572 194.123 193.514C195.226 194.368 196.869 195.15 198.295 194.763C199.69 194.386 200.604 192.941 200.065 191.533C199.318 189.579 195.654 188.677 193.789 188.777C193.678 188.783 192.492 188.981 191.745 189.118C192.172 188.971 192.588 188.833 193.025 188.676C193.892 188.371 194.748 188.041 195.671 187.69C196.11 187.505 196.554 187.318 197.003 187.129C197.451 186.951 197.902 186.706 198.357 186.495C199.403 185.982 200.437 185.412 201.466 184.815C201.734 185.573 202.727 188.252 203.693 189.268C204.654 190.28 206.159 191.301 207.627 191.136C209.063 190.974 210.185 189.684 209.866 188.211C209.423 186.166 205.938 184.719 204.079 184.536C203.964 184.525 202.615 184.544 201.874 184.568C202.49 184.204 203.107 183.844 203.717 183.455C205.481 182.334 207.232 181.144 208.984 179.966C209.52 179.604 210.059 179.25 210.597 178.894C210.69 179.165 211.801 182.375 212.883 183.514C213.843 184.526 215.348 185.547 216.816 185.381C218.252 185.219 219.375 183.929 219.055 182.456C218.612 180.412 215.128 178.965 213.269 178.782C213.129 178.768 211.188 178.798 210.695 178.83C211.88 178.045 213.069 177.276 214.271 176.564C215.928 175.579 217.609 174.706 219.301 173.979C219.343 174.105 220.488 177.461 221.595 178.627C222.557 179.638 224.062 180.66 225.529 180.494C226.966 180.332 228.088 179.043 227.769 177.569C227.325 175.524 223.841 174.078 221.982 173.894C221.836 173.881 219.748 173.913 219.37 173.946C219.471 173.904 219.57 173.848 219.672 173.806C221.487 173.054 223.34 172.552 225.097 172.168C226.118 171.943 227.107 171.785 228.071 171.653C228.221 172.3 228.935 175.249 229.815 176.408C230.66 177.519 232.043 178.7 233.52 178.696C234.966 178.693 236.223 177.534 236.068 176.035C235.851 173.953 232.547 172.133 230.72 171.747C230.62 171.726 229.586 171.625 228.832 171.561C229.269 171.508 229.718 171.445 230.137 171.403C231.711 171.239 233.162 171.187 234.448 171.151C235.178 171.136 235.839 171.137 236.459 171.144C236.935 171.703 238.888 173.929 240.18 174.542C241.441 175.138 243.214 175.549 244.522 174.865C245.805 174.196 246.386 172.588 245.557 171.33C244.407 169.582 240.635 169.489 238.835 169.988C238.679 170.031 236.324 170.986 236.349 171.015C236.349 171.015 236.372 171.043 236.378 171.049C235.782 171.029 235.144 171.016 234.446 171.015C233.157 171.023 231.701 171.044 230.118 171.174C228.535 171.3 226.82 171.48 225.03 171.834C223.234 172.186 221.365 172.649 219.5 173.374C219.479 173.382 219.458 173.393 219.437 173.402C219.917 173.02 221.222 171.908 221.312 171.812C222.589 170.448 224.254 167.062 223.238 165.233C222.506 163.915 220.813 163.686 219.625 164.512C218.413 165.355 217.955 167.115 217.901 168.51C217.839 170.082 219.128 173.241 219.231 173.492C217.461 174.2 215.703 175.069 213.971 176.046C212.981 176.604 212 177.197 211.025 177.804C211.429 177.461 211.788 177.151 211.833 177.102C213.11 175.738 214.775 172.353 213.759 170.523C213.027 169.205 211.333 168.976 210.146 169.802C208.934 170.646 208.477 172.406 208.421 173.8C208.366 175.214 209.411 177.93 209.696 178.645C209.325 178.882 208.951 179.114 208.58 179.352C206.801 180.494 205.031 181.642 203.259 182.714C202.635 183.092 202.007 183.442 201.379 183.793C201.738 183.489 202.037 183.228 202.079 183.184C203.356 181.82 205.02 178.434 204.005 176.605C203.273 175.288 201.579 175.058 200.391 175.884C199.18 176.727 198.722 178.488 198.667 179.882C198.613 181.232 199.555 183.747 199.892 184.598C199.238 184.94 198.585 185.282 197.935 185.583C197.488 185.778 197.071 185.997 196.611 186.169C196.158 186.348 195.711 186.526 195.267 186.702C194.401 187.008 193.509 187.331 192.656 187.61C192.065 187.808 191.497 187.985 190.926 188.167C191.552 187.797 192.761 187.049 192.855 186.975C193.83 186.207 195.106 184.584 195.642 183.005C195.788 182.892 195.922 182.768 196.043 182.63C196.999 181.545 196.964 179.836 195.738 178.958C194.036 177.741 190.483 179.01 188.983 180.122C188.894 180.189 188.014 181.008 187.466 181.534C187.741 181.176 188.011 180.832 188.29 180.459C188.845 179.727 189.377 178.979 189.953 178.178C190.217 177.781 190.484 177.38 190.753 176.975C191.029 176.579 191.27 176.126 191.533 175.698C192.122 174.695 192.671 173.648 193.199 172.582C193.842 173.067 196.148 174.754 197.514 175.069C198.873 175.382 200.693 175.404 201.825 174.456C202.934 173.528 203.158 171.833 202.079 170.781C200.582 169.32 196.878 170.035 195.226 170.908C195.123 170.963 194.008 171.723 193.404 172.151C193.717 171.508 194.032 170.868 194.328 170.207C195.18 168.299 195.984 166.341 196.795 164.391C197.043 163.793 197.297 163.201 197.549 162.607C197.776 162.782 200.475 164.847 202.004 165.2C203.363 165.513 205.183 165.535 206.315 164.587C207.424 163.659 207.649 161.964 206.57 160.912C205.072 159.451 201.368 160.167 199.716 161.039C199.592 161.105 197.989 162.201 197.596 162.499C198.152 161.191 198.718 159.893 199.328 158.636C200.168 156.901 201.087 155.245 202.097 153.706C202.203 153.788 205.009 155.955 206.575 156.317C207.935 156.63 209.754 156.652 210.886 155.705C211.995 154.776 212.22 153.082 211.14 152.029C209.644 150.568 205.939 151.283 204.287 152.156C204.158 152.225 202.434 153.404 202.138 153.64C202.198 153.549 202.25 153.447 202.31 153.357C203.41 151.728 204.679 150.288 205.933 148.998C206.661 148.247 207.398 147.57 208.13 146.927C208.611 147.385 210.834 149.45 212.207 149.931C213.525 150.392 215.33 150.614 216.559 149.796C217.764 148.996 218.173 147.335 217.216 146.171C215.888 144.555 212.127 144.859 210.39 145.545C210.296 145.582 209.377 146.068 208.713 146.431C209.048 146.146 209.388 145.845 209.715 145.579C210.937 144.575 212.118 143.73 213.17 142.991C213.772 142.575 214.324 142.212 214.845 141.877C215.551 142.079 218.408 142.859 219.823 142.656C221.204 142.459 222.908 141.823 223.623 140.531C224.323 139.265 223.921 137.604 222.536 137.011C220.612 136.188 217.415 138.191 216.188 139.601C216.083 139.723 214.645 141.818 214.682 141.829C214.682 141.829 214.716 141.839 214.724 141.842C214.217 142.153 213.677 142.494 213.094 142.879C212.024 143.596 210.821 144.417 209.572 145.399C208.321 146.376 206.99 147.474 205.693 148.757C204.39 150.041 203.085 151.458 201.93 153.092C201.917 153.11 201.906 153.131 201.892 153.149C202.082 152.566 202.558 150.919 202.58 150.788C202.892 148.946 202.413 145.205 200.557 144.239C199.22 143.544 197.679 144.287 197.145 145.631C196.6 147.003 197.189 148.724 197.912 149.917C198.728 151.262 201.546 153.186 201.771 153.338C200.685 154.905 199.697 156.6 198.793 158.371C198.274 159.382 197.784 160.417 197.304 161.462C197.453 160.952 197.58 160.496 197.592 160.43C197.904 158.588 197.424 154.846 195.569 153.881C194.232 153.185 192.692 153.929 192.158 155.272C191.612 156.644 192.201 158.366 192.924 159.559C193.658 160.769 196.028 162.457 196.661 162.896C196.481 163.299 196.298 163.698 196.12 164.102C195.266 166.035 194.422 167.969 193.537 169.841C193.225 170.501 192.894 171.138 192.564 171.778C192.695 171.326 192.801 170.944 192.811 170.884C193.124 169.042 192.645 165.3 190.788 164.335C189.451 163.639 187.911 164.382 187.377 165.726C186.831 167.098 187.421 168.819 188.144 170.012C188.844 171.168 191.017 172.746 191.767 173.27C191.41 173.915 191.054 174.562 190.679 175.17C190.414 175.581 190.187 175.994 189.897 176.391C189.619 176.79 189.343 177.185 189.07 177.576C188.517 178.31 187.951 179.071 187.393 179.773C187.009 180.265 186.634 180.727 186.258 181.192C186.576 180.539 187.171 179.248 187.209 179.134C187.797 177.361 187.89 173.589 186.201 172.354C184.985 171.464 183.351 171.966 182.619 173.213C181.872 174.486 182.194 176.277 182.728 177.566C183.316 178.985 185.701 181.233 186.002 181.512C185.376 182.28 184.76 183.022 184.168 183.713Z" fill="black"/>
<path d="M228.318 171.34C228.323 171.377 230.625 170.302 230.763 170.218C232.354 169.239 234.854 166.413 234.358 164.381C234 162.917 232.426 162.248 231.063 162.732C229.671 163.225 228.765 164.802 228.344 166.132C227.849 167.694 228.317 171.337 228.318 171.34Z" fill="black"/>
</g>
</g>
</g>
<path d="M180.747 151.948L144.264 136.655L175.04 62.7115L211.524 78.0034L180.747 151.948Z" fill="#D2D2D2"/>
<path d="M180.747 151.948L144.264 136.655L175.04 62.7115L211.524 78.0034L180.747 151.948Z" stroke="#1A2E35" stroke-width="0.550661" stroke-miterlimit="10" stroke-linecap="round" stroke-linejoin="round"/>
<mask id="mask6_443_28076" style="mask-type:luminance" maskUnits="userSpaceOnUse" x="0" y="0" width="276" height="250">
<path d="M0.515625 0H275.846V250H0.515625V0Z" fill="white"/>
</mask>
<g mask="url(#mask6_443_28076)">
<path d="M174.538 114.594C170.554 112.924 168.677 108.339 170.347 104.355C172.018 100.37 176.602 98.4935 180.586 100.164C184.571 101.834 186.447 106.418 184.777 110.403C183.107 114.387 178.523 116.264 174.538 114.594ZM204.198 85.5497C201.767 84.5304 200.623 81.7342 201.642 79.303C201.719 79.118 201.81 78.9434 201.907 78.7738L180.959 69.9941C180.907 70.1818 180.846 70.3691 180.768 70.5535C179.75 72.9847 176.953 74.1295 174.522 73.1108C174.43 73.0723 174.343 73.026 174.255 72.983L151.037 128.894C151.13 128.927 151.223 128.957 151.315 128.995C153.746 130.014 154.891 132.811 153.872 135.242C153.794 135.426 153.703 135.601 153.606 135.77L174.554 144.551C174.607 144.362 174.668 144.175 174.745 143.99C175.765 141.56 178.561 140.415 180.992 141.434C181.176 141.511 181.351 141.602 181.521 141.699L204.758 85.7408C204.57 85.6873 204.383 85.6268 204.198 85.5497Z" fill="white"/>
<path d="M174.538 114.594C170.554 112.924 168.677 108.339 170.347 104.355C172.018 100.37 176.602 98.4935 180.586 100.164C184.571 101.834 186.447 106.418 184.777 110.403C183.107 114.387 178.523 116.264 174.538 114.594ZM204.198 85.5497C201.767 84.5304 200.623 81.7342 201.642 79.303C201.719 79.118 201.81 78.9434 201.907 78.7738L180.959 69.9941C180.907 70.1818 180.846 70.3691 180.768 70.5535C179.75 72.9847 176.953 74.1295 174.522 73.1108C174.43 73.0723 174.343 73.026 174.255 72.983L151.037 128.894C151.13 128.927 151.223 128.957 151.315 128.995C153.746 130.014 154.891 132.811 153.872 135.242C153.794 135.426 153.703 135.601 153.606 135.77L174.554 144.551C174.607 144.362 174.668 144.175 174.745 143.99C175.765 141.56 178.561 140.415 180.992 141.434C181.176 141.511 181.351 141.602 181.521 141.699L204.758 85.7408C204.57 85.6873 204.383 85.6268 204.198 85.5497Z" stroke="#1A2E35" stroke-width="0.550661" stroke-miterlimit="10" stroke-linecap="round" stroke-linejoin="round"/>
<path d="M180.267 152.135L145.654 132.984L184.253 62.8052L218.867 81.9566L180.267 152.135Z" fill="#D2D2D2"/>
<path d="M180.267 152.135L145.654 132.984L184.253 62.8052L218.867 81.9566L180.267 152.135Z" stroke="#1A2E35" stroke-width="0.550661" stroke-miterlimit="10" stroke-linecap="round" stroke-linejoin="round"/>
<path d="M178.139 114.329C174.359 112.237 172.99 107.477 175.081 103.696C177.173 99.9158 181.933 98.5464 185.714 100.638C189.494 102.73 190.863 107.491 188.772 111.271C186.68 115.051 181.92 116.42 178.139 114.329ZM210.769 88.6658C208.463 87.3894 207.628 84.4858 208.904 82.1791C209.001 82.004 209.11 81.8399 209.225 81.6818L189.35 70.6862C189.278 70.8674 189.197 71.0469 189.1 71.222C187.824 73.5287 184.92 74.3635 182.613 73.0876C182.526 73.0392 182.445 72.9841 182.362 72.9318L153.229 126.002C153.317 126.044 153.406 126.083 153.494 126.132C155.8 127.408 156.635 130.312 155.36 132.618C155.263 132.794 155.153 132.958 155.039 133.116L174.912 144.111C174.985 143.93 175.066 143.751 175.163 143.576C176.439 141.269 179.344 140.434 181.65 141.71C181.825 141.807 181.988 141.916 182.146 142.031L211.305 88.9164C211.123 88.8432 210.944 88.7628 210.769 88.6658Z" fill="white"/>
<path d="M178.139 114.329C174.359 112.237 172.99 107.477 175.081 103.696C177.173 99.9158 181.933 98.5464 185.714 100.638C189.494 102.73 190.863 107.491 188.772 111.271C186.68 115.051 181.92 116.42 178.139 114.329ZM210.769 88.6658C208.463 87.3894 207.628 84.4858 208.904 82.1791C209.001 82.004 209.11 81.8399 209.225 81.6818L189.35 70.6862C189.278 70.8674 189.197 71.0469 189.1 71.222C187.824 73.5287 184.92 74.3635 182.613 73.0876C182.526 73.0392 182.445 72.9841 182.362 72.9318L153.229 126.002C153.317 126.044 153.406 126.083 153.494 126.132C155.8 127.408 156.635 130.312 155.36 132.618C155.263 132.794 155.153 132.958 155.039 133.116L174.912 144.111C174.985 143.93 175.066 143.751 175.163 143.576C176.439 141.269 179.344 140.434 181.65 141.71C181.825 141.807 181.988 141.916 182.146 142.031L211.305 88.9164C211.123 88.8432 210.944 88.7628 210.769 88.6658Z" stroke="#1A2E35" stroke-width="0.550661" stroke-miterlimit="10" stroke-linecap="round" stroke-linejoin="round"/>
<path d="M179.628 152.297L147.998 128.539L195.939 64.3786L227.569 88.1358L179.628 152.297Z" fill="#D2D2D2"/>
<path d="M179.628 152.297L147.998 128.539L195.939 64.3786L227.569 88.1358L179.628 152.297Z" stroke="#1A2E35" stroke-width="0.550661" stroke-miterlimit="10" stroke-linecap="round" stroke-linejoin="round"/>
<path d="M182.753 114.56C179.299 111.966 178.602 107.061 181.196 103.607C183.791 100.152 188.695 99.4551 192.15 102.05C195.604 104.645 196.302 109.549 193.707 113.003C191.112 116.458 186.207 117.155 182.753 114.56ZM218.621 93.66C216.514 92.0768 216.088 89.0851 217.671 86.9777C217.792 86.8175 217.922 86.6704 218.058 86.53L199.897 72.8891C199.799 73.0587 199.695 73.225 199.574 73.3852C197.992 75.4931 194.999 75.9182 192.892 74.3351C192.813 74.2751 192.74 74.2095 192.665 74.1457L156.467 122.673C156.549 122.728 156.632 122.779 156.711 122.839C158.819 124.422 159.244 127.413 157.662 129.521C157.541 129.681 157.411 129.828 157.275 129.968L175.436 143.61C175.533 143.44 175.638 143.274 175.758 143.114C177.341 141.006 180.332 140.581 182.44 142.163C182.601 142.284 182.748 142.415 182.888 142.55L219.117 93.9821C218.947 93.8852 218.781 93.7806 218.621 93.66Z" fill="white"/>
<path d="M182.753 114.56C179.299 111.966 178.602 107.061 181.196 103.607C183.791 100.152 188.695 99.4551 192.15 102.05C195.604 104.645 196.302 109.549 193.707 113.003C191.112 116.458 186.207 117.155 182.753 114.56ZM218.621 93.66C216.514 92.0768 216.088 89.0851 217.671 86.9777C217.792 86.8175 217.922 86.6704 218.058 86.53L199.897 72.8891C199.799 73.0587 199.695 73.225 199.574 73.3852C197.992 75.4931 194.999 75.9182 192.892 74.3351C192.813 74.2751 192.74 74.2095 192.665 74.1457L156.467 122.673C156.549 122.728 156.632 122.779 156.711 122.839C158.819 124.422 159.244 127.413 157.662 129.521C157.541 129.681 157.411 129.828 157.275 129.968L175.436 143.61C175.533 143.44 175.638 143.274 175.758 143.114C177.341 141.006 180.332 140.581 182.44 142.163C182.601 142.284 182.748 142.415 182.888 142.55L219.117 93.9821C218.947 93.8852 218.781 93.7806 218.621 93.66Z" stroke="#1A2E35" stroke-width="0.550661" stroke-miterlimit="10" stroke-linecap="round" stroke-linejoin="round"/>
<path d="M178.996 152.368L150.826 124.596L206.914 67.4199L235.083 95.192L178.996 152.368Z" fill="#D2D2D2"/>
<path d="M178.996 152.368L150.826 124.596L206.914 67.4199L235.083 95.192L178.996 152.368Z" stroke="#1A2E35" stroke-width="0.550661" stroke-miterlimit="10" stroke-linecap="round" stroke-linejoin="round"/>
<path d="M187.138 115.388C184.061 112.355 184.026 107.402 187.059 104.325C190.092 101.248 195.046 101.213 198.123 104.246C201.199 107.279 201.234 112.233 198.201 115.309C195.168 118.386 190.215 118.421 187.138 115.388ZM225.477 99.4705C223.601 97.6197 223.579 94.5983 225.43 92.7211C225.57 92.5784 225.72 92.4501 225.873 92.329L209.699 76.3829C209.579 76.5377 209.453 76.6886 209.313 76.8312C207.462 78.7084 204.44 78.7299 202.563 76.8791C202.493 76.8092 202.429 76.7348 202.363 76.6616L160.003 119.914C160.076 119.979 160.152 120.04 160.224 120.111C162.101 121.961 162.122 124.983 160.271 126.86C160.131 127.002 159.982 127.131 159.828 127.252L176.003 143.198C176.122 143.044 176.248 142.892 176.389 142.749C178.239 140.872 181.26 140.851 183.138 142.702C183.28 142.842 183.409 142.992 183.53 143.145L225.926 99.856C225.771 99.737 225.62 99.6109 225.477 99.4705Z" fill="white"/>
<path d="M187.138 115.388C184.061 112.355 184.026 107.402 187.059 104.325C190.092 101.248 195.046 101.213 198.123 104.246C201.199 107.279 201.234 112.233 198.201 115.309C195.168 118.386 190.215 118.421 187.138 115.388ZM225.477 99.4705C223.601 97.6197 223.579 94.5983 225.43 92.7211C225.57 92.5784 225.72 92.4501 225.873 92.329L209.699 76.3829C209.579 76.5377 209.453 76.6886 209.313 76.8312C207.462 78.7084 204.44 78.7299 202.563 76.8791C202.493 76.8092 202.429 76.7348 202.363 76.6616L160.003 119.914C160.076 119.979 160.152 120.04 160.224 120.111C162.101 121.961 162.122 124.983 160.271 126.86C160.131 127.002 159.982 127.131 159.828 127.252L176.003 143.198C176.122 143.044 176.248 142.892 176.389 142.749C178.239 140.872 181.26 140.851 183.138 142.702C183.28 142.842 183.409 142.992 183.53 143.145L225.926 99.856C225.771 99.737 225.62 99.6109 225.477 99.4705Z" stroke="#1A2E35" stroke-width="0.550661" stroke-miterlimit="10" stroke-linecap="round" stroke-linejoin="round"/>
</g>
<mask id="mask7_443_28076" style="mask-type:luminance" maskUnits="userSpaceOnUse" x="0" y="0" width="276" height="250">
<path d="M0.515625 0H275.846V250H0.515625V0Z" fill="white"/>
</mask>
<g mask="url(#mask7_443_28076)">
<path d="M143.173 146.174L92.5346 178.365L38.6426 93.2763L89.2813 61.0857C91.1266 59.9128 93.5732 60.4574 94.7461 62.3027L144.39 140.71C145.563 142.555 145.019 145.001 143.173 146.174Z" fill="#AAAAAA"/>
<path d="M143.173 146.174L92.5346 178.365L38.6426 93.2763L89.2813 61.0857C91.1266 59.9128 93.5732 60.4574 94.7461 62.3027L144.39 140.71C145.563 142.555 145.019 145.001 143.173 146.174Z" stroke="#1A2E35" stroke-width="0.550661" stroke-miterlimit="10" stroke-linecap="round" stroke-linejoin="round"/>
<path d="M141.751 146.23L91.1128 178.42L37.2207 93.3317L87.8595 61.1412C89.7047 59.9678 92.1513 60.5129 93.3242 62.3576L142.968 140.765C144.141 142.61 143.597 145.057 141.751 146.23Z" fill="white"/>
<path d="M141.751 146.23L91.1128 178.42L37.2207 93.3317L87.8595 61.1412C89.7047 59.9678 92.1513 60.5129 93.3242 62.3576L142.968 140.765C144.141 142.61 143.597 145.057 141.751 146.23Z" stroke="#1A2E35" stroke-width="0.550661" stroke-miterlimit="10" stroke-linecap="round" stroke-linejoin="round"/>
<path d="M140.097 147.355L89.4585 179.546L35.5664 94.4572L86.2052 62.2662C88.0504 61.0933 90.497 61.6379 91.6705 63.4831L141.314 141.891C142.487 143.736 141.942 146.182 140.097 147.355Z" fill="#AAAAAA"/>
<path d="M140.097 147.355L89.4585 179.546L35.5664 94.4572L86.2052 62.2662C88.0504 61.0933 90.497 61.6379 91.6705 63.4831L141.314 141.891C142.487 143.736 141.942 146.182 140.097 147.355Z" stroke="#1A2E35" stroke-width="0.550661" stroke-miterlimit="10" stroke-linecap="round" stroke-linejoin="round"/>
<path d="M61.2908 101.027L61.684 100.777C61.9312 100.62 62.1075 100.469 62.2132 100.324C62.3195 100.179 62.358 100.018 62.3305 99.8411C62.3029 99.6638 62.2093 99.4496 62.0491 99.1974C61.8635 98.905 61.6989 98.6947 61.5568 98.5653C61.4147 98.4364 61.2567 98.3852 61.0816 98.4111C60.9076 98.437 60.6768 98.541 60.3894 98.7239L59.9885 98.9788L61.2908 101.027ZM62.6377 105.032L58.7451 98.9094L60.2649 97.943C60.6322 97.7095 60.9687 97.5895 61.2726 97.584C61.5766 97.5779 61.8591 97.6693 62.1201 97.8571C62.3811 98.0449 62.6251 98.318 62.8525 98.6754C63.0579 98.9981 63.1796 99.3142 63.2165 99.6231C63.2534 99.932 63.2022 100.221 63.0617 100.49C62.9219 100.76 62.6856 101.001 62.353 101.212L61.6801 101.64L63.4918 104.49L62.6377 105.032Z" fill="white"/>
<path d="M65.486 100.196L66.5064 99.5477L64.2387 97.1155L65.486 100.196ZM65.6462 103.12L63.0537 96.17L63.8775 95.6463L69.0779 100.939L68.2696 101.452L67.0091 100.088L65.7619 100.881L66.4474 102.611L65.6462 103.12Z" fill="white"/>
<path d="M71.1853 99.6945C70.8323 99.9186 70.4909 100.029 70.1605 100.027C69.8301 100.025 69.519 99.929 69.2282 99.7391C68.9375 99.5485 68.6699 99.2837 68.4254 98.9439L69.052 98.2589C69.2046 98.4665 69.372 98.6537 69.5526 98.8217C69.7343 98.9896 69.9254 99.0992 70.1286 99.151C70.3307 99.2027 70.5405 99.1598 70.7574 99.0216C70.9788 98.8806 71.1076 98.7126 71.1423 98.5172C71.177 98.3211 71.1214 98.108 70.9738 97.8756C70.7976 97.5987 70.5928 97.4158 70.3593 97.3272C70.1258 97.2385 69.8593 97.1691 69.5586 97.119L67.954 96.8657C67.6401 96.8178 67.3687 96.7198 67.1401 96.5711C66.9116 96.423 66.6996 96.195 66.5041 95.8872C66.2189 95.439 66.1264 95.0094 66.2266 94.5992C66.3268 94.189 66.5977 93.8431 67.0416 93.5607C67.2839 93.407 67.5162 93.3035 67.7404 93.2495C67.9645 93.1956 68.1798 93.1945 68.3868 93.2473C68.5933 93.2996 68.7965 93.4021 68.9964 93.5552C69.1957 93.7077 69.3934 93.9092 69.5884 94.1603L68.9876 94.8184C68.8444 94.6262 68.6963 94.4604 68.5432 94.3206C68.3912 94.1802 68.2255 94.0948 68.046 94.0634C67.867 94.0326 67.6715 94.0838 67.4601 94.2187C67.2481 94.3531 67.1192 94.515 67.073 94.7033C67.0267 94.8922 67.0741 95.097 67.215 95.3189C67.3334 95.5056 67.4623 95.6394 67.6027 95.7198C67.7426 95.8007 67.9232 95.8597 68.144 95.896L69.7563 96.1449C70.1165 96.1989 70.4738 96.3101 70.8279 96.4775C71.182 96.6449 71.481 96.9202 71.7244 97.3035C71.9166 97.6058 72.019 97.9065 72.0328 98.2055C72.046 98.505 71.9799 98.7826 71.8345 99.0375C71.6886 99.293 71.4722 99.5116 71.1853 99.6945Z" fill="white"/>
<path d="M74.7614 97.4213C74.4085 97.6454 74.0671 97.7561 73.7367 97.7539C73.4063 97.7517 73.0957 97.6559 72.8049 97.4659C72.5142 97.2753 72.2466 97.0105 72.0015 96.6702L72.6282 95.9857C72.7807 96.1928 72.9481 96.38 73.1293 96.5485C73.3105 96.7164 73.5015 96.826 73.7047 96.8778C73.9074 96.929 74.1166 96.886 74.3336 96.7484C74.5549 96.6074 74.6838 96.4394 74.7185 96.2434C74.7537 96.0479 74.6976 95.8343 74.55 95.6024C74.3738 95.3255 74.1689 95.1426 73.9355 95.054C73.702 94.9653 73.4355 94.8959 73.1353 94.8458L71.5302 94.5925C71.2163 94.5441 70.9454 94.4461 70.7163 94.2979C70.4878 94.1492 70.2758 93.9218 70.0808 93.614C69.795 93.1652 69.7025 92.7363 69.8027 92.326C69.903 91.9152 70.1744 91.5694 70.6183 91.2875C70.86 91.1338 71.0929 91.0303 71.3171 90.9758C71.5406 90.9218 71.7565 90.9213 71.963 90.9736C72.1695 91.0265 72.3732 91.1289 72.5726 91.2814C72.7725 91.4345 72.9696 91.636 73.1645 91.8871L72.5638 92.5452C72.4206 92.353 72.2725 92.1872 72.1199 92.0468C71.9674 91.907 71.8016 91.8216 71.6221 91.7902C71.4432 91.7588 71.2482 91.8106 71.0362 91.945C70.8242 92.0799 70.6954 92.2412 70.6491 92.4301C70.6029 92.6184 70.6502 92.8238 70.7912 93.0457C70.9096 93.2324 71.039 93.3662 71.1788 93.4466C71.3187 93.5276 71.4993 93.5865 71.7201 93.6228L73.3325 93.8712C73.6926 93.9257 74.05 94.0364 74.4041 94.2038C74.7581 94.3717 75.0572 94.647 75.3005 95.0298C75.4927 95.3326 75.5951 95.6333 75.6089 95.9323C75.6221 96.2318 75.5561 96.5094 75.4107 96.7643C75.2653 97.0198 75.0483 97.2385 74.7614 97.4213Z" fill="white"/>
<path d="M75.5027 91.9928L75.8959 91.7428C76.1432 91.5858 76.3194 91.435 76.4251 91.2901C76.5314 91.1442 76.5699 90.9834 76.5424 90.8067C76.5148 90.6299 76.4212 90.4151 76.261 90.1629C76.0754 89.8705 75.9108 89.6602 75.7687 89.5308C75.6266 89.4019 75.4686 89.3507 75.2935 89.3766C75.1195 89.4025 74.8887 89.5071 74.6008 89.6894L74.2004 89.9443L75.5027 91.9928ZM76.8497 95.9983L72.957 89.8749L74.4769 88.9085C74.8441 88.6751 75.1806 88.5556 75.4846 88.5495C75.7885 88.544 76.071 88.6349 76.332 88.8226C76.593 89.0104 76.837 89.2835 77.0644 89.6409C77.2698 89.9636 77.3915 90.2797 77.4284 90.5886C77.4653 90.8975 77.4141 91.1866 77.2737 91.4559C77.1338 91.7257 76.8976 91.9664 76.565 92.1773L75.8921 92.6051L77.7037 95.4553L76.8497 95.9983Z" fill="white"/>
<path d="M81.6577 92.0919C81.8846 91.9477 82.0261 91.7924 82.0828 91.625C82.1395 91.4581 82.1346 91.2775 82.0674 91.0831C82.0002 90.8887 81.8945 90.6784 81.7502 90.4515L80.0442 87.7676C79.9005 87.5407 79.7562 87.3585 79.6114 87.2202C79.4672 87.082 79.3091 87.0055 79.1368 86.9912C78.9649 86.9769 78.7656 87.0418 78.5387 87.1856C78.3119 87.3298 78.1676 87.484 78.1048 87.647C78.0426 87.8106 78.0437 87.9873 78.1076 88.1767C78.1709 88.3662 78.275 88.5743 78.4192 88.8006L80.1246 91.4846C80.2695 91.7114 80.4148 91.8965 80.563 92.0396C80.7105 92.1828 80.873 92.2632 81.0509 92.2814C81.2287 92.299 81.4308 92.2362 81.6577 92.0919ZM82.085 92.7648C81.672 93.0275 81.2904 93.1569 80.9413 93.152C80.5916 93.1481 80.2689 93.0297 79.9721 92.7973C79.6759 92.5644 79.3994 92.2467 79.1434 91.843L77.6676 89.5226C77.4115 89.1195 77.2458 88.7384 77.1698 88.3799C77.0938 88.0209 77.129 87.6872 77.2755 87.3777C77.4225 87.0688 77.7028 86.783 78.1158 86.5204C78.5288 86.2577 78.9066 86.1277 79.248 86.1299C79.5888 86.1321 79.9049 86.2428 80.1962 86.4614C80.487 86.6795 80.7607 86.9906 81.0167 87.3937L82.4969 89.7219C82.7496 90.12 82.917 90.5022 82.998 90.8684C83.0784 91.2351 83.0497 91.5765 82.9121 91.8943C82.7739 92.212 82.4985 92.5022 82.085 92.7648Z" fill="white"/>
<path d="M83.1915 87.0732L83.517 86.8667C83.7582 86.7131 83.936 86.5573 84.0484 86.4009C84.1618 86.2445 84.2064 86.0705 84.1844 85.88C84.1618 85.6889 84.0671 85.462 83.9008 85.1999C83.6734 84.842 83.4437 84.6255 83.2119 84.5496C82.9795 84.4747 82.6701 84.5606 82.2819 84.8073L81.9035 85.0474L83.1915 87.0732ZM84.5528 91.1013L80.6602 84.978L81.8925 84.1944C82.3006 83.935 82.6723 83.7748 83.0087 83.7131C83.3446 83.652 83.653 83.6999 83.9338 83.8574C84.2147 84.0154 84.4779 84.288 84.7246 84.6762C84.8755 84.9135 84.9872 85.1448 85.0605 85.3706C85.1326 85.5969 85.1563 85.8117 85.1304 86.016C85.1045 86.2203 85.0203 86.4097 84.8771 86.5853L87.6976 89.1024L86.8738 89.6255L84.2461 87.2627L83.5809 87.6856L85.4069 90.5584L84.5528 91.1013Z" fill="white"/>
<path d="M89.1491 88.1794L85.6601 82.691L84.6243 83.3496L84.2207 82.7147L87.1161 80.8738L87.5197 81.5093L86.5142 82.1481L90.0032 87.6365L89.1491 88.1794Z" fill="white"/>
<path d="M108.606 111.619C102.92 102.675 91.0613 100.033 82.1175 105.719C73.1742 111.405 70.5327 123.264 76.2183 132.207C81.9033 141.151 93.7623 143.792 102.706 138.107C111.65 132.421 114.291 120.563 108.606 111.619Z" stroke="white" stroke-width="0.550661" stroke-miterlimit="10"/>
<path d="M99.3535 117.5C93.6679 108.556 85.951 103.282 82.1173 105.719C78.2836 108.156 79.7841 117.382 85.4697 126.326C91.1553 135.27 98.8722 140.544 102.706 138.107C106.54 135.67 105.039 126.444 99.3535 117.5Z" stroke="white" stroke-width="0.550661" stroke-miterlimit="10"/>
<path d="M75.25 113.57L92.2401 102.77" stroke="white" stroke-width="0.550661" stroke-miterlimit="10"/>
<path d="M73.3379 124.517L102.962 105.684" stroke="white" stroke-width="0.550661" stroke-miterlimit="10"/>
<path d="M81.9551 138.072L111.58 119.239" stroke="white" stroke-width="0.550661" stroke-miterlimit="10"/>
<path d="M76.1758 132.234L108.745 111.53" stroke="white" stroke-width="0.550661" stroke-miterlimit="10"/>
<path d="M92.834 141.232L109.824 130.432" stroke="white" stroke-width="0.550661" stroke-miterlimit="10"/>
</g>
<mask id="mask8_443_28076" style="mask-type:luminance" maskUnits="userSpaceOnUse" x="0" y="0" width="276" height="250">
<path d="M0.515625 0H275.846V250H0.515625V0Z" fill="white"/>
</mask>
<g mask="url(#mask8_443_28076)">
<path d="M198.388 170.675C191.025 137.52 158.178 116.611 125.023 123.974C91.8672 131.337 70.9581 164.184 78.3215 197.34C85.6844 230.495 118.531 251.404 151.687 244.041C184.842 236.678 205.751 203.831 198.388 170.675Z" fill="#599BFE"/>
<path d="M198.388 170.675C191.025 137.52 158.178 116.611 125.023 123.974C91.8672 131.337 70.9581 164.184 78.3215 197.34C85.6844 230.495 118.531 251.404 151.687 244.041C184.842 236.678 205.751 203.831 198.388 170.675Z" stroke="#1A2E35" stroke-width="0.550661" stroke-miterlimit="10" stroke-linecap="round" stroke-linejoin="round"/>
<path d="M126.006 240.904C129.275 241.615 132.627 242.048 136.03 242.182" stroke="#1A2E35" stroke-width="0.550661" stroke-miterlimit="10" stroke-linecap="round" stroke-linejoin="round"/>
<path d="M118.469 238.719C120.135 239.327 121.833 239.859 123.556 240.314" stroke="#1A2E35" stroke-width="0.550661" stroke-miterlimit="10" stroke-linecap="round" stroke-linejoin="round"/>
<path d="M82.3577 168.078C79.7872 177.084 79.3583 186.841 81.5317 196.627C85.8296 215.981 99.3027 230.927 116.361 237.905" stroke="#1A2E35" stroke-width="0.550661" stroke-miterlimit="10" stroke-linecap="round" stroke-linejoin="round"/>
<path d="M90.1847 151.331C88.085 154.428 86.2827 157.725 84.8086 161.173" stroke="#1A2E35" stroke-width="0.550661" stroke-miterlimit="10" stroke-linecap="round" stroke-linejoin="round"/>
<path d="M130.024 156.694L136.293 157.993L138.43 160.21L141.216 160.638L142.102 163.282L141.453 165.07L139.553 165.941L134.899 165.18L134.772 164.611L136.973 163.075L135.454 160.273L131.29 159.702L129.074 157.803L130.024 156.694Z" fill="white"/>
<path d="M180.547 214.547L175.576 213.707L169.577 212.946L165.159 213.927L160.838 213.99L156.5 216L153.967 216.712L152.399 217.06L149.787 219.434L147.191 221.207L142.806 219.639L142.917 215.428L140.274 214.969L137.424 215.601L136.712 214.414L136.427 211.786L135.113 210.583L133.182 211.311L132.928 212.862L130.538 213.543L127.832 211.452L126.217 208.223L127.468 203.759L131.664 203.126L133.025 203.87L134.735 203.49L136.586 201.733L138.566 201.892L142.111 205.74L143.077 205.376L142.064 202.162L140.83 200.642L140.513 197.871L145.279 194.421L144.821 188.991L146.689 186.633L147.814 182.944L149.175 182.343L151.977 179.478L151.867 178.306L149.618 178.955L148.938 177.911L147.371 178.259L145.075 179.366L145.803 177.261L150.474 174.728L151.329 173.193L154.02 175.885L155.587 176.882L157.455 175.869L156.189 174.207L152.722 172.734L148.448 169.647L144.349 168.015L140.802 168.205L138.713 166.875L136.307 166.811L136.149 167.444L136.781 171.64L137.667 172.938L137.398 177.782L134.042 176.135L134.026 174.045L130.718 173.285L129.088 172.003L129.009 168.282L132.476 164.373L132.002 160.89L130.466 161.38L129.184 160.319L128.282 158.277L127.253 158.357L127.189 160.762L125.686 161.396L123.865 156.567L122.567 156.108L120.383 155.696L118.356 157.342L121.807 159.416L122.915 161.712L116.931 159.004L112.515 155.948L111.376 152.164L107.418 151.847L104.98 154.332C104.98 154.332 103.745 155.504 103.096 155.947C102.447 156.39 99.8029 157.276 99.8029 157.276L99.771 159.825L96.5254 160.695L97.1581 162.199L102.62 161.883L105.991 164.274L107.099 169.261L106.513 174.026L107.842 178.664L105.403 186.532L106.858 197.123L109.469 202.822L112.334 206.97L114.534 206.781L113.316 204.659L111.796 203.202L110.387 200.226L111.606 199.656L114.74 204.343L117.177 208.586L118 212.29L121.435 214.966L127.071 217.452L134.922 217.802L137.677 219.433L139.893 221.332L142.805 222.33L146.13 222.489L149.232 221.65C149.232 221.65 149.406 223.107 149.565 223.819C149.723 224.532 148.266 227.397 148.266 227.397L147.332 230.594L149.167 233.476L152.587 234.061L158.017 237.641L160.201 238.053L160.676 240.19L161.145 241.129C172.077 236.783 181.241 229.5 187.904 220.425L187.749 219.376L190.046 211.54L187.909 210.669L180.547 214.547Z" fill="white"/>
<path d="M182.867 154.976L180.698 152.618L178.008 149.926L176.488 145.778L179.148 145.636L178.974 144.18L177.09 144.448L178.499 143.388L179.987 142.011L179.671 140.586L177.455 138.686L176.408 135.7C162.411 124.687 143.767 119.812 125.023 123.974C116.502 125.867 108.793 129.445 102.162 134.276L105.964 135.874L104.54 138.881L101.959 140.052L102.528 143.963L101.483 144.643L100.406 146.527L101.118 149.06L103.604 148.807L103.144 151.451L105.566 150.913L108.528 144.723L108.449 142.348L112.375 141.178L112.993 139.247L117.03 137.901L116.919 135.385L119.88 134.578C119.88 134.578 121.764 132.963 122.191 132.868C122.619 132.774 124.771 133.043 124.771 133.043L127.288 134.278L130.281 133.613L132.497 131.477L135.837 131.034C135.837 131.034 136.819 131.414 137.531 131.256C138.244 131.098 140.16 129.625 140.16 129.625L144.861 131.272L146.856 132.176L147.33 134.313L149.53 134.123L149.958 132.683L152 133.125L152.111 134.297L148.09 136.386L151.208 138.983L156.97 140.694L159.74 143.069L162.938 142.657L163.334 141.074L164.411 140.536L160.073 138.509L157.73 138.731L159.456 137.749L157.208 135.707L159.599 135.026L163.113 136.04L164.585 139.302L166.563 140.806L168.763 144.653L172.404 146.237L173.448 150.938L177.2 152.348L177.406 153.947L177.389 155.894L178.814 158.269L179.384 159.488L181.9 159.377L182.503 156.702L182.867 154.976Z" fill="white"/>
<path d="M181.532 140.212L181.714 141.03L181.508 143.467L182.378 145.367L184.072 145.59L184.673 148.297L182.805 147.963L184.087 155.753L183.073 159.267L185.099 163.003L187.33 164.302L189.039 171.995L192.22 177.568L195.228 181.684L198.694 181.812L199.202 178.709L199.585 178.242C199.345 175.729 198.951 173.204 198.389 170.675C195.72 158.656 189.7 148.249 181.532 140.212Z" fill="white"/>
<path d="M148.421 146.629L138.1 144.585L134 145.645L133.603 148.574L131.482 147.101L128.506 148.51L129.265 153.275L132.241 154.558L133.492 151.439L136.104 153.102L141.375 155.968L143.147 159.91L147.896 163.79L153.659 161.463L153.042 159.357L151.222 157.22L149.671 151.584L150.558 148.845L148.421 146.629Z" fill="white"/>
<path d="M156.811 148.055L154.547 147.96L153.043 149.938L154.958 153.848L156.81 153.437L156.811 148.055Z" fill="white"/>
<path d="M170.662 147.819L165.249 146.33L163.871 144.842L162.826 145.523L164.457 148.151L166.134 151.665L168.461 152.046L168.762 151.381L167.005 149.529L171.026 150.13L170.662 147.819Z" fill="white"/>
<path d="M140.48 208.494L140.037 209.191L144.596 209.523L146.749 211.138L149.519 210.822L150.169 209.033L146.765 209.191L140.48 208.494Z" fill="white"/>
<path d="M153.763 208.385L150.961 209.904L151.642 210.949L155.346 210.126L155.805 208.829L154.555 209.255L153.763 208.385Z" fill="white"/>
<path d="M130.024 156.694L136.293 157.993L138.43 160.21L141.216 160.638L142.102 163.282L141.453 165.07L139.553 165.941L134.899 165.18L134.772 164.611L136.973 163.075L135.454 160.273L131.29 159.702L129.074 157.803L130.024 156.694Z" stroke="#1A2E35" stroke-width="0.550661" stroke-miterlimit="10" stroke-linecap="round" stroke-linejoin="round"/>
<path d="M180.547 214.547L175.576 213.707L169.577 212.946L165.159 213.927L160.838 213.99L156.5 216L153.967 216.712L152.399 217.06L149.787 219.434L147.191 221.207L142.806 219.639L142.917 215.428L140.274 214.969L137.424 215.601L136.712 214.414L136.427 211.786L135.113 210.583L133.182 211.311L132.928 212.862L130.538 213.543L127.832 211.452L126.217 208.223L127.468 203.759L131.664 203.126L133.025 203.87L134.735 203.49L136.586 201.733L138.566 201.892L142.111 205.74L143.077 205.376L142.064 202.162L140.83 200.642L140.513 197.871L145.279 194.421L144.821 188.991L146.689 186.633L147.814 182.944L149.175 182.343L151.977 179.478L151.867 178.306L149.618 178.955L148.938 177.911L147.371 178.259L145.075 179.366L145.803 177.261L150.474 174.728L151.329 173.193L154.02 175.885L155.587 176.882L157.455 175.869L156.189 174.207L152.722 172.734L148.448 169.647L144.349 168.015L140.802 168.205L138.713 166.875L136.307 166.811L136.149 167.444L136.781 171.64L137.667 172.938L137.398 177.782L134.042 176.135L134.026 174.045L130.718 173.285L129.088 172.003L129.009 168.282L132.476 164.373L132.002 160.89L130.466 161.38L129.184 160.319L128.282 158.277L127.253 158.357L127.189 160.762L125.686 161.396L123.865 156.567L122.567 156.108L120.383 155.696L118.356 157.342L121.807 159.416L122.915 161.712L116.931 159.004L112.515 155.948L111.376 152.164L107.418 151.847L104.98 154.332C104.98 154.332 103.745 155.504 103.096 155.947C102.447 156.39 99.8029 157.276 99.8029 157.276L99.771 159.825L96.5254 160.695L97.1581 162.199L102.62 161.883L105.991 164.274L107.099 169.261L106.513 174.026L107.842 178.664L105.403 186.532L106.858 197.123L109.469 202.822L112.334 206.97L114.534 206.781L113.316 204.659L111.796 203.202L110.387 200.226L111.606 199.656L114.74 204.343L117.177 208.586L118 212.29L121.435 214.966L127.071 217.452L134.922 217.802L137.677 219.433L139.893 221.332L142.805 222.33L146.13 222.489L149.232 221.65C149.232 221.65 149.406 223.107 149.565 223.819C149.723 224.532 148.266 227.397 148.266 227.397L147.332 230.594L149.167 233.476L152.587 234.061L158.017 237.641L160.201 238.053L160.676 240.19L161.145 241.129C172.077 236.783 181.241 229.5 187.904 220.425L187.749 219.376L190.046 211.54L187.909 210.669L180.547 214.547Z" stroke="#1A2E35" stroke-width="0.550661" stroke-miterlimit="10" stroke-linecap="round" stroke-linejoin="round"/>
<path d="M182.867 154.976L180.698 152.618L178.008 149.926L176.488 145.778L179.148 145.636L178.974 144.18L177.09 144.448L178.499 143.388L179.987 142.011L179.671 140.586L177.455 138.686L176.408 135.7C162.411 124.687 143.767 119.812 125.023 123.974C116.502 125.867 108.793 129.445 102.162 134.276L105.964 135.874L104.54 138.881L101.959 140.052L102.528 143.963L101.483 144.643L100.406 146.527L101.118 149.06L103.604 148.807L103.144 151.451L105.566 150.913L108.528 144.723L108.449 142.348L112.375 141.178L112.993 139.247L117.03 137.901L116.919 135.385L119.88 134.578C119.88 134.578 121.764 132.963 122.191 132.868C122.619 132.774 124.771 133.043 124.771 133.043L127.288 134.278L130.281 133.613L132.497 131.477L135.837 131.034C135.837 131.034 136.819 131.414 137.531 131.256C138.244 131.098 140.16 129.625 140.16 129.625L144.861 131.272L146.856 132.176L147.33 134.313L149.53 134.123L149.958 132.683L152 133.125L152.111 134.297L148.09 136.386L151.208 138.983L156.97 140.694L159.74 143.069L162.938 142.657L163.334 141.074L164.411 140.536L160.073 138.509L157.73 138.731L159.456 137.749L157.208 135.707L159.599 135.026L163.113 136.04L164.585 139.302L166.563 140.806L168.763 144.653L172.404 146.237L173.448 150.938L177.2 152.348L177.406 153.947L177.389 155.894L178.814 158.269L179.384 159.488L181.9 159.377L182.503 156.702L182.867 154.976Z" stroke="#1A2E35" stroke-width="0.550661" stroke-miterlimit="10" stroke-linecap="round" stroke-linejoin="round"/>
<path d="M181.532 140.212L181.714 141.03L181.508 143.467L182.378 145.367L184.072 145.59L184.673 148.297L182.805 147.963L184.087 155.753L183.073 159.267L185.099 163.003L187.33 164.302L189.039 171.995L192.22 177.568L195.228 181.684L198.694 181.812L199.202 178.709L199.585 178.242C199.345 175.729 198.951 173.204 198.389 170.675C195.72 158.656 189.7 148.249 181.532 140.212Z" stroke="#1A2E35" stroke-width="0.550661" stroke-miterlimit="10" stroke-linecap="round" stroke-linejoin="round"/>
<path d="M148.421 146.629L138.1 144.585L134 145.645L133.603 148.574L131.482 147.101L128.506 148.51L129.265 153.275L132.241 154.558L133.492 151.439L136.104 153.102L141.375 155.968L143.147 159.91L147.896 163.79L153.659 161.463L153.042 159.357L151.222 157.22L149.671 151.584L150.558 148.845L148.421 146.629Z" stroke="#1A2E35" stroke-width="0.550661" stroke-miterlimit="10" stroke-linecap="round" stroke-linejoin="round"/>
<path d="M156.811 148.055L154.547 147.96L153.043 149.938L154.958 153.848L156.81 153.437L156.811 148.055Z" stroke="#1A2E35" stroke-width="0.550661" stroke-miterlimit="10" stroke-linecap="round" stroke-linejoin="round"/>
<path d="M170.662 147.819L165.249 146.33L163.871 144.842L162.826 145.523L164.457 148.151L166.134 151.665L168.461 152.046L168.762 151.381L167.005 149.529L171.026 150.13L170.662 147.819Z" stroke="#1A2E35" stroke-width="0.550661" stroke-miterlimit="10" stroke-linecap="round" stroke-linejoin="round"/>
<path d="M140.48 208.494L140.037 209.191L144.596 209.523L146.749 211.138L149.519 210.822L150.169 209.033L146.765 209.191L140.48 208.494Z" stroke="#1A2E35" stroke-width="0.550661" stroke-miterlimit="10" stroke-linecap="round" stroke-linejoin="round"/>
<path d="M153.763 208.385L150.961 209.904L151.642 210.949L155.346 210.126L155.805 208.829L154.555 209.255L153.763 208.385Z" stroke="#1A2E35" stroke-width="0.550661" stroke-miterlimit="10" stroke-linecap="round" stroke-linejoin="round"/>
</g>
<mask id="mask9_443_28076" style="mask-type:luminance" maskUnits="userSpaceOnUse" x="0" y="0" width="276" height="250">
<path d="M0.515625 0H275.846V250H0.515625V0Z" fill="white"/>
</mask>
<g mask="url(#mask9_443_28076)">
<path d="M195.572 154.566C193.502 154.566 191.823 152.888 191.823 150.817C191.823 148.747 193.502 147.069 195.572 147.069C197.643 147.069 199.321 148.747 199.321 150.817C199.321 152.888 197.643 154.566 195.572 154.566ZM195.572 142.302C190.869 142.302 187.057 146.114 187.057 150.817C187.057 155.52 195.572 165.009 195.572 165.009C195.572 165.009 204.087 155.52 204.087 150.817C204.087 146.114 200.275 142.302 195.572 142.302Z" fill="#1A2E35"/>
<path d="M195.572 154.566C193.502 154.566 191.823 152.888 191.823 150.817C191.823 148.747 193.502 147.069 195.572 147.069C197.643 147.069 199.321 148.747 199.321 150.817C199.321 152.888 197.643 154.566 195.572 154.566ZM195.572 142.302C190.869 142.302 187.057 146.114 187.057 150.817C187.057 155.52 195.572 165.009 195.572 165.009C195.572 165.009 204.087 155.52 204.087 150.817C204.087 146.114 200.275 142.302 195.572 142.302Z" stroke="#1A2E35" stroke-width="0.550661" stroke-miterlimit="10"/>
<path d="M129.505 174.856C127.699 174.856 126.236 173.392 126.236 171.587C126.236 169.78 127.699 168.316 129.505 168.316C131.311 168.316 132.775 169.78 132.775 171.587C132.775 173.392 131.311 174.856 129.505 174.856ZM129.505 164.159C125.403 164.159 122.078 167.484 122.078 171.587C122.078 175.689 129.505 183.965 129.505 183.965C129.505 183.965 136.933 175.689 136.933 171.587C136.933 167.484 133.607 164.159 129.505 164.159Z" fill="#1A2E35"/>
<path d="M129.505 174.856C127.699 174.856 126.236 173.392 126.236 171.587C126.236 169.78 127.699 168.316 129.505 168.316C131.311 168.316 132.775 169.78 132.775 171.587C132.775 173.392 131.311 174.856 129.505 174.856ZM129.505 164.159C125.403 164.159 122.078 167.484 122.078 171.587C122.078 175.689 129.505 183.965 129.505 183.965C129.505 183.965 136.933 175.689 136.933 171.587C136.933 167.484 133.607 164.159 129.505 164.159Z" stroke="#1A2E35" stroke-width="0.550661" stroke-miterlimit="10"/>
<path d="M157.596 227.468C156.688 227.468 155.951 226.732 155.951 225.824C155.951 224.915 156.688 224.179 157.596 224.179C158.504 224.179 159.24 224.915 159.24 225.824C159.24 226.732 158.504 227.468 157.596 227.468ZM157.596 222.088C155.532 222.088 153.859 223.76 153.859 225.824C153.859 227.887 157.596 232.051 157.596 232.051C157.596 232.051 161.332 227.887 161.332 225.824C161.332 223.76 159.659 222.088 157.596 222.088Z" fill="#1A2E35"/>
<path d="M157.596 227.468C156.688 227.468 155.951 226.732 155.951 225.824C155.951 224.915 156.688 224.179 157.596 224.179C158.504 224.179 159.24 224.915 159.24 225.824C159.24 226.732 158.504 227.468 157.596 227.468ZM157.596 222.088C155.532 222.088 153.859 223.76 153.859 225.824C153.859 227.887 157.596 232.051 157.596 232.051C157.596 232.051 161.332 227.887 161.332 225.824C161.332 223.76 159.659 222.088 157.596 222.088Z" stroke="#1A2E35" stroke-width="0.550661" stroke-miterlimit="10"/>
<path d="M111.135 192.973C110.227 192.973 109.49 192.236 109.49 191.328C109.49 190.419 110.227 189.682 111.135 189.682C112.043 189.682 112.779 190.419 112.779 191.328C112.779 192.236 112.043 192.973 111.135 192.973ZM111.135 187.592C109.071 187.592 107.398 189.264 107.398 191.328C107.398 193.391 111.135 197.555 111.135 197.555C111.135 197.555 114.871 193.391 114.871 191.328C114.871 189.264 113.199 187.592 111.135 187.592Z" fill="#1A2E35"/>
<path d="M111.135 192.973C110.227 192.973 109.49 192.236 109.49 191.328C109.49 190.419 110.227 189.682 111.135 189.682C112.043 189.682 112.779 190.419 112.779 191.328C112.779 192.236 112.043 192.973 111.135 192.973ZM111.135 187.592C109.071 187.592 107.398 189.264 107.398 191.328C107.398 193.391 111.135 197.555 111.135 197.555C111.135 197.555 114.871 193.391 114.871 191.328C114.871 189.264 113.199 187.592 111.135 187.592Z" stroke="#1A2E35" stroke-width="0.550661" stroke-miterlimit="10"/>
<path d="M124.35 208.699C123.441 208.699 122.705 207.963 122.705 207.054C122.705 206.146 123.441 205.409 124.35 205.409C125.258 205.409 125.994 206.146 125.994 207.054C125.994 207.963 125.258 208.699 124.35 208.699ZM124.35 203.318C122.286 203.318 120.613 204.991 120.613 207.054C120.613 209.118 124.35 213.281 124.35 213.281C124.35 213.281 128.086 209.118 128.086 207.054C128.086 204.991 126.413 203.318 124.35 203.318Z" fill="#1A2E35"/>
<path d="M124.35 208.699C123.441 208.699 122.705 207.963 122.705 207.054C122.705 206.146 123.441 205.409 124.35 205.409C125.258 205.409 125.994 206.146 125.994 207.054C125.994 207.963 125.258 208.699 124.35 208.699ZM124.35 203.318C122.286 203.318 120.613 204.991 120.613 207.054C120.613 209.118 124.35 213.281 124.35 213.281C124.35 213.281 128.086 209.118 128.086 207.054C128.086 204.991 126.413 203.318 124.35 203.318Z" stroke="#1A2E35" stroke-width="0.550661" stroke-miterlimit="10"/>
<path d="M170.762 216.757C169.685 216.757 168.812 215.884 168.812 214.807C168.812 213.73 169.685 212.856 170.762 212.856C171.839 212.856 172.713 213.73 172.713 214.807C172.713 215.884 171.839 216.757 170.762 216.757ZM170.762 210.377C168.316 210.377 166.332 212.36 166.332 214.807C166.332 217.253 170.762 222.19 170.762 222.19C170.762 222.19 175.192 217.253 175.192 214.807C175.192 212.36 173.209 210.377 170.762 210.377Z" fill="#1A2E35"/>
<path d="M170.762 216.757C169.685 216.757 168.812 215.884 168.812 214.807C168.812 213.73 169.685 212.856 170.762 212.856C171.839 212.856 172.713 213.73 172.713 214.807C172.713 215.884 171.839 216.757 170.762 216.757ZM170.762 210.377C168.316 210.377 166.332 212.36 166.332 214.807C166.332 217.253 170.762 222.19 170.762 222.19C170.762 222.19 175.192 217.253 175.192 214.807C175.192 212.36 173.209 210.377 170.762 210.377Z" stroke="#1A2E35" stroke-width="0.550661" stroke-miterlimit="10"/>
<path d="M170.439 131.344C169.482 131.344 168.707 130.568 168.707 129.611C168.707 128.654 169.482 127.879 170.439 127.879C171.396 127.879 172.171 128.654 172.171 129.611C172.171 130.568 171.396 131.344 170.439 131.344ZM170.439 125.676C168.266 125.676 166.504 127.438 166.504 129.611C166.504 131.785 170.439 136.17 170.439 136.17C170.439 136.17 174.374 131.785 174.374 129.611C174.374 127.438 172.612 125.676 170.439 125.676Z" fill="#1A2E35"/>
<path d="M170.439 131.344C169.482 131.344 168.707 130.568 168.707 129.611C168.707 128.654 169.482 127.879 170.439 127.879C171.396 127.879 172.171 128.654 172.171 129.611C172.171 130.568 171.396 131.344 170.439 131.344ZM170.439 125.676C168.266 125.676 166.504 127.438 166.504 129.611C166.504 131.785 170.439 136.17 170.439 136.17C170.439 136.17 174.374 131.785 174.374 129.611C174.374 127.438 172.612 125.676 170.439 125.676Z" stroke="#1A2E35" stroke-width="0.550661" stroke-miterlimit="10"/>
<path d="M103.095 155.947C102.139 155.947 101.363 155.171 101.363 154.215C101.363 153.258 102.139 152.482 103.095 152.482C104.052 152.482 104.828 153.258 104.828 154.215C104.828 155.171 104.052 155.947 103.095 155.947ZM103.095 150.28C100.922 150.28 99.1602 152.041 99.1602 154.215C99.1602 156.387 103.095 160.773 103.095 160.773C103.095 160.773 107.03 156.387 107.03 154.215C107.03 152.041 105.269 150.28 103.095 150.28Z" fill="#1A2E35"/>
<path d="M103.095 155.947C102.139 155.947 101.363 155.171 101.363 154.215C101.363 153.258 102.139 152.482 103.095 152.482C104.052 152.482 104.828 153.258 104.828 154.215C104.828 155.171 104.052 155.947 103.095 155.947ZM103.095 150.28C100.922 150.28 99.1602 152.041 99.1602 154.215C99.1602 156.387 103.095 160.773 103.095 160.773C103.095 160.773 107.03 156.387 107.03 154.215C107.03 152.041 105.269 150.28 103.095 150.28Z" stroke="#1A2E35" stroke-width="0.550661" stroke-miterlimit="10"/>
</g>
<g clip-path="url(#clip0_443_28076)">
<mask id="mask10_443_28076" style="mask-type:luminance" maskUnits="userSpaceOnUse" x="0" y="0" width="276" height="250">
<path d="M0.15332 0H275.484V250H0.15332V0Z" fill="white"/>
</mask>
<g mask="url(#mask10_443_28076)">
<path d="M149.78 65.5532C149.78 65.5532 149.438 96.5521 149.438 101.676C149.438 106.8 149.011 111.753 149.011 111.753C149.011 111.753 150.548 112.863 150.292 114.144C150.036 115.425 149.096 117.304 149.096 117.304C149.096 117.304 147.901 117.048 147.303 117.218C146.705 117.389 143.119 119.012 142.521 119.012C141.923 119.012 141.667 119.524 141.496 117.901C141.325 116.279 141.24 115.169 141.325 113.547C141.411 111.924 141.923 109.704 141.923 109.704L138.336 70.5064L137.482 108.679C137.482 108.679 137.654 110.984 137.91 111.412C138.166 111.838 138.593 112.949 138.593 113.375C138.593 113.803 137.824 117.816 137.482 117.987C137.141 118.158 136.116 118.756 136.116 118.756C136.116 118.756 135.433 118.585 134.493 117.389C133.555 116.194 131.334 116.279 130.907 116.45L130.48 116.62C130.48 116.62 129.199 115.084 128.943 113.973C128.687 112.863 130.394 112.778 130.309 109.789C130.224 106.8 127.662 81.4371 127.662 81.4371L127.064 64.3578L149.95 63.6744L149.78 65.5532Z" fill="#1A2E35"/>
<path d="M149.78 65.5532C149.78 65.5532 149.438 96.5521 149.438 101.676C149.438 106.8 149.011 111.753 149.011 111.753C149.011 111.753 150.548 112.863 150.292 114.144C150.036 115.425 149.096 117.304 149.096 117.304C149.096 117.304 147.901 117.048 147.303 117.218C146.705 117.389 143.119 119.012 142.521 119.012C141.923 119.012 141.667 119.524 141.496 117.901C141.325 116.279 141.24 115.169 141.325 113.547C141.411 111.924 141.923 109.704 141.923 109.704L138.336 70.5064L137.482 108.679C137.482 108.679 137.654 110.984 137.91 111.412C138.166 111.838 138.593 112.949 138.593 113.375C138.593 113.803 137.824 117.816 137.482 117.987C137.141 118.158 136.116 118.756 136.116 118.756C136.116 118.756 135.433 118.585 134.493 117.389C133.555 116.194 131.334 116.279 130.907 116.45L130.48 116.62C130.48 116.62 129.199 115.084 128.943 113.973C128.687 112.863 130.394 112.778 130.309 109.789C130.224 106.8 127.662 81.4371 127.662 81.4371L127.064 64.3578L149.95 63.6744L149.78 65.5532Z" stroke="#1A2E35" stroke-width="0.550661" stroke-miterlimit="10"/>
<path d="M140.813 25.9289L131.675 26.527L131.334 65.5534C131.334 65.5534 132.017 66.1509 137.653 66.2368C143.29 66.3221 144.485 65.6387 144.485 65.6387L140.813 25.9289Z" fill="white"/>
<path d="M140.813 25.9289L131.675 26.527L131.334 65.5534C131.334 65.5534 132.017 66.1509 137.653 66.2368C143.29 66.3221 144.485 65.6387 144.485 65.6387L140.813 25.9289Z" stroke="#1A2E35" stroke-width="0.550661" stroke-miterlimit="10"/>
<path d="M140.249 6.71032C140.249 6.71032 142.484 9.86395 142.445 10.3425C142.405 10.8216 142.165 11.7395 142.165 11.7395C142.165 11.7395 144.6 14.2544 144.36 14.4543C144.121 14.6536 143.003 15.6118 143.003 15.6118C143.003 15.6118 143.043 17.9664 143.043 18.3254C143.043 18.685 143.562 19.6029 143.402 19.962C143.243 20.3216 142.923 20.8403 142.644 21.0798C142.365 21.3193 140.329 21.2797 140.329 21.2797L140.289 24.5126C140.289 24.5126 140.648 26.5479 140.329 27.2665C140.01 27.9851 139.092 28.544 136.776 28.6635C134.461 28.7836 133.334 27.9967 132.655 27.4377C131.977 26.8788 132.066 21.7186 132.027 20.9201C131.987 20.1217 131.947 18.6051 131.508 17.9267C131.069 17.2478 128.195 12.4179 127.716 11.2208C127.237 10.0236 127.197 8.78576 128.115 7.70812C129.033 6.63047 130.19 6.1514 130.31 5.55283C130.43 4.95426 130.31 4.35514 131.188 4.07596C132.066 3.79622 133.144 3.95647 133.144 3.95647C133.144 3.95647 134.821 1.92067 135.699 2.16021L136.577 2.3992C136.577 2.3992 139.012 1.72078 140.289 2.79843C141.566 3.87662 141.846 5.59303 140.249 6.71032Z" fill="white"/>
<path d="M140.249 6.71032C140.249 6.71032 142.484 9.86395 142.445 10.3425C142.405 10.8216 142.165 11.7395 142.165 11.7395C142.165 11.7395 144.6 14.2544 144.36 14.4543C144.121 14.6536 143.003 15.6118 143.003 15.6118C143.003 15.6118 143.043 17.9664 143.043 18.3254C143.043 18.685 143.562 19.6029 143.402 19.962C143.243 20.3216 142.923 20.8403 142.644 21.0798C142.365 21.3193 140.329 21.2797 140.329 21.2797L140.289 24.5126C140.289 24.5126 140.648 26.5479 140.329 27.2665C140.01 27.9851 139.092 28.544 136.776 28.6635C134.461 28.7836 133.334 27.9967 132.655 27.4377C131.977 26.8788 132.066 21.7186 132.027 20.9201C131.987 20.1217 131.947 18.6051 131.508 17.9267C131.069 17.2478 128.195 12.4179 127.716 11.2208C127.237 10.0236 127.197 8.78576 128.115 7.70812C129.033 6.63047 130.19 6.1514 130.31 5.55283C130.43 4.95426 130.31 4.35514 131.188 4.07596C132.066 3.79622 133.144 3.95647 133.144 3.95647C133.144 3.95647 134.821 1.92067 135.699 2.16021L136.577 2.3992C136.577 2.3992 139.012 1.72078 140.289 2.79843C141.566 3.87662 141.846 5.59303 140.249 6.71032Z" stroke="#1A2E35" stroke-width="0.550661" stroke-miterlimit="10"/>
<path d="M140.707 12.3502C140.707 12.8601 140.865 13.2737 141.059 13.2737C141.253 13.2737 141.411 12.8601 141.411 12.3502C141.411 11.8403 141.253 11.4268 141.059 11.4268C140.865 11.4268 140.707 11.8403 140.707 12.3502Z" fill="#1A2E35"/>
<path d="M140.707 12.3502C140.707 12.8601 140.865 13.2737 141.059 13.2737C141.253 13.2737 141.411 12.8601 141.411 12.3502C141.411 11.8403 141.253 11.4268 141.059 11.4268C140.865 11.4268 140.707 11.8403 140.707 12.3502Z" stroke="#1A2E35" stroke-width="0.550661" stroke-miterlimit="10"/>
<path d="M130.31 5.55288C130.43 4.95431 130.31 4.35519 131.189 4.07601C132.066 3.79682 133.144 3.95651 133.144 3.95651C133.144 3.95651 134.821 1.92072 135.699 2.16026L136.577 2.39924C136.577 2.39924 139.012 1.72138 140.289 2.79902C141.566 3.87667 141.846 5.59308 140.249 6.71037C140.249 6.71037 135.859 7.18944 136.377 7.98735C136.896 8.78581 137.176 9.42457 136.736 9.66411C136.298 9.90365 134.302 10.9014 134.501 11.3805C134.701 11.8596 134.901 13.1366 134.621 13.2164C134.342 13.2963 134.382 13.1366 133.544 12.4978C132.706 11.8596 131.707 12.3387 131.588 13.6157C131.468 14.8932 132.506 15.6916 132.945 15.7709C133.384 15.8508 133.144 17.4075 132.306 18.0066C132.139 18.1256 131.926 18.2296 131.687 18.3188C131.636 18.1724 131.578 18.0358 131.508 17.9268C131.069 17.2478 128.195 12.4185 127.716 11.2208C127.237 10.0237 127.197 8.78581 128.115 7.70816C129.033 6.63052 130.191 6.15145 130.31 5.55288Z" fill="#1A2E35"/>
<path d="M130.31 5.55288C130.43 4.95431 130.31 4.35519 131.189 4.07601C132.066 3.79682 133.144 3.95651 133.144 3.95651C133.144 3.95651 134.821 1.92072 135.699 2.16026L136.577 2.39924C136.577 2.39924 139.012 1.72138 140.289 2.79902C141.566 3.87667 141.846 5.59308 140.249 6.71037C140.249 6.71037 135.859 7.18944 136.377 7.98735C136.896 8.78581 137.176 9.42457 136.736 9.66411C136.298 9.90365 134.302 10.9014 134.501 11.3805C134.701 11.8596 134.901 13.1366 134.621 13.2164C134.342 13.2963 134.382 13.1366 133.544 12.4978C132.706 11.8596 131.707 12.3387 131.588 13.6157C131.468 14.8932 132.506 15.6916 132.945 15.7709C133.384 15.8508 133.144 17.4075 132.306 18.0066C132.139 18.1256 131.926 18.2296 131.687 18.3188C131.636 18.1724 131.578 18.0358 131.508 17.9268C131.069 17.2478 128.195 12.4185 127.716 11.2208C127.237 10.0237 127.197 8.78581 128.115 7.70816C129.033 6.63052 130.191 6.15145 130.31 5.55288Z" stroke="#1A2E35" stroke-width="0.550661" stroke-miterlimit="10"/>
<path d="M142.605 16.849C142.605 16.849 140.809 17.1684 139.771 15.8909" stroke="#1A2E35" stroke-width="0.550661" stroke-miterlimit="10"/>
<path d="M140.329 21.2795L136.656 20.122L140.249 23.7542L140.329 21.2795Z" fill="#1A2E35"/>
<path d="M140.329 21.2795L136.656 20.122L140.249 23.7542L140.329 21.2795Z" stroke="#1A2E35" stroke-width="0.550661" stroke-miterlimit="10"/>
<path d="M141.566 10.3228C141.566 10.3228 140.271 9.60804 139.512 10.6802" stroke="#1A2E35" stroke-width="0.550661" stroke-miterlimit="10"/>
<path d="M150.083 40.7923C150.083 40.7923 155.066 49.142 155.2 50.7582C155.335 52.3738 152.574 57.8953 151.766 58.0974C150.958 58.2995 148.669 55.6734 148.4 54.5957C148.13 53.5186 147.726 41.3314 148.197 40.2537C148.669 39.1761 150.083 40.7923 150.083 40.7923Z" fill="#1A2E35"/>
<path d="M150.083 40.7923C150.083 40.7923 155.066 49.142 155.2 50.7582C155.335 52.3738 152.574 57.8953 151.766 58.0974C150.958 58.2995 148.669 55.6734 148.4 54.5957C148.13 53.5186 147.726 41.3314 148.197 40.2537C148.669 39.1761 150.083 40.7923 150.083 40.7923Z" stroke="#1A2E35" stroke-width="0.550661" stroke-miterlimit="10"/>
<path d="M141.816 25.815L146.593 26.1822C146.593 26.1822 149.227 25.5699 150.023 25.815C150.819 26.06 162.088 30.408 163.312 31.2654C164.537 32.1228 164.354 35.2461 164.047 36.5325C163.741 37.8183 162.639 38.1244 162.088 38.1861C161.536 38.2472 150.145 37.5121 150.145 37.5121L153.085 67.3375L146.96 69.3585L142.612 69.9097L140.469 32.7351L141.816 25.815Z" fill="#599BFE"/>
<path d="M141.816 25.815L146.593 26.1822C146.593 26.1822 149.227 25.5699 150.023 25.815C150.819 26.06 162.088 30.408 163.312 31.2654C164.537 32.1228 164.354 35.2461 164.047 36.5325C163.741 37.8183 162.639 38.1244 162.088 38.1861C161.536 38.2472 150.145 37.5121 150.145 37.5121L153.085 67.3375L146.96 69.3585L142.612 69.9097L140.469 32.7351L141.816 25.815Z" stroke="#1A2E35" stroke-width="0.550661" stroke-miterlimit="10"/>
<path d="M140.25 23.7543L141.816 25.8149C141.816 25.8149 142 28.9382 141.571 30.2246C141.143 31.5104 140.469 32.7356 140.469 32.7356L138.51 28.2037C138.51 28.2037 139.97 25.8578 140.25 23.7543Z" fill="#599BFE"/>
<path d="M140.25 23.7543L141.816 25.8149C141.816 25.8149 142 28.9382 141.571 30.2246C141.143 31.5104 140.469 32.7356 140.469 32.7356L138.51 28.2037C138.51 28.2037 139.97 25.8578 140.25 23.7543Z" stroke="#1A2E35" stroke-width="0.550661" stroke-miterlimit="10"/>
<path d="M132.691 33.8988L133.249 70.0161C133.249 70.0161 127.862 69.4098 126.112 68.6692C124.36 67.9286 123.148 67.2551 123.148 67.2551C123.148 67.2551 124.9 54.0574 124.967 52.9803C125.034 51.9027 125.034 51.0277 125.034 51.0277C125.034 51.0277 121.061 52.4418 119.58 51.9704C118.098 51.499 117.896 49.95 118.031 47.9974C118.166 46.0447 118.068 45.0855 118.068 44.749C118.068 44.4126 118.47 38.8322 120.086 34.6571C121.702 30.4825 120.724 30.3553 121.869 29.6152C123.014 28.874 131.363 25.9115 131.363 25.9115L132.306 27.8641L132.691 33.8988Z" fill="#599BFE"/>
<path d="M132.691 33.8988L133.249 70.0161C133.249 70.0161 127.862 69.4098 126.112 68.6692C124.36 67.9286 123.148 67.2551 123.148 67.2551C123.148 67.2551 124.9 54.0574 124.967 52.9803C125.034 51.9027 125.034 51.0277 125.034 51.0277C125.034 51.0277 121.061 52.4418 119.58 51.9704C118.098 51.499 117.896 49.95 118.031 47.9974C118.166 46.0447 118.068 45.0855 118.068 44.749C118.068 44.4126 118.47 38.8322 120.086 34.6571C121.702 30.4825 120.724 30.3553 121.869 29.6152C123.014 28.874 131.363 25.9115 131.363 25.9115L132.306 27.8641L132.691 33.8988Z" stroke="#1A2E35" stroke-width="0.550661" stroke-miterlimit="10"/>
<path d="M126.314 27.9317C126.314 27.9317 127.526 42.2065 126.112 46.9202L123.89 46.9873C124.031 48.6173 125.034 45.7082 125.304 36.7528C125.419 32.9163 123.688 28.8067 123.688 28.8067C123.688 28.8067 125.304 28.1338 126.314 27.9317Z" fill="#1A2E35"/>
<path d="M126.314 27.9317C126.314 27.9317 127.526 42.2065 126.112 46.9202L123.89 46.9873C124.031 48.6173 125.034 45.7082 125.304 36.7528C125.419 32.9163 123.688 28.8067 123.688 28.8067C123.688 28.8067 125.304 28.1338 126.314 27.9317Z" stroke="#1A2E35" stroke-width="0.550661" stroke-miterlimit="10"/>
<path d="M132.2 23.9777C132.2 23.9777 132.996 25.9986 133.486 27.0399C133.976 28.0812 134.344 28.7547 134.344 28.7547L132.69 33.8989C132.69 33.8989 131.404 30.3466 131.159 28.0195C130.914 25.6924 130.689 26.0465 130.689 26.0465C130.689 26.0465 131.772 23.5493 132.2 23.9777Z" fill="#599BFE"/>
<path d="M132.2 23.9777C132.2 23.9777 132.996 25.9986 133.486 27.0399C133.976 28.0812 134.344 28.7547 134.344 28.7547L132.69 33.8989C132.69 33.8989 131.404 30.3466 131.159 28.0195C130.914 25.6924 130.689 26.0465 130.689 26.0465C130.689 26.0465 131.772 23.5493 132.2 23.9777Z" stroke="#1A2E35" stroke-width="0.550661" stroke-miterlimit="10"/>
<path d="M148.797 17.241C148.797 17.241 147.756 16.8738 147.389 16.5676C147.021 16.2614 146.286 15.0973 146.042 14.8528C145.797 14.6078 144.578 15.0356 144.361 14.4541C144.143 13.8726 144.026 13.2823 144.759 13.4552C145.491 13.6276 146.932 13.686 146.932 13.686L145.782 9.92276L151.063 9.95305C151.063 9.95305 152.595 15.159 152.595 15.5874C152.595 16.0164 152.35 16.996 152.35 16.996C152.35 16.996 159.576 25.0802 161.107 27.1012C162.638 29.1221 164.537 31.8782 164.721 32.9189C164.904 33.9602 164.353 37.2675 163.067 37.6959C161.781 38.1249 160.617 37.6348 159.27 36.349C157.922 35.0626 153.88 26.795 153.697 26.4883C153.513 26.1827 150.39 18.4657 150.206 18.2207C150.022 17.9756 148.797 17.241 148.797 17.241Z" fill="white"/>
<path d="M148.797 17.241C148.797 17.241 147.756 16.8738 147.389 16.5676C147.021 16.2614 146.286 15.0973 146.042 14.8528C145.797 14.6078 144.578 15.0356 144.361 14.4541C144.143 13.8726 144.026 13.2823 144.759 13.4552C145.491 13.6276 146.932 13.686 146.932 13.686L145.782 9.92276L151.063 9.95305C151.063 9.95305 152.595 15.159 152.595 15.5874C152.595 16.0164 152.35 16.996 152.35 16.996C152.35 16.996 159.576 25.0802 161.107 27.1012C162.638 29.1221 164.537 31.8782 164.721 32.9189C164.904 33.9602 164.353 37.2675 163.067 37.6959C161.781 38.1249 160.617 37.6348 159.27 36.349C157.922 35.0626 153.88 26.795 153.697 26.4883C153.513 26.1827 150.39 18.4657 150.206 18.2207C150.022 17.9756 148.797 17.241 148.797 17.241Z" stroke="#1A2E35" stroke-width="0.550661" stroke-miterlimit="10"/>
<path d="M146.11 26.2481C146.11 26.2481 147.659 36.3483 149.342 41.3312C151.026 46.3142 152.44 49.4788 152.44 49.4788L151.699 53.8555C151.699 53.8555 148.939 49.0746 146.649 42.6104C144.359 36.1462 143.08 26.046 143.08 26.046L146.11 26.2481Z" fill="#1A2E35"/>
<path d="M146.11 26.2481C146.11 26.2481 147.659 36.3483 149.342 41.3312C151.026 46.3142 152.44 49.4788 152.44 49.4788L151.699 53.8555C151.699 53.8555 148.939 49.0746 146.649 42.6104C144.359 36.1462 143.08 26.046 143.08 26.046L146.11 26.2481Z" stroke="#1A2E35" stroke-width="0.550661" stroke-miterlimit="10"/>
<path d="M132.629 35.9289L134.45 52.0566L124.082 50.8265L121.377 34.7521L132.629 35.9289Z" fill="white"/>
<path d="M132.629 35.9289L134.45 52.0566L124.082 50.8265L121.377 34.7521L132.629 35.9289Z" stroke="#1A2E35" stroke-width="0.550661" stroke-miterlimit="10"/>
<path d="M131.297 36.0119L134.596 51.9028L124.159 51.6336L119.984 35.8775L131.297 36.0119Z" fill="white"/>
<path d="M131.297 36.0119L134.596 51.9028L124.159 51.6336L119.984 35.8775L131.297 36.0119Z" stroke="#1A2E35" stroke-width="0.550661" stroke-miterlimit="10"/>
<path d="M121.196 45.1695C121.196 45.1695 123.418 46.3815 124.698 46.8528C125.977 47.3242 127.054 47.1893 128.064 46.7185C129.074 46.2471 129.613 45.5737 129.613 45.5737C129.613 45.5737 129.949 43.7554 130.353 43.4861C130.758 43.2168 131.7 43.0147 132.105 42.4085C132.508 41.8027 132.71 41.8699 132.845 42.4762C132.98 43.0819 133.114 43.7554 132.71 44.0247C132.306 44.2939 132.239 44.6981 132.239 44.6981C132.239 44.6981 132.306 45.1695 132.845 44.9674C133.384 44.7658 133.72 44.0918 134.259 44.2939C134.798 44.496 134.999 44.9002 134.798 45.3716C134.596 45.8429 134.259 46.3143 134.259 46.3143C134.259 46.3143 134.932 47.8628 134.596 48.8732C134.259 49.8831 132.576 50.4889 131.768 50.556C130.96 50.6238 128.67 50.691 128.67 50.691C128.67 50.691 125.371 51.768 123.351 52.3743C121.331 52.9806 120.725 52.8457 119.58 51.9707C118.435 51.0951 117.896 49.6139 118.368 47.9977C118.839 46.3815 119.378 45.5059 121.196 45.1695Z" fill="white"/>
<path d="M121.196 45.1695C121.196 45.1695 123.418 46.3815 124.698 46.8528C125.977 47.3242 127.054 47.1893 128.064 46.7185C129.074 46.2471 129.613 45.5737 129.613 45.5737C129.613 45.5737 129.949 43.7554 130.353 43.4861C130.758 43.2168 131.7 43.0147 132.105 42.4085C132.508 41.8027 132.71 41.8699 132.845 42.4762C132.98 43.0819 133.114 43.7554 132.71 44.0247C132.306 44.2939 132.239 44.6981 132.239 44.6981C132.239 44.6981 132.306 45.1695 132.845 44.9674C133.384 44.7658 133.72 44.0918 134.259 44.2939C134.798 44.496 134.999 44.9002 134.798 45.3716C134.596 45.8429 134.259 46.3143 134.259 46.3143C134.259 46.3143 134.932 47.8628 134.596 48.8732C134.259 49.8831 132.576 50.4889 131.768 50.556C130.96 50.6238 128.67 50.691 128.67 50.691C128.67 50.691 125.371 51.768 123.351 52.3743C121.331 52.9806 120.725 52.8457 119.58 51.9707C118.435 51.0951 117.896 49.6139 118.368 47.9977C118.839 46.3815 119.378 45.5059 121.196 45.1695Z" stroke="#1A2E35" stroke-width="0.550661" stroke-miterlimit="10"/>
<path d="M148.585 116.023C148.585 116.023 149.695 118.671 149.951 119.183C150.207 119.695 150.976 120.635 152.257 121.403C153.538 122.172 155.075 122.684 154.734 123.367C154.392 124.051 152.855 124.221 151.574 124.392C150.293 124.563 147.304 124.051 146.108 124.051C144.913 124.051 142.266 123.623 142.01 123.026C141.753 122.428 142.094 118.158 142.094 118.158C142.094 118.158 144.059 115.938 148.585 116.023Z" fill="white"/>
<path d="M148.585 116.023C148.585 116.023 149.695 118.671 149.951 119.183C150.207 119.695 150.976 120.635 152.257 121.403C153.538 122.172 155.075 122.684 154.734 123.367C154.392 124.051 152.855 124.221 151.574 124.392C150.293 124.563 147.304 124.051 146.108 124.051C144.913 124.051 142.266 123.623 142.01 123.026C141.753 122.428 142.094 118.158 142.094 118.158C142.094 118.158 144.059 115.938 148.585 116.023Z" stroke="#1A2E35" stroke-width="0.550661" stroke-miterlimit="10"/>
<path d="M142.009 123.026C141.929 122.839 141.907 122.291 141.916 121.627L144.991 122.54C144.991 122.54 148.213 123.36 150.732 123.477C152.587 123.564 154.026 123.111 154.657 122.865C154.783 123.026 154.822 123.191 154.733 123.367C154.392 124.051 152.855 124.221 151.574 124.392C150.293 124.563 147.304 124.051 146.108 124.051C144.912 124.051 142.265 123.623 142.009 123.026Z" fill="white"/>
<path d="M142.009 123.026C141.929 122.839 141.907 122.291 141.916 121.627L144.991 122.54C144.991 122.54 148.213 123.36 150.732 123.477C152.587 123.564 154.026 123.111 154.657 122.865C154.783 123.026 154.822 123.191 154.733 123.367C154.392 124.051 152.855 124.221 151.574 124.392C150.293 124.563 147.304 124.051 146.108 124.051C144.912 124.051 142.265 123.623 142.009 123.026Z" stroke="#1A2E35" stroke-width="0.550661" stroke-miterlimit="10"/>
<path d="M136.378 118.368C136.378 118.368 136.129 122.792 136.067 123.091C136.004 123.39 135.693 123.629 134.821 123.749C133.948 123.868 133.574 123.808 133.075 124.048C132.577 124.287 131.518 124.825 128.526 124.825C125.535 124.825 124.6 124.287 124.975 123.21C125.348 122.134 128.215 120.042 128.9 119.205C129.586 118.368 130.353 116.571 130.353 116.571C130.353 116.571 131.206 115.856 132.889 116.215C134.571 116.574 135.007 117.232 135.194 117.531C135.381 117.83 136.378 118.368 136.378 118.368Z" fill="white"/>
<path d="M136.378 118.368C136.378 118.368 136.129 122.792 136.067 123.091C136.004 123.39 135.693 123.629 134.821 123.749C133.948 123.868 133.574 123.808 133.075 124.048C132.577 124.287 131.518 124.825 128.526 124.825C125.535 124.825 124.6 124.287 124.975 123.21C125.348 122.134 128.215 120.042 128.9 119.205C129.586 118.368 130.353 116.571 130.353 116.571C130.353 116.571 131.206 115.856 132.889 116.215C134.571 116.574 135.007 117.232 135.194 117.531C135.381 117.83 136.378 118.368 136.378 118.368Z" stroke="#1A2E35" stroke-width="0.550661" stroke-miterlimit="10"/>
<path d="M124.975 123.21C124.997 123.147 125.029 123.078 125.068 123.007C125.291 123.246 125.616 123.518 126.096 123.749C127.218 124.287 131.643 123.988 132.639 123.45C133.487 122.992 135.546 122.363 136.145 122.185C136.112 122.663 136.083 123.014 136.067 123.091C136.005 123.39 135.693 123.629 134.82 123.749C133.948 123.868 133.574 123.808 133.076 124.048C132.577 124.287 131.518 124.825 128.526 124.825C125.535 124.825 124.601 124.287 124.975 123.21Z" fill="white"/>
<path d="M124.975 123.21C124.997 123.147 125.029 123.078 125.068 123.007C125.291 123.246 125.616 123.518 126.096 123.749C127.218 124.287 131.643 123.988 132.639 123.45C133.487 122.992 135.546 122.363 136.145 122.185C136.112 122.663 136.083 123.014 136.067 123.091C136.005 123.39 135.693 123.629 134.82 123.749C133.948 123.868 133.574 123.808 133.076 124.048C132.577 124.287 131.518 124.825 128.526 124.825C125.535 124.825 124.601 124.287 124.975 123.21Z" stroke="#1A2E35" stroke-width="0.550661" stroke-miterlimit="10"/>
<path d="M144.405 10.7675L148.479 10.4988V13.686L144.405 13.4173C144.21 13.4173 144.053 12.8243 144.053 12.0924C144.053 11.3606 144.21 10.7675 144.405 10.7675Z" fill="white"/>
<path d="M144.405 10.7675L148.479 10.4988V13.686L144.405 13.4173C144.21 13.4173 144.053 12.8243 144.053 12.0924C144.053 11.3606 144.21 10.7675 144.405 10.7675Z" stroke="#1A2E35" stroke-width="0.550661" stroke-miterlimit="10"/>
<path d="M143.284 10.4502H144.567C144.713 10.4502 144.812 10.5944 144.759 10.7305C144.643 11.0251 144.566 11.5256 144.566 12.0922C144.566 12.66 144.643 13.16 144.759 13.4551C144.812 13.5906 144.713 13.7349 144.567 13.7349H143.284C143.043 13.7349 142.848 12.9997 142.848 12.0922C142.848 11.1853 143.043 10.4502 143.284 10.4502Z" fill="white"/>
<path d="M143.284 10.4502H144.567C144.713 10.4502 144.812 10.5944 144.759 10.7305C144.643 11.0251 144.566 11.5256 144.566 12.0922C144.566 12.66 144.643 13.16 144.759 13.4551C144.812 13.5906 144.713 13.7349 144.567 13.7349H143.284C143.043 13.7349 142.848 12.9997 142.848 12.0922C142.848 11.1853 143.043 10.4502 143.284 10.4502Z" stroke="#1A2E35" stroke-width="0.550661" stroke-miterlimit="10"/>
<path d="M147.33 9.92266L156.178 9.48268V14.7024L147.33 14.2624C147.012 14.2624 146.754 13.291 146.754 12.0923C146.754 10.894 147.012 9.92266 147.33 9.92266Z" fill="white"/>
<path d="M147.33 9.92266L156.178 9.48268V14.7024L147.33 14.2624C147.012 14.2624 146.754 13.291 146.754 12.0923C146.754 10.894 147.012 9.92266 147.33 9.92266Z" stroke="#1A2E35" stroke-width="0.550661" stroke-miterlimit="10"/>
<path d="M155.484 12.0923C155.484 13.534 155.794 14.7019 156.177 14.7019C156.56 14.7019 156.87 13.534 156.87 12.0923C156.87 10.6512 156.56 9.48274 156.177 9.48274C155.794 9.48274 155.484 10.6512 155.484 12.0923Z" fill="white"/>
<path d="M155.484 12.0923C155.484 13.534 155.794 14.7019 156.177 14.7019C156.56 14.7019 156.87 13.534 156.87 12.0923C156.87 10.6512 156.56 9.48274 156.177 9.48274C155.794 9.48274 155.484 10.6512 155.484 12.0923Z" stroke="#1A2E35" stroke-width="0.550661" stroke-miterlimit="10"/>
<path d="M142.858 10.7675L146.932 10.4988V13.686L142.858 13.4173C142.663 13.4173 142.506 12.8243 142.506 12.0924C142.506 11.3606 142.663 10.7675 142.858 10.7675Z" fill="#1A2E35"/>
<path d="M142.858 10.7675L146.932 10.4988V13.686L142.858 13.4173C142.663 13.4173 142.506 12.8243 142.506 12.0924C142.506 11.3606 142.663 10.7675 142.858 10.7675Z" stroke="#1A2E35" stroke-width="0.550661" stroke-miterlimit="10"/>
<path d="M141.737 10.4502H143.02C143.166 10.4502 143.265 10.5944 143.212 10.7305C143.096 11.0251 143.019 11.5256 143.019 12.0922C143.019 12.66 143.096 13.16 143.212 13.4551C143.265 13.5906 143.166 13.7349 143.02 13.7349H141.737C141.496 13.7349 141.301 12.9997 141.301 12.0922C141.301 11.1853 141.496 10.4502 141.737 10.4502Z" fill="white"/>
<path d="M141.737 10.4502H143.02C143.166 10.4502 143.265 10.5944 143.212 10.7305C143.096 11.0251 143.019 11.5256 143.019 12.0922C143.019 12.66 143.096 13.16 143.212 13.4551C143.265 13.5906 143.166 13.7349 143.02 13.7349H141.737C141.496 13.7349 141.301 12.9997 141.301 12.0922C141.301 11.1853 141.496 10.4502 141.737 10.4502Z" stroke="#1A2E35" stroke-width="0.550661" stroke-miterlimit="10"/>
<path d="M145.781 9.92266L154.63 9.48268V14.7024L145.781 14.2624C145.463 14.2624 145.205 13.291 145.205 12.0923C145.205 10.894 145.463 9.92266 145.781 9.92266Z" fill="#1A2E35"/>
<path d="M145.781 9.92266L154.63 9.48268V14.7024L145.781 14.2624C145.463 14.2624 145.205 13.291 145.205 12.0923C145.205 10.894 145.463 9.92266 145.781 9.92266Z" stroke="#1A2E35" stroke-width="0.550661" stroke-miterlimit="10"/>
<path d="M153.938 12.0923C153.938 13.534 154.248 14.7019 154.63 14.7019C155.013 14.7019 155.323 13.534 155.323 12.0923C155.323 10.6512 155.013 9.48274 154.63 9.48274C154.248 9.48274 153.938 10.6512 153.938 12.0923Z" fill="white"/>
<path d="M153.938 12.0923C153.938 13.534 154.248 14.7019 154.63 14.7019C155.013 14.7019 155.323 13.534 155.323 12.0923C155.323 10.6512 155.013 9.48274 154.63 9.48274C154.248 9.48274 153.938 10.6512 153.938 12.0923Z" stroke="#1A2E35" stroke-width="0.550661" stroke-miterlimit="10"/>
<path d="M150.911 9.60771C150.911 9.60771 149.771 8.38249 149.348 8.38249C148.926 8.38249 148.25 9.48106 148.123 9.60771C147.997 9.73436 148.081 9.94581 148.546 9.98766C149.01 10.0301 149.517 9.65011 149.517 9.65011L150.911 9.60771Z" fill="white"/>
<path d="M150.911 9.60771C150.911 9.60771 149.771 8.38249 149.348 8.38249C148.926 8.38249 148.25 9.48106 148.123 9.60771C147.997 9.73436 148.081 9.94581 148.546 9.98766C149.01 10.0301 149.517 9.65011 149.517 9.65011L150.911 9.60771Z" stroke="#1A2E35" stroke-width="0.550661" stroke-miterlimit="10"/>
<path d="M149.348 8.38253C149.348 8.38253 147.912 8.04442 147.574 8.12923C147.236 8.21348 146.602 9.65015 146.73 9.86161C146.856 10.0725 148.123 9.60775 148.123 9.60775C148.123 9.60775 148.969 8.34013 149.348 8.38253Z" fill="white"/>
<path d="M149.348 8.38253C149.348 8.38253 147.912 8.04442 147.574 8.12923C147.236 8.21348 146.602 9.65015 146.73 9.86161C146.856 10.0725 148.123 9.60775 148.123 9.60775C148.123 9.60775 148.969 8.34013 149.348 8.38253Z" stroke="#1A2E35" stroke-width="0.550661" stroke-miterlimit="10"/>
<path d="M147.28 8.25548C147.28 8.25548 146.604 7.83312 146.266 8.12882C145.928 8.42453 145.21 9.4383 145.379 9.81825C145.548 10.1988 146.731 9.8612 146.731 9.8612C146.731 9.8612 146.984 8.38213 147.28 8.25548Z" fill="white"/>
<path d="M147.28 8.25548C147.28 8.25548 146.604 7.83312 146.266 8.12882C145.928 8.42453 145.21 9.4383 145.379 9.81825C145.548 10.1988 146.731 9.8612 146.731 9.8612C146.731 9.8612 146.984 8.38213 147.28 8.25548Z" stroke="#1A2E35" stroke-width="0.550661" stroke-miterlimit="10"/>
<path d="M145.926 8.38259C145.926 8.38259 145.081 8.04448 144.785 8.38259C144.49 8.72069 143.729 9.77686 144.236 10.0302C144.743 10.284 145.25 9.52356 145.25 9.52356L145.926 8.38259Z" fill="white"/>
<path d="M145.926 8.38259C145.926 8.38259 145.081 8.04448 144.785 8.38259C144.49 8.72069 143.729 9.77686 144.236 10.0302C144.743 10.284 145.25 9.52356 145.25 9.52356L145.926 8.38259Z" stroke="#1A2E35" stroke-width="0.550661" stroke-miterlimit="10"/>
</g>
</g>
<defs>
<clipPath id="clip0_443_28076">
<rect width="275.33" height="250" fill="white" transform="matrix(1 0 0 -1 0.15332 250)"/>
</clipPath>
</defs>
</svg>
