<svg width="51" height="56" viewBox="0 0 51 56" fill="none" xmlns="http://www.w3.org/2000/svg">
<g id="Group 4795">
<g id="g7854">
<path id="path7856" d="M3.85966 18.4523C5.34326 18.8276 8.81216 18.2133 8.81523 18.2125C8.85122 18.2057 7.84249 16.1407 7.7636 16.0189C6.84295 14.6043 4.16986 12.4467 2.23282 13.0066C0.83806 13.4094 0.190848 14.8923 0.641981 16.1216C1.10154 17.3785 2.5974 18.1321 3.85966 18.4523Z" fill="#1C1B1F"/>
</g>
<g id="g7858">
<path id="path7860" d="M25.4667 54.6068C25.4881 54.6811 25.508 54.7508 25.5295 54.8243L26.8821 55.12C26.791 54.8258 26.6968 54.5271 26.5995 54.2208C26.323 53.3499 26.0097 52.427 25.6781 51.4826C25.901 51.3585 27.1624 50.6431 28.2616 49.8374C29.3836 50.735 32.1088 51.5661 32.4619 51.671C32.1938 52.5618 31.925 53.4257 31.6569 54.2376C31.4746 54.7975 31.2939 55.3329 31.1177 55.8491L32.4328 55.6439C32.5485 55.2747 32.6649 54.8994 32.7844 54.5088C33.0593 53.605 33.3358 52.6361 33.61 51.6388C33.9907 51.6549 37.1004 51.7767 38.4898 51.2474C39.749 50.7672 41.2387 49.8251 41.6898 48.5108C42.1318 47.2248 41.4739 45.8255 40.076 45.5988C38.1359 45.284 35.4797 47.7786 34.5705 49.3097C34.5161 49.4 34.0436 50.4363 33.7563 51.0935C33.8659 50.686 33.9769 50.2908 34.0849 49.8696C34.3047 49.0378 34.4978 48.2037 34.7092 47.3068C34.7965 46.8702 34.8838 46.4306 34.9719 45.9856C35.0691 45.5459 35.1151 45.0733 35.1894 44.6123C35.3395 43.5423 35.4376 42.4546 35.5103 41.3578C36.2525 41.4972 38.8957 41.9537 40.2108 41.6588C41.5198 41.3655 43.1252 40.644 43.7724 39.3986C44.4066 38.18 43.9823 36.6872 42.6496 36.2553C40.7991 35.6563 37.8073 37.7549 36.6776 39.1489C36.6064 39.2355 35.9063 40.3177 35.5325 40.9182C35.5716 40.2587 35.6137 39.6008 35.6313 38.9337C35.6811 37.0082 35.6689 35.0619 35.6666 33.1196C35.665 32.5244 35.6719 31.9316 35.6758 31.3373C35.9392 31.3901 39.065 31.9998 40.5379 31.6697C41.8469 31.3763 43.4515 30.6541 44.0995 29.4094C44.7329 28.1908 44.3093 26.6981 42.9758 26.2661C41.1254 25.6679 38.1344 27.7658 37.0039 29.1597C36.9189 29.2647 35.9132 30.8226 35.6765 31.23C35.6857 29.9218 35.7072 28.6175 35.783 27.3299C35.8849 25.553 36.0848 23.809 36.408 22.1263C36.5305 22.1508 39.7888 22.8018 41.2977 22.4633C42.6067 22.1691 44.2121 21.4476 44.8593 20.203C45.4927 18.9844 45.0691 17.4916 43.7364 17.0604C41.8859 16.4607 38.8942 18.5601 37.7637 19.9533C37.6748 20.0621 36.5933 21.7395 36.4195 22.055C36.4386 21.9547 36.4478 21.8498 36.4685 21.751C36.8369 19.9564 37.4228 18.2484 38.0524 16.6721C38.4155 15.7545 38.8153 14.8944 39.222 14.0649C39.8118 14.248 42.5209 15.0514 43.9034 14.8906C45.2292 14.7366 46.8966 14.1852 47.6764 13.0079C48.4408 11.8567 48.1911 10.3172 46.925 9.74356C45.1656 8.947 41.9755 10.7285 40.701 12.0023C40.6313 12.072 40.0033 12.8471 39.5529 13.4177C39.7428 13.0455 39.9313 12.6587 40.1197 12.3056C40.8251 10.9775 41.5527 9.79871 42.2061 8.75935C42.5821 8.17112 42.9337 7.6457 43.2684 7.15627C43.9624 7.03679 46.7572 6.51979 47.926 5.77608C49.0665 5.05075 50.3303 3.83216 50.4843 2.47265C50.6351 1.14071 49.6731 -0.0702209 48.2393 0.00330734C46.2494 0.105942 44.1753 3.06241 43.6146 4.72753C43.5671 4.87075 43.0716 7.18997 43.1076 7.18385C43.1076 7.18385 43.1413 7.17772 43.1497 7.17619C42.8181 7.6411 42.4696 8.14278 42.0989 8.69731C41.421 9.72595 40.6658 10.8947 39.929 12.2144C39.1891 13.5318 38.4216 14.9817 37.7522 16.5702C37.0782 18.1618 36.4524 19.8645 36.0365 21.6859C36.0311 21.7065 36.0289 21.728 36.0243 21.7494C35.9775 21.1895 35.7914 19.6339 35.7623 19.5168C35.3625 17.8662 33.5702 14.9656 31.5865 14.922C30.158 14.8913 29.078 16.1329 29.1002 17.4618C29.124 18.8182 30.2721 20.0016 31.3452 20.6947C32.5538 21.4752 35.7332 21.9195 35.9867 21.9547C35.6068 23.6918 35.361 25.4956 35.2154 27.3284C35.1304 28.3754 35.0791 29.4316 35.0416 30.4901C34.9849 30.0084 34.9297 29.5787 34.9152 29.5197C34.5146 27.8699 32.7231 24.9701 30.7393 24.9265C29.3101 24.8951 28.2302 26.1359 28.2531 27.4647C28.2769 28.822 29.425 30.0053 30.4965 30.6977C31.5849 31.4001 34.2848 31.8336 35.001 31.9377C34.9918 32.3444 34.9765 32.7496 34.968 33.1548C34.9267 35.1025 34.8945 37.0449 34.8018 38.9536C34.7697 39.6253 34.713 40.2886 34.6578 40.9511C34.6073 40.5237 34.5606 40.1653 34.5475 40.1109C34.147 38.4604 32.3547 35.5606 30.3717 35.5169C28.9425 35.4863 27.8625 36.7271 27.8847 38.0567C27.9085 39.4124 29.0566 40.5965 30.1297 41.2881C31.1675 41.9591 33.6545 42.3803 34.5054 42.509C34.4281 43.1884 34.3522 43.8678 34.2458 44.5242C34.163 44.9707 34.1148 45.4042 34.006 45.8507C33.908 46.2935 33.8115 46.7331 33.715 47.1674C33.4975 47.9999 33.2792 48.8593 33.0471 49.6673C32.8893 50.2303 32.7292 50.7642 32.5691 51.3026C32.609 50.6332 32.6595 49.3227 32.6511 49.2132C32.5623 48.0804 31.9564 46.3095 30.9929 45.1476C30.9806 44.9807 30.9538 44.816 30.9086 44.6551C30.5578 43.3898 29.1891 42.6224 27.8457 43.1899C25.9821 43.9765 25.0998 47.3941 25.184 49.1052C25.1894 49.2063 25.3694 50.2877 25.495 50.9687C25.3571 50.5834 25.2285 50.2081 25.0822 49.8129C24.798 49.0316 24.4893 48.2603 24.1615 47.4286C23.9877 47.0333 23.813 46.6351 23.6353 46.2314C23.4699 45.8278 23.2393 45.4257 23.041 45.0167C22.56 44.0815 22.0238 43.1585 21.4616 42.241C22.1862 41.9553 24.7421 40.9059 25.7148 39.9662C26.6837 39.0302 27.6657 37.5933 27.5178 36.2514C27.3723 34.9363 26.1529 33.9697 24.749 34.3381C22.8005 34.8498 21.4003 38.1295 21.2142 39.8497C21.2035 39.957 21.2119 41.197 21.2303 41.8779C20.8879 41.3295 20.5494 40.7803 20.1841 40.2381C19.1286 38.671 18.008 37.1207 16.8974 35.5682C16.5566 35.0926 16.2242 34.6146 15.8879 34.1375C16.1468 34.0387 19.209 32.8538 20.2989 31.8006C21.2678 30.8654 22.2498 29.4278 22.1012 28.0859C21.9564 26.7716 20.7363 25.805 19.3323 26.1734C17.3838 26.6843 15.9845 29.964 15.7983 31.6842C15.7845 31.8144 15.7999 33.5983 15.8267 34.0509C15.0883 33.0001 14.3637 31.9454 13.6943 30.8754C12.7683 29.3995 11.948 27.8967 11.2671 26.3779C11.3881 26.3312 14.5889 25.1072 15.7049 24.0296C16.6746 23.0936 17.6557 21.6567 17.5071 20.3148C17.3624 19.0005 16.1422 18.0332 14.7383 18.4016C12.7898 18.9132 11.3912 22.1937 11.205 23.9139C11.1897 24.0487 11.2081 25.9681 11.2372 26.3151C11.1966 26.2239 11.1445 26.1351 11.1047 26.0447C10.4008 24.4118 9.93667 22.7329 9.58204 21.1344C9.37448 20.2061 9.23048 19.3046 9.111 18.4238C9.72757 18.253 12.5378 17.4465 13.6468 16.5771C14.7099 15.7438 15.842 14.4103 15.8481 13.0516C15.8542 11.7212 14.7597 10.6228 13.332 10.8419C11.3506 11.1467 9.5966 14.2801 9.21746 15.9812C9.19678 16.0739 9.09338 17.0306 9.02828 17.7283C8.98079 17.3285 8.92334 16.9187 8.88658 16.535C8.74105 15.0951 8.69969 13.7624 8.67365 12.5813C8.66446 11.9088 8.66982 11.2999 8.68208 10.7308C9.21593 10.2629 11.3467 8.35265 11.938 7.1333C12.514 5.94228 12.9154 4.29018 12.2735 3.11985C11.6455 1.97403 10.119 1.5206 8.91645 2.3478C7.24596 3.49516 7.1326 6.97092 7.59599 8.60234C7.63658 8.7425 8.52966 10.8618 8.558 10.8381C8.558 10.8381 8.58404 10.8151 8.59016 10.8097C8.56795 11.3581 8.55034 11.9471 8.54497 12.5897C8.54421 13.7746 8.55493 15.1135 8.66829 16.5641C8.77782 18.0148 8.93866 19.5842 9.26418 21.2133C9.58817 22.847 10.0148 24.545 10.6934 26.2239C10.7011 26.2431 10.711 26.2622 10.7195 26.2814C10.3587 25.8594 9.30937 24.7143 9.21823 24.6354C7.92917 23.5302 4.71762 22.1691 2.9713 23.1963C1.71211 23.9369 1.4831 25.5078 2.26128 26.5587C3.05555 27.631 4.72834 27.9634 6.05417 27.9427C7.55003 27.9205 10.5647 26.574 10.8037 26.466C11.4655 28.0591 12.2812 29.6338 13.2003 31.1772C13.7242 32.0603 14.2818 32.9319 14.8539 33.7989C14.5292 33.4451 14.2366 33.1303 14.1906 33.0905C12.9008 31.9852 9.69004 30.625 7.94372 31.6521C6.6853 32.3919 6.45552 33.9636 7.23294 35.0137C8.02721 36.0868 9.70076 36.4184 11.0266 36.3985C12.3723 36.3786 14.9627 35.2787 15.6451 34.9792C15.868 35.3093 16.0863 35.641 16.3107 35.9703C17.3861 37.5497 18.4661 39.1213 19.4756 40.6976C19.8317 41.2521 20.1588 41.8128 20.4904 42.3727C20.2024 42.0579 19.9573 41.7952 19.9144 41.76C18.6246 40.654 15.4146 39.2937 13.6675 40.3215C12.4091 41.0607 12.1793 42.6316 12.9575 43.6824C13.7525 44.7555 15.4246 45.0871 16.7512 45.0672C18.0356 45.0481 20.4345 44.0531 21.2464 43.7008C21.5666 44.2844 21.8882 44.8696 22.1709 45.4509C22.3547 45.853 22.5607 46.2261 22.72 46.6412C22.8878 47.0479 23.054 47.4508 23.2179 47.8506C23.5044 48.6318 23.8054 49.4368 24.065 50.2073C24.2496 50.7412 24.4151 51.2543 24.5836 51.7713C24.2366 51.2137 23.5319 50.1392 23.4622 50.0564C22.3731 48.7636 19.4426 46.9338 17.5707 47.702C16.2227 48.2558 15.7516 49.7899 16.3498 50.9526C16.9595 52.139 18.5442 52.7165 19.8463 52.8919C21.2793 53.0841 24.3208 52.2317 24.7 52.1237C24.9757 52.9792 25.2346 53.8141 25.4667 54.6068Z" fill="#1C1B1F"/>
</g>
<g id="g7862">
<path id="path7864" d="M39.1056 13.7231C39.1385 13.7369 39.5092 11.4039 39.5161 11.2553C39.5866 9.53425 38.6797 6.23082 36.8109 5.67935C35.4644 5.28184 34.1018 6.22316 33.7602 7.53212C33.4117 8.86866 34.1776 10.3247 35.0048 11.279C35.9768 12.3988 39.1033 13.7216 39.1056 13.7231Z" fill="#1C1B1F"/>
</g>
</g>
</svg>
