<svg width="20" height="20" viewBox="0 0 20 20" fill="none" xmlns="http://www.w3.org/2000/svg">
<g id="Icon / heat_pump_balance">
<mask id="mask0_386_42409" style="mask-type:alpha" maskUnits="userSpaceOnUse" x="0" y="0" width="20" height="20">
<rect id="Bounding box" width="20" height="20" fill="#D9D9D9"/>
</mask>
<g mask="url(#mask0_386_42409)">
<path id="heat_pump_balance" d="M2.7564 17.5834C2.34213 17.5834 1.9875 17.4359 1.6925 17.1409C1.3975 16.8459 1.25 16.4913 1.25 16.077V10.6444C1.25 10.431 1.32218 10.2521 1.46654 10.1077C1.6109 9.96334 1.78978 9.89116 2.00319 9.89116H17.9967C18.2101 9.89116 18.389 9.96334 18.5334 10.1077C18.6777 10.2521 18.7499 10.431 18.7499 10.6444V16.077C18.7499 16.4913 18.6024 16.8459 18.3074 17.1409C18.0124 17.4359 17.6578 17.5834 17.2435 17.5834H2.7564ZM5.83235 15.0514C6.46866 15.0514 7.00983 14.8286 7.45587 14.383C7.90192 13.9374 8.12494 13.3963 8.12494 12.7597V8.27258C8.12494 7.98304 8.22617 7.73704 8.42862 7.53458C8.6311 7.33212 8.8771 7.23089 9.16662 7.23089C9.45615 7.23089 9.70215 7.33212 9.90462 7.53458C10.1071 7.73704 10.2083 7.98304 10.2083 8.27258V12.7597C10.2083 13.3963 10.431 13.9374 10.8764 14.383C11.3219 14.8286 11.8627 15.0514 12.499 15.0514C13.1353 15.0514 13.6765 14.8286 14.1225 14.383C14.5686 13.9374 14.7916 13.3963 14.7916 12.7597V7.43924C14.7916 7.1497 14.8928 6.9037 15.0953 6.70124C15.2978 6.49879 15.5438 6.39756 15.8333 6.39756H17.3253L16.5817 7.14118C16.4663 7.25656 16.4086 7.40025 16.4086 7.57227C16.4086 7.74427 16.4658 7.88749 16.5801 8.00193C16.7048 8.11639 16.8503 8.17622 17.0166 8.18143C17.1828 8.18663 17.3237 8.13154 17.439 8.01616L19.1554 6.29981C19.306 6.14882 19.3814 5.96952 19.3814 5.76189C19.3814 5.55427 19.306 5.37513 19.1554 5.22449L17.439 3.50816C17.3132 3.38423 17.1663 3.32227 16.9985 3.32227C16.8307 3.32227 16.6848 3.38423 16.5609 3.50816C16.4369 3.63209 16.375 3.77926 16.375 3.94966C16.375 4.12006 16.4369 4.26723 16.5609 4.39116L17.3173 5.1476H15.8333C15.1967 5.1476 14.6556 5.3704 14.21 5.81599C13.7644 6.26159 13.5416 6.80268 13.5416 7.43924V12.7597C13.5416 13.0493 13.4404 13.2952 13.238 13.4977C13.0355 13.7002 12.7895 13.8014 12.5 13.8014C12.2104 13.8014 11.9644 13.7002 11.762 13.4977C11.5595 13.2952 11.4583 13.0493 11.4583 12.7597V8.27258C11.4583 7.63601 11.2356 7.09493 10.7901 6.64933C10.3447 6.20373 9.80387 5.98093 9.16756 5.98093C8.53126 5.98093 7.99008 6.20373 7.54404 6.64933C7.098 7.09493 6.87498 7.63601 6.87498 8.27258V12.7597C6.87498 13.0493 6.77375 13.2952 6.57129 13.4977C6.36882 13.7002 6.12282 13.8014 5.83329 13.8014C5.54376 13.8014 5.29776 13.7002 5.09529 13.4977C4.89283 13.2952 4.7916 13.0493 4.7916 12.7597V6.60591C4.7916 6.42883 4.73169 6.28039 4.61185 6.1606C4.49201 6.04082 4.34351 5.98093 4.16635 5.98093C3.98919 5.98093 3.84078 6.04082 3.72112 6.1606C3.60147 6.28039 3.54165 6.42883 3.54165 6.60591V12.7597C3.54165 13.3963 3.76435 13.9374 4.20977 14.383C4.65519 14.8286 5.19605 15.0514 5.83235 15.0514Z" fill="#969696"/>
</g>
</g>
</svg>
