<svg width="20" height="20" viewBox="0 0 20 20" fill="none" xmlns="http://www.w3.org/2000/svg">
<g id="Icon / crop">
<mask id="mask0_386_42540" style="mask-type:alpha" maskUnits="userSpaceOnUse" x="0" y="0" width="20" height="20">
<rect id="Bounding box" width="20" height="20" fill="#D9D9D9"/>
</mask>
<g mask="url(#mask0_386_42540)">
<path id="crop" d="M14.3753 18.9584V15.625H5.88172C5.46078 15.625 5.10448 15.4792 4.81283 15.1875C4.52116 14.8959 4.37533 14.5396 4.37533 14.1186V5.62504H1.04199V4.37508H4.37533V1.04175H5.62528V14.1186C5.62528 14.1828 5.652 14.2415 5.70543 14.2949C5.75885 14.3484 5.81761 14.3751 5.88172 14.3751H18.9586V15.625H15.6253V18.9584L14.3753 18.9584ZM14.3753 13.1251V5.88148C14.3753 5.81737 14.3486 5.7586 14.2952 5.70519C14.2418 5.65176 14.183 5.62504 14.1189 5.62504H6.87526V4.37508H14.1189C14.5398 4.37508 14.8961 4.52091 15.1878 4.81258C15.4795 5.10423 15.6253 5.46053 15.6253 5.88148V13.1251H14.3753Z" fill="#969696"/>
</g>
</g>
</svg>
