<svg width="20" height="20" viewBox="0 0 20 20" fill="none" xmlns="http://www.w3.org/2000/svg">
<g id="Icon / bed">
<mask id="mask0_386_42560" style="mask-type:alpha" maskUnits="userSpaceOnUse" x="0" y="0" width="20" height="20">
<rect id="Bounding box" width="20" height="20" fill="#D9D9D9"/>
</mask>
<g mask="url(#mask0_386_42560)">
<path id="bed" d="M2.70772 15.4166C2.53056 15.4166 2.38216 15.3567 2.26251 15.2369C2.14284 15.1171 2.08301 14.9687 2.08301 14.7916V10.8333C2.08301 10.5224 2.15673 10.2208 2.30417 9.92863C2.45161 9.63643 2.65566 9.39632 2.91634 9.20829V7.08329C2.91634 6.50104 3.11799 6.00826 3.5213 5.60496C3.92462 5.20165 4.4174 5 4.99965 5H8.54134C8.84476 5 9.11665 5.05903 9.35703 5.17708C9.59742 5.29514 9.81163 5.45833 9.99965 5.66667C10.1877 5.45833 10.4019 5.29514 10.6423 5.17708C10.8827 5.05903 11.1546 5 11.458 5H14.9997C15.5819 5 16.0747 5.20165 16.478 5.60496C16.8813 6.00826 17.083 6.50104 17.083 7.08329V9.20829C17.3436 9.39632 17.5477 9.63643 17.6951 9.92863C17.8426 10.2208 17.9163 10.5224 17.9163 10.8333V14.7916C17.9163 14.9687 17.8564 15.1171 17.7365 15.2369C17.6167 15.3567 17.4682 15.4166 17.291 15.4166C17.1139 15.4166 16.9655 15.3567 16.8458 15.2369C16.7261 15.1171 16.6663 14.9687 16.6663 14.7916V13.7499H3.33299V14.7916C3.33299 14.9687 3.27306 15.1171 3.15322 15.2369C3.03338 15.3567 2.88488 15.4166 2.70772 15.4166ZM10.6246 8.74996H15.833V7.08329C15.833 6.84718 15.7531 6.64926 15.5934 6.48954C15.4337 6.32982 15.2358 6.24996 14.9997 6.24996H11.458C11.2219 6.24996 11.0239 6.32982 10.8642 6.48954C10.7045 6.64926 10.6246 6.84718 10.6246 7.08329V8.74996ZM4.16632 8.74996H9.37468V7.08329C9.37468 6.84718 9.29481 6.64926 9.13509 6.48954C8.97537 6.32982 8.77745 6.24996 8.54134 6.24996H4.99965C4.76354 6.24996 4.56563 6.32982 4.4059 6.48954C4.24618 6.64926 4.16632 6.84718 4.16632 7.08329V8.74996ZM3.33299 12.4999H16.6663V10.8333C16.6663 10.5972 16.5865 10.3992 16.4267 10.2395C16.267 10.0798 16.0691 9.99994 15.833 9.99994H4.16632C3.93021 9.99994 3.73229 10.0798 3.57257 10.2395C3.41285 10.3992 3.33299 10.5972 3.33299 10.8333V12.4999Z" fill="#969696"/>
</g>
</g>
</svg>
