<svg width="20" height="20" viewBox="0 0 20 20" fill="none" xmlns="http://www.w3.org/2000/svg">
<g id="Icon / foundation">
<mask id="mask0_386_42549" style="mask-type:alpha" maskUnits="userSpaceOnUse" x="0" y="0" width="20" height="20">
<rect id="Bounding box" width="20" height="20" fill="#D9D9D9"/>
</mask>
<g mask="url(#mask0_386_42549)">
<path id="foundation" d="M4.5835 15.6249V13.7499H3.89441C3.71733 13.7499 3.5689 13.6899 3.44912 13.5701C3.32933 13.4502 3.26943 13.3017 3.26943 13.1246C3.26943 12.9474 3.32933 12.799 3.44912 12.6794C3.5689 12.5597 3.71733 12.4999 3.89441 12.4999H4.5835V9.62326L3.57552 9.74345C3.40245 9.7862 3.2705 9.7253 3.17968 9.56076C3.08888 9.39624 3.11986 9.24881 3.27264 9.11847L9.49397 3.51249C9.63057 3.37591 9.79904 3.30762 9.99939 3.30762C10.1998 3.30762 10.3688 3.37599 10.5065 3.51274L16.7276 9.11847C16.8804 9.24881 16.9114 9.39624 16.8206 9.56076C16.7298 9.7253 16.5978 9.7862 16.4248 9.74345L15.4168 9.62326V12.4999H16.1059C16.283 12.4999 16.4314 12.5598 16.5512 12.6797C16.671 12.7995 16.7308 12.948 16.7308 13.1252C16.7308 13.3023 16.671 13.4507 16.5512 13.5704C16.4314 13.69 16.283 13.7499 16.1059 13.7499H15.4168V15.6249C15.4168 15.802 15.3569 15.9504 15.237 16.0702C15.1172 16.19 14.9687 16.2499 14.7915 16.2499C14.6144 16.2499 14.4659 16.19 14.3463 16.0702C14.2266 15.9504 14.1668 15.802 14.1668 15.6249V13.7499H10.6251V15.6249C10.6251 15.802 10.5652 15.9504 10.4454 16.0702C10.3255 16.19 10.177 16.2499 9.99987 16.2499C9.8227 16.2499 9.67429 16.19 9.55464 16.0702C9.43499 15.9504 9.37516 15.802 9.37516 15.6249V13.7499H5.83347V15.6249C5.83347 15.802 5.77355 15.9504 5.6537 16.0702C5.53387 16.19 5.38537 16.2499 5.2082 16.2499C5.03105 16.2499 4.88265 16.19 4.763 16.0702C4.64333 15.9504 4.5835 15.802 4.5835 15.6249ZM5.83347 12.4999H9.37516V5.31558L5.83347 8.49989V12.4999ZM10.6251 12.4999H14.1668V8.49989L10.6251 5.31558V12.4999Z" fill="#969696"/>
</g>
</g>
</svg>
