<svg width="20" height="20" viewBox="0 0 20 20" fill="none" xmlns="http://www.w3.org/2000/svg">
<g id="Icon/repartition">
<mask id="mask0_386_42529" style="mask-type:alpha" maskUnits="userSpaceOnUse" x="0" y="0" width="20" height="20">
<rect id="Bounding box" width="20" height="20" fill="#D9D9D9"/>
</mask>
<g mask="url(#mask0_386_42529)">
<path id="repartition" d="M4.46964 6.61849L5.59147 7.73231C5.72074 7.85624 5.78537 8.0034 5.78537 8.1738C5.78537 8.34421 5.72074 8.49404 5.59147 8.6233C5.4622 8.75258 5.3137 8.81722 5.14597 8.81722C4.97824 8.81722 4.82973 8.75258 4.70045 8.6233L2.61072 6.52074C2.46009 6.3701 2.38477 6.19436 2.38477 5.99351C2.38477 5.79265 2.46009 5.6169 2.61072 5.46626L4.72129 3.3557C4.83668 3.24031 4.97957 3.18262 5.14997 3.18262C5.32038 3.18262 5.46754 3.24031 5.59147 3.3557C5.72074 3.47963 5.78404 3.62813 5.78137 3.8012C5.77869 3.97427 5.71539 4.12277 5.59147 4.2467L4.46964 5.36853H14.0867C14.9125 5.36853 15.6184 5.66153 16.2044 6.24753C16.7904 6.83353 17.0834 7.53946 17.0834 8.3653C17.0834 9.19115 16.7904 9.89708 16.2044 10.4831C15.6184 11.0691 14.9125 11.3621 14.0867 11.3621H3.54181C3.36446 11.3621 3.21596 11.3022 3.09631 11.1826C2.97664 11.0629 2.91681 10.9144 2.91681 10.7371C2.91681 10.5597 2.97664 10.4112 3.09631 10.2916C3.21596 10.1719 3.36446 10.1121 3.54181 10.1121H14.0867C14.5717 10.1121 14.9841 9.94222 15.3238 9.60247C15.6636 9.26274 15.8335 8.85035 15.8335 8.3653C15.8335 7.88025 15.6636 7.46785 15.3238 7.12812C14.9841 6.78837 14.5717 6.61849 14.0867 6.61849H4.46964ZM2.91681 16.4101V14.8557C2.91681 14.4401 3.06398 14.0851 3.35833 13.7908C3.65266 13.4964 4.00763 13.3493 4.42322 13.3493H15.577C15.9926 13.3493 16.3476 13.4964 16.6419 13.7908C16.9363 14.0851 17.0834 14.4401 17.0834 14.8557V16.4101C17.0834 16.8257 16.9363 17.1807 16.6419 17.475C16.3476 17.7694 15.9926 17.9166 15.577 17.9166H4.42322C4.00763 17.9166 3.65266 17.7694 3.35833 17.475C3.06398 17.1807 2.91681 16.8257 2.91681 16.4101ZM4.42322 16.6666H7.2181V14.5992H4.42322C4.34843 14.5992 4.287 14.6233 4.23891 14.6714C4.19083 14.7194 4.16679 14.7809 4.16679 14.8557V16.4101C4.16679 16.4849 4.19083 16.5464 4.23891 16.5944C4.287 16.6425 4.34843 16.6666 4.42322 16.6666ZM8.46806 16.6666H11.5113V14.5992H8.46806V16.6666ZM12.7821 16.6666H15.577C15.6518 16.6666 15.7132 16.6425 15.7613 16.5944C15.8094 16.5464 15.8335 16.4849 15.8335 16.4101V14.8557C15.8335 14.7809 15.8094 14.7194 15.7613 14.6714C15.7132 14.6233 15.6518 14.5992 15.577 14.5992H12.7821V16.6666Z" fill="#969696"/>
</g>
</g>
</svg>
