<svg width="20" height="20" viewBox="0 0 20 20" fill="none" xmlns="http://www.w3.org/2000/svg">
<g id="Icon/calendar_month">
<mask id="mask0_386_42621" style="mask-type:alpha" maskUnits="userSpaceOnUse" x="0" y="0" width="20" height="20">
<rect id="Bounding box" width="20" height="20" fill="#D9D9D9"/>
</mask>
<g mask="url(#mask0_386_42621)">
<path id="calendar_month" d="M4.42341 17.9167C4.00246 17.9167 3.64616 17.7709 3.35449 17.4792C3.06283 17.1876 2.91699 16.8313 2.91699 16.4103V5.25653C2.91699 4.83559 3.06283 4.47928 3.35449 4.18762C3.64616 3.89595 4.00246 3.75012 4.42341 3.75012H5.57726V2.6283C5.57726 2.44562 5.63843 2.29312 5.76076 2.17078C5.88308 2.04846 6.03559 1.9873 6.21828 1.9873C6.40096 1.9873 6.55347 2.04846 6.67581 2.17078C6.79812 2.29312 6.85928 2.44562 6.85928 2.6283V3.75012H13.1734V2.61228C13.1734 2.43494 13.2332 2.28644 13.3528 2.16678C13.4725 2.04713 13.621 1.9873 13.7983 1.9873C13.9757 1.9873 14.1242 2.04713 14.2438 2.16678C14.3635 2.28644 14.4233 2.43494 14.4233 2.61228V3.75012H15.5772C15.9981 3.75012 16.3545 3.89595 16.6461 4.18762C16.9378 4.47928 17.0836 4.83559 17.0836 5.25653V16.4103C17.0836 16.8313 16.9378 17.1876 16.6461 17.4792C16.3545 17.7709 15.9981 17.9167 15.5772 17.9167H4.42341ZM4.42341 16.6668H15.5772C15.6413 16.6668 15.7001 16.6401 15.7535 16.5866C15.8069 16.5332 15.8336 16.4744 15.8336 16.4103V8.58987H4.16697V16.4103C4.16697 16.4744 4.19368 16.5332 4.2471 16.5866C4.30053 16.6401 4.3593 16.6668 4.42341 16.6668ZM4.16697 7.33989H15.8336V5.25653C15.8336 5.19242 15.8069 5.13365 15.7535 5.08022C15.7001 5.02681 15.6413 5.0001 15.5772 5.0001H4.42341C4.3593 5.0001 4.30053 5.02681 4.2471 5.08022C4.19368 5.13365 4.16697 5.19242 4.16697 5.25653V7.33989ZM10.0003 11.7309C9.79625 11.7309 9.62238 11.659 9.47868 11.5153C9.33499 11.3716 9.26314 11.1978 9.26314 10.9937C9.26314 10.7896 9.33499 10.6158 9.47868 10.4721C9.62238 10.3284 9.79625 10.2565 10.0003 10.2565C10.2044 10.2565 10.3782 10.3284 10.5219 10.4721C10.6656 10.6158 10.7375 10.7896 10.7375 10.9937C10.7375 11.1978 10.6656 11.3716 10.5219 11.5153C10.3782 11.659 10.2044 11.7309 10.0003 11.7309ZM6.66697 11.7309C6.46292 11.7309 6.28904 11.659 6.14535 11.5153C6.00165 11.3716 5.9298 11.1978 5.9298 10.9937C5.9298 10.7896 6.00165 10.6158 6.14535 10.4721C6.28904 10.3284 6.46292 10.2565 6.66697 10.2565C6.87103 10.2565 7.0449 10.3284 7.1886 10.4721C7.33229 10.6158 7.40414 10.7896 7.40414 10.9937C7.40414 11.1978 7.33229 11.3716 7.1886 11.5153C7.0449 11.659 6.87103 11.7309 6.66697 11.7309ZM13.3336 11.7309C13.1296 11.7309 12.9557 11.659 12.812 11.5153C12.6683 11.3716 12.5965 11.1978 12.5965 10.9937C12.5965 10.7896 12.6683 10.6158 12.812 10.4721C12.9557 10.3284 13.1296 10.2565 13.3336 10.2565C13.5377 10.2565 13.7116 10.3284 13.8553 10.4721C13.999 10.6158 14.0708 10.7896 14.0708 10.9937C14.0708 11.1978 13.999 11.3716 13.8553 11.5153C13.7116 11.659 13.5377 11.7309 13.3336 11.7309ZM10.0003 15.0001C9.79625 15.0001 9.62238 14.9282 9.47868 14.7846C9.33499 14.6409 9.26314 14.467 9.26314 14.2629C9.26314 14.0589 9.33499 13.885 9.47868 13.7413C9.62238 13.5976 9.79625 13.5257 10.0003 13.5257C10.2044 13.5257 10.3782 13.5976 10.5219 13.7413C10.6656 13.885 10.7375 14.0589 10.7375 14.2629C10.7375 14.467 10.6656 14.6409 10.5219 14.7846C10.3782 14.9282 10.2044 15.0001 10.0003 15.0001ZM6.66697 15.0001C6.46292 15.0001 6.28904 14.9282 6.14535 14.7846C6.00165 14.6409 5.9298 14.467 5.9298 14.2629C5.9298 14.0589 6.00165 13.885 6.14535 13.7413C6.28904 13.5976 6.46292 13.5257 6.66697 13.5257C6.87103 13.5257 7.0449 13.5976 7.1886 13.7413C7.33229 13.885 7.40414 14.0589 7.40414 14.2629C7.40414 14.467 7.33229 14.6409 7.1886 14.7846C7.0449 14.9282 6.87103 15.0001 6.66697 15.0001ZM13.3336 15.0001C13.1296 15.0001 12.9557 14.9282 12.812 14.7846C12.6683 14.6409 12.5965 14.467 12.5965 14.2629C12.5965 14.0589 12.6683 13.885 12.812 13.7413C12.9557 13.5976 13.1296 13.5257 13.3336 13.5257C13.5377 13.5257 13.7116 13.5976 13.8553 13.7413C13.999 13.885 14.0708 14.0589 14.0708 14.2629C14.0708 14.467 13.999 14.6409 13.8553 14.7846C13.7116 14.9282 13.5377 15.0001 13.3336 15.0001Z" fill="#969696"/>
</g>
</g>
</svg>
