<svg width="20" height="20" viewBox="0 0 20 20" fill="none" xmlns="http://www.w3.org/2000/svg">
<g id="Icon / shower">
<mask id="mask0_386_42519" style="mask-type:alpha" maskUnits="userSpaceOnUse" x="0" y="0" width="20" height="20">
<rect id="Bounding box" width="20" height="20" fill="#D9D9D9"/>
</mask>
<g mask="url(#mask0_386_42519)">
<path id="shower" d="M6.69782 14.5513C6.48879 14.5513 6.31376 14.4806 6.17274 14.3392C6.03171 14.1978 5.96119 14.0226 5.96119 13.8136C5.96119 13.6046 6.0319 13.4295 6.1733 13.2885C6.3147 13.1475 6.48992 13.077 6.69895 13.077C6.90796 13.077 7.08298 13.1477 7.22401 13.2891C7.36504 13.4305 7.43555 13.6057 7.43555 13.8147C7.43555 14.0237 7.36485 14.1987 7.22345 14.3398C7.08204 14.4808 6.90683 14.5513 6.69782 14.5513ZM9.99909 14.5513C9.79006 14.5513 9.61504 14.4806 9.47401 14.3392C9.33299 14.1978 9.26249 14.0226 9.26249 13.8136C9.26249 13.6046 9.33318 13.4295 9.47457 13.2885C9.61597 13.1475 9.79119 13.077 10.0002 13.077C10.2092 13.077 10.3843 13.1477 10.5253 13.2891C10.6663 13.4305 10.7368 13.6057 10.7368 13.8147C10.7368 14.0237 10.6661 14.1987 10.5247 14.3398C10.3833 14.4808 10.2081 14.5513 9.99909 14.5513ZM13.3004 14.5513C13.0913 14.5513 12.9163 14.4806 12.7753 14.3392C12.6343 14.1978 12.5638 14.0226 12.5638 13.8136C12.5638 13.6046 12.6345 13.4295 12.7759 13.2885C12.9173 13.1475 13.0925 13.077 13.3015 13.077C13.5105 13.077 13.6855 13.1477 13.8266 13.2891C13.9676 13.4305 14.0381 13.6057 14.0381 13.8147C14.0381 14.0237 13.9674 14.1987 13.826 14.3398C13.6846 14.4808 13.5094 14.5513 13.3004 14.5513ZM5.3202 11.25C5.11614 11.25 4.94226 11.1782 4.79857 11.0345C4.65486 10.8908 4.58301 10.7169 4.58301 10.5129V10.0001C4.58301 8.60798 5.04054 7.40366 5.95561 6.3871C6.87067 5.37055 8.01035 4.78642 9.37467 4.63471V3.54175C9.37467 3.36466 9.43459 3.21623 9.55442 3.09644C9.67427 2.97664 9.82277 2.91675 9.99992 2.91675C10.1771 2.91675 10.3255 2.97664 10.4452 3.09644C10.5648 3.21623 10.6246 3.36466 10.6246 3.54175V4.63471C11.989 4.78642 13.1286 5.37055 14.0437 6.3871C14.9588 7.40366 15.4163 8.60798 15.4163 10.0001V10.5129C15.4163 10.7169 15.3444 10.8908 15.2007 11.0345C15.057 11.1782 14.8832 11.25 14.6791 11.25H5.3202ZM5.83299 10.0001H14.1663C14.1663 8.84728 13.7601 7.86464 12.9476 7.05214C12.1351 6.23964 11.1524 5.83339 9.99965 5.83339C8.84688 5.83339 7.86424 6.23964 7.05174 7.05214C6.23924 7.86464 5.83299 8.84728 5.83299 10.0001ZM6.69782 17.0192C6.48879 17.0192 6.31376 16.9486 6.17274 16.8072C6.03171 16.6658 5.96119 16.4905 5.96119 16.2815C5.96119 16.0725 6.0319 15.8975 6.1733 15.7565C6.3147 15.6154 6.48992 15.5449 6.69895 15.5449C6.90796 15.5449 7.08298 15.6156 7.22401 15.757C7.36504 15.8984 7.43555 16.0736 7.43555 16.2826C7.43555 16.4917 7.36485 16.6667 7.22345 16.8077C7.08204 16.9487 6.90683 17.0192 6.69782 17.0192ZM9.99909 17.0192C9.79006 17.0192 9.61504 16.9486 9.47401 16.8072C9.33299 16.6658 9.26249 16.4905 9.26249 16.2815C9.26249 16.0725 9.33318 15.8975 9.47457 15.7565C9.61597 15.6154 9.79119 15.5449 10.0002 15.5449C10.2092 15.5449 10.3843 15.6156 10.5253 15.757C10.6663 15.8984 10.7368 16.0736 10.7368 16.2826C10.7368 16.4917 10.6661 16.6667 10.5247 16.8077C10.3833 16.9487 10.2081 17.0192 9.99909 17.0192ZM13.3004 17.0192C13.0913 17.0192 12.9163 16.9486 12.7753 16.8072C12.6343 16.6658 12.5638 16.4905 12.5638 16.2815C12.5638 16.0725 12.6345 15.8975 12.7759 15.7565C12.9173 15.6154 13.0925 15.5449 13.3015 15.5449C13.5105 15.5449 13.6855 15.6156 13.8266 15.757C13.9676 15.8984 14.0381 16.0736 14.0381 16.2826C14.0381 16.4917 13.9674 16.6667 13.826 16.8077C13.6846 16.9487 13.5094 17.0192 13.3004 17.0192Z" fill="#969696"/>
</g>
</g>
</svg>
