<svg width="20" height="20" viewBox="0 0 20 20" fill="none" xmlns="http://www.w3.org/2000/svg">
<g id="Icon/precision_manufacturing">
<mask id="mask0_386_42501" style="mask-type:alpha" maskUnits="userSpaceOnUse" x="0" y="0" width="20" height="20">
<rect id="Bounding box" width="20" height="20" fill="#D9D9D9"/>
</mask>
<g mask="url(#mask0_386_42501)">
<path id="precision_manufacturing" d="M4.60247 16.8589C4.33539 16.8589 4.10837 16.7654 3.92141 16.5784C3.73444 16.3915 3.64095 16.1645 3.64095 15.8974C3.64095 15.6303 3.73444 15.4032 3.92141 15.2163C4.10837 15.0293 4.33539 14.9359 4.60247 14.9359H6.19224L4.05122 7.92944C3.68155 7.73713 3.38187 7.45828 3.15218 7.09289C2.92247 6.72752 2.80762 6.32368 2.80762 5.88137C2.80762 5.24569 3.03064 4.70483 3.4767 4.25879C3.92274 3.81275 4.4636 3.58973 5.09928 3.58973C5.62492 3.58973 6.08485 3.74598 6.47908 4.05848C6.87331 4.37098 7.14308 4.77028 7.28837 5.25639H10.1474V4.21471C10.1474 4.03736 10.2072 3.88886 10.3268 3.76921C10.4465 3.64955 10.595 3.58973 10.7723 3.58973C10.8813 3.58973 10.9828 3.6175 11.0768 3.67306C11.1708 3.72862 11.2435 3.8066 11.2948 3.90702V4.01921L12.7595 2.65383C12.8792 2.53416 13.0178 2.45964 13.1754 2.43027C13.333 2.40089 13.4871 2.4252 13.6377 2.50319L16.8396 3.98716C16.9742 4.05447 17.0701 4.15196 17.1273 4.27962C17.1844 4.40729 17.1837 4.53416 17.1249 4.66023C17.0576 4.79484 16.9601 4.88111 16.8324 4.91904C16.7048 4.95696 16.5779 4.94654 16.4518 4.88779L13.3717 3.46471L11.3973 5.29804V6.46471L13.3717 8.25637L16.4518 6.83329C16.5779 6.77453 16.7069 6.76625 16.8388 6.80846C16.9708 6.85065 17.0661 6.93478 17.1249 7.06085C17.1922 7.19546 17.1951 7.32446 17.1337 7.44785C17.0723 7.57126 16.9742 7.66661 16.8396 7.73391L13.6377 9.24352C13.4871 9.32152 13.333 9.34449 13.1754 9.31244C13.0178 9.28038 12.8792 9.2072 12.7595 9.09289L11.2948 7.74352V7.85571C11.2435 7.93904 11.1708 8.01276 11.0768 8.07687C10.9828 8.14097 10.8813 8.17302 10.7723 8.17302C10.595 8.17302 10.4465 8.11319 10.3268 7.99354C10.2072 7.87389 10.1474 7.72539 10.1474 7.54804V6.50635H7.28837C7.2467 6.65487 7.18954 6.7991 7.11689 6.93906C7.04423 7.07902 6.95823 7.20723 6.85887 7.32369L10.9614 14.9359H13.0961C13.3632 14.9359 13.5902 15.0293 13.7772 15.2163C13.9641 15.4032 14.0576 15.6303 14.0576 15.8974C14.0576 16.1645 13.9641 16.3915 13.7772 16.5784C13.5902 16.7654 13.3632 16.8589 13.0961 16.8589H4.60247ZM5.09928 6.92306C5.38881 6.92306 5.6348 6.82182 5.83726 6.61935C6.03972 6.41689 6.14095 6.1709 6.14095 5.88137C6.14095 5.59183 6.03972 5.34583 5.83726 5.14337C5.6348 4.94091 5.38881 4.83969 5.09928 4.83969C4.80974 4.83969 4.56374 4.94091 4.36128 5.14337C4.15883 5.34583 4.0576 5.59183 4.0576 5.88137C4.0576 6.1709 4.15883 6.41689 4.36128 6.61935C4.56374 6.82182 4.80974 6.92306 5.09928 6.92306ZM7.48387 14.9359H9.52557L5.84608 8.09289C5.80334 8.1196 5.73603 8.1423 5.64414 8.161C5.55225 8.17969 5.47426 8.1837 5.41016 8.17302L7.48387 14.9359Z" fill="#969696"/>
</g>
</g>
</svg>
