<svg width="20" height="20" viewBox="0 0 20 20" fill="none" xmlns="http://www.w3.org/2000/svg">
<g id="Icon/floor" clip-path="url(#clip0_386_42510)">
<mask id="mask0_386_42510" style="mask-type:alpha" maskUnits="userSpaceOnUse" x="0" y="0" width="20" height="20">
<rect id="Bounding box" width="20" height="20" fill="#D9D9D9"/>
</mask>
<g mask="url(#mask0_386_42510)">
<path id="floor" d="M5.62467 16.8749V13.8781C5.62467 13.6647 5.69685 13.4858 5.84122 13.3415C5.98558 13.1971 6.16446 13.1249 6.37786 13.1249H9.37468V10.1281C9.37468 9.9147 9.44686 9.73582 9.59122 9.59146C9.73558 9.4471 9.91446 9.37492 10.1279 9.37492H13.1247V6.37811C13.1247 6.1647 13.1969 5.98582 13.3412 5.84146C13.4856 5.6971 13.6645 5.62492 13.8779 5.62492H16.8747V3.33323C16.8747 3.15615 16.9346 3.00771 17.0544 2.88792C17.1743 2.76814 17.3228 2.70825 17.4999 2.70825C17.6771 2.70825 17.8255 2.76814 17.9452 2.88792C18.0648 3.00771 18.1246 3.15615 18.1246 3.33323V6.12169C18.1246 6.33509 18.0525 6.51397 17.9081 6.65834C17.7637 6.8027 17.5848 6.87488 17.3714 6.87488H14.3746V9.87169C14.3746 10.0851 14.3025 10.264 14.1581 10.4083C14.0137 10.5527 13.8348 10.6249 13.6214 10.6249H10.6246V13.6217C10.6246 13.8351 10.5525 14.014 10.4081 14.1583C10.2637 14.3027 10.0848 14.3749 9.87145 14.3749H6.87463V17.3717C6.87463 17.5851 6.80245 17.764 6.65809 17.9083C6.51373 18.0527 6.33485 18.1249 6.12145 18.1249H3.33299C3.1559 18.1249 3.00747 18.065 2.8877 17.9451C2.7679 17.8253 2.70801 17.6768 2.70801 17.4996C2.70801 17.3225 2.7679 17.1741 2.8877 17.0544C3.00747 16.9347 3.1559 16.8749 3.33299 16.8749H5.62467Z" fill="#969696"/>
</g>
</g>
<defs>
<clipPath id="clip0_386_42510">
<rect width="20" height="20" fill="white"/>
</clipPath>
</defs>
</svg>
