<svg width="20" height="20" viewBox="0 0 20 20" fill="none" xmlns="http://www.w3.org/2000/svg">
<g id="Icon/outdoor_grill">
<mask id="mask0_386_42585" style="mask-type:alpha" maskUnits="userSpaceOnUse" x="0" y="0" width="20" height="20">
<rect id="Bounding box" width="20" height="20" fill="#D9D9D9"/>
</mask>
<g mask="url(#mask0_386_42585)">
<path id="outdoor_grill" d="M3.90025 18.7533C3.75388 18.6603 3.66308 18.5273 3.62783 18.3542C3.59256 18.1812 3.62141 18.0214 3.71437 17.8751L7.18233 12.5449C6.34472 12.2063 5.63932 11.7023 5.06614 11.0329C4.49296 10.3636 4.10861 9.58502 3.9131 8.69722C3.86609 8.49315 3.91202 8.31206 4.05091 8.15394C4.1898 7.99582 4.37249 7.91676 4.59897 7.91676H13.7336C13.96 7.91676 14.1427 7.99582 14.2816 8.15394C14.4205 8.31206 14.4664 8.49315 14.4194 8.69722C14.2239 9.58502 13.8409 10.3636 13.2704 11.0329C12.6999 11.7023 11.9958 12.2063 11.1582 12.5449L12.0942 14.0241C11.8719 14.1363 11.6911 14.2445 11.5517 14.3487C11.4123 14.4528 11.2582 14.5978 11.0894 14.7837L9.88741 12.875C9.75922 12.9028 9.51884 12.9167 9.16627 12.9167H8.79527C8.67295 12.9167 8.56157 12.9028 8.46114 12.875L6.40662 16.0418H11.256C11.3832 15.5791 11.6385 15.2044 12.022 14.9175C12.4056 14.6307 12.8372 14.4873 13.3169 14.4873C13.9205 14.4873 14.4347 14.6996 14.8594 15.1243C15.284 15.549 15.4964 16.0631 15.4964 16.6667C15.4964 17.2704 15.284 17.7845 14.8594 18.2092C14.4347 18.6339 13.9205 18.8462 13.3169 18.8462C12.8372 18.8462 12.4056 18.7028 12.022 18.4159C11.6385 18.1291 11.3832 17.7543 11.256 17.2917H5.59575L4.77843 18.5674C4.68549 18.7137 4.55248 18.8045 4.37941 18.8398C4.20634 18.875 4.04662 18.8462 3.90025 18.7533ZM13.3169 17.5962C13.5797 17.5962 13.8004 17.507 13.9788 17.3286C14.1572 17.1502 14.2464 16.9296 14.2464 16.6667C14.2464 16.4039 14.1572 16.1833 13.9788 16.0049C13.8004 15.8265 13.5797 15.7372 13.3169 15.7372C13.0541 15.7372 12.8335 15.8265 12.655 16.0049C12.4766 16.1833 12.3874 16.4039 12.3874 16.6667C12.3874 16.9296 12.4766 17.1502 12.655 17.3286C12.8335 17.507 13.0541 17.5962 13.3169 17.5962ZM9.16627 11.6748C10.0103 11.6748 10.7747 11.4429 11.4595 10.9792C12.1444 10.5156 12.6577 9.91139 12.9996 9.16674H5.33293C5.68336 9.91139 6.19886 10.5156 6.87941 10.9792C7.55997 11.4429 8.32225 11.6748 9.16627 11.6748ZM7.44991 6.7629C7.35163 6.7629 7.27498 6.73192 7.21995 6.66994C7.16494 6.60799 7.13743 6.52359 7.13743 6.41676C7.14811 6.1176 7.10885 5.8481 7.01964 5.60826C6.93043 5.36841 6.76777 5.1096 6.53166 4.83182C6.27952 4.51557 6.10538 4.21455 6.00922 3.92876C5.91307 3.64297 5.88423 3.31951 5.92268 2.9584C5.93124 2.8879 5.9657 2.82594 6.02606 2.77253C6.08642 2.7191 6.15613 2.69238 6.23518 2.69238C6.33348 2.69238 6.41013 2.72337 6.46514 2.78534C6.52016 2.8473 6.54766 2.9317 6.54766 3.03853C6.53698 3.33768 6.57625 3.60505 6.66545 3.84063C6.75466 4.0762 6.91732 4.33288 7.15343 4.61065C7.41413 4.93544 7.59041 5.24074 7.68229 5.52653C7.77416 5.81232 7.80087 6.13577 7.76241 6.49688C7.75387 6.5674 7.71942 6.62936 7.65906 6.68278C7.59868 6.7362 7.52897 6.7629 7.44991 6.7629ZM9.52525 6.7629C9.42695 6.7629 9.3503 6.73192 9.29529 6.66994C9.24026 6.60799 9.21275 6.52359 9.21275 6.41676C9.23198 6.1176 9.197 5.8481 9.10779 5.60826C9.01858 5.36841 8.85592 5.1096 8.61981 4.83182C8.35911 4.52413 8.18069 4.22524 8.08454 3.93517C7.98838 3.6451 7.95954 3.31951 7.99802 2.9584C8.00656 2.8879 8.04101 2.82594 8.10137 2.77253C8.16173 2.7191 8.23144 2.69238 8.3105 2.69238C8.40879 2.69238 8.48544 2.72337 8.54045 2.78534C8.59548 2.8473 8.623 2.9317 8.623 3.03853C8.61232 3.33768 8.65158 3.60505 8.74079 3.84063C8.83 4.0762 8.99266 4.33288 9.22877 4.61065C9.48091 4.9269 9.65505 5.23006 9.7512 5.52011C9.84736 5.81018 9.8762 6.13577 9.83773 6.49688C9.82918 6.5674 9.79473 6.62936 9.73437 6.68278C9.67401 6.7362 9.6043 6.7629 9.52525 6.7629ZM11.6166 6.7629C11.5183 6.7629 11.4416 6.73192 11.3866 6.66994C11.3316 6.60799 11.3041 6.52359 11.3041 6.41676C11.3233 6.1176 11.2883 5.8481 11.1991 5.60826C11.1099 5.36841 10.9473 5.1096 10.7111 4.83182C10.4505 4.52413 10.272 4.22524 10.1759 3.93517C10.0797 3.6451 10.0509 3.31951 10.0894 2.9584C10.0979 2.8879 10.1324 2.82594 10.1927 2.77253C10.2531 2.7191 10.3228 2.69238 10.4019 2.69238C10.5001 2.69238 10.5768 2.72337 10.6318 2.78534C10.6868 2.8473 10.7143 2.9317 10.7143 3.03853C10.7036 3.33768 10.7429 3.60505 10.8321 3.84063C10.9213 4.0762 11.084 4.33288 11.3201 4.61065C11.5722 4.9269 11.7464 5.23006 11.8425 5.52011C11.9387 5.81018 11.9675 6.13577 11.9291 6.49688C11.9205 6.5674 11.8861 6.62936 11.8257 6.68278C11.7653 6.7362 11.6956 6.7629 11.6166 6.7629Z" fill="#969696"/>
</g>
</g>
</svg>
