<svg width="20" height="20" viewBox="0 0 20 20" fill="none" xmlns="http://www.w3.org/2000/svg">
<g id="Icon / home">
<mask id="mask0_386_42490" style="mask-type:alpha" maskUnits="userSpaceOnUse" x="0" y="0" width="20" height="20">
<rect id="Bounding box" width="20" height="20" fill="#D9D9D9"/>
</mask>
<g mask="url(#mask0_386_42490)">
<path id="home" d="M4.99998 15.8332H7.78846V11.6345C7.78846 11.4211 7.86064 11.2422 8.005 11.0979C8.14936 10.9535 8.32825 10.8813 8.54167 10.8813H11.4583C11.6717 10.8813 11.8506 10.9535 11.995 11.0979C12.1393 11.2422 12.2115 11.4211 12.2115 11.6345V15.8332H15V8.46145C15 8.41872 14.9906 8.37999 14.9719 8.34527C14.9532 8.31054 14.9279 8.27983 14.8958 8.25312L10.1522 4.68741C10.1095 4.65002 10.0587 4.63133 9.99998 4.63133C9.94122 4.63133 9.89047 4.65002 9.84773 4.68741L5.10415 8.25312C5.0721 8.27983 5.04673 8.31054 5.02802 8.34527C5.00933 8.37999 4.99998 8.41872 4.99998 8.46145V15.8332ZM3.75 15.8332V8.46145C3.75 8.22294 3.80335 7.99698 3.91006 7.78358C4.01677 7.57017 4.16427 7.39443 4.35256 7.25635L9.09615 3.68264C9.35938 3.48178 9.66023 3.38135 9.99869 3.38135C10.3371 3.38135 10.6389 3.48178 10.9038 3.68264L15.6474 7.25635C15.8357 7.39443 15.9832 7.57017 16.0899 7.78358C16.1966 7.99698 16.25 8.22294 16.25 8.46145V15.8332C16.25 16.1741 16.1268 16.4676 15.8806 16.7138C15.6343 16.9601 15.3408 17.0832 15 17.0832H11.7147C11.5013 17.0832 11.3224 17.011 11.1781 16.8667C11.0337 16.7223 10.9615 16.5434 10.9615 16.33V12.1313H9.03844V16.33C9.03844 16.5434 8.96626 16.7223 8.8219 16.8667C8.67752 17.011 8.49863 17.0832 8.28523 17.0832H4.99998C4.65917 17.0832 4.36565 16.9601 4.1194 16.7138C3.87313 16.4676 3.75 16.1741 3.75 15.8332Z" fill="#969696"/>
</g>
</g>
</svg>
